<?xml version="1.0" encoding="UTF-8"?>
<svg width="25px" height="26px" viewBox="0 0 25 26" version="1.1" xmlns="http://www.w3.org/2000/svg" xmlns:xlink="http://www.w3.org/1999/xlink">
    <!-- Generator: Sketch 50.2 (55047) - http://www.bohemiancoding.com/sketch -->
    <title>Group 10</title>
    <desc>Created with Sketch.</desc>
    <defs></defs>
    <g id="Page-1" stroke="none" stroke-width="1" fill="none" fill-rule="evenodd">
        <g id="Features-2" transform="translate(-482.000000, -1038.000000)" fill="#0B203E">
            <g id="Group-10" transform="translate(482.000000, 1038.000000)">
                <g id="24-hours" transform="translate(0.000000, 2.000000)" fill-rule="nonzero">
                    <path d="M23.8091931,19.4536868 L17.9349387,15.5380173 C17.7873182,15.4395711 17.5942834,15.4424637 17.4495074,15.5452006 L14.4637358,17.667482 C13.0368019,16.8208064 11.4436865,15.5455381 9.94872767,14.0505739 C8.4541545,12.5559953 7.17889082,10.9628259 6.33183265,9.53554939 L8.45454019,6.55039371 C8.55746957,6.40571353 8.5603622,6.21253343 8.46186818,6.06481598 L5.05449592,0.953907795 C5.05039803,0.946820828 5.04605908,0.939878493 5.04143088,0.93303258 L4.54606817,0.19054025 C4.42819354,0.0138964023 4.19880807,-0.0496452438 4.0067375,0.0412318449 L2.04823487,0.968563834 C1.95195853,1.01417112 1.87612345,1.09400796 1.83557843,1.19245413 L0.0322171256,5.57239232 C-0.0187895647,5.69629371 -0.00880999489,5.8369242 0.0591667853,5.95248514 L1.20532279,7.90062959 C1.23772024,7.95645753 1.27074442,8.01170694 1.30420249,8.06748667 C4.62363884,13.6341784 10.3654109,19.375923 15.9310218,22.6947447 C15.986946,22.7282993 16.0430147,22.7618539 16.097348,22.7934801 L18.0475584,23.9408455 C18.1142335,23.9800408 18.1892008,24 18.264602,24 C18.3198512,24 18.3751968,23.9893454 18.4276016,23.9677471 L22.8070418,22.1638971 C22.9054876,22.123352 22.9852278,22.0475648 23.0308349,21.9513845 L23.9587421,19.9932605 C24.0497152,19.8011892 23.9860292,19.5715137 23.8091931,19.4536868 Z M3.77642938,0.888888889 L4.03659022,1.28573394 C4.04039745,1.29237802 4.04447662,1.29902209 4.04878242,1.30552775 L7.11111111,5.98161839 L6.32219831,7.11111111 L2.66666667,1.42382919 L3.77642938,0.888888889 Z M17.9643337,23.1111111 L16.2282922,22.0897597 C16.1764665,22.0595641 16.1246409,22.0284692 16.071774,21.9968063 C10.7178277,18.8042077 5.19543611,13.2818583 2.00273842,7.92795145 C2.0025491,7.92766748 2.00240711,7.92733618 2.00217046,7.92705221 C1.97116972,7.87536937 1.94059495,7.82415981 1.90935756,7.77044184 L0.888888889,6.03594299 L2.27616022,2.66666667 L6.10098906,8.5121758 L5.37495643,9.53314855 C5.28039234,9.66623659 5.27135243,9.8421097 5.35200169,9.98409553 C6.21604677,11.5065622 7.57312196,13.2262472 9.17318616,14.8263801 C10.7737237,16.4268444 12.4935312,17.7839449 14.0156912,18.6475974 C14.1576794,18.7282453 14.3335553,18.7192055 14.4666455,18.6245483 L15.4876821,17.8987641 L21.3333333,21.723389 L17.9643337,23.1111111 Z M22.5760403,20.4444444 L16.8888889,16.7888785 L18.0185033,16 L23.1111111,19.3349651 L22.5760403,20.4444444 Z" id="Shape"></path>
                </g>
                <polygon id="+" points="16.9296875 13.875 16.9296875 7.9453125 11 7.9453125 11 5.91796875 16.9296875 5.91796875 16.9296875 0 18.9570312 0 18.9570312 5.91796875 24.875 5.91796875 24.875 7.9453125 18.9570312 7.9453125 18.9570312 13.875"></polygon>
            </g>
        </g>
    </g>
</svg>