<?xml version="1.0" encoding="UTF-8"?>
<svg width="34px" height="20px" viewBox="0 0 34 20" version="1.1" xmlns="http://www.w3.org/2000/svg" xmlns:xlink="http://www.w3.org/1999/xlink">
    <!-- Generator: Sketch 50.2 (55047) - http://www.bohemiancoding.com/sketch -->
    <title>Page 1</title>
    <desc>Created with Sketch.</desc>
    <defs></defs>
    <g id="New-Section" stroke="none" stroke-width="1" fill="none" fill-rule="evenodd">
        <g id="Search-Rates---Main" transform="translate(-207.000000, -685.000000)">
            <g id="Group-7" transform="translate(207.000000, 458.000000)">
                <g id="Group-6" transform="translate(0.000000, 144.000000)">
                    <g id="Group" transform="translate(0.000000, 39.000000)">
                        <g id="Page-1">
                            <g transform="translate(0.000000, 44.000000)">
                                <polygon id="Fill-1" fill="#BC0030" points="0 19.5821 33.563 19.5821 33.563 0.0001 0 0.0001"></polygon>
                                <path d="M15.1016,4.3243 C15.0466,4.3713 14.7736,4.3513 14.7226,4.2973 C14.6716,4.2503 14.7146,4.1603 14.7926,4.1443 C14.8436,4.1293 14.8826,4.1213 14.9066,4.1213 C15.0156,4.1173 14.9176,4.2193 14.9686,4.2543 C15.0316,4.2973 15.1956,4.0783 15.1016,4.3243 M18.5896,4.2543 C18.6446,4.2193 18.5466,4.1173 18.6546,4.1213 C18.6776,4.1213 18.7166,4.1293 18.7676,4.1443 C18.8476,4.1603 18.8866,4.2503 18.8376,4.2973 C18.7876,4.3513 18.5116,4.3713 18.4586,4.3243 C18.3676,4.0783 18.5276,4.2973 18.5896,4.2543 M22.1756,12.4373 C22.1366,12.4063 22.0646,12.3873 21.9986,12.3833 C21.9376,12.3833 21.8476,12.3593 21.7966,12.3363 C21.6856,12.2853 21.5666,12.3013 21.4646,12.3903 C21.3966,12.4453 21.3536,12.4533 21.0956,12.4763 C20.7326,12.5043 20.6156,12.5043 20.6156,12.4803 C20.6156,12.4693 20.7076,12.4023 20.8226,12.3283 C20.9786,12.2263 21.0426,12.1993 21.0916,12.2113 C21.2016,12.2303 21.3356,12.1793 21.4396,12.0743 C21.5376,11.9723 21.5626,11.9693 21.7856,11.9763 C21.8376,11.9803 21.8026,11.9803 21.8746,11.9693 C21.8416,11.8793 21.7106,11.7033 21.4886,11.7613 C21.3906,11.7853 21.3356,11.7893 21.2856,11.7733 C21.1426,11.7223 20.9516,11.8243 20.8906,11.9803 C20.8636,12.0583 20.7166,12.1763 20.4626,12.3323 L20.2756,12.4493 L19.9146,12.3083 C19.5136,12.1563 19.1716,12.0003 19.1716,11.9763 C19.1716,11.9653 19.2206,11.9023 19.2836,11.8283 C19.3456,11.7653 19.3946,11.6993 19.3946,11.6913 C19.3946,11.6833 19.3266,11.6403 19.2386,11.5973 C18.6776,11.3163 18.2796,10.9183 18.1116,10.4693 C17.9926,10.1563 18.0526,10.0823 18.2016,10.3633 C18.3166,10.5903 18.4046,10.6913 18.5646,10.7973 C18.7346,10.9063 18.8326,10.9263 18.8986,10.8673 C18.9726,10.7973 18.9556,10.7153 18.8476,10.5903 C18.5996,10.3083 18.5276,9.8833 18.7326,9.8833 C18.8086,9.8833 18.8206,9.8943 18.9726,10.2583 C19.1956,10.7613 19.4196,11.1013 19.5976,11.1873 C19.7466,11.2693 19.9906,11.2073 20.0316,11.0783 C20.0606,10.9763 20.0236,10.9103 19.8516,10.8043 C19.5826,10.6293 19.4046,10.3473 19.3376,9.9763 C19.3146,9.8593 19.3186,9.8283 19.3536,9.7733 C19.4146,9.6833 19.4586,9.7153 19.6326,9.9723 C19.9586,10.4693 20.5486,11.1133 20.7896,11.2463 C21.2166,11.4803 21.6386,11.4723 21.8946,11.2193 C21.9626,11.1483 21.9866,11.1053 21.9866,11.0433 C21.9866,10.9223 21.8946,10.8713 21.6996,10.8793 C21.2516,10.8983 21.2106,10.8943 21.0396,10.8163 C20.7076,10.6563 20.3826,10.2813 20.1286,9.7543 C19.8866,9.2583 19.9496,9.2343 20.3556,9.6483 C20.9026,10.2073 21.3436,10.4143 21.7496,10.2933 C21.9476,10.2383 22.1346,10.0583 22.1346,9.9263 C22.1346,9.7853 22.0646,9.7463 21.8496,9.7583 C21.7516,9.7613 21.5746,9.7653 21.4516,9.7653 C21.2426,9.7693 21.2106,9.7613 21.0586,9.6873 C20.9646,9.6443 20.8186,9.5353 20.7166,9.4453 C20.4576,9.2033 20.0196,8.6013 20.0196,8.4843 C20.0196,8.3673 20.1236,8.4143 20.3906,8.6523 C20.6116,8.8443 20.9996,9.1053 21.1756,9.1913 C21.2776,9.2343 21.3436,9.2463 21.5376,9.2463 C21.7426,9.2463 21.7926,9.2423 21.8946,9.1833 C22.0586,9.1013 22.1176,9.0233 22.1286,8.8513 C22.1486,8.6053 22.0276,8.5433 21.6736,8.6363 C21.1736,8.7583 20.9106,8.6683 20.4496,8.1993 C20.2266,7.9723 20.1486,7.8473 20.1776,7.7773 C20.2016,7.7073 20.3006,7.7423 20.7246,7.9533 C21.1936,8.1913 21.3266,8.2383 21.5466,8.2383 C21.7426,8.2383 21.8676,8.1993 21.9866,8.0973 C22.1656,7.9413 22.2126,7.7653 22.0976,7.6523 C22.0076,7.5583 21.8306,7.5663 21.6306,7.6683 C21.5316,7.7153 21.4256,7.7503 21.3356,7.7583 C21.0216,7.7893 20.5586,7.6133 20.3306,7.3833 C20.1736,7.2263 20.0996,7.0823 20.1426,7.0273 C20.1856,6.9763 20.2536,6.9883 20.4296,7.0583 C20.7676,7.2033 20.9296,7.2423 21.1876,7.2423 C21.4726,7.2423 21.6466,7.1953 21.8946,7.0583 C22.0836,6.9533 22.2106,6.8163 22.2106,6.7263 C22.2106,6.6873 22.1896,6.6213 22.1606,6.5743 C22.0896,6.4573 21.9556,6.4613 21.7146,6.5973 C21.2286,6.8593 20.8966,6.8983 20.5566,6.7263 C20.4126,6.6563 20.1696,6.4223 20.1056,6.2973 C20.0686,6.2223 20.0686,6.2113 20.1036,6.1763 C20.1486,6.1333 20.1796,6.1333 20.5546,6.2733 C20.7406,6.3403 20.8226,6.3593 21.0426,6.3673 C21.3356,6.3793 21.5136,6.3473 21.7036,6.2583 C21.9606,6.1403 22.2106,5.8363 22.2106,5.6483 C22.2106,5.5543 22.1526,5.4373 22.0976,5.4143 C21.9886,5.3713 21.9276,5.3983 21.7596,5.5783 C21.4946,5.8443 21.2346,5.9453 20.8166,5.9453 C20.3746,5.9453 20.1896,5.8793 20.1896,5.7113 C20.1896,5.5943 20.2796,5.5273 20.4606,5.4963 C21.0116,5.4063 21.6486,5.1213 21.9906,4.8043 C22.1916,4.6173 22.2676,4.4843 22.2656,4.3243 C22.2616,4.1443 22.1836,4.0193 22.0406,3.9803 C21.9216,3.9453 21.8266,4.0043 21.6996,4.2033 C21.4866,4.5393 21.2676,4.7223 20.8516,4.9293 C20.6116,5.0513 20.2246,5.1833 20.1546,5.1723 C20.1286,5.1643 20.0956,5.1213 20.0766,5.0623 C20.0136,4.8943 20.0036,4.8903 19.7536,4.9963 C19.6306,5.0513 19.3766,5.1483 19.1876,5.2153 C18.8086,5.3473 18.6816,5.4293 18.5936,5.6093 C18.5466,5.6953 18.5376,5.7543 18.5376,6.0233 C18.5356,6.3043 18.5276,6.3403 18.4786,6.4143 C18.4026,6.5233 18.3396,6.5513 18.1796,6.5513 C17.9476,6.5513 17.8186,6.4143 17.8066,6.1483 C17.7906,5.9333 17.8306,5.7463 17.9376,5.5273 C18.0426,5.3043 18.1646,5.1723 18.3946,5.0193 C18.6156,4.8753 18.8286,4.8083 19.1366,4.7773 C19.4126,4.7543 19.6936,4.6483 19.7596,4.5113 C19.4766,4.5943 19.1936,4.4723 19.2186,4.4613 C19.2426,4.4453 19.7466,4.4453 19.8126,4.4413 C20.0256,4.4183 20.1076,4.3593 20.2246,4.2693 C20.3596,4.1763 20.4496,4.0863 20.4126,4.0233 C20.3806,3.9573 20.2796,3.9693 20.2086,4.0473 C20.1776,4.0863 20.1116,4.1563 20.0646,4.2113 C19.9846,4.3013 19.9666,4.3083 19.7266,4.3443 C19.5446,4.3713 19.5136,4.3713 19.4086,4.3443 C19.3746,4.3203 19.3456,4.2893 19.3456,4.2773 C19.3456,4.2423 19.4436,4.1873 19.5376,4.1683 C19.6016,4.1523 19.7496,4.2033 19.8746,4.2383 C19.8476,4.1683 19.8476,4.1643 19.8046,4.0823 C19.7466,3.9653 19.6386,3.9223 19.3746,3.9143 C19.1876,3.9063 19.1246,3.8943 19.0836,3.8593 C19.0566,3.8323 19.0096,3.8013 18.9846,3.7813 C18.9536,3.7653 18.9066,3.7583 18.8496,3.7583 C18.6816,3.7503 18.4176,3.8163 18.1646,3.9263 C18.0236,3.9883 17.9606,4.0043 17.8166,4.0043 C17.7166,4.0043 17.5916,3.9923 17.5396,3.9763 C17.3376,3.9223 17.3026,3.9223 17.3026,3.9613 C17.3026,4.0083 17.4726,4.1643 17.6016,4.2263 C17.6676,4.2653 17.6956,4.2893 17.6816,4.3163 C17.6646,4.3713 17.4726,4.4963 17.3556,4.5353 C17.2366,4.5783 17.2406,4.6253 17.3696,4.6873 C17.4296,4.7153 17.4726,4.7503 17.4766,4.7653 C17.4786,4.8363 17.2286,5.0003 17.1156,5.0003 C16.9786,5.0003 17.0316,5.1093 17.1836,5.1403 C17.2656,5.1603 17.2656,5.1723 17.1916,5.2503 C17.1096,5.3473 17.0376,5.3793 16.9536,5.3633 C16.8616,5.3403 16.8416,5.3793 16.8966,5.4763 C16.9376,5.5473 16.9376,5.5543 16.8926,5.5863 C16.8746,5.6013 16.8476,5.6093 16.8186,5.6173 C16.8126,5.6173 16.8046,5.6213 16.8026,5.6213 C16.7946,5.6213 16.7856,5.6213 16.7816,5.6253 C16.7736,5.6213 16.7656,5.6213 16.7576,5.6213 C16.7536,5.6213 16.7466,5.6173 16.7406,5.6173 C16.7126,5.6093 16.6876,5.6013 16.6646,5.5863 C16.6216,5.5543 16.6216,5.5473 16.6646,5.4763 C16.7166,5.3793 16.6996,5.3403 16.6056,5.3633 C16.5256,5.3793 16.4496,5.3473 16.3676,5.2503 C16.2926,5.1723 16.2926,5.1603 16.3786,5.1403 C16.5296,5.1093 16.5806,5.0003 16.4436,5.0003 C16.3306,5.0003 16.0806,4.8363 16.0836,4.7653 C16.0856,4.7503 16.1306,4.7153 16.1916,4.6873 C16.3226,4.6253 16.3246,4.5783 16.2036,4.5353 C16.0856,4.4963 15.8946,4.3713 15.8766,4.3163 C15.8656,4.2893 15.8926,4.2653 15.9606,4.2263 C16.0876,4.1643 16.2556,4.0083 16.2556,3.9613 C16.2556,3.9223 16.2226,3.9223 16.0216,3.9763 C15.9686,3.9923 15.8416,4.0043 15.7446,4.0043 C15.5976,4.0043 15.5356,3.9883 15.3946,3.9263 C15.1406,3.8163 14.8806,3.7503 14.7086,3.7583 C14.6546,3.7583 14.6076,3.7653 14.5766,3.7813 C14.5486,3.8013 14.5036,3.8323 14.4746,3.8593 C14.4336,3.8943 14.3736,3.9063 14.1876,3.9143 C13.9196,3.9223 13.8146,3.9653 13.7536,4.0823 C13.7086,4.1643 13.7086,4.1683 13.6836,4.2383 C13.8086,4.2033 13.9576,4.1523 14.0236,4.1683 C14.1156,4.1873 14.2146,4.2423 14.2146,4.2773 C14.2146,4.2893 14.1836,4.3203 14.1506,4.3443 C14.0466,4.3713 14.0136,4.3713 13.8326,4.3443 C13.5936,4.3083 13.5766,4.3013 13.4926,4.2113 C13.4516,4.1563 13.3826,4.0863 13.3516,4.0473 C13.2816,3.9693 13.1796,3.9573 13.1486,4.0233 C13.1116,4.0863 13.1996,4.1763 13.3356,4.2693 C13.4536,4.3593 13.5356,4.4183 13.7466,4.4413 C13.8106,4.4453 14.3166,4.4453 14.3396,4.4613 C14.3656,4.4723 14.0826,4.5943 13.8006,4.5113 C13.8656,4.6483 14.1486,4.7543 14.4236,4.7773 C14.7346,4.8083 14.9456,4.8753 15.1636,5.0193 C15.3946,5.1723 15.5176,5.3043 15.6216,5.5273 C15.7286,5.7463 15.7676,5.9333 15.7536,6.1483 C15.7406,6.4143 15.6136,6.5513 15.3806,6.5513 C15.2226,6.5513 15.1586,6.5233 15.0826,6.4143 C15.0316,6.3403 15.0256,6.3043 15.0216,6.0233 C15.0216,5.7543 15.0136,5.6953 14.9686,5.6093 C14.8786,5.4293 14.7516,5.3473 14.3716,5.2153 C14.1816,5.1483 13.9276,5.0513 13.8046,4.9963 C13.5546,4.8903 13.5446,4.8943 13.4846,5.0623 C13.4646,5.1213 13.4296,5.1643 13.4066,5.1723 C13.3336,5.1833 12.9496,5.0513 12.7086,4.9293 C12.2906,4.7223 12.0746,4.5393 11.8596,4.2033 C11.7346,4.0043 11.6406,3.9453 11.5156,3.9803 C11.3746,4.0193 11.2946,4.1443 11.2946,4.3243 C11.2906,4.4843 11.3676,4.6173 11.5706,4.8043 C11.9126,5.1213 12.5486,5.4063 13.0976,5.4963 C13.2816,5.5273 13.3696,5.5943 13.3696,5.7113 C13.3696,5.8793 13.1856,5.9453 12.7426,5.9453 C12.3266,5.9453 12.0646,5.8443 11.8006,5.5783 C11.6306,5.3983 11.5726,5.3713 11.4646,5.4143 C11.4086,5.4373 11.3476,5.5543 11.3476,5.6483 C11.3476,5.8363 11.5996,6.1403 11.8556,6.2583 C12.0466,6.3473 12.2246,6.3793 12.5196,6.3673 C12.7366,6.3593 12.8206,6.3403 13.0056,6.2733 C13.3786,6.1333 13.4126,6.1333 13.4576,6.1763 C13.4926,6.2113 13.4926,6.2223 13.4536,6.2973 C13.3886,6.4223 13.1486,6.6563 13.0016,6.7263 C12.6656,6.8983 12.3306,6.8593 11.8476,6.5973 C11.6036,6.4613 11.4706,6.4573 11.4006,6.5743 C11.3736,6.6213 11.3476,6.6873 11.3476,6.7263 C11.3476,6.8163 11.4746,6.9533 11.6676,7.0583 C11.9136,7.1953 12.0876,7.2423 12.3746,7.2423 C12.6306,7.2423 12.7926,7.2033 13.1306,7.0583 C13.3046,6.9883 13.3736,6.9763 13.4176,7.0273 C13.4606,7.0823 13.3846,7.2263 13.2306,7.3833 C12.9996,7.6133 12.5386,7.7893 12.2246,7.7583 C12.1346,7.7503 12.0236,7.7153 11.9276,7.6683 C11.7306,7.5663 11.5526,7.5583 11.4646,7.6523 C11.3476,7.7653 11.3926,7.9413 11.5746,8.0973 C11.6956,8.1993 11.8186,8.2383 12.0136,8.2383 C12.2306,8.2383 12.3676,8.1913 12.8326,7.9533 C13.2576,7.7423 13.3576,7.7073 13.3826,7.7773 C13.4126,7.8473 13.3326,7.9723 13.1096,8.1993 C12.6486,8.6683 12.3866,8.7583 11.8866,8.6363 C11.5316,8.5433 11.4106,8.6053 11.4296,8.8513 C11.4456,9.0233 11.5036,9.1013 11.6636,9.1833 C11.7676,9.2423 11.8186,9.2463 12.0216,9.2463 C12.2146,9.2463 12.2816,9.2343 12.3826,9.1913 C12.5606,9.1053 12.9496,8.8443 13.1676,8.6523 C13.4396,8.4143 13.5426,8.3673 13.5426,8.4843 C13.5426,8.6013 13.1036,9.2033 12.8416,9.4453 C12.7426,9.5353 12.5936,9.6443 12.5016,9.6873 C12.3476,9.7613 12.3166,9.7693 12.1116,9.7653 C11.9866,9.7653 11.8086,9.7613 11.7106,9.7583 C11.4966,9.7463 11.4236,9.7853 11.4236,9.9263 C11.4236,10.0583 11.6136,10.2383 11.8086,10.2933 C12.2166,10.4143 12.6566,10.2073 13.2036,9.6483 C13.6096,9.2343 13.6716,9.2583 13.4296,9.7543 C13.1756,10.2813 12.8536,10.6563 12.5196,10.8163 C12.3516,10.8943 12.3066,10.8983 11.8596,10.8793 C11.6636,10.8713 11.5746,10.9223 11.5746,11.0433 C11.5746,11.1053 11.5976,11.1483 11.6676,11.2193 C11.9216,11.4723 12.3436,11.4803 12.7696,11.2463 C13.0116,11.1133 13.6016,10.4693 13.9276,9.9723 C14.1016,9.7153 14.1446,9.6833 14.2076,9.7733 C14.2446,9.8283 14.2466,9.8593 14.2226,9.9763 C14.1526,10.3473 13.9786,10.6293 13.7086,10.8043 C13.5376,10.9103 13.4986,10.9763 13.5316,11.0783 C13.5706,11.2073 13.8146,11.2693 13.9606,11.1873 C14.1366,11.1013 14.3636,10.7613 14.5836,10.2583 C14.7426,9.8943 14.7516,9.8833 14.8286,9.8833 C15.0316,9.8833 14.9586,10.3083 14.7146,10.5903 C14.6036,10.7153 14.5856,10.7973 14.6646,10.8673 C14.7286,10.9263 14.8246,10.9063 14.9966,10.7973 C15.1586,10.6913 15.2426,10.5903 15.3596,10.3633 C15.5076,10.0823 15.5706,10.1563 15.4476,10.4693 C15.2816,10.9183 14.8826,11.3163 14.3226,11.5973 C14.2346,11.6403 14.1646,11.6833 14.1646,11.6913 C14.1646,11.6993 14.2146,11.7653 14.2776,11.8283 C14.3396,11.9023 14.3886,11.9653 14.3886,11.9763 C14.3886,12.0003 14.0486,12.1563 13.6446,12.3083 L13.2816,12.4493 L13.0976,12.3323 C12.8396,12.1763 12.6996,12.0583 12.6676,11.9803 C12.6116,11.8243 12.4156,11.7223 12.2736,11.7733 C12.2246,11.7893 12.1656,11.7853 12.0706,11.7613 C11.8476,11.7033 11.7166,11.8793 11.6836,11.9693 C11.7596,11.9803 11.7226,11.9803 11.7776,11.9763 C11.9996,11.9693 12.0236,11.9723 12.1216,12.0743 C12.2226,12.1793 12.3616,12.2303 12.4686,12.2113 C12.5196,12.1993 12.5836,12.2263 12.7386,12.3283 C12.8516,12.4023 12.9456,12.4693 12.9456,12.4803 C12.9456,12.5043 12.8246,12.5043 12.4646,12.4763 C12.2056,12.4533 12.1636,12.4453 12.0936,12.3903 C11.9926,12.3013 11.8746,12.2853 11.7636,12.3363 C11.7146,12.3593 11.6246,12.3833 11.5626,12.3833 C11.4966,12.3873 11.4236,12.4063 11.3846,12.4373 C11.3086,12.4923 11.2616,12.5193 11.2306,12.6333 C11.3636,12.6293 11.3186,12.6293 11.4156,12.6133 C11.5836,12.5903 11.6016,12.5943 11.6546,12.6403 C11.6876,12.6683 11.7346,12.7073 11.7656,12.7223 C11.8396,12.7583 12.0136,12.7543 12.0936,12.7113 C12.1446,12.6833 12.2656,12.6763 12.5376,12.6763 C12.7406,12.6723 12.9196,12.6723 12.9336,12.6763 C12.9456,12.6763 12.8656,12.7303 12.7516,12.7933 C12.5626,12.9143 12.5446,12.9183 12.3786,12.9143 C12.1606,12.9103 12.0376,12.9803 11.9996,13.1173 C11.9886,13.1643 11.9646,13.2543 11.9516,13.3123 C11.9176,13.4413 11.9026,13.4653 11.9996,13.6913 C12.1056,13.4413 12.0706,13.5153 12.1016,13.4723 C12.1566,13.3903 12.1756,13.3793 12.2966,13.3713 C12.4726,13.3553 12.5506,13.3043 12.6156,13.1683 C12.6586,13.0703 12.7056,13.0353 12.9336,12.8903 C13.2496,12.6953 13.2286,12.6953 13.5826,12.8593 C13.7576,12.9413 13.8226,12.9843 13.8516,13.0393 C13.9046,13.1443 14.0176,13.1873 14.1366,13.1483 C14.2616,13.1133 14.3086,13.1373 14.3886,13.2463 C14.4216,13.2933 14.4236,13.2853 14.4746,13.3323 C14.4886,13.2623 14.4886,13.2503 14.4886,13.1833 C14.4886,13.0783 14.4786,13.0583 14.3456,12.9263 C14.1896,12.7693 14.0956,12.7263 13.9846,12.7693 C13.9296,12.7893 13.8886,12.7853 13.7536,12.7223 C13.6016,12.6523 13.5466,12.5973 13.6246,12.5973 C13.6386,12.5973 13.8826,12.5083 14.1566,12.4023 L14.6606,12.2073 L14.7346,12.2693 C14.8736,12.3753 15.0896,12.4763 15.1856,12.4763 C15.2716,12.4763 15.2816,12.4693 15.3086,12.3793 C15.3516,12.2343 15.6426,11.6763 15.7966,11.4373 C16.0606,11.0313 16.2036,10.9263 16.3246,11.0543 C16.3596,11.0973 16.3696,11.1483 16.3676,11.3013 C16.3636,11.7543 16.1036,12.3513 15.7616,12.6873 C15.5826,12.8673 15.3826,12.9653 15.1466,13.0003 C14.9626,13.0273 14.8376,13.0703 14.8376,13.1213 C14.8376,13.1683 14.9586,13.3123 15.0376,13.3513 C15.1056,13.3903 15.1676,13.3943 15.3126,13.3903 C15.4826,13.3833 15.5176,13.3753 15.6776,13.2733 C15.8416,13.1763 15.8656,13.1683 15.8986,13.1993 C15.9316,13.2343 15.9336,13.2543 15.9086,13.3473 C15.8576,13.5433 15.7186,13.6293 15.3946,13.6683 C15.0626,13.7113 14.9496,13.8123 15.0606,13.9653 C15.1306,14.0663 15.2536,14.1173 15.4276,14.1173 C15.6216,14.1173 15.7906,14.0353 16.0116,13.8243 C16.1076,13.7383 16.1936,13.6723 16.2086,13.6833 C16.2426,13.6993 16.2406,13.9023 16.2036,14.0233 C16.1676,14.1403 16.0116,14.3243 15.9156,14.3593 C15.8786,14.3753 15.7836,14.4063 15.7056,14.4263 C15.4356,14.5003 15.3946,14.6053 15.5856,14.7343 C15.7126,14.8163 15.9196,14.8243 16.0726,14.7503 C16.1716,14.7073 16.4476,14.4493 16.4986,14.3553 C16.5426,14.2733 16.5876,14.3363 16.5746,14.4573 C16.5646,14.5583 16.5036,14.6763 16.3696,14.8633 C16.2596,15.0123 16.3006,15.2153 16.4846,15.4883 C16.6076,15.6723 16.7266,15.8043 16.7816,15.8243 C16.8336,15.8043 16.9516,15.6723 17.0766,15.4883 C17.2616,15.2153 17.2986,15.0123 17.1896,14.8633 C17.0546,14.6763 16.9946,14.5583 16.9866,14.4573 C16.9706,14.3363 17.0156,14.2733 17.0626,14.3553 C17.1136,14.4493 17.3866,14.7073 17.4886,14.7503 C17.6406,14.8243 17.8456,14.8163 17.9726,14.7343 C18.1646,14.6053 18.1236,14.5003 17.8536,14.4263 C17.7756,14.4063 17.6796,14.3753 17.6426,14.3593 C17.5486,14.3243 17.3906,14.1403 17.3556,14.0233 C17.3166,13.9023 17.3166,13.6993 17.3536,13.6833 C17.3676,13.6723 17.4516,13.7383 17.5486,13.8243 C17.7676,14.0353 17.9376,14.1173 18.1306,14.1173 C18.3066,14.1173 18.4276,14.0663 18.4996,13.9653 C18.6116,13.8123 18.4986,13.7113 18.1676,13.6683 C17.8436,13.6293 17.7056,13.5433 17.6506,13.3473 C17.6246,13.2543 17.6306,13.2343 17.6606,13.1993 C17.6936,13.1683 17.7166,13.1763 17.8786,13.2733 C18.0446,13.3753 18.0786,13.3833 18.2486,13.3903 C18.3906,13.3943 18.4556,13.3903 18.5196,13.3513 C18.5996,13.3123 18.7226,13.1683 18.7226,13.1213 C18.7226,13.0703 18.5976,13.0273 18.4146,13.0003 C18.1756,12.9653 17.9806,12.8673 17.7966,12.6873 C17.4576,12.3513 17.1976,11.7543 17.1916,11.3013 C17.1896,11.1483 17.1996,11.0973 17.2366,11.0543 C17.3556,10.9263 17.4986,11.0313 17.7596,11.4373 C17.9156,11.6763 18.2076,12.2343 18.2496,12.3793 C18.2796,12.4693 18.2896,12.4763 18.3746,12.4763 C18.4686,12.4763 18.6876,12.3753 18.8246,12.2693 L18.8986,12.2073 L19.4026,12.4023 C19.6796,12.5083 19.9196,12.5973 19.9376,12.5973 C20.0136,12.5973 19.9576,12.6523 19.8046,12.7223 C19.6716,12.7853 19.6246,12.7893 19.5786,12.7693 C19.4626,12.7263 19.3716,12.7693 19.2126,12.9263 C19.0826,13.0583 19.0706,13.0783 19.0706,13.1833 C19.0706,13.2503 19.0706,13.2623 19.0836,13.3323 C19.1366,13.2853 19.1366,13.2933 19.1716,13.2463 C19.2496,13.1373 19.3006,13.1133 19.4196,13.1483 C19.5446,13.1873 19.6566,13.1443 19.7086,13.0393 C19.7386,12.9843 19.8046,12.9413 19.9766,12.8593 C20.3306,12.6953 20.3106,12.6953 20.6246,12.8903 C20.8556,13.0353 20.9006,13.0703 20.9456,13.1683 C21.0096,13.3043 21.0896,13.3553 21.2616,13.3713 C21.3866,13.3793 21.4066,13.3903 21.4576,13.4723 C21.4886,13.5153 21.4556,13.4413 21.5626,13.6913 C21.6586,13.4653 21.6446,13.4413 21.6096,13.3123 C21.5936,13.2543 21.5706,13.1643 21.5626,13.1173 C21.5236,12.9803 21.3986,12.9103 21.1816,12.9143 C21.0176,12.9183 20.9986,12.9143 20.8086,12.7933 C20.6956,12.7303 20.6116,12.6763 20.6286,12.6763 C20.6406,12.6723 20.8226,12.6723 21.0256,12.6763 C21.2946,12.6763 21.4146,12.6833 21.4646,12.7113 C21.5466,12.7543 21.7186,12.7583 21.7926,12.7223 C21.8226,12.7073 21.8736,12.6683 21.9066,12.6403 C21.9586,12.5943 21.9766,12.5903 22.1426,12.6133 C22.2426,12.6293 22.1956,12.6293 22.3306,12.6333 C22.3006,12.5193 22.2496,12.4923 22.1756,12.4373" id="Fill-2" fill="#000000"></path>
                            </g>
                        </g>
                    </g>
                </g>
            </g>
        </g>
    </g>
</svg>