<?xml version="1.0" encoding="UTF-8"?>
<svg width="26px" height="28px" viewBox="0 0 26 28" version="1.1" xmlns="http://www.w3.org/2000/svg" xmlns:xlink="http://www.w3.org/1999/xlink">
    <!-- Generator: Sketch 50.2 (55047) - http://www.bohemiancoding.com/sketch -->
    <title>Shape</title>
    <desc>Created with Sketch.</desc>
    <defs></defs>
    <g id="Page-1" stroke="none" stroke-width="1" fill="none" fill-rule="evenodd">
        <path d="M21.9760999,18.3933808 C21.0773455,17.3743569 19.5636538,17.3743569 18.6175965,18.3933808 C17.3910332,19.7145453 16.0944616,19.9667537 14.8806701,19.4638654 C11.6640752,18.1386248 9.10972045,15.3877699 7.87984594,11.9230888 C7.41722392,10.6273999 7.63670921,9.22980868 8.87320612,7.89794449 C9.77196057,6.92987181 9.77196057,5.29943362 8.87320612,4.28040976 L6.36615424,1.57999651 C5.46739979,0.560972639 3.95370809,0.560972639 3.00765077,1.57999651 L1.25744474,3.46519066 C-0.161641229,4.99372646 -0.398155558,7.33748136 0.642507488,9.17172432 C4.8997654,16.457745 10.7180179,22.6737906 17.4350248,27.259398 C19.2732142,28.4480893 21.3266316,28.0786932 22.7324727,26.6479837 L24.4826788,24.7627895 C25.3814332,23.7952263 25.3814332,22.1642786 24.4826788,21.1452548 L21.9760999,18.3933808 Z M5.70391412,2.2928037 L8.210966,4.99321695 C8.73129753,5.55368008 8.77860039,6.47080156 8.30557173,7.03126469 L3.81179949,2.19090132 C4.09561669,1.93614535 4.37943388,1.83424296 4.71055394,1.83424296 C5.08897687,1.88519416 5.42009693,2.03804774 5.70391412,2.2928037 Z M22.1180085,25.8832062 C21.0300426,27.0550837 19.3276125,27.2588885 18.0026592,26.3927182 C11.380258,21.9090132 5.65661125,15.7439188 1.49395907,8.61075168 C0.642507488,7.18411827 0.831718951,5.34987531 1.96698773,4.17799786 L3.43337657,2.59851086 L7.97445167,7.48982543 C6.79188003,8.76360526 6.41345711,10.6487994 6.98109149,12.3301888 C8.30557173,16.1000676 11.0491379,19.0557463 14.54955,20.4823797 C16.1105446,21.0937941 17.8607506,20.685675 19.0433223,19.4118952 L23.5843974,24.3037192 L22.1180085,25.8832062 Z M23.9155174,23.8961097 L19.4217452,19.0557463 C19.9893796,18.5462344 20.7935283,18.5971856 21.3138598,19.1571392 L23.8209117,21.858062 C24.3885461,22.4185251 24.3885461,23.2846954 23.9155174,23.8961097 Z M25.8549349,5.96128963 L19.0906251,13.2473103 L20.7935283,13.2473103 C21.4278597,13.2473103 21.4283327,14.2663341 20.7935283,14.2663341 L17.9553563,14.2663341 C17.7164769,14.2663341 17.4823277,14.0141257 17.4823277,13.7568222 L17.4823277,10.6997506 C17.4823277,10.0159856 18.428385,10.0164951 18.428385,10.6997506 L18.428385,12.5339936 L25.1926948,5.24797292 C25.6335575,4.7731078 26.2953246,5.48591499 25.8549349,5.96128963 Z M12.8939497,8.30504452 L19.6582595,1.01902387 L17.9553563,1.01902387 C17.3210249,1.01902387 17.3205519,0 17.9553563,0 L20.7935283,0 C20.8408311,0 20.9354369,0 20.9827397,0.0509511934 C21.0768724,0.101902387 21.1714782,0.203804774 21.2192541,0.30570716 C21.2665569,0.356658354 21.2665569,0.458560741 21.2665569,0.509511934 L21.2665569,3.56658354 C21.2665569,4.25034855 20.3204996,4.24983904 20.3204996,3.56658354 L20.3204996,1.73234058 L13.5561898,9.01836123 C13.1120159,9.49577391 12.4559252,8.77736209 12.8939497,8.30504452 Z" id="Shape" fill="#FFFFFF" fill-rule="nonzero"></path>
    </g>
</svg>