<?xml version="1.0" encoding="UTF-8"?>
<svg width="26px" height="28px" viewBox="0 0 26 28" version="1.1" xmlns="http://www.w3.org/2000/svg" xmlns:xlink="http://www.w3.org/1999/xlink">
    <!-- Generator: Sketch 50.2 (55047) - http://www.bohemiancoding.com/sketch -->
    <title>Shape</title>
    <desc>Created with Sketch.</desc>
    <defs></defs>
    <g id="Page-1" stroke="none" stroke-width="1" fill="none" fill-rule="evenodd">
        <g id="Features-2" transform="translate(-576.000000, -1036.000000)" fill="#0B203E" fill-rule="nonzero">
            <path d="M597.9761,1054.39338 C597.077345,1053.37436 595.563654,1053.37436 594.617596,1054.39338 C593.391033,1055.71455 592.094462,1055.96675 590.88067,1055.46387 C587.664075,1054.13862 585.10972,1051.38777 583.879846,1047.92309 C583.417224,1046.6274 583.636709,1045.22981 584.873206,1043.89794 C585.771961,1042.92987 585.771961,1041.29943 584.873206,1040.28041 L582.366154,1037.58 C581.4674,1036.56097 579.953708,1036.56097 579.007651,1037.58 L577.257445,1039.46519 C575.838359,1040.99373 575.601844,1043.33748 576.642507,1045.17172 C580.899765,1052.45774 586.718018,1058.67379 593.435025,1063.2594 C595.273214,1064.44809 597.326632,1064.07869 598.732473,1062.64798 L600.482679,1060.76279 C601.381433,1059.79523 601.381433,1058.16428 600.482679,1057.14525 L597.9761,1054.39338 Z M581.703914,1038.2928 L584.210966,1040.99322 C584.731298,1041.55368 584.7786,1042.4708 584.305572,1043.03126 L579.811799,1038.1909 C580.095617,1037.93615 580.379434,1037.83424 580.710554,1037.83424 C581.088977,1037.88519 581.420097,1038.03805 581.703914,1038.2928 Z M598.118009,1061.88321 C597.030043,1063.05508 595.327612,1063.25889 594.002659,1062.39272 C587.380258,1057.90901 581.656611,1051.74392 577.493959,1044.61075 C576.642507,1043.18412 576.831719,1041.34988 577.966988,1040.178 L579.433377,1038.59851 L583.974452,1043.48983 C582.79188,1044.76361 582.413457,1046.6488 582.981091,1048.33019 C584.305572,1052.10007 587.049138,1055.05575 590.54955,1056.48238 C592.110545,1057.09379 593.860751,1056.68568 595.043322,1055.4119 L599.584397,1060.30372 L598.118009,1061.88321 Z M599.915517,1059.89611 L595.421745,1055.05575 C595.98938,1054.54623 596.793528,1054.59719 597.31386,1055.15714 L599.820912,1057.85806 C600.388546,1058.41853 600.388546,1059.2847 599.915517,1059.89611 Z M601.854935,1041.96129 L595.090625,1049.24731 L596.793528,1049.24731 C597.42786,1049.24731 597.428333,1050.26633 596.793528,1050.26633 L593.955356,1050.26633 C593.716477,1050.26633 593.482328,1050.01413 593.482328,1049.75682 L593.482328,1046.69975 C593.482328,1046.01599 594.428385,1046.0165 594.428385,1046.69975 L594.428385,1048.53399 L601.192695,1041.24797 C601.633558,1040.77311 602.295325,1041.48591 601.854935,1041.96129 Z M588.89395,1044.30504 L595.65826,1037.01902 L593.955356,1037.01902 C593.321025,1037.01902 593.320552,1036 593.955356,1036 L596.793528,1036 C596.840831,1036 596.935437,1036 596.98274,1036.05095 C597.076872,1036.1019 597.171478,1036.2038 597.219254,1036.30571 C597.266557,1036.35666 597.266557,1036.45856 597.266557,1036.50951 L597.266557,1039.56658 C597.266557,1040.25035 596.3205,1040.24984 596.3205,1039.56658 L596.3205,1037.73234 L589.55619,1045.01836 C589.112016,1045.49577 588.455925,1044.77736 588.89395,1044.30504 Z" id="Shape"></path>
        </g>
    </g>
</svg>