<?xml version="1.0" encoding="UTF-8"?>
<svg width="34px" height="20px" viewBox="0 0 34 20" version="1.1" xmlns="http://www.w3.org/2000/svg" xmlns:xlink="http://www.w3.org/1999/xlink">
    <!-- Generator: Sketch 50.2 (55047) - http://www.bohemiancoding.com/sketch -->
    <title>Page 1</title>
    <desc>Created with Sketch.</desc>
    <defs></defs>
    <g id="New-Section" stroke="none" stroke-width="1" fill="none" fill-rule="evenodd">
        <g id="Search-Rates---Main" transform="translate(-207.000000, -900.000000)">
            <g id="Group-7" transform="translate(207.000000, 458.000000)">
                <g id="Group-6" transform="translate(0.000000, 144.000000)">
                    <g id="Group" transform="translate(0.000000, 39.000000)">
                        <g id="Page-1">
                            <g transform="translate(0.000000, 258.000000)">
                                <polygon id="Fill-1" fill="#BC0030" points="0 20.5782 33.563 20.5782 33.563 0.9992 0 0.9992"></polygon>
                                <polygon id="Fill-2" fill="#000000" points="0 20.5782 33.563 20.5782 33.563 10.7852 0 10.7852"></polygon>
                                <polygon id="Fill-3" fill="#F1D62F" points="15.2871 10.4532 16.3201 9.6992 17.3551 10.4532 16.9611 9.2382 17.9961 8.4802 16.7171 8.4802 16.3201 7.2652 15.9241 8.4802 14.6441 8.4802 15.6821 9.2382"></polygon>
                                <g id="Group-12" transform="translate(13.000000, 5.578200)" fill="#F1D62F">
                                    <path d="M8.5,10.8476 C8.461,10.8476 8.434,10.8206 8.434,10.7856 C8.434,10.7426 8.461,10.7186 8.5,10.7186 C8.535,10.7186 8.562,10.7426 8.562,10.7856 C8.562,10.8206 8.535,10.8476 8.5,10.8476 M8.072,10.4176 C8.035,10.4176 8.008,10.3906 8.008,10.3476 C8.008,10.3126 8.035,10.2856 8.072,10.2856 C8.109,10.2856 8.139,10.3126 8.139,10.3476 C8.139,10.3906 8.109,10.4176 8.072,10.4176 M7.586,9.9956 C7.555,9.9956 7.521,9.9646 7.521,9.9296 C7.521,9.8906 7.555,9.8636 7.586,9.8636 C7.625,9.8636 7.654,9.8906 7.654,9.9296 C7.654,9.9646 7.625,9.9956 7.586,9.9956 M8.84,10.8826 C8.691,10.6366 8.502,10.4526 8.258,10.2386 C8.012,10.0236 7.674,9.7856 7.426,9.5386 L6.949,10.0936 C6.928,10.1206 6.936,10.1756 6.959,10.1796 C7.496,10.2696 7.66,10.4606 7.875,10.6446 C8.162,10.9296 8.279,11.2816 8.467,11.4096 C8.812,11.6526 9.062,11.2456 8.84,10.8826" id="Fill-4"></path>
                                    <path d="M4.5625,8.8242 C4.1735,8.9572 3.7555,9.0312 3.3205,9.0312 C2.4005,9.0312 1.5725,8.6912 0.9125,8.1482 L0.3535,8.8282 C0.5895,9.0232 0.8415,9.1952 1.1115,9.3442 L0.9235,9.6992 C1.2165,9.8552 1.5235,9.9882 1.8415,10.0822 L1.9575,9.7032 C2.2465,9.7932 2.5485,9.8552 2.8595,9.8862 L2.8225,10.2772 C3.1525,10.3082 3.4885,10.3082 3.8205,10.2772 L3.7795,9.8862 C4.0935,9.8592 4.3945,9.7972 4.6835,9.7112 L4.7985,10.0822 C4.9575,10.0352 5.1095,9.9802 5.2655,9.9182 L5.0585,9.1172 L4.5625,8.8242 Z" id="Fill-6"></path>
                                    <path d="M7.1387,5.2109 C7.1387,6.3789 6.6137,7.4219 5.7867,8.1249 L6.8577,8.8709 C6.9997,8.7299 7.1327,8.5899 7.2537,8.4409 L6.9527,8.1909 C7.1487,7.9569 7.3187,7.6989 7.4647,7.4219 L7.8087,7.6129 C7.9667,7.3159 8.0957,7.0079 8.1917,6.6909 L7.8187,6.5739 C7.9067,6.2849 7.9667,5.9839 7.9957,5.6719 L8.3867,5.7069 C8.4177,5.3789 8.4177,5.0429 8.3867,4.7109 L7.9957,4.7499 C7.9647,4.4409 7.9047,4.1369 7.8167,3.8479 L8.1917,3.7339 C8.0957,3.4139 7.9667,3.1049 7.8087,2.8089 L7.4587,2.9999 C7.3127,2.7299 7.1407,2.4729 6.9457,2.2339 L7.2537,1.9769 C7.0447,1.7229 6.8087,1.4839 6.5467,1.2729 L6.2907,1.5939 C6.0547,1.4019 5.7967,1.2299 5.5257,1.0859 L5.7187,0.7189 C5.4257,0.5659 5.1177,0.4379 4.7987,0.3399 L4.6797,0.7379 C4.3987,0.6519 4.1097,0.5979 3.8087,0.5659 L3.7187,1.4339 C5.6367,1.6369 7.1387,3.2379 7.1387,5.2109" id="Fill-8"></path>
                                    <path d="M5.6504,8.6406 C4.6424,7.9256 3.6014,7.1916 2.7244,6.3676 C2.7144,6.3596 2.7144,6.3476 2.7224,6.3396 C2.7324,6.3316 2.7464,6.3316 2.7544,6.3396 C3.6254,7.1676 4.6664,7.8946 5.6734,8.6056 C6.1714,8.9526 6.6874,9.3206 7.1734,9.6876 L7.3284,9.5076 C5.6464,8.3086 1.6794,5.5506 1.6304,4.5466 C0.8454,6.0776 1.8394,6.9886 2.4784,7.3556 C4.1094,8.2776 5.1894,8.8906 6.8864,10.0236 L7.1484,9.7186 C6.6604,9.3516 6.1464,8.9846 5.6504,8.6406" id="Fill-10"></path>
                                </g>
                            </g>
                        </g>
                    </g>
                </g>
            </g>
        </g>
    </g>
</svg>