<?xml version="1.0" encoding="UTF-8"?>
<svg width="137px" height="40px" viewBox="0 0 137 40" version="1.1" xmlns="http://www.w3.org/2000/svg" xmlns:xlink="http://www.w3.org/1999/xlink">
    <!-- Generator: Sketch 50.2 (55047) - http://www.bohemiancoding.com/sketch -->
    <title>Download_on_the_App_Store_Badge_US-UK_135x40</title>
    <desc>Created with Sketch.</desc>
    <defs></defs>
    <g id="Homepage" stroke="none" stroke-width="1" fill="none" fill-rule="evenodd">
        <g id="Mobile" transform="translate(-165.000000, -2277.000000)" fill-rule="nonzero">
            <g id="Group-19" transform="translate(17.000000, 1661.000000)">
                <g id="Group-15">
                    <g id="Group-23" transform="translate(0.000000, 616.000000)">
                        <g id="Download_on_the_App_Store_Badge_US-UK_135x40" transform="translate(148.565787, 0.000000)">
                            <path d="M131.340134,40 L4.77052079,40 C2.14063123,40 0,37.872 0,35.267 L0,4.726 C0,2.12 2.14063123,0 4.77052079,0 L131.340134,0 C133.969015,0 136.185305,2.12 136.185305,4.726 L136.185305,35.267 C136.185305,37.872 133.969015,40 131.340134,40 Z" id="Shape" fill="#A6A6A6"></path>
                            <path d="M135.208806,35.268 C135.208806,37.384 133.479757,39.098 131.341143,39.098 L4.77052079,39.098 C2.63291589,39.098 0.897814231,37.384 0.897814231,35.268 L0.897814231,4.725 C0.897814231,2.61 2.63291589,0.89 4.77052079,0.89 L131.340134,0.89 C133.479757,0.89 135.207797,2.61 135.207797,4.725 L135.208806,35.268 Z" id="Shape" fill="#000000"></path>
                            <g id="Group" transform="translate(12.105360, 6.000000)" fill="#FFFFFF">
                                <path d="M18.2871645,13.784 C18.2579099,10.561 20.949335,8.993 21.0724062,8.92 C19.5481395,6.717 17.1855767,6.416 16.3553507,6.392 C14.3710804,6.185 12.4463281,7.569 11.4355305,7.569 C10.4045573,7.569 8.84800969,6.412 7.17040849,6.446 C5.01161921,6.479 2.99204158,7.718 1.88440111,9.642 C-0.401494454,13.565 1.30334381,19.33 3.49340526,22.501 C4.58894038,24.054 5.86908224,25.788 7.54466588,25.727 C9.18393344,25.66 9.79626292,24.691 11.7744806,24.691 C13.7345402,24.691 14.3095448,25.727 16.0184182,25.688 C17.7777306,25.66 18.885371,24.128 19.9425725,22.561 C21.2085915,20.781 21.7170166,19.028 21.7371922,18.938 C21.6958322,18.924 18.3204542,17.647 18.2871645,13.784 Z" id="Shape"></path>
                                <path d="M15.0590684,4.306 C15.9407421,3.213 16.5439926,1.726 16.3765351,0.217 C15.1004283,0.273 13.5045383,1.092 12.5855397,2.161 C11.772463,3.103 11.0461414,4.647 11.2337745,6.099 C12.6672509,6.205 14.139061,5.382 15.0590684,4.306 Z" id="Shape"></path>
                            </g>
                            <g id="Group" transform="translate(42.368761, 18.000000)" fill="#FFFFFF">
                                <path d="M11.7472435,13.504 L9.45630405,13.504 L8.20138168,9.595 L3.83941681,9.595 L2.64401247,13.504 L0.413599814,13.504 L4.73521348,0.196 L7.40444546,0.196 L11.7472435,13.504 Z M7.82308917,7.955 L6.68821163,4.48 C6.56816681,4.125 6.34320886,3.289 6.01132023,1.973 L5.97096903,1.973 C5.83881884,2.539 5.62596626,3.375 5.33342005,4.48 L4.21871811,7.955 L7.82308917,7.955 Z" id="Shape"></path>
                                <path d="M22.8609732,8.588 C22.8609732,10.22 22.4161012,11.51 21.5263572,12.457 C20.7294209,13.3 19.7398077,13.721 18.5585263,13.721 C17.2834283,13.721 16.3674561,13.267 15.8096007,12.359 L15.7692495,12.359 L15.7692495,17.414 L13.6185305,17.414 L13.6185305,7.067 C13.6185305,6.041 13.5912934,4.988 13.5388368,3.908 L15.4302994,3.908 L15.5503442,5.429 L15.5906954,5.429 C16.307938,4.283 17.3964117,3.711 18.8571252,3.711 C19.9990642,3.711 20.9523613,4.158 21.714999,5.053 C22.4796543,5.949 22.8609732,7.127 22.8609732,8.588 Z M20.6699029,8.666 C20.6699029,7.732 20.4580591,6.962 20.0323539,6.356 C19.5673063,5.724 18.9428715,5.408 18.1600582,5.408 C17.6294399,5.408 17.147243,5.584 16.716494,5.931 C16.2847361,6.281 16.0022777,6.738 15.8701275,7.304 C15.803548,7.568 15.7702583,7.784 15.7702583,7.954 L15.7702583,9.554 C15.7702583,10.252 15.9861372,10.841 16.4178951,11.322 C16.8496529,11.803 17.4105346,12.043 18.1005402,12.043 C18.9105905,12.043 19.5410781,11.733 19.9920027,11.115 C20.4439362,10.496 20.6699029,9.68 20.6699029,8.666 Z" id="Shape"></path>
                                <path d="M33.9948784,8.588 C33.9948784,10.22 33.5500064,11.51 32.6592536,12.457 C31.8633262,13.3 30.873713,13.721 29.6924316,13.721 C28.4173336,13.721 27.5013613,13.267 26.9445147,12.359 L26.9041635,12.359 L26.9041635,17.414 L24.7534445,17.414 L24.7534445,7.067 C24.7534445,6.041 24.7262074,4.988 24.6737509,3.908 L26.5652134,3.908 L26.6852583,5.429 L26.7256095,5.429 C27.4418433,4.283 28.530317,3.711 29.9920392,3.711 C31.1329694,3.711 32.0862666,4.158 32.8509218,5.053 C33.6125508,5.949 33.9948784,7.127 33.9948784,8.588 Z M31.8038082,8.666 C31.8038082,7.732 31.5909556,6.962 31.1652504,6.356 C30.7002028,5.724 30.0777855,5.408 29.2939634,5.408 C28.7623364,5.408 28.2811483,5.584 27.8493904,5.931 C27.4176326,6.281 27.1361829,6.738 27.0040328,7.304 C26.9384621,7.568 26.9041635,7.784 26.9041635,7.954 L26.9041635,9.554 C26.9041635,10.252 27.1200425,10.841 27.5497828,11.322 C27.9815406,11.802 28.5424223,12.043 29.2344454,12.043 C30.0444958,12.043 30.6749833,11.733 31.125908,11.115 C31.5778414,10.496 31.8038082,9.68 31.8038082,8.666 Z" id="Shape"></path>
                                <path d="M46.443224,9.772 C46.443224,10.904 46.0467735,11.825 45.250846,12.536 C44.3762337,13.313 43.1586362,13.701 41.5940184,13.701 C40.1494454,13.701 38.9913659,13.425 38.1147361,12.872 L38.6130734,11.095 C39.5572915,11.661 40.5933086,11.945 41.7221335,11.945 C42.5321838,11.945 43.1626714,11.763 43.6156136,11.401 C44.0665383,11.039 44.2914962,10.553 44.2914962,9.947 C44.2914962,9.407 44.1058807,8.952 43.7336409,8.583 C43.3634186,8.214 42.7450364,7.871 41.8815207,7.554 C39.5310632,6.685 38.3568433,5.412 38.3568433,3.738 C38.3568433,2.644 38.7684255,1.747 39.5925988,1.049 C40.4137458,0.35 41.5092809,0.001 42.8792042,0.001 C44.1008368,0.001 45.1156695,0.212 45.9257199,0.633 L45.3880401,2.371 C44.6314551,1.963 43.7760096,1.759 42.8186774,1.759 C42.0620923,1.759 41.4709472,1.944 41.0472596,2.312 C40.6891427,2.641 40.5095799,3.042 40.5095799,3.517 C40.5095799,4.043 40.7143622,4.478 41.1259445,4.82 C41.4840614,5.136 42.1347245,5.478 43.0789426,5.847 C44.2339958,6.308 45.0823798,6.847 45.6281298,7.465 C46.1718622,8.081 46.443224,8.852 46.443224,9.772 Z" id="Shape"></path>
                                <path d="M53.5541145,5.508 L51.1834814,5.508 L51.1834814,10.167 C51.1834814,11.352 51.6011164,11.944 52.4384038,11.944 C52.822749,11.944 53.1415235,11.911 53.3937185,11.845 L53.4532365,13.464 C53.0295489,13.621 52.4716935,13.7 51.7806792,13.7 C50.9312864,13.7 50.2675091,13.443 49.7883386,12.93 C49.3111857,12.416 49.071096,11.554 49.071096,10.343 L49.071096,5.506 L47.658804,5.506 L47.658804,3.906 L49.071096,3.906 L49.071096,2.149 L51.1834814,1.517 L51.1834814,3.906 L53.5541145,3.906 L53.5541145,5.508 Z" id="Shape"></path>
                                <path d="M64.2502092,8.627 C64.2502092,10.102 63.824504,11.313 62.9751112,12.26 C62.0843585,13.235 60.9020683,13.721 59.4282406,13.721 C58.0078784,13.721 56.8770359,13.254 56.0336958,12.32 C55.1903557,11.386 54.7686857,10.207 54.7686857,8.786 C54.7686857,7.299 55.2024611,6.081 56.0730382,5.134 C56.9415979,4.186 58.1138003,3.712 59.5876279,3.712 C61.0079902,3.712 62.150938,4.179 63.0134449,5.114 C63.838627,6.021 64.2502092,7.192 64.2502092,8.627 Z M62.0187878,8.696 C62.0187878,7.811 61.8281283,7.052 61.4417656,6.419 C60.9908409,5.653 60.3462305,5.271 59.5109606,5.271 C58.6464361,5.271 57.9897203,5.654 57.5387956,6.419 C57.1524329,7.053 56.9617735,7.824 56.9617735,8.736 C56.9617735,9.621 57.1524329,10.38 57.5387956,11.012 C58.0038432,11.778 58.6534976,12.16 59.4917938,12.16 C60.3129407,12.16 60.9575512,11.77 61.4225988,10.992 C61.8190493,10.347 62.0187878,9.58 62.0187878,8.696 Z" id="Shape"></path>
                                <path d="M71.2410549,5.783 C71.0282023,5.744 70.8012268,5.724 70.5631547,5.724 C69.8065696,5.724 69.2214772,6.007 68.809895,6.574 C68.4517781,7.074 68.2722152,7.706 68.2722152,8.469 L68.2722152,13.504 L66.122505,13.504 L66.1426806,6.93 C66.1426806,5.824 66.1154435,4.817 66.0619782,3.909 L67.9352827,3.909 L68.0139675,5.745 L68.0734855,5.745 C68.3004611,5.114 68.658578,4.606 69.1488451,4.225 C69.6280156,3.882 70.1455197,3.711 70.7033751,3.711 C70.9021048,3.711 71.0816676,3.725 71.2410549,3.75 L71.2410549,5.783 Z" id="Shape"></path>
                                <path d="M80.8597725,8.252 C80.8597725,8.634 80.834553,8.956 80.7810876,9.219 L74.3289305,9.219 C74.35415,10.167 74.6658631,10.892 75.2650784,11.392 C75.8088109,11.839 76.5119305,12.063 77.3754462,12.063 C78.3307609,12.063 79.2023469,11.912 79.986169,11.609 L80.3231015,13.089 C79.4071292,13.485 78.325717,13.682 77.0778561,13.682 C75.5767914,13.682 74.3985364,13.244 73.5410733,12.369 C72.6856279,11.494 72.2568963,10.319 72.2568963,8.845 C72.2568963,7.398 72.6553645,6.193 73.4533095,5.232 C74.2885793,4.206 75.4174042,3.693 76.8377665,3.693 C78.2329093,3.693 79.289102,4.206 80.0063446,5.232 C80.5742877,6.047 80.8597725,7.055 80.8597725,8.252 Z M78.8089227,7.699 C78.8230456,7.067 78.6828252,6.521 78.3912877,6.06 C78.0190479,5.467 77.4470696,5.171 76.6773705,5.171 C75.9742508,5.171 75.4022725,5.46 74.9654707,6.04 C74.6073538,6.501 74.3945012,7.054 74.3289305,7.698 L78.8089227,7.698 L78.8089227,7.699 Z" id="Shape"></path>
                            </g>
                            <g id="Group" transform="translate(43.377542, 6.000000)" fill="#FFFFFF">
                                <path d="M6.10311921,4.009 C6.10311921,5.186 5.74701986,6.072 5.03582993,6.667 C4.37709657,7.216 3.4409487,7.491 2.2283951,7.491 C1.6271622,7.491 1.11268438,7.465 0.681935304,7.413 L0.681935304,0.982 C1.24382578,0.892 1.8490938,0.846 2.50278327,0.846 C3.65783641,0.846 4.52841358,1.095 5.11552356,1.593 C5.77324814,2.156 6.10311921,2.961 6.10311921,4.009 Z M4.98841727,4.038 C4.98841727,3.275 4.78464371,2.69 4.37709657,2.282 C3.96954944,1.875 3.37436922,1.671 2.59054713,1.671 C2.25764972,1.671 1.97418253,1.693 1.73913678,1.739 L1.73913678,6.628 C1.8692694,6.648 2.10734149,6.657 2.45335305,6.657 C3.26239463,6.657 3.88682947,6.434 4.32665757,5.988 C4.76648567,5.542 4.98841727,4.892 4.98841727,4.038 Z" id="Shape"></path>
                                <path d="M12.0135614,5.037 C12.0135614,5.762 11.804744,6.356 11.387109,6.822 C10.9492985,7.301 10.36925,7.54 9.64494591,7.54 C8.94687013,7.54 8.39103233,7.311 7.97642374,6.851 C7.56282392,6.392 7.35602402,5.813 7.35602402,5.115 C7.35602402,4.385 7.5688766,3.786 7.99659934,3.321 C8.42432207,2.856 8.99932669,2.623 9.72363076,2.623 C10.4217065,2.623 10.9825882,2.852 11.4072846,3.311 C11.8107967,3.757 12.0135614,4.333 12.0135614,5.037 Z M10.9170175,5.071 C10.9170175,4.636 10.8221922,4.263 10.6335503,3.952 C10.4116187,3.576 10.0958706,3.388 9.68529712,3.388 C9.26060072,3.388 8.93779111,3.576 8.7158595,3.952 C8.52620886,4.263 8.43239231,4.642 8.43239231,5.09 C8.43239231,5.525 8.52721764,5.898 8.7158595,6.209 C8.94485257,6.585 9.26362706,6.773 9.67520932,6.773 C10.0787213,6.773 10.3954783,6.582 10.6234625,6.199 C10.8191659,5.882 10.9170175,5.506 10.9170175,5.071 Z" id="Shape"></path>
                                <path d="M19.9385374,2.719 L18.4505868,7.433 L17.482158,7.433 L16.8657934,5.386 C16.7094325,4.875 16.5823262,4.367 16.4834658,3.863 L16.464299,3.863 C16.3725,4.381 16.2453937,4.888 16.0819713,5.386 L15.4272731,7.433 L14.4477477,7.433 L13.0485698,2.719 L14.1350259,2.719 L14.6727056,4.96 C14.8028382,5.49 14.9097689,5.995 14.9955152,6.473 L15.014682,6.473 C15.0933669,6.079 15.2234995,5.577 15.4070975,4.97 L16.0819713,2.72 L16.9434695,2.72 L17.5900975,4.922 C17.7464584,5.459 17.8735647,5.976 17.9714163,6.474 L18.0006709,6.474 C18.0722943,5.989 18.1802338,5.472 18.3234806,4.922 L18.9005027,2.72 L19.9385374,2.72 L19.9385374,2.719 Z" id="Shape"></path>
                                <path d="M25.4192393,7.433 L24.3620378,7.433 L24.3620378,4.733 C24.3620378,3.901 24.0432634,3.485 23.4036968,3.485 C23.0899662,3.485 22.8367624,3.599 22.6400503,3.828 C22.4453558,4.057 22.3464953,4.327 22.3464953,4.636 L22.3464953,7.432 L21.2892939,7.432 L21.2892939,4.066 C21.2892939,3.652 21.2761797,3.203 21.2509602,2.717 L22.1800466,2.717 L22.2294769,3.454 L22.2587315,3.454 C22.3818026,3.225 22.5654006,3.036 22.806499,2.885 C23.0929926,2.709 23.4137846,2.62 23.7648401,2.62 C24.2087033,2.62 24.5779168,2.762 24.8714718,3.047 C25.2366501,3.396 25.4192393,3.917 25.4192393,4.609 L25.4192393,7.433 Z" id="Shape"></path>
                                <polygon id="Shape" points="28.3346136 7.433 27.2784209 7.433 27.2784209 0.556 28.3346136 0.556"></polygon>
                                <path d="M34.5587864,5.037 C34.5587864,5.762 34.349969,6.356 33.932334,6.822 C33.4945235,7.301 32.9134662,7.54 32.1901709,7.54 C31.4910864,7.54 30.9352486,7.311 30.5216487,6.851 C30.1080489,6.392 29.901249,5.813 29.901249,5.115 C29.901249,4.385 30.1141016,3.786 30.5418243,3.321 C30.9695471,2.856 31.5445517,2.623 32.267847,2.623 C32.9669315,2.623 33.5268045,2.852 33.9525096,3.311 C34.3560217,3.757 34.5587864,4.333 34.5587864,5.037 Z M33.4612338,5.071 C33.4612338,4.636 33.3664084,4.263 33.1777666,3.952 C32.9568437,3.576 32.6400868,3.388 32.2305221,3.388 C31.8048169,3.388 31.4820073,3.576 31.2610845,3.952 C31.0714339,4.263 30.9776173,4.642 30.9776173,5.09 C30.9776173,5.525 31.0724426,5.898 31.2610845,6.209 C31.4900776,6.585 31.8088521,6.773 32.2204343,6.773 C32.6239463,6.773 32.9396945,6.582 33.1676788,6.199 C33.3643909,5.882 33.4612338,5.506 33.4612338,5.071 Z" id="Shape"></path>
                                <path d="M39.6753188,7.433 L38.7260568,7.433 L38.6473719,6.89 L38.6181173,6.89 C38.2932901,7.323 37.8302601,7.54 37.2290272,7.54 C36.7801201,7.54 36.4169593,7.397 36.1435799,7.113 C35.89542,6.855 35.77134,6.534 35.77134,6.153 C35.77134,5.577 36.0134473,5.138 36.500688,4.834 C36.98692,4.53 37.6708728,4.381 38.5515378,4.388 L38.5515378,4.3 C38.5515378,3.679 38.2226755,3.369 37.5639422,3.369 C37.0948594,3.369 36.6812596,3.486 36.3241515,3.718 L36.1092814,3.03 C36.551127,2.759 37.096877,2.623 37.7404787,2.623 C38.9832957,2.623 39.6067217,3.273 39.6067217,4.573 L39.6067217,6.309 C39.6067217,6.78 39.6299237,7.155 39.6753188,7.433 Z M38.5777661,5.813 L38.5777661,5.086 C37.4116164,5.066 36.8285415,5.383 36.8285415,6.036 C36.8285415,6.282 36.895121,6.466 37.0313063,6.589 C37.1674916,6.712 37.3410018,6.773 37.5478017,6.773 C37.7798211,6.773 37.9967088,6.7 38.1944297,6.555 C38.3931594,6.409 38.5152217,6.224 38.5606168,5.997 C38.5717134,5.946 38.5777661,5.884 38.5777661,5.813 Z" id="Shape"></path>
                                <path d="M45.6826039,7.433 L44.7444385,7.433 L44.6950082,6.676 L44.6657536,6.676 C44.3661459,7.252 43.8557032,7.54 43.1384606,7.54 C42.5654736,7.54 42.0883206,7.317 41.7100281,6.871 C41.3317356,6.425 41.1430937,5.846 41.1430937,5.135 C41.1430937,4.372 41.3478761,3.754 41.7594583,3.282 C42.1579264,2.842 42.646176,2.622 43.2272333,2.622 C43.865791,2.622 44.3126806,2.835 44.5668932,3.262 L44.5870688,3.262 L44.5870688,0.556 L45.645279,0.556 L45.645279,6.163 C45.645279,6.622 45.6573844,7.045 45.6826039,7.433 Z M44.5870688,5.445 L44.5870688,4.659 C44.5870688,4.523 44.576981,4.413 44.5578141,4.329 C44.4982961,4.077 44.3701811,3.865 44.1754865,3.694 C43.9787744,3.523 43.7417111,3.437 43.4683317,3.437 C43.0738987,3.437 42.765212,3.592 42.5382365,3.903 C42.3132786,4.214 42.1992864,4.611 42.1992864,5.096 C42.1992864,5.562 42.3072259,5.94 42.5241136,6.231 C42.7531067,6.541 43.0617934,6.696 43.4481561,6.696 C43.7951764,6.696 44.0725909,6.567 44.283426,6.308 C44.4871995,6.069 44.5870688,5.781 44.5870688,5.445 Z" id="Shape"></path>
                                <path d="M54.7242993,5.037 C54.7242993,5.762 54.5154819,6.356 54.0978469,6.822 C53.6600364,7.301 53.0809967,7.54 52.3556838,7.54 C51.6586168,7.54 51.102779,7.311 50.6871616,6.851 C50.2735618,6.392 50.0667619,5.813 50.0667619,5.115 C50.0667619,4.385 50.2796145,3.786 50.7073372,3.321 C51.13506,2.856 51.7100646,2.623 52.4353774,2.623 C53.1324444,2.623 53.6943349,2.852 54.1180225,3.311 C54.5215346,3.757 54.7242993,4.333 54.7242993,5.037 Z M53.6287642,5.071 C53.6287642,4.636 53.5339389,4.263 53.345297,3.952 C53.1223566,3.576 52.8076173,3.388 52.396035,3.388 C51.9723474,3.388 51.6495378,3.576 51.4265974,3.952 C51.2369468,4.263 51.1431302,4.642 51.1431302,5.09 C51.1431302,5.525 51.2379555,5.898 51.4265974,6.209 C51.6555905,6.585 51.974365,6.773 52.3859472,6.773 C52.7894592,6.773 53.1072249,6.582 53.3352092,6.199 C53.5299038,5.882 53.6287642,5.506 53.6287642,5.071 Z" id="Shape"></path>
                                <path d="M60.4087748,7.433 L59.3525821,7.433 L59.3525821,4.733 C59.3525821,3.901 59.0338076,3.485 58.3932323,3.485 C58.0795017,3.485 57.8262979,3.599 57.6305946,3.828 C57.4348913,4.057 57.3370396,4.327 57.3370396,4.636 L57.3370396,7.432 L56.2788294,7.432 L56.2788294,4.066 C56.2788294,3.652 56.266724,3.203 56.2415045,2.717 L57.1695821,2.717 L57.2190124,3.454 L57.248267,3.454 C57.3723469,3.225 57.5559449,3.036 57.7960345,2.885 C58.0835369,2.709 58.4033201,2.62 58.7553844,2.62 C59.1982388,2.62 59.5674523,2.762 59.8610073,3.047 C60.2271944,3.396 60.4087748,3.917 60.4087748,4.609 L60.4087748,7.433 Z" id="Shape"></path>
                                <path d="M67.5237004,3.504 L66.3595683,3.504 L66.3595683,5.794 C66.3595683,6.376 66.5663682,6.667 66.9759329,6.667 C67.1655835,6.667 67.3229532,6.651 67.4470331,6.618 L67.4742702,7.413 C67.2654527,7.491 66.9910646,7.53 66.6531233,7.53 C66.2354883,7.53 65.9106611,7.404 65.6756154,7.152 C65.4395609,6.9 65.3225424,6.476 65.3225424,5.881 L65.3225424,3.504 L64.6274929,3.504 L64.6274929,2.719 L65.3225424,2.719 L65.3225424,1.855 L66.3585595,1.545 L66.3585595,2.718 L67.5226916,2.718 L67.5226916,3.504 L67.5237004,3.504 Z" id="Shape"></path>
                                <path d="M73.1204121,7.433 L72.0622018,7.433 L72.0622018,4.753 C72.0622018,3.908 71.7434273,3.485 71.1048695,3.485 C70.6146025,3.485 70.2796875,3.73 70.0960895,4.22 C70.0648173,4.323 70.0466593,4.449 70.0466593,4.597 L70.0466593,7.432 L68.9904666,7.432 L68.9904666,0.556 L70.0466593,0.556 L70.0466593,3.397 L70.0668349,3.397 C70.3997323,2.88 70.8768853,2.622 71.4952674,2.622 C71.933078,2.622 72.29523,2.764 72.5827323,3.049 C72.9408492,3.404 73.1204121,3.932 73.1204121,4.63 L73.1204121,7.433 Z" id="Shape"></path>
                                <path d="M78.8936602,4.853 C78.8936602,5.041 78.8795373,5.199 78.8543178,5.328 L75.6837221,5.328 C75.697845,5.794 75.8491621,6.149 76.142717,6.395 C76.4110525,6.615 76.7570641,6.725 77.1807517,6.725 C77.6498344,6.725 78.0775572,6.651 78.4629111,6.502 L78.628351,7.23 C78.1774264,7.424 77.6468081,7.521 77.032461,7.521 C76.2960516,7.521 75.7160031,7.306 75.2963506,6.876 C74.8746805,6.446 74.6658631,5.869 74.6658631,5.145 C74.6658631,4.434 74.8605576,3.842 75.2529731,3.37 C75.6625377,2.866 76.216358,2.614 76.9154426,2.614 C77.5993954,2.614 78.1189171,2.866 78.4699726,3.37 C78.7534398,3.77 78.8936602,4.265 78.8936602,4.853 Z M77.8848802,4.582 C77.8929504,4.271 77.8233446,4.003 77.6800978,3.777 C77.4964999,3.486 77.2170678,3.34 76.8387753,3.34 C76.4937725,3.34 76.2123229,3.482 75.9974527,3.767 C75.821925,3.994 75.7180206,4.265 75.6837221,4.582 L77.8848802,4.582 Z" id="Shape"></path>
                            </g>
                        </g>
                    </g>
                </g>
            </g>
        </g>
    </g>
</svg>