<?xml version="1.0" encoding="UTF-8"?>
<svg width="34px" height="20px" viewBox="0 0 34 20" version="1.1" xmlns="http://www.w3.org/2000/svg" xmlns:xlink="http://www.w3.org/1999/xlink">
    <!-- Generator: Sketch 50.2 (55047) - http://www.bohemiancoding.com/sketch -->
    <title>Page 1</title>
    <desc>Created with Sketch.</desc>
    <defs></defs>
    <g id="New-Section" stroke="none" stroke-width="1" fill="none" fill-rule="evenodd">
        <g id="Search-Rates---Main" transform="translate(-207.000000, -1029.000000)">
            <g id="Group-7" transform="translate(207.000000, 458.000000)">
                <g id="Group-6" transform="translate(0.000000, 144.000000)">
                    <g id="Group" transform="translate(0.000000, 39.000000)">
                        <g id="Page-1">
                            <g transform="translate(0.000000, 388.000000)">
                                <polygon id="Fill-1" fill="#FFFFFF" points="0 13.0522 33.561 13.0522 33.561 6.5252 0 6.5252"></polygon>
                                <polygon id="Fill-2" fill="#80A7D8" points="0 6.5252 33.561 6.5252 33.561 0.0002 0 0.0002"></polygon>
                                <polygon id="Fill-3" fill="#80A7D8" points="0 19.5762 33.561 19.5762 33.561 13.0522 0 13.0522"></polygon>
                                <g id="Group-244" transform="translate(14.000000, 6.576200)">
                                    <path d="M2.6465,3.209 L2.7485,5.881 C2.7485,5.881 2.7485,5.931 2.7815,5.931 C2.8125,5.931 2.8125,5.881 2.8125,5.881 L2.9145,3.209 L2.6465,3.209 Z" id="Fill-4" fill="#F1BD51"></path>
                                    <path d="M2.7813,5.9385 C2.7483,5.9385 2.7403,5.8995 2.7403,5.8805 L2.6383,3.2115 L2.6563,3.2085 L2.7543,5.8805 C2.7543,5.8805 2.7543,5.9215 2.7813,5.9215 C2.8043,5.9215 2.8043,5.8805 2.8043,5.8805 L2.9063,3.2085 L2.8243,5.8805 C2.8243,5.8995 2.8123,5.9385 2.7813,5.9385" id="Fill-6" fill="#7A361D"></path>
                                    <polygon id="Fill-8" fill="#7A361D" points="2.7149 3.209 2.7809 5.044 2.8459 3.209"></polygon>
                                    <path d="M2.5293,4.0732 C2.3773,4.4092 2.5043,4.6832 2.3553,4.9762 C2.1993,5.2692 2.2953,5.5102 2.2873,5.6462 C2.2753,5.7812 2.1683,5.8192 2.1933,5.8502 C2.2223,5.8812 2.3383,5.8202 2.3813,5.6392 C2.4253,5.4612 2.3203,5.3582 2.5003,4.9992 C2.6853,4.6392 2.5413,4.4762 2.7263,4.1552 L2.5293,4.0732 Z" id="Fill-10" fill="#F1BD51"></path>
                                    <path d="M2.2227,5.8652 L2.1857,5.8552 C2.1717,5.8362 2.1857,5.8162 2.2067,5.7952 C2.2327,5.7652 2.2737,5.7202 2.2757,5.6442 C2.2797,5.6082 2.2757,5.5652 2.2697,5.5142 C2.2537,5.3782 2.2327,5.1902 2.3477,4.9732 C2.4217,4.8272 2.4257,4.6882 2.4317,4.5412 C2.4357,4.3932 2.4437,4.2402 2.5237,4.0702 L2.5367,4.0762 C2.4607,4.2432 2.4527,4.3952 2.4497,4.5422 C2.4437,4.6892 2.4357,4.8332 2.3637,4.9792 C2.2497,5.1912 2.2737,5.3802 2.2867,5.5142 C2.2907,5.5652 2.2947,5.6082 2.2947,5.6462 C2.2867,5.7272 2.2457,5.7732 2.2187,5.8052 C2.1997,5.8282 2.1937,5.8362 2.1997,5.8442 C2.2657,5.8362 2.3417,5.7712 2.3747,5.6372 C2.3887,5.5792 2.3887,5.5272 2.3847,5.4712 C2.3767,5.3592 2.3747,5.2342 2.4957,4.9952 C2.5877,4.8172 2.5977,4.6882 2.6057,4.5642 C2.6137,4.4352 2.6247,4.3132 2.7187,4.1502 C2.6387,4.3192 2.6307,4.4382 2.6207,4.5642 C2.6137,4.6892 2.6017,4.8232 2.5117,5.0022 C2.3927,5.2382 2.3967,5.3622 2.3987,5.4692 C2.4027,5.5282 2.4027,5.5802 2.3887,5.6432 C2.3557,5.7732 2.2837,5.8502 2.2287,5.8642 L2.2227,5.8652 Z" id="Fill-12" fill="#7A361D"></path>
                                    <path d="M2.5742,4.1582 C2.4532,4.4932 2.5782,4.7142 2.4182,4.9992 C2.5952,4.7952 2.4782,4.5332 2.6312,4.1862 L2.5742,4.1582 Z" id="Fill-14" fill="#7A361D"></path>
                                    <path d="M2.9141,3.209 L2.8121,0.542 C2.8121,0.542 2.8121,0.493 2.7811,0.493 C2.7481,0.493 2.7481,0.542 2.7481,0.542 L2.6461,3.209 L2.9141,3.209 Z" id="Fill-16" fill="#F1BD51"></path>
                                    <path d="M2.9063,3.2119 L2.8043,0.5429 C2.8043,0.5429 2.8043,0.4999 2.7813,0.4999 C2.7543,0.4999 2.7543,0.5419 2.7543,0.5419 L2.6563,3.2119 L2.7403,0.5419 C2.7403,0.5209 2.7483,0.4829 2.7813,0.4829 C2.8123,0.4829 2.8243,0.5209 2.8243,0.5419 L2.9263,3.2089 L2.9063,3.2119 Z" id="Fill-18" fill="#7A361D"></path>
                                    <polygon id="Fill-20" fill="#7A361D" points="2.8457 3.209 2.7817 1.38 2.7147 3.209"></polygon>
                                    <path d="M3.0332,2.3477 C3.1852,2.0137 3.0542,1.7397 3.2072,1.4457 C3.3632,1.1517 3.2652,0.9107 3.2732,0.7767 C3.2852,0.6427 3.3962,0.6047 3.3672,0.5727 C3.3422,0.5417 3.2262,0.6047 3.1792,0.7817 C3.1352,0.9597 3.2442,1.0637 3.0582,1.4237 C2.8752,1.7817 3.0232,1.9447 2.8382,2.2667 L3.0332,2.3477 Z" id="Fill-22" fill="#F1BD51"></path>
                                    <path d="M3.041,2.3516 L3.027,2.3456 C3.102,2.1796 3.105,2.0286 3.113,1.8816 C3.117,1.7316 3.125,1.5896 3.201,1.4416 C3.309,1.2296 3.291,1.0466 3.273,0.9096 C3.273,0.8576 3.266,0.8116 3.27,0.7766 C3.273,0.6936 3.316,0.6476 3.342,0.6166 C3.363,0.5926 3.367,0.5836 3.363,0.5786 C3.299,0.5826 3.223,0.6486 3.189,0.7836 C3.172,0.8446 3.176,0.8966 3.18,0.9506 C3.184,1.0626 3.189,1.1866 3.066,1.4266 C2.977,1.6046 2.965,1.7346 2.957,1.8596 C2.947,1.9876 2.939,2.1076 2.846,2.2696 C2.922,2.1016 2.932,1.9826 2.939,1.8566 C2.949,1.7306 2.957,1.6016 3.051,1.4186 C3.172,1.1856 3.168,1.0606 3.16,0.9506 C3.16,0.8966 3.156,0.8416 3.172,0.7816 C3.207,0.6366 3.287,0.5686 3.334,0.5586 L3.338,0.5576 L3.375,0.5686 C3.393,0.5856 3.375,0.6056 3.355,0.6266 C3.332,0.6566 3.287,0.7016 3.285,0.7766 C3.281,0.8136 3.285,0.8576 3.291,0.9076 C3.305,1.0466 3.328,1.2336 3.215,1.4496 C3.139,1.5936 3.135,1.7346 3.129,1.8816 C3.125,2.0296 3.117,2.1836 3.041,2.3516" id="Fill-24" fill="#7A361D"></path>
                                    <path d="M2.9902,2.2627 C3.1132,1.9297 2.9822,1.7067 3.1462,1.4237 C2.9692,1.6267 3.0822,1.8887 2.9292,2.2337 L2.9902,2.2627 Z" id="Fill-26" fill="#7A361D"></path>
                                    <path d="M2.7813,3.0771 L0.1113,3.1761 C0.1113,3.1761 0.0603,3.1761 0.0603,3.2091 C0.0603,3.2451 0.1113,3.2451 0.1113,3.2451 L2.7813,3.3451 L2.7813,3.0771 Z" id="Fill-28" fill="#F1BD51"></path>
                                    <path d="M2.7832,3.3369 L0.1112,3.2519 C0.0942,3.2519 0.0542,3.2439 0.0542,3.2089 C0.0542,3.1789 0.0942,3.1699 0.1112,3.1699 L2.7812,3.0689 L2.7832,3.0859 L0.1112,3.1859 C0.1112,3.1859 0.0682,3.1859 0.0682,3.2089 C0.0682,3.2359 0.1112,3.2359 0.1112,3.2359 L2.7832,3.3369 Z" id="Fill-30" fill="#7A361D"></path>
                                    <polygon id="Fill-32" fill="#7A361D" points="2.7813 3.1436 0.9493 3.2086 2.7813 3.2776"></polygon>
                                    <path d="M1.918,2.959 C1.584,2.805 1.309,2.936 1.018,2.783 C0.721,2.631 0.481,2.727 0.344,2.717 C0.211,2.705 0.174,2.595 0.141,2.624 C0.111,2.65 0.174,2.766 0.352,2.811 C0.531,2.856 0.633,2.75 0.992,2.933 C1.352,3.119 1.516,2.972 1.838,3.156 L1.918,2.959 Z" id="Fill-34" fill="#F1BD51"></path>
                                    <path d="M1.8418,3.1475 C1.6738,3.0725 1.5508,3.0625 1.4278,3.0515 C1.3008,3.0425 1.1698,3.0335 0.9878,2.9405 C0.7538,2.8205 0.6308,2.8245 0.5218,2.8295 C0.4628,2.8325 0.4118,2.8335 0.3518,2.8185 C0.2168,2.7855 0.1408,2.7115 0.1288,2.6585 L0.1268,2.6525 L0.1368,2.6175 C0.1598,2.5985 0.1778,2.6175 0.1988,2.6365 C0.2248,2.6635 0.2718,2.7035 0.3478,2.7075 C0.3788,2.7105 0.4278,2.7055 0.4748,2.6995 C0.6128,2.6855 0.8048,2.6635 1.0218,2.7755 C1.1678,2.8515 1.3048,2.8585 1.4528,2.8625 C1.6018,2.8665 1.7498,2.8725 1.9218,2.9505 L1.9178,2.9665 C1.7458,2.8895 1.5978,2.8845 1.4528,2.8785 C1.3008,2.8725 1.1598,2.8705 1.0118,2.7905 C0.8008,2.6805 0.6128,2.7015 0.4788,2.7165 C0.4278,2.7225 0.3828,2.7265 0.3438,2.7235 C0.2638,2.7175 0.2168,2.6765 0.1878,2.6485 C0.1658,2.6305 0.1558,2.6235 0.1488,2.6305 C0.1558,2.6965 0.2168,2.7685 0.3558,2.8025 C0.4118,2.8165 0.4628,2.8155 0.5218,2.8135 C0.6308,2.8085 0.7578,2.8025 0.9958,2.9255 C1.1738,3.0175 1.3048,3.0265 1.4278,3.0365 C1.5548,3.0455 1.6778,3.0545 1.8418,3.1475" id="Fill-36" fill="#7A361D"></path>
                                    <path d="M1.834,3 C1.5,2.883 1.279,3.008 0.992,2.848 C1.195,3.026 1.461,2.908 1.805,3.064 L1.834,3 Z" id="Fill-38" fill="#7A361D"></path>
                                    <path d="M2.7813,3.3447 L5.4513,3.2447 C5.4513,3.2447 5.5003,3.2447 5.5003,3.2087 C5.5003,3.1757 5.4513,3.1757 5.4513,3.1757 L2.7813,3.0767 L2.7813,3.3447 Z" id="Fill-40" fill="#F1BD51"></path>
                                    <path d="M2.7832,3.3545 L2.7812,3.3365 L5.4512,3.2365 C5.4512,3.2365 5.4922,3.2365 5.4922,3.2095 C5.4922,3.1855 5.4512,3.1855 5.4512,3.1855 L2.7812,3.0855 L5.4512,3.1695 C5.4692,3.1695 5.5062,3.1785 5.5062,3.2095 C5.5062,3.2445 5.4692,3.2515 5.4512,3.2515 L2.7832,3.3545 Z" id="Fill-42" fill="#7A361D"></path>
                                    <polygon id="Fill-44" fill="#7A361D" points="2.7813 3.2773 4.6133 3.2093 2.7813 3.1433"></polygon>
                                    <path d="M3.6426,3.4629 C3.9806,3.6159 4.2556,3.4839 4.5486,3.6389 C4.8396,3.7929 5.0816,3.6949 5.2166,3.7069 C5.3496,3.7169 5.3866,3.8259 5.4196,3.7979 C5.4516,3.7709 5.3866,3.6549 5.2086,3.6099 C5.0316,3.5669 4.9256,3.6739 4.5706,3.4889 C4.2086,3.3049 4.0446,3.4519 3.7266,3.2669 L3.6426,3.4629 Z" id="Fill-46" fill="#F1BD51"></path>
                                    <path d="M5.4082,3.8115 C5.3942,3.8115 5.3792,3.7995 5.3652,3.7865 C5.3362,3.7595 5.2932,3.7205 5.2172,3.7155 C5.1792,3.7115 5.1372,3.7165 5.0862,3.7235 C4.9452,3.7385 4.7602,3.7575 4.5452,3.6455 C4.3962,3.5695 4.2602,3.5645 4.1092,3.5585 C3.9612,3.5545 3.8082,3.5475 3.6382,3.4695 L3.6462,3.4555 C3.8122,3.5315 3.9612,3.5375 4.1092,3.5435 C4.2602,3.5485 4.4002,3.5545 4.5532,3.6305 C4.7632,3.7425 4.9472,3.7205 5.0822,3.7065 C5.1372,3.7015 5.1792,3.6955 5.2172,3.6995 C5.2972,3.7055 5.3442,3.7455 5.3752,3.7725 C5.4002,3.7935 5.4082,3.7955 5.4122,3.7935 C5.4082,3.7285 5.3442,3.6545 5.2092,3.6215 C5.1482,3.6055 5.0972,3.6065 5.0432,3.6085 C4.9292,3.6155 4.8062,3.6215 4.5662,3.4975 C4.3872,3.4065 4.2602,3.3965 4.1372,3.3875 C4.0082,3.3765 3.8872,3.3685 3.7222,3.2735 C3.8882,3.3515 4.0082,3.3595 4.1372,3.3705 C4.2602,3.3795 4.3902,3.3905 4.5742,3.4835 C4.8062,3.6035 4.9292,3.5975 5.0432,3.5915 C5.0972,3.5895 5.1502,3.5865 5.2132,3.6035 C5.3532,3.6385 5.4222,3.7195 5.4332,3.7645 L5.4332,3.7695 L5.4222,3.8045 C5.4202,3.8105 5.4162,3.8115 5.4082,3.8115" id="Fill-48" fill="#7A361D"></path>
                                    <path d="M3.7266,3.4199 C4.0626,3.5409 4.2856,3.4159 4.5706,3.5739 C4.3676,3.3979 4.1036,3.5149 3.7576,3.3589 L3.7266,3.4199 Z" id="Fill-50" fill="#7A361D"></path>
                                    <path d="M2.6856,3.1162 L0.8686,5.0752 C0.8686,5.0752 0.8356,5.1102 0.8596,5.1352 C0.8806,5.1562 0.9156,5.1212 0.9156,5.1212 L2.8746,3.3052 L2.6856,3.1162 Z" id="Fill-52" fill="#F1BD51"></path>
                                    <path d="M0.877,5.1514 C0.83,5.1174 0.852,5.0824 0.863,5.0684 L2.68,3.1114 L2.693,3.1224 L0.877,5.0804 C0.873,5.0804 0.848,5.1104 0.863,5.1274 C0.881,5.1474 0.914,5.1154 0.914,5.1154 L2.871,3.3004 L0.924,5.1284 C0.924,5.1284 0.902,5.1504 0.877,5.1514" id="Fill-54" fill="#7A361D"></path>
                                    <polygon id="Fill-56" fill="#7A361D" points="2.7324 3.1631 1.4864 4.5061 2.8304 3.2581"></polygon>
                                    <path d="M1.9922,3.6426 C1.6442,3.7706 1.5432,4.0596 1.2322,4.1576 C0.9142,4.2576 0.8122,4.4946 0.7112,4.5826 C0.6092,4.6706 0.5042,4.6196 0.5002,4.6626 C0.5002,4.7026 0.6232,4.7396 0.7832,4.6446 C0.9372,4.5516 0.9332,4.4016 1.3182,4.2786 C1.7072,4.1546 1.7152,3.9366 2.0742,3.8416 L1.9922,3.6426 Z" id="Fill-58" fill="#F1BD51"></path>
                                    <path d="M0.5899,4.7129 C0.5589,4.7129 0.5309,4.7059 0.5139,4.6959 L0.4919,4.6619 C0.4919,4.6349 0.5179,4.6339 0.5469,4.6329 C0.5859,4.6289 0.6449,4.6249 0.7029,4.5759 C0.7329,4.5539 0.7579,4.5199 0.7849,4.4809 C0.8729,4.3719 0.9919,4.2229 1.2289,4.1489 C1.3849,4.0999 1.4879,4.0059 1.5939,3.9049 C1.7029,3.8039 1.8169,3.6999 1.9899,3.6369 L1.9959,3.6509 C1.8259,3.7149 1.7149,3.8169 1.6059,3.9169 C1.4959,4.0199 1.3949,4.1149 1.2329,4.1639 C1.0039,4.2359 0.8829,4.3849 0.8009,4.4899 C0.7679,4.5309 0.7419,4.5639 0.7149,4.5879 C0.6519,4.6419 0.5899,4.6469 0.5469,4.6509 C0.5219,4.6509 0.5079,4.6509 0.5079,4.6619 C0.5629,4.7029 0.6599,4.7079 0.7759,4.6389 C0.8299,4.6059 0.8629,4.5679 0.9019,4.5269 C0.9749,4.4469 1.0629,4.3529 1.3189,4.2709 C1.5079,4.2089 1.6059,4.1239 1.6989,4.0449 C1.7969,3.9599 1.8889,3.8809 2.0739,3.8319 C1.8989,3.8969 1.8089,3.9729 1.7109,4.0569 C1.6169,4.1389 1.5199,4.2239 1.3219,4.2859 C1.0719,4.3669 0.9879,4.4579 0.9139,4.5389 C0.8769,4.5799 0.8399,4.6189 0.7849,4.6509 C0.7109,4.6959 0.6449,4.7129 0.5899,4.7129" id="Fill-60" fill="#7A361D"></path>
                                    <path d="M1.9609,3.7334 C1.6409,3.8844 1.5719,4.1294 1.2619,4.2184 C1.5289,4.1994 1.6309,3.9314 1.9859,3.7974 L1.9609,3.7334 Z" id="Fill-62" fill="#7A361D"></path>
                                    <path d="M2.875,3.3047 L4.691,1.3487 C4.691,1.3487 4.727,1.3127 4.705,1.2877 C4.68,1.2647 4.645,1.2987 4.645,1.2987 L2.686,3.1157 L2.875,3.3047 Z" id="Fill-64" fill="#F1BD51"></path>
                                    <path d="M2.8809,3.3105 L2.8709,3.3025 L4.6879,1.3425 C4.6879,1.3415 4.7129,1.3125 4.6969,1.2935 C4.6799,1.2785 4.6509,1.3045 4.6509,1.3045 L2.6899,3.1225 L4.6409,1.2925 C4.6509,1.2805 4.6879,1.2595 4.7089,1.2825 C4.7309,1.3065 4.7089,1.3385 4.6969,1.3525 L2.8809,3.3105 Z" id="Fill-66" fill="#7A361D"></path>
                                    <polygon id="Fill-68" fill="#7A361D" points="2.8301 3.2578 4.0781 1.9158 2.7321 3.1628"></polygon>
                                    <path d="M3.5703,2.7793 C3.9143,2.6503 4.0153,2.3633 4.3323,2.2643 C4.6463,2.1663 4.7523,1.9273 4.8533,1.8393 C4.9553,1.7523 5.0603,1.8033 5.0603,1.7603 C5.0643,1.7193 4.9413,1.6813 4.7813,1.7773 C4.6213,1.8723 4.6253,2.0193 4.2423,2.1443 C3.8573,2.2683 3.8453,2.4873 3.4903,2.5843 L3.5703,2.7793 Z" id="Fill-70" fill="#F1BD51"></path>
                                    <path d="M3.5703,2.7871 L3.5663,2.7721 C3.7383,2.7091 3.8453,2.6041 3.9553,2.5061 C4.0623,2.4031 4.1683,2.3071 4.3323,2.2571 C4.5563,2.1861 4.6753,2.0411 4.7593,1.9331 C4.7933,1.8921 4.8203,1.8571 4.8493,1.8321 C4.9083,1.7801 4.9723,1.7761 5.0133,1.7731 C5.0433,1.7711 5.0523,1.7691 5.0523,1.7611 C5.0023,1.7201 4.9043,1.7141 4.7853,1.7841 C4.7343,1.8141 4.6973,1.8541 4.6623,1.8941 C4.5863,1.9761 4.4983,2.0681 4.2443,2.1541 C4.0523,2.2141 3.9553,2.2961 3.8593,2.3781 C3.7613,2.4621 3.6723,2.5421 3.4903,2.5911 C3.6643,2.5281 3.7563,2.4491 3.8493,2.3651 C3.9433,2.2831 4.0453,2.2001 4.2423,2.1381 C4.4923,2.0551 4.5743,1.9631 4.6463,1.8841 C4.6873,1.8421 4.7223,1.8041 4.7773,1.7691 C4.8943,1.7001 4.9983,1.6991 5.0473,1.7261 L5.0703,1.7631 C5.0663,1.7861 5.0433,1.7881 5.0133,1.7911 C4.9763,1.7921 4.9163,1.7961 4.8613,1.8451 C4.8323,1.8691 4.8063,1.9021 4.7733,1.9421 C4.6873,2.0531 4.5663,2.2011 4.3363,2.2711 C4.1753,2.3201 4.0743,2.4181 3.9653,2.5171 C3.8573,2.6181 3.7443,2.7231 3.5703,2.7871" id="Fill-72" fill="#7A361D"></path>
                                    <path d="M3.5996,2.6885 C3.9216,2.5365 3.9906,2.2905 4.3026,2.2055 C4.0356,2.2225 3.9296,2.4905 3.5786,2.6235 L3.5996,2.6885 Z" id="Fill-74" fill="#7A361D"></path>
                                    <path d="M2.875,3.1162 L0.916,1.2992 C0.916,1.2992 0.881,1.2642 0.859,1.2882 C0.836,1.3122 0.869,1.3482 0.869,1.3482 L2.686,3.3052 L2.875,3.1162 Z" id="Fill-76" fill="#F1BD51"></path>
                                    <path d="M2.6934,3.3027 L0.8634,1.3527 C0.8514,1.3387 0.8304,1.3067 0.8554,1.2827 C0.8774,1.2597 0.9104,1.2807 0.9234,1.2927 L2.8804,3.1107 L2.8714,3.1217 L0.9144,1.3057 C0.9144,1.3057 0.8814,1.2787 0.8634,1.2937 C0.8474,1.3127 0.8734,1.3417 0.8774,1.3417 L2.6934,3.3027 Z" id="Fill-78" fill="#7A361D"></path>
                                    <polygon id="Fill-80" fill="#7A361D" points="2.8301 3.1631 1.4861 1.9161 2.7321 3.2581"></polygon>
                                    <path d="M2.3477,2.4238 C2.2227,2.0768 1.9357,1.9768 1.8337,1.6608 C1.7367,1.3428 1.4997,1.2418 1.4107,1.1388 C1.3227,1.0368 1.3727,0.9328 1.3297,0.9298 C1.2887,0.9268 1.2537,1.0538 1.3437,1.2108 C1.4417,1.3678 1.5897,1.3648 1.7147,1.7498 C1.8377,2.1338 2.0547,2.1468 2.1527,2.5048 L2.3477,2.4238 Z" id="Fill-82" fill="#F1BD51"></path>
                                    <path d="M2.1602,2.5019 C2.0942,2.3269 2.0192,2.2369 1.9352,2.1399 C1.8512,2.0449 1.7692,1.9439 1.7072,1.7529 C1.6232,1.4999 1.5332,1.4169 1.4532,1.3429 C1.4102,1.3059 1.3692,1.2699 1.3382,1.2149 C1.2652,1.0889 1.2712,0.9849 1.2972,0.9449 L1.3342,0.9199 C1.3552,0.9229 1.3592,0.9479 1.3592,0.9779 C1.3632,1.0159 1.3672,1.0749 1.4142,1.1329 C1.4372,1.1599 1.4742,1.1889 1.5152,1.2209 C1.6232,1.3069 1.7692,1.4239 1.8422,1.6579 C1.8922,1.8149 1.9862,1.9159 2.0882,2.0259 C2.1852,2.1329 2.2912,2.2459 2.3592,2.4199 L2.3422,2.4259 C2.2792,2.2559 2.1762,2.1429 2.0742,2.0359 C1.9732,1.9269 1.8772,1.8219 1.8262,1.6609 C1.7542,1.4359 1.6092,1.3189 1.5042,1.2339 C1.4652,1.1999 1.4282,1.1719 1.4022,1.1449 C1.3512,1.0819 1.3482,1.0199 1.3442,0.9789 C1.3402,0.9499 1.3402,0.9389 1.3302,0.9379 C1.2892,0.9879 1.2832,1.0859 1.3512,1.2069 C1.3852,1.2599 1.4242,1.2929 1.4652,1.3309 C1.5432,1.4059 1.6392,1.4919 1.7232,1.7469 C1.7792,1.9369 1.8672,2.0349 1.9452,2.1309 C2.0292,2.2269 2.1092,2.3189 2.1602,2.5019" id="Fill-84" fill="#7A361D"></path>
                                    <path d="M2.2617,2.3926 C2.1057,2.0716 1.8597,2.0036 1.7717,1.6906 C1.7907,1.9576 2.0627,2.0626 2.1937,2.4156 L2.2617,2.3926 Z" id="Fill-86" fill="#7A361D"></path>
                                    <path d="M2.6856,3.3047 L4.6446,5.1207 C4.6446,5.1207 4.6796,5.1567 4.7046,5.1347 C4.7266,5.1107 4.6916,5.0747 4.6916,5.0747 L2.8746,3.1157 L2.6856,3.3047 Z" id="Fill-88" fill="#F1BD51"></path>
                                    <path d="M4.6836,5.1406 C4.6546,5.1406 4.6406,5.1276 4.6406,5.1266 L2.6796,3.3126 L2.6896,3.3006 L4.6506,5.1156 C4.6506,5.1156 4.6796,5.1476 4.6976,5.1266 C4.7126,5.1106 4.6876,5.0796 4.6876,5.0796 L2.8716,3.1226 L4.6976,5.0686 C4.7126,5.0846 4.7306,5.1176 4.7086,5.1386 C4.7016,5.1406 4.6956,5.1406 4.6836,5.1406" id="Fill-90" fill="#7A361D"></path>
                                    <polygon id="Fill-92" fill="#7A361D" points="2.7324 3.2578 4.0784 4.5058 2.8304 3.1628"></polygon>
                                    <path d="M3.2109,4.001 C3.3419,4.346 3.6289,4.445 3.7269,4.763 C3.8239,5.078 4.0629,5.182 4.1499,5.282 C4.2419,5.386 4.1879,5.49 4.2309,5.493 C4.2699,5.494 4.3109,5.371 4.2149,5.212 C4.1209,5.054 3.9729,5.056 3.8499,4.674 C3.7229,4.287 3.5039,4.275 3.4099,3.919 L3.2109,4.001 Z" id="Fill-94" fill="#F1BD51"></path>
                                    <path d="M4.2305,5.5 C4.2055,5.5 4.2055,5.473 4.2015,5.443 C4.1975,5.405 4.1935,5.347 4.1465,5.288 C4.1215,5.262 4.0895,5.233 4.0485,5.203 C3.9395,5.117 3.7915,4.999 3.7185,4.764 C3.6715,4.607 3.5745,4.505 3.4725,4.395 C3.3755,4.287 3.2695,4.176 3.2035,4.003 L3.2185,3.996 C3.2855,4.167 3.3845,4.277 3.4865,4.385 C3.5875,4.496 3.6875,4.599 3.7345,4.76 C3.8065,4.988 3.9555,5.104 4.0585,5.191 C4.0995,5.223 4.1365,5.249 4.1585,5.279 C4.2105,5.34 4.2145,5.402 4.2145,5.442 C4.2185,5.475 4.2225,5.483 4.2305,5.483 C4.2735,5.432 4.2815,5.335 4.2095,5.217 C4.1755,5.164 4.1405,5.128 4.0995,5.09 C4.0155,5.016 3.9255,4.93 3.8415,4.676 C3.7815,4.485 3.6975,4.388 3.6135,4.291 C3.5315,4.194 3.4515,4.102 3.4045,3.921 C3.4645,4.095 3.5415,4.186 3.6285,4.282 C3.7075,4.377 3.7945,4.476 3.8575,4.671 C3.9375,4.921 4.0315,5.005 4.1095,5.078 C4.1505,5.117 4.1915,5.152 4.2225,5.207 C4.2925,5.326 4.2945,5.43 4.2655,5.477 L4.2305,5.5 Z" id="Fill-96" fill="#7A361D"></path>
                                    <path d="M3.3027,4.0293 C3.4527,4.3503 3.7007,4.4173 3.7887,4.7313 C3.7697,4.4623 3.5017,4.3593 3.3667,4.0083 L3.3027,4.0293 Z" id="Fill-98" fill="#7A361D"></path>
                                    <path d="M2.6563,3.1592 L1.7283,5.6652 C1.7283,5.6652 1.7113,5.7112 1.7403,5.7232 C1.7713,5.7362 1.7913,5.6902 1.7913,5.6902 L2.9023,3.2632 L2.6563,3.1592 Z" id="Fill-100" fill="#F1BD51"></path>
                                    <path d="M1.7617,5.7314 C1.7067,5.7174 1.7147,5.6804 1.7227,5.6614 L2.6487,3.1564 L2.6637,3.1634 L1.7367,5.6674 C1.7367,5.6684 1.7227,5.7074 1.7417,5.7154 L1.7827,5.6854 L2.8967,3.2584 L1.7967,5.6944 C1.7967,5.6944 1.7867,5.7214 1.7617,5.7314" id="Fill-102" fill="#7A361D"></path>
                                    <polygon id="Fill-104" fill="#7A361D" points="2.7227 3.1855 2.0797 4.9045 2.8417 3.2365"></polygon>
                                    <path d="M2.2188,3.9121 C1.9488,4.1631 1.9648,4.4661 1.7108,4.6791 C1.4568,4.8921 1.4528,5.1511 1.3908,5.2711 C1.3298,5.3921 1.2148,5.3851 1.2288,5.4241 C1.2418,5.4631 1.3728,5.4491 1.4828,5.3021 C1.5898,5.1541 1.5328,5.0171 1.8418,4.7551 C2.1488,4.4941 2.0738,4.2891 2.3668,4.0621 L2.2188,3.9121 Z" id="Fill-106" fill="#F1BD51"></path>
                                    <path d="M1.2715,5.4502 C1.2655,5.4502 1.2615,5.4502 1.2575,5.4492 L1.2205,5.4272 C1.2105,5.4032 1.2365,5.3912 1.2615,5.3802 C1.2965,5.3592 1.3515,5.3352 1.3845,5.2682 C1.4025,5.2342 1.4145,5.1912 1.4275,5.1422 C1.4645,5.0112 1.5195,4.8302 1.7075,4.6742 C1.8305,4.5682 1.8885,4.4392 1.9535,4.3052 C2.0115,4.1712 2.0765,4.0332 2.2105,3.9052 L2.2225,3.9182 C2.0915,4.0422 2.0255,4.1802 1.9645,4.3102 C1.9025,4.4492 1.8435,4.5772 1.7145,4.6832 C1.5335,4.8382 1.4825,5.0152 1.4415,5.1472 C1.4275,5.1992 1.4145,5.2422 1.3985,5.2752 C1.3635,5.3482 1.3045,5.3762 1.2675,5.3922 C1.2425,5.4062 1.2325,5.4122 1.2365,5.4212 C1.3005,5.4402 1.3905,5.4082 1.4745,5.2972 C1.5115,5.2472 1.5295,5.1992 1.5465,5.1472 C1.5875,5.0422 1.6305,4.9252 1.8335,4.7502 C1.9865,4.6212 2.0425,4.5062 2.1015,4.3932 C2.1605,4.2792 2.2145,4.1712 2.3635,4.0562 C2.2265,4.1802 2.1755,4.2882 2.1175,4.3992 C2.0585,4.5142 2.0005,4.6302 1.8435,4.7632 C1.6445,4.9332 1.6015,5.0512 1.5625,5.1522 C1.5425,5.2052 1.5255,5.2562 1.4885,5.3062 C1.4145,5.4072 1.3225,5.4502 1.2715,5.4502" id="Fill-108" fill="#7A361D"></path>
                                    <path d="M2.2266,4.0078 C1.9866,4.2698 2.0196,4.5228 1.7616,4.7238 C2.0036,4.6048 1.9956,4.3158 2.2696,4.0588 L2.2266,4.0078 Z" id="Fill-110" fill="#7A361D"></path>
                                    <path d="M2.9024,3.2627 L3.8364,0.7577 C3.8364,0.7577 3.8534,0.7127 3.8204,0.6997 C3.7914,0.6867 3.7734,0.7327 3.7734,0.7327 L2.6564,3.1587 L2.9024,3.2627 Z" id="Fill-112" fill="#F1BD51"></path>
                                    <path d="M2.9141,3.2637 L2.8961,3.2587 L3.8241,0.7537 C3.8241,0.7537 3.8421,0.7167 3.8201,0.7067 L3.7811,0.7357 L2.6641,3.1627 L3.7621,0.7297 C3.7621,0.7297 3.7771,0.7007 3.7991,0.6927 L3.8461,0.7107 C3.8531,0.7327 3.8421,0.7587 3.8421,0.7607 L2.9141,3.2637 Z" id="Fill-114" fill="#7A361D"></path>
                                    <polygon id="Fill-116" fill="#7A361D" points="2.8418 3.2363 3.4848 1.5183 2.7228 3.1853"></polygon>
                                    <path d="M3.3457,2.5107 C3.6137,2.2587 3.5997,1.9547 3.8537,1.7437 C4.1077,1.5317 4.1097,1.2717 4.1677,1.1507 C4.2347,1.0307 4.3497,1.0387 4.3357,0.9987 C4.3167,0.9587 4.1917,0.9727 4.0817,1.1187 C3.9687,1.2677 4.0317,1.4047 3.7227,1.6657 C3.4137,1.9277 3.4867,2.1337 3.1937,2.3597 L3.3457,2.5107 Z" id="Fill-118" fill="#F1BD51"></path>
                                    <path d="M3.3496,2.5176 L3.3376,2.5056 C3.4726,2.3806 3.5356,2.2446 3.5956,2.1096 C3.6566,1.9726 3.7146,1.8446 3.8456,1.7376 C4.0316,1.5846 4.0816,1.4046 4.1206,1.2746 C4.1366,1.2246 4.1466,1.1806 4.1646,1.1486 C4.2016,1.0746 4.2596,1.0466 4.2926,1.0296 C4.3166,1.0156 4.3316,1.0096 4.3286,1.0006 C4.2596,0.9826 4.1676,1.0146 4.0896,1.1246 C4.0486,1.1736 4.0356,1.2246 4.0116,1.2746 C3.9766,1.3806 3.9296,1.4996 3.7266,1.6736 C3.5786,1.8016 3.5156,1.9156 3.4606,2.0286 C3.4046,2.1426 3.3496,2.2516 3.2016,2.3656 C3.3336,2.2406 3.3886,2.1326 3.4476,2.0206 C3.5016,1.9076 3.5626,1.7906 3.7146,1.6616 C3.9176,1.4906 3.9566,1.3726 3.9986,1.2706 C4.0196,1.2156 4.0396,1.1656 4.0746,1.1156 C4.1546,1.0066 4.2486,0.9616 4.3066,0.9726 L4.3416,0.9976 C4.3496,1.0196 4.3286,1.0316 4.3026,1.0436 C4.2656,1.0606 4.2106,1.0856 4.1796,1.1546 C4.1606,1.1866 4.1506,1.2286 4.1366,1.2786 C4.0996,1.4126 4.0446,1.5936 3.8576,1.7496 C3.7306,1.8546 3.6756,1.9826 3.6096,2.1166 C3.5486,2.2516 3.4866,2.3906 3.3496,2.5176" id="Fill-120" fill="#7A361D"></path>
                                    <path d="M3.3379,2.416 C3.5779,2.154 3.5449,1.9 3.8029,1.699 C3.5589,1.819 3.5669,2.105 3.2909,2.365 L3.3379,2.416 Z" id="Fill-122" fill="#7A361D"></path>
                                    <path d="M2.8301,3.0879 L0.3261,2.1589 C0.3261,2.1589 0.2811,2.1399 0.2671,2.1699 C0.2581,2.2019 0.3051,2.2209 0.3051,2.2209 L2.7301,3.3339 L2.8301,3.0879 Z" id="Fill-124" fill="#F1BD51"></path>
                                    <path d="M2.7324,3.3281 L0.3004,2.2281 C0.2814,2.2191 0.2504,2.1971 0.2594,2.1661 C0.2754,2.1381 0.3144,2.1421 0.3304,2.1511 L2.8344,3.0791 L2.8304,3.0951 L0.3264,2.1661 C0.3224,2.1661 0.2854,2.1501 0.2754,2.1731 C0.2674,2.1971 0.3044,2.2141 0.3044,2.2141 L2.7324,3.3281 Z" id="Fill-126" fill="#7A361D"></path>
                                    <polygon id="Fill-128" fill="#7A361D" points="2.8047 3.1504 1.0857 2.5074 2.7537 3.2734"></polygon>
                                    <path d="M2.0801,2.6484 C1.8301,2.3764 1.5251,2.3944 1.3121,2.1394 C1.1011,1.8864 0.8441,1.8814 0.7211,1.8224 C0.6011,1.7604 0.6091,1.6454 0.5681,1.6584 C0.5291,1.6704 0.5391,1.8014 0.6911,1.9124 C0.8361,2.0224 0.9751,1.9624 1.2361,2.2694 C1.5001,2.5794 1.7031,2.5044 1.9321,2.7964 L2.0801,2.6484 Z" id="Fill-130" fill="#F1BD51"></path>
                                    <path d="M1.9356,2.793 C1.8086,2.655 1.7026,2.602 1.5896,2.547 C1.4746,2.488 1.3596,2.43 1.2286,2.275 C1.0586,2.075 0.9416,2.032 0.8396,1.994 C0.7856,1.977 0.7386,1.956 0.6836,1.919 C0.5766,1.837 0.5316,1.74 0.5386,1.686 L0.5646,1.652 C0.5856,1.643 0.6016,1.664 0.6136,1.691 C0.6306,1.727 0.6566,1.78 0.7246,1.814 C0.7536,1.83 0.7966,1.842 0.8436,1.854 C0.9786,1.894 1.1636,1.946 1.3186,2.136 C1.4236,2.261 1.5506,2.318 1.6856,2.381 C1.8226,2.441 1.9606,2.506 2.0876,2.643 L2.0746,2.654 C1.9496,2.52 1.8126,2.456 1.6816,2.395 C1.5386,2.332 1.4136,2.273 1.3046,2.147 C1.1526,1.961 0.9706,1.909 0.8396,1.872 C0.7886,1.857 0.7496,1.845 0.7166,1.83 C0.6446,1.792 0.6156,1.736 0.5976,1.7 C0.5856,1.674 0.5796,1.661 0.5686,1.666 C0.5506,1.729 0.5816,1.822 0.6956,1.905 C0.7456,1.941 0.7926,1.959 0.8436,1.979 C0.9496,2.017 1.0686,2.06 1.2426,2.265 C1.3686,2.418 1.4866,2.475 1.5976,2.531 C1.7146,2.59 1.8226,2.645 1.9356,2.793" id="Fill-132" fill="#7A361D"></path>
                                    <path d="M1.9863,2.6543 C1.7223,2.4183 1.4683,2.4463 1.2673,2.1923 C1.3863,2.4333 1.6743,2.4253 1.9353,2.7013 L1.9863,2.6543 Z" id="Fill-134" fill="#7A361D"></path>
                                    <path d="M2.7305,3.334 L5.2345,4.263 C5.2345,4.263 5.2775,4.283 5.2935,4.251 C5.3065,4.22 5.2595,4.202 5.2595,4.202 L2.8305,3.088 L2.7305,3.334 Z" id="Fill-136" fill="#F1BD51"></path>
                                    <path d="M5.2637,4.2773 C5.2497,4.2773 5.2427,4.2733 5.2307,4.2703 L2.7267,3.3433 L2.7327,3.3283 L5.2387,4.2563 C5.2387,4.2563 5.2737,4.2703 5.2847,4.2483 C5.2967,4.2263 5.2557,4.2093 5.2557,4.2093 L2.8277,3.0943 L5.2637,4.1943 C5.2817,4.2033 5.3147,4.2253 5.3007,4.2543 C5.2927,4.2713 5.2777,4.2773 5.2637,4.2773" id="Fill-138" fill="#7A361D"></path>
                                    <polygon id="Fill-140" fill="#7A361D" points="2.7539 3.2734 4.4729 3.9124 2.8049 3.1504"></polygon>
                                    <path d="M3.4805,3.7744 C3.7345,4.0454 4.0395,4.0284 4.2485,4.2824 C4.4605,4.5374 4.7185,4.5404 4.8395,4.5994 C4.9625,4.6624 4.9515,4.7774 4.9965,4.7634 C5.0315,4.7504 5.0195,4.6194 4.8715,4.5084 C4.7225,4.3994 4.5895,4.4614 4.3285,4.1534 C4.0625,3.8444 3.8575,3.9184 3.6325,3.6244 L3.4805,3.7744 Z" id="Fill-142" fill="#F1BD51"></path>
                                    <path d="M4.9883,4.7734 C4.9683,4.7734 4.9593,4.7514 4.9473,4.7294 C4.9293,4.6944 4.9043,4.6414 4.8403,4.6074 C4.8063,4.5904 4.7633,4.5794 4.7133,4.5644 C4.5823,4.5274 4.3963,4.4744 4.2443,4.2874 C4.1403,4.1624 4.0083,4.1024 3.8753,4.0424 C3.7403,3.9794 3.5993,3.9154 3.4763,3.7814 L3.4863,3.7694 C3.6093,3.9034 3.7483,3.9644 3.8833,4.0274 C4.0193,4.0884 4.1463,4.1474 4.2563,4.2754 C4.4083,4.4614 4.5903,4.5114 4.7183,4.5494 C4.7693,4.5644 4.8103,4.5764 4.8433,4.5924 C4.9163,4.6284 4.9453,4.6854 4.9633,4.7214 C4.9763,4.7514 4.9803,4.7574 4.9923,4.7544 C5.0093,4.6934 4.9803,4.5994 4.8673,4.5154 C4.8163,4.4804 4.7693,4.4614 4.7153,4.4444 C4.6113,4.4064 4.4943,4.3624 4.3163,4.1584 C4.1913,4.0054 4.0743,3.9474 3.9613,3.8914 C3.8493,3.8334 3.7403,3.7784 3.6293,3.6284 C3.7523,3.7654 3.8573,3.8184 3.9723,3.8764 C4.0863,3.9324 4.2013,3.9924 4.3323,4.1474 C4.5023,4.3474 4.6173,4.3894 4.7223,4.4284 C4.7773,4.4474 4.8243,4.4634 4.8753,4.5034 C4.9963,4.5904 5.0273,4.6924 5.0193,4.7374 L4.9983,4.7714 C4.9963,4.7724 4.9923,4.7734 4.9883,4.7734" id="Fill-144" fill="#7A361D"></path>
                                    <path d="M3.5781,3.7676 C3.8381,4.0056 4.0921,3.9736 4.2931,4.2326 C4.1721,3.9906 3.8871,3.9966 3.6291,3.7226 L3.5781,3.7676 Z" id="Fill-146" fill="#7A361D"></path>
                                    <path d="M2.7305,3.0879 L0.3045,4.2019 C0.3045,4.2019 0.2575,4.2199 0.2675,4.2509 C0.2815,4.2829 0.3265,4.2629 0.3265,4.2629 L2.8305,3.3339 L2.7305,3.0879 Z" id="Fill-148" fill="#F1BD51"></path>
                                    <path d="M0.3008,4.2773 C0.2848,4.2773 0.2678,4.2713 0.2598,4.2543 C0.2498,4.2253 0.2808,4.2023 0.3008,4.1943 L2.7268,3.0803 L2.7328,3.0943 L0.3048,4.2093 C0.3048,4.2093 0.2678,4.2263 0.2758,4.2483 C0.2848,4.2713 0.3218,4.2563 0.3258,4.2563 L2.8298,3.3283 L0.3298,4.2703 C0.3218,4.2733 0.3108,4.2773 0.3008,4.2773" id="Fill-150" fill="#7A361D"></path>
                                    <polygon id="Fill-152" fill="#7A361D" points="2.7539 3.1504 1.0859 3.9124 2.8049 3.2734"></polygon>
                                    <path d="M1.8887,3.3086 C1.5197,3.2946 1.3167,3.5216 0.9847,3.4926 C0.6567,3.4626 0.4707,3.6426 0.3437,3.6856 C0.2127,3.7286 0.1367,3.6386 0.1187,3.6786 C0.0977,3.7146 0.2027,3.7976 0.3827,3.7706 C0.5647,3.7446 0.6227,3.6056 1.0217,3.6366 C1.4237,3.6696 1.5197,3.4716 1.8887,3.5216 L1.8887,3.3086 Z" id="Fill-154" fill="#F1BD51"></path>
                                    <path d="M0.3145,3.7842 C0.2075,3.7842 0.1405,3.7452 0.1195,3.7152 L0.1095,3.6742 C0.1235,3.6512 0.1445,3.6602 0.1735,3.6702 C0.2105,3.6822 0.2675,3.7012 0.3355,3.6792 C0.3735,3.6682 0.4125,3.6452 0.4575,3.6212 C0.5805,3.5552 0.7425,3.4632 0.9845,3.4832 C1.1485,3.5002 1.2835,3.4492 1.4195,3.3972 C1.5585,3.3472 1.6995,3.2932 1.8885,3.3012 L1.8885,3.3172 C1.7105,3.3092 1.5625,3.3632 1.4235,3.4122 C1.2875,3.4652 1.1525,3.5132 0.9845,3.5002 C0.7505,3.4782 0.5825,3.5682 0.4625,3.6372 C0.4195,3.6602 0.3785,3.6802 0.3435,3.6932 C0.2675,3.7172 0.2075,3.6992 0.1695,3.6852 C0.1365,3.6742 0.1285,3.6742 0.1275,3.6802 C0.1605,3.7402 0.2425,3.7832 0.3825,3.7622 C0.4415,3.7532 0.4925,3.7312 0.5395,3.7092 C0.6405,3.6612 0.7535,3.6082 1.0215,3.6292 C1.2205,3.6462 1.3435,3.6052 1.4645,3.5662 C1.5875,3.5262 1.7035,3.4882 1.8885,3.5132 C1.6955,3.5032 1.5895,3.5432 1.4685,3.5822 C1.3475,3.6222 1.2245,3.6612 1.0215,3.6452 C0.7575,3.6242 0.6445,3.6792 0.5465,3.7232 C0.4965,3.7472 0.4495,3.7692 0.3865,3.7802 C0.3615,3.7812 0.3355,3.7842 0.3145,3.7842" id="Fill-156" fill="#7A361D"></path>
                                    <path d="M1.8262,3.3789 C1.4712,3.3979 1.3162,3.5989 0.9882,3.5589 C1.2462,3.6459 1.4412,3.4379 1.8222,3.4489 L1.8262,3.3789 Z" id="Fill-158" fill="#7A361D"></path>
                                    <path d="M2.8301,3.334 L5.2601,2.221 C5.2601,2.221 5.3071,2.202 5.2931,2.17 C5.2771,2.14 5.2341,2.159 5.2341,2.159 L2.7301,3.088 L2.8301,3.334 Z" id="Fill-160" fill="#F1BD51"></path>
                                    <path d="M2.834,3.3428 L2.828,3.3278 L5.256,2.2138 C5.256,2.2138 5.297,2.1968 5.285,2.1728 C5.273,2.1508 5.238,2.1658 5.238,2.1658 L2.732,3.0948 L5.23,2.1518 C5.25,2.1428 5.289,2.1378 5.301,2.1658 C5.314,2.1968 5.281,2.2188 5.264,2.2288 L2.834,3.3428 Z" id="Fill-162" fill="#7A361D"></path>
                                    <polygon id="Fill-164" fill="#7A361D" points="2.8047 3.2734 4.4727 2.5074 2.7537 3.1504"></polygon>
                                    <path d="M3.6758,3.1133 C4.0408,3.1283 4.2478,2.8993 4.5778,2.9303 C4.9078,2.9603 5.0938,2.7783 5.2188,2.7363 C5.3498,2.6963 5.4258,2.7823 5.4458,2.7443 C5.4628,2.7083 5.3618,2.6243 5.1758,2.6503 C4.9958,2.6793 4.9418,2.8163 4.5388,2.7843 C4.1368,2.7523 4.0408,2.9483 3.6758,2.8993 L3.6758,3.1133 Z" id="Fill-166" fill="#F1BD51"></path>
                                    <path d="M3.707,3.1221 L3.676,3.1221 L3.676,3.1051 C3.857,3.1111 3.998,3.0601 4.137,3.0091 C4.277,2.9561 4.412,2.9081 4.578,2.9231 C4.814,2.9431 4.98,2.8531 5.1,2.7861 C5.144,2.7611 5.184,2.7401 5.219,2.7281 C5.297,2.7031 5.353,2.7241 5.394,2.7371 C5.422,2.7481 5.434,2.7501 5.434,2.7411 C5.404,2.6831 5.318,2.6401 5.18,2.6581 C5.117,2.6681 5.07,2.6881 5.023,2.7131 C4.918,2.7611 4.807,2.8131 4.539,2.7921 C4.342,2.7751 4.215,2.8161 4.1,2.8561 C3.977,2.8951 3.859,2.9331 3.676,2.9091 C3.859,2.9181 3.973,2.8791 4.092,2.8391 C4.211,2.8011 4.336,2.7611 4.539,2.7751 C4.803,2.7971 4.916,2.7441 5.014,2.6991 C5.064,2.6741 5.115,2.6501 5.176,2.6421 C5.314,2.6211 5.412,2.6611 5.445,2.7081 L5.451,2.7491 C5.441,2.7701 5.416,2.7631 5.387,2.7531 C5.35,2.7401 5.297,2.7211 5.223,2.7441 C5.191,2.7561 5.15,2.7751 5.107,2.8011 C4.984,2.8701 4.82,2.9601 4.574,2.9381 C4.412,2.9231 4.281,2.9741 4.143,3.0251 C4.012,3.0731 3.879,3.1221 3.707,3.1221" id="Fill-168" fill="#7A361D"></path>
                                    <path d="M3.7383,3.041 C4.0923,3.025 4.2483,2.824 4.5703,2.862 C4.3163,2.775 4.1173,2.986 3.7403,2.975 L3.7383,3.041 Z" id="Fill-170" fill="#7A361D"></path>
                                    <path d="M2.9024,3.1592 L1.7914,0.7322 C1.7914,0.7322 1.7714,0.6862 1.7404,0.7002 C1.7114,0.7132 1.7284,0.7582 1.7284,0.7582 L2.6564,3.2632 L2.9024,3.1592 Z" id="Fill-172" fill="#F1BD51"></path>
                                    <path d="M2.6641,3.2588 L1.7231,0.7608 C1.7231,0.7588 1.7111,0.7328 1.7191,0.7118 L1.7621,0.6928 C1.7871,0.7008 1.7971,0.7298 1.7971,0.7298 L2.9101,3.1558 L2.8961,3.1628 L1.7621,0.6998 L1.7421,0.7068 L1.7361,0.7538 L2.6641,3.2588 Z" id="Fill-174" fill="#7A361D"></path>
                                    <polygon id="Fill-176" fill="#7A361D" points="2.8418 3.1855 2.0798 1.5185 2.7228 3.2365"></polygon>
                                    <path d="M2.6856,2.3184 C2.6996,1.9484 2.4726,1.7454 2.4996,1.4164 C2.5296,1.0864 2.3476,0.8994 2.3046,0.7714 C2.2656,0.6424 2.3516,0.5684 2.3166,0.5484 C2.2756,0.5314 2.1936,0.6314 2.2226,0.8134 C2.2496,0.9974 2.3886,1.0494 2.3556,1.4534 C2.3246,1.8564 2.5196,1.9494 2.4726,2.3174 L2.6856,2.3184 Z" id="Fill-178" fill="#F1BD51"></path>
                                    <path d="M2.6934,2.3184 L2.6754,2.3184 C2.6814,2.1354 2.6294,1.9944 2.5804,1.8564 C2.5274,1.7144 2.4764,1.5834 2.4904,1.4154 C2.5114,1.1754 2.4224,1.0134 2.3554,0.8944 C2.3304,0.8474 2.3084,0.8084 2.2974,0.7764 C2.2754,0.6974 2.2954,0.6384 2.3084,0.5994 C2.3164,0.5714 2.3204,0.5604 2.3124,0.5564 C2.2504,0.5884 2.2114,0.6744 2.2284,0.8114 C2.2404,0.8734 2.2614,0.9204 2.2834,0.9704 C2.3304,1.0724 2.3844,1.1854 2.3634,1.4534 C2.3474,1.6524 2.3884,1.7754 2.4254,1.8934 C2.4644,2.0164 2.5044,2.1314 2.4784,2.3174 C2.4864,2.1324 2.4494,2.0194 2.4104,1.8984 C2.3714,1.7784 2.3304,1.6544 2.3454,1.4524 C2.3674,1.1884 2.3164,1.0764 2.2694,0.9774 C2.2464,0.9264 2.2224,0.8794 2.2144,0.8164 C2.1934,0.6794 2.2324,0.5824 2.2754,0.5494 L2.3204,0.5414 C2.3414,0.5514 2.3344,0.5764 2.3244,0.6054 C2.3084,0.6424 2.2914,0.6984 2.3124,0.7694 C2.3244,0.8034 2.3474,0.8414 2.3714,0.8864 C2.4354,1.0064 2.5294,1.1734 2.5074,1.4174 C2.4944,1.5804 2.5414,1.7114 2.5954,1.8514 C2.6464,1.9894 2.6994,2.1324 2.6934,2.3184" id="Fill-180" fill="#7A361D"></path>
                                    <path d="M2.6133,2.2559 C2.5953,1.9009 2.3963,1.7439 2.4313,1.4209 C2.3453,1.6759 2.5543,1.8749 2.5453,2.2529 L2.6133,2.2559 Z" id="Fill-182" fill="#7A361D"></path>
                                    <path d="M2.6563,3.2627 L3.7733,5.6907 C3.7733,5.6907 3.7913,5.7367 3.8203,5.7227 C3.8533,5.7107 3.8363,5.6647 3.8363,5.6647 L2.9023,3.1587 L2.6563,3.2627 Z" id="Fill-184" fill="#F1BD51"></path>
                                    <path d="M3.8242,5.7314 C3.7772,5.7214 3.7622,5.6944 3.7622,5.6944 L2.6482,3.2654 L2.6642,3.2584 L3.7812,5.6854 C3.7812,5.6854 3.7992,5.7264 3.8202,5.7154 C3.8422,5.7074 3.8242,5.6684 3.8242,5.6674 L2.8962,3.1634 L3.8422,5.6614 C3.8492,5.6804 3.8572,5.7174 3.8242,5.7314" id="Fill-186" fill="#7A361D"></path>
                                    <polygon id="Fill-188" fill="#7A361D" points="2.7227 3.2363 3.4847 4.9043 2.8417 3.1853"></polygon>
                                    <path d="M2.8789,4.1035 C2.8629,4.4725 3.0919,4.6765 3.0629,5.0065 C3.0329,5.3355 3.2149,5.5205 3.2539,5.6525 C3.2989,5.7805 3.2069,5.8555 3.2479,5.8735 C3.2849,5.8925 3.3669,5.7895 3.3419,5.6075 C3.3129,5.4265 3.1759,5.3725 3.2069,4.9685 C3.2399,4.5685 3.0449,4.4725 3.0919,4.1065 L2.8789,4.1035 Z" id="Fill-190" fill="#F1BD51"></path>
                                    <path d="M3.2441,5.8828 C3.2191,5.8708 3.2301,5.8448 3.2401,5.8198 C3.2521,5.7808 3.2731,5.7258 3.2481,5.6538 C3.2361,5.6178 3.2151,5.5798 3.1891,5.5338 C3.1251,5.4138 3.0331,5.2478 3.0511,5.0048 C3.0661,4.8418 3.0191,4.7118 2.9691,4.5718 C2.9181,4.4328 2.8591,4.2888 2.8671,4.1038 L2.8851,4.1048 C2.8791,4.2868 2.9321,4.4298 2.9821,4.5668 C3.0371,4.7058 3.0841,4.8398 3.0701,5.0068 C3.0491,5.2428 3.1391,5.4078 3.2031,5.5288 C3.2301,5.5728 3.2521,5.6128 3.2621,5.6488 C3.2871,5.7258 3.2691,5.7828 3.2541,5.8238 C3.2441,5.8518 3.2441,5.8618 3.2521,5.8668 C3.3081,5.8348 3.3531,5.7478 3.3321,5.6088 C3.3241,5.5488 3.3031,5.5018 3.2771,5.4508 C3.2341,5.3508 3.1801,5.2378 3.2011,4.9688 C3.2151,4.7698 3.1761,4.6488 3.1351,4.5288 C3.0961,4.4058 3.0581,4.2908 3.0821,4.1048 C3.0741,4.2888 3.1131,4.4038 3.1521,4.5238 C3.1891,4.6438 3.2341,4.7688 3.2151,4.9698 C3.1931,5.2338 3.2481,5.3468 3.2911,5.4458 C3.3161,5.4958 3.3381,5.5438 3.3491,5.6078 C3.3671,5.7428 3.3281,5.8388 3.2851,5.8738 L3.2441,5.8828 Z" id="Fill-192" fill="#7A361D"></path>
                                    <path d="M2.9492,4.167 C2.9692,4.522 3.1682,4.679 3.1292,5.002 C3.2152,4.745 3.0082,4.548 3.0192,4.172 L2.9492,4.167 Z" id="Fill-194" fill="#7A361D"></path>
                                    <path d="M2.7813,2.124 C3.3833,2.124 3.8673,2.609 3.8673,3.209 C3.8673,3.811 3.3833,4.298 2.7813,4.298 C2.1773,4.298 1.6913,3.811 1.6913,3.209 C1.6913,2.609 2.1773,2.124 2.7813,2.124" id="Fill-196" fill="#F1BD51"></path>
                                    <path d="M2.7813,2.1318 C2.1853,2.1318 1.6993,2.6158 1.6993,3.2088 C1.6993,3.8068 2.1853,4.2908 2.7813,4.2908 C3.3793,4.2908 3.8593,3.8068 3.8593,3.2088 C3.8593,2.6158 3.3793,2.1318 2.7813,2.1318 M2.7813,4.3068 C2.1763,4.3068 1.6853,3.8158 1.6853,3.2088 C1.6853,2.6078 2.1763,2.1148 2.7813,2.1148 C3.3853,2.1148 3.8793,2.6078 3.8793,3.2088 C3.8793,3.8158 3.3853,4.3068 2.7813,4.3068" id="Fill-198" fill="#7A361D"></path>
                                    <path d="M3.4688,2.9766 C3.2738,2.8106 3.0328,2.7846 2.8968,2.9126 C2.8008,3.0386 2.8088,3.1946 2.9258,3.3546 C2.9138,3.3546 2.8968,3.3636 2.8888,3.3686 C2.8048,3.2086 2.7908,3.0426 2.8458,2.8936 C3.0328,2.7436 3.2848,2.7266 3.4688,2.9766" id="Fill-200" fill="#7A361D"></path>
                                    <path d="M3.168,2.9258 C3.055,2.9258 3.033,2.9518 2.982,2.9928 C2.932,3.0358 2.906,3.0268 2.897,3.0358 C2.889,3.0428 2.897,3.0698 2.914,3.0608 C2.932,3.0508 2.965,3.0358 3.016,2.9928 C3.063,2.9518 3.117,2.9518 3.168,2.9518 C3.316,2.9518 3.4,3.0768 3.418,3.0698 C3.434,3.0608 3.332,2.9258 3.168,2.9258" id="Fill-202" fill="#7A361D"></path>
                                    <path d="M3.3555,3.0693 C3.2515,2.9523 3.0485,2.9433 2.9645,3.0773 L2.9985,3.0773 C3.0825,2.9433 3.2855,3.0003 3.2985,3.0603 L3.2985,3.0773 L3.3555,3.0693 Z" id="Fill-204" fill="#7A361D"></path>
                                    <path d="M3.1504,2.9844 C3.1894,2.9844 3.2264,3.0194 3.2264,3.0604 C3.2264,3.1014 3.1894,3.1354 3.1504,3.1354 C3.1094,3.1354 3.0744,3.1014 3.0744,3.0604 C3.0744,3.0194 3.1094,2.9844 3.1504,2.9844" id="Fill-206" fill="#7A361D"></path>
                                    <path d="M2.9649,3.0771 C3.0489,3.1511 3.2349,3.1611 3.3559,3.0691 L3.2989,3.0601 C3.2149,3.1511 3.0819,3.1431 2.9979,3.0771 L2.9979,3.0601 L2.9649,3.0771 Z" id="Fill-208" fill="#7A361D"></path>
                                    <path d="M3.3672,3.1103 C3.2262,3.2203 3.0822,3.2093 2.9982,3.1613 C2.9142,3.1103 2.9142,3.0943 2.9312,3.0943 C2.9472,3.0943 2.9652,3.1103 3.0332,3.1433 C3.0992,3.1753 3.2012,3.1753 3.3672,3.1103" id="Fill-210" fill="#7A361D"></path>
                                    <path d="M2.957,3.3633 C2.982,3.3703 2.998,3.4003 2.986,3.4253 C2.977,3.4523 2.947,3.4673 2.926,3.4563 C2.902,3.4503 2.893,3.4323 2.889,3.4123 C2.881,3.4273 2.846,3.4783 2.781,3.4783 L2.766,3.4783 L2.781,3.5043 C2.799,3.5043 2.846,3.5043 2.881,3.4783 C2.906,3.5123 2.949,3.5213 2.986,3.4993 C3.019,3.4733 3.031,3.4273 3.004,3.3913 C2.994,3.3753 2.977,3.3653 2.957,3.3633" id="Fill-212" fill="#7A361D"></path>
                                    <path d="M3.0547,3.7119 C2.9827,3.6619 2.9477,3.5869 2.8637,3.5869 C2.8457,3.5869 2.8127,3.5959 2.7817,3.6129 L2.7657,3.6129 L2.7817,3.6369 C2.8127,3.6369 2.8637,3.5959 2.9257,3.6289 C2.9827,3.6619 3.0157,3.6949 3.0547,3.7119" id="Fill-214" fill="#7A361D"></path>
                                    <path d="M3.0332,3.7119 C2.8632,3.6619 2.8302,3.6949 2.7812,3.6949 L2.7652,3.6949 L2.7812,3.7309 C2.8462,3.7309 2.8812,3.6799 3.0332,3.7119" id="Fill-216" fill="#7A361D"></path>
                                    <path d="M3.0547,3.7119 C2.8747,3.6949 2.9317,3.8049 2.7817,3.8049 L2.7657,3.8049 L2.7817,3.8299 C2.9647,3.8299 2.8807,3.7309 3.0547,3.7119" id="Fill-218" fill="#7A361D"></path>
                                    <path d="M2.9316,3.9795 C2.9316,3.8975 2.8636,3.8305 2.7816,3.8305 C2.6996,3.8305 2.6286,3.8975 2.6286,3.9795 C2.6486,3.8975 2.7326,3.8455 2.8166,3.8675 C2.8746,3.8795 2.9176,3.9225 2.9316,3.9795" id="Fill-220" fill="#7A361D"></path>
                                    <path d="M2.0938,2.9766 C2.2868,2.8106 2.5298,2.7846 2.6638,2.9126 C2.7618,3.0386 2.7498,3.1946 2.6388,3.3546 C2.6468,3.3546 2.6638,3.3636 2.6718,3.3686 C2.7538,3.2086 2.7738,3.0426 2.7148,2.8936 C2.5298,2.7436 2.2798,2.7266 2.0938,2.9766" id="Fill-222" fill="#7A361D"></path>
                                    <path d="M2.3965,2.9258 C2.5035,2.9258 2.5295,2.9518 2.5805,2.9928 C2.6285,3.0358 2.6525,3.0268 2.6645,3.0358 C2.6715,3.0428 2.6645,3.0698 2.6465,3.0608 C2.6285,3.0508 2.5975,3.0358 2.5445,2.9928 C2.4965,2.9518 2.4455,2.9518 2.3965,2.9518 C2.2465,2.9518 2.1645,3.0768 2.1445,3.0698 C2.1265,3.0608 2.2285,2.9258 2.3965,2.9258" id="Fill-224" fill="#7A361D"></path>
                                    <path d="M2.2031,3.0693 C2.3121,2.9523 2.5121,2.9433 2.5981,3.0773 L2.5621,3.0773 C2.4781,2.9433 2.2791,3.0003 2.2651,3.0603 L2.2651,3.0773 L2.2031,3.0693 Z" id="Fill-226" fill="#7A361D"></path>
                                    <path d="M2.4141,2.9844 C2.3711,2.9844 2.3381,3.0194 2.3381,3.0604 C2.3381,3.1014 2.3711,3.1354 2.4141,3.1354 C2.4531,3.1354 2.4861,3.1014 2.4861,3.0604 C2.4861,3.0194 2.4531,2.9844 2.4141,2.9844" id="Fill-228" fill="#7A361D"></path>
                                    <path d="M2.5977,3.0771 C2.5117,3.1511 2.3297,3.1611 2.2027,3.0691 L2.2657,3.0601 C2.3457,3.1511 2.4787,3.1431 2.5627,3.0771 L2.5627,3.0601 L2.5977,3.0771 Z" id="Fill-230" fill="#7A361D"></path>
                                    <path d="M2.1934,3.1103 C2.3384,3.2203 2.4784,3.2093 2.5624,3.1613 C2.6464,3.1103 2.6464,3.0943 2.6294,3.0943 C2.6134,3.0943 2.5974,3.1103 2.5294,3.1433 C2.4614,3.1753 2.3634,3.1753 2.1934,3.1103" id="Fill-232" fill="#7A361D"></path>
                                    <path d="M2.6055,3.3633 C2.5805,3.3703 2.5665,3.4003 2.5785,3.4253 C2.5845,3.4523 2.6135,3.4673 2.6385,3.4563 C2.6565,3.4503 2.6715,3.4323 2.6715,3.4123 C2.6795,3.4273 2.7145,3.4783 2.7815,3.4783 L2.7985,3.4783 L2.7815,3.5043 C2.7655,3.5043 2.7145,3.5043 2.6795,3.4783 C2.6565,3.5123 2.6095,3.5213 2.5785,3.4993 C2.5415,3.4733 2.5335,3.4273 2.5545,3.3913 C2.5705,3.3753 2.5875,3.3653 2.6055,3.3633" id="Fill-234" fill="#7A361D"></path>
                                    <path d="M2.5039,3.7119 C2.5799,3.6619 2.6129,3.5869 2.6969,3.5869 C2.7149,3.5869 2.7479,3.5959 2.7809,3.6129 L2.7989,3.6129 L2.7809,3.6369 C2.7479,3.6369 2.6969,3.5959 2.6389,3.6289 C2.5799,3.6619 2.5449,3.6949 2.5039,3.7119" id="Fill-236" fill="#7A361D"></path>
                                    <path d="M2.5293,3.7119 C2.6973,3.6619 2.7303,3.6949 2.7813,3.6949 L2.7993,3.6949 L2.7813,3.7309 C2.7153,3.7309 2.6793,3.6799 2.5293,3.7119" id="Fill-238" fill="#7A361D"></path>
                                    <path d="M2.5039,3.7119 C2.6899,3.6949 2.6289,3.8049 2.7809,3.8049 L2.7989,3.8049 L2.7809,3.8299 C2.5979,3.8299 2.6799,3.7309 2.5039,3.7119" id="Fill-240" fill="#7A361D"></path>
                                    <path d="M2.6289,3.9795 C2.6289,3.8975 2.6989,3.8305 2.7809,3.8305 C2.8629,3.8305 2.9319,3.8975 2.9319,3.9795 C2.9139,3.8975 2.8299,3.8455 2.7439,3.8675 C2.6899,3.8795 2.6429,3.9225 2.6289,3.9795" id="Fill-242" fill="#7A361D"></path>
                                </g>
                            </g>
                        </g>
                    </g>
                </g>
            </g>
        </g>
    </g>
</svg>