<?xml version="1.0" encoding="UTF-8"?>
<svg width="11px" height="11px" viewBox="0 0 11 11" version="1.1" xmlns="http://www.w3.org/2000/svg" xmlns:xlink="http://www.w3.org/1999/xlink">
    <!-- Generator: Sketch 50.2 (55047) - http://www.bohemiancoding.com/sketch -->
    <title>Group</title>
    <desc>Created with Sketch.</desc>
    <defs></defs>
    <g id="Contact-Page-/-PARTNER-/-About" stroke="none" stroke-width="1" fill="none" fill-rule="evenodd">
        <g id="Raza---Contact" transform="translate(-491.000000, -658.000000)" fill="#0B203E" fill-rule="nonzero">
            <g id="Group-2" transform="translate(318.000000, 408.000000)">
                <g id="Group-6">
                    <g id="Group-5" transform="translate(72.000000, 234.000000)">
                        <g id="Group" transform="translate(101.000000, 16.000000)">
                            <g id="Shape">
                                <path d="M6.27439646,0.509582783 C5.90539127,0.146064763 5.30653525,0.148904587 4.93801338,0.514735263 L0.574032722,4.84684705 C-0.437698986,5.85857875 1.08003272,7.37631046 2.09176443,6.36457875 L3.98180726,4.47453592 C4.29701696,4.15932623 4.55254492,4.26527927 4.55254492,4.70601823 L4.55254492,9.89826168 C4.55254492,10.4911885 5.03278882,10.9714324 5.62571565,10.9714324 C6.21837419,10.9714324 6.69888638,10.4911885 6.69888638,9.89826168 L6.69888638,4.70601823 C6.69888638,4.26296439 6.95293696,4.15787656 7.26956182,4.47453592 L9.15939858,6.36457875 C10.1711303,7.37631046 11.688862,5.85857875 10.6771303,4.84684705 L6.27439646,0.509582783 Z" transform="translate(5.625582, 5.605039) rotate(90.000000) translate(-5.625582, -5.605039) "></path>
                            </g>
                        </g>
                    </g>
                </g>
            </g>
        </g>
    </g>
</svg>