<?xml version="1.0" encoding="UTF-8"?>
<svg width="34px" height="20px" viewBox="0 0 34 20" version="1.1" xmlns="http://www.w3.org/2000/svg" xmlns:xlink="http://www.w3.org/1999/xlink">
    <!-- Generator: Sketch 50.2 (55047) - http://www.bohemiancoding.com/sketch -->
    <title>Page 1</title>
    <desc>Created with Sketch.</desc>
    <defs></defs>
    <g id="New-Section" stroke="none" stroke-width="1" fill="none" fill-rule="evenodd">
        <g id="Search-Rates---Main" transform="translate(-207.000000, -771.000000)">
            <g id="Group-7" transform="translate(207.000000, 458.000000)">
                <g id="Group-6" transform="translate(0.000000, 144.000000)">
                    <g id="Group" transform="translate(0.000000, 39.000000)">
                        <g id="Page-1">
                            <g transform="translate(0.000000, 129.000000)">
                                <polygon id="Fill-1" fill="#BC0030" points="0 20.5791 33.563 20.5791 33.563 1.0001 0 1.0001"></polygon>
                                <polygon id="Fill-2" fill="#1C2A7D" points="0 9.9671 17.931 9.9671 17.931 0.9991 0 0.9991"></polygon>
                                <polygon id="Fill-3" fill="#FFFFFF" points="8.9658 7.2237 9.7368 9.5917 7.7218 8.1297 10.2118 8.1297 8.1958 9.5917"></polygon>
                                <polygon id="Fill-4" fill="#FFFFFF" points="6.2265 3.6153 6.8415 5.5113 5.2305 4.3393 7.2235 4.3393 5.6095 5.5113"></polygon>
                                <polygon id="Fill-5" fill="#FFFFFF" points="11.7676 3.2442 12.3446 5.0192 10.8346 3.9212 12.7016 3.9212 11.1906 5.0192"></polygon>
                                <polygon id="Fill-6" fill="#FFFFFF" points="8.7307 2.0985 7.9707 2.0985 8.5857 2.5455 8.3497 3.2685 8.9657 2.8215 9.5817 3.2685 9.3457 2.5455 9.9607 2.0985 9.2007 2.0985 8.9657 1.3755"></polygon>
                                <polygon id="Fill-7" fill="#FFFFFF" points="10.3349 5.5449 10.7229 6.7289 9.7129 5.9969 10.9569 5.9969 9.9499 6.7289"></polygon>
                            </g>
                        </g>
                    </g>
                </g>
            </g>
        </g>
    </g>
</svg>