<?xml version="1.0" encoding="UTF-8"?>
<svg width="34px" height="20px" viewBox="0 0 34 20" version="1.1" xmlns="http://www.w3.org/2000/svg" xmlns:xlink="http://www.w3.org/1999/xlink">
    <!-- Generator: Sketch 50.2 (55047) - http://www.bohemiancoding.com/sketch -->
    <title>Page 1</title>
    <desc>Created with Sketch.</desc>
    <defs></defs>
    <g id="New-Section" stroke="none" stroke-width="1" fill="none" fill-rule="evenodd">
        <g id="Search-Rates---Main" transform="translate(-207.000000, -1115.000000)">
            <g id="Group-7" transform="translate(207.000000, 458.000000)">
                <g id="Group-6" transform="translate(0.000000, 144.000000)">
                    <g id="Group" transform="translate(0.000000, 39.000000)">
                        <g id="Page-1">
                            <g transform="translate(0.000000, 474.000000)">
                                <polygon id="Fill-1" fill="#180087" points="0 19.5791 33.563 19.5791 33.563 0.0001 0 0.0001"></polygon>
                                <polygon id="Fill-2" fill="#FFFFFF" points="8.8262 11.9951 9.3422 13.5861 10.9002 12.9941 9.9802 14.3841 11.4122 15.2351 9.7522 15.3801 9.9802 17.0311 8.8262 15.8231 7.6812 17.0311 7.9102 15.3801 6.2462 15.2351 7.6812 14.3841 6.7582 12.9941 8.3202 13.5861"></polygon>
                                <polygon id="Fill-3" fill="#FFFFFF" points="26.4844 14.8545 26.7324 15.6115 27.4744 15.3315 27.0374 15.9935 27.7184 16.3985 26.9234 16.4665 27.0374 17.2525 26.4844 16.6765 25.9414 17.2525 26.0504 16.4665 25.2594 16.3985 25.9414 15.9935 25.5044 15.3315 26.2464 15.6115"></polygon>
                                <polygon id="Fill-4" fill="#FFFFFF" points="22.0742 7.8653 22.3162 8.6213 23.0582 8.3393 22.6212 9.0033 23.3032 9.4083 22.5112 9.4743 22.6212 10.2623 22.0742 9.6863 21.5252 10.2623 21.6352 9.4743 20.8442 9.4083 21.5252 9.0033 21.0882 8.3393 21.8302 8.6213"></polygon>
                                <polygon id="Fill-5" fill="#FFFFFF" points="26.4844 3.0821 26.7324 3.8391 27.4744 3.5581 27.0374 4.2191 27.7184 4.6251 26.9234 4.6941 27.0374 5.4791 26.4844 4.9051 25.9414 5.4791 26.0504 4.6941 25.2594 4.6251 25.9414 4.2191 25.5044 3.5581 26.2464 3.8391"></polygon>
                                <polygon id="Fill-6" fill="#FFFFFF" points="30.4141 6.6885 30.6541 7.4445 31.4021 7.1635 30.9591 7.8255 31.6441 8.2285 30.8491 8.2985 30.9631 9.0865 30.4141 8.5095 29.8671 9.0865 29.9771 8.2985 29.1831 8.2285 29.8671 7.8255 29.4301 7.1635 30.1721 7.4445"></polygon>
                                <polygon id="Fill-7" fill="#FFFFFF" points="28.2539 10.2295 28.4469 10.7015 28.9529 10.7385 28.5659 11.0665 28.6859 11.5615 28.2539 11.2915 27.8239 11.5615 27.9429 11.0665 27.5549 10.7385 28.0629 10.7015"></polygon>
                                <polygon id="Fill-8" fill="#FFFFFF" points="7.3593 -0.0004 7.3593 2.9446 0.0003 2.9446 0.0003 5.8876 7.3593 5.8876 7.3593 8.8316 10.2983 8.8316 10.2983 5.8876 17.6623 5.8876 17.6623 2.9446 10.2983 2.9446 10.2983 -0.0004"></polygon>
                                <polygon id="Fill-9" fill="#FFFFFF" points="0 -0.0004 0 0.9866 15.685 8.8316 17.658 8.8316 17.658 7.8436 1.975 -0.0004"></polygon>
                                <polygon id="Fill-10" fill="#FFFFFF" points="15.6852 -0.0004 0.0002 7.8436 0.0002 8.8316 1.9742 8.8316 17.6582 0.9866 17.6582 -0.0004"></polygon>
                                <polygon id="Fill-11" fill="#EA0020" points="7.9452 -0.0004 7.9452 3.5326 0.0002 3.5326 0.0002 5.2986 7.9452 5.2986 7.9452 8.8316 9.7112 8.8316 9.7112 5.2986 17.6582 5.2986 17.6582 3.5326 9.7112 3.5326 9.7112 -0.0004"></polygon>
                                <path d="M16.3422,-0.0004 L10.4572,2.9446 L11.7742,2.9446 L17.6582,-0.0004 L16.3422,-0.0004 Z M0.0002,-0.0004 L0.0002,0.6596 L4.5662,2.9446 L5.8872,2.9446 L0.0002,-0.0004 Z" id="Fill-12" fill="#EA0020"></path>
                                <path d="M11.7738,5.8874 L17.6628,8.8314 L17.6628,8.1724 L13.0898,5.8874 L11.7738,5.8874 Z M5.8868,5.8874 L-0.0002,8.8314 L1.3168,8.8314 L7.2028,5.8874 L5.8868,5.8874 Z" id="Fill-13" fill="#EA0020"></path>
                            </g>
                        </g>
                    </g>
                </g>
            </g>
        </g>
    </g>
</svg>