<?xml version="1.0" encoding="UTF-8"?>
<svg width="98px" height="94px" viewBox="0 0 98 94" version="1.1" xmlns="http://www.w3.org/2000/svg" xmlns:xlink="http://www.w3.org/1999/xlink">
    <!-- Generator: Sketch 52.6 (67491) - http://www.bohemiancoding.com/sketch -->
    <title>auto-refill</title>
    <desc>Created with Sketch.</desc>
    <g id="New-Section-" stroke="none" stroke-width="1" fill="none" fill-rule="evenodd">
        <g id="Artboard" transform="translate(-1.000000, -3.000000)" fill="#103F8A" fill-rule="nonzero">
            <g id="auto-refill" transform="translate(1.000000, 3.000000)">
                <path d="M97.7403189,83.2923077 L74.1958998,46.4 L81.8132118,48.4307692 C82.8519362,48.7692308 83.5444191,48.0923077 83.8906606,47.4153846 C84.2369021,46.4 83.5444191,45.7230769 82.8519362,45.3846154 L70.7334852,42 C70.3872437,42 69.6947608,42 69.3485194,42.3384615 C69.0022779,42.6769231 68.6560364,42.6769231 68.6560364,43.3538462 L66.9248292,55.2 C66.9248292,56.2153846 67.6173121,56.8923077 68.309795,57.2307692 C68.309795,57.2307692 68.309795,57.2307692 68.6560364,57.2307692 C69.3485194,57.2307692 70.3872437,56.5538462 70.3872437,55.8769231 L71.4259681,48.4307692 L93.23918,82.6153846 L61.7312073,82.6153846 C60.6924829,82.6153846 60,83.2923077 60,84.3076923 C60,85.3230769 60.6924829,86 61.7312073,86 L96.3553531,86 C97.047836,86 97.3940774,85.6615385 97.7403189,84.9846154 C98.0865604,84.3076923 98.0865604,83.6307692 97.7403189,83.2923077 Z" id="XMLID_134_"></path>
                <path d="M46.7968992,75.1983157 C46.1023256,74.5386075 45.0604651,74.5386075 44.3658915,75.1983157 C43.6713178,75.8580239 43.6713178,76.8475863 44.3658915,77.5072945 L49.9224806,82.7849603 L4.7751938,82.7849603 L22.4868217,52.4383821 C22.8341085,51.7786739 22.4868217,50.7891116 21.7922481,50.1294034 C21.0976744,49.7995493 20.055814,50.1294034 19.3612403,50.7891116 L0.260465116,83.7745226 C-0.0868217054,84.4342308 -0.0868217054,84.7640849 0.260465116,85.4237931 C0.607751938,86.0835014 1.30232558,86.0835014 1.6496124,86.0835014 L49.5751938,86.0835014 L44.0186047,91.3611671 C43.324031,92.0208753 43.324031,93.0104377 44.0186047,93.6701459 C44.3658915,94 44.7131783,94 45.4077519,94 C46.1023256,94 46.4496124,94 46.7968992,93.6701459 L55.4790698,85.4237931 C56.1736434,84.7640849 56.1736434,83.7745226 55.4790698,83.1148144 L46.7968992,75.1983157 Z" id="XMLID_135_"></path>
                <path d="M24.2379549,42.9846154 C24.2379549,42.9846154 24.2379549,42.9846154 24.2379549,42.9846154 C24.2379549,42.9846154 24.2379549,42.9846154 24.2379549,42.9846154 C24.2379549,43.3230769 24.5833367,43.6615385 24.9287186,43.6615385 C24.9287186,43.6615385 24.9287186,43.6615385 24.9287186,43.6615385 C24.9287186,43.6615385 24.9287186,43.6615385 24.9287186,43.6615385 C25.2741004,43.6615385 25.6194823,44 25.9648641,44 C25.9648641,44 26.310246,44 26.310246,44 L38.3986108,40.6153846 C39.4347564,40.2769231 39.7801383,39.2615385 39.4347564,38.5846154 C39.0893746,37.5692308 38.053229,37.2307692 37.3624653,37.5692308 L29.4186827,39.9384615 L50.1415938,5.41538462 L67.7560683,36.5538462 C68.1014502,37.2307692 69.1375958,37.5692308 70.1737413,37.2307692 C70.864505,36.8923077 71.2098869,35.8769231 70.864505,34.8615385 L51.8685031,1.01538462 C51.5231213,0.338461538 50.8323576,0 50.4869757,0 C49.796212,0 49.4508301,0.338461538 49.1054483,0.676923077 L27.0010097,37.9076923 L24.5833367,29.7846154 C23.892573,29.4461538 22.8564275,28.7692308 22.1656638,29.1076923 C21.1295182,29.4461538 20.7841363,30.4615385 21.1295182,31.1384615 L24.2379549,42.9846154 Z" id="XMLID_136_"></path>
            </g>
        </g>
    </g>
</svg>