<?xml version="1.0" encoding="UTF-8"?>
<svg width="51px" height="49px" viewBox="0 0 51 49" version="1.1" xmlns="http://www.w3.org/2000/svg" xmlns:xlink="http://www.w3.org/1999/xlink">
    <!-- Generator: Sketch 50.2 (55047) - http://www.bohemiancoding.com/sketch -->
    <title>Recycle-2</title>
    <desc>Created with Sketch.</desc>
    <defs>
        <linearGradient x1="3.061617e-15%" y1="50%" x2="100%" y2="50%" id="linearGradient-1">
            <stop stop-color="#E6167F" offset="0%"></stop>
            <stop stop-color="#FF8000" offset="100%"></stop>
        </linearGradient>
    </defs>
    <g id="Xtras-New-Section" stroke="none" stroke-width="1" fill="none" fill-rule="evenodd">
        <g id="Raza---Features-2" transform="translate(-889.000000, -616.000000)" fill="url(#linearGradient-1)" fill-rule="nonzero">
            <g id="Recycle-2" transform="translate(889.000000, 616.000000)">
                <path d="M50.8633257,43.5846154 L38.4715262,24.3 L42.4806378,25.3615385 C43.0273349,25.5384615 43.3917995,25.1846154 43.5740319,24.8307692 C43.7562642,24.3 43.3917995,23.9461538 43.0273349,23.7692308 L36.6492027,22 C36.4669704,22 36.1025057,22 35.9202733,22.1769231 C35.738041,22.3538462 35.5558087,22.3538462 35.5558087,22.7076923 L34.6446469,28.9 C34.6446469,29.4307692 35.0091116,29.7846154 35.3735763,29.9615385 C35.3735763,29.9615385 35.3735763,29.9615385 35.5558087,29.9615385 C35.9202733,29.9615385 36.4669704,29.6076923 36.4669704,29.2538462 L37.0136674,25.3615385 L48.4943052,43.2307692 L31.9111617,43.2307692 C31.3644647,43.2307692 31,43.5846154 31,44.1153846 C31,44.6461538 31.3644647,45 31.9111617,45 L50.1343964,45 C50.498861,45 50.6810934,44.8230769 50.8633257,44.4692308 C51.0455581,44.1153846 51.0455581,43.7615385 50.8633257,43.5846154 Z" id="XMLID_134_"></path>
                <path d="M24.2341085,39.1718469 C23.8744186,38.8269994 23.3348837,38.8269994 22.9751938,39.1718469 C22.6155039,39.5166943 22.6155039,40.0339656 22.9751938,40.378813 L25.8527132,43.1375929 L2.47286822,43.1375929 L11.6449612,27.2746088 C11.8248062,26.9297614 11.6449612,26.4124901 11.2852713,26.0676427 C10.9255814,25.8952189 10.3860465,26.0676427 10.0263566,26.4124901 L0.134883721,43.6548641 C-0.0449612403,43.9997116 -0.0449612403,44.1721353 0.134883721,44.5169828 C0.314728682,44.8618303 0.674418605,44.8618303 0.854263566,44.8618303 L25.6728682,44.8618303 L22.7953488,47.6206101 C22.4356589,47.9654576 22.4356589,48.4827288 22.7953488,48.8275763 C22.9751938,49 23.1550388,49 23.5147287,49 C23.8744186,49 24.0542636,49 24.2341085,48.8275763 L28.7302326,44.5169828 C29.0899225,44.1721353 29.0899225,43.6548641 28.7302326,43.3100166 L24.2341085,39.1718469 Z" id="XMLID_135_"></path>
                <path d="M12.6837365,22.4692308 C12.6837365,22.4692308 12.6837365,22.4692308 12.6837365,22.4692308 C12.6837365,22.4692308 12.6837365,22.4692308 12.6837365,22.4692308 C12.6837365,22.6461538 12.8633351,22.8230769 13.0429337,22.8230769 C13.0429337,22.8230769 13.0429337,22.8230769 13.0429337,22.8230769 C13.0429337,22.8230769 13.0429337,22.8230769 13.0429337,22.8230769 C13.2225322,22.8230769 13.4021308,23 13.5817294,23 C13.5817294,23 13.7613279,23 13.7613279,23 L20.0472776,21.2307692 C20.5860733,21.0538462 20.7656719,20.5230769 20.5860733,20.1692308 C20.4064748,19.6384615 19.8676791,19.4615385 19.5084819,19.6384615 L15.377715,20.8769231 L26.1536288,2.83076923 L35.3131555,19.1076923 C35.4927541,19.4615385 36.0315498,19.6384615 36.5703455,19.4615385 C36.9295426,19.2846154 37.1091412,18.7538462 36.9295426,18.2230769 L27.0516216,0.530769231 C26.8720231,0.176923077 26.5128259,0 26.3332274,0 C25.9740302,0 25.7944317,0.176923077 25.6148331,0.353846154 L14.120525,19.8153846 L12.8633351,15.5692308 C12.504138,15.3923077 11.9653423,15.0384615 11.6061452,15.2153846 C11.0673495,15.3923077 10.8877509,15.9230769 11.0673495,16.2769231 L12.6837365,22.4692308 Z" id="XMLID_136_"></path>
            </g>
        </g>
    </g>
</svg>