<?xml version="1.0" encoding="UTF-8"?>
<svg width="40px" height="39px" viewBox="0 0 40 39" version="1.1" xmlns="http://www.w3.org/2000/svg" xmlns:xlink="http://www.w3.org/1999/xlink">
    <!-- Generator: Sketch 50.2 (55047) - http://www.bohemiancoding.com/sketch -->
    <title>Recycle-2</title>
    <desc>Created with Sketch.</desc>
    <defs></defs>
    <g id="Page-1" stroke="none" stroke-width="1" fill="none" fill-rule="evenodd">
        <g id="Features-2" transform="translate(-880.000000, -629.000000)" fill="#FFFFFF" fill-rule="nonzero">
            <g id="Recycle-2" transform="translate(880.000000, 629.000000)">
                <path d="M39.8974943,33.8923077 L30.6036446,18.8 L33.6104784,19.6307692 C34.0205011,19.7692308 34.2938497,19.4923077 34.4305239,19.2153846 C34.5671982,18.8 34.2938497,18.5230769 34.0205011,18.3846154 L29.2369021,17 C29.1002278,17 28.8268793,17 28.690205,17.1384615 C28.5535308,17.2769231 28.4168565,17.2769231 28.4168565,17.5538462 L27.7334852,22.4 C27.7334852,22.8153846 28.0068337,23.0923077 28.2801822,23.2307692 C28.2801822,23.2307692 28.2801822,23.2307692 28.4168565,23.2307692 C28.690205,23.2307692 29.1002278,22.9538462 29.1002278,22.6769231 L29.5102506,19.6307692 L38.1207289,33.6153846 L25.6833713,33.6153846 C25.2733485,33.6153846 25,33.8923077 25,34.3076923 C25,34.7230769 25.2733485,35 25.6833713,35 L39.3507973,35 C39.6241458,35 39.76082,34.8615385 39.8974943,34.5846154 C40.0341686,34.3076923 40.0341686,34.0307692 39.8974943,33.8923077 Z" id="XMLID_134_"></path>
                <path d="M19.220155,31.3084019 C18.9348837,31.0385213 18.5069767,31.0385213 18.2217054,31.3084019 C17.9364341,31.5782825 17.9364341,31.9831035 18.2217054,32.2529841 L20.503876,34.4120292 L1.96124031,34.4120292 L9.23565891,21.99752 C9.37829457,21.7276393 9.23565891,21.3228184 8.9503876,21.0529377 C8.66511628,20.9179974 8.2372093,21.0529377 7.95193798,21.3228184 L0.106976744,34.8168502 C-0.0356589147,35.0867308 -0.0356589147,35.2216711 0.106976744,35.4915517 C0.249612403,35.7614324 0.534883721,35.7614324 0.67751938,35.7614324 L20.3612403,35.7614324 L18.0790698,37.9204775 C17.7937984,38.1903581 17.7937984,38.595179 18.0790698,38.8650597 C18.2217054,39 18.3643411,39 18.6496124,39 C18.9348837,39 19.0775194,39 19.220155,38.8650597 L22.7860465,35.4915517 C23.0713178,35.2216711 23.0713178,34.8168502 22.7860465,34.5469695 L19.220155,31.3084019 Z" id="XMLID_135_"></path>
                <path d="M9.35994105,17.5846154 C9.35994105,17.5846154 9.35994105,17.5846154 9.35994105,17.5846154 C9.35994105,17.5846154 9.35994105,17.5846154 9.35994105,17.5846154 C9.35994105,17.7230769 9.50500142,17.8615385 9.6500618,17.8615385 C9.6500618,17.8615385 9.6500618,17.8615385 9.6500618,17.8615385 C9.6500618,17.8615385 9.6500618,17.8615385 9.6500618,17.8615385 C9.79512218,17.8615385 9.94018256,18 10.0852429,18 C10.0852429,18 10.2303033,18 10.2303033,18 L15.3074166,16.6153846 C15.7425977,16.4769231 15.8876581,16.0615385 15.7425977,15.7846154 C15.5975373,15.3692308 15.1623562,15.2307692 14.8722354,15.3692308 L11.5358467,16.3384615 L20.2394694,2.21538462 L27.6375487,14.9538462 C27.7826091,15.2307692 28.2177902,15.3692308 28.6529714,15.2307692 C28.9430921,15.0923077 29.0881525,14.6769231 28.9430921,14.2615385 L20.9647713,0.415384615 C20.8197109,0.138461538 20.5295902,0 20.3845298,0 C20.094409,0 19.9493487,0.138461538 19.8042883,0.276923077 L10.5204241,15.5076923 L9.50500142,12.1846154 C9.21488067,12.0461538 8.77969953,11.7692308 8.48957878,11.9076923 C8.05439764,12.0461538 7.90933726,12.4615385 8.05439764,12.7384615 L9.35994105,17.5846154 Z" id="XMLID_136_"></path>
            </g>
        </g>
    </g>
</svg>