<?xml version="1.0" encoding="UTF-8"?>
<svg width="22px" height="24px" viewBox="0 0 22 24" version="1.1" xmlns="http://www.w3.org/2000/svg" xmlns:xlink="http://www.w3.org/1999/xlink">
    <!-- Generator: Sketch 50.2 (55047) - http://www.bohemiancoding.com/sketch -->
    <title>Page 1</title>
    <desc>Created with Sketch.</desc>
    <defs></defs>
    <g id="Page-1" stroke="none" stroke-width="1" fill="none" fill-rule="evenodd">
        <path d="M16.2659139,11.8022461 C18.4734647,11.8022461 18.3556154,13.4062865 18.3556154,13.4062865 L18.3556154,20.0241843 L16.2659139,20.0241843 L16.2659139,11.8022461 Z M3.30928852,4.21506362 C3.30928852,3.74977982 3.6835533,3.37211882 4.14510124,3.37211882 L13.3400599,3.37211882 C13.8019475,3.37211882 14.1762123,3.74977982 14.1762123,4.21506362 L14.1762123,10.5378289 C14.1762123,11.0034523 13.8019475,11.3807737 13.3400599,11.3807737 L4.14510124,11.3807737 C3.6835533,11.3807737 3.30928852,11.0034523 3.30928852,10.5378289 L3.30928852,4.21506362 Z M20.0275805,20.0241843 L20.0275805,13.5431546 C20.0275805,10.033828 16.2659139,9.9136014 16.2659139,9.9136014 L16.2659139,1.6858896 C16.2659139,0.754982388 15.5177239,0 14.5939488,0 L2.89121236,0 C1.96777686,0 1.21890769,0.754982388 1.21890769,1.6858896 L1.21890769,20.0245239 L0,20.0245239 L0,23.9872475 L21.3320732,23.9872475 L21.3320732,20.0241843 L20.0275805,20.0241843 Z" fill="#0B203E"></path>
    </g>
</svg>