<?xml version="1.0" encoding="UTF-8"?>
<svg width="27px" height="27px" viewBox="0 0 27 27" version="1.1" xmlns="http://www.w3.org/2000/svg" xmlns:xlink="http://www.w3.org/1999/xlink">
    <!-- Generator: Sketch 50.2 (55047) - http://www.bohemiancoding.com/sketch -->
    <title>prohibition-sign</title>
    <desc>Created with Sketch.</desc>
    <defs></defs>
    <g id="Page-1" stroke="none" stroke-width="1" fill="none" fill-rule="evenodd">
        <g id="prohibition-sign" fill="#0B203E" fill-rule="nonzero">
            <path d="M13.49919,0 C6.0556275,0 0,6.0561 0,13.5 C0,17.200215 1.497015,20.556585 3.91635,22.9975875 C3.9297825,23.013045 3.9405825,23.0302575 3.95523,23.044905 C3.9700125,23.05989 3.9872925,23.0702175 4.0028175,23.083785 C6.4433475,25.50285 9.799515,27 13.49919,27 C20.9436975,27 26.99973,20.9439 26.99973,13.5 C26.99973,6.0561 20.9436975,0 13.49919,0 Z M13.49919,1.7705925 C16.4152575,1.7705925 19.08414,2.8426275 21.1383,4.6099125 L4.6096425,21.1386375 C2.8426275,19.08441 1.770525,16.4157975 1.770525,13.5 C1.770525,7.03242 7.03215,1.7705925 13.49919,1.7705925 Z M13.49919,25.229475 C10.5836625,25.229475 7.9152525,24.1576425 5.861565,22.3904925 L22.3900875,5.861565 C24.1572375,7.915725 25.229205,10.5840675 25.229205,13.5 C25.229205,19.96758 19.967175,25.229475 13.49919,25.229475 Z" id="Shape"></path>
        </g>
    </g>
</svg>