<?xml version="1.0" encoding="UTF-8"?>
<svg width="27px" height="27px" viewBox="0 0 27 27" version="1.1" xmlns="http://www.w3.org/2000/svg" xmlns:xlink="http://www.w3.org/1999/xlink">
    <!-- Generator: Sketch 50.2 (55047) - http://www.bohemiancoding.com/sketch -->
    <title>prohibition-sign</title>
    <desc>Created with Sketch.</desc>
    <defs></defs>
    <g id="Page-1" stroke="none" stroke-width="1" fill="none" fill-rule="evenodd">
        <g id="prohibition-sign" fill="#FFFFFF" fill-rule="nonzero">
            <path d="M13.49919,0 C6.0556275,0 1.36424205e-12,6.0561 1.36424205e-12,13.5 C1.36424205e-12,17.200215 1.497015,20.556585 3.91635,22.9975875 C3.9297825,23.013045 3.9405825,23.0302575 3.95523,23.044905 C3.9700125,23.05989 3.9872925,23.0702175 4.0028175,23.083785 C6.4433475,25.50285 9.799515,27 13.49919,27 C20.9436975,27 26.99973,20.9439 26.99973,13.5 C26.99973,6.0561 20.9436975,0 13.49919,0 Z M13.728665,2 C16.6447325,2 19.313615,3.072035 21.367775,4.83932 L4.8391175,21.368045 C3.0721025,19.3138175 2,16.645205 2,13.7294075 C2,7.2618275 7.261625,2 13.728665,2 Z M13.637625,25.36791 C10.7220975,25.36791 8.0536875,24.2960775 6,22.5289275 L22.5285225,6 C24.2956725,8.05416 25.36764,10.7225025 25.36764,13.638435 C25.36764,20.106015 20.10561,25.36791 13.637625,25.36791 Z" id="Shape"></path>
        </g>
    </g>
</svg>