<?xml version="1.0" encoding="UTF-8"?>
<svg width="25px" height="18px" viewBox="0 0 25 18" version="1.1" xmlns="http://www.w3.org/2000/svg" xmlns:xlink="http://www.w3.org/1999/xlink">
    <!-- Generator: Sketch 50.2 (55047) - http://www.bohemiancoding.com/sketch -->
    <title>Page 1</title>
    <desc>Created with Sketch.</desc>
    <defs>
        <polygon id="path-1" points="0.233208359 0.0557575758 8.82062982 0.0557575758 8.82062982 7.95119541 0.233208359 7.95119541"></polygon>
        <polygon id="path-3" points="0 0.0625714286 24.982398 0.0625714286 24.982398 9.99998993 0 9.99998993"></polygon>
    </defs>
    <g id="Page-1" stroke="none" stroke-width="1" fill="none" fill-rule="evenodd">
        <g>
            <g id="Group-3" transform="translate(13.000000, 0.000000)">
                <mask id="mask-2" fill="white">
                    <use xlink:href="#path-1"></use>
                </mask>
                <g id="Clip-2"></g>
                <path d="M2.64478378,6.24164848 L4.2587027,7.83801212 C4.41291892,7.98952727 4.66054054,7.9888 4.81354054,7.83655758 L6.42137838,6.23413333 L8.02897297,4.63170909 C9.06202703,3.60189091 9.09778378,1.94298182 8.05524324,0.91049697 L8.03359459,0.887466667 C8.02945946,0.88310303 8.02532432,0.879224242 8.02118919,0.87510303 C7.54005405,0.399709091 6.92683784,0.154618182 6.30291892,0.129163636 C5.67875676,0.103709091 5.04413514,0.246739394 4.52140541,0.649890909 C3.47302703,-0.151078788 1.98024324,-0.178715152 1.02162162,0.790981818 L0.972972973,0.790981818 L0.972972973,0.893769697 C-3.60822483e-16,1.92916364 -0.0377027027,3.61352727 1.00581081,4.64552727 L2.64478378,6.24164848 Z" id="Fill-1" fill="#FFFFFF" mask="url(#mask-2)"></path>
            </g>
            <g id="Group-6" transform="translate(0.000000, 8.000000)">
                <mask id="mask-4" fill="white">
                    <use xlink:href="#path-3"></use>
                </mask>
                <g id="Clip-5"></g>
                <path d="M23.8186224,4.669 L23.6252551,4.77114286 L15.6119898,8.83495238 C15.6015306,8.84042857 15.5910714,8.84661905 15.5811224,8.85304762 C15.0377551,9.1937619 14.1931122,9.30733333 13.532398,9.15257143 L4.9630102,6.51780952 C4.94642857,6.51280952 4.84693878,6.5087619 4.84693878,6.50590476 L4.84693878,1.59780952 L9.39617347,1.59638095 C10.3510204,1.59638095 11.2385204,1.94709524 11.8568878,2.51280952 C12.0114796,2.6542381 12.1683673,2.80852381 12.2910714,2.97447619 C12.3522959,3.05757143 12.4178571,3.14328571 12.4701531,3.23185714 C12.534949,3.34114286 12.5826531,3.36590476 12.617602,3.44185714 L12.7278061,3.634 L13.0905612,3.634 L16.9125,3.634 C17.4068878,3.634 17.7862245,4.02638095 17.7862245,4.47257143 C17.7862245,4.79804762 17.580102,5.09161905 17.2785714,5.21685714 L17.240051,5.24352381 C17.1390306,5.27995238 17.0553571,5.30757143 16.9372449,5.30757143 C16.9372449,5.30757143 12.7548469,5.314 11.2242347,5.314 C10.9691327,5.314 10.9691327,6.01471429 11.2242347,6.01471429 L16.9109694,6.01471429 C17.0772959,6.01471429 17.2354592,6.01971429 17.3880102,5.97828571 C17.4428571,5.97328571 17.4959184,5.97566667 17.5443878,5.95161905 L17.5556122,5.95566667 C17.5711735,5.94971429 17.5854592,5.94661905 17.6007653,5.94042857 L23.3028061,3.47519048 C23.3066327,3.47138095 23.4464286,3.4342381 23.6201531,3.45828571 C23.797449,3.48257143 23.9658163,3.52828571 24.1183673,3.86519048 C24.2545918,4.16495238 24.1329082,4.50209524 23.8186224,4.669 M24.8859694,3.56590476 C24.6329082,3.00709524 24.1331633,2.75090476 23.7438776,2.69780952 C23.3548469,2.64447619 23.034949,2.74733333 23.034949,2.74733333 C23.0201531,2.75161905 23.005102,2.75661905 22.9908163,2.76233333 L18.5943878,4.66709524 C18.5997449,4.61614286 18.6119898,4.554 18.6119898,4.50209524 C18.6119898,3.63661905 17.8436224,2.91971429 16.9127551,2.91971429 L13.2487245,2.91971429 C13.2329082,2.91971429 13.215051,2.86995238 13.2005102,2.84542857 C13.134949,2.73495238 13.0640306,2.63495238 12.9877551,2.53138095 C12.8346939,2.32447619 12.6607143,2.13590476 12.4686224,1.96019048 C11.6994898,1.25709524 10.5696429,0.825904762 9.39770408,0.825904762 L4.84693878,0.829238095 L4.84693878,0.371857143 C4.84693878,0.159 4.79413265,0.0625714286 4.56607143,0.0625714286 L2.50280612,0.0625714286 L0.439540816,0.0625714286 C0.211479592,0.0625714286 0,0.159 0,0.371619048 L0,8.07495238 C0,8.28804762 0.211479592,8.39590476 0.439540816,8.39590476 L2.50280612,8.39590476 L4.56607143,8.39590476 C4.79413265,8.39590476 4.84693878,8.28804762 4.84693878,8.07495238 L4.84693878,7.31661905 L13.2326531,9.894 C13.2415816,9.89685714 13.2836735,9.899 13.2931122,9.90138095 C14.1785714,10.1111429 15.2140306,9.98828571 15.9933673,9.51328571 L24.0168367,5.44780952 C24.0186224,5.44638095 24.0290816,5.44471429 24.0306122,5.44328571 L24.2346939,5.33947619 L24.2346939,5.33780952 C24.744898,4.98661905 25.1831633,4.22233333 24.8859694,3.56590476" id="Fill-4" fill="#FFFFFF" mask="url(#mask-4)"></path>
            </g>
        </g>
    </g>
</svg>