<?xml version="1.0" encoding="UTF-8"?>
<svg width="29px" height="30px" viewBox="0 0 29 30" version="1.1" xmlns="http://www.w3.org/2000/svg" xmlns:xlink="http://www.w3.org/1999/xlink">
    <!-- Generator: Sketch 50.2 (55047) - http://www.bohemiancoding.com/sketch -->
    <title>Page 1</title>
    <desc>Created with Sketch.</desc>
    <defs></defs>
    <g id="Page-1" stroke="none" stroke-width="1" fill="none" fill-rule="evenodd">
        <g fill="#FFFFFF">
            <path d="M6.29479609,8 L2,16.0106572 L14.4998083,30 L27,15.9715808 L22.7052039,8 L6.29479609,8 Z M15.7655097,9.56344583 L21.1718685,9.56344583 L19.0630052,14.9165187 L15.7655097,9.56344583 Z M7.86647444,9.56344583 L13.1965307,9.56344583 L9.93699483,14.8774423 L7.86647444,9.56344583 Z M14.4614653,10.383659 L17.3375715,15.0337478 L11.6244689,15.0337478 L14.4614653,10.383659 Z M6.63988282,10.618508 L8.36531648,15.0337478 L4.26261867,15.0337478 L6.63988282,10.618508 Z M22.3984601,10.6571936 L24.7757243,15.0337478 L20.6730265,15.0337478 L22.3984601,10.6571936 Z M10.6271683,16.7531083 L10.6655113,16.5971936 L18.2957623,16.5971936 L18.3344887,16.7531083 L18.3728317,16.7921847 L14.4998083,26.7570515 L10.6271683,16.7531083 Z M4.68439134,16.5971936 L8.97842058,16.5971936 L12.2762994,25.0373002 L4.68439134,16.5971936 Z M20.0599224,16.6358792 L24.3159921,16.6358792 L16.762427,25.0763766 L20.0599224,16.6358792 Z" id="Fill-1"></path>
            <polygon id="Fill-2" points="14 6 15 6 15 0 14 0"></polygon>
            <polygon id="Fill-3" points="23 5.85950348 24.2836282 7 29 3.14089184 27.7163718 2"></polygon>
            <polygon id="Fill-4" points="0 3.14071146 4.71637178 7 6 5.85928854 1.28409179 2"></polygon>
        </g>
    </g>
</svg>