<?xml version="1.0" encoding="UTF-8"?>
<svg width="93px" height="83px" viewBox="0 0 93 83" version="1.1" xmlns="http://www.w3.org/2000/svg" xmlns:xlink="http://www.w3.org/1999/xlink">
    <!-- Generator: Sketch 50.2 (55047) - http://www.bohemiancoding.com/sketch -->
    <title>Group 9</title>
    <desc>Created with Sketch.</desc>
    <defs></defs>
    <g id="Page-1" stroke="none" stroke-width="1" fill="none" fill-rule="evenodd">
        <g id="Features-2" transform="translate(-296.000000, -893.000000)" fill="#103F8A" fill-rule="nonzero">
            <g id="Group-9" transform="translate(296.000000, 893.000000)">
                <g id="Giving-Gift">
                    <path d="M21.5305661,42.1870119 C18.2895352,39.1334562 4.35551183,38.1625513 1.59641858,38.0007339 C1.17472311,37.9887474 0.777124518,38.1235953 0.472901354,38.4052776 C0.1716903,38.6899564 0,39.0855103 0,39.4960472 L0,73.50169 C0,74.3287571 0.67471276,75 1.50605527,75 L12.9008694,75 C13.5514853,75 14.1298105,74.5834698 14.3316219,73.9661661 C14.6087361,73.1241159 21.1389917,53.1816104 21.9944311,43.4036396 C22.0335886,42.95115 21.8649104,42.501657 21.5305661,42.1870119 Z" id="Shape"></path>
                    <path d="M79.391759,63.0274748 L58.9997084,67.7831155 C57.0904925,68.2289568 55.0625365,68.2755807 53.1314474,67.9142453 L36.035997,64.7234202 C35.1891926,64.5660644 34.6423631,63.7996836 34.8110991,63.0099908 C34.979835,62.2202981 35.7985168,61.7045209 36.648446,61.8647906 L53.7407716,65.0556157 C55.2218982,65.3324453 56.7748938,65.2945633 58.2403966,64.9536258 L65.3960503,63.2839064 C64.9710857,58.6156856 62.1713191,55.8736159 56.3811766,54.5215219 L24.8869261,48 C23.5651612,56.1737574 19.7217315,68.097827 18,73.2177171 L43.6697359,81.1933228 C46.9163403,82.338523 49.1630281,83 51.6909424,83 C55.6406133,83 60.2746021,81.3856465 70.4800017,77.4808925 L92.1500708,68.2988927 C92.5344138,68.1357089 92.8343888,67.8326534 92.9781268,67.459662 C92.9937505,67.413038 92.987501,67.3664141 93,67.3197902 C90.8126823,63.9337274 83.6632781,62.0163184 79.391759,63.0274748 Z" id="Shape"></path>
                    <path d="M91.5,12.8888889 L75.849,12.8888889 C76.269,12.702 76.749,12.5505556 77.133,12.3443333 C80.475,10.5495556 82.395,7.98788889 82.395,5.31666667 C82.395,2.23622222 79.86,0 76.368,0 C71.091,0 66.063,5.00088889 63,8.78055556 L63,29 L91.5,29 C92.328,29 93,28.2782222 93,27.3888889 L93,14.5 C93,13.6106667 92.328,12.8888889 91.5,12.8888889 Z M64.29,12.1091111 C67.131,8.36811111 72.006,3.22222222 76.368,3.22222222 C78.15,3.22222222 79.395,4.08255556 79.395,5.31344444 C79.395,6.38322222 78.45,8.033 75.792,9.46044444 C73.794,10.5334444 70.245,11.7836667 64.29,12.1091111 Z" id="Shape"></path>
                    <path d="M30.5,29 L59,29 L59,9.41855556 C56.009,5.597 50.687,0 45.11,0 C41.618,0 39.086,2.23622222 39.086,5.31344444 C39.086,7.98466667 41.003,10.5463333 44.348,12.3411111 C44.729,12.5505556 45.209,12.702 45.632,12.8888889 L30.5,12.8888889 C29.672,12.8888889 29,13.6106667 29,14.5 L29,27.3888889 C29,28.2782222 29.672,29 30.5,29 Z M42.083,5.31344444 C42.083,4.08255556 43.328,3.22222222 45.11,3.22222222 C49.475,3.22222222 54.35,8.36811111 57.191,12.1091111 C51.236,11.7836667 47.687,10.5334444 45.689,9.46044444 C43.031,8.03622222 42.083,6.38322222 42.083,5.31344444 Z" id="Shape"></path>
                    <path d="M57.318,50.516997 C57.9141111,50.6567337 58.4522222,50.8329235 59,51 L59,30 L30,30 L30,44.7969044 L57.318,50.516997 Z" id="Shape"></path>
                    <path d="M69.8536667,62 L80.342,59.5203965 C83.6802222,58.7182615 88.2203333,59.2459016 92,60.8532215 L92,30 L63,30 L63,52.3347312 C67.0696667,54.3873427 69.322,57.574533 69.8536667,62 Z" id="Shape"></path>
                </g>
            </g>
        </g>
    </g>
</svg>