<?xml version="1.0" encoding="UTF-8"?>
<svg width="27px" height="26px" viewBox="0 0 27 26" version="1.1" xmlns="http://www.w3.org/2000/svg" xmlns:xlink="http://www.w3.org/1999/xlink">
    <!-- Generator: Sketch 50.2 (55047) - http://www.bohemiancoding.com/sketch -->
    <title>noun_140420_cc</title>
    <desc>Created with Sketch.</desc>
    <defs></defs>
    <g id="Page-1" stroke="none" stroke-width="1" fill="none" fill-rule="evenodd">
        <g id="noun_140420_cc" fill="#FFFFFF" fill-rule="nonzero">
            <g id="Group">
                <path d="M17.6944305,17.2095238 C17.0800406,16.4666667 15.9741387,16.2190476 15.2368707,16.7142857 L13.1479449,18.0761905 L12.9021889,18.0761905 L12.7793109,18.2 C12.533555,18.2 11.550531,17.952381 8.97009326,14.3619048 C6.75828944,11.0190476 6.75828944,9.65714286 6.88116743,9.16190476 C6.88116743,9.03809524 7.00404542,8.91428571 7.00404542,8.91428571 L9.21584924,7.42857143 C10.1988732,7.05714286 10.4446291,5.94285714 9.95311718,5.07619048 L6.88116743,0.619047619 L6.75828944,0.495238095 C6.75828944,0.495238095 6.14389949,0 5.28375357,0 C4.42360764,0 3.56346171,0.371428571 2.4575598,1.23809524 L2.4575598,1.36190476 C0.49151196,4.33333333 0.12287799,7.8 0,8.04761905 L0,8.17142857 C0.737267939,11.8857143 2.58043779,14.8571429 3.93209568,16.9619048 L5.03799759,18.5714286 C6.51253346,20.6761905 8.4785813,23.2761905 11.550531,25.2571429 L11.550531,25.3809524 C11.673409,25.3809524 13.5165789,26 15.9741387,26 C16.8342846,26 17.6944305,25.8761905 18.4316985,25.752381 L18.6774545,25.6285714 C21.5036482,23.8952381 21.0121363,22.0380952 20.8892583,21.9142857 L17.6944305,17.2095238 Z M18.1859425,24.6380952 C17.5715526,24.7619048 16.8342846,24.8857143 16.0970167,24.8857143 C14.1309688,24.8857143 12.410677,24.3904762 12.042043,24.2666667 C8.97009326,22.1619048 7.12692341,19.5619048 5.52950954,17.4571429 L5.16087558,16.9619048 C3.93209568,14.8571429 1.96604784,11.7619048 1.2287799,7.92380952 C1.2287799,7.3047619 1.72029186,4.45714286 3.31770573,2.1047619 C5.16087558,0.742857143 5.89814351,1.23809524 6.14389949,1.36190476 L9.09297125,5.81904762 C9.33872723,6.19047619 9.21584924,6.43809524 8.84721527,6.68571429 L6.75828944,8.04761905 C6.63541145,8.17142857 6.26677748,8.41904762 6.0210215,8.79047619 C5.52950954,10.0285714 6.26677748,12.0095238 8.23282532,15.1047619 C10.1988732,18.0761905 11.673409,19.4380952 12.9021889,19.4380952 C13.3937009,19.4380952 13.6394569,19.1904762 13.7623349,18.9428571 L15.7283827,17.5809524 C16.0970167,17.3333333 16.3427727,17.4571429 16.5885286,17.8285714 L19.6604784,22.2857143 C19.9062344,22.5333333 19.9062344,23.5238095 18.1859425,24.6380952 Z" id="Shape"></path>
                <path d="M26.4086957,0 L10.5617391,0 C10.3252174,0 10.0886957,0.125 10.0886957,0.375 C9.97043478,0.625 9.97043478,0.875 10.0886957,1 L11.8626087,4.125 L11.8626087,11.375 C11.8626087,11.75 12.0991304,12 12.453913,12 L26.4086957,12 C26.7634783,12 27,11.75 27,11.375 L27,0.625 C26.8817391,0.375 26.7634783,0 26.4086957,0 Z M25.8173913,10.875 L12.9269565,10.875 L12.9269565,3.75 C12.9269565,3.625 12.9269565,3.5 12.8086957,3.375 L11.3895652,1.125 L25.8173913,1.125 L25.8173913,10.875 Z" id="Shape"></path>
                <path d="M16.6481481,5 L22.3518519,5 C22.7407407,5 23,4.8 23,4.5 C23,4.2 22.7407407,4 22.3518519,4 L16.6481481,4 C16.2592593,4 16,4.2 16,4.5 C16,4.8 16.3888889,5 16.6481481,5 Z" id="Shape"></path>
                <path d="M16.6481481,8 L22.3518519,8 C22.7407407,8 23,7.8 23,7.5 C23,7.2 22.7407407,7 22.3518519,7 L16.6481481,7 C16.2592593,7 16,7.2 16,7.5 C16,7.8 16.3888889,8 16.6481481,8 Z" id="Shape"></path>
            </g>
        </g>
    </g>
</svg>