<?xml version="1.0" encoding="UTF-8"?>
<svg width="76px" height="75px" viewBox="0 0 76 75" version="1.1" xmlns="http://www.w3.org/2000/svg" xmlns:xlink="http://www.w3.org/1999/xlink">
    <!-- Generator: Sketch 50.2 (55047) - http://www.bohemiancoding.com/sketch -->
    <title>Group</title>
    <desc>Created with Sketch.</desc>
    <defs></defs>
    <g id="Page-1" stroke="none" stroke-width="1" fill="none" fill-rule="evenodd">
        <g id="Raza---Homepage-" transform="translate(-682.000000, -830.000000)" fill="#FFFFFF" fill-rule="nonzero">
            <g id="Group-8" transform="translate(134.000000, 822.000000)">
                <g id="Group-28">
                    <g id="Group-12" transform="translate(448.666667, 8.000000)">
                        <g id="Group" transform="translate(100.000000, 0.000000)">
                            <path d="M37.414723,38.9672012 C37.2594752,38.8119534 36.7937318,38.6567055 36.4832362,38.6567055 L34.4650146,38.8119534 C34.3097668,38.8119534 33.9992711,38.8119534 33.8440233,38.6567055 L32.446793,37.8804665 C32.1362974,37.7252187 31.9810496,37.414723 31.8258017,37.2594752 L31.5153061,36.1727405 C31.3600583,35.7069971 30.8943149,35.3965015 30.4285714,35.3965015 L29.6523324,35.3965015 C29.3418367,35.3965015 29.0313411,35.2412536 28.7208455,34.930758 L27.6341108,33.5335277 C27.478863,33.2230321 27.0131195,33.0677843 26.7026239,33.0677843 L25.9263848,33.0677843 C25.771137,33.0677843 25.6158892,33.0677843 25.4606414,32.9125364 L24.0634111,32.2915452 C23.5976676,31.9810496 22.8214286,32.1362974 22.5109329,32.7572886 L20.4927114,36.1727405 C20.3374636,36.3279883 20.3374636,36.4832362 20.1822157,36.4832362 L19.4059767,36.9489796 C19.095481,37.1042274 18.9402332,37.5699708 18.9402332,37.8804665 L18.9402332,40.0539359 C18.9402332,40.3644315 19.095481,40.8301749 19.4059767,40.9854227 L20.9584548,42.0721574 C21.2689504,42.2274052 21.4241983,42.6931487 21.4241983,43.0036443 L21.4241983,43.6246356 C21.4241983,44.090379 21.5794461,44.4008746 22.0451895,44.5561224 L23.9081633,45.6428571 C24.2186589,45.798105 24.3739067,46.1086006 24.5291545,46.4190962 L25.3053936,51.2317784 L25.3053936,51.8527697 L24.6844023,53.5604956 C24.5291545,54.1814869 24.6844023,54.6472303 25.3053936,54.9577259 L25.3053936,54.9577259 C25.771137,55.2682216 26.0816327,55.733965 25.9263848,56.1997085 L25.6158892,57.9074344 C25.6158892,58.21793 25.6158892,58.6836735 25.9263848,58.9941691 L28.5655977,61.7886297 C28.7208455,62.0991254 29.0313411,62.0991254 29.3418367,62.0991254 L29.4970845,62.0991254 C30.1180758,62.0991254 30.7390671,61.6333819 30.7390671,60.8571429 L30.7390671,58.8389213 C30.7390671,58.5284257 30.7390671,58.3731778 30.5838192,58.21793 L29.4970845,56.8206997 C29.0313411,56.1997085 29.3418367,55.4234694 29.962828,55.1129738 L31.0495627,54.4919825 C31.2048105,54.3367347 31.3600583,54.3367347 31.5153061,54.1814869 L33.8440233,50.9212828 C33.9992711,50.766035 33.9992711,50.4555394 33.9992711,50.1450437 L33.8440233,47.8163265 L34.930758,48.1268222 C35.3965015,48.28207 35.8622449,48.1268222 36.1727405,47.6610787 L36.9489796,46.7295918 C37.1042274,46.574344 37.2594752,46.2638484 37.2594752,45.9533528 L37.2594752,43.1588921 C37.2594752,43.0036443 37.2594752,42.8483965 37.414723,42.6931487 L38.3462099,40.8301749 C38.5014577,40.3644315 38.5014577,39.898688 38.1909621,39.4329446 L37.414723,38.9672012 Z" id="Shape"></path>
                            <path d="M71.1034985,20.6479592 L63.3411079,20.6479592 C58.3731778,8.53862974 46.7295918,0 32.9125364,0 C14.7485423,0 0,14.7485423 0,32.9125364 C0,51.0765306 14.7485423,65.8250729 32.9125364,65.8250729 C35.0860058,65.8250729 37.2594752,65.5145773 39.2776968,65.2040816 L39.2776968,71.2587464 C39.2776968,73.1217201 40.8301749,74.6741983 42.6931487,74.6741983 L71.1034985,74.6741983 C72.9664723,74.6741983 74.5189504,73.1217201 74.5189504,71.2587464 L74.5189504,23.9081633 C74.5189504,22.0451895 72.9664723,20.6479592 71.1034985,20.6479592 Z M39.2776968,23.9081633 L39.2776968,62.2543732 C37.2594752,62.7201166 35.0860058,63.0306122 32.9125364,63.0306122 C16.3010204,63.0306122 2.79446064,49.5240525 2.79446064,32.9125364 C2.79446064,29.3418367 3.4154519,25.771137 4.6574344,22.6661808 L6.36516035,27.1683673 C6.52040816,27.478863 6.67565598,27.7893586 6.9861516,27.9446064 L10.7120991,29.962828 C11.4883382,30.4285714 12.5750729,29.962828 12.8855685,29.0313411 L13.6618076,25.9263848 C13.8170554,25.3053936 14.4380466,24.8396501 15.0590379,24.8396501 L18.4744898,24.8396501 C18.7849854,24.8396501 18.9402332,24.8396501 19.095481,24.6844023 L22.8214286,22.6661808 C23.287172,22.3556851 23.5976676,21.8899417 23.5976676,21.4241983 L23.5976676,21.2689504 C23.5976676,20.803207 23.9081633,20.3374636 24.2186589,20.0269679 L28.7208455,16.9220117 C28.8760933,16.7667638 29.0313411,16.7667638 29.1865889,16.7667638 L32.6020408,15.6800292 C33.3782799,15.3695335 33.8440233,14.4380466 33.5335277,13.6618076 C33.3782799,13.1960641 33.3782799,12.7303207 33.5335277,12.4198251 L34.6202624,10.4016035 C35.0860058,9.62536443 34.7755102,8.69387755 33.8440233,8.38338192 L29.1865889,6.36516035 C29.0313411,6.20991254 28.8760933,6.20991254 28.5655977,6.20991254 L25.9263848,6.20991254 C25.6158892,6.20991254 25.3053936,6.36516035 24.994898,6.52040816 L22.3556851,8.38338192 C22.0451895,8.69387755 21.5794461,8.69387755 21.1137026,8.53862974 L16.9220117,7.29664723 L16.9220117,7.29664723 C21.5794461,4.34693878 27.0131195,2.63921283 32.9125364,2.63921283 C40.3644315,2.63921283 47.1953353,5.43367347 52.4737609,9.93586006 L52.4737609,9.93586006 L52.3185131,10.0911079 C51.6975219,10.5568513 51.5422741,11.4883382 52.0080175,12.1093294 L52.3185131,12.7303207 C52.7842566,13.5065598 52.6290087,14.4380466 51.8527697,14.7485423 L51.3870262,15.0590379 C50.4555394,15.5247813 50.3002915,16.9220117 51.2317784,17.5430029 L52.4737609,18.4744898 C52.6290087,18.4744898 52.6290087,18.6297376 52.7842566,18.6297376 L57.1311953,20.4927114 C57.7521866,20.803207 58.3731778,20.6479592 58.8389213,20.1822157 C59.1494169,19.8717201 59.4599125,19.7164723 59.925656,19.7164723 C60.0809038,20.0269679 60.2361516,20.4927114 60.3913994,20.803207 L42.6931487,20.803207 C40.8301749,20.6479592 39.2776968,22.0451895 39.2776968,23.9081633 Z M59.4599125,23.7529155 C59.4599125,24.3739067 58.9941691,24.8396501 58.3731778,24.8396501 L55.5787172,24.8396501 C54.9577259,24.8396501 54.4919825,24.3739067 54.4919825,23.7529155 C54.4919825,23.1319242 54.9577259,22.6661808 55.5787172,22.6661808 L58.3731778,22.6661808 C58.9941691,22.5109329 59.4599125,23.1319242 59.4599125,23.7529155 Z M56.9759475,72.9664723 C55.733965,72.9664723 54.6472303,71.8797376 54.6472303,70.6377551 C54.6472303,69.3957726 55.733965,68.3090379 56.9759475,68.3090379 C58.21793,68.3090379 59.3046647,69.3957726 59.3046647,70.6377551 C59.3046647,71.8797376 58.21793,72.9664723 56.9759475,72.9664723 Z M70.0167638,66.2908163 L43.7798834,66.2908163 L43.7798834,27.0131195 L70.0167638,27.0131195 L70.0167638,66.2908163 L70.0167638,66.2908163 Z" id="Shape"></path>
                            <circle id="Oval" cx="56.9759475" cy="41.1406706" r="4.03644315"></circle>
                            <path d="M56.9759475,47.6610787 C52.1632653,47.6610787 48.1268222,51.3870262 47.6610787,56.1997085 L66.4460641,56.1997085 C65.8250729,51.3870262 61.7886297,47.6610787 56.9759475,47.6610787 Z" id="Shape"></path>
                        </g>
                    </g>
                </g>
            </g>
        </g>
    </g>
</svg>