<?xml version="1.0" encoding="UTF-8"?>
<svg width="76px" height="75px" viewBox="0 0 76 75" version="1.1" xmlns="http://www.w3.org/2000/svg" xmlns:xlink="http://www.w3.org/1999/xlink">
    <!-- Generator: Sketch 52.6 (67491) - http://www.bohemiancoding.com/sketch -->
    <title>Group 3</title>
    <desc>Created with Sketch.</desc>
    <defs>
        <polygon id="path-1" points="0 0.4 0 70.7 45.2 71.14 45.197 23.096 70.03 23.11 69.8 0.4"></polygon>
        <polygon id="path-3" points="0 0.4 0 70.7 45.2 71.14 45.197 23.096 70.03 23.11 69.8 0.4"></polygon>
        <polygon id="path-5" points="0 0.4 0 70.7 45.2 71.14 45.197 23.096 70.03 23.11 69.8 0.4"></polygon>
        <polygon id="path-7" points="0 0.4 0 70.7 45.2 71.14 45.197 23.096 70.03 23.11 69.8 0.4"></polygon>
        <polygon id="path-9" points="0 0.4 0 70.7 45.2 71.14 45.197 23.096 70.03 23.11 69.8 0.4"></polygon>
        <polygon id="path-11" points="0 0.4 0 70.7 45.2 71.14 45.197 23.096 70.03 23.11 69.8 0.4"></polygon>
        <polygon id="path-13" points="0 0.4 0 70.7 45.2 71.14 45.197 23.096 70.03 23.11 69.8 0.4"></polygon>
        <polygon id="path-15" points="0 0.4 0 70.7 45.2 71.14 45.197 23.096 70.03 23.11 69.8 0.4"></polygon>
        <polygon id="path-17" points="0 0.4 0 70.7 45.2 71.14 45.197 23.096 70.03 23.11 69.8 0.4"></polygon>
        <polygon id="path-19" points="0 0.4 0 70.7 45.2 71.14 45.197 23.096 70.03 23.11 69.8 0.4"></polygon>
    </defs>
    <g id="Homepage" stroke="none" stroke-width="1" fill="none" fill-rule="evenodd">
        <g id="Raza---Homepage-" transform="translate(-1164.000000, -830.000000)">
            <g id="callasia" transform="translate(1062.000000, 828.000000)">
                <g id="Group-3" transform="translate(97.000000, 0.000000)">
                    <g id="Group-40">
                        <g id="Group-10">
                            <mask id="mask-2" fill="white">
                                <use xlink:href="#path-1"></use>
                            </mask>
                            <g id="Clip-9"></g>
                            <polygon id="Fill-8" fill="#FFFFFF" mask="url(#mask-2)" points="37.7 43.4 35.9 43.4 35.8 42.4 36.1 42.5 36.8 42.5 36.8 41.5 34.8 41.6 34.2 40.8 34.2 40.5 31.7 38.1 31 38.6 34.7 43.1 35.2 43.3 35.2 43.6 34.5 43.6 34.7 44.1 39.2 44.3"></polygon>
                        </g>
                        <g id="Group-13">
                            <mask id="mask-4" fill="white">
                                <use xlink:href="#path-3"></use>
                            </mask>
                            <g id="Clip-12"></g>
                            <polygon id="Fill-11" fill="#FFFFFF" mask="url(#mask-4)" points="39.8 42.5 40.1 41.8 40.6 41.3 40.6 41 40.9 40.8 40.9 38.3 40.6 38.2 40.5 37.4 40 37.4 39.7 38.2 39.4 38.5 36.8 39.9 36.8 41.3 37.6 42.5"></polygon>
                        </g>
                        <g id="Group-16">
                            <mask id="mask-6" fill="white">
                                <use xlink:href="#path-5"></use>
                            </mask>
                            <g id="Clip-15"></g>
                            <polygon id="Fill-14" fill="#FFFFFF" mask="url(#mask-6)" points="40.9 41.6 40.9 43.4 41.6 43.4 41.5 42.3 42 42.5 42 43.3 42.6 43.2 42.6 40.8 41.2 41.3 41.3 41.6"></polygon>
                        </g>
                        <g id="Group-19">
                            <mask id="mask-8" fill="white">
                                <use xlink:href="#path-7"></use>
                            </mask>
                            <g id="Clip-18"></g>
                            <polygon id="Fill-17" fill="#FFFFFF" mask="url(#mask-8)" points="51.9 47 51 45.5 50.2 45.5 49.9 48.2 48.3 48.1 47.9 47.9 47.9 46.8 48.7 46.9 49.4 46.3 47.9 45.4 46.2 45.4 45 47.1 44.5 47.1 44.5 46.6 43 46.7 40.7 49.3 39.5 49.4 38.1 50.3 38 54.4 37.2 55.2 37.2 55.9 41.2 54.6 44.4 54.4 45.6 57.1 49.3 57.2 52.8 53.9 53.7 51.9 53.3 50.4 52 49.2"></polygon>
                        </g>
                        <g id="Group-22">
                            <mask id="mask-10" fill="white">
                                <use xlink:href="#path-9"></use>
                            </mask>
                            <g id="Clip-21"></g>
                            <polygon id="Fill-20" fill="#000000" mask="url(#mask-10)" points="46.1 59.1 47.4 59.2 48.4 58.7 48.4 57.9 47.3 57.7"></polygon>
                        </g>
                        <g id="Group-25">
                            <mask id="mask-12" fill="white">
                                <use xlink:href="#path-11"></use>
                            </mask>
                            <g id="Clip-24"></g>
                            <polygon id="Fill-23" fill="#000000" mask="url(#mask-12)" points="51.4 59.4 51.4 60 52.7 59.8 56 57.8 57 57.2 58 56.7 59 56.2 58.6 55.5 58 55.6 58 54.4 57 54.4 56.9 56.4 56 57 54.4 57.2 51.8 59"></polygon>
                        </g>
                        <g id="Group-28">
                            <mask id="mask-14" fill="white">
                                <use xlink:href="#path-13"></use>
                            </mask>
                            <g id="Clip-27"></g>
                            <polygon id="Fill-26" fill="#000000" mask="url(#mask-14)" points="48.4 41.9 47.5 41.9 47.6 41 46.8 40.5 45.7 41.7 46.4 42.6 48.1 42.8 49 43.3 49 43.8 48.4 43.8 48.4 44.7 50.4 44.6 51.2 43.8 51.9 43.7 51.9 45.2 53.3 45.2 53.3 44.6 52.6 44.6 52.5 42.8 49.3 41.4"></polygon>
                        </g>
                        <g id="Group-31">
                            <mask id="mask-16" fill="white">
                                <use xlink:href="#path-15"></use>
                            </mask>
                            <g id="Clip-30"></g>
                            <polygon id="Fill-29" fill="#FFFFFF" mask="url(#mask-16)" points="24.4 37.7 24.7 38.6 25.8 38.1 26 37 25 36.8"></polygon>
                        </g>
                        <g id="Group-34">
                            <mask id="mask-18" fill="white">
                                <use xlink:href="#path-17"></use>
                            </mask>
                            <g id="Clip-33"></g>
                            <polygon id="Fill-32" fill="#FFFFFF" mask="url(#mask-18)" points="42.4 44.2 42.8 44.3 42.9 43.9 42.4 43.9"></polygon>
                        </g>
                        <mask id="mask-20" fill="white">
                            <use xlink:href="#path-19"></use>
                        </mask>
                        <g id="Clip-36"></g>
                        <polygon id="Fill-35" fill="#FFFFFF" mask="url(#mask-20)" points="40 44.6 40.6 44.6 40.6 44.3 40 44.3"></polygon>
                        <polygon id="Fill-37" fill="#FFFFFF" mask="url(#mask-20)" points="41.3 44.3 40.9 44.6 40.9 44.9 41.5 44.9 41.5 44.6 41.9 44.6 41.9 44.3 42.1 44.3 42.1 44 41.5 44"></polygon>
                        <polygon id="Fill-38" fill="#FFFFFF" mask="url(#mask-20)" points="42.4 44.6 42.4 45.2 43 45.2 43 44.9 43.6 44.9 43.6 44.6 44 44.6 44 44.1 43.3 44.2 43.2 44.6 42.5 44.6"></polygon>
                        <path d="M38.4,65.3 C24,65.3 12,55.2 9,41.7 L10.6,40.2 L13.7,35.8 L13.1,35.5 L9.9,36.2 L9.1,35.8 L8.4,34.5 C8.4,33.8 8.5,33 8.5,32.3 L9.3,33.3 L9.4,34.6 L10.2,35.4 L11.8,35.3 L15.1,32.9 L16.1,32.2 L16.1,31.4 L15,31.3 C15,31.3 11.2,29.5 11.2,29.4 L11.2,27.8 L12,27.8 L12.1,28.9 L13.9,29.9 L15.9,30 L20.3,30.7 L21.3,31.4 L21.3,32.4 L21.2,33.8 L23.5,37.5 L24.2,37.7 L24.9,36.6 L25.3,33.6 L26.1,32 L27.3,31.5 L29.5,31.7 L32.2,34.1 L32.2,37.5 L35.8,40.9 L36,40.3 L33.1,36.2 L33.4,35 L34.9,36.7 L35.8,36.8 L36.9,36.1 L36.7,35 L34.9,33.5 L34.8,32.2 L35.3,31.5 L36.2,31.8 L36.1,32.4 L36.6,33.2 L37.1,32.9 L36.8,31.9 L39.4,31 L40.6,30 L40.4,28.3 L38.1,25.9 L38.1,24 L39.1,24 L42.2,26.4 L43.1,26.2 L42.5,25.4 L40.8,24.4 L40.9,22.9 L42.9,22.9 L43.1,21 L42.3,20 L42.8,19.5 L43.8,20.5 L44.1,20.1 L42.9,18.7 L39.8,18.3 L39.4,17.5 L40.3,16.2 L41,16.7 L43.1,16.9 L45.8,15.1 L46.2,15.7 L45.6,16.6 L45.6,17.5 L48.1,19.5 L48.9,19.1 L48.6,17.8 L46.8,16.2 L49.1,16 L49.1,15.3 L50.2,15.1 L49.3,14.5 L49.3,14 L51.7,14.4 L52.1,14 L48.9,12.7 L37.3,12.1 L36.2,11.6 L34.5,11.3 L33.2,11.3 L32,12.5 L31.5,12.5 L29.9,11.3 L25.3,11.3 L23.2,10 L22.1,10.1 C26.8,7.1 32.3,5.4 38.2,5.4 C54.8,5.4 68.3,18.9 68.3,35.5 C68.5,51.8 55,65.3 38.4,65.3 Z M10.7,24.6 L11.4,24 L11.4,23.5 L10.9,23.1 C11,22.8 11.1,22.6 11.2,22.4 L12.5,23.3 L12.5,24 L13.2,24.5 L13.2,25 L12.9,25.3 L12.1,25.2 L11.9,25 L10.7,24.9 L10.7,24.6 Z M11.8,21.1 L12.1,21.2 L12.1,21.8 L11.4,21.8 C11.6,21.6 11.7,21.3 11.8,21.1 Z M38.4,2.4 C29.6,2.4 21.7,5.9 15.8,11.5 C15.4,11.9 15.1,12.2 14.7,12.6 C10.3,17.2 7.2,23 6.1,29.5 C6.1,29.7 6,29.9 6,30.2 C5.7,31.9 5.6,33.6 5.6,35.3 C5.6,39.8 6.5,44 8.1,47.9 C13,59.8 24.8,68.1 38.4,68.1 C56.5,68.1 71.2,53.4 71.2,35.3 C71.2,17.1 56.5,2.4 38.4,2.4 Z" id="Fill-39" fill="#FFFFFF" mask="url(#mask-20)"></path>
                    </g>
                    <path d="M49.6,68.5 L75.8,68.5 L75.8,29.2 L49.6,29.2 L49.6,68.5 Z M62.7,75.2 C61.5,75.2 60.4,74.1 60.4,72.9 C60.4,71.7 61.5,70.6 62.7,70.6 C63.9,70.6 65,71.7 65,72.9 C65,74.1 64,75.2 62.7,75.2 Z M61.3,24.9 L64.1,24.9 C64.7,24.7 65.2,25.4 65.2,26 C65.2,26.6 64.7,27.1 64.1,27.1 L61.3,27.1 C60.7,27.1 60.2,26.6 60.2,26 C60.2,25.4 60.7,24.9 61.3,24.9 Z M77.6,23 L66.1,23 L47.744,23.1 L48.4,23.1 C46.5,22.9 45,24.3 45,26.2 L45,64.5 L45,67.4 L45,73.5 C45,75.4 46.6,76.9 48.4,76.9 L76.8,76.9 C78.7,76.9 80.2,75.3 80.2,73.5 L80.2,26.1 C80.3,24.5 79.1,23.3 77.6,23 Z" id="Fill-5" fill="#FFFFFF"></path>
                    <path d="M62.0623976,48.0001767 C64.5383976,48.0651767 66.5013976,49.1141767 67.9863976,51.0851767 C68.1673976,51.3261767 68.1413976,51.6331767 67.9303976,51.8581767 C67.7193976,52.0831767 67.5093976,52.3001767 67.2953976,52.5181767 C67.0613976,52.7581767 66.8443976,52.7421767 66.6583976,52.4621767 C66.1513976,51.7021767 65.5073976,51.0871767 64.7103976,50.6371767 C62.2283976,49.2381767 59.1323976,49.9911767 57.4993976,52.3841767 C57.4633976,52.4431767 57.4233976,52.5001767 57.3803976,52.5541767 C57.2373976,52.7151767 57.0293976,52.7341767 56.8773976,52.5841767 C56.6273976,52.3371767 56.3823976,52.0851767 56.1473976,51.8241767 C55.9563976,51.6121767 55.9523976,51.3121767 56.1273976,51.0751767 C57.3213976,49.4781767 58.8803976,48.4591767 60.8563976,48.1061767 C60.9973976,48.0811767 61.1393976,48.0581767 61.2823976,48.0441767 C61.5413976,48.0131767 61.8013976,47.9981767 62.0623976,48.0001767 Z M63.2899,41.99 C63.5039,42 63.7889,42.019 64.1229,42.061 C64.8279,42.154 65.5209,42.317 66.1929,42.549 C67.1459,42.879 68.0499,43.339 68.8779,43.915 C69.7589,44.527 70.5489,45.261 71.2229,46.095 C71.4779,46.409 71.4659,46.675 71.1869,46.966 C71.0039,47.157 70.8199,47.348 70.6359,47.539 C70.4659,47.726 70.1769,47.739 69.9899,47.569 C69.9679,47.549 69.9469,47.527 69.9299,47.502 C68.8929,46.182 67.6099,45.181 66.0499,44.554 C62.3129,43.055 58.0819,44.199 55.5509,47.384 C55.1879,47.842 55.0489,47.848 54.6429,47.428 C54.4829,47.262 54.3209,47.097 54.1639,46.929 C53.9549,46.706 53.9449,46.363 54.1399,46.128 C54.7079,45.436 55.9209,44.062 57.7279,43.176 C57.7279,43.176 59.3049,42.402 60.9049,42.118 C61.1579,42.073 61.4069,42.041 61.4069,42.041 C61.5259,42.026 61.7289,42.001 61.9959,41.984 C62.1739,41.973 62.3899,41.966 62.6369,41.97 L63.2899,41.99 Z M62.7352,53.6981 C64.1442,53.7321 65.3132,54.3051 66.2332,55.3931 C66.4302,55.6261 66.4172,55.9311 66.2032,56.1611 C65.9842,56.3971 65.7582,56.6271 65.5322,56.8571 C65.3342,57.0591 65.1212,57.0471 64.9472,56.8211 C64.8002,56.6211 64.6312,56.4381 64.4432,56.2761 C63.2522,55.2911 61.5592,55.4591 60.5842,56.6601 C60.5402,56.7131 60.5002,56.7701 60.4572,56.8231 C60.2782,57.0431 60.0692,57.0561 59.8702,56.8531 C59.6482,56.6261 59.4282,56.3981 59.2112,56.1691 C58.9792,55.9231 58.9752,55.6211 59.1972,55.3631 C60.1222,54.2881 61.2912,53.7261 62.7352,53.6981 Z" id="Fill-4" fill="#FFFFFF"></path>
                </g>
            </g>
        </g>
    </g>
</svg>