<?xml version="1.0" encoding="UTF-8"?>
<svg width="26px" height="26px" viewBox="0 0 26 26" version="1.1" xmlns="http://www.w3.org/2000/svg" xmlns:xlink="http://www.w3.org/1999/xlink">
    <!-- Generator: Sketch 50.2 (55047) - http://www.bohemiancoding.com/sketch -->
    <title>Group 3</title>
    <desc>Created with Sketch.</desc>
    <defs></defs>
    <g id="Page-1" stroke="none" stroke-width="1" fill="none" fill-rule="evenodd">
        <g id="Group-3" fill="#FFFFFF" fill-rule="nonzero">
            <g id="Call-Made">
                <path d="M25.5,0.8 C25.4,0.7 25.4,0.6 25.2,0.5 C25.1,0.5 25.1,0.5 25,0.5 L18,0.5 C17.7,0.5 17.5,0.7 17.5,1 C17.5,1.3 17.7,1.5 18,1.5 L23.8,1.5 L12.6,12.6 C12.4,12.8 12.4,13.1 12.6,13.3 C12.7,13.4 12.8,13.4 13,13.4 C13.2,13.4 13.3,13.4 13.4,13.3 L24.5,2.2 L24.5,8 C24.5,8.3 24.7,8.5 25,8.5 C25.3,8.5 25.5,8.3 25.5,8 L25.5,1 C25.5,0.9 25.5,0.9 25.5,0.8 Z" id="Shape"></path>
                <path d="M22.8,17.5 C21.3,17.5 19.3,17 18,16.6 C17.4,16.4 16.6,16.6 16.3,17 L13.5,19 C10.3,17.3 8.3,15.3 6.7,12.2 L9.1,9.7 C9.6,9.2 9.7,8.6 9.5,7.9 C8.9,6.1 8.6,4.5 8.6,3.3 C8.6,2.3 7.8,1.5 6.8,1.5 L2.3,1.5 C1.3,1.5 0.5,2.3 0.5,3.3 C0.5,15.4 10.7,25.6 22.8,25.6 C23.8,25.6 24.6,24.8 24.6,23.8 L24.6,19.3 C24.5,18.3 23.7,17.5 22.8,17.5 Z" id="Shape"></path>
            </g>
        </g>
    </g>
</svg>