<?xml version="1.0" encoding="UTF-8"?>
<svg width="45px" height="45px" viewBox="0 0 45 45" version="1.1" xmlns="http://www.w3.org/2000/svg" xmlns:xlink="http://www.w3.org/1999/xlink">
    <!-- Generator: Sketch 50.2 (55047) - http://www.bohemiancoding.com/sketch -->
    <title>Call-Forward</title>
    <desc>Created with Sketch.</desc>
    <defs>
        <linearGradient x1="3.061617e-15%" y1="50%" x2="100%" y2="50%" id="linearGradient-1">
            <stop stop-color="#E6167F" offset="0%"></stop>
            <stop stop-color="#FF8000" offset="100%"></stop>
        </linearGradient>
    </defs>
    <g id="Xtras-New-Section" stroke="none" stroke-width="1" fill="none" fill-rule="evenodd">
        <g id="Raza---Features-2" transform="translate(-1069.000000, -615.000000)" fill="url(#linearGradient-1)" fill-rule="nonzero">
            <g id="Call-Forward" transform="translate(1069.000000, 615.000000)">
                <path d="M28.9166667,5.43564356 L35.8833333,5.43564356 L33.8666667,7.3960396 C33.5,7.75247525 33.5,8.28712871 33.8666667,8.64356436 C33.8666667,9 34.2333333,9 34.4166667,9 C34.6,9 34.9666667,9 35.15,8.82178218 L38.8166667,5.25742574 C38.8166667,5.25742574 39,5.07920792 39,4.9009901 C39,4.72277228 39,4.36633663 39,4.18811881 C39,4.00990099 38.8166667,4.00990099 38.8166667,3.83168317 L35.15,0.267326733 C34.7833333,-0.0891089109 34.2333333,-0.0891089109 33.8666667,0.267326733 C33.5,0.623762376 33.5,1.15841584 33.8666667,1.51485149 L35.8833333,3.65346535 L28.9166667,3.65346535 C28.3666667,3.65346535 28,4.00990099 28,4.54455446 C28,5.07920792 28.3666667,5.43564356 28.9166667,5.43564356 Z" id="Shape"></path>
                <path d="M42.5,4.45454545 L39.3,7.36363636 C38.9,7.72727273 38.9,8.27272727 39.3,8.63636364 C39.3,9 39.7,9 39.9,9 C40.1,9 40.5,9 40.7,8.81818182 L44.7,5.18181818 C45.1,4.81818182 45.1,4.27272727 44.7,3.90909091 L40.7,0.272727273 C40.3,-0.0909090909 39.7,-0.0909090909 39.3,0.272727273 C38.9,0.636363636 38.9,1.18181818 39.3,1.54545455 L42.5,4.45454545 Z" id="Shape"></path>
                <path d="M41.6390041,30 C38.8381743,30 35.1037344,29.0625 32.6763485,28.3125 C31.5560166,27.9375 30.0622407,28.3125 29.5020747,29.0625 L24.2738589,32.8125 C18.2987552,29.625 14.5643154,25.875 11.5767635,20.0625 L16.0580913,15.375 C16.9917012,14.4375 17.1784232,13.3125 16.8049793,12 C15.4979253,8.4375 14.9377593,5.625 14.9377593,3.375 C14.9377593,1.5 13.4439834,0 11.5767635,0 L3.36099585,0 C1.49377593,0 0,1.5 0,3.375 C0,25.875 19.0456432,45 41.6390041,45 C43.5062241,45 45,43.5 45,41.625 L45,33.1875 C44.813278,31.5 43.3195021,30 41.6390041,30 Z" id="Shape"></path>
            </g>
        </g>
    </g>
</svg>