<?xml version="1.0" encoding="UTF-8"?>
<svg width="75px" height="75px" viewBox="0 0 75 75" version="1.1" xmlns="http://www.w3.org/2000/svg" xmlns:xlink="http://www.w3.org/1999/xlink">
    <!-- Generator: Sketch 52.6 (67491) - http://www.bohemiancoding.com/sketch -->
    <title>Group 2</title>
    <desc>Created with Sketch.</desc>
    <defs>
        <polygon id="path-1" points="0 0 0 70.1665847 45.7266476 71 45.4929799 23.5282632 70 23.14599 70 0"></polygon>
    </defs>
    <g id="Homepage" stroke="none" stroke-width="1" fill="none" fill-rule="evenodd">
        <g id="Raza---Homepage-" transform="translate(-689.000000, -830.000000)">
            <g id="hover" transform="translate(480.000000, 770.000000)">
                <g id="callafrica" transform="translate(102.000000, 58.000000)">
                    <g id="Group-2" transform="translate(101.000000, 0.000000)">
                        <mask id="mask-2" fill="white">
                            <use xlink:href="#path-1"></use>
                        </mask>
                        <g id="Clip-9"></g>
                        <path d="M44.9261391,37.2105939 L44.9981763,36.9589198 L44.8185393,36.8868827 L44.6389023,36.9589198 L44.5668652,37.1385568 L44.3142792,37.2105939 L43.9905679,37.3546683 L43.7744564,37.3191056 L43.5227823,37.4267054 L43.2346337,37.4267054 L42.9109224,37.6428169 L42.7668481,37.6783795 L42.4066623,37.6428169 C42.4066623,37.6428169 42.2261135,37.8224538 42.1905508,37.8224538 C42.1540763,37.8224538 41.8659277,37.8580165 41.8659277,37.8580165 L41.4701792,37.5343052 L41.2540678,37.3546683 L41.0744308,37.3902309 L41.0388682,37.3181937 L41.4346166,37.0665196 L41.2185051,36.8148455 L41.0023936,36.6707712 L40.8227567,36.4190971 L40.7151569,36.3105854 L40.1753341,35.8427998 L39.9956971,35.7707626 L39.8871855,35.6987255 L39.7075485,35.6266883 L39.4558744,35.4105768 L39.2397629,34.9427912 C39.2397629,34.9427912 39.060126,34.5105683 39.060126,34.4750056 C39.060126,34.4385311 38.80754,34.113908 38.80754,34.113908 L38.6634656,34.0783453 L38.4473542,33.8987084 L38.3032799,33.8631457 L38.1956801,33.3953601 L38.1236429,32.8546255 L37.9795686,32.5309142 L37.9075314,32.4233144 L37.9075314,32.2792401 L37.5473456,31.9910915 L37.4032713,31.9190543 L37.259197,31.7029428 L37.2236343,31.4512687 L37.259197,31.342757 L37.0075229,31.1266456 C37.0075229,31.1266456 36.7193742,30.6232973 36.7193742,30.5868228 C36.7193742,30.5503483 36.395663,30.1190372 36.395663,30.1190372 L36.3591884,30.0114374 L36.143077,29.6868143 L36.143077,29.5427399 C36.143077,29.5427399 35.7473285,29.1825542 35.7473285,29.1469915 C35.7473285,29.1114289 35.6752914,28.8953174 35.6752914,28.8953174 L35.5676916,28.7512431 L35.6752914,28.6071688 L35.7473285,28.8588429 L35.96344,29.0749543 L35.9990027,29.2910658 L36.4312256,29.6147771 L36.5032628,29.4707028 L36.5032628,29.2910658 L36.6108626,28.8232802 L36.6108626,28.6071688 L36.2515886,27.9953088 L35.9990027,27.9953088 L35.4956544,28.0308715 L35.2075058,27.9232717 L34.84732,27.81476 L34.5956459,27.9232717 L34.0913857,28.2114203 L33.7676745,28.1393832 L33.1558145,27.9953088 L32.6871171,27.9232717 L32.3989685,27.9588343 L32.2193315,27.7427228 L31.8600576,27.7427228 L31.7159832,27.6706857 L31.4998718,27.635123 L31.4278346,27.4545742 C31.4278346,27.4545742 31.0676488,27.3104999 31.0311743,27.3104999 C30.9956117,27.3104999 30.4557889,27.4545742 30.4557889,27.4545742 L30.1320776,27.7791974 L30.1320776,28.0308715 L30.2396774,28.2825456 L29.9880033,28.5342197 L29.6998547,28.5697824 L29.3031944,28.3181083 L28.8354088,28.1384713 C28.8354088,28.1384713 28.4396603,28.0664341 28.4040977,28.0664341 C28.368535,28.0664341 28.2244607,27.8867972 28.2244607,27.8867972 L28.1879862,27.635123 L27.684638,27.4190116 C27.684638,27.4190116 27.2168524,27.3825371 27.1803779,27.3825371 C27.1448152,27.3825371 26.5685179,27.2029001 26.5685179,27.2029001 L26.1372069,26.951226 L25.8855327,26.8071517 L25.9210954,26.5910402 L26.209244,26.6266028 C26.209244,26.6266028 26.4609181,26.3384542 26.4609181,26.3028915 L26.4609181,26.0512174 L26.1727695,25.7630688 L26.4244436,25.58252 L26.5685179,25.2943713 L26.2803693,25.4749202 L26.136295,25.2943713 L25.7779329,25.2606324 L25.4542216,25.4402694 L24.9855242,25.2961951 L24.7694127,25.3682322 L24.5533012,25.2961951 L24.1575528,25.5123065 C24.1575528,25.5123065 23.8694042,25.3682322 23.8338415,25.3682322 C23.7982789,25.3682322 23.1855071,25.4037949 23.1855071,25.4037949 L22.321973,25.475832 L21.890662,25.728418 L21.4940017,25.7639806 L21.0626906,26.0521293 L20.342319,25.908055 C20.342319,25.908055 20.0186077,25.908055 19.9830451,25.8724923 C19.9474824,25.8360178 19.7313709,25.5843437 19.7313709,25.5843437 L19.5152595,25.6919435 L19.299148,26.0512174 L18.9745248,26.4114032 L18.1474653,26.7360264 L17.8957912,27.024175 L17.8593167,27.2402865 L17.6432052,27.4563979 L17.4991309,27.8521464 L17.5346935,28.0317833 L17.3550566,28.3554946 L17.0304334,28.6801178 L16.8143219,28.7521549 L16.4185735,29.0403036 L15.9507879,29.1123407 L15.7346764,29.2919777 L15.5550395,29.6521635 L15.3033653,29.7597633 L15.0516912,29.9758748 L14.8355797,30.4080977 L14.6915054,30.6597718 L14.1872453,31.1275574 L13.9355712,31.595343 L13.6474226,31.9190543 L13.6118599,32.3157146 L13.7559342,32.6038632 L13.7559342,32.964049 L13.6118599,33.1801605 L13.7559342,33.4683091 L13.7203716,34.0801691 L13.3966603,34.6199918 L13.3246231,35.0166521 L13,35.4479632 L13.179637,35.9157488 C13.179637,35.9157488 13.1075998,36.4564834 13.1075998,36.4920461 C13.1075998,36.5276087 13.179637,36.7801947 13.179637,36.7801947 L13.5398228,37.0318688 L13.7194597,37.3911428 L13.8990967,37.5352171 L14.1152082,37.8598402 L14.5839056,38.4352256 L14.5839056,38.8309741 L14.8720543,39.2996715 L15.2678027,39.515783 L15.7711509,40.0191312 L16.3118856,40.4513542 L16.9593081,40.8471026 L17.1754196,40.9191398 L18.0398655,40.5954285 L18.8313624,40.5233914 L19.3356225,40.6674657 L19.7313709,40.8471026 L20.1991565,40.6309912 L21.0626906,40.3428425 L21.3152766,40.1632056 L22.0347363,40.0902565 L22.6830707,40.0182194 L23.2228935,40.558954 L23.3669678,40.9902651 L23.7627162,41.0978649 L24.1949392,41.0258277 L24.6982874,40.9902651 L24.8779244,41.0623023 L25.0575613,41.3139764 L25.2381102,41.422488 C25.2381102,41.422488 25.4542216,41.7461993 25.4177471,41.781762 C25.3812726,41.8173246 25.3101473,42.5376962 25.3101473,42.5376962 L25.2381102,43.1130816 L25.0940358,43.5088301 L24.913487,43.6529044 L25.0940358,44.1571645 L25.6338586,44.6969872 L26.1736814,45.3453217 L26.46183,45.8131073 L26.5338672,46.1368185 L26.641467,46.4249672 L26.8575784,46.7486785 L27.0736899,47.3970129 L26.9660901,47.6851615 L27.1101644,48.1885098 C27.1101644,48.1885098 27.2898014,48.5851701 27.2898014,48.6207327 C27.2898014,48.6562954 27.1822016,49.1605555 27.1822016,49.1961181 C27.1822016,49.2316808 27.0381273,49.4122296 27.0025646,49.4122296 C26.967002,49.4122296 26.6068162,49.9885269 26.6068162,49.9885269 L26.4992164,50.6724239 L26.3551421,50.9605726 L26.3907047,52.0046554 L26.8220158,52.6165153 L27.3983131,53.6961609 L27.6864617,54.1995091 L27.6864617,54.7758064 L27.7584988,55.1359922 L27.9025732,55.8910145 L28.1542473,56.6113861 L28.6575955,57.1867715 C28.6575955,57.1867715 29.0177813,57.9071431 29.0177813,57.9427058 C29.0177813,57.9782684 29.3414926,58.4825285 29.3414926,58.4825285 L29.3414926,58.8427143 C29.3414926,58.8791888 29.2338928,59.0232631 29.2338928,59.0232631 L29.4135298,59.3469744 L29.5576041,59.4190116 L29.5931667,59.5630859 L29.7737156,59.7071602 L29.9889152,59.8867972 L30.1329895,59.8512345 L30.349101,59.7071602 L30.5652124,59.7071602 L30.8889237,59.6715976 L31.1050352,59.5630859 L31.3931838,59.5630859 L31.6457698,59.5275232 L32.0415183,59.5995604 L32.1855926,59.5995604 L32.2931924,59.5275232 L32.581341,59.4199234 L32.8330151,59.4554861 L33.3008007,59.2393746 L33.8415353,58.8436262 L34.3448836,58.4123151 L34.7050694,58.0876919 L35.0287807,57.6563808 L35.172855,57.4047067 L35.4245291,57.2606324 L35.6406406,57.0445209 L35.8567521,56.5402608 L36.0008264,56.1809869 L36.0008264,55.9648754 L35.8932266,55.8208011 L36.0008264,55.6402523 L36.2169379,55.5326525 L36.9008349,55.2809783 L37.1889836,55.1013414 L37.2974952,54.8496673 L37.2610207,54.7411556 L37.3695324,54.4174443 L37.3339697,54.3098445 L37.2974952,53.7700217 L37.2254581,53.6259474 L37.2254581,53.4098359 L37.0813838,53.15725 L37.1169464,52.9411385 L37.2974952,52.8691013 L38.1965919,52.0420418 L38.6288149,51.7174187 L39.1686376,51.5377817 L39.6364232,51.2140704 L39.7804975,51.0344334 L39.996609,50.7827593 L40.1406833,50.386099 L40.0686462,50.1344249 L40.0330835,49.2344163 L40.1051207,48.6945936 L40.1406833,48.406445 L39.996609,48.1903335 L39.7804975,48.0827337 L39.7804975,47.9751339 L39.6364232,47.5429109 L39.6008606,47.2912368 L39.7084604,47.1115998 L39.6008606,46.8599257 L39.6364232,46.751414 L39.7804975,46.6793769 L39.4923489,46.320103 L39.3847491,46.2480658 L39.4567863,45.9963917 L39.6008606,45.5641687 L39.8890092,45.1684203 L40.0686462,44.7371092 L40.1406833,44.4489606 L40.3567948,44.3769234 L40.5729063,44.0887748 L40.7534551,43.9802631 L40.9330921,43.6921145 L41.0051292,43.5124775 L41.5084775,42.9726547 L42.2288491,42.2522832 L42.6601601,42.000609 L43.1279457,41.5692979 L43.6686804,40.8133637 L44.136466,40.0574295 L44.2085031,39.7337182 L44.4966518,39.1938954 L44.4966518,39.010611 L44.6407261,38.8309741 L44.7848004,38.4707883 L44.8924002,38.2182023 L44.8924002,37.7868912 L45,37.6792914 L44.9644374,37.3555801 L44.9261391,37.2105939 Z M47.1778484,51.7052202 C47.1778484,51.744167 47.3356332,52.3353609 47.3356332,52.3353609 L47.0200635,52.729823 L47.0200635,52.5320926 L46.8622787,52.3353609 L46.8622787,52.8476623 C46.8622787,52.8876078 46.6645483,53.2820699 46.6645483,53.2820699 L46.6645483,53.5576941 C46.6645483,53.5576941 46.4678166,54.0699955 46.4678166,54.1089424 C46.4678166,54.1478892 45.0088062,57.2626419 45.0088062,57.2626419 L44.8120744,57.4993191 L44.4575579,57.5782115 L43.9842034,57.8538357 L43.471902,57.5782115 C43.471902,57.5782115 43.2352247,57.1058557 43.2352247,57.0659101 C43.2352247,57.0259646 43.353064,56.7503404 43.353064,56.7503404 L43.2352247,56.4747163 L43.1962778,55.8435769 C43.1962778,55.8435769 43.6296868,55.2134362 43.6686337,55.2134362 C43.7085792,55.2134362 43.9452565,54.7800272 43.9842034,54.7400817 C44.0241489,54.7011348 43.9053109,54.3066727 43.9053109,54.3066727 L43.866364,53.4398547 L44.0241489,53.2031775 L44.1429868,52.729823 L45.285429,52.296414 C45.285429,52.296414 45.7977304,52.0207898 45.8376759,51.9808443 C45.8766228,51.9408988 46.0344076,51.5074898 46.0344076,51.5074898 L46.2710849,51.3107581 C46.2710849,51.3107581 46.5077621,51.1929187 46.546709,51.1529732 C46.5856559,51.1130277 46.5856559,50.7585111 46.5856559,50.7585111 C46.5856559,50.7585111 46.7833863,50.482887 46.8223332,50.482887 C46.8622787,50.482887 47.0590104,50.916296 47.0590104,50.916296 C47.0590104,50.916296 47.1778484,51.6652746 47.1778484,51.7052202 Z M47.6921471,26.128098 C49.0842488,26.2998638 51.3092147,27.547163 52.7192919,26.6503858 C53.6550159,26.0551975 52.9130277,24.9866546 53.7738538,24.3045847 C52.8421244,23.9300953 50.8708125,23.8761689 49.8681798,23.9670449 C49.8581934,24.071902 49.9201089,24.2276895 49.9221062,24.3435315 C49.3768498,23.7393554 49.472719,22.2463913 48.8565592,21.789015 C47.3815706,20.6955061 47.8269632,22.5689514 47.532365,23.0502951 C46.4937812,24.7509759 45.3952792,20.9321834 44.5763958,20.2011802 C43.8783477,19.5740354 42.9186564,18.8170676 41.9599637,18.794099 C41.9180209,19.7378121 43.7335452,21.8599183 44.6612801,21.8229687 C43.6746255,22.1515207 43.6716296,22.9294598 42.7369042,22.8755334 C43.1942805,21.8529278 42.0118929,20.0453926 40.7186564,19.6898774 C38.8741716,19.1795733 36.9547889,20.1342714 35.9481616,21.5583296 C34.997458,22.9044939 33.8060826,24.3025874 31.9645937,23.7303677 C30.1630504,23.1711303 30.4466636,20.1033137 32.0534725,19.6189741 C32.9003177,19.3643214 34.9295506,20.4368588 35.1782115,18.8959601 C35.3240127,18.0051748 34.0078075,17.4559237 33.4925102,16.9066727 C35.0953246,16.9006809 36.4864276,16.1507036 37.8166137,15.3168407 C38.2190649,15.0661825 39.3854744,14.4999546 39.6411257,14.1913754 C40.1584203,13.5582388 39.5512483,12.3848389 40.6377667,12.3009532 C40.7036768,14.1554244 42.1517022,14.1504312 43.6955969,14.0146164 C45.3952792,13.866818 45.5320926,12.9340899 46.8163414,12.0612801 C47.4275079,11.6448479 48.1605084,11.5250113 48.9314571,11.4690876 L48.8495688,11.5529732 C48.981389,11.4371312 49.0992283,11.3712211 49.1721289,11.2374035 C48.1635043,10.8589197 45.3822969,11.4810713 45.7278257,9.81134816 C45.762778,9.64757149 47.5103949,8.7907399 46.3809351,8.26745347 C45.9125738,8.05074898 44.827054,9.20018157 44.0181571,9.09832047 C44.0660917,10.0959601 44.1939174,13.6960508 42.2156151,12.8941443 C41.517567,12.6115297 41.539537,11.6378575 40.6916931,11.3732183 C40.0096232,11.1605084 38.6414889,11.9354517 38.3309124,10.9368134 C37.981389,9.81434408 41.7752156,8.0407626 42.5990921,7.45356332 C43.9202905,6.5098502 46.0753518,6.19927372 47.6611893,6.61470722 C48.7197458,6.89232864 49.649478,7.54144349 50.7100318,7.84403087 C51.6197912,8.10467544 52.3018611,8.13563323 52.9579664,8.92156151 L52.8770767,8.92156151 C52.6324103,9.33699501 50.9527009,9.09232864 50.4264185,8.84965956 C51.5428961,10.3286428 53.0049024,9.56068997 54.576759,9.46282342 C50.0379483,6.68261462 44.7032229,5.077803 39,5.077803 C35.2750794,5.077803 31.7029505,5.76386745 28.4094417,7.01615978 C28.3814798,7.0531094 28.3525193,7.09105765 28.3185656,7.1290059 C27.8611893,7.65129369 27.0472991,7.60635497 26.4820699,8.03177485 C25.3236496,8.9005901 24.0294144,10.261734 23.0467544,11.4081707 C22.5943713,11.9374489 22.1020427,13.2177031 21.5278257,13.5312755 C21.132365,13.7499773 19.012256,13.7559691 18.6627326,13.5133 C18.5658647,13.4473899 18.4919655,13.3724921 18.4300499,13.2896051 C16.9091239,14.7326373 15.5389923,16.334453 14.3476169,18.0670903 C14.8309578,18.7741262 15.2673627,19.5071266 15.2423967,20.2091693 C15.1954607,21.7440763 13.9401725,22.0216977 12.4741716,22.2274172 C13.654562,23.9251021 11.7281888,24.7629596 10.8453926,26.2049932 C10.0105311,27.5651384 9.89968225,29.2588289 9.38837948,30.704857 C9.18565592,32.1079437 9.07980027,33.5399909 9.07980027,35 C9.07980027,37.2489333 9.32945983,39.4429414 9.80281434,41.5510667 C10.0884249,41.9235588 10.424966,42.2940536 10.8613709,42.712483 C12.0118021,43.8209714 13.6236042,44.3881979 14.4834317,45.74335 C15.594916,47.5009532 16.2460281,48.117113 18.0335906,49.20463 C19.1880163,49.90867 21.3720381,50.6756241 21.0894235,52.1905583 C20.9745801,52.8087154 20.3933727,53.3330005 20.2285974,53.9631412 C20.0698139,54.56532 20.4702678,55.8056287 20.2086246,56.2570132 C19.8660917,56.8432138 19.1261008,56.5386291 18.603813,56.8711757 C23.9525193,61.8623695 31.1257376,64.9231956 39,64.9231956 C55.101044,64.9231956 68.2710849,52.1396278 68.8982297,36.1873808 C68.7973672,36.9083976 68.6415797,37.5924648 68.1762143,38.0857921 C68.1971857,36.8305039 67.6699047,35.1208352 67.4791648,33.8216069 C67.2634589,32.355606 65.9442578,32.2847027 65.6027236,30.7927372 C64.3294598,30.5500681 60.8492056,30.484158 60.7533364,28.6586473 C60.0892419,28.4229687 59.78266,27.7648661 59.0526555,27.7528824 C58.9388107,29.2917839 60.1781207,31.2930549 61.7529732,30.4871539 C62.1394462,30.820699 63.5405356,31.5407172 63.5944621,32.1039492 C63.6513845,32.7450749 62.358148,33.5659555 61.8518384,33.9714026 C60.895143,34.7413527 58.7021335,36.405084 57.4927826,36.3531548 C57.1362687,34.7872901 55.9399001,33.5449841 55.4325919,31.969133 C54.8893327,30.2774399 54.1553336,29.4895143 53.0608261,28.1613255 C52.1660463,29.4575579 53.3823877,30.939537 53.8827054,32.2078075 C54.3930095,33.5030413 55.0081707,35.386473 56.0487517,36.2942351 C56.5940082,36.7715842 57.2351339,37.1520654 57.8093509,37.6923286 C60.6444848,36.300227 60.6974126,38.7498865 59.3911938,40.8190649 C58.8798911,41.6299591 58.413527,41.7617794 57.5596913,42.2221516 C56.4611893,42.8113482 56.4811621,43.0919655 55.8839764,44.1335452 C54.8983205,45.8512029 54.7764866,46.3075806 55.1230141,48.3378121 C55.5254653,50.6756241 54.1513391,50.1952792 52.9549705,51.7211984 L47.6921471,26.128098 Z M54.2621879,18.2118929 C53.0867907,18.9758511 52.5405356,18.288788 51.3611439,18.3477077 C49.9600545,18.4136178 48.6468452,20.7773945 50.4074444,21.3975488 C51.3591466,21.7330912 56.3373581,22.2284158 55.5883795,20.9201997 L55.5074898,21.0020881 C55.1210168,20.5536995 54.8633681,20.3499773 54.7125738,19.845665 C54.5238311,19.2235134 55.4915116,18.7311847 54.2621879,18.2118929 Z M58.9438039,24.0868815 C59.4820699,25.1674081 60.6674535,25.0206083 60.9290967,24.0449387 C61.1467998,23.2300499 60.4517476,22.3172946 60.2530186,21.6452111 C60.0253291,20.8782569 60.4177939,19.4851566 59.2873355,19.5231049 L59.7007717,19.3583296 C58.156877,19.4551975 57.8103495,19.83468 58.2936904,21.1339083 C58.4794371,21.6402179 58.8419428,21.9537903 58.9467998,22.5230141 C59.0386745,23.0103495 58.7121198,23.6205175 58.9438039,24.0868815 Z M72,35 C72,53.1941897 57.1971857,68 39,68 C20.8058103,68 6,53.1941897 6,35 C6,16.8048116 20.8058103,2 39,2 C57.1971857,2 72,16.8048116 72,35 Z M32.6496596,13.5372674 C32.5018611,13.4783477 32.3600545,13.4493872 32.2112574,13.4403995 L32.2492056,13.4403995 C32.2262369,13.4394008 32.2052655,13.4384022 32.1832955,13.4374035 L32.1583296,13.4374035 L32.1523377,13.4374035 C32.1034044,13.4364049 32.0534725,13.4364049 32.0035406,13.4403995 L32.0924194,13.4403995 C31.2006355,13.5033137 30.8111666,14.7096686 30.8650931,15.564503 C31.9925556,15.1151158 32.667635,14.94335 32.6496596,13.5372674 Z M36.3805719,14.6807081 C36.3625965,14.5538811 35.4598275,13.2896051 35.3300045,13.0189741 C35.1412619,12.6364957 34.8806173,12.3039492 34.6988652,11.9224694 L34.5510667,11.5519746 C34.5760327,11.6348616 34.6049932,11.7147526 34.6369496,11.7926464 C34.6599183,11.8315933 34.6788924,11.8715388 34.6968679,11.9154789 C34.6788924,11.876532 34.6529278,11.8355878 34.6369496,11.7926464 C34.3393554,11.2773491 33.7251929,11.4131639 33.4066273,11.9374489 C32.866364,12.8272356 33.7251929,12.7243759 33.8969587,13.3015887 C34.3213799,14.733636 33.1230141,15.1850204 33.1689514,16.3903768 C34.0407626,16.1676804 36.5513391,15.8571039 36.3805719,14.6807081 Z M58.7370858,48.738266 C58.9168407,49.6610077 58.871902,50.7924648 58.4664548,51.6353155 C58.250749,52.0827054 57.4019065,53.5566954 57.0314117,53.8133454 C55.7192011,54.7360872 55.9508852,53.419882 56.2065365,52.5880163 C56.3952792,51.9778484 56.5141171,50.7345438 56.8696323,50.2342261 C57.3320018,49.5871085 58.1968225,49.4502951 58.7370858,48.738266 Z" id="Fill-8" fill="#0160E0" mask="url(#mask-2)"></path>
                        <path d="M50.1,68.5 L76.3,68.5 L76.3,29.2 L50.1,29.2 L50.1,68.5 Z M63.2,75.2 C62,75.2 60.9,74.1 60.9,72.9 C60.9,71.7 62,70.6 63.2,70.6 C64.4,70.6 65.5,71.7 65.5,72.9 C65.5,74.1 64.5,75.2 63.2,75.2 Z M61.8,24.9 L64.6,24.9 C65.2,24.7 65.7,25.4 65.7,26 C65.7,26.6 65.2,27.1 64.6,27.1 L61.8,27.1 C61.2,27.1 60.7,26.6 60.7,26 C60.7,25.4 61.2,24.9 61.8,24.9 Z M78.1,23 L66.6,23 L48.244,23.1 L48.9,23.1 C47,22.9 45.5,24.3 45.5,26.2 L45.5,64.5 L45.5,67.4 L45.5,73.5 C45.5,75.4 47.1,76.9 48.9,76.9 L77.3,76.9 C79.2,76.9 80.7,75.3 80.7,73.5 L80.7,26.1 C80.8,24.5 79.6,23.3 78.1,23 Z" id="Fill-5" fill="#0160E0" mask="url(#mask-2)"></path>
                        <path d="M63.5623976,48.0001767 C66.0383976,48.0651767 68.0013976,49.1141767 69.4863976,51.0851767 C69.6673976,51.3261767 69.6413976,51.6331767 69.4303976,51.8581767 C69.2193976,52.0831767 69.0093976,52.3001767 68.7953976,52.5181767 C68.5613976,52.7581767 68.3443976,52.7421767 68.1583976,52.4621767 C67.6513976,51.7021767 67.0073976,51.0871767 66.2103976,50.6371767 C63.7283976,49.2381767 60.6323976,49.9911767 58.9993976,52.3841767 C58.9633976,52.4431767 58.9233976,52.5001767 58.8803976,52.5541767 C58.7373976,52.7151767 58.5293976,52.7341767 58.3773976,52.5841767 C58.1273976,52.3371767 57.8823976,52.0851767 57.6473976,51.8241767 C57.4563976,51.6121767 57.4523976,51.3121767 57.6273976,51.0751767 C58.8213976,49.4781767 60.3803976,48.4591767 62.3563976,48.1061767 C62.4973976,48.0811767 62.6393976,48.0581767 62.7823976,48.0441767 C63.0413976,48.0131767 63.3013976,47.9981767 63.5623976,48.0001767 Z M64.7899,41.99 C65.0039,42 65.2889,42.019 65.6229,42.061 C66.3279,42.154 67.0209,42.317 67.6929,42.549 C68.6459,42.879 69.5499,43.339 70.3779,43.915 C71.2589,44.527 72.0489,45.261 72.7229,46.095 C72.9779,46.409 72.9659,46.675 72.6869,46.966 C72.5039,47.157 72.3199,47.348 72.1359,47.539 C71.9659,47.726 71.6769,47.739 71.4899,47.569 C71.4679,47.549 71.4469,47.527 71.4299,47.502 C70.3929,46.182 69.1099,45.181 67.5499,44.554 C63.8129,43.055 59.5819,44.199 57.0509,47.384 C56.6879,47.842 56.5489,47.848 56.1429,47.428 C55.9829,47.262 55.8209,47.097 55.6639,46.929 C55.4549,46.706 55.4449,46.363 55.6399,46.128 C56.2079,45.436 57.4209,44.062 59.2279,43.176 C59.2279,43.176 60.8049,42.402 62.4049,42.118 C62.6579,42.073 62.9069,42.041 62.9069,42.041 C63.0259,42.026 63.2289,42.001 63.4959,41.984 C63.6739,41.973 63.8899,41.966 64.1369,41.97 L64.7899,41.99 Z M64.2352,53.6981 C65.6442,53.7321 66.8132,54.3051 67.7332,55.3931 C67.9302,55.6261 67.9172,55.9311 67.7032,56.1611 C67.4842,56.3971 67.2582,56.6271 67.0322,56.8571 C66.8342,57.0591 66.6212,57.0471 66.4472,56.8211 C66.3002,56.6211 66.1312,56.4381 65.9432,56.2761 C64.7522,55.2911 63.0592,55.4591 62.0842,56.6601 C62.0402,56.7131 62.0002,56.7701 61.9572,56.8231 C61.7782,57.0431 61.5692,57.0561 61.3702,56.8531 C61.1482,56.6261 60.9282,56.3981 60.7112,56.1691 C60.4792,55.9231 60.4752,55.6211 60.6972,55.3631 C61.6222,54.2881 62.7912,53.7261 64.2352,53.6981 Z" id="Fill-4" fill="#0160E0" mask="url(#mask-2)"></path>
                    </g>
                </g>
            </g>
        </g>
    </g>
</svg>