<?xml version="1.0" encoding="UTF-8"?>
<svg width="38px" height="38px" viewBox="0 0 38 38" version="1.1" xmlns="http://www.w3.org/2000/svg" xmlns:xlink="http://www.w3.org/1999/xlink">
    <!-- Generator: Sketch 50.2 (55047) - http://www.bohemiancoding.com/sketch -->
    <title>Group 9</title>
    <desc>Created with Sketch.</desc>
    <defs></defs>
    <g id="Page-1" stroke="none" stroke-width="1" fill="none" fill-rule="evenodd">
        <g id="Features-2" transform="translate(-1056.000000, -629.000000)" fill="#FFFFFF" fill-rule="nonzero">
            <g id="Group-9" transform="translate(1056.000000, 629.000000)">
                <g id="Call-Forward">
                    <path d="M24.2916667,4.83168317 L30.3083333,4.83168317 L28.5666667,6.57425743 C28.25,6.89108911 28.25,7.36633663 28.5666667,7.68316832 C28.5666667,8 28.8833333,8 29.0416667,8 C29.2,8 29.5166667,8 29.675,7.84158416 L32.8416667,4.67326733 C32.8416667,4.67326733 33,4.51485149 33,4.35643564 C33,4.1980198 33,3.88118812 33,3.72277228 C33,3.56435644 32.8416667,3.56435644 32.8416667,3.40594059 L29.675,0.237623762 C29.3583333,-0.0792079208 28.8833333,-0.0792079208 28.5666667,0.237623762 C28.25,0.554455446 28.25,1.02970297 28.5666667,1.34653465 L30.3083333,3.24752475 L24.2916667,3.24752475 C23.8166667,3.24752475 23.5,3.56435644 23.5,4.03960396 C23.5,4.51485149 23.8166667,4.83168317 24.2916667,4.83168317 Z" id="Shape"></path>
                    <path d="M35.9166667,3.95959596 L33.25,6.54545455 C32.9166667,6.86868687 32.9166667,7.35353535 33.25,7.67676768 C33.25,8 33.5833333,8 33.75,8 C33.9166667,8 34.25,8 34.4166667,7.83838384 L37.75,4.60606061 C38.0833333,4.28282828 38.0833333,3.7979798 37.75,3.47474747 L34.4166667,0.242424242 C34.0833333,-0.0808080808 33.5833333,-0.0808080808 33.25,0.242424242 C32.9166667,0.565656566 32.9166667,1.05050505 33.25,1.37373737 L35.9166667,3.95959596 Z" id="Shape"></path>
                    <path d="M35.1618257,25.3333333 C32.7966805,25.3333333 29.6431535,24.5416667 27.593361,23.9083333 C26.6473029,23.5916667 25.3858921,23.9083333 24.9128631,24.5416667 L20.4979253,27.7083333 C15.4522822,25.0166667 12.2987552,21.85 9.77593361,16.9416667 L13.560166,12.9833333 C14.3485477,12.1916667 14.5062241,11.2416667 14.1908714,10.1333333 C13.0871369,7.125 12.6141079,4.75 12.6141079,2.85 C12.6141079,1.26666667 11.3526971,0 9.77593361,0 L2.83817427,0 C1.26141079,0 0,1.26666667 0,2.85 C0,21.85 16.0829876,38 35.1618257,38 C36.7385892,38 38,36.7333333 38,35.15 L38,28.025 C37.8423237,26.6 36.5809129,25.3333333 35.1618257,25.3333333 Z" id="Shape"></path>
                </g>
            </g>
        </g>
    </g>
</svg>