<?xml version="1.0" encoding="UTF-8"?>
<svg width="97px" height="97px" viewBox="0 0 97 97" version="1.1" xmlns="http://www.w3.org/2000/svg" xmlns:xlink="http://www.w3.org/1999/xlink">
    <!-- Generator: Sketch 52.6 (67491) - http://www.bohemiancoding.com/sketch -->
    <title>calldetails</title>
    <desc>Created with Sketch.</desc>
    <g id="New-Section-" stroke="none" stroke-width="1" fill="none" fill-rule="evenodd">
        <g id="Artboard" transform="translate(-2.000000, -2.000000)" fill="#103F8A" fill-rule="nonzero">
            <path d="M50.5,2 C23.6633333,2 2,23.6633333 2,50.5 C2,77.3366667 23.6633333,99 50.5,99 C77.3366667,99 99,77.3366667 99,50.5 C99,23.6633333 77.3366667,2 50.5,2 Z M67.5,31 C70.4333333,31 73,33.5666667 73,36.5 C73,39.4333333 70.4333333,42 67.5,42 C64.5666667,42 62,39.4333333 62,36.5 C62,33.5666667 64.5666667,31 67.5,31 Z M33.5,31 C36.4333333,31 39,33.5666667 39,36.5 C39,39.4333333 36.4333333,42 33.5,42 C30.5666667,42 28,39.4333333 28,36.5 C28,33.5666667 30.5666667,31 33.5,31 Z M75.6524241,64.15348 C70.5511882,72.1060876 61.3051981,77 51.4215536,77 C41.537909,77 32.6107461,72.1060876 27.190683,64.4593495 C26.8718557,63.8476105 26.8718557,62.9300019 27.8283375,62.3182629 C28.465992,61.7065238 29.4224737,62.0123933 30.0601282,62.9300019 C34.8425369,69.965001 42.813218,74.2471743 51.4215536,74.2471743 C60.3487164,74.2471743 68.3193975,69.965001 73.1018062,62.9300019 C73.4206334,62.3182629 74.6959424,62.0123933 75.3335969,62.3182629 C75.9712514,62.6241324 76.2900786,63.5417409 75.6524241,64.15348 Z" id="calldetails"></path>
        </g>
    </g>
</svg>