<?xml version="1.0" encoding="UTF-8"?>
<svg width="11px" height="16px" viewBox="0 0 11 16" version="1.1" xmlns="http://www.w3.org/2000/svg" xmlns:xlink="http://www.w3.org/1999/xlink">
    <!-- Generator: Sketch 49.3 (51167) - http://www.bohemiancoding.com/sketch -->
    <title>Fill 1</title>
    <desc>Created with Sketch.</desc>
    <defs></defs>
    <g id="recharge-/-quick-recharge" stroke="none" stroke-width="1" fill="none" fill-rule="evenodd">
        <g id="Raza---recharge-6" transform="translate(-528.000000, -908.000000)" fill="#0160E0">
            <path d="M538.893315,921.839093 L537.146606,919.530661 C537.003177,919.338347 536.693247,919.185295 536.464385,919.187291 L535.726664,919.203262 C535.095579,919.590551 533.855858,920.162169 532.145318,916.99864 C530.435401,913.837771 531.517351,912.980012 532.147812,912.59006 L532.52821,911.917295 C532.647318,911.703686 532.676627,911.342349 532.593688,911.114101 L531.592807,908.345846 C531.509868,908.114271 531.256685,907.963215 531.0272,908.0078 L529.799951,908.246695 C527.417168,909.715334 527.397836,914.11127 529.755675,918.46994 C532.116632,922.831938 535.692366,925.012605 538.074525,923.543965 L538.885831,922.52783 C539.034249,922.340839 539.039237,922.028745 538.893315,921.839093 Z" id="Fill-1"></path>
        </g>
    </g>
</svg>