<?xml version="1.0" encoding="UTF-8"?>
<svg width="40px" height="40px" viewBox="0 0 40 40" version="1.1" xmlns="http://www.w3.org/2000/svg" xmlns:xlink="http://www.w3.org/1999/xlink">
    <!-- Generator: Sketch 50.2 (55047) - http://www.bohemiancoding.com/sketch -->
    <title>Shape</title>
    <desc>Created with Sketch.</desc>
    <defs></defs>
    <g id="Page-1" stroke="none" stroke-width="1" fill="none" fill-rule="evenodd">
        <g id="Features-2" transform="translate(-538.000000, -628.000000)" fill="#808080" fill-rule="nonzero">
            <path d="M558,628 C546.933333,628 538,636.933333 538,648 C538,659.066667 546.933333,668 558,668 C569.066667,668 578,659.066667 578,648 C578,636.933333 569.066667,628 558,628 Z M565,639 C566.066667,639 567,639.933333 567,641 C567,642.066667 566.066667,643 565,643 C563.933333,643 563,642.066667 563,641 C563,639.933333 563.933333,639 565,639 Z M551,639 C552.066667,639 553,639.933333 553,641 C553,642.066667 552.066667,643 551,643 C549.933333,643 549,642.066667 549,641 C549,639.933333 549.933333,639 551,639 Z M568.851039,653.861392 C566.664795,657.042435 562.702228,659 558.46638,659 C554.230532,659 550.404605,657.042435 548.081721,653.98374 C547.945081,653.739044 547.945081,653.372001 548.355002,653.127305 C548.628282,652.88261 549.038203,653.004957 549.311484,653.372001 C551.361087,656.186 554.777093,657.89887 558.46638,657.89887 C562.292307,657.89887 565.708313,656.186 567.757917,653.372001 C567.894557,653.127305 568.441118,653.004957 568.714399,653.127305 C568.987679,653.249653 569.124319,653.616696 568.851039,653.861392 Z" id="Shape"></path>
        </g>
    </g>
</svg>