<?xml version="1.0" encoding="UTF-8"?>
<svg width="98px" height="98px" viewBox="0 0 98 98" version="1.1" xmlns="http://www.w3.org/2000/svg" xmlns:xlink="http://www.w3.org/1999/xlink">
    <!-- Generator: Sketch 52.6 (67491) - http://www.bohemiancoding.com/sketch -->
    <title>callforwarding</title>
    <desc>Created with Sketch.</desc>
    <g id="New-Section-" stroke="none" stroke-width="1" fill="none" fill-rule="evenodd">
        <g id="Artboard" transform="translate(-1.000000, -1.000000)" fill="#103F8A" fill-rule="nonzero">
            <g id="callforwarding" transform="translate(1.000000, 1.000000)">
                <path d="M62.9166667,11.4752475 L77.4833333,11.4752475 L73.2666667,15.6138614 C72.5,16.3663366 72.5,17.4950495 73.2666667,18.2475248 C73.2666667,19 74.0333333,19 74.4166667,19 C74.8,19 75.5666667,19 75.95,18.6237624 L83.6166667,11.0990099 C83.6166667,11.0990099 84,10.7227723 84,10.3465347 C84,9.97029703 84,9.21782178 84,8.84158416 C84,8.46534653 83.6166667,8.46534653 83.6166667,8.08910891 L75.95,0.564356436 C75.1833333,-0.188118812 74.0333333,-0.188118812 73.2666667,0.564356436 C72.5,1.31683168 72.5,2.44554455 73.2666667,3.1980198 L77.4833333,7.71287129 L62.9166667,7.71287129 C61.7666667,7.71287129 61,8.46534653 61,9.59405941 C61,10.7227723 61.7666667,11.4752475 62.9166667,11.4752475 Z" id="Shape"></path>
                <path d="M93,9.4040404 L86.6,15.5454545 C85.8,16.3131313 85.8,17.4646465 86.6,18.2323232 C86.6,19 87.4,19 87.8,19 C88.2,19 89,19 89.4,18.6161616 L97.4,10.9393939 C98.2,10.1717172 98.2,9.02020202 97.4,8.25252525 L89.4,0.575757576 C88.6,-0.191919192 87.4,-0.191919192 86.6,0.575757576 C85.8,1.34343434 85.8,2.49494949 86.6,3.26262626 L93,9.4040404 Z" id="Shape"></path>
                <path d="M90.6804979,65.3333333 C84.5809129,65.3333333 76.4481328,63.2916667 71.1618257,61.6583333 C68.7219917,60.8416667 65.4688797,61.6583333 64.2489627,63.2916667 L52.8630705,71.4583333 C39.8506224,64.5166667 31.7178423,56.35 25.2116183,43.6916667 L34.9709544,33.4833333 C37.0041494,31.4416667 37.4107884,28.9916667 36.5975104,26.1333333 C33.7510373,18.375 32.5311203,12.25 32.5311203,7.35 C32.5311203,3.26666667 29.2780083,0 25.2116183,0 L7.31950207,0 C3.25311203,0 0,3.26666667 0,7.35 C0,56.35 41.4771784,98 90.6804979,98 C94.746888,98 98,94.7333333 98,90.65 L98,72.275 C97.593361,68.6 94.340249,65.3333333 90.6804979,65.3333333 Z" id="Shape"></path>
            </g>
        </g>
    </g>
</svg>