<?xml version="1.0" encoding="UTF-8"?>
<svg width="47px" height="47px" viewBox="0 0 47 47" version="1.1" xmlns="http://www.w3.org/2000/svg" xmlns:xlink="http://www.w3.org/1999/xlink">
    <!-- Generator: Sketch 50.2 (55047) - http://www.bohemiancoding.com/sketch -->
    <title>Shape</title>
    <desc>Created with Sketch.</desc>
    <defs>
        <linearGradient x1="3.061617e-15%" y1="50%" x2="100%" y2="50%" id="linearGradient-1">
            <stop stop-color="#E6167F" offset="0%"></stop>
            <stop stop-color="#FF8000" offset="100%"></stop>
        </linearGradient>
    </defs>
    <g id="Xtras-New-Section" stroke="none" stroke-width="1" fill="none" fill-rule="evenodd">
        <g id="Raza---Features-2" transform="translate(-515.000000, -615.000000)" fill="url(#linearGradient-1)" fill-rule="nonzero">
            <g id="Group-18" transform="translate(100.000000, 611.000000)">
                <g id="Group-6">
                    <g id="Group-17">
                        <path d="M438.5,4 C425.496667,4 415,14.4966667 415,27.5 C415,40.5033333 425.496667,51 438.5,51 C451.503333,51 462,40.5033333 462,27.5 C462,14.4966667 451.503333,4 438.5,4 Z M446.5,18 C447.833333,18 449,19.1666667 449,20.5 C449,21.8333333 447.833333,23 446.5,23 C445.166667,23 444,21.8333333 444,20.5 C444,19.1666667 445.166667,18 446.5,18 Z M430.5,18 C431.833333,18 433,19.1666667 433,20.5 C433,21.8333333 431.833333,23 430.5,23 C429.166667,23 428,21.8333333 428,20.5 C428,19.1666667 429.166667,18 430.5,18 Z M450.829759,34.0049573 C448.331194,37.7161742 443.802546,40 438.961577,40 C434.120608,40 429.748121,37.7161742 427.093396,34.1476964 C426.937235,33.8622182 426.937235,33.4340009 427.405716,33.1485227 C427.718037,32.8630444 428.186518,33.0057836 428.498838,33.4340009 C430.841243,36.7170004 434.74525,38.715348 438.961577,38.715348 C443.334065,38.715348 447.238072,36.7170004 449.580476,33.4340009 C449.736637,33.1485227 450.361278,33.0057836 450.673598,33.1485227 C450.985919,33.2912618 451.142079,33.7194791 450.829759,34.0049573 Z" id="Shape"></path>
                    </g>
                </g>
            </g>
        </g>
    </g>
</svg>