<?xml version="1.0" encoding="UTF-8"?>
<svg width="17px" height="16px" viewBox="0 0 17 16" version="1.1" xmlns="http://www.w3.org/2000/svg" xmlns:xlink="http://www.w3.org/1999/xlink">
    <!-- Generator: Sketch 49.3 (51167) - http://www.bohemiancoding.com/sketch -->
    <title>Fill 1</title>
    <desc>Created with Sketch.</desc>
    <defs></defs>
    <g id="recharge-/-quick-recharge" stroke="none" stroke-width="1" fill="none" fill-rule="evenodd">
        <g id="Raza---recharge-6" transform="translate(-336.000000, -908.000000)" fill="#0160E0">
            <path d="M339.750587,924 C339.71066,924 339.667513,923.990127 339.630161,923.970999 C339.547087,923.927806 339.49428,923.84327 339.49428,923.754416 L339.49428,920.237254 C337.240321,919.111762 336,917.145237 336,914.68199 C336,910.873583 339.655277,908 344.5,908 C349.347943,908 353,910.873583 353,914.68199 C353,918.48978 349.347943,921.360895 344.5,921.360895 C344.341579,921.360895 344.185734,921.35349 344.029889,921.346086 L344.019585,921.343617 L339.894197,923.959275 C339.851049,923.985808 339.800818,924 339.750587,924 Z" id="Fill-1" transform="translate(344.500000, 916.000000) scale(-1, 1) translate(-344.500000, -916.000000) "></path>
        </g>
    </g>
</svg>