<?xml version="1.0" encoding="UTF-8"?>
<svg width="60px" height="60px" viewBox="0 0 60 60" version="1.1" xmlns="http://www.w3.org/2000/svg" xmlns:xlink="http://www.w3.org/1999/xlink">
    <!-- Generator: Sketch 50.2 (55047) - http://www.bohemiancoding.com/sketch -->
    <title>Group 29</title>
    <desc>Created with Sketch.</desc>
    <defs></defs>
    <g id="Page-1" stroke="none" stroke-width="1" fill="none" fill-rule="evenodd">
        <g id="Raza---Homepage-" transform="translate(-591.000000, -1431.000000)">
            <g id="Group-4" transform="translate(70.000000, 1288.000000)">
                <g id="Group-18" transform="translate(0.000000, 143.000000)">
                    <g id="Group-16">
                        <g id="Group-7" transform="translate(450.000000, 0.000000)">
                            <g id="Group-16-Copy" transform="translate(71.000000, 0.000000)">
                                <g id="Group-29">
                                    <circle id="Oval-2" fill="#E9C163" cx="30" cy="30" r="30"></circle>
                                    <path d="M38,32 L32,32 L32,38 L28,38 L28,32 L22,32 L22,28 L28,28 L28,22 L32,22 L32,28 L38,28 L38,32 Z M30,14 C21.2,14 14,21.2 14,30 C14,38.8 21.2,46 30,46 C38.8,46 46,38.8 46,30 C46,21.2 38.8,14 30,14 Z M44,30 C44,37.7 37.7,44 30,44 C22.3,44 16,37.7 16,30 C16,22.3 22.3,16 30,16 C37.7,16 44,22.3 44,30 Z" id="Shape" fill="#FFFFFF" fill-rule="nonzero"></path>
                                </g>
                            </g>
                        </g>
                    </g>
                </g>
            </g>
        </g>
    </g>
</svg>