<?xml version="1.0" encoding="UTF-8"?>
<svg width="56px" height="37px" viewBox="0 0 56 37" version="1.1" xmlns="http://www.w3.org/2000/svg" xmlns:xlink="http://www.w3.org/1999/xlink">
    <!-- Generator: Sketch 49.3 (51167) - http://www.bohemiancoding.com/sketch -->
    <title>Group</title>
    <desc>Created with Sketch.</desc>
    <defs>
        <linearGradient x1="3.061617e-15%" y1="50%" x2="100%" y2="50%" id="linearGradient-1">
            <stop stop-color="#E6167F" offset="0%"></stop>
            <stop stop-color="#FF8000" offset="100%"></stop>
        </linearGradient>
    </defs>
    <g id="Page-1" stroke="none" stroke-width="1" fill="none" fill-rule="evenodd">
        <g id="Become-a-Partner" transform="translate(-590.000000, -680.000000)" fill="url(#linearGradient-1)" fill-rule="nonzero">
            <g id="Group-15" transform="translate(148.000000, 607.000000)">
                <g id="Group" transform="translate(442.000000, 73.000000)">
                    <g id="Group-13">
                        <path d="M42,0 C38.3181,0 35.3333333,2.95795533 35.3333333,6.60678184 C35.3333333,10.2556084 38.3181,13.2135505 42,13.2135505 C45.6819,13.2135505 48.6666667,10.2556084 48.6666667,6.60678184 C48.6666667,2.95795533 45.6819,0 42,0 Z M25.2916667,5.28542547 C22.3461467,5.28542547 19.9583333,7.65178974 19.9583333,10.5708509 C19.9583333,13.4899122 22.3461467,15.8562632 25.2916667,15.8562632 C28.2371867,15.8562632 30.625,13.4899122 30.625,10.5708509 C30.625,7.65178974 28.2371867,5.28542547 25.2916667,5.28542547 Z M10,11.2315291 C7.79086,11.2315291 6,13.0062957 6,15.195585 C6,17.3848611 7.79086,19.1596409 10,19.1596409 C12.20914,19.1596409 14,17.3848611 14,15.195585 C14,13.0062957 12.20914,11.2315291 10,11.2315291 Z M42,18.4989627 C38.44132,18.4989627 35.2153733,19.2114381 32.75,20.4190917 C33.5204867,20.7092616 34.2499467,21.0497091 34.9166667,21.4307222 C37.4633,22.8861962 39.2916667,25.1087176 39.2916667,27.7484573 L39.2916667,37 L56,37 L56,26.4271009 C56,21.8722534 49.756,18.4989627 42,18.4989627 Z M25.2916667,20.4809973 C21.29872,20.4809973 17.77224,21.5227546 15.4583333,23.1650024 C16.2574533,23.3927382 17.0068267,23.667316 17.6875,24.0115294 C19.7604733,25.0598274 21.3333333,26.8238382 21.3333333,29.0492005 L21.3333333,37 L37.9583333,37 L37.9583333,27.7484573 C37.9583333,23.6816528 32.309,20.4809973 25.2916667,20.4809973 Z M10,23.7843882 C4.46,23.7843882 0,25.8155112 0,29.0698137 L0,37 L20,37 L20,29.0698137 C20,25.8155112 15.54,23.7843882 10,23.7843882 Z" id="Shape"></path>
                    </g>
                </g>
            </g>
        </g>
    </g>
</svg>