<?xml version="1.0" encoding="UTF-8"?>
<svg width="52px" height="52px" viewBox="0 0 52 52" version="1.1" xmlns="http://www.w3.org/2000/svg" xmlns:xlink="http://www.w3.org/1999/xlink">
    <!-- Generator: Sketch 49.3 (51167) - http://www.bohemiancoding.com/sketch -->
    <title>Shape</title>
    <desc>Created with Sketch.</desc>
    <defs>
        <linearGradient x1="3.061617e-15%" y1="50%" x2="100%" y2="50%" id="linearGradient-1">
            <stop stop-color="#E6167F" offset="0%"></stop>
            <stop stop-color="#FF8000" offset="100%"></stop>
        </linearGradient>
    </defs>
    <g id="Page-1" stroke="none" stroke-width="1" fill="none" fill-rule="evenodd">
        <g id="Become-a-Partner" transform="translate(-148.000000, -671.000000)" fill="url(#linearGradient-1)" fill-rule="nonzero">
            <g id="Group-15" transform="translate(148.000000, 607.000000)">
                <path d="M25.9982667,64 L0,90.7615111 L6.81662222,90.7615111 L6.81662222,116 L45.1822222,116 L45.1822222,90.7615111 L52,90.7615111 L25.9982667,64 Z M32.9631092,106.044273 C31.8513171,107.036804 30.4086202,107.677705 28.6655361,107.956584 L28.6655361,111 L24.8831691,111 L24.8831691,107.991805 C23.0832388,107.741218 21.5346285,107.09743 20.2702492,106.065059 C18.7144583,104.799423 17.9515224,102.909629 18.0023848,100.449376 L18.1130853,100.031924 L18.4027018,99.492643 L19.098619,99.4002608 L21.9995706,99.4002608 L21.9995706,100.377202 C21.9995706,101.888806 22.4130519,102.922909 23.2639499,103.534941 C24.1956292,104.205867 25.3068229,104.532669 26.6579675,104.532669 C28.0360392,104.532669 29.0754271,104.223189 29.8377647,103.585752 C30.5653961,102.980071 30.9196377,102.226579 30.9196377,101.28659 C30.9196377,100.423394 30.6336115,99.7432297 30.0454029,99.212032 C29.5756737,98.7870739 28.5320971,98.1196126 26.2235428,97.3505308 C23.7893285,96.6322593 21.9935868,95.7580928 20.7669055,94.6974297 C19.4468768,93.5524679 18.7778867,91.9554107 18.7778867,89.9449432 C18.7778867,88.0262805 19.4355076,86.425759 20.7339946,85.1936115 C21.8134741,84.1641274 23.2232599,83.5059043 24.9328348,83.2304898 L24.9328348,80 L28.7152017,80 L28.7152017,83.2414602 C30.4732454,83.5503632 31.896794,84.2876886 32.9547318,85.4441982 C34.1850034,86.7843174 34.7899667,88.5776867 34.752867,90.7769603 L34.6780694,91.1245483 L34.4141833,91.7383125 L33.6721908,91.8145278 L30.7532877,91.8145278 L30.7532877,90.8375861 C30.7532877,89.5563606 30.4038332,88.5551686 29.6851775,87.7768486 C29.0042198,87.0412554 28.0575809,86.682697 26.7914065,86.682697 C25.4546231,86.682697 24.4517363,86.9852486 23.8078783,87.5834234 C23.1586348,88.1891041 22.8426896,88.9518346 22.8426896,89.9126094 C22.8426896,90.8277705 23.1125594,91.5304526 23.6684555,92.0570311 C24.1016834,92.4692866 25.1303005,93.1194263 27.5812695,93.8711864 C30.0238612,94.6339169 31.7992579,95.5092382 33.0163651,96.5525796 C34.3328035,97.6802198 34.9999984,99.2611101 34.9999984,101.254833 C35.0011952,103.228925 34.3148521,104.840417 32.9631092,106.044273 Z" id="Shape"></path>
            </g>
        </g>
    </g>
</svg>