<?xml version="1.0" encoding="UTF-8"?>
<svg width="26px" height="26px" viewBox="0 0 26 26" version="1.1" xmlns="http://www.w3.org/2000/svg" xmlns:xlink="http://www.w3.org/1999/xlink">
    <!-- Generator: Sketch 50.2 (55047) - http://www.bohemiancoding.com/sketch -->
    <title>Group 3</title>
    <desc>Created with Sketch.</desc>
    <defs></defs>
    <g id="Page-1" stroke="none" stroke-width="1" fill="none" fill-rule="evenodd">
        <g id="Group-3" fill="#0B203E" fill-rule="nonzero">
            <g id="money">
                <path d="M16.512806,6.74025806 C17.4244251,7.81283871 17.9908521,9.27335484 17.9998821,10.854 C18.0195839,14.1909677 15.56794,17 12.5350928,17 C12.5236001,17 12.5112865,17 12.4993833,17 C9.48295425,17 7.01940723,14.2555484 7.00011587,10.932129 C6.98862315,8.97258065 7.83292775,7.17154839 9.14309805,6.0556129 L9.14309805,3.4516129 C9.14309805,3.20187097 9.3269816,3 9.5535524,3 C9.78012321,3 9.96400676,3.20187097 9.96400676,3.4516129 L9.96400676,5.4743871 C10.7139069,5.04354839 11.562316,4.80645161 12.4649051,4.80645161 C12.4763979,4.80645161 12.4887115,4.80645161 12.5006147,4.80645161 C13.6983205,4.80645161 14.8053159,5.21516129 15.7103677,5.93412903 L15.7103677,3.90322581 C15.7103677,3.65348387 15.8938408,3.4516129 16.1208221,3.4516129 C16.3478033,3.4516129 16.5312764,3.65348387 16.5312764,3.90322581 L16.5312764,6.61290323 C16.5312764,6.64812903 16.5197837,6.70729032 16.512806,6.74025806 Z M14.9999723,12.108125 L14.9964889,11.7335 C14.9940007,11.43275 14.8367498,11.151125 14.5526035,10.94 C14.2684572,10.72925 13.8773205,10.60775 13.4941459,10.617875 L12.4988873,10.625 C12.2232006,10.625 11.9997651,10.455875 11.9982722,10.25 L11.9952864,9.87425 C11.9937935,9.66725 12.2152386,9.497375 12.4899299,9.49625 L12.9756162,9.493625 C12.9915403,9.494375 13.0054739,9.5 13.0223933,9.5 C13.0422985,9.5 13.0567297,9.493625 13.0731515,9.4925 L14.479452,9.48575 C14.754641,9.48425 14.9760861,9.322625 14.9740955,9.115625 C14.972105,8.909 14.7501623,8.75 14.4764662,8.75 C14.4758027,8.75 14.1558271,8.749125 13.5165392,8.747375 L13.5135535,8.376125 C13.5120606,8.169875 13.2891226,8 13.0159241,8 C12.738247,8.0015 12.5168019,8.172875 12.5182948,8.379875 L12.5212806,8.75 L12.4834608,8.75 C11.6603819,8.75 10.9950514,9.25925 11.0000277,9.879875 L11.0030135,10.256 C11.0084874,10.874 11.6773012,11.375 12.4963991,11.375 C12.4983896,11.375 12.8332942,11.375 13.5011127,11.375 C13.6354727,11.375 13.7593824,11.40875 13.8539319,11.478125 C13.9479839,11.548625 14.0007326,11.640125 14.0017278,11.740625 L14.0052112,12.114125 C14.0072018,12.321125 13.7852591,12.489875 13.5105677,12.491 L11.5200504,12.500375 C11.245359,12.501875 11.0239139,12.670625 11.0254068,12.877625 C11.0268997,13.083875 11.2498377,13.25 11.5230362,13.25 C11.5236997,13.25 11.8564478,13.248375 12.5212806,13.245125 L12.5242664,13.627625 C12.5257593,13.833875 12.7486972,14 13.0218957,14 C13.2995729,13.9985 13.5215155,13.82975 13.519525,13.622375 L13.5165392,13.24025 C14.3396181,13.236125 15.0049486,12.72875 14.9999723,12.108125 Z M9.5,10 C9.77614237,10 10,9.77614237 10,9.5 C10,9.22385763 9.77614237,9 9.5,9 C9.22385763,9 9,9.22385763 9,9.5 C9,9.77614237 9.22385763,10 9.5,10 Z M16.5,10 C16.7761424,10 17,9.77614237 17,9.5 C17,9.22385763 16.7761424,9 16.5,9 C16.2238576,9 16,9.22385763 16,9.5 C16,9.77614237 16.2238576,10 16.5,10 Z" id="Combined-Shape"></path>
                <path d="M9.5,0 C9.224,0 9,0.2235 9,0.5 L9,1.5 C9,1.7765 9.224,2 9.5,2 C9.776,2 10,1.7765 10,1.5 L10,0.5 C10,0.2235 9.776,0 9.5,0 Z" id="Shape"></path>
                <path d="M17.5,0 C17.2235,0 17,0.2235 17,0.5 L17,1.5 C17,1.7765 17.2235,2 17.5,2 C17.7765,2 18,1.7765 18,1.5 L18,0.5 C18,0.2235 17.7765,0 17.5,0 Z" id="Shape"></path>
                <path d="M5.5,9 C5.224,9 5,9.2235 5,9.5 L5,13.5 C5,13.7765 5.224,14 5.5,14 C5.776,14 6,13.7765 6,13.5 L6,9.5 C6,9.2235 5.776,9 5.5,9 Z" id="Shape"></path>
                <path d="M5.5,7 C5.224,7 5,7.2235 5,7.5 L5,8.5 C5,8.7765 5.224,9 5.5,9 C5.776,9 6,8.7765 6,8.5 L6,7.5 C6,7.2235 5.776,7 5.5,7 Z" id="Shape"></path>
                <path d="M21.5,6 C21.2235,6 21,6.2235 21,6.5 L21,10.5 C21,10.7765 21.2235,11 21.5,11 C21.7765,11 22,10.7765 22,10.5 L22,6.5 C22,6.2235 21.7765,6 21.5,6 Z" id="Shape"></path>
                <path d="M21.5,4 C21.2235,4 21,4.2235 21,4.5 L21,5.5 C21,5.7765 21.2235,6 21.5,6 C21.7765,6 22,5.7765 22,5.5 L22,4.5 C22,4.2235 21.7765,4 21.5,4 Z" id="Shape"></path>
                <path d="M25.5662406,18 L20.7996533,18 C20.2354627,18 19.758804,18.319619 19.579407,18.7619048 L17.4101765,18.7619048 C17.1757471,18.7619048 16.9872502,18.9260952 16.9794503,19.1306667 L13.3642106,18.4095238 C13.1033483,18.3577143 12.8325195,18.375619 12.5833569,18.4628571 L9.19041349,19.6460952 C8.75232079,19.7988571 8.43122615,20.1089524 8.29906168,20.4838095 L1.67307212,18.7752381 C1.26921218,18.672 0.845419243,18.7379048 0.510891485,18.9580952 C0.186330228,19.1721905 0,19.4967619 0,19.8491429 L0,20.6754286 C0,21.0533333 0.21839636,21.4030476 0.583690272,21.6106667 L5.39751004,24.3493333 C5.439976,24.3733333 5.48720855,24.3908571 5.53660772,24.4007619 L12.7038216,25.839619 C12.8008867,25.8594286 12.9005517,25.8689524 12.9997833,25.8689524 C13.0994483,25.8689524 13.19868,25.8594286 13.2957451,25.839619 L17.0678489,25.0788571 C17.1462809,25.1729524 17.2671789,25.2380952 17.4106098,25.2380952 L19.5798403,25.2380952 C19.7592373,25.680381 20.2358961,26 20.8000867,26 L25.5666739,26 C25.8063032,26 26,25.8297143 26,25.6190476 L26,18.3809524 C25.9995667,18.1702857 25.8058699,18 25.5662406,18 Z M16.8724188,24.3367619 L13.101615,25.0971429 C13.0353161,25.1108571 12.9646839,25.1108571 12.8975184,25.0971429 L5.80440326,23.6731429 L1.05428243,20.9706667 C0.936851052,20.903619 0.866652222,20.7935238 0.866652222,20.6750476 L0.866652222,19.8487619 C0.866652222,19.6979048 0.968917185,19.608381 1.03001617,19.568381 C1.14441426,19.4933333 1.28914518,19.4697143 1.42867619,19.5066667 L8.30859486,21.2830476 C8.51052482,21.808 9.08814853,22.1904762 9.76717055,22.1904762 L12.9997833,22.1904762 C13.2389794,22.1904762 13.4331094,22.0201905 13.4331094,21.8095238 C13.4331094,21.5988571 13.2389794,21.4285714 12.9997833,21.4285714 L9.76717055,21.4285714 C9.39927668,21.4285714 9.09984834,21.1782857 9.09984834,20.872381 C9.09984834,20.6460952 9.26104565,20.4430476 9.51064149,20.3558095 L12.9035849,19.1718095 C12.9893835,19.1417143 13.082982,19.1352381 13.1731138,19.1531429 L16.897985,19.896 L16.8724188,24.3367619 Z M19.499675,24.4761905 L17.7663706,24.4761905 L17.7663706,19.5238095 L19.499675,19.5238095 L19.499675,24.4761905 Z M25.1329145,25.2380952 L20.7996533,25.2380952 C20.5604573,25.2380952 20.3663272,25.0674286 20.3663272,24.8571429 L20.3663272,19.1428571 C20.3663272,18.9325714 20.5604573,18.7619048 20.7996533,18.7619048 L25.1329145,18.7619048 L25.1329145,25.2380952 Z" id="Shape"></path>
                <path d="M23.6,23 L22.4,23 C22.1788,23 22,23.2235 22,23.5 C22,23.7765 22.1788,24 22.4,24 L23.6,24 C23.8212,24 24,23.7765 24,23.5 C24,23.2235 23.8212,23 23.6,23 Z" id="Shape"></path>
            </g>
        </g>
    </g>
</svg>