<?xml version="1.0" encoding="UTF-8"?>
<svg width="23px" height="28px" viewBox="0 0 23 28" version="1.1" xmlns="http://www.w3.org/2000/svg" xmlns:xlink="http://www.w3.org/1999/xlink">
    <!-- Generator: Sketch 50.2 (55047) - http://www.bohemiancoding.com/sketch -->
    <title>Page 1</title>
    <desc>Created with Sketch.</desc>
    <defs>
        <polygon id="path-1" points="0.101008992 0.0610736023 19.8750538 0.0610736023 19.8750538 24 0.101008992 24"></polygon>
        <polygon id="path-3" points="0 0.102431718 6.93134148 0.102431718 6.93134148 6.8239395 0 6.8239395"></polygon>
        <polygon id="path-5" points="0.25937592 0.333 1.87322895 0.333 1.87322895 4.87790755 0.25937592 4.87790755"></polygon>
    </defs>
    <g id="Page-1" stroke="none" stroke-width="1" fill="none" fill-rule="evenodd">
        <g>
            <g id="Group-3" transform="translate(3.000000, 4.000000)">
                <mask id="mask-2" fill="white">
                    <use xlink:href="#path-1"></use>
                </mask>
                <g id="Clip-2"></g>
                <path d="M3.70717143,21.4484727 C5.18374286,20.7437455 5.62888571,20.0117455 5.43117143,18.5949273 C6.2866,18.6892909 7.05488571,18.5128364 7.66402857,17.9038364 C8.27631429,17.2918364 8.4506,16.5606545 8.28431429,15.7812 C8.71002857,15.7263818 9.13717143,15.7288364 9.5246,15.6115636 C11.2443143,15.0906545 11.7631714,13.0468364 10.4871714,11.8282909 C9.68345714,11.0605636 8.84631429,10.3244727 8.02231429,9.57638182 C5.83717143,7.59256364 3.65117143,5.60983636 1.46545714,3.62656364 C1.17831429,3.36610909 0.883171429,3.11329091 0.606028571,2.84356364 C-0.0554,2.19992727 -0.0668285714,1.20310909 0.570028571,0.5652 C1.20431429,-0.0699818182 2.25745714,-0.117709091 2.95488571,0.494836364 C3.9986,1.41147273 5.01974286,2.35156364 6.04974286,3.28238182 C7.55288571,4.64083636 9.0546,6.00147273 10.5591714,7.35829091 C10.9706,7.7292 11.4266,8.0382 11.9548857,8.24601818 C12.6746,8.52910909 13.3417429,8.44810909 13.9123143,7.94465455 C14.1994571,7.69129091 14.4563143,7.39265455 14.6674571,7.0782 C15.1634571,6.33992727 15.6023143,5.5662 16.1043143,4.83174545 C16.7820286,3.83983636 18.1563143,3.65301818 19.1254571,4.38965455 C19.9237429,4.99647273 20.1117429,6.07729091 19.5571714,6.96556364 C18.7726,8.22229091 17.9766,9.47247273 17.1848857,10.7253818 C16.7957429,11.3414727 16.4103143,11.9597455 16.0117429,12.5703818 C15.9040286,12.7351091 15.9046,12.8657455 15.9951714,13.0397455 C16.3643143,13.7488364 16.7117429,14.4680182 17.0740286,15.1803818 C18.2700286,17.5310182 17.3586,20.1402 14.9117429,21.2935636 C13.2523143,22.0754727 11.5831714,22.8393818 9.9046,23.5831091 C7.72345714,24.5493818 5.15317143,23.7838364 3.9186,21.8259273 C3.84174286,21.7037455 3.77717143,21.5742 3.70717143,21.4484727" id="Fill-1" fill="#0B203E" mask="url(#mask-2)"></path>
            </g>
            <path d="M3.78649992,14 C4.03918985,14.0047901 4.41250655,14.140603 4.71829404,14.4378699 C6.3155776,15.9904204 7.9155841,17.5404349 9.50252044,19.1042561 C10.1508553,19.7430278 10.1609302,20.7931831 9.55943013,21.4556234 C8.93750793,22.1403235 7.93518935,22.1904785 7.26289254,21.5415631 C5.86520136,20.1924503 4.48003575,18.829249 3.08942425,17.4719649 C2.89473319,17.2817704 2.69323475,17.098902 2.50290042,16.9041992 C2.01113531,16.4006769 1.86818034,15.6728661 2.12658847,15.0228236 C2.37165414,14.4065935 2.96416846,14.0011271 3.78649992,14" id="Fill-4" fill="#0B203E"></path>
            <path d="M12.0588582,18.8268803 C11.4544776,19.1101076 10.8446325,19.0543631 10.3421659,18.5963007 C9.592428,17.9127263 8.87875616,17.1866397 8.15087646,16.4777269 C7.2806449,15.6305789 6.40959367,14.7842755 5.54264086,13.933749 C5.09290738,13.4925789 4.90547289,12.9514628 5.04563891,12.3225068 C5.33662686,11.0170149 6.81342483,10.5645832 7.78065236,11.4832419 C8.38230067,12.0547641 8.97001435,12.6420525 9.5642855,13.2220209 C10.469217,14.1046426 11.3697769,14.9920506 12.2812659,15.8676339 C12.6881026,16.2584087 13.0077795,16.6843758 12.9998558,17.5267376 C12.9837354,17.9963431 12.6831844,18.5340808 12.0588582,18.8268803 Z" id="Fill-6" fill="#0B203E"></path>
            <g id="Group-10" transform="translate(0.000000, 18.000000)">
                <mask id="mask-4" fill="white">
                    <use xlink:href="#path-3"></use>
                </mask>
                <g id="Clip-9"></g>
                <path d="M1.60406296,0.102511111 C2.02095185,0.0978444444 2.38676667,0.299288889 2.70902593,0.605474074 C3.7331,1.57925185 4.75872963,2.55147407 5.7841,3.5236963 C5.9941,3.72306667 6.2098037,3.91647407 6.41643333,4.11947407 C7.07391481,4.76606667 7.10476667,5.73284444 6.49161852,6.35895556 C5.88676667,6.97677037 4.9313963,6.9804 4.27469259,6.36102963 C3.06991481,5.22443704 1.87265556,4.07954815 0.663211111,2.94788148 C0.195507407,2.51025185 -0.101085185,2.01973333 0.0319148148,1.35291852 C0.182025926,0.598733333 0.797248148,0.0981037037 1.60406296,0.102511111" id="Fill-8" fill="#0B203E" mask="url(#mask-4)"></path>
            </g>
            <path d="M17.8817367,7 C17.4771126,6.9669247 17.2262657,6.84266885 17.0844972,6.57806647 C16.9330551,6.29558554 16.9907632,6.03098316 17.2129228,5.79886012 C17.2986511,5.70946742 17.4123995,5.63914517 17.51981,5.56852494 C18.228319,5.10368291 18.9351602,4.637351 19.64934,4.17966039 C20.0819842,3.90224506 20.56333,3.95230497 20.8358591,4.28693163 C21.1170612,4.63258339 21.0350022,5.04349183 20.6046931,5.33044239 C19.8644946,5.82389008 19.1189589,6.31108028 18.3667518,6.78962919 C18.2033011,6.89362269 18.0011558,6.94964211 17.8817367,7" id="Fill-11" fill="#0B203E"></path>
            <path d="M12,5.10889932 C11.9997018,5.5175274 11.819896,5.82316247 11.5640528,5.93919679 C11.2950896,6.06125018 10.9330924,6.00172825 10.7577593,5.74090182 C10.1971707,4.90692604 9.64373842,4.065928 9.11535377,3.20620396 C8.89141648,2.84171575 9.01128704,2.37423453 9.3219963,2.13915636 C9.62912733,1.90675332 10.0522525,1.96527207 10.287819,2.31605018 C10.8239565,3.11458032 11.3454829,3.92581739 11.8631329,4.73972961 C11.9439411,4.86780207 11.9737597,5.03600168 12,5.10889932" id="Fill-13" fill="#0B203E"></path>
            <path d="M15.8466609,5 C15.2054721,4.9978276 14.8321036,4.49693516 15.0744341,3.93956043 C15.2094212,3.62921815 15.3817452,3.33097921 15.5368368,3.02715412 C15.8017848,2.50857217 16.0556037,1.98564543 16.3341941,1.47264964 C16.54924,1.07665289 16.9721517,0.917447297 17.4008076,1.04096352 C17.8736214,1.17720379 18.1324664,1.58623491 17.9310627,2.01016247 C17.5117411,2.89246557 17.0518515,3.76080327 16.594116,4.62914097 C16.4551798,4.8935526 16.1765894,4.9978276 15.8466609,5" id="Fill-15" fill="#0B203E"></path>
            <g id="Group-19" transform="translate(12.000000, 0.000000)">
                <mask id="mask-6" fill="white">
                    <use xlink:href="#path-5"></use>
                </mask>
                <g id="Clip-18"></g>
                <path d="M1.87288571,3.9068 C1.88345714,4.48246667 1.64917143,4.83113333 1.26174286,4.87413333 C0.8826,4.91613333 0.559457143,4.60413333 0.510028571,4.11113333 C0.417171429,3.18013333 0.3326,2.2478 0.263171429,1.31413333 C0.2486,1.11746667 0.275457143,0.888466667 0.352885714,0.717466667 C0.489171429,0.4158 0.742314286,0.287133333 1.03402857,0.347466667 C1.33774286,0.410466667 1.54945714,0.6238 1.59174286,0.991133333 C1.66974286,1.66913333 1.7286,2.35013333 1.79402857,3.03013333 C1.82374286,3.3408 1.85002857,3.6518 1.87288571,3.9068" id="Fill-17" fill="#0B203E" mask="url(#mask-6)"></path>
            </g>
        </g>
    </g>
</svg>