<?xml version="1.0" encoding="UTF-8"?>
<svg width="21px" height="26px" viewBox="0 0 21 26" version="1.1" xmlns="http://www.w3.org/2000/svg" xmlns:xlink="http://www.w3.org/1999/xlink">
    <!-- Generator: Sketch 50.2 (55047) - http://www.bohemiancoding.com/sketch -->
    <title>noun_437082_cc</title>
    <desc>Created with Sketch.</desc>
    <defs></defs>
    <g id="Page-1" stroke="none" stroke-width="1" fill="none" fill-rule="evenodd">
        <g id="Features-2" transform="translate(-435.000000, -1036.000000)" fill="#0B203E" fill-rule="nonzero">
            <g id="noun_437082_cc" transform="translate(435.000000, 1036.000000)">
                <path d="M20.9880696,6.32265008 C20.9870778,6.327785 20.9874084,6.33291992 20.9864165,6.33805484 L20.9860859,6.33976648 C20.9857553,6.34079346 20.9857553,6.34182044 20.9854247,6.34284743 L20.0752525,10.6346123 C20.0157425,10.9142942 19.7767107,11.1053131 19.5108994,11.1053131 C19.469573,11.1053131 19.427916,11.1005206 19.386259,11.0912777 C19.0741622,11.0200735 18.8764568,10.7006816 18.9452239,10.377524 L19.5591686,7.48211467 L15.0076461,10.4589981 C14.9117689,10.5216441 14.8049815,10.5517689 14.699186,10.5517689 C14.507101,10.5517689 14.3196445,10.4528362 14.209551,10.2727717 C14.0386251,9.99308981 14.1196248,9.62303335 14.3897341,9.44639215 L18.9217505,6.48217488 L16.1482543,5.85160689 C15.8361574,5.78040269 15.638452,5.46101076 15.7072191,5.13785322 C15.7756556,4.81435336 16.0867606,4.61135292 16.3962126,4.68118781 L20.545712,5.6246435 C20.5467038,5.62498582 20.5473651,5.62532815 20.5483569,5.62567048 C20.5847241,5.63422868 20.6204301,5.64621015 20.6548137,5.66161491 C20.6769646,5.67154242 20.6968013,5.68489321 20.7169685,5.69755934 C20.7288705,5.70509055 20.7417644,5.7105678 20.7533357,5.719126 C20.7761479,5.73590006 20.7963152,5.75541275 20.8164825,5.77492544 C20.8237559,5.78211433 20.8323518,5.78759158 20.8392946,5.79546512 C20.8657435,5.82422066 20.8895475,5.8553725 20.9100454,5.88892063 C20.910376,5.88926296 20.9107066,5.88960529 20.9110372,5.88994762 C20.9156658,5.89747883 20.9183107,5.90603703 20.9226086,5.91356824 C20.9368249,5.93958516 20.9507106,5.96594441 20.9612901,5.99367297 C20.9679023,6.01113169 20.9712084,6.02927507 20.9761676,6.04707612 C20.9814574,6.06658881 20.9880696,6.08575917 20.9913757,6.10595652 C20.9950124,6.12786551 20.995343,6.15011682 20.9966655,6.17236813 C20.9976573,6.1891422 21.0003022,6.20523161 20.9999716,6.22200568 C20.9986492,6.25589614 20.9940206,6.28944427 20.9880696,6.32265008 Z M16.6127628,25.5587393 L18.4337685,24.3499795 C19.0070481,23.9693109 19.4094018,23.3852995 19.5661114,22.7054363 C19.7244741,22.0173572 19.6130582,21.3172967 19.2517003,20.7336276 L17.0683449,17.2079926 C16.3248006,16.0071063 14.7474552,15.6753906 13.5536187,16.4678797 L12.0499996,17.4661078 C11.5015158,17.0566837 10.2207286,15.9591804 8.89001906,13.8100459 C7.55897893,11.6598843 7.13017638,9.99651308 7.00024623,9.3108303 L8.50386534,8.31260215 C9.6983631,7.51977074 10.0650108,5.89747883 9.32146649,4.69659256 L7.13844166,1.17129987 C6.39489738,-0.0295863999 4.81788262,-0.361986789 3.62371547,0.431186951 L1.77593025,1.65911712 C1.56797589,1.81521864 -3.23778648,5.61060805 3.89316348,17.1272032 C8.541555,24.634454 12.4268962,26 14.6390148,26 C15.8206187,25.9996577 16.5251509,25.6100885 16.6127628,25.5587393 Z M4.24823976,1.44002727 C4.90516394,1.00390152 5.76508331,1.17335383 6.16446147,1.81795727 L8.34748631,5.34324996 C8.74686447,5.98819572 8.53659583,6.86797842 7.87934104,7.30444649 L6.05833532,8.5132063 C5.8784829,8.63267874 5.7766547,8.84492203 5.79384647,9.0653812 C5.80078931,9.15712508 5.98956822,11.3459697 7.91603887,14.4570456 C9.84250952,17.5684639 11.6843437,18.6591205 11.7620373,18.7043078 C11.948502,18.8117988 12.1772848,18.8049522 12.3571373,18.6858221 L14.178143,17.4770623 C14.8347365,17.0412789 15.6953171,17.2100466 16.0943647,17.8549923 L18.2777201,21.3806273 C18.4674909,21.6876955 18.5256784,22.0594636 18.4407114,22.4278084 C18.3537607,22.8047114 18.129937,23.1288959 17.8095749,23.3414815 L16.0113813,24.5351789 C15.7591251,24.6614979 11.2003291,26.7082764 4.86780489,16.4812305 C-1.46471936,6.2541845 2.23514902,2.81995103 2.45037682,2.6344093 L4.24823976,1.44002727 Z" id="Shape"></path>
            </g>
        </g>
    </g>
</svg>