<?xml version="1.0" encoding="UTF-8"?>
<svg width="21px" height="26px" viewBox="0 0 21 26" version="1.1" xmlns="http://www.w3.org/2000/svg" xmlns:xlink="http://www.w3.org/1999/xlink">
    <!-- Generator: Sketch 50.2 (55047) - http://www.bohemiancoding.com/sketch -->
    <title>noun_437082_cc</title>
    <desc>Created with Sketch.</desc>
    <defs></defs>
    <g id="Page-1" stroke="none" stroke-width="1" fill="none" fill-rule="evenodd">
        <g id="noun_437082_cc" fill="#FFFFFF" fill-rule="nonzero">
            <path d="M20.8681182,6.65520624 C20.8671264,6.66034116 20.867457,6.66547608 20.8664652,6.67061099 L20.8661346,6.67232263 C20.8658039,6.67334962 20.8658039,6.6743766 20.8654733,6.67540358 L19.9553011,10.9671684 C19.8957911,11.2468503 19.6567593,11.4378693 19.390948,11.4378693 C19.3496216,11.4378693 19.3079646,11.4330767 19.2663076,11.4238339 C18.9542108,11.3526297 18.7565054,11.0332377 18.8252725,10.7100802 L19.4392172,7.81467083 L14.8876947,10.7915542 C14.7918175,10.8542002 14.6850302,10.8843251 14.5792346,10.8843251 C14.3871496,10.8843251 14.1996931,10.7853923 14.0895996,10.6053279 C13.9186737,10.325646 13.9996734,9.95558951 14.2697827,9.77894831 L18.8017991,6.81473104 L16.0283029,6.18416305 C15.7162061,6.11295885 15.5185006,5.79356692 15.5872677,5.47040938 C15.6557042,5.14690952 15.9668092,4.94390907 16.2762612,5.01374397 L20.4257606,5.95719965 C20.4267525,5.95754198 20.4274137,5.95788431 20.4284055,5.95822664 C20.4647727,5.96678483 20.5004787,5.97876631 20.5348623,5.99417107 C20.5570132,6.00409858 20.5768499,6.01744936 20.5970172,6.0301155 C20.6089192,6.03764671 20.621813,6.04312396 20.6333844,6.05168215 C20.6561965,6.06845622 20.6763638,6.08796891 20.6965311,6.1074816 C20.7038045,6.11467049 20.7124004,6.12014773 20.7193432,6.12802127 C20.7457921,6.15677682 20.7695961,6.18792866 20.790094,6.22147679 C20.7904246,6.22181912 20.7907552,6.22216145 20.7910858,6.22250377 C20.7957144,6.23003499 20.7983593,6.23859319 20.8026572,6.2461244 C20.8168735,6.27214132 20.8307592,6.29850057 20.8413387,6.32622913 C20.8479509,6.34368785 20.8512571,6.36183123 20.8562162,6.37963228 C20.861506,6.39914497 20.8681182,6.41831533 20.8714243,6.43851268 C20.8750611,6.46042166 20.8753917,6.48267298 20.8767141,6.50492429 C20.8777059,6.52169836 20.8803508,6.53778777 20.8800202,6.55456184 C20.8786978,6.5884523 20.8740692,6.62200043 20.8681182,6.65520624 Z M16.6127628,25.5587393 L18.4337685,24.3499795 C19.0070481,23.9693109 19.4094018,23.3852995 19.5661114,22.7054363 C19.7244741,22.0173572 19.6130582,21.3172967 19.2517003,20.7336276 L17.0683449,17.2079926 C16.3248006,16.0071063 14.7474552,15.6753906 13.5536187,16.4678797 L12.0499996,17.4661078 C11.5015158,17.0566837 10.2207286,15.9591804 8.89001906,13.8100459 C7.55897893,11.6598843 7.13017638,9.99651308 7.00024623,9.3108303 L8.50386534,8.31260215 C9.6983631,7.51977074 10.0650108,5.89747883 9.32146649,4.69659256 L7.13844166,1.17129987 C6.39489738,-0.0295863999 4.81788262,-0.361986789 3.62371547,0.431186951 L1.77593025,1.65911712 C1.56797589,1.81521864 -3.23778648,5.61060805 3.89316348,17.1272032 C8.541555,24.634454 12.4268962,26 14.6390148,26 C15.8206187,25.9996577 16.5251509,25.6100885 16.6127628,25.5587393 Z M4.06671814,1.24204131 C4.72364232,0.805915568 5.58356169,0.975367878 5.98293985,1.61997131 L8.16596468,5.14526401 C8.56534284,5.79020977 8.35507421,6.66999247 7.69781942,7.10646054 L5.8768137,8.31522034 C5.69696128,8.43469278 5.59513307,8.64693608 5.61232485,8.86739524 C5.61926768,8.95913912 5.8080466,11.1479837 7.73451725,14.2590596 C9.6609879,17.3704779 11.5028221,18.4611346 11.5805157,18.5063219 C11.7669804,18.6138128 11.9957632,18.6069663 12.1756156,18.4878362 L13.9966213,17.2790764 C14.6532149,16.8432929 15.5137955,17.0120606 15.9128431,17.6570064 L18.0961985,21.1826414 C18.2859692,21.4897095 18.3441568,21.8614776 18.2591898,22.2298224 C18.172239,22.6067254 17.9484154,22.93091 17.6280532,23.1434956 L15.8298597,24.337193 C15.5776034,24.463512 11.0188075,26.5102905 4.68628327,16.2832445 C-1.64624099,6.05619854 2.05362739,2.62196507 2.26885519,2.43642335 L4.06671814,1.24204131 Z" id="Shape"></path>
        </g>
    </g>
</svg>