<?xml version="1.0" encoding="UTF-8"?>
<svg width="26px" height="20px" viewBox="0 0 26 20" version="1.1" xmlns="http://www.w3.org/2000/svg" xmlns:xlink="http://www.w3.org/1999/xlink">
    <!-- Generator: Sketch 50.2 (55047) - http://www.bohemiancoding.com/sketch -->
    <title>Group 7</title>
    <desc>Created with Sketch.</desc>
    <defs></defs>
    <g id="Page-1" stroke="none" stroke-width="1" fill="none" fill-rule="evenodd">
        <g id="Group-7" fill="#FFFFFF" fill-rule="nonzero">
            <g id="Group-11">
                <g id="Group-4">
                    <g id="Free-Tag-1">
                        <path d="M22.9666667,7.8 L20.9733333,7.8 L15.9466667,3.20666667 C15.86,3.55333333 15.7733333,3.81333333 15.6866667,4.16 L19.6733333,7.88666667 L5.80666667,7.88666667 L9.44666667,4.24666667 C9.27333333,3.98666667 9.18666667,3.64 9.1,3.29333333 L4.85333333,7.54 C4.76666667,7.62666667 4.76666667,7.71333333 4.76666667,7.88666667 L3.03333333,7.88666667 C1.56,7.88666667 0.433333333,9.01333333 0.433333333,10.4866667 L0.433333333,16.5533333 C0.433333333,18.0266667 1.56,19.1533333 3.03333333,19.1533333 L22.9666667,19.1533333 C24.44,19.1533333 25.5666667,18.0266667 25.5666667,16.5533333 L25.5666667,10.4866667 C25.5666667,8.92666667 24.44,7.8 22.9666667,7.8 Z M6.93333333,10.4 L3.9,10.4 L3.9,13 L6.06666667,13 C6.32666667,13 6.5,13.1733333 6.5,13.4333333 C6.5,13.6933333 6.32666667,13.8666667 6.06666667,13.8666667 L3.9,13.8666667 L3.9,16.9 C3.9,17.16 3.72666667,17.3333333 3.46666667,17.3333333 C3.20666667,17.3333333 3.03333333,17.16 3.03333333,16.9 L3.03333333,9.96666667 C3.03333333,9.70666667 3.20666667,9.53333333 3.46666667,9.53333333 L6.93333333,9.53333333 C7.19333333,9.53333333 7.36666667,9.70666667 7.36666667,9.96666667 C7.36666667,10.2266667 7.19333333,10.4 6.93333333,10.4 Z M12.48,16.64 C12.6533333,16.8133333 12.6533333,17.0733333 12.48,17.2466667 C12.3066667,17.3333333 12.22,17.3333333 12.1333333,17.3333333 C12.0466667,17.3333333 11.8733333,17.2466667 11.7866667,17.16 L9.1,14.04 L9.1,16.8133333 C9.1,17.0733333 8.92666667,17.2466667 8.66666667,17.2466667 C8.40666667,17.2466667 8.23333333,17.0733333 8.23333333,16.8133333 L8.23333333,9.88 C8.23333333,9.62 8.40666667,9.44666667 8.66666667,9.44666667 L10.4,9.44666667 C11.5266667,9.44666667 12.5666667,10.4866667 12.5666667,11.6133333 C12.5666667,12.9133333 11.8733333,13.78 10.8333333,13.78 L10.0533333,13.78 L12.48,16.64 Z M16.4666667,13 C16.7266667,13 16.9,13.1733333 16.9,13.4333333 C16.9,13.6933333 16.7266667,13.8666667 16.4666667,13.8666667 L14.3,13.8666667 L14.3,16.4666667 L17.3333333,16.4666667 C17.5933333,16.4666667 17.7666667,16.64 17.7666667,16.9 C17.7666667,17.16 17.5933333,17.3333333 17.3333333,17.3333333 L13.8666667,17.3333333 C13.6066667,17.3333333 13.4333333,17.16 13.4333333,16.9 L13.4333333,9.96666667 C13.4333333,9.70666667 13.6066667,9.53333333 13.8666667,9.53333333 L17.3333333,9.53333333 C17.5933333,9.53333333 17.7666667,9.70666667 17.7666667,9.96666667 C17.7666667,10.2266667 17.5933333,10.4 17.3333333,10.4 L14.3,10.4 L14.3,13 L16.4666667,13 Z M21.6666667,13 C21.9266667,13 22.1,13.1733333 22.1,13.4333333 C22.1,13.6933333 21.9266667,13.8666667 21.6666667,13.8666667 L19.5,13.8666667 L19.5,16.4666667 L22.5333333,16.4666667 C22.7933333,16.4666667 22.9666667,16.64 22.9666667,16.9 C22.9666667,17.16 22.7933333,17.3333333 22.5333333,17.3333333 L19.0666667,17.3333333 C18.8066667,17.3333333 18.6333333,17.16 18.6333333,16.9 L18.6333333,9.96666667 C18.6333333,9.70666667 18.8066667,9.53333333 19.0666667,9.53333333 L22.5333333,9.53333333 C22.7933333,9.53333333 22.9666667,9.70666667 22.9666667,9.96666667 C22.9666667,10.2266667 22.7933333,10.4 22.5333333,10.4 L19.5,10.4 L19.5,13 L21.6666667,13 Z" id="Shape"></path>
                        <path d="M11.7,11.7 C11.7,11.0066667 11.0933333,10.4 10.4,10.4 L9.1,10.4 L9.1,13 L10.8333333,13 C11.7,13 11.7,11.96 11.7,11.7 Z" id="Shape"></path>
                        <circle id="Oval" cx="12.5666667" cy="2.6" r="2.6"></circle>
                    </g>
                </g>
            </g>
        </g>
    </g>
</svg>