<?xml version="1.0" encoding="UTF-8"?>
<svg width="26px" height="26px" viewBox="0 0 26 26" version="1.1" xmlns="http://www.w3.org/2000/svg" xmlns:xlink="http://www.w3.org/1999/xlink">
    <!-- Generator: Sketch 50.2 (55047) - http://www.bohemiancoding.com/sketch -->
    <title>Group 2</title>
    <desc>Created with Sketch.</desc>
    <defs></defs>
    <g id="Page-1" stroke="none" stroke-width="1" fill="none" fill-rule="evenodd">
        <g id="Group-2">
            <g id="Group-8">
                <path d="M0.5,0.5 L0.5,25.5 L25.5,25.5 L25.5,0.5 L0.5,0.5 Z" id="Rectangle-3" stroke="#0B203E"></path>
                <path d="M4,6.00726781 L7.79743198,6.00726781 L7.79743198,6.94844952 L5.1119753,6.94844952 L5.1119753,8.18034372 L7.46311261,8.18034372 L7.46311261,9.11062371 L5.1119753,9.11062371 L5.1119753,11.3563777 L4,11.3563777 L4,6.00726781 Z M9.66525977,6.93027999 L9.66525977,8.36930684 L10.933493,8.36930684 C11.1854451,8.36930684 11.3744064,8.34023588 11.5003824,8.28209309 C11.7232631,8.18034321 11.8347018,7.97926908 11.8347018,7.67886467 C11.8347018,7.35423409 11.726897,7.1362019 11.5112841,7.02476155 C11.3901533,6.96177353 11.2084598,6.93027999 10.9661982,6.93027999 L9.66525977,6.93027999 Z M11.1987682,6 C11.5742737,6.00726785 11.8631664,6.05329687 12.0654548,6.13808844 C12.2677433,6.22288 12.4391408,6.34764287 12.5796525,6.51238077 C12.6959381,6.64804728 12.7879962,6.79824724 12.8558294,6.96298514 C12.9236627,7.12772305 12.9575788,7.31547299 12.9575788,7.5262406 C12.9575788,7.78061531 12.8933804,8.03074669 12.7649818,8.27664224 C12.6365831,8.52253778 12.4246074,8.69635789 12.1290482,8.79810778 C12.376155,8.89743504 12.5511864,9.03855032 12.6541476,9.22145785 C12.7571088,9.40436537 12.8085886,9.68356771 12.8085886,10.0590732 L12.8085886,10.4188299 C12.8085886,10.6635142 12.818279,10.8294609 12.8376599,10.9166751 C12.8667313,11.0547642 12.9345635,11.1565126 13.0411586,11.2219232 L13.0411586,11.3563777 L11.8092644,11.3563777 C11.7753478,11.2376695 11.751122,11.1419776 11.7365863,11.0692992 C11.7075149,10.9190969 11.6917681,10.7652631 11.6893455,10.6077931 L11.6820777,10.1099479 C11.6772325,9.76835902 11.614851,9.54063651 11.4949315,9.42677355 C11.375012,9.31291059 11.1503178,9.25597996 10.8208419,9.25597996 L9.66525977,9.25597996 L9.66525977,11.3563777 L8.571454,11.3563777 L8.571454,6 L11.1987682,6 Z M17.8815217,6.94844952 L15.0470749,6.94844952 L15.0470749,8.08586216 L17.6489517,8.08586216 L17.6489517,9.01614215 L15.0470749,9.01614215 L15.0470749,10.3933926 L18.0123423,10.3933926 L18.0123423,11.3563777 L13.9532691,11.3563777 L13.9532691,6 L17.8815217,6 L17.8815217,6.94844952 Z M22.8454376,6.94844952 L20.0109907,6.94844952 L20.0109907,8.08586216 L22.6128676,8.08586216 L22.6128676,9.01614215 L20.0109907,9.01614215 L20.0109907,10.3933926 L22.9762582,10.3933926 L22.9762582,11.3563777 L18.917185,11.3563777 L18.917185,6 L22.8454376,6 L22.8454376,6.94844952 Z M7.82480747,13.7053346 L9.54194931,13.7053346 L9.54194931,19.4188043 L8.42948947,19.4188043 L8.42948947,15.5542661 C8.42948947,15.4431488 8.43078152,15.2874577 8.43336564,15.087188 C8.43594977,14.8869184 8.43724181,14.7325193 8.43724181,14.6239861 L7.35579131,19.4188043 L6.19681747,19.4188043 L5.1231193,14.6239861 C5.1231193,14.7325193 5.12441134,14.8869184 5.12699547,15.087188 C5.12957959,15.2874577 5.13087164,15.4431488 5.13087164,15.5542661 L5.13087164,19.4188043 L4.0184118,19.4188043 L4.0184118,13.7053346 L5.75493447,13.7053346 L6.79374714,18.1978118 L7.82480747,13.7053346 Z M11.743612,19.4188043 L10.557505,19.4188043 L10.557505,13.7053346 L11.743612,13.7053346 L11.743612,19.4188043 Z M12.836691,13.7053346 L14.0886928,13.7053346 L16.3640027,17.6939101 L16.3640027,13.7053346 L17.4764625,13.7053346 L17.4764625,19.4188043 L16.2826032,19.4188043 L13.9491508,15.3604578 L13.9491508,19.4188043 L12.836691,19.4188043 L12.836691,13.7053346 Z M19.4533075,17.6551485 C19.4894852,17.916145 19.5605476,18.1112434 19.6664967,18.2404496 C19.860306,18.4756049 20.1923609,18.5931808 20.6626715,18.5931808 C20.944341,18.5931808 21.1730326,18.5621718 21.348753,18.5001528 C21.682105,18.3812831 21.8487785,18.1603438 21.8487785,17.8373283 C21.8487785,17.6486872 21.7660878,17.5026864 21.6007038,17.3993215 C21.4353199,17.2985406 21.1756193,17.2093897 20.8215943,17.131866 L20.2169123,16.9962001 C19.6225638,16.8618257 19.2116942,16.7158249 18.9842913,16.5581933 C18.5992568,16.2946126 18.4067425,15.882451 18.4067425,15.3216961 C18.4067425,14.8100396 18.5927966,14.3849575 18.9649105,14.0464373 C19.3370244,13.707917 19.8835584,13.5386595 20.604529,13.5386595 C21.2066299,13.5386595 21.7202168,13.6982267 22.1453052,14.017366 C22.5703937,14.3365054 22.793271,14.7997026 22.813944,15.4069718 L21.6665987,15.4069718 C21.6459257,15.0632833 21.4960487,14.8190872 21.2169633,14.6743763 C21.0309064,14.5787637 20.7996308,14.5309581 20.5231295,14.5309581 C20.2156187,14.5309581 19.9701306,14.5929762 19.7866578,14.7170141 C19.603185,14.8410521 19.51145,15.0141858 19.51145,15.2364205 C19.51145,15.4405663 19.601893,15.5930273 19.7827817,15.6938081 C19.8990672,15.7609954 20.1471394,15.83981 20.5270057,15.9302543 L21.511552,16.1667005 C21.9431007,16.2700654 22.2686955,16.408314 22.488346,16.5814503 C22.8294504,16.8501992 23,17.239104 23,17.7481765 C23,18.2701695 22.8003794,18.7036498 22.4011322,19.0486304 C22.0018851,19.3936109 21.4379085,19.5660986 20.7091855,19.5660986 C19.9649578,19.5660986 19.3796625,19.396195 18.953282,19.0563827 C18.5269015,18.7165704 18.3137145,18.249497 18.3137145,17.6551485 L19.4533075,17.6551485 Z" id="FREE-MINS" fill="#0B203E"></path>
            </g>
        </g>
    </g>
</svg>