<?xml version="1.0" encoding="UTF-8"?>
<svg width="40px" height="41px" viewBox="0 0 40 41" version="1.1" xmlns="http://www.w3.org/2000/svg" xmlns:xlink="http://www.w3.org/1999/xlink">
    <!-- Generator: Sketch 49.3 (51167) - http://www.bohemiancoding.com/sketch -->
    <title>Group 14</title>
    <desc>Created with Sketch.</desc>
    <defs>
        <linearGradient x1="3.061617e-15%" y1="50%" x2="100%" y2="50%" id="linearGradient-1">
            <stop stop-color="#E6167F" offset="0%"></stop>
            <stop stop-color="#FF8000" offset="100%"></stop>
        </linearGradient>
    </defs>
    <g id="Page-1" stroke="none" stroke-width="1" fill="none" fill-rule="evenodd">
        <g id="Become-a-Partner" transform="translate(-1034.000000, -682.000000)" fill="url(#linearGradient-1)" fill-rule="nonzero">
            <g id="Group-15" transform="translate(148.000000, 607.000000)">
                <g id="Group-14" transform="translate(886.000000, 75.000000)">
                    <path d="M3.21428571,0 C1.43357238,0 0,1.43523762 0,3.21801943 L0,22.526136 C0,24.3089178 1.43357238,25.7441555 3.21428571,25.7441555 L36.7857143,25.7441555 C38.5664276,25.7441555 40,24.3089178 40,22.526136 L40,3.21801943 C40,1.43523762 38.5664276,0 36.7857143,0 L3.21428571,0 Z M19.047619,27.6511299 L19.047619,31.5395701 L11.235119,39.3611451 C10.8692324,39.709516 10.8592343,40.363264 11.2142952,40.7226872 C11.3932705,40.9038612 11.651079,41.0025143 11.9047619,40.9999513 C12.154349,40.9974245 12.3998429,40.8966305 12.5744048,40.7168852 L19.047619,34.2361512 L19.047619,40.046464 C19.047619,40.5502538 19.5510433,40.9999513 20,40.9999513 C20.4489567,40.9999513 20.952381,40.5502538 20.952381,40.046464 L20.952381,34.2361512 L27.4255952,40.7168848 C27.6017695,40.89829 27.8433338,40.9990617 28.0952381,40.9999513 C28.3466276,41.0008571 28.6083557,40.9022146 28.7857048,40.7226867 C29.1407657,40.3632635 29.1307676,39.7095155 28.764881,39.3611446 L20.952381,31.5395701 L20.952381,27.6511299 L19.047619,27.6511299 Z" id="Shape"></path>
                </g>
            </g>
        </g>
    </g>
</svg>