<?xml version="1.0" encoding="UTF-8"?>
<svg width="26px" height="26px" viewBox="0 0 26 26" version="1.1" xmlns="http://www.w3.org/2000/svg" xmlns:xlink="http://www.w3.org/1999/xlink">
    <!-- Generator: Sketch 50.2 (55047) - http://www.bohemiancoding.com/sketch -->
    <title>Group 4</title>
    <desc>Created with Sketch.</desc>
    <defs></defs>
    <g id="Page-1" stroke="none" stroke-width="1" fill="none" fill-rule="evenodd">
        <g id="Group-4" fill="#0B203E" fill-rule="nonzero">
            <g id="noun_1204806_cc">
                <g id="Group" transform="translate(7.000000, 7.000000)">
                    <path d="M1.0052795,12.0485507 C0.833022774,12.0485507 0.660766046,11.9828778 0.52942029,11.8515321 C0.266459627,11.5885714 0.266459627,11.1627743 0.52942029,10.9000828 L10.8995445,0.529958592 C11.1625052,0.26699793 11.5883023,0.26699793 11.8509938,0.529958592 C12.1139545,0.792650104 12.1139545,1.21871636 11.8509938,1.48140787 L1.48113872,11.8512629 C1.34979296,11.9828778 1.17753623,12.0485507 1.0052795,12.0485507 Z" id="Shape"></path>
                    <g id="Shape">
                        <path d="M2.56231884,5.10956522 C1.90962733,5.10956522 1.25720497,4.86113872 0.760351967,4.36428571 C-0.233354037,3.37084886 -0.233354037,1.75405797 0.760351967,0.760351967 C1.75378882,-0.233354037 3.37057971,-0.233354037 4.36428571,0.760351967 C5.35799172,1.75378882 5.35799172,3.37057971 4.36428571,4.36428571 C3.86743271,4.86113872 3.21501035,5.10956522 2.56231884,5.10956522 Z M2.56231884,1.36028986 C2.25440994,1.36028986 1.94623188,1.47763975 1.71180124,1.71207039 C1.24293996,2.18093168 1.24293996,2.94397516 1.71180124,3.41283644 C2.18066253,3.88169772 2.943706,3.88169772 3.41256729,3.41283644 C3.88142857,2.94397516 3.88142857,2.18093168 3.41256729,1.71207039 C3.1784058,1.4773706 2.87022774,1.36028986 2.56231884,1.36028986 Z"></path>
                        <path d="M9.81836439,12.3656108 C9.16594203,12.3656108 8.51325052,12.1171843 8.01666667,11.6203313 L8.01639752,11.6203313 C7.02349896,10.6268944 7.02349896,9.01010352 8.01639752,8.01639752 C9.01010352,7.02322981 10.6266253,7.02296066 11.6206004,8.01612836 C12.6140373,9.00983437 12.6140373,10.6266253 11.6206004,11.6203313 C11.1237474,12.1174534 10.4710559,12.3656108 9.81836439,12.3656108 Z M8.96811594,10.6691511 C9.43670807,11.1377433 10.1997516,11.1382816 10.668882,10.6691511 C11.1377433,10.2002899 11.1377433,9.43724638 10.668882,8.96838509 C10.2000207,8.50006211 9.43697723,8.50033126 8.96811594,8.96865424 C8.49952381,9.43724638 8.49952381,10.2000207 8.96811594,10.6691511 Z"></path>
                    </g>
                </g>
                <path d="M10.9602481,26 C10.9246279,26 10.8890077,25.9968688 10.8531274,25.9911282 C10.6729462,25.9611206 10.5138252,25.8559636 10.4145045,25.7022726 L9.28245708,23.9472208 L7.31528411,24.6345248 C7.14264297,24.6945399 6.95284172,24.6794057 6.79216066,24.5919923 C6.6314796,24.5048399 6.51499883,24.3537582 6.47079854,24.1758002 L5.96795522,22.147288 L3.88508149,22.1561598 C3.88404148,22.1561598 3.88326148,22.1561598 3.88222147,22.1561598 C3.70048027,22.1561598 3.52705913,22.0799667 3.40407832,21.9455849 C3.2803175,21.8106813 3.21895709,21.629853 3.2348172,21.4471982 L3.41551839,19.3646724 L1.44288538,18.6940682 C1.26972424,18.6350968 1.12932331,18.5059338 1.05600283,18.3381523 C0.982682348,18.1703708 0.98294235,17.9791051 1.05704284,17.8115845 L1.90178841,15.9010151 L0.252857535,14.6237361 C0.108296582,14.5115338 0.0172959818,14.3437524 0.00221588234,14.1610975 C-0.0128642171,13.9784427 0.0495361944,13.7978754 0.173817014,13.6634936 L1.59082636,12.1315416 L0.443958795,10.3861443 C0.343338132,10.2332362 0.311617923,10.0445798 0.356598219,9.86688277 C0.401318514,9.68918573 0.518839289,9.53862597 0.67978035,9.4519954 L2.51591246,8.46461565 L1.99590903,6.44053933 C1.95040873,6.26284229 1.98134893,6.07444689 2.08118959,5.92101685 C2.18103025,5.7675868 2.3406713,5.66321262 2.52085249,5.63372691 L4.57694605,5.29816392 L4.74022713,3.21433339 C4.75452722,3.03167857 4.84474782,2.8633752 4.98904877,2.75091202 C5.13334972,2.6381879 5.31795094,2.59200233 5.49813212,2.62253178 L7.55110566,2.97531651 L8.37999113,1.05744093 C8.45253161,0.889137558 8.59241253,0.759452638 8.76531367,0.699959354 C8.93795481,0.640727006 9.12775606,0.656383134 9.28817712,0.744579317 L11.1159892,1.74709333 L12.5202584,0.203138251 C12.7664801,-0.0677127502 13.2342231,-0.0677127502 13.4804448,0.203138251 L14.884714,1.74709333 L16.7122661,0.744318381 C16.8729471,0.656644069 17.0627484,0.640727006 17.2351295,0.699698419 C17.4080307,0.759452638 17.5476516,0.889137558 17.6204521,1.05717999 L18.4490775,2.97505557 L20.5020511,2.62227084 C20.6819723,2.59148046 20.8668335,2.63792697 21.0108744,2.75065108 C21.1551754,2.86311426 21.245396,3.03141763 21.2596961,3.21407245 L21.4229771,5.29790298 L23.4788107,5.63346598 C23.6589919,5.66295168 23.8188929,5.76706493 23.9184736,5.92075591 C24.0185743,6.07418596 24.0495145,6.26284229 24.0037542,6.4402784 L23.4840107,8.46461565 L25.3201428,9.4519954 C25.4810839,9.53862597 25.5983447,9.68918573 25.643325,9.86688277 C25.6880453,10.0445798 25.6563251,10.2329752 25.5557044,10.3861443 L24.4093568,12.1312806 L25.8263662,13.6632327 C25.950907,13.7976144 26.0130474,13.9781818 25.9977073,14.1608366 C25.9826272,14.3434914 25.8918866,14.5115338 25.7470657,14.6234752 L24.0978748,15.9007542 L24.9426203,17.8113236 C25.0167208,17.9788442 25.0169808,18.1698489 24.9436604,18.3378913 C24.8703399,18.5059338 24.7301989,18.6350968 24.5570378,18.6938073 L22.5841448,19.3641505 L22.764586,21.4466763 C22.7807061,21.6293312 22.7190857,21.8104204 22.5953249,21.9450631 C22.4718241,22.0799667 22.2882628,22.1564208 22.1143217,22.155638 L20.031448,22.1467662 L19.5283446,24.1752784 C19.4844044,24.3532364 19.3676636,24.504318 19.2069825,24.5917314 C19.0463015,24.6786229 18.8567602,24.694279 18.6838591,24.6340029 L16.7172061,23.9466989 L15.5851586,25.7017508 C15.485838,25.8557027 15.3267169,25.9605987 15.1462757,25.9906063 C14.9658346,26.0198311 14.7814933,25.9733846 14.6379724,25.8603995 L12.9999616,24.5698128 L11.3616908,25.8606605 C11.24625,25.951466 11.1045491,26 10.9602481,26 Z M12.9999616,23.0882213 C13.1416625,23.0882213 13.2836235,23.1346678 13.4014042,23.2272999 L14.880814,24.3934204 L15.9034007,22.8084985 C16.0661618,22.555652 16.3797239,22.4484075 16.6628657,22.5467802 L18.4391975,23.1672847 L18.8934205,21.3352569 C18.9654409,21.0445748 19.2257026,20.8405233 19.5241846,20.8405233 C19.5252246,20.8405233 19.5260046,20.8405233 19.5270446,20.8405233 L21.407897,20.8483513 L21.244876,18.9675286 C21.2186158,18.6682356 21.400097,18.3895566 21.6837589,18.2930104 L23.4658106,17.6876402 L22.7027056,15.962074 C22.5810248,15.687309 22.6626653,15.3647928 22.8997869,15.1810942 L24.3893367,14.0277595 L23.1093483,12.6440188 C22.9055069,12.4235283 22.8779467,12.0921403 23.0430478,11.8411204 L24.0783746,10.2648093 L22.4203437,9.3731929 C22.156182,9.23124401 22.0233211,8.9264714 22.0979416,8.63552837 L22.5672447,6.80741458 L20.7105724,6.50446852 C20.4149505,6.45619546 20.190309,6.21143801 20.1669089,5.9118841 L20.0194879,4.02975668 L18.1651557,4.34835887 C17.8695337,4.39845847 17.5783318,4.24059252 17.458991,3.96478375 L16.7107061,2.23269421 L15.0599552,3.13814023 C14.7965734,3.2821766 14.4702713,3.22764109 14.26799,3.00558502 L12.9999616,1.61088502 L11.7316732,3.00532409 C11.5299119,3.22738016 11.2025697,3.28165473 10.939968,3.1378793 L9.28921712,2.23243327 L8.54067219,3.96452281 C8.4215914,4.24033159 8.13038948,4.39819754 7.83476753,4.34809793 L5.98069531,4.02949574 L5.83327433,5.91162317 C5.80987418,6.21117707 5.5852327,6.45593453 5.28961075,6.50420758 L3.4326785,6.80715365 L3.9022416,8.63526743 C3.97712209,8.9264714 3.84374121,9.23124401 3.57983947,9.3731929 L1.92180854,10.2648093 L2.95713537,11.8411204 C3.12197646,12.0921403 3.09467627,12.4235283 2.89083493,12.6440188 L1.61110649,14.0277595 L3.10065631,15.1810942 C3.33777788,15.3647928 3.41915841,15.687309 3.29773761,15.962074 L2.53489258,17.6876402 L4.31668433,18.2930104 C4.6003462,18.3895566 4.7818274,18.6682356 4.75582723,18.9675286 L4.59254615,20.8483513 L6.47365856,20.8405233 C6.47469856,20.8405233 6.47547857,20.8405233 6.47651858,20.8405233 C6.77500054,20.8405233 7.03526226,21.0445748 7.10728274,21.3352569 L7.56150573,23.1672847 L9.33809745,22.5467802 C9.62123931,22.4484075 9.93480138,22.5561739 10.0973025,22.8084985 L11.1196292,24.3934204 L12.599299,23.2272999 C12.7162997,23.1344068 12.8582607,23.0882213 12.9999616,23.0882213 Z" id="Shape"></path>
            </g>
        </g>
    </g>
</svg>