<?xml version="1.0" encoding="UTF-8"?>
<svg width="26px" height="26px" viewBox="0 0 26 26" version="1.1" xmlns="http://www.w3.org/2000/svg" xmlns:xlink="http://www.w3.org/1999/xlink">
    <!-- Generator: Sketch 50.2 (55047) - http://www.bohemiancoding.com/sketch -->
    <title>Group 2</title>
    <desc>Created with Sketch.</desc>
    <defs></defs>
    <g id="Page-1" stroke="none" stroke-width="1" fill="none" fill-rule="evenodd">
        <g id="Group-2">
            <g id="Group-8" transform="translate(0.000000, 0.000000)">
                <path d="M0.5,0.5 L0.5,25.5 L25.5,25.5 L25.5,0.5 L0.5,0.5 Z" id="Rectangle-3" stroke="#FFFFFF"></path>
                <path d="M4,6 L7.79743198,6 L7.79743198,6.94118171 L5.1119753,6.94118171 L5.1119753,8.17307591 L7.46311261,8.17307591 L7.46311261,9.1033559 L5.1119753,9.1033559 L5.1119753,11.3491099 L4,11.3491099 L4,6 Z M10,7 L10,8.43902686 L11.2682333,8.43902686 C11.5201854,8.43902686 11.7091466,8.4099559 11.8351226,8.35181311 C12.0580033,8.25006322 12.169442,8.04898909 12.169442,7.74858468 C12.169442,7.4239541 12.0616372,7.20592191 11.8460244,7.09448156 C11.7248935,7.03149354 11.5432,7 11.3009384,7 L10,7 Z M11.6273142,6 C12.0028197,6.00726785 12.2917124,6.05329687 12.4940008,6.13808844 C12.6962893,6.22288 12.8676868,6.34764287 13.0081985,6.51238077 C13.1244841,6.64804728 13.2165422,6.79824724 13.2843754,6.96298514 C13.3522087,7.12772305 13.3861248,7.31547299 13.3861248,7.5262406 C13.3861248,7.78061531 13.3219264,8.03074669 13.1935278,8.27664224 C13.0651291,8.52253778 12.8531534,8.69635789 12.5575942,8.79810778 C12.804701,8.89743504 12.9797324,9.03855032 13.0826936,9.22145785 C13.1856548,9.40436537 13.2371346,9.68356771 13.2371346,10.0590732 L13.2371346,10.4188299 C13.2371346,10.6635142 13.246825,10.8294609 13.2662059,10.9166751 C13.2952773,11.0547642 13.3631095,11.1565126 13.4697046,11.2219232 L13.4697046,11.3563777 L12.2378104,11.3563777 C12.2038938,11.2376695 12.179668,11.1419776 12.1651323,11.0692992 C12.1360609,10.9190969 12.1203141,10.7652631 12.1178915,10.6077931 L12.1106237,10.1099479 C12.1057785,9.76835902 12.043397,9.54063651 11.9234775,9.42677355 C11.803558,9.31291059 11.5788637,9.25597996 11.2493879,9.25597996 L10.0938058,9.25597996 L10.0938058,11.3563777 L9,11.3563777 L9,6 L11.6273142,6 Z M17.9282526,6.94844952 L15.0938058,6.94844952 L15.0938058,8.08586216 L17.6956826,8.08586216 L17.6956826,9.01614215 L15.0938058,9.01614215 L15.0938058,10.3933926 L18.0590732,10.3933926 L18.0590732,11.3563777 L14,11.3563777 L14,6 L17.9282526,6 L17.9282526,6.94844952 Z M22.9282526,6.94844952 L20.0938058,6.94844952 L20.0938058,8.08586216 L22.6956826,8.08586216 L22.6956826,9.01614215 L20.0938058,9.01614215 L20.0938058,10.3933926 L23.0590732,10.3933926 L23.0590732,11.3563777 L19,11.3563777 L19,6 L22.9282526,6 L22.9282526,6.94844952 Z M7.80639567,14 L9.52353751,14 L9.52353751,19.7134697 L8.41107767,19.7134697 L8.41107767,15.8489315 C8.41107767,15.7378142 8.41236972,15.582123 8.41495384,15.3818534 C8.41753797,15.1815838 8.41883001,15.0271847 8.41883001,14.9186515 L7.33737951,19.7134697 L6.17840567,19.7134697 L5.1047075,14.9186515 C5.1047075,15.0271847 5.10599954,15.1815838 5.10858367,15.3818534 C5.11116779,15.582123 5.11245984,15.7378142 5.11245984,15.8489315 L5.11245984,19.7134697 L4,19.7134697 L4,14 L5.73652267,14 L6.77533534,18.4924772 L7.80639567,14 Z M12.186107,19.7134697 L11,19.7134697 L11,14 L12.186107,14 L12.186107,19.7134697 Z M13,14 L14.2520018,14 L16.5273117,17.9885755 L16.5273117,14 L17.6397715,14 L17.6397715,19.7134697 L16.4459122,19.7134697 L14.1124598,15.6551232 L14.1124598,19.7134697 L13,19.7134697 L13,14 Z M19.139593,18.116489 C19.1757707,18.3774855 19.2468331,18.572584 19.3527822,18.7017902 C19.5465915,18.9369455 19.8786464,19.0545213 20.348957,19.0545213 C20.6306265,19.0545213 20.8593181,19.0235123 21.0350385,18.9614933 C21.3683905,18.8426236 21.535064,18.6216843 21.535064,18.2986688 C21.535064,18.1100278 21.4523733,17.964027 21.2869893,17.860662 C21.1216054,17.7598812 20.8619048,17.6707302 20.5078798,17.5932065 L19.9031978,17.4575407 C19.3088493,17.3231662 18.8979797,17.1771654 18.6705768,17.0195338 C18.2855424,16.7559532 18.093028,16.3437916 18.093028,15.7830367 C18.093028,15.2713801 18.2790821,14.8462981 18.651196,14.5077778 C19.0233099,14.1692576 19.5698439,14 20.2908145,14 C20.8929154,14 21.4065024,14.1595673 21.8315908,14.4787066 C22.2566792,14.7978459 22.4795565,15.2610432 22.5002295,15.8683123 L21.3528842,15.8683123 C21.3322112,15.5246238 21.1823342,15.2804278 20.9032488,15.1357168 C20.7171919,15.0401042 20.4859163,14.9922987 20.209415,14.9922987 C19.9019042,14.9922987 19.6564161,15.0543167 19.4729433,15.1783547 C19.2894705,15.3023926 19.1977355,15.4755263 19.1977355,15.697761 C19.1977355,15.9019068 19.2881785,16.0543678 19.4690672,16.1551487 C19.5853528,16.2223359 19.8334249,16.3011505 20.2132912,16.3915948 L21.1978375,16.628041 C21.6293862,16.731406 21.954981,16.8696545 22.1746315,17.0427908 C22.5157359,17.3115397 22.6862855,17.7004446 22.6862855,18.209517 C22.6862855,18.7315101 22.4866649,19.1649904 22.0874178,19.5099709 C21.6881706,19.8549515 21.124194,20.0274392 20.395471,20.0274392 C19.6512433,20.0274392 19.065948,19.8575356 18.6395675,19.5177233 C18.213187,19.1779109 18,18.7108375 18,18.116489 L19.139593,18.116489 Z" id="FREE-MINS" fill="#FFFFFF"></path>
            </g>
        </g>
    </g>
</svg>