<?xml version="1.0" encoding="UTF-8"?>
<svg width="28px" height="22px" viewBox="0 0 28 22" version="1.1" xmlns="http://www.w3.org/2000/svg" xmlns:xlink="http://www.w3.org/1999/xlink">
    <!-- Generator: Sketch 50.2 (55047) - http://www.bohemiancoding.com/sketch -->
    <title>Page 1</title>
    <desc>Created with Sketch.</desc>
    <defs></defs>
    <g id="Page-1" stroke="none" stroke-width="1" fill="none" fill-rule="evenodd">
        <path d="M21.8243943,5.88288679 C21.2395374,5.69819516 20.9317181,5.48272159 20.9317181,5.23646609 C20.9317181,5.14412027 20.9932819,5.05177446 21.0548458,4.99021058 C21.1779736,4.89786476 21.4242291,4.86708283 21.6704846,4.9286467 C21.978304,4.99021058 22.2861233,5.17490221 22.470815,5.3288119 L22.5939427,5.42115772 L23.3942731,4.43613569 L23.2711454,4.34378987 C22.9941079,4.15909824 22.6247247,3.8820608 22.1014317,3.75893305 L22.1014317,3.11251234 L20.9009361,3.11251234 L20.9009361,3.69736917 C20.0390419,3.82049692 19.484967,4.43613569 19.484967,5.23646609 C19.484967,6.06757842 20.0698238,6.46774362 20.6238987,6.74478106 C20.7470264,6.80634494 20.9009361,6.86790882 21.0856278,6.92947269 C21.5165749,7.08338238 22.1629956,7.29885595 22.1322137,7.60667534 C22.1322137,7.69902115 22.0706498,7.79136697 22.0090859,7.8221489 C21.8859581,7.91449472 21.6704846,7.94527666 21.4242291,7.91449472 C21.0240639,7.85293084 20.5623348,7.48354758 20.5623348,7.48354758 L20.439207,7.39120177 L19.5465308,8.31465992 L19.6696586,8.40700573 C20.0698238,8.74560705 20.469989,8.96108062 20.9009361,9.05342644 L20.9009361,9.63828327 L22.1014317,9.63828327 L22.1014317,9.17655419 C22.963326,9.0226445 23.5789648,8.37622379 23.5789648,7.60667534 C23.5481828,6.40617974 22.3476872,6.03679648 21.8243943,5.88288679 Z M0,19.9502326 L3.97087004,19.9502326 L3.97087004,9.17655419 L0,9.17655419 L0,19.9502326 Z M25.8568282,18.9652106 C25.9183921,19.6116313 25.456663,20.1964881 24.8410242,20.258052 L15.483315,21.4277656 C15.1139317,21.4585476 14.7137665,21.4277656 14.3443833,21.3354198 L4.89432819,18.5958273 L4.89432819,10.5309595 C5.84856828,10.3770498 7.72626652,10.0692304 8.77285242,10.1307943 C9.78865639,10.1923582 14.3751652,12.2239661 17.2994493,13.5783714 C17.8227423,13.8246269 18.0997797,14.4094837 17.94587,14.9943405 C17.7611784,15.6099793 17.1455396,16.0101445 16.4991189,15.8562348 L10.8044604,14.5018295 C10.7736784,14.5018295 10.7736784,14.5018295 10.7428965,14.5326115 C10.7428965,14.5633934 10.7428965,14.5633934 10.7736784,14.5941753 L17.2994493,17.8570608 L24.6563326,17.9186247 C25.3027533,17.9186247 25.7952643,18.3495718 25.8568282,18.9652106 Z M27.95,11.8853648 L26.7802863,12.0392745 L26.5648128,10.6233053 C25.7644824,11.6698912 24.7178965,12.4086577 23.455837,12.8396049 C22.4092511,13.1782062 21.3011013,13.270552 20.2237335,13.0858604 C19.6080947,12.9627326 18.9924559,12.778041 18.4075991,12.5010035 C16.8377203,11.7314551 15.6680066,10.3770498 15.0831498,8.68404318 C14.5290749,7.02181851 14.6522026,5.23646609 15.4217511,3.66658723 C16.1912996,2.09670838 17.5457048,0.92699472 19.2387115,0.342137891 C20.9009361,-0.211936999 22.6862885,-0.0888092452 24.2561674,0.680739213 L24.5332048,0.803866966 L24.0099119,1.85045287 L23.7328744,1.72732512 C21.0548458,0.403701768 17.7919604,1.48106961 16.468337,4.15909824 C15.8219163,5.45193965 15.7295705,6.92947269 16.1912996,8.28387798 C16.6530286,9.6690652 17.6072687,10.777215 18.9001101,11.4236357 C20.1929515,12.0700564 21.6704846,12.1624022 23.0248899,11.7006731 C24.0714758,11.3620718 24.9949339,10.6848692 25.6413546,9.79219296 L24.0406938,10.0076665 L23.97913,8.86873481 L27.457489,8.40700573 L27.95,11.8853648 Z" fill="#0B203E"></path>
    </g>
</svg>