<?xml version="1.0" encoding="UTF-8"?>
<svg width="25px" height="28px" viewBox="0 0 25 28" version="1.1" xmlns="http://www.w3.org/2000/svg" xmlns:xlink="http://www.w3.org/1999/xlink">
    <!-- Generator: Sketch 50.2 (55047) - http://www.bohemiancoding.com/sketch -->
    <title>Page 1</title>
    <desc>Created with Sketch.</desc>
    <defs>
        <polygon id="path-1" points="0 0 25 0 25 28 0 28"></polygon>
    </defs>
    <g id="Page-1" stroke="none" stroke-width="1" fill="none" fill-rule="evenodd">
        <g>
            <mask id="mask-2" fill="white">
                <use xlink:href="#path-1"></use>
            </mask>
            <g id="Clip-2"></g>
            <path d="M7.05901782,8.50610591 C7.39751933,8.50610591 7.67187165,8.23309136 7.67187165,7.89624043 L7.67187165,7.49726301 C7.67187165,7.16041208 7.39751933,6.88739753 7.05901782,6.88739753 C6.72051632,6.88739753 6.446164,7.16041208 6.446164,7.49726301 L6.446164,7.89909027 C6.44788228,8.23480127 6.72166184,8.50610591 7.05901782,8.50610591 Z M7.05901782,9.93102525 C5.93039309,9.92931535 5.01598082,9.01936186 5.01426254,7.89624043 L5.01426254,7.49726301 C5.01368978,6.37357162 5.92896119,5.4621932 7.05815868,5.46162324 C8.18764255,5.46133825 9.10320035,6.37186171 9.10377311,7.49555311 L9.10377311,7.49726301 L9.10377311,7.89909027 C9.10062292,9.02107176 8.18649703,9.92960034 7.05901782,9.93102525 Z M11.7126976,12.2935415 C11.7124112,12.6303925 11.9864771,12.903692 12.3249786,12.903977 C12.6634801,12.904262 12.9381188,12.6312474 12.9384052,12.2943965 L12.9384052,12.2935415 L12.9384052,11.9059635 C12.9381188,11.5691125 12.6634801,11.296383 12.3249786,11.296668 C11.9870499,11.2969529 11.7129839,11.5693975 11.7126976,11.9059635 L11.7126976,12.2935415 Z M10.2807961,12.2935415 L10.2807961,11.9059635 C10.2813689,10.7822721 11.1969267,9.87146363 12.3264105,9.87203359 C13.4550353,9.87231858 14.3697339,10.782842 14.3703067,11.9059635 L14.3703067,12.2935415 C14.3708794,13.4172329 13.455608,14.3286113 12.3264105,14.3291813 C11.1969267,14.3294663 10.2813689,13.4189428 10.2807961,12.2952514 L10.2807961,12.2935415 Z M6.70104246,13.7840072 C7.01520164,14.0219687 7.46338679,13.9621221 7.70337348,13.6500647 L12.8181255,7.00709076 C13.0552484,6.69218358 12.9913856,6.24561386 12.6749353,6.00964722 C12.3584851,5.77368057 11.9097272,5.83723197 11.6726043,6.15213915 L6.56930752,12.7951131 C6.32960722,13.1068855 6.38831518,13.5528852 6.70104246,13.7925567 L6.70104246,13.7840072 Z M0.0856577108,13.1484931 C0.235720984,13.6061772 0.569640404,13.981786 1.00780225,14.1858344 L3.16710965,15.1861278 C3.53081262,15.3405891 3.95150527,15.1721636 4.10643701,14.8102341 C4.25449562,14.4648336 4.10786891,14.0647163 3.77137207,13.8951509 L1.61779227,12.903407 C1.46171501,12.8307361 1.39412927,12.6460666 1.46715624,12.4904654 C1.47030642,12.4836258 1.47374299,12.4767862 1.47746593,12.4702315 L2.6229871,10.395549 C2.74326682,10.1801012 2.74326682,9.91848596 2.6229871,9.70303816 L1.47746593,7.62835559 C1.39584755,7.47731414 1.45255084,7.2889398 1.6043324,7.2077194 C1.60891448,7.20515455 1.61321019,7.20315966 1.61779227,7.20087979 L3.77709967,6.20058641 C4.00448563,6.09514238 4.15999013,5.87883962 4.18662349,5.63061867 L4.47300378,3.27665191 C4.49362317,3.10623156 4.64912766,2.98482843 4.8200967,3.00534727 C4.82754259,3.00620222 4.83498847,3.00734215 4.84243436,3.00876707 L7.17929754,3.45904159 C7.42214803,3.50577894 7.67187165,3.42512851 7.84083602,3.24530368 L9.46461227,1.52400112 C9.58174181,1.39803825 9.77934422,1.39034368 9.90563792,1.50690208 C9.91165191,1.51231678 9.91737952,1.51801645 9.92282074,1.52400112 L11.546597,3.25955288 C11.7195707,3.43595789 11.9718717,3.51147862 12.2138631,3.45904159 L14.5535901,3.00591723 C14.7228408,2.97314409 14.8866503,3.08314786 14.9195841,3.25157333 C14.921016,3.25898291 14.9221615,3.26639249 14.9230206,3.27380207 L15.2094009,5.62776883 C15.2360343,5.87598978 15.3915388,6.09229254 15.6189247,6.19773657 L17.7782322,7.19802995 C17.9343094,7.27070084 18.0018952,7.45537038 17.9288682,7.61097158 C17.925718,7.61781119 17.9222814,7.6246508 17.9185585,7.63120543 L16.7730373,9.705888 C16.6527576,9.9213358 16.6527576,10.182951 16.7730373,10.3983988 L17.9185585,12.4702315 C18.0027543,12.6198481 17.9492012,12.8093623 17.7985652,12.8931476 C17.7919784,12.8968524 17.7851053,12.9002722 17.7782322,12.903407 L15.6160609,13.9037004 C15.2569401,14.070416 15.1020083,14.4953269 15.2695408,14.8526967 C15.4370733,15.2100664 15.8640663,15.3642427 16.2231872,15.1975272 L18.3824946,14.1972338 C19.2556681,13.7922717 19.6334037,12.7597751 19.2267437,11.8911443 C19.2089881,11.8535264 19.1903734,11.8167635 19.1700404,11.7805706 L18.2049388,10.0535683 L19.1700404,8.32656607 C19.6382721,7.48899848 19.3352818,6.43227829 18.4936101,5.96632967 C18.4572398,5.94609581 18.4202968,5.92728688 18.3824946,5.90990286 L16.5811625,5.07490012 L16.3406031,3.11421111 C16.2240463,2.16264997 15.3543094,1.48552829 14.3980856,1.60151673 C14.3571332,1.60664644 14.3164672,1.61291608 14.2758012,1.62089563 L12.3226876,1.99992418 L10.9709726,0.552206122 C10.3143026,-0.148854196 9.21059296,-0.187612002 8.50609744,0.465856009 C8.47602751,0.493784429 8.4471031,0.522567799 8.41932421,0.552206122 L7.05901782,1.99992418 L5.11449564,1.62089563 C4.16915429,1.437651 3.25331012,2.05150626 3.06916759,2.99252299 C3.06114894,3.03270572 3.0545622,3.07345841 3.04969373,3.11421111 L2.80913429,5.07490012 L1.00780225,5.90990286 C0.134628741,6.31486494 -0.243106864,7.3473615 0.16355315,8.21599233 C0.181308728,8.2536102 0.199923447,8.29037312 0.220256448,8.32656607 L1.18535803,10.0535683 L0.220256448,11.7805706 C-0.0111388279,12.1989269 -0.0598234775,12.6933739 0.0856577108,13.1484931 Z M24.9921517,15.818792 C25.0491414,16.5201373 24.7936902,17.2109382 24.2933838,17.708235 L17.7066371,24.262864 C16.7555681,25.2147102 15.4614156,25.7484849 14.1125644,25.7447802 L5.95072609,25.7447802 L3.89451559,27.7909643 C3.61443567,28.0696786 3.16080929,28.0696786 2.88072936,27.7909643 C2.60064944,27.5122501 2.60064944,27.0608357 2.88072936,26.7821214 L5.14886127,24.5478479 C5.28346001,24.4141905 5.46588426,24.3395247 5.65575439,24.3398097 L14.1068368,24.3398097 C15.0739431,24.3418046 16.0021016,23.9590712 16.6842594,23.2768198 L23.2710062,16.7221909 C23.6478826,16.3337578 23.6367138,15.7150579 23.2463774,15.3400191 C22.865778,14.9743848 22.2626611,14.9743848 21.8820617,15.3400191 L16.7272165,20.5523741 L16.7100337,20.5580737 C16.25698,21.0157578 15.6372531,21.2716733 14.9917519,21.2676836 L9.96005018,21.2676836 C9.564559,21.2676836 9.24409945,20.9487866 9.24409945,20.5552239 C9.24409945,20.1616612 9.564559,19.8427642 9.96005018,19.8427642 L15.0003433,19.8427642 C15.5364472,19.8430492 15.9714589,19.4107287 15.9717453,18.8772389 C15.9720316,18.3437491 15.5378791,17.9108586 15.0014888,17.9105736 L15.0003433,17.9105736 L6.30297385,17.9105736 C5.49681333,17.9082937 4.72330016,18.2274757 4.15512166,18.7968734 L2.88932077,20.0451028 C2.60924084,20.323817 2.15561446,20.323817 1.87553454,20.0451028 C1.59545461,19.7663885 1.59545461,19.3149741 1.87553454,19.0362599 L3.14419923,17.7737813 C3.97813864,16.9393486 5.11191822,16.4705501 6.29438244,16.4714051 L15.0003433,16.4714051 C15.9746091,16.4685552 16.8529374,17.055052 17.2197906,17.9533212 L20.8797307,14.3140772 C21.8230674,13.3764802 23.3517654,13.3773352 24.2939566,14.316357 C24.6988983,14.7196092 24.9463309,15.253384 24.9921517,15.8216418 L24.9921517,15.818792 Z" id="Fill-1" fill="#FFFFFF" mask="url(#mask-2)"></path>
        </g>
    </g>
</svg>