<?xml version="1.0" encoding="UTF-8"?>
<svg width="31px" height="24px" viewBox="0 0 31 24" version="1.1" xmlns="http://www.w3.org/2000/svg" xmlns:xlink="http://www.w3.org/1999/xlink">
    <!-- Generator: Sketch 50.2 (55047) - http://www.bohemiancoding.com/sketch -->
    <title>Page 1</title>
    <desc>Created with Sketch.</desc>
    <defs></defs>
    <g id="icons-features" stroke="none" stroke-width="1" fill="none" fill-rule="evenodd">
        <g id="Page-1" transform="translate(1.000000, 1.000000)">
            <path d="M10.9923392,16.6667434 C10.8204303,16.4948344 10.5421962,16.4948344 10.3707841,16.6667434 L9.84810153,17.189426 C9.22853385,17.8089937 7.59838021,17.1834638 6.20720978,15.7927902 C4.81603935,14.4016198 4.1905095,12.7714662 4.81057404,12.1518985 L5.33325664,11.6292159 C5.50466871,11.4573069 5.50466871,11.1790729 5.33325664,11.0076608 L2.45452754,8.12893169 C2.28261863,7.95702277 2.00438454,7.95702277 1.83247562,8.12893169 L0.571975842,9.38943147 C-0.90912382,10.8705311 0.5853907,14.7658083 3.90979118,18.0902088 C7.23419166,21.4146093 11.1294689,22.9091238 12.6100717,21.4280242 L13.8710683,20.1670275 C14.0429772,19.9956155 14.0429772,19.7173814 13.8710683,19.5454725 L10.9923392,16.6667434 Z" id="Stroke-1" stroke="#0B203E" stroke-linecap="round" stroke-linejoin="round"></path>
            <path d="M28.2922704,7.84225477 C26.2678547,10.776012 20.5251442,12.2052526 15.4601815,11.0329541 C15.0408802,10.9345935 14.6294256,10.8226831 14.2424914,10.6917029 L9,12 L11.0567829,9.01957165 C9.19371227,7.49197038 8.66112614,5.46453638 9.95188736,3.60070225 C11.9763031,0.66644318 17.7268602,-0.762797425 22.7918229,0.410002889 C27.8489391,1.5777848 30.3166862,4.90849755 28.2922704,7.84225477 Z" id="Stroke-3" stroke="#20314A" stroke-linecap="round" stroke-linejoin="round"></path>
            <path d="M12,8.18847656 L12,7.59716797 L13.0117188,7.59716797 L13.0117188,3.86474609 L12,4.11767578 L12,3.50927734 L14.0268555,3.00341797 L14.0268555,7.59716797 L15.0385742,7.59716797 L15.0385742,8.18847656 L12,8.18847656 Z M16.6303711,5.47802734 C16.1427384,5.15673667 15.8989258,4.76937076 15.8989258,4.31591797 C15.8989258,3.92398893 16.0527328,3.60669067 16.3603516,3.36401367 C16.6679703,3.12133668 17.0712866,3 17.5703125,3 C18.0397159,3 18.415119,3.10367735 18.6965332,3.31103516 C18.9779474,3.51839296 19.1186523,3.79524566 19.1186523,4.14160156 C19.1186523,4.58821838 18.8338245,5.01090295 18.2641602,5.40966797 C18.9842158,5.78564641 19.3442383,6.25846069 19.3442383,6.828125 C19.3442383,7.27246316 19.1687843,7.63134629 18.8178711,7.90478516 C18.4669579,8.17822402 18.006676,8.31494141 17.4370117,8.31494141 C16.8924126,8.31494141 16.453208,8.18961714 16.1193848,7.93896484 C15.7855615,7.68831255 15.6186523,7.35791221 15.6186523,6.94775391 C15.6186523,6.35302437 15.9558886,5.86312042 16.6303711,5.47802734 Z M17.737793,5.12255859 C18.0750342,4.86051301 18.2436523,4.58024238 18.2436523,4.28173828 C18.2436523,4.08577376 18.1741543,3.92911843 18.0351562,3.81176758 C17.8961582,3.69441673 17.712729,3.63574219 17.4848633,3.63574219 C17.2729482,3.63574219 17.1014818,3.68701121 16.970459,3.78955078 C16.8394362,3.89209036 16.7739258,4.02652912 16.7739258,4.19287109 C16.7739258,4.35693441 16.8388665,4.50105732 16.96875,4.62524414 C17.0986335,4.74943096 17.3549786,4.91520079 17.737793,5.12255859 Z M17.1293945,5.81640625 C16.7625307,6.12174632 16.5791016,6.44417148 16.5791016,6.78369141 C16.5791016,7.04801564 16.6708161,7.26562415 16.854248,7.43652344 C17.03768,7.60742273 17.2706692,7.69287109 17.5532227,7.69287109 C17.8015963,7.69287109 18.0095206,7.62565171 18.177002,7.49121094 C18.3444833,7.35677016 18.4282227,7.18929137 18.4282227,6.98876953 C18.4282227,6.81559158 18.3718267,6.66748108 18.2590332,6.54443359 C18.1462397,6.4213861 17.9269222,6.26757905 17.6010742,6.08300781 L17.1293945,5.81640625 Z M21.5375977,8.31494141 C20.963376,8.31494141 20.496828,8.06885012 20.1379395,7.57666016 C19.7790509,7.0844702 19.5996094,6.44531643 19.5996094,5.65917969 C19.5996094,4.86392832 19.7796206,4.22249593 20.1396484,3.73486328 C20.4996763,3.24723063 20.9736299,3.00341797 21.5615234,3.00341797 C22.1448597,3.00341797 22.6171043,3.24666098 22.9782715,3.7331543 C23.3394387,4.21964761 23.5200195,4.85709241 23.5200195,5.64550781 C23.5200195,6.45443113 23.3394387,7.10156007 22.9782715,7.58691406 C22.6171043,8.07226805 22.1368845,8.31494141 21.5375977,8.31494141 Z M21.5478516,7.68261719 C22.1471384,7.68261719 22.4467773,7.00814477 22.4467773,5.65917969 C22.4467773,4.31021461 22.1516957,3.63574219 21.5615234,3.63574219 C20.9713512,3.63574219 20.6762695,4.3090753 20.6762695,5.65576172 C20.6762695,7.00700545 20.966794,7.68261719 21.5478516,7.68261719 Z M25.6552734,8.31494141 C25.0810518,8.31494141 24.6145037,8.06885012 24.2556152,7.57666016 C23.8967267,7.0844702 23.7172852,6.44531643 23.7172852,5.65917969 C23.7172852,4.86392832 23.8972964,4.22249593 24.2573242,3.73486328 C24.6173521,3.24723063 25.0913057,3.00341797 25.6791992,3.00341797 C26.2625355,3.00341797 26.7347801,3.24666098 27.0959473,3.7331543 C27.4571144,4.21964761 27.6376953,4.85709241 27.6376953,5.64550781 C27.6376953,6.45443113 27.4571144,7.10156007 27.0959473,7.58691406 C26.7347801,8.07226805 26.2545603,8.31494141 25.6552734,8.31494141 Z M25.6655273,7.68261719 C26.2648142,7.68261719 26.5644531,7.00814477 26.5644531,5.65917969 C26.5644531,4.31021461 26.2693714,3.63574219 25.6791992,3.63574219 C25.089027,3.63574219 24.7939453,4.3090753 24.7939453,5.65576172 C24.7939453,7.00700545 25.0844698,7.68261719 25.6655273,7.68261719 Z" id="1800" fill="#22334B"></path>
        </g>
    </g>
</svg>