<?xml version="1.0" encoding="UTF-8"?>
<svg width="21px" height="26px" viewBox="0 0 21 26" version="1.1" xmlns="http://www.w3.org/2000/svg" xmlns:xlink="http://www.w3.org/1999/xlink">
    <!-- Generator: Sketch 50.2 (55047) - http://www.bohemiancoding.com/sketch -->
    <title>Group 2</title>
    <desc>Created with Sketch.</desc>
    <defs></defs>
    <g id="Page-1" stroke="none" stroke-width="1" fill="none" fill-rule="evenodd">
        <g id="Features-2" transform="translate(-578.000000, -1038.000000)" fill="#0B203E" fill-rule="nonzero">
            <g id="Group-2" transform="translate(578.000000, 1038.000000)">
                <g id="Global-Network-2">
                    <path d="M10.0625,4.76666667 L10.0625,0.433333333 C8.6625,0.693333333 7.35,2.34 6.5625,4.68 L10.0625,4.68 L10.0625,4.76666667 Z" id="Shape"></path>
                    <path d="M14.7,5.63333333 L10.9375,5.63333333 L10.9375,9.96666667 L15.3125,9.96666667 C15.225,8.40666667 15.05,6.93333333 14.7,5.63333333 Z" id="Shape"></path>
                    <path d="M10.0625,10.8333333 L5.6875,10.8333333 C5.6875,12.3933333 5.95,13.8666667 6.3,15.1666667 L10.0625,15.1666667 L10.0625,10.8333333 Z" id="Shape"></path>
                    <path d="M10.0625,5.63333333 L6.3,5.63333333 C5.95,6.93333333 5.775,8.40666667 5.6875,9.96666667 L10.0625,9.96666667 L10.0625,5.63333333 Z" id="Shape"></path>
                    <path d="M15.6625,15.1666667 L19.3375,15.1666667 C20.0375,13.8666667 20.475,12.3933333 20.5625,10.8333333 L16.1875,10.8333333 C16.1875,12.3933333 15.925,13.8666667 15.6625,15.1666667 Z" id="Shape"></path>
                    <path d="M4.8125,10.8333333 L0.4375,10.8333333 C0.525,12.3933333 0.9625,13.8666667 1.6625,15.1666667 L5.3375,15.1666667 C5.075,13.8666667 4.8125,12.3933333 4.8125,10.8333333 Z" id="Shape"></path>
                    <path d="M10.9375,0.433333333 L10.9375,4.68 L14.4375,4.68 C13.65,2.42666667 12.3375,0.78 10.9375,0.433333333 Z" id="Shape"></path>
                    <path d="M5.3375,5.63333333 L1.6625,5.63333333 C0.9625,6.93333333 0.525,8.40666667 0.4375,9.96666667 L4.8125,9.96666667 C4.8125,8.40666667 5.075,6.93333333 5.3375,5.63333333 Z" id="Shape"></path>
                    <path d="M15.3125,10.8333333 L10.9375,10.8333333 L10.9375,15.1666667 L14.7,15.1666667 C15.05,13.8666667 15.225,12.3933333 15.3125,10.8333333 Z" id="Shape"></path>
                    <path d="M7.7875,0.78 C5.5125,1.38666667 3.5,2.86 2.1875,4.76666667 L5.6,4.76666667 C6.125,3.03333333 6.9125,1.64666667 7.7875,0.78 Z" id="Shape"></path>
                    <path d="M10.0625,20.28 L10.0625,16.0333333 L6.5625,16.0333333 C7.35,18.3733333 8.6625,20.02 10.0625,20.28 Z" id="Shape"></path>
                    <path d="M18.8125,16.0333333 L15.4,16.0333333 C14.875,17.68 14.0875,19.0666667 13.2125,19.9333333 C15.4875,19.3266667 17.5,17.94 18.8125,16.0333333 Z" id="Shape"></path>
                    <path d="M2.1875,16.0333333 C3.5,17.94 5.5125,19.3266667 7.7875,20.02 C6.9125,19.0666667 6.125,17.7666667 5.6,16.0333333 L2.1875,16.0333333 Z" id="Shape"></path>
                    <path d="M14.4375,16.0333333 L10.9375,16.0333333 L10.9375,20.28 C12.3375,20.02 13.65,18.3733333 14.4375,16.0333333 Z" id="Shape"></path>
                    <path d="M18.8125,4.76666667 C17.5,2.86 15.4875,1.47333333 13.2125,0.78 C14.0875,1.73333333 14.875,3.03333333 15.4,4.76666667 L18.8125,4.76666667 Z" id="Shape"></path>
                    <path d="M16.1875,9.96666667 L20.5625,9.96666667 C20.475,8.40666667 20.0375,6.93333333 19.3375,5.63333333 L15.6625,5.63333333 C15.925,6.93333333 16.1875,8.40666667 16.1875,9.96666667 Z" id="Shape"></path>
                    <path d="M18.375,23.8333333 L12.6875,23.8333333 L12.6875,23.4 C12.6875,23.14 12.5125,22.9666667 12.25,22.9666667 L11.8125,22.9666667 L11.8125,22.5333333 C11.8125,22.2733333 11.6375,22.1 11.375,22.1 L9.625,22.1 C9.3625,22.1 9.1875,22.2733333 9.1875,22.5333333 L9.1875,22.9666667 L8.75,22.9666667 C8.4875,22.9666667 8.3125,23.14 8.3125,23.4 L8.3125,23.8333333 L2.625,23.8333333 C2.3625,23.8333333 2.1875,24.0066667 2.1875,24.2666667 C2.1875,24.5266667 2.3625,24.7 2.625,24.7 L8.3125,24.7 L8.3125,25.1333333 C8.3125,25.3933333 8.4875,25.5666667 8.75,25.5666667 L12.25,25.5666667 C12.5125,25.5666667 12.6875,25.3933333 12.6875,25.1333333 L12.6875,24.7 L18.375,24.7 C18.6375,24.7 18.8125,24.5266667 18.8125,24.2666667 C18.8125,24.0066667 18.6375,23.8333333 18.375,23.8333333 Z" id="Shape"></path>
                </g>
            </g>
        </g>
    </g>
</svg>