<?xml version="1.0" encoding="UTF-8"?>
<svg width="27px" height="23px" viewBox="0 0 27 23" version="1.1" xmlns="http://www.w3.org/2000/svg" xmlns:xlink="http://www.w3.org/1999/xlink">
    <!-- Generator: Sketch 50.2 (55047) - http://www.bohemiancoding.com/sketch -->
    <title>Group Copy</title>
    <desc>Created with Sketch.</desc>
    <defs>
        <linearGradient x1="3.061617e-15%" y1="50%" x2="100%" y2="50%" id="linearGradient-1">
            <stop stop-color="#E6167F" offset="0%"></stop>
            <stop stop-color="#FF8000" offset="100%"></stop>
        </linearGradient>
    </defs>
    <g id="Page-1" stroke="none" stroke-width="1" fill="none" fill-rule="evenodd">
        <g id="Mobile" transform="translate(-23.000000, -2132.000000)" fill="url(#linearGradient-1)" fill-rule="nonzero">
            <g id="Group-19" transform="translate(17.000000, 1661.000000)">
                <g id="Group-Copy" transform="translate(6.000000, 471.000000)">
                    <path d="M24.6946067,15.8559854 C24.684641,15.8449343 24.6752702,15.8333165 24.6639657,15.8232572 L24.1027588,15.3319097 C23.9566933,15.2043974 23.7297117,15.213465 23.5958431,15.3524534 L23.0801515,15.8870134 C22.9459854,16.0258602 22.9556537,16.2420644 23.1017192,16.3695767 L23.6627774,16.8609242 C23.6748255,16.8715502 23.6882124,16.879626 23.7014505,16.8884102 C23.4951441,17.1485353 23.2510571,17.428354 22.9779651,17.7114314 C22.7048732,17.9945088 22.4329712,18.2501001 22.1781746,18.4677212 C22.1680601,18.4559617 22.1580944,18.4440605 22.1460462,18.4334345 L21.5846905,17.942087 C21.4390713,17.814433 21.2119409,17.8236422 21.0780723,17.9627724 L20.5623807,18.497049 C20.4283634,18.6360374 20.4377342,18.8523833 20.5837997,18.9798957 L21.1450066,19.4713848 C21.1566085,19.4813025 21.1694004,19.4892366 21.1820435,19.4975957 C21.188737,19.5051048 21.1937942,19.5138889 21.2010826,19.5204062 C21.5367953,19.8139679 22.5964396,19.2353453 23.5683256,18.227998 C24.5400629,17.2206506 25.0557545,16.165982 24.7200418,15.8724203 C24.7124559,15.8656197 24.7029363,15.8617943 24.6946067,15.8559854 Z" id="Shape"></path>
                    <path d="M22.6451613,13.0645161 C20.2399961,13.0645161 18.2903226,15.0141896 18.2903226,17.4193548 C18.2903226,19.8242639 20.2399961,21.7741935 22.6451613,21.7741935 C25.0503265,21.7741935 27,19.8242639 27,17.4193548 C27.0001281,15.0141896 25.0504546,13.0645161 22.6451613,13.0645161 Z M22.6451613,21.1815164 C20.5673968,21.1815164 18.8829998,19.4971194 18.8829998,17.4190987 C18.8829998,15.3414622 20.5673968,13.6571933 22.6451613,13.6571933 C24.7229258,13.6571933 26.4073228,15.3414622 26.4073228,17.4190987 C26.4074509,19.4971194 24.7229258,21.1815164 22.6451613,21.1815164 Z" id="Shape"></path>
                    <path d="M17.3235996,17.6469856 C17.3235996,16.0861756 18.0390789,14.6920159 19.1612903,13.7717219 C18.3290977,12.3633706 17.1721438,11.2891311 15.8327914,10.7356571 C17.1813723,10.0017466 18.0962141,8.57636537 18.0962141,6.93797436 C18.0962141,4.54931867 16.1518529,2.61290323 13.7533957,2.61290323 C11.3549385,2.61290323 9.41057729,4.54931867 9.41057729,6.93797436 C9.41057729,8.57636537 10.3254191,10.0017466 11.674,10.7356571 C8.94386002,11.8639601 6.96774194,15.1520954 6.96774194,19.0346577 C6.96774194,22.850722 15.4922873,23.6415342 19.0288344,21.4083108 C17.9835723,20.4888277 17.3235996,19.1450822 17.3235996,17.6469856 Z" id="Shape"></path>
                    <path d="M19.4066335,6.55002905 C19.4066335,8.07322269 18.6944918,9.4342082 17.5769133,10.3345711 C19.1531664,11.1846818 20.0944379,12.6887446 20.3091867,13.0592366 C21.1207517,12.5352936 22.0935511,12.229604 23.140192,12.229604 C24.6792477,12.229604 26.059005,12.8902923 27,13.9354839 C26.3592107,11.1705358 24.6542191,8.97574119 22.479767,8.09666473 C23.8537165,7.36511144 24.7859998,5.94430832 24.7859998,4.3111796 C24.7859998,1.93019594 22.8047248,0 20.3610417,0 C18.7369437,0 17.3180533,0.852939938 16.5483871,2.12366012 C18.2392742,2.91530048 19.4066335,4.59975918 19.4066335,6.55002905 Z" id="Shape"></path>
                    <path d="M7.15145222,13.2127717 C7.15145222,13.2127717 8.104563,11.3580459 9.87497235,10.3805058 C8.79170818,9.47542126 8.10186832,8.11109061 8.10186832,6.58451377 C8.10186832,4.62401641 9.23943042,2.93072416 10.8870968,2.1347969 C10.1370307,0.857412878 8.7545215,0 7.17220131,0 C4.79090643,0 2.86070215,1.94031816 2.86070215,4.33378804 C2.86070215,5.97548112 3.76881166,7.40373514 5.10780162,8.1391248 C2.39735072,9.26970176 0.435483871,12.5644641 0.435483871,16.4548515 C0.435483871,18.6133488 3.13259606,19.8051405 6.11332406,20.0322581 C4.93803634,17.0988253 7.15145222,13.2127717 7.15145222,13.2127717 Z" id="Shape"></path>
                </g>
            </g>
        </g>
    </g>
</svg>