<?xml version="1.0" encoding="UTF-8"?>
<svg width="60px" height="51px" viewBox="0 0 60 51" version="1.1" xmlns="http://www.w3.org/2000/svg" xmlns:xlink="http://www.w3.org/1999/xlink">
    <!-- Generator: Sketch 50.2 (55047) - http://www.bohemiancoding.com/sketch -->
    <title>Group Copy</title>
    <desc>Created with Sketch.</desc>
    <defs>
        <linearGradient x1="3.061617e-15%" y1="50%" x2="100%" y2="50%" id="linearGradient-1">
            <stop stop-color="#E6167F" offset="0%"></stop>
            <stop stop-color="#FF8000" offset="100%"></stop>
        </linearGradient>
    </defs>
    <g id="Page-1" stroke="none" stroke-width="1" fill="none" fill-rule="evenodd">
        <g id="Raza---Homepage-" transform="translate(-134.000000, -2254.000000)" fill="url(#linearGradient-1)" fill-rule="nonzero">
            <g id="Group-Copy" transform="translate(133.000000, 2254.000000)">
                <path d="M55.7915189,35.7098475 C55.7690037,35.6849589 55.7478326,35.6587941 55.7222929,35.6361392 L54.454381,34.5295574 C54.1243811,34.2423822 53.6115708,34.2628036 53.3091269,34.5758245 L52.1440459,35.7797268 C51.84093,36.0924286 51.8627732,36.5793501 52.192773,36.8665253 L53.4603488,37.9731071 C53.4875688,37.9970383 53.5178132,38.0152261 53.5477215,38.0350093 C53.0816219,38.6208467 52.5301659,39.2510367 51.9131805,39.8885656 C51.296195,40.5260945 50.6818979,41.1017212 50.1062464,41.5918335 C50.0833951,41.5653496 50.0608798,41.5385466 50.0336599,41.5146153 L48.7654119,40.4080336 C48.4364202,40.1205393 47.9232738,40.1412797 47.62083,40.4546198 L46.455749,41.6578838 C46.1529691,41.9709048 46.1741401,42.4581454 46.50414,42.7453206 L47.7720519,43.8522214 C47.7982637,43.8745572 47.8271639,43.8924259 47.855728,43.9112518 C47.8708502,43.9281633 47.8822759,43.9479465 47.8987423,43.9626243 C48.6572043,44.6237654 51.0512155,43.3206282 53.2469579,41.0519442 C55.4423643,38.7832602 56.6074453,36.4080023 55.8489833,35.7468612 C55.8318448,35.7315451 55.8103377,35.7229299 55.7915189,35.7098475 Z" id="Shape"></path>
                <path d="M51.1612903,29.4230769 C45.7273986,29.4230769 41.3225806,33.8140083 41.3225806,39.2307692 C41.3225806,44.6469532 45.7273986,49.0384615 51.1612903,49.0384615 C56.5951821,49.0384615 61,44.6469532 61,39.2307692 C61.0002894,33.8140083 56.5954715,29.4230769 51.1612903,29.4230769 Z M51.1612903,47.7036715 C46.4670816,47.7036715 42.661592,43.9101791 42.661592,39.2301923 C42.661592,34.5510709 46.4670816,30.757867 51.1612903,30.757867 C55.8554991,30.757867 59.6609886,34.5510709 59.6609886,39.2301923 C59.661278,43.9101791 55.8554991,47.7036715 51.1612903,47.7036715 Z" id="Shape"></path>
                <path d="M39.1385027,39.7434249 C39.1385027,36.2282673 40.754956,33.0884291 43.2903226,31.015801 C41.4101838,27.8440014 38.7963248,25.424667 35.7703807,24.178168 C38.8171744,22.5253012 40.8840393,19.3151476 40.8840393,15.625267 C40.8840393,10.2456878 36.4912232,5.88461538 31.0724866,5.88461538 C25.65375,5.88461538 21.2609339,10.2456878 21.2609339,15.625267 C21.2609339,19.3151476 23.3277988,22.5253012 26.3745925,24.178168 C20.2064986,26.7192605 15.7419355,34.1245909 15.7419355,42.8686521 C15.7419355,51.4629508 35.0010936,53.2439681 42.9910702,48.2144435 C40.6295521,46.1436419 39.1385027,43.1173431 39.1385027,39.7434249 Z" id="Shape"></path>
                <path d="M43.8446165,14.7515612 C43.8446165,18.1820015 42.2357037,21.247127 39.7108041,23.2748674 C43.2719685,25.189433 45.398545,28.5767881 45.8837181,29.4111867 C47.7172538,28.2311954 49.9150598,27.5427406 52.279693,27.5427406 C55.7568189,27.5427406 58.8740483,29.030701 61,31.3846154 C59.5522909,25.1575742 55.7002727,20.2145966 50.7876216,18.2347962 C53.8917298,16.5872382 55.9979996,13.3873952 55.9979996,9.70936601 C55.9979996,4.34706521 51.5217857,0 46.0008719,0 C42.3316137,0 39.1259722,1.92093738 37.3870968,4.78277301 C41.2072492,6.56565535 43.8446165,10.3592867 43.8446165,14.7515612 Z" id="Shape"></path>
                <path d="M16.1569846,29.7569688 C16.1569846,29.7569688 18.310309,25.5798725 22.3101227,23.3783186 C19.8627481,21.3399445 18.304221,18.2672853 18.304221,14.8292255 C18.304221,10.4139173 20.8742687,6.6003916 24.5967742,4.80785456 C22.9021804,1.93101105 19.7787338,0 16.2038622,0 C10.8238997,0 6.46306782,4.36986185 6.46306782,9.76028332 C6.46306782,13.4576006 8.51472264,16.674224 11.5398481,18.3304221 C5.41623682,20.876636 0.983870968,28.2968914 0.983870968,37.0585757 C0.983870968,41.9198069 7.07734666,44.6038848 13.811584,45.1153846 C11.1563043,38.5088928 16.1569846,29.7569688 16.1569846,29.7569688 Z" id="Shape"></path>
            </g>
        </g>
    </g>
</svg>