<?xml version="1.0" encoding="UTF-8"?>
<svg width="26px" height="45px" viewBox="0 0 26 45" version="1.1" xmlns="http://www.w3.org/2000/svg" xmlns:xlink="http://www.w3.org/1999/xlink">
    <!-- Generator: Sketch 50.2 (55047) - http://www.bohemiancoding.com/sketch -->
    <title>Shape</title>
    <desc>Created with Sketch.</desc>
    <defs>
        <linearGradient x1="50%" y1="6.123234e-15%" x2="50%" y2="100%" id="linearGradient-1">
            <stop stop-color="#E6167F" offset="0%"></stop>
            <stop stop-color="#FF8000" offset="100%"></stop>
        </linearGradient>
    </defs>
    <g id="Xtras-New-Section" stroke="none" stroke-width="1" fill="none" fill-rule="evenodd">
        <g id="Raza---How-it-Works" transform="translate(-640.000000, -626.000000)" fill="url(#linearGradient-1)" fill-rule="nonzero">
            <g id="Group-4" transform="translate(534.000000, 572.000000)">
                <path d="M129.947368,70.3636364 C128.815411,70.3636364 127.894737,71.2810909 127.894737,72.4090909 L127.894737,75.1363636 C127.894737,75.5127273 127.588211,75.8181818 127.210526,75.8181818 C126.832842,75.8181818 126.526316,75.5127273 126.526316,75.1363636 L126.526316,69.6818182 C126.526316,68.5538182 125.605642,67.6363636 124.473684,67.6363636 C123.341726,67.6363636 122.421053,68.5538182 122.421053,69.6818182 L122.421053,75.1363636 C122.421053,75.5127273 122.114526,75.8181818 121.736842,75.8181818 C121.359158,75.8181818 121.052632,75.5127273 121.052632,75.1363636 L121.052632,66.9545455 C121.052632,65.8265455 120.131958,64.9090909 119,64.9090909 C117.868042,64.9090909 116.947368,65.8265455 116.947368,66.9545455 L116.947368,75.1363636 C116.947368,75.5127273 116.640842,75.8181818 116.263158,75.8181818 C115.885474,75.8181818 115.578947,75.5127273 115.578947,75.1363636 L115.578947,56.0454545 C115.578947,54.9174545 114.658274,54 113.526316,54 C112.394358,54 111.473684,54.9174545 111.473684,56.0454545 L111.473684,83.3181818 C111.473684,83.6945455 111.167158,84 110.789474,84 C110.411789,84 110.105263,83.6945455 110.105263,83.3181818 L110.105263,75.1363636 C110.105263,74.0083636 109.184589,73.0909091 108.052632,73.0909091 C106.920674,73.0909091 106,74.0083636 106,75.1363636 L106,88.7727273 C106,90.4396364 106.891116,92.0078182 108.325221,92.8652727 L111.531158,94.7825455 C113.040253,95.6847273 114.027158,97.2698182 114.187537,99 L129.947368,99 C131.079326,99 132,98.0825455 132,96.9545455 L132,72.4090909 C132,71.2810909 131.079326,70.3636364 129.947368,70.3636364 Z" id="Shape"></path>
            </g>
        </g>
    </g>
</svg>