<?xml version="1.0" encoding="UTF-8"?>
<svg width="44px" height="44px" viewBox="0 0 44 44" version="1.1" xmlns="http://www.w3.org/2000/svg" xmlns:xlink="http://www.w3.org/1999/xlink">
    <!-- Generator: Sketch 50.2 (55047) - http://www.bohemiancoding.com/sketch -->
    <title>Combined Shape</title>
    <desc>Created with Sketch.</desc>
    <defs>
        <linearGradient x1="50%" y1="6.123234e-15%" x2="50%" y2="100%" id="linearGradient-1">
            <stop stop-color="#E6167F" offset="0%"></stop>
            <stop stop-color="#FF8000" offset="100%"></stop>
        </linearGradient>
    </defs>
    <g id="Xtras-New-Section" stroke="none" stroke-width="1" fill="none" fill-rule="evenodd">
        <g id="Raza---How-it-Works" transform="translate(-1088.000000, -626.000000)" fill="url(#linearGradient-1)" fill-rule="nonzero">
            <g id="Group-2" transform="translate(976.000000, 568.000000)">
                <g id="Group" transform="translate(112.000000, 58.000000)">
                    <path d="M42.7119515,35.1225685 C43.8344004,36.2450175 43.8344004,38.0678462 42.711951,39.1902952 L41.3740006,40.5283004 C39.4074679,42.4948333 36.5968512,43.5364418 33.247481,43.5364418 C26.5127871,43.5364418 18.1348134,39.3429877 11.3911303,32.5993055 C6.38949062,27.5976662 2.78866594,21.7789066 1.24420246,16.2025603 C-0.336214416,10.4556004 0.445005673,5.62463045 3.46213533,2.60744584 L4.79115174,1.27848376 C5.87764733,0.191933388 7.7813164,0.191933388 8.85887838,1.27848376 L16.5813063,8.9919773 C17.6948217,10.1144263 17.6948217,11.9372541 16.5813063,13.059703 L14.4711241,15.1609517 C12.4148173,17.2262468 13.9592808,22.245808 17.8474594,26.1339883 C20.49645,28.7829788 23.7200927,30.4262595 26.2613326,30.4262595 C27.3568165,30.4262595 28.218877,30.1209293 28.8204943,29.5103236 L30.9307313,27.409075 C32.0172269,26.3225795 33.9119624,26.3225795 34.9984579,27.409075 L42.7119515,35.1225685 Z M23.2631662,10.4649725 C22.7668333,10.4649725 22.365207,10.0629078 22.365207,9.5670133 C22.365207,9.07111884 22.7668333,8.66905411 23.2631662,8.66905411 C29.8207236,8.66905411 35.154987,14.0033166 35.154987,20.5604356 C35.154987,21.05633 34.7533608,21.4583948 34.2570278,21.4583948 C33.7606949,21.4583948 33.3590686,21.05633 33.3590686,20.5604356 C33.3590686,14.9937902 28.8298116,10.4649725 23.2631662,10.4649725 Z M23.7542376,4.24590311 C23.2579047,4.24590311 22.8562784,3.84383838 22.8562784,3.34794393 C22.8562784,2.85204947 23.2579047,2.44998474 23.7542376,2.44998474 C33.4695596,2.44998474 41.3740558,10.3540433 41.3740558,20.069803 C41.3740558,20.5656974 40.9724296,20.9677622 40.4760967,20.9677622 C39.9797637,20.9677622 39.5781375,20.5656974 39.5781375,20.069803 C39.5781375,11.3445164 32.4795246,4.24590311 23.7542376,4.24590311 Z" id="Combined-Shape"></path>
                </g>
            </g>
        </g>
    </g>
</svg>