<?xml version="1.0" encoding="UTF-8"?>
<svg width="30px" height="38px" viewBox="0 0 30 38" version="1.1" xmlns="http://www.w3.org/2000/svg" xmlns:xlink="http://www.w3.org/1999/xlink">
    <!-- Generator: Sketch 50.2 (55047) - http://www.bohemiancoding.com/sketch -->
    <title>Group</title>
    <desc>Created with Sketch.</desc>
    <defs>
        <linearGradient x1="50%" y1="6.123234e-15%" x2="50%" y2="100%" id="linearGradient-1">
            <stop stop-color="#E6167F" offset="0%"></stop>
            <stop stop-color="#FF8000" offset="100%"></stop>
        </linearGradient>
    </defs>
    <g id="Xtras-New-Section" stroke="none" stroke-width="1" fill="none" fill-rule="evenodd">
        <g id="Raza---How-it-Works" transform="translate(-198.000000, -648.000000)" fill="url(#linearGradient-1)" fill-rule="nonzero">
            <g id="Group-3" transform="translate(118.000000, 572.000000)">
                <g id="Group" transform="translate(80.000000, 76.000000)">
                    <path d="M4.16575541,7.96213644 C1.94961185,7.96213644 0.153072527,6.18955098 0.153072527,4.002956 C0.153072527,1.81636102 1.94961185,0.0437755607 4.16575541,0.0437755607 C6.38189896,0.0437755607 8.17843828,1.81636102 8.17843828,4.002956 C8.17843828,6.18955098 6.38189896,7.96213644 4.16575541,7.96213644 Z M14.8662434,7.96213644 C12.6500998,7.96213644 10.8535605,6.18955098 10.8535605,4.002956 C10.8535605,1.81636102 12.6500998,0.0437755607 14.8662434,0.0437755607 C17.0823869,0.0437755607 18.8789263,1.81636102 18.8789263,4.002956 C18.8789263,6.18955098 17.0823869,7.96213644 14.8662434,7.96213644 Z M25.8342454,7.96213644 C23.6181018,7.96213644 21.8215625,6.18955098 21.8215625,4.002956 C21.8215625,1.81636102 23.6181018,0.0437755607 25.8342454,0.0437755607 C28.050389,0.0437755607 29.8469283,1.81636102 29.8469283,4.002956 C29.8469283,6.18955098 28.050389,7.96213644 25.8342454,7.96213644 Z M4.16575541,17.9234364 C1.94961185,17.9234364 0.153072527,16.150851 0.153072527,13.964256 C0.153072527,11.777661 1.94961185,10.0050756 4.16575541,10.0050756 C6.38189896,10.0050756 8.17843828,11.777661 8.17843828,13.964256 C8.17843828,16.150851 6.38189896,17.9234364 4.16575541,17.9234364 Z M14.8662434,17.9234364 C12.6500998,17.9234364 10.8535605,16.150851 10.8535605,13.964256 C10.8535605,11.777661 12.6500998,10.0050756 14.8662434,10.0050756 C17.0823869,10.0050756 18.8789263,11.777661 18.8789263,13.964256 C18.8789263,16.150851 17.0823869,17.9234364 14.8662434,17.9234364 Z M25.8342454,17.9234364 C23.6181018,17.9234364 21.8215625,16.150851 21.8215625,13.964256 C21.8215625,11.777661 23.6181018,10.0050756 25.8342454,10.0050756 C28.050389,10.0050756 29.8469283,11.777661 29.8469283,13.964256 C29.8469283,16.150851 28.050389,17.9234364 25.8342454,17.9234364 Z M4.16575541,27.8847004 C1.94961185,27.8847004 0.153072527,26.112115 0.153072527,23.92552 C0.153072527,21.738925 1.94961185,19.9663396 4.16575541,19.9663396 C6.38189896,19.9663396 8.17843828,21.738925 8.17843828,23.92552 C8.17843828,26.112115 6.38189896,27.8847004 4.16575541,27.8847004 Z M14.8662434,27.8847004 C12.6500998,27.8847004 10.8535605,26.112115 10.8535605,23.92552 C10.8535605,21.738925 12.6500998,19.9663396 14.8662434,19.9663396 C17.0823869,19.9663396 18.8789263,21.738925 18.8789263,23.92552 C18.8789263,26.112115 17.0823869,27.8847004 14.8662434,27.8847004 Z M25.8342454,27.8847004 C23.6181018,27.8847004 21.8215625,26.112115 21.8215625,23.92552 C21.8215625,21.738925 23.6181018,19.9663396 25.8342454,19.9663396 C28.050389,19.9663396 29.8469283,21.738925 29.8469283,23.92552 C29.8469283,26.112115 28.050389,27.8847004 25.8342454,27.8847004 Z M14.8662434,37.8459404 C12.6500998,37.8459404 10.8535605,36.073355 10.8535605,33.88676 C10.8535605,31.700165 12.6500998,29.9275796 14.8662434,29.9275796 C17.0823869,29.9275796 18.8789263,31.700165 18.8789263,33.88676 C18.8789263,36.073355 17.0823869,37.8459404 14.8662434,37.8459404 Z" id="Combined-Shape"></path>
                </g>
            </g>
        </g>
    </g>
</svg>