<?xml version="1.0" encoding="UTF-8"?>
<svg width="110px" height="32px" viewBox="0 0 110 32" version="1.1" xmlns="http://www.w3.org/2000/svg" xmlns:xlink="http://www.w3.org/1999/xlink">
    <!-- Generator: Sketch 49.3 (51167) - http://www.bohemiancoding.com/sketch -->
    <title>Download_on_the_App_Store_Badge_US-UK_135x40</title>
    <desc>Created with Sketch.</desc>
    <defs></defs>
    <g id="Symbols" stroke="none" stroke-width="1" fill="none" fill-rule="evenodd">
        <g id="footer" transform="translate(-239.000000, -279.000000)" fill-rule="nonzero">
            <g id="Group-28" transform="translate(0.000000, -2.000000)">
                <g id="Group-23" transform="translate(121.000000, 281.000000)">
                    <g id="Download_on_the_App_Store_Badge_US-UK_135x40" transform="translate(118.956522, 0.000000)">
                        <path d="M105.163954,32 L3.81975266,32 C1.71400193,32 0,30.2976 0,28.2136 L0,3.7808 C0,1.696 1.71400193,0 3.81975266,0 L105.163954,0 C107.268897,0 109.043478,1.696 109.043478,3.7808 L109.043478,28.2136 C109.043478,30.2976 107.268897,32 105.163954,32 Z" id="Shape" fill="#A6A6A6"></path>
                        <path d="M108.261596,28.2144 C108.261596,29.9072 106.877148,31.2784 105.164761,31.2784 L3.81975266,31.2784 C2.10817391,31.2784 0.718879227,29.9072 0.718879227,28.2144 L0.718879227,3.78 C0.718879227,2.088 2.10817391,0.712 3.81975266,0.712 L105.163954,0.712 C106.877148,0.712 108.260788,2.088 108.260788,3.78 L108.261596,28.2144 Z" id="Shape" fill="#000000"></path>
                        <g id="Group" transform="translate(9.692754, 4.800000)" fill="#FFFFFF">
                            <path d="M14.6425198,11.0272 C14.6190957,8.4488 16.7741179,7.1944 16.8726609,7.136 C15.6521816,5.3736 13.7604792,5.1328 13.0957179,5.1136 C11.506914,4.948 9.96576618,6.0552 9.15642126,6.0552 C8.33092174,6.0552 7.08459517,5.1296 5.74134106,5.1568 C4.0128,5.1832 2.3957256,6.1744 1.50883865,7.7136 C-0.321476329,10.852 1.04358647,15.464 2.79716715,18.0008 C3.67436135,19.2432 4.69937005,20.6304 6.0410087,20.5816 C7.35356908,20.528 7.84386087,19.7528 9.42781836,19.7528 C10.9972367,19.7528 11.4576425,20.5816 12.8259362,20.5504 C14.2346164,20.528 15.1215034,19.3024 15.9680039,18.0488 C16.9817043,16.6248 17.3888,15.2224 17.4049546,15.1504 C17.3718377,15.1392 14.6691749,14.1176 14.6425198,11.0272 Z" id="Shape"></path>
                            <path d="M12.0577855,3.4448 C12.7637411,2.5704 13.2467633,1.3808 13.1126802,0.1736 C12.0909024,0.2184 10.8130744,0.8736 10.0772329,1.7288 C9.4262029,2.4824 8.84463768,3.7176 8.99487536,4.8792 C10.1426589,4.964 11.3211362,4.3056 12.0577855,3.4448 Z" id="Shape"></path>
                        </g>
                        <g id="Group" transform="translate(33.924638, 14.400000)" fill="#FFFFFF">
                            <path d="M9.40600966,10.8032 L7.57165604,10.8032 L6.56684058,7.676 L3.07421836,7.676 L2.11705894,10.8032 L0.331169082,10.8032 L3.79148213,0.1568 L5.9287343,0.1568 L9.40600966,10.8032 Z M6.26394203,6.364 L5.35524638,3.584 C5.25912657,3.3 5.0790029,2.6312 4.8132599,1.5784 L4.78095072,1.5784 C4.67513816,2.0312 4.50470725,2.7 4.2704657,3.584 L3.37792464,6.364 L6.26394203,6.364 Z" id="Shape"></path>
                            <path d="M18.3047652,6.8704 C18.3047652,8.176 17.9485565,9.208 17.2361391,9.9656 C16.5980329,10.64 15.8056502,10.9768 14.859799,10.9768 C13.838829,10.9768 13.1054106,10.6136 12.6587362,9.8872 L12.6264271,9.8872 L12.6264271,13.9312 L10.9043478,13.9312 L10.9043478,5.6536 C10.9043478,4.8328 10.8825391,3.9904 10.8405372,3.1264 L12.35503,3.1264 L12.4511498,4.3432 L12.4834589,4.3432 C13.0577546,3.4264 13.9292947,2.9688 15.098887,2.9688 C16.0132367,2.9688 16.7765411,3.3264 17.3871845,4.0424 C17.9994435,4.7592 18.3047652,5.7016 18.3047652,6.8704 Z M16.5503768,6.9328 C16.5503768,6.1856 16.3807536,5.5696 16.0398918,5.0848 C15.6675285,4.5792 15.167544,4.3264 14.5407459,4.3264 C14.1158802,4.3264 13.7297855,4.4672 13.384885,4.7448 C13.0391768,5.0248 12.8130126,5.3904 12.7072,5.8432 C12.6538899,6.0544 12.6272348,6.2272 12.6272348,6.3632 L12.6272348,7.6432 C12.6272348,8.2016 12.8000889,8.6728 13.1457971,9.0576 C13.4915053,9.4424 13.9406029,9.6344 14.4930899,9.6344 C15.1416966,9.6344 15.6465275,9.3864 16.0075826,8.892 C16.3694454,8.3968 16.5503768,7.744 16.5503768,6.9328 Z" id="Shape"></path>
                            <path d="M27.2196754,6.8704 C27.2196754,8.176 26.8634667,9.208 26.1502415,9.9656 C25.512943,10.64 24.7205604,10.9768 23.7747092,10.9768 C22.7537391,10.9768 22.0203208,10.6136 21.5744541,9.8872 L21.5421449,9.8872 L21.5421449,13.9312 L19.8200657,13.9312 L19.8200657,5.6536 C19.8200657,4.8328 19.798257,3.9904 19.7562551,3.1264 L21.2707478,3.1264 L21.3668676,4.3432 L21.3991768,4.3432 C21.9726647,3.4264 22.8442048,2.9688 24.0146048,2.9688 C24.9281469,2.9688 25.6914512,3.3264 26.3037101,4.0424 C26.9135459,4.7592 27.2196754,5.7016 27.2196754,6.8704 Z M25.465287,6.9328 C25.465287,6.1856 25.294856,5.5696 24.9539942,5.0848 C24.5816309,4.5792 24.0832618,4.3264 23.455656,4.3264 C23.0299826,4.3264 22.6446957,4.4672 22.2989874,4.7448 C21.9532792,5.0248 21.7279227,5.3904 21.6221101,5.8432 C21.5696077,6.0544 21.5421449,6.2272 21.5421449,6.3632 L21.5421449,7.6432 C21.5421449,8.2016 21.714999,8.6728 22.0590918,9.0576 C22.4048,9.4416 22.8538976,9.6344 23.408,9.6344 C24.0566068,9.6344 24.5614377,9.3864 24.9224928,8.892 C25.2843556,8.3968 25.465287,7.744 25.465287,6.9328 Z" id="Shape"></path>
                            <path d="M37.187057,7.8176 C37.187057,8.7232 36.8696193,9.46 36.2323208,10.0288 C35.5320193,10.6504 34.5570899,10.9608 33.3043014,10.9608 C32.1476329,10.9608 31.2203594,10.74 30.5184425,10.2976 L30.9174609,8.876 C31.6734957,9.3288 32.5030338,9.556 33.4068831,9.556 C34.0554899,9.556 34.5603208,9.4104 34.9229913,9.1208 C35.2840464,8.8312 35.46417,8.4424 35.46417,7.9576 C35.46417,7.5256 35.3155478,7.1616 35.0174957,6.8664 C34.7210589,6.5712 34.2259208,6.2968 33.5345043,6.0432 C31.6524947,5.348 30.7122976,4.3296 30.7122976,2.9904 C30.7122976,2.1152 31.0418512,1.3976 31.7017662,0.8392 C32.359258,0.28 33.2364522,0.0008 34.3333488,0.0008 C35.3115092,0.0008 36.124085,0.1696 36.7726918,0.5064 L36.342172,1.8968 C35.7363749,1.5704 35.0514203,1.4072 34.284885,1.4072 C33.6790879,1.4072 33.2057585,1.5552 32.8665121,1.8496 C32.5797681,2.1128 32.4359923,2.4336 32.4359923,2.8136 C32.4359923,3.2344 32.5999614,3.5824 32.929515,3.856 C33.2162589,4.1088 33.7372444,4.3824 34.4932792,4.6776 C35.4181295,5.0464 36.09743,5.4776 36.5344116,5.972 C36.9697778,6.4648 37.187057,7.0816 37.187057,7.8176 Z" id="Shape"></path>
                            <path d="M42.880742,4.4064 L40.9825778,4.4064 L40.9825778,8.1336 C40.9825778,9.0816 41.3169778,9.5552 41.9873932,9.5552 C42.2951382,9.5552 42.5503807,9.5288 42.752313,9.476 L42.7999691,10.7712 C42.4607227,10.8968 42.0140483,10.96 41.4607536,10.96 C40.7806454,10.96 40.2491594,10.7544 39.8654879,10.344 C39.4834319,9.9328 39.2911923,9.2432 39.2911923,8.2744 L39.2911923,4.4048 L38.160371,4.4048 L38.160371,3.1248 L39.2911923,3.1248 L39.2911923,1.7192 L40.9825778,1.2136 L40.9825778,3.1248 L42.880742,3.1248 L42.880742,4.4064 Z" id="Shape"></path>
                            <path d="M51.4450976,6.9016 C51.4450976,8.0816 51.1042357,9.0504 50.4241275,9.808 C49.7109024,10.588 48.7642435,10.9768 47.5841507,10.9768 C46.4468676,10.9768 45.5414029,10.6032 44.8661411,9.856 C44.1908792,9.1088 43.8532483,8.1656 43.8532483,7.0288 C43.8532483,5.8392 44.200572,4.8648 44.8976425,4.1072 C45.5930976,3.3488 46.5316792,2.9696 47.711772,2.9696 C48.8490551,2.9696 49.7642126,3.3432 50.4548213,4.0912 C51.115544,4.8168 51.4450976,5.7536 51.4450976,6.9016 Z M49.6584,6.9568 C49.6584,6.2488 49.5057391,5.6416 49.1963787,5.1352 C48.8353237,4.5224 48.3191845,4.2168 47.6503845,4.2168 C46.9581604,4.2168 46.4323285,4.5232 46.0712734,5.1352 C45.761913,5.6424 45.6092522,6.2592 45.6092522,6.9888 C45.6092522,7.6968 45.761913,8.304 46.0712734,8.8096 C46.4436367,9.4224 46.9638145,9.728 47.6350377,9.728 C48.2925295,9.728 48.8086686,9.416 49.1810319,8.7936 C49.4984696,8.2776 49.6584,7.664 49.6584,6.9568 Z" id="Shape"></path>
                            <path d="M57.0426628,4.6264 C56.8722319,4.5952 56.6904928,4.5792 56.4998686,4.5792 C55.8940715,4.5792 55.4255884,4.8056 55.0960348,5.2592 C54.8092908,5.6592 54.665515,6.1648 54.665515,6.7752 L54.665515,10.8032 L52.9442435,10.8032 L52.9603981,5.544 C52.9603981,4.6592 52.9385894,3.8536 52.8957797,3.1272 L54.3957333,3.1272 L54.4587362,4.596 L54.5063923,4.596 C54.6881314,4.0912 54.9748754,3.6848 55.3674319,3.38 C55.7511034,3.1056 56.1654686,2.9688 56.612143,2.9688 C56.7712657,2.9688 56.9150415,2.98 57.0426628,3 L57.0426628,4.6264 Z" id="Shape"></path>
                            <path d="M64.7443633,6.6016 C64.7443633,6.9072 64.72417,7.1648 64.6813604,7.3752 L59.5151227,7.3752 C59.5353159,8.1336 59.7849043,8.7136 60.2646957,9.1136 C60.7000618,9.4712 61.2630493,9.6504 61.9544657,9.6504 C62.7193855,9.6504 63.4172638,9.5296 64.0448696,9.2872 L64.3146512,10.4712 C63.5812329,10.788 62.7153469,10.9456 61.7161855,10.9456 C60.5142841,10.9456 59.570856,10.5952 58.884286,9.8952 C58.1993314,9.1952 57.8560464,8.2552 57.8560464,7.076 C57.8560464,5.9184 58.1750995,4.9544 58.8140135,4.1856 C59.4828135,3.3648 60.3866628,2.9544 61.5239459,2.9544 C62.6410357,2.9544 63.4867285,3.3648 64.0610242,4.1856 C64.5157758,4.8376 64.7443633,5.644 64.7443633,6.6016 Z M63.1022493,6.1592 C63.1135575,5.6536 63.0012831,5.2168 62.7678493,4.848 C62.4697971,4.3736 62.0118145,4.1368 61.3955169,4.1368 C60.8325295,4.1368 60.3745469,4.368 60.0248,4.832 C59.738056,5.2008 59.5676251,5.6432 59.5151227,6.1584 L63.1022493,6.1584 L63.1022493,6.1592 Z" id="Shape"></path>
                        </g>
                        <g id="Group" transform="translate(34.732367, 4.800000)" fill="#FFFFFF">
                            <path d="M4.88676329,3.2072 C4.88676329,4.1488 4.60163478,4.8576 4.03218551,5.3336 C3.50473816,5.7728 2.75516522,5.9928 1.7842744,5.9928 C1.30286763,5.9928 0.890925604,5.972 0.546025121,5.9304 L0.546025121,0.7856 C0.995930435,0.7136 1.48056812,0.6768 2.00397681,0.6768 C2.92882705,0.6768 3.62589758,0.876 4.09599614,1.2744 C4.62263575,1.7248 4.88676329,2.3688 4.88676329,3.2072 Z M3.99422222,3.2304 C3.99422222,2.62 3.83106087,2.152 3.50473816,1.8256 C3.17841546,1.5 2.70185507,1.3368 2.07424928,1.3368 C1.80769855,1.3368 1.58072657,1.3544 1.3925256,1.3912 L1.3925256,5.3024 C1.49672271,5.3184 1.68734686,5.3256 1.96439807,5.3256 C2.6121971,5.3256 3.11218164,5.1472 3.46435169,4.7904 C3.81652174,4.4336 3.99422222,3.9136 3.99422222,3.2304 Z" id="Shape"></path>
                            <path d="M9.61925024,4.0296 C9.61925024,4.6096 9.45205024,5.0848 9.11765024,5.4576 C8.76709565,5.8408 8.30265121,6.032 7.72270145,6.032 C7.16375266,6.032 6.71869372,5.8488 6.38671691,5.4808 C6.05554783,5.1136 5.88996329,4.6504 5.88996329,4.092 C5.88996329,3.508 6.0603942,3.0288 6.4028715,2.6568 C6.74534879,2.2848 7.20575459,2.0984 7.78570435,2.0984 C8.34465314,2.0984 8.79375072,2.2816 9.13380483,2.6488 C9.45689662,3.0056 9.61925024,3.4664 9.61925024,4.0296 Z M8.74124831,4.0568 C8.74124831,3.7088 8.66532174,3.4104 8.51427633,3.1616 C8.33657585,2.8608 8.08375652,2.7104 7.75501063,2.7104 C7.41495652,2.7104 7.15648309,2.8608 6.97878261,3.1616 C6.82692947,3.4104 6.75181063,3.7136 6.75181063,4.072 C6.75181063,4.42 6.8277372,4.7184 6.97878261,4.9672 C7.1621372,5.268 7.41737971,5.4184 7.74693333,5.4184 C8.07002512,5.4184 8.32365217,5.2656 8.50619903,4.9592 C8.66289855,4.7056 8.74124831,4.4048 8.74124831,4.0568 Z" id="Shape"></path>
                            <path d="M15.9647729,2.1752 L14.773372,5.9464 L13.9979517,5.9464 L13.504429,4.3088 C13.3792309,3.9 13.277457,3.4936 13.1982995,3.0904 L13.1829527,3.0904 C13.1094493,3.5048 13.0076754,3.9104 12.8768232,4.3088 L12.3526068,5.9464 L11.5683014,5.9464 L10.4479807,2.1752 L11.3179053,2.1752 L11.7484251,3.968 C11.8526222,4.392 11.9382415,4.796 12.0068986,5.1784 L12.0222454,5.1784 C12.0852483,4.8632 12.1894454,4.4616 12.3364522,3.976 L12.8768232,2.176 L13.5666242,2.176 L14.0843787,3.9376 C14.2095768,4.3672 14.3113507,4.7808 14.3897005,5.1792 L14.4131246,5.1792 C14.4704734,4.7912 14.5569005,4.3776 14.6715981,3.9376 L15.1336193,2.176 L15.9647729,2.176 L15.9647729,2.1752 Z" id="Shape"></path>
                            <path d="M20.3531671,5.9464 L19.5066667,5.9464 L19.5066667,3.7864 C19.5066667,3.1208 19.2514242,2.788 18.7393237,2.788 C18.4881198,2.788 18.2853797,2.8792 18.1278725,3.0624 C17.9719807,3.2456 17.8928232,3.4616 17.8928232,3.7088 L17.8928232,5.9456 L17.0463227,5.9456 L17.0463227,3.2528 C17.0463227,2.9216 17.0358222,2.5624 17.015629,2.1736 L17.7595478,2.1736 L17.7991266,2.7632 L17.8225507,2.7632 C17.9210937,2.58 18.0681005,2.4288 18.2611478,2.308 C18.490543,2.1672 18.747401,2.096 19.0284908,2.096 C19.3838918,2.096 19.6795208,2.2096 19.91457,2.4376 C20.2069681,2.7168 20.3531671,3.1336 20.3531671,3.6872 L20.3531671,5.9464 Z" id="Shape"></path>
                            <polygon id="Shape" points="22.6875053 5.9464 21.8418126 5.9464 21.8418126 0.4448 22.6875053 0.4448"></polygon>
                            <path d="M27.6711961,4.0296 C27.6711961,4.6096 27.5039961,5.0848 27.1695961,5.4576 C26.8190415,5.8408 26.3537894,6.032 25.7746473,6.032 C25.2148908,6.032 24.7698319,5.8488 24.4386628,5.4808 C24.1074937,5.1136 23.9419092,4.6504 23.9419092,4.092 C23.9419092,3.508 24.1123401,3.0288 24.4548174,2.6568 C24.7972947,2.2848 25.2577005,2.0984 25.8368425,2.0984 C26.396599,2.0984 26.8448889,2.2816 27.1857507,2.6488 C27.5088425,3.0056 27.6711961,3.4664 27.6711961,4.0296 Z M26.7923865,4.0568 C26.7923865,3.7088 26.7164599,3.4104 26.5654145,3.1616 C26.3885217,2.8608 26.1348947,2.7104 25.8069565,2.7104 C25.4660947,2.7104 25.2076213,2.8608 25.0307285,3.1616 C24.8788754,3.4104 24.8037565,3.7136 24.8037565,4.072 C24.8037565,4.42 24.8796831,4.7184 25.0307285,4.9672 C25.2140831,5.268 25.4693256,5.4184 25.7988792,5.4184 C26.121971,5.4184 26.3747903,5.2656 26.5573372,4.9592 C26.7148444,4.7056 26.7923865,4.4048 26.7923865,4.0568 Z" id="Shape"></path>
                            <path d="M31.768,5.9464 L31.0079266,5.9464 L30.9449237,5.512 L30.9214995,5.512 C30.6614106,5.8584 30.2906628,6.032 29.809256,6.032 C29.4498164,6.032 29.1590338,5.9176 28.9401391,5.6904 C28.7414377,5.484 28.642087,5.2272 28.642087,4.9224 C28.642087,4.4616 28.835942,4.1104 29.2260754,3.8672 C29.615401,3.624 30.1630415,3.5048 30.8681894,3.5104 L30.8681894,3.44 C30.8681894,2.9432 30.6048696,2.6952 30.0774222,2.6952 C29.701828,2.6952 29.3706589,2.7888 29.0847227,2.9744 L28.9126763,2.424 C29.2664618,2.2072 29.7034435,2.0984 30.2187749,2.0984 C31.2138976,2.0984 31.7130744,2.6184 31.7130744,3.6584 L31.7130744,5.0472 C31.7130744,5.424 31.7316522,5.724 31.768,5.9464 Z M30.8891903,4.6504 L30.8891903,4.0688 C29.9554551,4.0528 29.4885874,4.3064 29.4885874,4.8288 C29.4885874,5.0256 29.5418976,5.1728 29.6509411,5.2712 C29.7599845,5.3696 29.898914,5.4184 30.0644986,5.4184 C30.2502763,5.4184 30.4239382,5.36 30.5822531,5.244 C30.7413758,5.1272 30.8391111,4.9792 30.8754589,4.7976 C30.884344,4.7568 30.8891903,4.7072 30.8891903,4.6504 Z" id="Shape"></path>
                            <path d="M36.578029,5.9464 L35.8268406,5.9464 L35.7872618,5.3408 L35.7638377,5.3408 C35.523942,5.8016 35.1152309,6.032 34.5409353,6.032 C34.0821449,6.032 33.7000889,5.8536 33.3971903,5.4968 C33.0942918,5.14 32.9432464,4.6768 32.9432464,4.108 C32.9432464,3.4976 33.1072155,3.0032 33.4367691,2.6256 C33.7558222,2.2736 34.1467633,2.0976 34.6120155,2.0976 C35.1233082,2.0976 35.4811324,2.268 35.6846802,2.6096 L35.7008348,2.6096 L35.7008348,0.4448 L36.548143,0.4448 L36.548143,4.9304 C36.548143,5.2976 36.5578357,5.636 36.578029,5.9464 Z M35.7008348,4.356 L35.7008348,3.7272 C35.7008348,3.6184 35.6927575,3.5304 35.6774106,3.4632 C35.6297546,3.2616 35.5271729,3.092 35.3712812,2.9552 C35.2137739,2.8184 35.0239575,2.7496 34.8050628,2.7496 C34.4892406,2.7496 34.2420754,2.8736 34.0603362,3.1224 C33.8802126,3.3712 33.7889391,3.6888 33.7889391,4.0768 C33.7889391,4.4496 33.8753662,4.752 34.049028,4.9848 C34.2323826,5.2328 34.4795478,5.3568 34.7889082,5.3568 C35.0667671,5.3568 35.2888928,5.2536 35.4577082,5.0464 C35.6208696,4.8552 35.7008348,4.6248 35.7008348,4.356 Z" id="Shape"></path>
                            <path d="M43.8177082,4.0296 C43.8177082,4.6096 43.6505082,5.0848 43.3161082,5.4576 C42.9655536,5.8408 42.5019169,6.032 41.9211594,6.032 C41.3630184,6.032 40.9179594,5.8488 40.5851749,5.4808 C40.2540058,5.1136 40.0884213,4.6504 40.0884213,4.092 C40.0884213,3.508 40.2588522,3.0288 40.6013295,2.6568 C40.9438068,2.2848 41.4042126,2.0984 41.98497,2.0984 C42.5431111,2.0984 42.9930164,2.2816 43.3322628,2.6488 C43.6553546,3.0056 43.8177082,3.4664 43.8177082,4.0296 Z M42.940514,4.0568 C42.940514,3.7088 42.8645874,3.4104 42.713542,3.1616 C42.5350338,2.8608 42.2830222,2.7104 41.9534686,2.7104 C41.6142222,2.7104 41.3557488,2.8608 41.1772406,3.1616 C41.0253874,3.4104 40.9502686,3.7136 40.9502686,4.072 C40.9502686,4.42 41.0261952,4.7184 41.1772406,4.9672 C41.3605952,5.268 41.6158377,5.4184 41.9453913,5.4184 C42.2684831,5.4184 42.5229179,5.2656 42.7054647,4.9592 C42.8613565,4.7056 42.940514,4.4048 42.940514,4.0568 Z" id="Shape"></path>
                            <path d="M48.3692638,5.9464 L47.523571,5.9464 L47.523571,3.7864 C47.523571,3.1208 47.2683285,2.788 46.7554203,2.788 C46.5042164,2.788 46.3014763,2.8792 46.1447768,3.0624 C45.9880773,3.2456 45.9097275,3.4616 45.9097275,3.7088 L45.9097275,5.9456 L45.0624193,5.9456 L45.0624193,3.2528 C45.0624193,2.9216 45.0527266,2.5624 45.0325333,2.1736 L45.7756444,2.1736 L45.8152232,2.7632 L45.8386473,2.7632 C45.9379981,2.58 46.0850048,2.4288 46.2772444,2.308 C46.5074473,2.1672 46.7634976,2.096 47.0453952,2.096 C47.3999884,2.096 47.6956174,2.2096 47.9306667,2.4376 C48.2238725,2.7168 48.3692638,3.1336 48.3692638,3.6872 L48.3692638,5.9464 Z" id="Shape"></path>
                            <path d="M54.0661797,2.8032 L53.1340599,2.8032 L53.1340599,4.6352 C53.1340599,5.1008 53.2996444,5.3336 53.6275826,5.3336 C53.7794357,5.3336 53.9054415,5.3208 54.0047923,5.2944 L54.026601,5.9304 C53.859401,5.9928 53.6396986,6.024 53.3691092,6.024 C53.0347092,6.024 52.7746203,5.9232 52.5864193,5.7216 C52.3974106,5.52 52.303714,5.1808 52.303714,4.7048 L52.303714,2.8032 L51.7471884,2.8032 L51.7471884,2.1752 L52.303714,2.1752 L52.303714,1.484 L53.1332522,1.236 L53.1332522,2.1744 L54.065372,2.1744 L54.065372,2.8032 L54.0661797,2.8032 Z" id="Shape"></path>
                            <path d="M58.5474628,5.9464 L57.7001546,5.9464 L57.7001546,3.8024 C57.7001546,3.1264 57.4449121,2.788 56.9336193,2.788 C56.5410628,2.788 56.2728966,2.984 56.1258899,3.376 C56.1008502,3.4584 56.0863111,3.5592 56.0863111,3.6776 L56.0863111,5.9456 L55.2406184,5.9456 L55.2406184,0.4448 L56.0863111,0.4448 L56.0863111,2.7176 L56.1024657,2.7176 C56.3690164,2.304 56.7510725,2.0976 57.2462106,2.0976 C57.5967652,2.0976 57.8867401,2.2112 58.116943,2.4392 C58.403687,2.7232 58.5474628,3.1456 58.5474628,3.704 L58.5474628,5.9464 Z" id="Shape"></path>
                            <path d="M63.1700986,3.8824 C63.1700986,4.0328 63.1587903,4.1592 63.1385971,4.2624 L60.5999034,4.2624 C60.6112116,4.6352 60.732371,4.9192 60.9674203,5.116 C61.1822763,5.292 61.4593275,5.38 61.7985739,5.38 C62.1741681,5.38 62.5166454,5.3208 62.8251981,5.2016 L62.9576657,5.784 C62.5966106,5.9392 62.1717449,6.0168 61.6798377,6.0168 C61.0901952,6.0168 60.6257507,5.8448 60.2897353,5.5008 C59.9521043,5.1568 59.7849043,4.6952 59.7849043,4.116 C59.7849043,3.5472 59.9407961,3.0736 60.2550029,2.696 C60.5829411,2.2928 61.0263845,2.0912 61.5861411,2.0912 C62.1337816,2.0912 62.5497623,2.2928 62.8308522,2.696 C63.0578242,3.016 63.1700986,3.412 63.1700986,3.8824 Z M62.3623691,3.6656 C62.3688309,3.4168 62.3130976,3.2024 62.1984,3.0216 C62.0513932,2.7888 61.8276522,2.672 61.5247536,2.672 C61.2485101,2.672 61.0231536,2.7856 60.8511072,3.0136 C60.7105623,3.1952 60.6273662,3.412 60.5999034,3.6656 L62.3623691,3.6656 Z" id="Shape"></path>
                        </g>
                    </g>
                </g>
            </g>
        </g>
    </g>
</svg>