<?xml version="1.0" encoding="UTF-8"?>
<svg width="12px" height="12px" viewBox="0 0 12 12" version="1.1" xmlns="http://www.w3.org/2000/svg" xmlns:xlink="http://www.w3.org/1999/xlink">
    <!-- Generator: Sketch 50.2 (55047) - http://www.bohemiancoding.com/sketch -->
    <title>Group</title>
    <desc>Created with Sketch.</desc>
    <defs></defs>
    <g id="New-Section" stroke="none" stroke-width="1" fill="none" fill-rule="evenodd">
        <g id="Search-Rates---Main" transform="translate(-601.000000, -608.000000)" fill="#0B203E" fill-rule="nonzero">
            <g id="Group-7" transform="translate(207.000000, 458.000000)">
                <g id="Group-6" transform="translate(0.000000, 144.000000)">
                    <g id="Group-2">
                        <g id="Group" transform="translate(394.000000, 6.000000)">
                            <path d="M11.7279231,9.56353846 L9.594,7.42938462 C9.49038462,7.32576923 9.35884615,7.27846154 9.213,7.29230769 L8.85830769,7.326 C8.74407692,7.33684615 8.649,7.38138462 8.56776923,7.46307692 C8.46276923,7.56784615 8.36907692,7.66130769 8.28184615,7.74830769 L11.4853846,10.9523077 L11.7454615,10.6922308 C11.8423846,10.5955385 11.8892308,10.4757692 11.8843846,10.3386923 L11.8668462,9.88130769 C11.862,9.75692308 11.8158462,9.65146154 11.7279231,9.56353846 Z" id="Shape"></path>
                            <path d="M4.47092308,3.40061538 C4.56253846,3.309 4.60938462,3.19753846 4.61007692,3.06784615 L4.61261538,2.64715385 C4.61330769,2.51538462 4.56692308,2.40184615 4.47346154,2.30861538 L2.32153846,0.156461538 C2.23361538,0.0685384615 2.12815385,0.0223846154 2.00376923,0.0177692308 L1.54615385,0.000461538462 C1.40930769,-0.00461538462 1.28953846,0.0422307692 1.19238462,0.139153846 L0.932538462,0.399230769 L4.20253846,3.66923077 C4.28446154,3.58707692 4.37284615,3.49892308 4.47092308,3.40061538 Z" id="Shape"></path>
                            <path d="M7.77369231,8.25576923 C7.66476923,8.36423077 7.52492308,8.41107692 7.37284615,8.38984615 L7.05184615,8.34484615 C6.945,8.33007692 6.85753846,8.28669231 6.78138462,8.21053846 L5.23523077,6.66415385 L5.23476923,6.66461538 L3.80423077,5.23384615 C3.73776923,5.16738462 3.69738462,5.09423077 3.67661538,5.00238462 L3.58569231,4.59992308 C3.549,4.43653846 3.59446154,4.27869231 3.71261538,4.16030769 C3.75830769,4.11438462 3.81461538,4.05807692 3.87646154,3.996 L0.606230769,0.725538462 L0.309230769,1.02276923 C-0.829384615,2.16138462 1.39084615,6.40638462 3.483,8.49876923 L3.54969231,8.56476923 L3.55176923,8.56661538 C5.64392308,10.6587692 9.72392308,12.7137692 10.8625385,11.5751538 L11.1590769,11.2786154 L7.95530769,8.07484615 C7.88584615,8.14407692 7.82284615,8.20684615 7.77369231,8.25576923 Z" id="Shape"></path>
                        </g>
                    </g>
                </g>
            </g>
        </g>
    </g>
</svg>