<?xml version="1.0" encoding="UTF-8"?>
<svg width="26px" height="25px" viewBox="0 0 26 25" version="1.1" xmlns="http://www.w3.org/2000/svg" xmlns:xlink="http://www.w3.org/1999/xlink">
    <!-- Generator: Sketch 50.2 (55047) - http://www.bohemiancoding.com/sketch -->
    <title>Group 5</title>
    <desc>Created with Sketch.</desc>
    <defs></defs>
    <g id="Page-1" stroke="none" stroke-width="1" fill="none" fill-rule="evenodd">
        <g id="Features-2" transform="translate(-529.000000, -1038.000000)" fill="#FFFFFF" fill-rule="nonzero">
            <g id="Group-5" transform="translate(529.000000, 1038.000000)">
                <g id="Numbered-List">
                    <path d="M7.12903226,4.61290323 L25.5806452,4.61290323 C25.8322581,4.61290323 26,4.44516129 26,4.19354839 C26,3.94193548 25.8322581,3.77419355 25.5806452,3.77419355 L7.12903226,3.77419355 C6.87741935,3.77419355 6.70967742,3.94193548 6.70967742,4.19354839 C6.70967742,4.44516129 6.87741935,4.61290323 7.12903226,4.61290323 Z" id="Shape"></path>
                    <path d="M25.5806452,12.1612903 L7.12903226,12.1612903 C6.87741935,12.1612903 6.70967742,12.3290323 6.70967742,12.5806452 C6.70967742,12.8322581 6.87741935,13 7.12903226,13 L25.5806452,13 C25.8322581,13 26,12.8322581 26,12.5806452 C26,12.3290323 25.8322581,12.1612903 25.5806452,12.1612903 Z" id="Shape"></path>
                    <path d="M25.5806452,20.5483871 L7.12903226,20.5483871 C6.87741935,20.5483871 6.70967742,20.716129 6.70967742,20.9677419 C6.70967742,21.2193548 6.87741935,21.3870968 7.12903226,21.3870968 L25.5806452,21.3870968 C25.8322581,21.3870968 26,21.2193548 26,20.9677419 C26,20.716129 25.8322581,20.5483871 25.5806452,20.5483871 Z" id="Shape"></path>
                    <path d="M5.03225806,19.2903226 C5.03225806,18.116129 4.10967742,17.1935484 2.93548387,17.1935484 C1.76129032,17.1935484 0.838709677,18.116129 0.838709677,19.2903226 C0.838709677,19.5419355 1.00645161,19.7096774 1.25806452,19.7096774 C1.50967742,19.7096774 1.67741935,19.5419355 1.67741935,19.2903226 C1.67741935,18.6193548 2.26451613,18.0322581 2.93548387,18.0322581 C3.60645161,18.0322581 4.19354839,18.6193548 4.19354839,19.2903226 C4.19354839,19.9612903 3.60645161,20.5483871 2.93548387,20.5483871 L2.09677419,20.5483871 C1.84516129,20.5483871 1.67741935,20.716129 1.67741935,20.9677419 C1.67741935,21.2193548 1.84516129,21.3870968 2.09677419,21.3870968 L2.93548387,21.3870968 C3.60645161,21.3870968 4.19354839,21.9741935 4.19354839,22.6451613 C4.19354839,23.316129 3.60645161,23.9032258 2.93548387,23.9032258 C2.26451613,23.9032258 1.67741935,23.316129 1.67741935,22.6451613 C1.67741935,22.3935484 1.50967742,22.2258065 1.25806452,22.2258065 C1.00645161,22.2258065 0.838709677,22.3935484 0.838709677,22.6451613 C0.838709677,23.8193548 1.76129032,24.7419355 2.93548387,24.7419355 C4.10967742,24.7419355 5.03225806,23.8193548 5.03225806,22.6451613 C5.03225806,21.9741935 4.69677419,21.3870968 4.19354839,20.9677419 C4.69677419,20.5483871 5.03225806,19.9612903 5.03225806,19.2903226 Z" id="Shape"></path>
                    <path d="M5.03225806,10.9032258 C5.03225806,9.72903226 4.10967742,8.80645161 2.93548387,8.80645161 C1.76129032,8.80645161 0.838709677,9.72903226 0.838709677,10.9032258 L0.838709677,11.4903226 C0.838709677,11.7419355 1.00645161,11.9096774 1.25806452,11.9096774 C1.50967742,11.9096774 1.67741935,11.6580645 1.67741935,11.4903226 L1.67741935,10.9032258 C1.67741935,10.2322581 2.26451613,9.64516129 2.93548387,9.64516129 C3.60645161,9.64516129 4.19354839,10.2322581 4.19354839,10.9032258 C4.19354839,11.9096774 3.85806452,12.7483871 3.10322581,13.5032258 L0.922580645,15.683871 C0.838709677,15.7677419 0.838709677,15.9354839 0.838709677,16.1032258 C0.838709677,16.2709677 1.09032258,16.3548387 1.25806452,16.3548387 L4.61290323,16.3548387 C4.86451613,16.3548387 5.03225806,16.1870968 5.03225806,15.9354839 C5.03225806,15.683871 4.86451613,15.516129 4.61290323,15.516129 L2.26451613,15.516129 L3.69032258,14.0903226 C4.52903226,13.2516129 5.03225806,12.0774194 5.03225806,10.9032258 Z" id="Shape"></path>
                    <path d="M1.59354839,4.44516129 L3.35483871,2.09677419 L3.35483871,7.5483871 C3.35483871,7.8 3.52258065,7.96774194 3.77419355,7.96774194 C4.02580645,7.96774194 4.19354839,7.8 4.19354839,7.5483871 L4.19354839,0.838709677 C4.19354839,0.670967742 4.10967742,0.503225806 3.94193548,0.419354839 C3.77419355,0.335483871 3.60645161,0.419354839 3.43870968,0.587096774 L0.922580645,3.94193548 C0.75483871,4.10967742 0.838709677,4.36129032 1.00645161,4.52903226 C1.17419355,4.69677419 1.42580645,4.61290323 1.59354839,4.44516129 Z" id="Shape"></path>
                </g>
            </g>
        </g>
    </g>
</svg>