<?xml version="1.0" encoding="UTF-8"?>
<svg width="34px" height="38px" viewBox="0 0 34 38" version="1.1" xmlns="http://www.w3.org/2000/svg" xmlns:xlink="http://www.w3.org/1999/xlink">
    <!-- Generator: Sketch 50.2 (55047) - http://www.bohemiancoding.com/sketch -->
    <title>Shape</title>
    <desc>Created with Sketch.</desc>
    <defs></defs>
    <g id="New-Section" stroke="none" stroke-width="1" fill="none" fill-rule="evenodd">
        <g id="Search-Rates---Main" transform="translate(-1011.000000, -1161.000000)" fill="#103F8A" fill-rule="nonzero">
            <g id="Group-7" transform="translate(207.000000, 458.000000)">
                <g id="Group-4" transform="translate(706.000000, 473.000000)">
                    <path d="M132,234.214545 C131.994525,231.885321 130.093338,229.999994 127.75,230 L102.25,230 C101.12283,230 100.041826,230.445071 99.2447962,231.237303 C98.4477666,232.029534 98,233.104031 98,234.224416 L98,259.561039 C98,260.681424 98.4477666,261.75592 99.2447962,262.548152 C100.041826,263.340383 101.12283,263.785455 102.25,263.785455 L121.231016,263.785455 L132,268 L132,259.561039 L132,234.214545 Z M127.069801,255.622857 C126.896028,255.770909 122.695678,259.274805 115,259.274805 C107.304322,259.274805 103.084112,255.770909 102.930199,255.622857 C102.45445,255.214023 102.402212,254.499249 102.813522,254.026364 C103.224832,253.553479 103.943936,253.501555 104.419685,253.91039 C104.484229,253.964675 108.232769,257.019481 115.01986,257.019481 C121.88639,257.019481 125.580315,253.94 125.61507,253.91039 C125.922826,253.64592 126.349151,253.564738 126.733453,253.697423 C127.117755,253.830108 127.401649,254.156502 127.478196,254.553657 C127.554742,254.950811 127.412312,255.358388 127.104556,255.622857 L127.069801,255.622857 Z" id="Shape"></path>
                </g>
            </g>
        </g>
    </g>
</svg>