<?xml version="1.0" encoding="UTF-8"?>
<svg width="24px" height="25px" viewBox="0 0 24 25" version="1.1" xmlns="http://www.w3.org/2000/svg" xmlns:xlink="http://www.w3.org/1999/xlink">
    <!-- Generator: Sketch 50.2 (55047) - http://www.bohemiancoding.com/sketch -->
    <title>24-hours</title>
    <desc>Created with Sketch.</desc>
    <defs></defs>
    <g id="Page-1" stroke="none" stroke-width="1" fill="none" fill-rule="evenodd">
        <g id="24-hours" fill="#0B203E" fill-rule="nonzero">
            <path d="M13.6473023,6.06749985 L12.2041411,6.06749985 L13.0854882,4.90232101 C13.6751845,4.12252446 14,3.08578887 14,1.98315129 C14,0.889650723 13.3270941,0 12.5000815,0 C11.6729497,0 11.0000835,0.889650723 11.0000835,1.98315129 C11.0000835,2.24066795 11.1579237,2.44940137 11.3527415,2.44940137 C11.5475593,2.44940137 11.7053995,2.24061544 11.7053995,1.98315129 C11.7053995,1.40384385 12.0618705,0.932552662 12.5000418,0.932552662 C12.9381733,0.932552662 13.2946443,1.40384385 13.2946443,1.98315129 C13.2946443,2.83672658 13.043228,3.63926064 12.5866672,4.24288093 L11.1032714,6.20397738 C11.0024269,6.33730421 10.9722808,6.53789834 11.0268536,6.71213167 C11.0813867,6.88631249 11.2100737,7 11.3526621,7 L13.6473023,7 C13.8421201,7 13.9999603,6.79121407 13.9999603,6.53374992 C13.9999603,6.27628578 13.8421201,6.06749985 13.6473023,6.06749985 Z" id="Shape"></path>
            <path d="M17.5820402,4.07724523 L17.0192046,4.07724523 L17.0192046,0.466323195 C17.0192517,0.256538518 16.8936801,0.072589651 16.7123147,0.0168221099 C16.5308551,-0.0389454312 16.3386133,0.0471739355 16.2421864,0.22728944 L14.0591151,4.30446382 C13.9819924,4.44850371 13.9802033,4.62772652 14.0545009,4.77365684 C14.1287515,4.91958715 14.2676006,5.00974993 14.4180323,5.00974993 L16.1830025,5.00974993 L16.1830025,6.53374765 C16.1830025,6.79126556 16.3701122,7 16.6010565,7 C16.8320008,7 17.0191105,6.79121305 17.0191105,6.53374765 L17.0191105,5.00980244 L17.581946,5.00980244 C17.8128904,5.00980244 18,4.80101549 18,4.54355009 C18,4.28608469 17.8129845,4.07724523 17.5820402,4.07724523 Z M16.1831438,4.07724523 L15.154747,4.07724523 L16.1831438,2.1565733 L16.1831438,4.07724523 Z" id="Shape"></path>
            <path d="M22.9620082,8.27306212 C22.8934494,8.10675679 22.743257,8 22.5778504,8 L19.4221457,8 C19.188941,8 19,8.2087875 19,8.46625357 C19,8.72371965 19.188941,8.93250715 19.4221457,8.93250715 L21.6508318,8.93250715 L20.8572701,9.93963377 C19.9895868,11.0408618 19.5117192,12.4512802 19.5117192,13.9110598 L19.5117192,14.5337464 C19.5117192,14.791265 19.7006602,15 19.9338649,15 C20.1670697,15 20.3560107,14.7912125 20.3560107,14.5337464 L20.3560107,13.9110598 C20.3560107,12.6762413 20.7602322,11.4832749 21.4941259,10.5518706 L22.8962545,8.77234571 C23.0048932,8.63455436 23.0306147,8.43936746 22.9620082,8.27306212 Z" id="Shape"></path>
            <path d="M20.8860676,4.13292304 C20.734114,3.95569232 20.4878957,3.95569232 20.3359421,4.13292304 L15.1139324,10.2253566 C14.9620225,10.4025874 14.9620225,10.6898974 15.1139324,10.867077 C15.1898873,10.9556412 15.289496,11 15.3889733,11 C15.4884943,11 15.5880592,10.9556923 15.6640141,10.867077 L20.8860676,4.77459226 C21.0379775,4.59741265 21.0379775,4.31010265 20.8860676,4.13292304 Z" id="Shape"></path>
            <path d="M23.8091931,20.4536868 L17.9349387,16.5380173 C17.7873182,16.4395711 17.5942834,16.4424637 17.4495074,16.5452006 L14.4637358,18.667482 C13.0368019,17.8208064 11.4436865,16.5455381 9.94872767,15.0505739 C8.4541545,13.5559953 7.17889082,11.9628259 6.33183265,10.5355494 L8.45454019,7.55039371 C8.55746957,7.40571353 8.5603622,7.21253343 8.46186818,7.06481598 L5.05449592,1.95390779 C5.05039803,1.94682083 5.04605908,1.93987849 5.04143088,1.93303258 L4.54606817,1.19054025 C4.42819354,1.0138964 4.19880807,0.950354756 4.0067375,1.04123184 L2.04823487,1.96856383 C1.95195853,2.01417112 1.87612345,2.09400796 1.83557843,2.19245413 L0.0322171256,6.57239232 C-0.0187895647,6.69629371 -0.00880999489,6.8369242 0.0591667853,6.95248514 L1.20532279,8.90062959 C1.23772024,8.95645753 1.27074442,9.01170694 1.30420249,9.06748667 C4.62363884,14.6341784 10.3654109,20.375923 15.9310218,23.6947447 C15.986946,23.7282993 16.0430147,23.7618539 16.097348,23.7934801 L18.0475584,24.9408455 C18.1142335,24.9800408 18.1892008,25 18.264602,25 C18.3198512,25 18.3751968,24.9893454 18.4276016,24.9677471 L22.8070418,23.1638971 C22.9054876,23.123352 22.9852278,23.0475648 23.0308349,22.9513845 L23.9587421,20.9932605 C24.0497152,20.8011892 23.9860292,20.5715137 23.8091931,20.4536868 Z M4.03903853,1.97319206 L4.3157667,2.38785192 C4.31981638,2.39479425 4.32415532,2.40173659 4.32873532,2.40853429 L7.58607656,7.29453976 L6.7469249,8.47473664 L2.85860487,2.53214642 L4.03903853,1.97319206 Z M18.2981565,24.095086 L16.529796,23.0547 C16.4770055,23.0239416 16.424215,22.9922672 16.3703639,22.9600143 C10.9167459,19.7079162 5.29154686,14.0826485 2.03941235,8.62896253 C2.03921951,8.62867327 2.03907488,8.6283358 2.03883382,8.62804653 C2.00725596,8.57540049 1.97611199,8.52323656 1.94429307,8.46851747 L0.904826857,6.70169331 L2.31792431,3.26962484 L6.21395802,9.22407489 L5.47440922,10.2640752 C5.37808467,10.3996435 5.36887647,10.5787944 5.45102713,10.7234263 C6.3311577,12.2742667 7.71349686,14.026001 9.34334864,15.6559551 C10.9736825,17.2862467 12.7255068,18.668639 14.2760041,19.5483871 C14.4206356,19.6305381 14.5997857,19.6213298 14.7353536,19.5249085 L15.7753984,18.7855981 L21.729875,22.6815013 L18.2981565,24.095086 Z M22.4673508,22.1409634 L16.5248303,18.2528703 L17.7051675,17.4138121 L23.0264477,20.9609111 L22.4673508,22.1409634 Z" id="Shape"></path>
        </g>
    </g>
</svg>