<?xml version="1.0" encoding="UTF-8"?>
<svg width="6px" height="12px" viewBox="0 0 6 12" version="1.1" xmlns="http://www.w3.org/2000/svg" xmlns:xlink="http://www.w3.org/1999/xlink">
    <!-- Generator: Sketch 50.2 (55047) - http://www.bohemiancoding.com/sketch -->
    <title>Page 1</title>
    <desc>Created with Sketch.</desc>
    <defs></defs>
    <g id="New-Section" stroke="none" stroke-width="1" fill="none" fill-rule="evenodd">
        <g id="Search-Rates---Main" transform="translate(-763.000000, -608.000000)" fill="#0B203E">
            <g id="Group-7" transform="translate(207.000000, 458.000000)">
                <g id="Group-6" transform="translate(0.000000, 144.000000)">
                    <g id="Group-2">
                        <path d="M556.5,15.75 L561.25,15.75 L561.25,7.75 L556.5,7.75 L556.5,15.75 Z M559,17.5 C558.724,17.5 558.5,17.276 558.5,17 C558.5,16.724 558.724,16.5 559,16.5 C559.276,16.5 559.5,16.724 559.5,17 C559.5,17.276 559.276,17.5 559,17.5 Z M558.164062,6.75 L559.585938,6.75 C559.676062,6.75 559.75,6.8624 559.75,7 C559.75,7.13733333 559.676062,7.25 559.585938,7.25 L558.164062,7.25 C558.073938,7.25 558,7.13733333 558,7 C558,6.8624 558.073938,6.75 558.164062,6.75 Z M560.8,6 L557.2,6 C556.53736,6 556,6.53736 556,7.2 L556,16.8 C556,17.46264 556.53736,18 557.2,18 L560.8,18 C561.46264,18 562,17.46264 562,16.8 L562,7.2 C562,6.53736 561.46264,6 560.8,6 Z" id="Page-1"></path>
                    </g>
                </g>
            </g>
        </g>
    </g>
</svg>