<?xml version="1.0" encoding="UTF-8"?>
<svg width="48px" height="78px" viewBox="0 0 48 78" version="1.1" xmlns="http://www.w3.org/2000/svg" xmlns:xlink="http://www.w3.org/1999/xlink">
    <!-- Generator: Sketch 52.6 (67491) - http://www.bohemiancoding.com/sketch -->
    <title>Shape</title>
    <desc>Created with Sketch.</desc>
    <g id="Homepage" stroke="none" stroke-width="1" fill="none" fill-rule="evenodd">
        <g id="Raza---Homepage-" transform="translate(-216.000000, -828.000000)" fill="#0160E0" fill-rule="nonzero">
            <g id="mobiletopup" transform="translate(102.000000, 828.000000)">
                <path d="M119.142857,0.428573571 C116.323371,0.428573571 114,2.75195357 114,5.57143071 L114,72.4285993 C114,75.248085 116.323371,77.5714564 119.142857,77.5714564 L156.857143,77.5714564 C159.676629,77.5714564 162,75.248085 162,72.4285993 L162,5.57143071 C162,2.75195357 159.676629,0.428573571 156.857143,0.428573571 L119.142857,0.428573571 Z M119.142857,3.857145 L156.857143,3.857145 C157.836514,3.857145 158.571429,4.59207643 158.571429,5.57143071 L158.571429,7.28571643 L117.428571,7.28571643 L117.428571,5.57143071 C117.428571,4.59207643 118.163486,3.857145 119.142857,3.857145 Z M117.428571,10.7142879 L158.571429,10.7142879 L158.571429,63.8571707 L117.428571,63.8571707 L117.428571,10.7142879 Z M132.675915,49.7336877 L138.314502,43.8591385 L143.951998,49.7336877 C144.172435,49.9622118 144.532553,49.9622118 144.751898,49.7336877 L147.034833,47.3552172 C147.254178,47.1266931 147.254178,46.7515041 147.034833,46.521843 L138.743371,37.8834021 C138.625514,37.7617499 138.468371,37.70604 138.314502,37.7151355 C138.159542,37.70604 138.002399,37.7617499 137.885634,37.8834021 L129.59308,46.521843 C129.373735,46.7515041 129.373735,47.1266931 129.59308,47.3552172 L131.876015,49.7336877 C132.096451,49.9622118 132.45657,49.9622118 132.675915,49.7336877 M131.876015,36.6509785 L129.59308,34.272508 C129.373735,34.0428469 129.373735,33.6687949 129.59308,33.4391338 L137.885634,24.8006929 C138.002399,24.6779038 138.159542,24.6233309 138.314502,24.6312894 C138.468371,24.6233309 138.625514,24.6779038 138.743371,24.8006929 L147.034833,33.4391338 C147.254178,33.6687949 147.254178,34.0428469 147.034833,34.272508 L144.751898,36.6509785 C144.532553,36.8795027 144.172435,36.8795027 143.951998,36.6509785 L138.313411,30.7764294 L132.675915,36.6509785 C132.455479,36.8795027 132.096451,36.8795027 131.876015,36.6509785 M117.428571,67.2857421 L158.571429,67.2857421 L158.571429,72.4285993 C158.571429,73.4079707 157.836514,74.142885 156.857143,74.142885 L119.142857,74.142885 C118.163486,74.142885 117.437314,73.407885 117.428571,72.4285993 L117.428571,67.2857421 Z M138,69.0000279 C137.0532,69.0000279 136.285714,69.7675136 136.285714,70.7143136 C136.285714,71.6611136 137.0532,72.4285993 138,72.4285993 C138.9468,72.4285993 139.714286,71.6611136 139.714286,70.7143136 C139.714286,69.7675136 138.9468,69.0000279 138,69.0000279 Z" id="Shape"></path>
            </g>
        </g>
    </g>
</svg>