<?xml version="1.0" encoding="UTF-8"?>
<svg width="56px" height="90px" viewBox="0 0 56 90" version="1.1" xmlns="http://www.w3.org/2000/svg" xmlns:xlink="http://www.w3.org/1999/xlink">
    <!-- Generator: Sketch 50.2 (55047) - http://www.bohemiancoding.com/sketch -->
    <title>Shape</title>
    <desc>Created with Sketch.</desc>
    <defs></defs>
    <g id="Page-1" stroke="none" stroke-width="1" fill="none" fill-rule="evenodd">
        <g id="Raza---Homepage-" transform="translate(-244.000000, -822.000000)" fill="#FFFFFF" fill-rule="nonzero">
            <g id="Group-8" transform="translate(134.000000, 822.000000)">
                <g id="Group-28">
                    <g id="Group-13">
                        <g id="Group-20">
                            <g id="Group-14">
                                <path d="M116,0 C112.7106,0 110,2.71061 110,6 L110,84.00003 C110,87.28943 112.7106,90.00003 116,90.00003 L160,90.00003 C163.2894,90.00003 166,87.28943 166,84.00003 L166,6 C166,2.71061 163.2894,0 160,0 L116,0 Z M116,4 L160,4 C161.1426,4 162,4.85742 162,6 L162,8 L114,8 L114,6 C114,4.85742 114.8574,4 116,4 Z M114,12 L162,12 L162,74.00003 L114,74.00003 L114,12 Z M138,23 C137.4817,23 136.9633,23.197 136.5938,23.5625 L126.5938,33.5625 C126.0433,34.0879 125.8452,34.93705 126.0938,35.65625 C126.3421,36.37535 127.024,36.926 127.7812,37 C128.3749,37.058 128.9898,36.83305 129.4062,36.40625 L136,29.8125 L136,56.96873 C136,58.07333 136.8954,58.96873 138,58.96873 C139.1046,58.96873 140,58.07333 140,56.96873 L140,29.8125 L146.5938,36.40625 C147.3326,37.16805 148.6913,37.16085 149.4375,36.40625 C150.1834,35.65175 150.1759,34.2928 149.4065,33.5625 L139.4065,23.5625 C139.0367,23.197 138.5183,23 138,23 Z M124,61.00003 C122.8954,61.00003 122,61.89543 122,63.00003 C122,64.10463 122.8954,65.00003 124,65.00003 L152,65.00003 C153.1046,65.00003 154,64.10463 154,63.00003 C154,61.89543 153.1046,61.00003 152,61.00003 L124,61.00003 Z M114,78.00003 L162,78.00003 L162,84.00003 C162,85.14263 161.1426,86.00003 160,86.00003 L116,86.00003 C114.8574,86.00003 114.0102,85.14253 114,84.00003 L114,78.00003 Z M138,80.00003 C136.8954,80.00003 136,80.89543 136,82.00003 C136,83.10463 136.8954,84.00003 138,84.00003 C139.1046,84.00003 140,83.10463 140,82.00003 C140,80.89543 139.1046,80.00003 138,80.00003 Z" id="Shape"></path>
                            </g>
                        </g>
                    </g>
                </g>
            </g>
        </g>
    </g>
</svg>