<?xml version="1.0" encoding="UTF-8"?>
<svg width="49px" height="47px" viewBox="0 0 49 47" version="1.1" xmlns="http://www.w3.org/2000/svg" xmlns:xlink="http://www.w3.org/1999/xlink">
    <!-- Generator: Sketch 50.2 (55047) - http://www.bohemiancoding.com/sketch -->
    <title>Group 3</title>
    <desc>Created with Sketch.</desc>
    <defs>
        <linearGradient x1="3.061617e-15%" y1="50%" x2="100%" y2="50%" id="linearGradient-1">
            <stop stop-color="#E6167F" offset="0%"></stop>
            <stop stop-color="#FF8000" offset="100%"></stop>
        </linearGradient>
    </defs>
    <g id="Xtras-New-Section" stroke="none" stroke-width="1" fill="none" fill-rule="evenodd">
        <g id="Raza---Features-2" transform="translate(-697.000000, -615.000000)" fill="url(#linearGradient-1)" fill-rule="nonzero">
            <g id="Group-3" transform="translate(697.000000, 615.000000)">
                <g id="Send-Money">
                    <path d="M25.3417949,16.1142857 L25.3417949,18.2964286 C26.3519487,18.1285714 27.0253846,17.625 27.0253846,17.1214286 C27.0253846,16.7857143 26.6886667,16.45 25.3417949,16.1142857 Z" id="Shape"></path>
                    <path d="M21.9746154,12.925 C21.9746154,13.2607143 22.3113333,13.7642857 23.6582051,13.9321429 L23.6582051,11.75 C22.6480513,12.0857143 21.9746154,12.5892857 21.9746154,12.925 Z" id="Shape"></path>
                    <path d="M35.4433333,25.1785714 C35.6116923,25.1785714 35.6116923,25.1785714 35.7800513,25.1785714 L42.1776923,21.3178571 L42.1776923,5.875 C42.1776923,5.37142857 41.8409744,5.03571429 41.3358974,5.03571429 L33.7597436,5.03571429 L14.3984615,5.03571429 L7.66410256,5.03571429 C7.15902564,5.03571429 6.82230769,5.37142857 6.82230769,5.875 L6.82230769,19.8071429 L14.7351795,25.1785714 L35.4433333,25.1785714 Z M25.3417949,20.1428571 L25.3417949,20.9821429 C25.3417949,21.4857143 25.0050769,21.8214286 24.5,21.8214286 C23.9949231,21.8214286 23.6582051,21.4857143 23.6582051,20.9821429 L23.6582051,20.1428571 C21.8062564,19.975 20.4593846,18.8 20.2910256,17.4571429 C20.2910256,16.9535714 20.6277436,16.6178571 20.9644615,16.6178571 C21.4695385,16.6178571 21.8062564,16.9535714 21.8062564,17.2892857 C21.8062564,17.7928571 22.4796923,18.2964286 23.4898462,18.4642857 L23.4898462,15.9464286 C22.1429744,15.6107143 20.1226667,15.1071429 20.1226667,13.0928571 C20.1226667,11.5821429 21.4695385,10.4071429 23.4898462,10.2392857 L23.4898462,9.23214286 C23.6582051,8.72857143 23.9949231,8.39285714 24.5,8.39285714 C25.0050769,8.39285714 25.3417949,8.72857143 25.3417949,9.23214286 L25.3417949,10.0714286 C27.1937436,10.2392857 28.5406154,11.4142857 28.7089744,12.7571429 C28.7089744,13.2607143 28.3722564,13.5964286 28.0355385,13.5964286 C27.5304615,13.5964286 27.1937436,13.2607143 27.1937436,12.925 C27.1937436,12.4214286 26.5203077,11.9178571 25.5101538,11.75 L25.5101538,14.2678571 C26.8570256,14.6035714 28.8773333,15.1071429 28.8773333,17.1214286 C28.7089744,18.6321429 27.3621026,19.8071429 25.3417949,20.1428571 Z M36.2851282,10.0714286 C36.7902051,10.0714286 37.1269231,10.4071429 37.1269231,10.9107143 C37.1269231,11.4142857 36.7902051,11.75 36.2851282,11.75 L32.9179487,11.75 C32.4128718,11.75 32.0761538,11.4142857 32.0761538,10.9107143 C32.0761538,10.4071429 32.4128718,10.0714286 32.9179487,10.0714286 L36.2851282,10.0714286 Z M11.8730769,19.3035714 C11.8730769,18.8 12.2097949,18.4642857 12.7148718,18.4642857 L16.0820513,18.4642857 C16.5871282,18.4642857 16.9238462,18.8 16.9238462,19.3035714 C16.9238462,19.8071429 16.5871282,20.1428571 16.0820513,20.1428571 L12.7148718,20.1428571 C12.2097949,20.1428571 11.8730769,19.8071429 11.8730769,19.3035714 Z" id="Shape"></path>
                    <path d="M46.0499487,14.4357143 L43.8612821,12.7571429 L43.8612821,21.6535714 C43.8612821,21.9892857 43.8612821,22.325 43.5245641,22.4928571 L42.1776923,23.3321429 L36.2851282,26.8571429 L30.7292821,30.2142857 C29.0456923,31.3892857 26.8570256,31.8928571 24.8367179,31.8928571 C22.8164103,31.8928571 20.6277436,31.2214286 18.9441538,30.0464286 L14.2301026,26.8571429 C14.0617436,26.8571429 13.8933846,26.6892857 13.8933846,26.6892857 L5.64379487,20.9821429 C5.4754359,20.8142857 5.30707692,20.6464286 5.30707692,20.3107143 C5.30707692,20.3107143 5.30707692,20.3107143 5.30707692,20.3107143 L5.30707692,11.9178571 L2.10825641,14.4357143 C0.92974359,15.4428571 0.0879487179,16.9535714 0.0879487179,18.4642857 L0.0879487179,41.9642857 C0.0879487179,44.65 2.44497436,47 5.13871795,47 L44.7030769,47 C47.2284615,47 48.9120513,44.9857143 48.9120513,41.9642857 L48.9120513,18.4642857 C48.9120513,16.7857143 47.3968205,15.4428571 46.0499487,14.4357143 Z" id="Shape"></path>
                    <path d="M29.8874872,28.7035714 L33.0863077,26.8571429 L17.2605641,26.8571429 L19.9543077,28.7035714 C22.8164103,30.7178571 27.0253846,30.7178571 29.8874872,28.7035714 Z" id="Shape"></path>
                    <path d="M30.0558462,2.01428571 C26.3519487,-0.671428571 21.8062564,-0.671428571 18.102359,2.01428571 L16.4187692,3.35714286 L31.9077949,3.35714286 L30.0558462,2.01428571 Z" id="Shape"></path>
                </g>
            </g>
        </g>
    </g>
</svg>