<?xml version="1.0" encoding="UTF-8"?>
<svg width="40px" height="38px" viewBox="0 0 40 38" version="1.1" xmlns="http://www.w3.org/2000/svg" xmlns:xlink="http://www.w3.org/1999/xlink">
    <!-- Generator: Sketch 50.2 (55047) - http://www.bohemiancoding.com/sketch -->
    <title>Group 3</title>
    <desc>Created with Sketch.</desc>
    <defs></defs>
    <g id="Page-1" stroke="none" stroke-width="1" fill="none" fill-rule="evenodd">
        <g id="Features-2" transform="translate(-710.000000, -630.000000)" fill="#808080" fill-rule="nonzero">
            <g id="Group-3" transform="translate(710.000000, 630.000000)">
                <g id="Send-Money">
                    <path d="M20.6871795,13.0285714 L20.6871795,14.7928571 C21.5117949,14.6571429 22.0615385,14.25 22.0615385,13.8428571 C22.0615385,13.5714286 21.7866667,13.3 20.6871795,13.0285714 Z" id="Shape"></path>
                    <path d="M17.9384615,10.45 C17.9384615,10.7214286 18.2133333,11.1285714 19.3128205,11.2642857 L19.3128205,9.5 C18.4882051,9.77142857 17.9384615,10.1785714 17.9384615,10.45 Z" id="Shape"></path>
                    <path d="M28.9333333,20.3571429 C29.0707692,20.3571429 29.0707692,20.3571429 29.2082051,20.3571429 L34.4307692,17.2357143 L34.4307692,4.75 C34.4307692,4.34285714 34.1558974,4.07142857 33.7435897,4.07142857 L27.5589744,4.07142857 L11.7538462,4.07142857 L6.25641026,4.07142857 C5.84410256,4.07142857 5.56923077,4.34285714 5.56923077,4.75 L5.56923077,16.0142857 L12.0287179,20.3571429 L28.9333333,20.3571429 Z M20.6871795,16.2857143 L20.6871795,16.9642857 C20.6871795,17.3714286 20.4123077,17.6428571 20,17.6428571 C19.5876923,17.6428571 19.3128205,17.3714286 19.3128205,16.9642857 L19.3128205,16.2857143 C17.8010256,16.15 16.7015385,15.2 16.5641026,14.1142857 C16.5641026,13.7071429 16.8389744,13.4357143 17.1138462,13.4357143 C17.5261538,13.4357143 17.8010256,13.7071429 17.8010256,13.9785714 C17.8010256,14.3857143 18.3507692,14.7928571 19.1753846,14.9285714 L19.1753846,12.8928571 C18.0758974,12.6214286 16.4266667,12.2142857 16.4266667,10.5857143 C16.4266667,9.36428571 17.5261538,8.41428571 19.1753846,8.27857143 L19.1753846,7.46428571 C19.3128205,7.05714286 19.5876923,6.78571429 20,6.78571429 C20.4123077,6.78571429 20.6871795,7.05714286 20.6871795,7.46428571 L20.6871795,8.14285714 C22.1989744,8.27857143 23.2984615,9.22857143 23.4358974,10.3142857 C23.4358974,10.7214286 23.1610256,10.9928571 22.8861538,10.9928571 C22.4738462,10.9928571 22.1989744,10.7214286 22.1989744,10.45 C22.1989744,10.0428571 21.6492308,9.63571429 20.8246154,9.5 L20.8246154,11.5357143 C21.9241026,11.8071429 23.5733333,12.2142857 23.5733333,13.8428571 C23.4358974,15.0642857 22.3364103,16.0142857 20.6871795,16.2857143 Z M29.6205128,8.14285714 C30.0328205,8.14285714 30.3076923,8.41428571 30.3076923,8.82142857 C30.3076923,9.22857143 30.0328205,9.5 29.6205128,9.5 L26.8717949,9.5 C26.4594872,9.5 26.1846154,9.22857143 26.1846154,8.82142857 C26.1846154,8.41428571 26.4594872,8.14285714 26.8717949,8.14285714 L29.6205128,8.14285714 Z M9.69230769,15.6071429 C9.69230769,15.2 9.96717949,14.9285714 10.3794872,14.9285714 L13.1282051,14.9285714 C13.5405128,14.9285714 13.8153846,15.2 13.8153846,15.6071429 C13.8153846,16.0142857 13.5405128,16.2857143 13.1282051,16.2857143 L10.3794872,16.2857143 C9.96717949,16.2857143 9.69230769,16.0142857 9.69230769,15.6071429 Z" id="Shape"></path>
                    <path d="M37.5917949,11.6714286 L35.8051282,10.3142857 L35.8051282,17.5071429 C35.8051282,17.7785714 35.8051282,18.05 35.5302564,18.1857143 L34.4307692,18.8642857 L29.6205128,21.7142857 L25.0851282,24.4285714 C23.7107692,25.3785714 21.9241026,25.7857143 20.2748718,25.7857143 C18.625641,25.7857143 16.8389744,25.2428571 15.4646154,24.2928571 L11.6164103,21.7142857 C11.4789744,21.7142857 11.3415385,21.5785714 11.3415385,21.5785714 L4.60717949,16.9642857 C4.46974359,16.8285714 4.33230769,16.6928571 4.33230769,16.4214286 C4.33230769,16.4214286 4.33230769,16.4214286 4.33230769,16.4214286 L4.33230769,9.63571429 L1.72102564,11.6714286 C0.758974359,12.4857143 0.0717948718,13.7071429 0.0717948718,14.9285714 L0.0717948718,33.9285714 C0.0717948718,36.1 1.99589744,38 4.19487179,38 L36.4923077,38 C38.5538462,38 39.9282051,36.3714286 39.9282051,33.9285714 L39.9282051,14.9285714 C39.9282051,13.5714286 38.6912821,12.4857143 37.5917949,11.6714286 Z" id="Shape"></path>
                    <path d="M24.3979487,23.2071429 L27.0092308,21.7142857 L14.0902564,21.7142857 L16.2892308,23.2071429 C18.625641,24.8357143 22.0615385,24.8357143 24.3979487,23.2071429 Z" id="Shape"></path>
                    <path d="M24.5353846,1.62857143 C21.5117949,-0.542857143 17.8010256,-0.542857143 14.7774359,1.62857143 L13.4030769,2.71428571 L26.0471795,2.71428571 L24.5353846,1.62857143 Z" id="Shape"></path>
                </g>
            </g>
        </g>
    </g>
</svg>