<?xml version="1.0" encoding="UTF-8"?>
<svg width="27px" height="27px" viewBox="0 0 27 27" version="1.1" xmlns="http://www.w3.org/2000/svg" xmlns:xlink="http://www.w3.org/1999/xlink">
    <!-- Generator: Sketch 50.2 (55047) - http://www.bohemiancoding.com/sketch -->
    <title>Group 15</title>
    <desc>Created with Sketch.</desc>
    <defs>
        <polygon id="path-1" points="0 0 27 0 27 27 0 27"></polygon>
    </defs>
    <g id="Page-1" stroke="none" stroke-width="1" fill="none" fill-rule="evenodd">
        <g id="Features-2" transform="translate(-433.000000, -1038.000000)">
            <g id="Group-15" transform="translate(433.000000, 1038.000000)">
                <g id="Page-1">
                    <mask id="mask-2" fill="white">
                        <use xlink:href="#path-1"></use>
                    </mask>
                    <g id="Clip-2"></g>
                    <path d="M1.6875,13.5 C1.6875,20.0205 6.9795,25.3125 13.5,25.3125 C20.0205,25.3125 25.3125,20.0205 25.3125,13.5 C25.3125,6.9795 20.0205,1.6875 13.5,1.6875 C6.9795,1.6875 1.6875,6.9795 1.6875,13.5 Z" id="Fill-1" stroke="#0B203E" stroke-width="2" mask="url(#mask-2)"></path>
                </g>
                <path d="M20.1468437,13.8623557 L19.4201375,14.0967771 L19.8655381,14.7062727 C20.0765173,14.9875784 20.0061909,15.3860947 19.7248853,15.597074 C19.6076746,15.6674004 19.4904639,15.7142847 19.349811,15.7142847 C19.1622739,15.7142847 18.9512947,15.6205161 18.834084,15.4564211 L18.3886833,14.8469255 L17.9432827,15.4564211 C17.826072,15.6205161 17.6385349,15.7142847 17.4275557,15.7142847 C17.310345,15.7142847 17.1696921,15.6674004 17.0524814,15.597074 C16.7711758,15.3860947 16.7008494,14.9875784 16.9118286,14.7062727 L17.3572292,14.0967771 L16.6305229,13.8623557 C16.302333,13.745145 16.1147959,13.3935129 16.2320066,13.065323 C16.3492173,12.7371331 16.7008494,12.5495959 17.0290393,12.6668066 L17.7557456,12.901228 L17.7557456,12.1510796 C17.7557456,11.7994475 18.0370513,11.5181418 18.3886833,11.5181418 C18.7403154,11.5181418 19.0216211,11.7994475 19.0216211,12.1510796 L19.0216211,12.901228 L19.7483274,12.6668066 C20.0765173,12.5495959 20.4281494,12.7371331 20.5453601,13.065323 C20.6625708,13.3935129 20.4750337,13.745145 20.1468437,13.8623557" id="Path" fill="#0B203E"></path>
                <path d="M15.1302261,13.8623557 L14.4035198,14.0967771 L14.8489204,14.7062727 C15.0598997,14.9875784 14.9895732,15.3860947 14.7082676,15.597074 C14.5910569,15.6674004 14.4738462,15.7142847 14.3331934,15.7142847 C14.1456563,15.7142847 13.934677,15.6205161 13.8174663,15.4564211 L13.3955078,14.8234834 L12.9501072,15.432979 C12.8328965,15.597074 12.6453594,15.6908425 12.4343801,15.6908425 C12.3171694,15.6908425 12.1765166,15.6439583 12.0593059,15.5736318 C11.7780002,15.3626526 11.7076738,14.9641362 11.9186531,14.6828306 L12.3640537,14.073335 L11.6373474,13.8389136 C11.3091575,13.7217029 11.1216204,13.3700708 11.2388311,13.0418809 C11.3560417,12.7136909 11.7076738,12.5261538 12.0358638,12.6433645 L12.7625701,12.8777859 L12.7625701,12.1276375 C12.7625701,11.7760054 13.0438757,11.4946997 13.3955078,11.4946997 C13.7471399,11.4946997 14.0284456,11.7760054 14.0284456,12.1276375 L14.0284456,12.901228 L14.7551519,12.6668066 C15.0833418,12.5495959 15.4349739,12.7371331 15.5521846,13.065323 C15.6459531,13.3935129 15.458416,13.745145 15.1302261,13.8623557" id="Path" fill="#0B203E"></path>
                <path d="M10.1370505,13.8623557 L9.41034424,14.0967771 L9.85574487,14.7062727 C10.0667241,14.9875784 9.99639771,15.3860947 9.71509204,15.597074 C9.59788135,15.6674004 9.48067065,15.7142847 9.34001782,15.7142847 C9.15248071,15.7142847 8.94150146,15.6205161 8.82429077,15.4564211 L8.37889014,14.8469255 L7.9334895,15.4564211 C7.81627881,15.6205161 7.6287417,15.7142847 7.41776245,15.7142847 C7.30055176,15.7142847 7.15989893,15.6674004 7.04268823,15.597074 C6.76138257,15.3860947 6.69105615,14.9875784 6.9020354,14.7062727 L7.34743604,14.0967771 L6.62072974,13.8623557 C6.29253979,13.745145 6.10500269,13.3935129 6.22221338,13.065323 C6.33942407,12.7371331 6.69105615,12.5495959 7.01924609,12.6668066 L7.74595239,12.901228 L7.74595239,12.1510796 C7.74595239,11.7994475 8.02725806,11.5181418 8.37889014,11.5181418 C8.73052222,11.5181418 9.01182788,11.7994475 9.01182788,12.1510796 L9.01182788,12.901228 L9.73853418,12.6668066 C10.0667241,12.5495959 10.4183562,12.7371331 10.5355669,13.065323 C10.6527776,13.3935129 10.4652405,13.745145 10.1370505,13.8623557" id="Path" fill="#0B203E"></path>
                <polyline id="Path-3" stroke="#0B203E" stroke-width="2" points="21.6720414 5.80666164 17.642515 9.83618802 4.99073452 22.4879685"></polyline>
            </g>
        </g>
    </g>
</svg>