<?xml version="1.0" encoding="UTF-8"?>
<svg width="27px" height="26px" viewBox="0 0 27 26" version="1.1" xmlns="http://www.w3.org/2000/svg" xmlns:xlink="http://www.w3.org/1999/xlink">
    <!-- Generator: Sketch 50.2 (55047) - http://www.bohemiancoding.com/sketch -->
    <title>Group 8</title>
    <desc>Created with Sketch.</desc>
    <defs>
        <linearGradient x1="3.061617e-15%" y1="50%" x2="100%" y2="50%" id="linearGradient-1">
            <stop stop-color="#E6167F" offset="0%"></stop>
            <stop stop-color="#FF8000" offset="100%"></stop>
        </linearGradient>
    </defs>
    <g id="Page-1" stroke="none" stroke-width="1" fill="none" fill-rule="evenodd">
        <g id="Features-2" transform="translate(-527.000000, -1038.000000)">
            <g id="Group-8" transform="translate(528.000000, 1038.000000)">
                <path d="M12.8576,24.2377778 L12.7718857,24.2377778 C9.80045714,24.2088889 7.02902857,23.0244444 4.91474286,20.8866667 C2.8576,18.7777778 1.71474286,15.9466667 1.74331429,12.9422222 C1.77188571,6.78888889 6.77188571,1.76222222 12.9433143,1.76222222 C19.0861714,1.79111111 24.0290286,6.87555556 24.0004571,13.0866667 C23.9433143,19.24 18.9433143,24.2377778 12.8576,24.2377778 M12.8576,0 C5.80045714,0 0.0576,5.80666667 0.000457142857,12.9133333 C-0.0281142857,16.38 1.28617143,19.6733333 3.71474286,22.1288889 C6.11474286,24.6133333 9.34331429,25.9711111 12.7718857,26 L12.8576,26 C19.9147429,26 25.6576,20.1933333 25.7147429,13.0866667 C25.7718857,5.92222222 20.0290286,0.0577777778 12.8576,0" id="Fill-1" fill="#FFFFFF"></path>
                <path d="M16.1907864,8.78259505 C16.1907864,8.20508623 16.0501133,7.67571108 15.7687629,7.19445373 C15.4874124,6.71319638 15.0876046,6.3318982 14.5693275,6.05054775 C14.0510503,5.7691973 13.4587425,5.62852418 12.7923861,5.62852418 C11.6966002,5.62852418 10.826648,5.95799542 10.1825036,6.6169478 C9.5383591,7.27590017 9.2162917,8.13104464 9.2162917,9.18240685 C9.2162917,9.43414146 9.1385513,9.63774729 8.98306815,9.79323043 C8.82758501,9.94871358 8.62397918,10.026454 8.37224457,10.026454 C8.12050995,10.026454 7.9132022,9.94871358 7.7503151,9.79323043 C7.587428,9.63774729 7.50598567,9.43414146 7.50598567,9.18240685 C7.50598567,8.17546839 7.72810111,7.27960276 8.17233867,6.49478308 C8.61657622,5.7099634 9.23849947,5.095444 10.0381271,4.65120645 C10.8377547,4.20696889 11.7558318,3.98485344 12.7923861,3.98485344 C13.7697088,3.98485344 14.6470648,4.19586312 15.4244805,4.6178888 C16.2018962,5.03991447 16.8090118,5.62111656 17.2458454,6.36151248 C17.682679,7.10190841 17.9010925,7.93854325 17.9010925,8.87144212 C17.9010925,9.59703012 17.7826309,10.2300591 17.5457042,10.7705482 C17.3087775,11.3110372 17.0089217,11.7885854 16.6461277,12.2032071 C16.2833337,12.6178288 15.7687662,13.1286944 15.1024099,13.735819 L14.7025981,14.0912073 C14.2879764,14.4614052 13.9955244,14.8945304 13.8252333,15.3905956 C13.6549422,15.8866609 13.569798,16.3790168 13.569798,16.8676781 C13.569798,17.1194127 13.4883556,17.3304224 13.3254685,17.5007135 C13.1625814,17.6710045 12.9552737,17.7561488 12.7035391,17.7561488 C12.4518045,17.7561488 12.2444967,17.6710045 12.0816096,17.5007135 C11.9187225,17.3304224 11.8372802,17.1194127 11.8372802,16.8676781 C11.8372802,16.2605535 11.9853571,15.6164187 12.2815155,14.9352544 C12.5776739,14.2540902 12.9774817,13.67659 13.4809509,13.2027366 L14.0362451,12.691866 C14.5397143,12.2180126 14.9321183,11.8219067 15.2134687,11.5035365 C15.4948192,11.1851662 15.7280404,10.8001661 15.9131394,10.3485246 C16.0982383,9.89688309 16.1907864,9.37491179 16.1907864,8.78259505 Z M12.7035391,19.0888548 C13.0589291,19.0888548 13.3661888,19.2147202 13.6253274,19.4664548 C13.884466,19.7181894 14.0140333,20.0291511 14.0140333,20.399349 C14.0140333,20.7547391 13.884466,21.0582968 13.6253274,21.3100315 C13.3661888,21.5617661 13.0589291,21.6876315 12.7035391,21.6876315 C12.3333411,21.6876315 12.0260814,21.5617661 11.7817508,21.3100315 C11.5374201,21.0582968 11.4152566,20.7547391 11.4152566,20.399349 C11.4152566,20.0291511 11.541122,19.7181894 11.7928566,19.4664548 C12.0445913,19.2147202 12.348149,19.0888548 12.7035391,19.0888548 Z" id="?" fill="#FFFFFF"></path>
                <path d="M19.9356558,2.96331352 L2.6498329,20.969379" id="Line" stroke="url(#linearGradient-1)" stroke-width="4" stroke-linecap="square"></path>
                <path d="M20.7497565,3.7774143 L4.00517267,21.2196892" id="Line" stroke="#FFFFFF" stroke-width="2" stroke-linecap="square"></path>
            </g>
        </g>
    </g>
</svg>