<?xml version="1.0" encoding="UTF-8"?>
<svg width="25px" height="32px" viewBox="0 0 25 32" version="1.1" xmlns="http://www.w3.org/2000/svg" xmlns:xlink="http://www.w3.org/1999/xlink">
    <!-- Generator: Sketch 50.2 (55047) - http://www.bohemiancoding.com/sketch -->
    <title>Group 9</title>
    <desc>Created with Sketch.</desc>
    <defs></defs>
    <g id="Page-1" stroke="none" stroke-width="1" fill="none" fill-rule="evenodd">
        <g id="Features-2" transform="translate(-200.000000, -631.000000)" fill-rule="nonzero">
            <g id="Group-9" transform="translate(194.000000, 628.000000)">
                <g id="1-Finger-Touch" transform="translate(19.353553, 19.646447) rotate(-315.000000) translate(-19.353553, -19.646447) translate(4.353553, 8.146447)">
                    <path d="M8.9321267,23 L21.5294118,23 C23.158371,23 24.7873303,22.3348323 25.9819005,21.1153582 L28.1538462,18.8981326 C29.3484163,17.6786585 30,16.1266005 30,14.35282 C30,12.800762 29.4570136,11.2487041 28.3710407,10.02923 L23.2669683,4.3753046 C22.8325792,3.93185947 21.8552036,3.82099819 21.3122172,4.3753046 C20.7692308,4.92961101 20.7692308,5.81650127 21.3122172,6.37080768 L21.4208145,6.48166896 C21.638009,6.70339153 21.638009,7.03597537 21.4208145,7.25769794 C21.2036199,7.4794205 20.8778281,7.4794205 20.6606335,7.25769794 C20.6606335,7.25769794 20.6606335,7.25769794 20.6606335,7.25769794 C20.6606335,7.25769794 20.6606335,7.25769794 20.6606335,7.25769794 L20.5520362,7.14683665 L19.2488688,5.81650127 C18.7058824,5.26219486 17.8371041,5.26219486 17.2941176,5.81650127 C16.7511312,6.37080768 16.7511312,7.25769794 17.2941176,7.81200435 L18.7058824,9.25320102 C18.9230769,9.47492358 18.9230769,9.80750743 18.7058824,10.02923 C18.4886878,10.2509526 18.1628959,10.2509526 17.9457014,10.02923 L15.1221719,7.14683665 C14.5791855,6.59253024 13.7104072,6.59253024 13.1674208,7.14683665 C12.6244344,7.70114307 12.6244344,8.58803332 13.1674208,9.14233973 L15.9909502,12.0247331 C16.2081448,12.2464556 16.2081448,12.5790395 15.9909502,12.800762 C15.7737557,13.0224846 15.4479638,13.0224846 15.2307692,12.800762 L8.38914027,5.81650127 C8.06334842,5.70563999 7.73755656,5.48391742 7.41176471,5.48391742 C7.08597285,5.48391742 6.65158371,5.5947787 6.43438914,5.92736255 C6.21719457,6.14908512 6,6.59253024 6,6.92511409 C6,7.25769794 6.10859729,7.70114307 6.43438914,7.92286563 L16.6425339,18.3438262 C16.7511312,18.4546874 16.8597285,18.67641 16.7511312,18.8981326 C16.6425339,19.1198551 16.5339367,19.2307164 16.3167421,19.2307164 L9.80090498,20.3393292 C8.9321267,20.4501905 8.28054299,21.2262195 8.28054299,22.1131097 C8.1719457,22.6674162 8.49773756,23 8.9321267,23 Z" id="Shape" fill="#808080"></path>
                    <path d="M3.87188612,12 C3.75800712,12 3.75800712,12 3.64412811,12 C1.36654804,10.9811321 0,8.71698113 0,6.33962264 C0,2.83018868 2.84697509,0 6.2633452,0 C8.76868327,0 10.9323843,1.47169811 11.9572954,3.62264151 C12.0711744,3.96226415 11.9572954,4.18867925 11.6156584,4.41509434 C11.2740214,4.52830189 11.0462633,4.41509434 10.8185053,4.0754717 C10.1352313,2.26415094 8.19928826,1.13207547 6.2633452,1.13207547 C3.41637011,1.13207547 1.13879004,3.39622642 1.13879004,6.22641509 C1.13879004,8.26415094 2.27758007,10.0754717 4.21352313,10.8679245 C4.55516014,10.9811321 4.66903915,11.3207547 4.55516014,11.6603774 C4.32740214,11.7735849 4.09964413,12 3.87188612,12 Z" id="Shape" fill="#0B203E"></path>
                </g>
            </g>
        </g>
    </g>
</svg>