<?xml version="1.0" encoding="UTF-8"?>
<svg width="62px" height="81px" viewBox="0 0 62 81" version="1.1" xmlns="http://www.w3.org/2000/svg" xmlns:xlink="http://www.w3.org/1999/xlink">
    <!-- Generator: Sketch 52.6 (67491) - http://www.bohemiancoding.com/sketch -->
    <title>onetouchdialing</title>
    <desc>Created with Sketch.</desc>
    <g id="New-Section-" stroke="none" stroke-width="1" fill="none" fill-rule="evenodd">
        <g id="Artboard" transform="translate(-16.000000, -7.000000)" fill="#103F8A" fill-rule="nonzero">
            <g id="onetouchdialing">
                <g transform="translate(50.050508, 50.252538) rotate(-315.000000) translate(-50.050508, -50.252538) translate(10.550508, 19.752538)" id="Shape">
                    <path d="M22.2440106,60.4462853 L55.6441881,60.4462853 C59.9631766,60.4462853 64.282165,58.7213368 67.4494232,55.5589314 L73.2080745,49.8091034 C76.3753327,46.646698 78.1029281,42.6218184 78.1029281,38.021956 C78.1029281,33.9970764 76.6632653,29.9721967 73.7839397,26.8097913 L60.2511091,12.1477299 C59.0993789,10.9977643 56.5079858,10.7102729 55.068323,12.1477299 C53.6286602,13.5851869 53.6286602,15.8851181 55.068323,17.3225751 L55.3562555,17.6100665 C55.9321207,18.1850493 55.9321207,19.0475235 55.3562555,19.6225063 C54.7803904,20.1974891 53.9165927,20.1974891 53.3407276,19.6225063 C53.3407276,19.6225063 53.3407276,19.6225063 53.3407276,19.6225063 C53.3407276,19.6225063 53.3407276,19.6225063 53.3407276,19.6225063 L53.052795,19.3350149 L49.5976043,15.8851181 C48.1579414,14.4476611 45.8544809,14.4476611 44.4148181,15.8851181 C42.9751553,17.3225751 42.9751553,19.6225063 44.4148181,21.0599633 L48.1579414,24.7973515 C48.7338066,25.3723343 48.7338066,26.2348085 48.1579414,26.8097913 C47.5820763,27.3847741 46.7182786,27.3847741 46.1424135,26.8097913 L38.6561668,19.3350149 C37.216504,17.8975579 34.9130435,17.8975579 33.4733807,19.3350149 C32.0337178,20.7724719 32.0337178,23.0724031 33.4733807,24.5098601 L40.9596273,31.9846366 C41.5354925,32.5596194 41.5354925,33.4220936 40.9596273,33.9970764 C40.3837622,34.5720592 39.5199645,34.5720592 38.9440994,33.9970764 L20.8043478,15.8851181 C19.9405501,15.5976267 19.0767524,15.0226439 18.2129547,15.0226439 C17.3491571,15.0226439 16.1974268,15.3101353 15.6215617,16.1726095 C15.0456965,16.7475923 14.4698314,17.8975579 14.4698314,18.7600321 C14.4698314,19.6225063 14.757764,20.7724719 15.6215617,21.3474547 L42.6872227,48.3716464 C42.9751553,48.6591378 43.2630878,49.2341206 42.9751553,49.8091034 C42.6872227,50.3840862 42.3992902,50.6715776 41.823425,50.6715776 L24.5474712,53.5464916 C22.2440106,53.833983 20.5164153,55.8464228 20.5164153,58.146354 C20.2284827,59.5838111 21.0922804,60.4462853 22.2440106,60.4462853 Z"></path>
                    <path d="M9.86291038,30.5471795 C9.57497782,30.5471795 9.57497782,30.5471795 9.28704525,30.5471795 C3.52839397,27.9597569 0.0732031943,22.2099289 0.0732031943,16.1726095 C0.0732031943,7.26037606 7.2715173,0.0730910342 15.9094942,0.0730910342 C22.2440106,0.0730910342 27.7147294,3.81047925 30.3061224,9.27281587 C30.594055,10.1352901 30.3061224,10.7102729 29.4423248,11.2852557 C28.5785271,11.5727471 28.0026619,11.2852557 27.4267968,10.4227815 C25.6992014,5.82291906 20.8043478,2.94800504 15.9094942,2.94800504 C8.71118012,2.94800504 2.95252884,8.69783307 2.95252884,15.8851181 C2.95252884,21.0599633 5.83185448,25.6598257 10.7267081,27.6722655 C11.5905058,27.9597569 11.8784383,28.8222311 11.5905058,29.6847053 C11.0146406,29.9721967 10.4387755,30.5471795 9.86291038,30.5471795 Z"></path>
                </g>
            </g>
        </g>
    </g>
</svg>