<?xml version="1.0" encoding="UTF-8"?>
<svg width="78px" height="100px" viewBox="0 0 78 100" version="1.1" xmlns="http://www.w3.org/2000/svg" xmlns:xlink="http://www.w3.org/1999/xlink">
    <!-- Generator: Sketch 50.2 (55047) - http://www.bohemiancoding.com/sketch -->
    <title>Group 9</title>
    <desc>Created with Sketch.</desc>
    <defs>
        <filter x="-5.2%" y="-4.8%" width="120.1%" height="120.8%" filterUnits="objectBoundingBox" id="filter-1">
            <feOffset dx="0" dy="2" in="SourceAlpha" result="shadowOffsetOuter1"></feOffset>
            <feGaussianBlur stdDeviation="2" in="shadowOffsetOuter1" result="shadowBlurOuter1"></feGaussianBlur>
            <feColorMatrix values="0 0 0 0 0   0 0 0 0 0   0 0 0 0 0  0 0 0 0.5 0" type="matrix" in="shadowBlurOuter1" result="shadowMatrixOuter1"></feColorMatrix>
            <feMerge>
                <feMergeNode in="shadowMatrixOuter1"></feMergeNode>
                <feMergeNode in="SourceGraphic"></feMergeNode>
            </feMerge>
        </filter>
    </defs>
    <g id="Xtras-New-Section" stroke="none" stroke-width="1" fill="none" fill-rule="evenodd">
        <g id="Raza---Features-2" transform="translate(-146.000000, -914.000000)" fill="#103F8A" fill-rule="nonzero">
            <g id="Group-16" filter="url(#filter-1)" transform="translate(102.000000, 862.000000)">
                <g id="Group-15" transform="translate(30.000000, 46.000000)">
                    <g id="Group-10">
                        <g id="Group-9">
                            <g id="1-Finger-Touch" transform="translate(56.500000, 56.500000) rotate(-315.000000) translate(-56.500000, -56.500000) translate(12.000000, 22.000000)">
                                <path d="M25.1963975,68.6954254 L63.0296894,68.6954254 C67.9219255,68.6954254 72.8141615,66.7350722 76.4018012,63.1410915 L82.9247826,56.6065811 C86.5124224,53.0126003 88.4693168,48.438443 88.4693168,43.2108347 C88.4693168,38.6366774 86.8385714,34.0625201 83.5770807,30.4685393 L68.2480745,13.8055377 C66.9434783,12.4986356 64.0081366,12.1719101 62.3773913,13.8055377 C60.746646,15.4391653 60.746646,18.0529695 62.3773913,19.6865971 L62.7035404,20.0133226 C63.3558385,20.6667737 63.3558385,21.6469502 62.7035404,22.3004013 C62.0512422,22.9538523 61.072795,22.9538523 60.4204969,22.3004013 C60.4204969,22.3004013 60.4204969,22.3004013 60.4204969,22.3004013 C60.4204969,22.3004013 60.4204969,22.3004013 60.4204969,22.3004013 L60.0943478,21.9736758 L56.180559,18.0529695 C54.5498137,16.4193419 51.9406211,16.4193419 50.3098758,18.0529695 C48.6791304,19.6865971 48.6791304,22.3004013 50.3098758,23.9340289 L54.5498137,28.1814607 C55.2021118,28.8349117 55.2021118,29.8150883 54.5498137,30.4685393 C53.8975155,31.1219904 52.9190683,31.1219904 52.2667702,30.4685393 L43.7868944,21.9736758 C42.1561491,20.3400482 39.5469565,20.3400482 37.9162112,21.9736758 C36.2854658,23.6073034 36.2854658,26.2211075 37.9162112,27.8547352 L46.396087,36.3495987 C47.0483851,37.0030498 47.0483851,37.9832263 46.396087,38.6366774 C45.7437888,39.2901284 44.7653416,39.2901284 44.1130435,38.6366774 L23.5656522,18.0529695 C22.587205,17.726244 21.6087578,17.0727929 20.6303106,17.0727929 C19.6518634,17.0727929 18.3472671,17.3995185 17.6949689,18.379695 C17.0426708,19.0331461 16.3903727,20.3400482 16.3903727,21.3202247 C16.3903727,22.3004013 16.7165217,23.6073034 17.6949689,24.2607544 L48.3529814,54.9729535 C48.6791304,55.299679 49.0052795,55.95313 48.6791304,56.6065811 C48.3529814,57.2600321 48.0268323,57.5867576 47.3745342,57.5867576 L27.8055901,60.8540128 C25.1963975,61.1807384 23.2395031,63.467817 23.2395031,66.0816212 C22.913354,67.7152488 23.8918012,68.6954254 25.1963975,68.6954254 Z" id="Shape"></path>
                                <path d="M11.1719876,34.7159711 C10.8458385,34.7159711 10.8458385,34.7159711 10.5196894,34.7159711 C3.99670807,31.7754414 0.0829192547,25.240931 0.0829192547,18.379695 C0.0829192547,8.25120385 8.23664596,0.0830658106 18.021118,0.0830658106 C25.1963975,0.0830658106 31.3932298,4.33049759 34.3285714,10.5382825 C34.6547205,11.5184591 34.3285714,12.1719101 33.3501242,12.8253612 C32.371677,13.1520867 31.7193789,12.8253612 31.0670807,11.8451846 C29.1101863,6.61757624 23.5656522,3.35032103 18.021118,3.35032103 C9.8673913,3.35032103 3.34440994,9.88483146 3.34440994,18.0529695 C3.34440994,23.9340289 6.60590062,29.1616372 12.1504348,31.4487159 C13.128882,31.7754414 13.4550311,32.755618 13.128882,33.7357945 C12.4765839,34.0625201 11.8242857,34.7159711 11.1719876,34.7159711 Z" id="Shape"></path>
                            </g>
                        </g>
                    </g>
                </g>
            </g>
        </g>
    </g>
</svg>