<?xml version="1.0" encoding="UTF-8"?>
<svg width="35px" height="46px" viewBox="0 0 35 46" version="1.1" xmlns="http://www.w3.org/2000/svg" xmlns:xlink="http://www.w3.org/1999/xlink">
    <!-- Generator: Sketch 50.2 (55047) - http://www.bohemiancoding.com/sketch -->
    <title>Group 9</title>
    <desc>Created with Sketch.</desc>
    <defs>
        <linearGradient x1="3.061617e-15%" y1="50%" x2="100%" y2="50%" id="linearGradient-1">
            <stop stop-color="#E6167F" offset="0%"></stop>
            <stop stop-color="#FF8000" offset="100%"></stop>
        </linearGradient>
    </defs>
    <g id="Xtras-New-Section" stroke="none" stroke-width="1" fill="none" fill-rule="evenodd">
        <g id="Raza---Features-2" transform="translate(-158.000000, -615.000000)" fill="url(#linearGradient-1)" fill-rule="nonzero">
            <g id="Group-18" transform="translate(100.000000, 611.000000)">
                <g id="Group-6">
                    <g id="Group-17">
                        <g id="Group-9" transform="translate(49.000000, 0.000000)">
                            <g id="1-Finger-Touch" transform="translate(28.000000, 28.000000) rotate(-315.000000) translate(-28.000000, -28.000000) translate(6.000000, 11.000000)">
                                <path d="M12.456646,33.8499197 L31.1607453,33.8499197 C33.5793789,33.8499197 35.9980124,32.8839486 37.771677,31.1130016 L40.9965217,27.8930979 C42.7701863,26.1221509 43.7376398,23.8682183 43.7376398,21.2922953 C43.7376398,19.0383628 42.9314286,16.7844302 41.3190062,15.0134831 L33.7406211,6.80272873 C33.0956522,6.15874799 31.644472,5.99775281 30.8382609,6.80272873 C30.0320497,7.60770465 30.0320497,8.89566613 30.8382609,9.70064205 L30.9995031,9.86163724 C31.3219876,10.1836276 31.3219876,10.6666132 30.9995031,10.9886035 C30.6770186,11.3105939 30.1932919,11.3105939 29.8708075,10.9886035 C29.8708075,10.9886035 29.8708075,10.9886035 29.8708075,10.9886035 C29.8708075,10.9886035 29.8708075,10.9886035 29.8708075,10.9886035 L29.7095652,10.8276083 L27.7746584,8.89566613 C26.9684472,8.09069021 25.6785093,8.09069021 24.8722981,8.89566613 C24.066087,9.70064205 24.066087,10.9886035 24.8722981,11.7935795 L26.9684472,13.8865169 C27.2909317,14.2085072 27.2909317,14.6914928 26.9684472,15.0134831 C26.6459627,15.3354735 26.162236,15.3354735 25.8397516,15.0134831 L21.6474534,10.8276083 C20.8412422,10.0226324 19.5513043,10.0226324 18.7450932,10.8276083 C17.938882,11.6325843 17.938882,12.9205457 18.7450932,13.7255217 L22.9373913,17.9113965 C23.2598758,18.2333868 23.2598758,18.7163724 22.9373913,19.0383628 C22.6149068,19.3603531 22.1311801,19.3603531 21.8086957,19.0383628 L11.6504348,8.89566613 C11.1667081,8.73467095 10.6829814,8.41268058 10.1992547,8.41268058 C9.71552795,8.41268058 9.07055901,8.57367576 8.74807453,9.05666132 C8.42559006,9.37865169 8.10310559,10.0226324 8.10310559,10.505618 C8.10310559,10.9886035 8.26434783,11.6325843 8.74807453,11.9545746 L23.9048447,27.088122 C24.066087,27.2491172 24.2273292,27.5711075 24.066087,27.8930979 C23.9048447,28.2150883 23.7436025,28.3760835 23.421118,28.3760835 L13.7465839,29.9860353 C12.456646,30.1470305 11.4891925,31.2739968 11.4891925,32.5619583 C11.3279503,33.3669342 11.811677,33.8499197 12.456646,33.8499197 Z" id="Shape"></path>
                                <path d="M5.52322981,17.1064205 C5.36198758,17.1064205 5.36198758,17.1064205 5.20074534,17.1064205 C1.97590062,15.6574639 0.0409937888,12.4375602 0.0409937888,9.05666132 C0.0409937888,4.06581059 4.07204969,0.0409309791 8.90931677,0.0409309791 C12.456646,0.0409309791 15.5202484,2.13386838 16.9714286,5.19277689 C17.1326708,5.67576244 16.9714286,5.99775281 16.4877019,6.31974318 C16.0039752,6.48073836 15.6814907,6.31974318 15.3590062,5.83675762 C14.3915528,3.26083467 11.6504348,1.65088283 8.90931677,1.65088283 C4.87826087,1.65088283 1.65341615,4.87078652 1.65341615,8.89566613 C1.65341615,11.7935795 3.26583851,14.3695024 6.00695652,15.4964687 C6.49068323,15.6574639 6.65192547,16.1404494 6.49068323,16.623435 C6.16819876,16.7844302 5.84571429,17.1064205 5.52322981,17.1064205 Z" id="Shape"></path>
                            </g>
                        </g>
                    </g>
                </g>
            </g>
        </g>
    </g>
</svg>