<?xml version="1.0" encoding="UTF-8"?>
<svg width="60px" height="60px" viewBox="0 0 60 60" version="1.1" xmlns="http://www.w3.org/2000/svg" xmlns:xlink="http://www.w3.org/1999/xlink">
    <!-- Generator: Sketch 50.2 (55047) - http://www.bohemiancoding.com/sketch -->
    <title>Group 19</title>
    <desc>Created with Sketch.</desc>
    <defs></defs>
    <g id="Page-1" stroke="none" stroke-width="1" fill="none" fill-rule="evenodd">
        <g id="Raza---Homepage-" transform="translate(-131.000000, -1431.000000)">
            <g id="Group-4" transform="translate(70.000000, 1288.000000)">
                <g id="Group-18" transform="translate(0.000000, 143.000000)">
                    <g id="Group-16">
                        <g id="Group-5">
                            <g id="Group-16" transform="translate(61.000000, 0.000000)">
                                <g id="Group-19">
                                    <circle id="Oval-2" fill="#9763E9" cx="30" cy="30" r="30"></circle>
                                    <g id="Group" transform="translate(12.000000, 16.000000)" fill="#FFFFFF" fill-rule="nonzero">
                                        <path d="M30.56625,11.6869565 L10.51875,11.6869565 L6.6,5.6 L1.03125,5.6 C0.45375,5.6 0,6.04637681 0,6.61449275 C0,7.1826087 0.45375,7.62898551 1.03125,7.62898551 L5.48625,7.62898551 L14.355,21.4666667 L14.355,21.5072464 L14.355,21.5072464 L14.355,21.5072464 L14.355,21.5072464 C14.80875,22.2376812 15.5925,22.6434783 16.45875,22.6434783 L27.9675,22.6434783 C28.9575,22.6434783 29.865,22.0753623 30.23625,21.142029 L32.79375,14.973913 C33.0825,14.2434783 33,13.3913043 32.54625,12.742029 C32.13375,12.0927536 31.39125,11.6869565 30.56625,11.6869565 Z M30.9375,14.2028986 L28.38,20.3710145 C28.33875,20.4927536 28.17375,20.6144928 28.05,20.6144928 L16.5,20.6144928 C16.335,20.6144928 16.21125,20.5333333 16.12875,20.4115942 L11.83875,13.715942 L30.56625,13.715942 C30.73125,13.715942 30.855,13.8376812 30.89625,13.8782609 C30.9375,13.9188406 30.97875,14.0405797 30.9375,14.2028986 Z" id="Shape"></path>
                                        <ellipse id="Oval" cx="26.44125" cy="26.0521739" rx="1.98" ry="1.94782609"></ellipse>
                                        <ellipse id="Oval" cx="16.95375" cy="26.0521739" rx="1.98" ry="1.94782609"></ellipse>
                                        <path d="M20.74875,0.0405797101 C20.17125,0.0405797101 19.7175,0.486956522 19.7175,1.05507246 L19.7175,3.40869565 L17.325,3.40869565 C16.7475,3.40869565 16.29375,3.85507246 16.29375,4.42318841 C16.29375,4.99130435 16.7475,5.43768116 17.325,5.43768116 L19.7175,5.43768116 L19.7175,7.79130435 C19.7175,8.35942029 20.17125,8.8057971 20.74875,8.8057971 C21.32625,8.8057971 21.78,8.35942029 21.78,7.79130435 L21.78,5.43768116 L24.1725,5.43768116 C24.75,5.43768116 25.20375,4.99130435 25.20375,4.42318841 C25.20375,3.85507246 24.75,3.40869565 24.1725,3.40869565 L21.78,3.40869565 L21.78,1.05507246 C21.78,0.486956522 21.32625,0.0405797101 20.74875,0.0405797101 Z" id="Shape"></path>
                                    </g>
                                </g>
                            </g>
                        </g>
                    </g>
                </g>
            </g>
        </g>
    </g>
</svg>