<?xml version="1.0" encoding="UTF-8"?>
<svg width="94px" height="94px" viewBox="0 0 94 94" version="1.1" xmlns="http://www.w3.org/2000/svg" xmlns:xlink="http://www.w3.org/1999/xlink">
    <!-- Generator: Sketch 52.6 (67491) - http://www.bohemiancoding.com/sketch -->
    <title>pin-less</title>
    <desc>Created with Sketch.</desc>
    <g id="New-Section-" stroke="none" stroke-width="1" fill="none" fill-rule="evenodd">
        <g id="Artboard" transform="translate(-3.000000, -3.000000)" fill="#103F8A" fill-rule="nonzero">
            <g id="pin-less" transform="translate(3.000000, 3.000000)">
                <path d="M47,0 C21.0851724,0 0,21.0851724 0,47 C0,72.9148276 21.0851724,94 47,94 C72.9148276,94 94,72.9148276 94,47 C94,21.0851724 72.9148276,0 47,0 Z M47,90.7586207 C22.8711724,90.7586207 3.24137931,71.1288276 3.24137931,47 C3.24137931,35.5190345 7.72096552,25.0882759 14.9816552,17.2733103 L29.1724138,31.464069 L29.1724138,71.3103448 C29.1724138,74.8855862 32.079931,77.7931034 35.6551724,77.7931034 L58.3448276,77.7931034 C61.920069,77.7931034 64.8275862,74.8855862 64.8275862,71.3103448 L64.8275862,67.1192414 L76.7266897,79.0183448 C68.9117241,86.2790345 58.4809655,90.7586207 47,90.7586207 Z M32.4137931,61.5862069 L32.4137931,34.7054483 L59.2945517,61.5862069 L32.4137931,61.5862069 Z M48.6206897,69.6896552 C48.6206897,70.5842759 47.8946207,71.3103448 47,71.3103448 C46.1053793,71.3103448 45.3793103,70.5842759 45.3793103,69.6896552 C45.3793103,68.7950345 46.1053793,68.0689655 47,68.0689655 C47.8946207,68.0689655 48.6206897,68.7950345 48.6206897,69.6896552 Z M79.0183448,76.7266897 L64.3543448,62.0626897 L17.2733103,14.9816552 C25.0882759,7.72096552 35.5190345,3.24137931 47,3.24137931 C71.1288276,3.24137931 90.7586207,22.8711724 90.7586207,47 C90.7586207,58.4809655 86.2790345,68.9117241 79.0183448,76.7266897 Z M58.3448276,16.2068966 L35.6551724,16.2068966 C32.8027586,16.2068966 30.3166207,18.0350345 29.4641379,20.7577931 C29.1983448,21.6102759 29.6715862,22.5211034 30.5273103,22.7868966 C31.3927586,23.055931 32.2906207,22.5762069 32.5596552,21.7237241 C32.9842759,20.3623448 34.2289655,19.4482759 35.6551724,19.4482759 L58.3448276,19.4482759 C60.134069,19.4482759 61.5862069,20.9036552 61.5862069,22.6896552 L61.5862069,53.4827586 C61.5862069,54.3773793 62.3122759,55.1034483 63.2068966,55.1034483 C64.1015172,55.1034483 64.8275862,54.3773793 64.8275862,53.4827586 L64.8275862,22.6896552 C64.8275862,19.1144138 61.920069,16.2068966 58.3448276,16.2068966 Z M37.2758621,22.6896552 C36.3812414,22.6896552 35.6551724,23.4157241 35.6551724,24.3103448 C35.6551724,25.2049655 36.3812414,25.9310345 37.2758621,25.9310345 C38.1704828,25.9310345 38.8965517,25.2049655 38.8965517,24.3103448 C38.8965517,23.4157241 38.1704828,22.6896552 37.2758621,22.6896552 Z" id="Shape"></path>
            </g>
        </g>
    </g>
</svg>