<?xml version="1.0" encoding="UTF-8"?>
<svg width="40px" height="40px" viewBox="0 0 40 40" version="1.1" xmlns="http://www.w3.org/2000/svg" xmlns:xlink="http://www.w3.org/1999/xlink">
    <!-- Generator: Sketch 50.2 (55047) - http://www.bohemiancoding.com/sketch -->
    <title>No-phone</title>
    <desc>Created with Sketch.</desc>
    <defs></defs>
    <g id="Page-1" stroke="none" stroke-width="1" fill="none" fill-rule="evenodd">
        <g id="Features-2" transform="translate(-358.000000, -628.000000)" fill="#808080" fill-rule="nonzero">
            <g id="No-phone" transform="translate(358.000000, 628.000000)">
                <path d="M20,0 C8.97241379,0 0,8.97241379 0,20 C0,31.0275862 8.97241379,40 20,40 C31.0275862,40 40,31.0275862 40,20 C40,8.97241379 31.0275862,0 20,0 Z M20,38.6206897 C9.73241379,38.6206897 1.37931034,30.2675862 1.37931034,20 C1.37931034,15.1144828 3.28551724,10.6758621 6.37517241,7.35034483 L12.4137931,13.3889655 L12.4137931,30.3448276 C12.4137931,31.8662069 13.6510345,33.1034483 15.1724138,33.1034483 L24.8275862,33.1034483 C26.3489655,33.1034483 27.5862069,31.8662069 27.5862069,30.3448276 L27.5862069,28.5613793 L32.6496552,33.6248276 C29.3241379,36.7144828 24.8855172,38.6206897 20,38.6206897 Z M13.7931034,26.2068966 L13.7931034,14.7682759 L25.2317241,26.2068966 L13.7931034,26.2068966 Z M20.6896552,29.6551724 C20.6896552,30.0358621 20.3806897,30.3448276 20,30.3448276 C19.6193103,30.3448276 19.3103448,30.0358621 19.3103448,29.6551724 C19.3103448,29.2744828 19.6193103,28.9655172 20,28.9655172 C20.3806897,28.9655172 20.6896552,29.2744828 20.6896552,29.6551724 Z M33.6248276,32.6496552 L27.3848276,26.4096552 L7.35034483,6.37517241 C10.6758621,3.28551724 15.1144828,1.37931034 20,1.37931034 C30.2675862,1.37931034 38.6206897,9.73241379 38.6206897,20 C38.6206897,24.8855172 36.7144828,29.3241379 33.6248276,32.6496552 Z M24.8275862,6.89655172 L15.1724138,6.89655172 C13.9586207,6.89655172 12.9006897,7.67448276 12.537931,8.83310345 C12.4248276,9.19586207 12.6262069,9.58344828 12.9903448,9.69655172 C13.3586207,9.81103448 13.7406897,9.60689655 13.8551724,9.24413793 C14.0358621,8.66482759 14.5655172,8.27586207 15.1724138,8.27586207 L24.8275862,8.27586207 C25.5889655,8.27586207 26.2068966,8.89517241 26.2068966,9.65517241 L26.2068966,22.7586207 C26.2068966,23.1393103 26.5158621,23.4482759 26.8965517,23.4482759 C27.2772414,23.4482759 27.5862069,23.1393103 27.5862069,22.7586207 L27.5862069,9.65517241 C27.5862069,8.1337931 26.3489655,6.89655172 24.8275862,6.89655172 Z M15.862069,9.65517241 C15.4813793,9.65517241 15.1724138,9.96413793 15.1724138,10.3448276 C15.1724138,10.7255172 15.4813793,11.0344828 15.862069,11.0344828 C16.2427586,11.0344828 16.5517241,10.7255172 16.5517241,10.3448276 C16.5517241,9.96413793 16.2427586,9.65517241 15.862069,9.65517241 Z" id="Shape"></path>
            </g>
        </g>
    </g>
</svg>