<?xml version="1.0" encoding="UTF-8"?>
<svg width="28px" height="28px" viewBox="0 0 28 28" version="1.1" xmlns="http://www.w3.org/2000/svg" xmlns:xlink="http://www.w3.org/1999/xlink">
    <!-- Generator: Sketch 50.2 (55047) - http://www.bohemiancoding.com/sketch -->
    <title>Group 8</title>
    <desc>Created with Sketch.</desc>
    <defs>
        <polygon id="path-1" points="0 0 20 0 20 24 0 24"></polygon>
        <polygon id="path-3" points="-1.81818182 -2.66666667 21.8181818 -2.66666667 21.8181818 25.7777778 -1.81818182 25.7777778"></polygon>
    </defs>
    <g id="Page-1" stroke="none" stroke-width="1" fill="none" fill-rule="evenodd">
        <g id="Features-2" transform="translate(-578.000000, -1038.000000)">
            <g id="Group-8" transform="translate(579.000000, 1038.000000)">
                <path d="M20.1885714,13.164557 C22.2685714,13.164557 23.5257143,11.9268636 23.5257143,10.3291139 C23.5257143,9.0464135 22.3828571,7.89873418 20.5542857,7.89873418 C19.16,7.89873418 18.0857143,8.28129395 17.3085714,9.0464135 L15,8.14627286 L15.5257143,0 L25.8571429,0 L25.8571429,2.76793249 L18.5428571,2.76793249 L18.3142857,6.09845288 L18.4285714,6.09845288 C19.2057143,5.53586498 20.2342857,5.26582278 21.4914286,5.26582278 C22.9771429,5.26582278 24.2571429,5.76090014 25.3542857,6.75105485 C26.4514286,7.76371308 27,8.95639944 27,10.3291139 C27,12.0393812 26.4057143,13.4120956 25.24,14.4472574 C24.0514286,15.4824191 22.4057143,16 20.3257143,16 C17.7657143,16 18.8762446,14.4247539 17.4591017,13.164557 L16.0514286,11.9718706 C17.4457143,12.7594937 18.8171429,13.164557 20.1885714,13.164557 Z" id="5" fill="#0B203E"></path>
                <g id="Page-1" transform="translate(0.000000, 3.000000)">
                    <mask id="mask-2" fill="white">
                        <use xlink:href="#path-1"></use>
                    </mask>
                    <g id="Clip-2"></g>
                    <mask id="mask-4" fill="white">
                        <use xlink:href="#path-3"></use>
                    </mask>
                    <g id="Clip-2-Copy"></g>
                    <path d="M7.74218386,1.76316632 C7.74223762,1.76316633 7.74229138,1.76316635 7.74234514,1.76316636 L7.74234514,0.763166308 L7.74202256,0.763166308 L7.74202256,1.76316631 C7.74207632,1.76316635 7.74213008,1.76316633 7.74218385,1.76316632 Z M16.5185166,11.3122941 C16.5429892,11.2932491 16.5667171,11.2731262 16.5896124,11.2519404 L16.2500248,10.8849522 L16.4674946,11.335182 C16.4844351,11.3269995 16.5014007,11.3193764 16.5185166,11.3122941 Z M15.3565099,22.2368426 C15.3128952,22.2775515 15.2696843,22.315526 15.2269806,22.3506403 L15.5445461,22.2368426 L15.3565099,22.2368426 Z M7.63982023,22.2368426 L7.40944435,22.2368426 L7.78742325,22.4095324 C7.73828371,22.3527859 7.68907945,22.2952159 7.63982023,22.2368426 Z M2.68098493,10.9395543 C2.69653252,10.9408703 2.7119996,10.9426912 2.72735988,10.9450325 L2.62975201,10.9198769 C2.64733278,10.9263582 2.66439772,10.9329066 2.68098493,10.9395543 Z M7.74218385,0.763166314 C7.74223761,0.76316631 7.74229138,0.763166308 7.74234514,0.763166308 L7.74234514,1.76316631 L7.74202256,1.76316631 L7.74202256,0.763166308 C7.74207633,0.763166308 7.74213009,0.76316631 7.74218385,0.763166314 Z M10.8223263,7.12335673 C10.9790294,7.09404558 11.1340673,7.07895344 11.2900611,7.07895344 C11.8775023,7.07895344 12.4567781,7.24002852 12.9712492,7.60579006 C13.0923207,7.6919507 13.1892041,7.78510459 13.2911578,7.91081291 C13.5727371,7.78488448 13.8685243,7.71567281 14.1753271,7.71059518 C14.7357229,7.70169653 15.3147352,7.8695251 15.839582,8.23416916 C16.1082804,8.42092113 16.3375293,8.68664972 16.5226017,9.00940406 C16.735101,8.98508371 16.9686096,8.97408884 17.2240219,8.97693855 C18.7011256,9.14615329 19.8040849,10.2510009 20.2108067,11.7724517 C20.5608628,13.0830357 20.5873988,14.5799155 20.3222894,16.2620539 C20.07268,17.8458437 19.5862341,19.4759478 18.9429059,20.8911742 C18.2357345,22.446398 17.4347122,23.5859891 16.4873609,24.273296 C16.2928573,24.4176482 16.0536338,24.4977463 15.8061571,24.5 L7.0942762,24.4999933 C6.77009368,24.4983141 6.45412213,24.3566355 6.23633529,24.111876 C3.86899359,21.4001138 1.76964423,17.7647364 -0.101692991,13.3588681 C-0.494378613,12.3694265 -0.603429484,11.5712376 -0.397221313,10.8368265 C0.0345404206,9.42950653 1.82453203,8.36847797 3.26619082,8.75168671 C3.77733889,8.87907189 4.25045567,9.1827829 4.66139629,9.60387665 L4.66139629,2.52632374 C4.66139629,0.859306073 6.04979636,-0.49999112 7.74037493,-0.499989364 C9.38006882,-0.504334749 10.7927956,0.70166925 10.8223263,2.52632374 L10.8223263,7.12336092 Z" id="Fill-1" stroke="#FFFFFF" fill="#0B203E" mask="url(#mask-4)"></path>
                </g>
            </g>
        </g>
    </g>
</svg>