<?xml version="1.0" encoding="UTF-8"?>
<svg width="27px" height="26px" viewBox="0 0 27 26" version="1.1" xmlns="http://www.w3.org/2000/svg" xmlns:xlink="http://www.w3.org/1999/xlink">
    <!-- Generator: Sketch 50.2 (55047) - http://www.bohemiancoding.com/sketch -->
    <title>Group 8</title>
    <desc>Created with Sketch.</desc>
    <defs>
        <polygon id="path-1" points="0 0 20 0 20 24 0 24"></polygon>
        <polygon id="path-3" points="-1.81818182 -2.66666667 21.8181818 -2.66666667 21.8181818 25.7777778 -1.81818182 25.7777778"></polygon>
    </defs>
    <g id="icons-features" stroke="none" stroke-width="1" fill="none" fill-rule="evenodd">
        <g id="Group-8">
            <path d="M20.1885714,13.164557 C22.2685714,13.164557 23.5257143,11.9268636 23.5257143,10.3291139 C23.5257143,9.0464135 22.3828571,7.89873418 20.5542857,7.89873418 C19.16,7.89873418 18.0857143,8.28129395 17.3085714,9.0464135 L15,8.14627286 L15.5257143,0 L25.8571429,0 L25.8571429,2.76793249 L18.5428571,2.76793249 L18.3142857,6.09845288 L18.4285714,6.09845288 C19.2057143,5.53586498 20.2342857,5.26582278 21.4914286,5.26582278 C22.9771429,5.26582278 24.2571429,5.76090014 25.3542857,6.75105485 C26.4514286,7.76371308 27,8.95639944 27,10.3291139 C27,12.0393812 26.4057143,13.4120956 25.24,14.4472574 C24.0514286,15.4824191 22.4057143,16 20.3257143,16 C17.7657143,16 18.8762446,14.4247539 17.4591017,13.164557 L16.0514286,11.9718706 C17.4457143,12.7594937 18.8171429,13.164557 20.1885714,13.164557 Z" id="5" fill="#FFFFFF"></path>
            <g id="Page-1" transform="translate(0.000000, 3.000000)">
                <mask id="mask-2" fill="white">
                    <use xlink:href="#path-1"></use>
                </mask>
                <g id="Clip-2"></g>
                <mask id="mask-4" fill="white">
                    <use xlink:href="#path-3"></use>
                </mask>
                <g id="Clip-2-Copy"></g>
                <path d="M5.6976263,12.9325911 C5.66898903,12.7914059 5.66199411,12.7280167 5.66221673,12.6315743 L5.66221673,1.26315743 C5.66221673,0.273764822 6.45261616,-0.5 7.45252987,-0.5 C8.4519597,-0.5 9.24252043,0.273922717 9.24252043,1.26315743 L9.24246684,7.90205369 C9.24176293,7.95013134 9.29721835,8.01934043 9.35282752,8.03185583 C9.41150332,8.04504644 9.4981326,8.00362103 9.52351906,7.95037922 C9.75205285,7.48572145 10.4641036,7.07894456 11.0005684,7.07894456 C11.287819,7.07894456 11.6685698,7.18635013 11.9252639,7.36867675 C12.2937632,7.63041719 12.4683033,7.96209962 12.4683033,8.52631263 C12.4683033,8.57276938 12.5222637,8.63957374 12.5773107,8.65246959 C12.6350118,8.66600288 12.7204703,8.62748039 12.7426891,8.58499007 C13.0694733,7.9451766 13.3546335,7.71975021 13.904939,7.71060132 C14.1442435,7.70637265 14.5465392,7.81846031 14.8039014,7.99727352 C15.1870855,8.26350682 15.3715078,8.59740934 15.3714648,9.16444726 C15.3709322,9.20506532 15.4091101,9.26244594 15.4553653,9.28216951 C15.5046249,9.30317415 15.5828672,9.2897337 15.620622,9.25479777 L15.7427397,9.17155611 C16.0537304,9.02134149 16.3633855,8.96643133 16.8183905,8.97750658 C17.7897937,9.09837094 18.3456726,9.69680674 18.6785077,10.8443296 C18.9725609,11.8592715 18.9921424,13.2792106 18.7524965,14.8014367 C18.5205601,16.2746928 18.0624428,17.8201963 17.4737664,19.1148019 C16.9268345,20.3179629 16.2347624,21.3151474 15.5722963,21.8598785 L15.433903,21.9736763 L6.89119064,21.9736763 L6.74165018,21.8009864 C4.62316012,19.354547 2.42203602,15.4930099 0.818515337,11.6416785 C0.519207584,10.8879059 0.433578589,10.3269257 0.5654061,9.87363433 C0.882578516,9.06391439 1.76262991,8.56743948 2.58823259,8.69328486 L2.68584045,8.71844054 C3.29377533,8.94256252 3.59846605,9.25998021 3.9384962,9.86949826 C3.93398563,9.86141288 4.06020439,10.0901709 4.10788737,10.1747674 L5.38540572,12.6861812 C5.4077619,12.7289798 5.5503823,12.833234 5.6976263,12.9325911 Z" id="Fill-1" stroke="#FFFFFF" fill="#FFFFFF" mask="url(#mask-4)"></path>
            </g>
        </g>
    </g>
</svg>