<?xml version="1.0" encoding="UTF-8"?>
<svg width="47px" height="47px" viewBox="0 0 47 47" version="1.1" xmlns="http://www.w3.org/2000/svg" xmlns:xlink="http://www.w3.org/1999/xlink">
    <!-- Generator: Sketch 50.2 (55047) - http://www.bohemiancoding.com/sketch -->
    <title>No-phone</title>
    <desc>Created with Sketch.</desc>
    <defs>
        <linearGradient x1="3.061617e-15%" y1="50%" x2="100%" y2="50%" id="linearGradient-1">
            <stop stop-color="#E6167F" offset="0%"></stop>
            <stop stop-color="#FF8000" offset="100%"></stop>
        </linearGradient>
    </defs>
    <g id="Xtras-New-Section" stroke="none" stroke-width="1" fill="none" fill-rule="evenodd">
        <g id="Raza---Features-2" transform="translate(-334.000000, -615.000000)" fill="url(#linearGradient-1)" fill-rule="nonzero">
            <g id="Group-18" transform="translate(100.000000, 611.000000)">
                <g id="Group-6">
                    <g id="Group-17">
                        <g id="No-phone" transform="translate(234.000000, 4.000000)">
                            <path d="M23.5,0 C10.5425862,0 0,10.5425862 0,23.5 C0,36.4574138 10.5425862,47 23.5,47 C36.4574138,47 47,36.4574138 47,23.5 C47,10.5425862 36.4574138,0 23.5,0 Z M23.5,45.3793103 C11.4355862,45.3793103 1.62068966,35.5644138 1.62068966,23.5 C1.62068966,17.7595172 3.86048276,12.5441379 7.49082759,8.63665517 L14.5862069,15.7320345 L14.5862069,35.6551724 C14.5862069,37.4427931 16.0399655,38.8965517 17.8275862,38.8965517 L29.1724138,38.8965517 C30.9600345,38.8965517 32.4137931,37.4427931 32.4137931,35.6551724 L32.4137931,33.5596207 L38.3633448,39.5091724 C34.4558621,43.1395172 29.2404828,45.3793103 23.5,45.3793103 Z M16.2068966,30.7931034 L16.2068966,17.3527241 L29.6472759,30.7931034 L16.2068966,30.7931034 Z M24.3103448,34.8448276 C24.3103448,35.2921379 23.9473103,35.6551724 23.5,35.6551724 C23.0526897,35.6551724 22.6896552,35.2921379 22.6896552,34.8448276 C22.6896552,34.3975172 23.0526897,34.0344828 23.5,34.0344828 C23.9473103,34.0344828 24.3103448,34.3975172 24.3103448,34.8448276 Z M39.5091724,38.3633448 L32.1771724,31.0313448 L8.63665517,7.49082759 C12.5441379,3.86048276 17.7595172,1.62068966 23.5,1.62068966 C35.5644138,1.62068966 45.3793103,11.4355862 45.3793103,23.5 C45.3793103,29.2404828 43.1395172,34.4558621 39.5091724,38.3633448 Z M29.1724138,8.10344828 L17.8275862,8.10344828 C16.4013793,8.10344828 15.1583103,9.01751724 14.732069,10.3788966 C14.5991724,10.8051379 14.8357931,11.2605517 15.2636552,11.3934483 C15.6963793,11.5279655 16.1453103,11.2881034 16.2798276,10.8618621 C16.4921379,10.1811724 17.1144828,9.72413793 17.8275862,9.72413793 L29.1724138,9.72413793 C30.0670345,9.72413793 30.7931034,10.4518276 30.7931034,11.3448276 L30.7931034,26.7413793 C30.7931034,27.1886897 31.1561379,27.5517241 31.6034483,27.5517241 C32.0507586,27.5517241 32.4137931,27.1886897 32.4137931,26.7413793 L32.4137931,11.3448276 C32.4137931,9.5572069 30.9600345,8.10344828 29.1724138,8.10344828 Z M18.637931,11.3448276 C18.1906207,11.3448276 17.8275862,11.7078621 17.8275862,12.1551724 C17.8275862,12.6024828 18.1906207,12.9655172 18.637931,12.9655172 C19.0852414,12.9655172 19.4482759,12.6024828 19.4482759,12.1551724 C19.4482759,11.7078621 19.0852414,11.3448276 18.637931,11.3448276 Z" id="Shape"></path>
                        </g>
                    </g>
                </g>
            </g>
        </g>
    </g>
</svg>