<?xml version="1.0" encoding="UTF-8"?>
<svg width="33px" height="20px" viewBox="0 0 33 20" version="1.1" xmlns="http://www.w3.org/2000/svg" xmlns:xlink="http://www.w3.org/1999/xlink">
    <!-- Generator: Sketch 50.2 (55047) - http://www.bohemiancoding.com/sketch -->
    <title>Group 13</title>
    <desc>Created with Sketch.</desc>
    <defs></defs>
    <g id="New-Section" stroke="none" stroke-width="1" fill="none" fill-rule="evenodd">
        <g id="Search-Rates---Main" transform="translate(-941.000000, -820.000000)">
            <g id="Group-7" transform="translate(207.000000, 458.000000)">
                <g id="Group-5" transform="translate(706.000000, 166.000000)">
                    <g id="Group" transform="translate(28.000000, 68.000000)">
                        <g id="Group-13" transform="translate(0.000000, 128.000000)">
                            <rect id="Rectangle" stroke="#0B203E" stroke-width="0.2" fill="#FFFFFF" x="0.1" y="0.1" width="32.8" height="19.3"></rect>
                            <g id="Page-1">
                                <path d="M0,-0.0001 L0,19.5819 L15.168,19.5819 L5.34,9.7499 L15.566,9.7499 L0,-0.0001 Z M0.741,1.3439 L12.984,9.0079 L3.549,9.0079 L13.378,18.8359 L0.741,18.8359 L0.741,1.3439 Z" id="Fill-1" fill="#22368F"></path>
                                <polygon id="Fill-2" fill="#BC0030" points="0.3708 19.2113 14.2708 19.2113 4.4448 9.3793 14.2708 9.3793 0.3708 0.6723"></polygon>
                                <g id="Group-7" transform="translate(0.000000, 5.582100)" fill="#FFFFFF">
                                    <path d="M3.8457,3.3007 C5.3767,3.3007 6.6157,2.0587 6.6157,0.5347 C6.3727,1.1487 5.9317,1.6597 5.3727,1.9997 L5.1367,1.8207 L5.6017,1.4687 L5.0387,1.3277 L5.3337,0.8277 L4.7577,0.9057 L4.8417,0.3317 L4.3397,0.6287 L4.1977,0.0667 L3.8457,0.5307 L3.4977,0.0667 L3.3557,0.6287 L2.8537,0.3317 L2.9357,0.9057 L2.3597,0.8277 L2.6567,1.3277 L2.0917,1.4687 L2.5607,1.8207 L2.3207,1.9997 C1.7597,1.6597 1.3207,1.1487 1.0777,0.5347 C1.0797,2.0587 2.3187,3.3007 3.8457,3.3007" id="Fill-3"></path>
                                    <polygon id="Fill-5" points="5.6719 9.1992 5.6719 9.1992 6.8199 8.7112 5.6719 8.2222 6.4239 7.2222 5.1819 7.3792 5.3339 6.1362 4.3359 6.8902 3.8459 5.7382 3.3589 6.8902 2.3589 6.1362 2.5119 7.3792 1.2719 7.2222 2.0259 8.2222 0.8729 8.7112 2.0259 9.1992 1.2719 10.1992 2.5119 10.0472 2.3589 11.2892 3.3589 10.5312 3.8459 11.6872 4.3359 10.5312 5.3339 11.2892 5.1819 10.0472 6.4239 10.1992"></polygon>
                                </g>
                            </g>
                        </g>
                    </g>
                </g>
            </g>
        </g>
    </g>
</svg>