<?xml version="1.0" encoding="UTF-8"?>
<svg width="34px" height="20px" viewBox="0 0 34 20" version="1.1" xmlns="http://www.w3.org/2000/svg" xmlns:xlink="http://www.w3.org/1999/xlink">
    <!-- Generator: Sketch 50.2 (55047) - http://www.bohemiancoding.com/sketch -->
    <title>Page 1</title>
    <desc>Created with Sketch.</desc>
    <defs></defs>
    <g id="New-Section" stroke="none" stroke-width="1" fill="none" fill-rule="evenodd">
        <g id="Search-Rates---Main" transform="translate(-941.000000, -863.000000)">
            <g id="Group-7" transform="translate(207.000000, 458.000000)">
                <g id="Group-5" transform="translate(706.000000, 166.000000)">
                    <g id="Group" transform="translate(28.000000, 68.000000)">
                        <g id="Page-1" transform="translate(0.000000, 171.000000)">
                            <polygon id="Fill-1" fill="#F5CD28" points="0 19.582 33.564 19.582 33.564 0 0 0"></polygon>
                            <polygon id="Fill-2" fill="#ED6F22" points="7.096 17.528 12.793 17.528 12.793 2.055 7.096 2.055"></polygon>
                            <polygon id="Fill-3" fill="#2F742E" points="1.484 17.532 7.101 17.532 7.101 2.055 1.484 2.055"></polygon>
                            <polygon id="Fill-4" fill="#8E1841" points="14.28 17.532 32.077 17.532 32.077 2.055 14.28 2.055"></polygon>
                            <g id="Group-87" transform="translate(14.000000, 2.582000)">
                                <path d="M7.0664,6.6562 L7.3604,6.6642 C7.3604,6.6642 7.0304,6.9452 7.1054,7.3202 C7.4514,6.8082 7.5784,6.9062 7.5784,6.9062 C7.4724,7.0192 7.2714,7.1792 7.4274,7.5232 C7.5634,7.1722 7.8404,6.8982 7.8404,6.8982 C7.8404,6.8982 7.7664,7.2892 7.9314,7.6522 C8.0504,7.2892 8.2554,6.9842 8.2554,6.9842 C8.2554,6.9842 8.2264,7.3712 8.3974,7.5152 C8.5354,7.3942 8.6244,7.0862 8.6244,7.0862 C8.6244,7.0862 8.8794,7.5392 9.0374,7.6052 C9.1644,7.3012 9.1644,7.0582 9.1644,7.0582 C9.1644,7.0582 9.6914,7.4332 10.1144,7.2152 C9.7374,7.0782 9.6104,6.7612 9.6104,6.7612 C9.6104,6.7612 10.2934,7.0622 10.5864,6.9292 C10.3024,6.7112 9.6314,6.3862 9.6314,6.3862 C9.6314,6.3862 10.1274,6.5702 10.2714,6.5232 C10.2034,6.4262 9.9854,6.3042 9.9854,6.3042 L7.0664,6.6562 Z" id="Fill-5" fill="#F5CD28"></path>
                                <path d="M7.9482,7.6562 C7.7732,7.3402 7.8102,6.9962 7.8222,6.9142 C7.7862,6.9842 7.5592,7.2302 7.4452,7.5312 C7.2642,7.2032 7.4272,7.0352 7.5342,6.9262 L7.5582,6.9022 C7.5292,6.9142 7.3982,6.9142 7.1192,7.3322 C7.0102,6.9412 7.3452,6.6522 7.3492,6.6482 L7.0662,6.6792 C7.0552,6.6792 7.0502,6.6682 7.0502,6.6562 C7.0502,6.6482 7.0572,6.6362 7.0662,6.6402 L7.3602,6.6482 C7.3692,6.6832 7.0502,6.9572 7.1232,7.3162 C7.3132,6.9802 7.4512,6.8942 7.5252,6.8862 C7.5672,6.8792 7.5872,6.8862 7.5892,6.8902 L7.5592,6.9492 C7.4532,7.0622 7.3042,7.2152 7.4442,7.5152 C7.5472,7.1642 7.8242,6.8862 7.8282,6.8862 C7.8572,6.9062 7.7862,7.2932 7.9482,7.6402 C8.0352,7.2852 8.2402,6.9762 8.2412,6.9722 C8.2722,6.9842 8.2452,7.3672 8.4102,7.5042 C8.5162,7.3862 8.6052,7.0862 8.6052,7.0822 C8.6422,7.0862 8.8942,7.5232 9.0452,7.5902 C9.1442,7.3012 9.1472,7.0622 9.1472,7.0582 C9.1622,7.0512 9.4882,7.2612 9.8182,7.2612 C9.9142,7.2612 10.0142,7.2462 10.1042,7.1992 C9.7272,7.0942 9.5972,6.7852 9.5922,6.7692 C9.6152,6.7582 10.0722,6.9452 10.3912,6.9452 C10.4622,6.9452 10.5292,6.9332 10.5782,6.9142 C10.2952,6.7302 9.6302,6.4062 9.6252,6.4062 C9.6382,6.3792 10.0292,6.5112 10.2102,6.5112 C10.2332,6.5112 10.2522,6.5112 10.2662,6.5082 C10.1912,6.4372 9.9792,6.3242 9.9762,6.3202 C10.0052,6.2972 10.2172,6.4142 10.2862,6.5112 C10.1822,6.5622 9.9342,6.5042 9.7732,6.4532 C9.9902,6.5472 10.3922,6.7582 10.5972,6.9142 C10.3162,7.0702 9.7152,6.8282 9.6152,6.7852 C9.6612,6.8282 9.7992,7.0822 10.1192,7.1952 C9.7172,7.4412 9.2292,7.1252 9.1622,7.0782 C9.1822,7.1132 9.1702,7.3362 9.0552,7.6132 C8.8812,7.5542 8.6512,7.1682 8.6132,7.1052 C8.6222,7.1562 8.5352,7.4182 8.4102,7.5312 C8.2382,7.4022 8.2342,7.0972 8.2362,7.0082 C8.2072,7.0902 8.0482,7.3552 7.9482,7.6562" id="Fill-7" fill="#8E1841"></path>
                                <path d="M11.1738,2.9883 C12.0818,2.9063 13.4838,3.6483 14.2248,4.1443 C14.2248,3.9763 14.2248,3.8123 14.3918,3.7303 C14.5548,3.6483 14.8028,3.8123 14.7218,4.0623 C14.4738,4.6363 13.4838,3.9763 13.1538,3.8123 L13.3188,4.1443 C12.8238,4.0623 12.7418,3.9763 12.4118,3.5663 C12.3288,3.8943 12.3288,3.9763 11.9158,3.9763 C12.0728,3.7303 12.1238,3.6483 11.9158,3.4023 L11.8338,3.8943 L11.4248,3.3203 L11.4248,3.8943 C11.3388,3.8123 11.0098,3.5663 10.8448,3.5663 C10.5978,3.4843 10.4328,3.9763 10.3498,4.2223 C10.5978,3.9763 10.6798,3.8123 11.0928,3.9763 C10.8698,4.1873 10.9358,4.4413 11.1738,4.6363 C11.1738,4.6363 11.2178,4.2933 11.2428,4.2153 C11.3748,4.3123 11.6538,4.6793 11.9988,4.7183 C12.2468,4.7183 12.4938,4.6363 12.7418,4.5543 C13.5658,4.4683 15.3818,4.6363 14.9678,5.8713 C14.8868,6.1213 14.8028,6.2813 14.6368,6.4453 C15.7928,6.8593 14.8028,8.3433 14.5548,9.0823 C14.3918,9.7423 14.5058,10.2653 15.3188,10.1833 C15.1538,10.5113 14.8868,10.5663 14.5548,10.5663 C14.5548,10.5663 14.5988,10.7653 14.8108,10.8593 C14.4568,11.1723 14.9318,11.6483 14.7218,11.8833 C14.3658,12.0543 13.8968,11.8013 13.8968,11.8013 L13.8728,12.0313 C13.8728,12.0313 13.2518,11.9923 13.2378,11.9653 C13.2378,11.9653 13.4128,11.6333 13.4028,11.6253 C13.2378,11.8753 13.0768,12.0193 12.7418,11.9653 C12.7418,11.9653 12.7678,11.8123 12.9518,11.6133 C12.7018,11.8633 12.6738,11.9723 12.4118,11.9653 C12.4118,11.5543 12.6568,11.0623 13.1538,11.2223 C13.2378,11.2223 13.4978,11.4293 13.6188,11.2973 C13.7178,11.1563 13.6568,10.6723 13.6568,10.5113 C13.7098,9.7813 13.5658,9.8243 13.1538,9.4103 C12.8238,9.1643 12.5828,8.7853 12.1708,8.7033 C11.7598,8.6213 11.0928,9.0823 10.7628,9.2463 C9.9388,9.7423 9.1968,10.0703 8.2888,10.2343 C8.2888,10.2343 8.3068,10.1953 8.3068,10.1093 C8.3068,10.0583 9.1968,9.3633 9.3528,8.1443 C9.1098,9.3473 8.2428,9.9803 8.2108,10.2073 C8.1758,10.4253 7.9998,10.8083 7.9788,10.8323 C8.0878,10.7693 8.4298,10.6013 8.8648,10.5663 C8.7708,11.0783 8.2888,10.9763 8.2068,11.2223 C8.2068,11.4723 8.5348,11.8013 8.2068,11.9653 L6.8868,11.9653 C6.8868,11.9653 7.0908,11.6833 7.0998,11.6093 C6.9208,11.7153 6.8088,12.0003 6.4218,11.9683 C6.4368,11.8593 6.6208,11.6953 6.5898,11.6293 C6.3658,11.8363 6.2628,12.0113 5.9798,11.9653 C6.0618,11.7183 6.0618,11.3903 6.3918,11.3903 C6.6388,11.3083 6.8868,11.4723 7.0528,11.2223 C7.3828,10.8123 6.9908,9.9103 6.9098,9.4143 C6.9098,9.0043 6.9098,8.9253 6.8048,8.4253 L6.8868,9.9063 C6.5568,9.6563 6.2268,9.4963 5.9798,9.1643 C5.4028,8.4253 5.5688,7.6013 6.3098,7.1053 C6.6388,6.8593 6.8178,6.7303 7.2308,6.5663 C7.1488,6.3203 7.3478,6.1333 7.0558,6.0583 C6.9668,6.2113 6.8838,6.3793 6.7148,6.3673 L6.8048,5.9533 C6.8048,5.9533 6.5068,5.9723 6.5658,6.5043 C6.2238,6.3403 6.3918,5.9533 6.3918,5.9533 L6.2268,5.9533 C6.2268,5.9533 6.2258,6.4413 5.9568,6.5393 C6.0288,6.3123 6.0618,5.9533 6.0618,5.9533 C6.0618,5.9533 5.6188,6.4803 5.3638,6.3083 C5.5148,6.1363 5.6308,6.1093 5.6108,5.9023 C5.5908,5.6993 5.4838,5.4333 5.4658,5.3903 C5.5588,5.4373 6.1808,5.6213 6.5718,5.4263 C6.5448,5.5583 6.5568,5.7073 6.5568,5.7073 C6.9668,5.6253 7.0528,5.6253 7.4658,5.7853 C7.3828,5.2153 7.0528,5.1253 6.7218,4.7183 L6.7218,5.0473 C6.3918,4.9653 6.3098,4.8833 6.1438,4.5543 L5.8968,4.7183 C5.4618,4.4613 5.1408,3.8513 5.7578,3.8863 C6.1268,3.9333 5.8138,4.2223 5.8138,4.2223 C5.8138,4.2223 6.7588,3.9253 7.1338,3.8943 C7.1338,3.8943 7.0258,3.6643 6.6758,3.6213 C6.9658,3.4063 7.2568,3.3363 7.4658,3.7933 C7.6718,3.8083 7.8638,3.5543 7.7408,3.2343 C8.0478,3.2303 8.1978,3.4223 8.3378,3.6253 C8.4528,3.6443 8.5678,3.5273 8.5408,3.1173 C8.8268,3.3633 8.9708,3.4413 8.9898,3.6483 C9.2368,3.7033 9.4038,3.6483 9.7738,3.4843 C9.6898,3.8123 9.6898,3.8943 9.3598,4.0623 C9.5938,4.3473 9.6188,4.6953 9.5698,4.8203 C9.4868,4.7973 9.4668,4.7893 9.4098,4.7733 C9.4308,4.9023 9.4538,5.2543 9.4448,5.4613 L9.2788,5.4613 L9.5268,6.2033 L9.3598,6.4453 C9.9388,6.2033 10.5168,6.2813 11.0928,6.1213 C11.7528,6.0353 12.4118,5.7853 13.1538,5.7853 C13.6488,5.7853 13.6488,6.0353 14.3088,6.0353 L14.3088,5.6253 C14.3088,5.2973 14.0618,4.9653 13.6488,4.8833 C13.4028,4.8833 12.9878,5.0473 12.7418,5.1253 C12.4118,5.2153 11.9158,5.2153 11.5858,5.2153 C10.5168,5.0473 10.6848,4.9413 10.3138,4.7423 C10.0898,4.8003 9.9638,4.9923 9.8518,5.3283 C9.6448,5.0193 9.6898,4.6363 9.9388,4.4683 C9.6898,3.5663 10.3498,3.1523 11.1738,2.9883" id="Fill-9" fill="#F5CD28"></path>
                                <path d="M11.4248,10.4023 C11.2578,10.1523 10.6798,9.7423 10.8448,9.3283 C11.0928,8.9183 12.4958,8.2573 12.7418,9.1643 C12.8238,9.4103 12.5678,10.0663 12.4858,10.3163 C12.6108,10.2813 12.7508,10.0903 13.1568,10.1603 C13.0808,10.4843 12.5858,10.7343 12.5858,10.7343 C12.6388,10.9533 12.2468,11.9643 12.2468,11.9643 L11.1738,11.9643 L11.3388,11.6363 L11.0928,11.9643 L10.6798,11.9643 L11.0098,11.5543 C11.0098,11.5543 10.6188,12.0113 10.2878,11.9923 C10.3668,11.3323 10.7628,11.2223 11.3388,11.4723 C11.4248,11.1443 11.5858,10.7303 11.4248,10.4023" id="Fill-11" fill="#F5CD28"></path>
                                <path d="M10.9043,11.6719 L10.6943,11.9769 L11.0923,11.9449 L11.3263,11.6249 L11.1903,11.9729 L12.2473,11.9449 C12.2343,11.9449 12.6193,10.9489 12.5683,10.7379 C12.5853,10.7149 13.0683,10.4689 13.1403,10.1559 C13.0923,10.1679 13.0383,10.1599 12.9883,10.1599 C12.8003,10.1599 12.6913,10.2269 12.6043,10.2769 C12.5623,10.3049 12.5283,10.3199 12.4923,10.3359 L12.5093,10.1919 C12.6093,9.9099 12.7953,9.3789 12.7253,9.1719 C12.6243,8.8049 12.3383,8.7309 12.1153,8.7309 C11.6093,8.7309 11.0043,9.1019 10.8603,9.3359 C10.7433,9.6329 11.0203,9.9299 11.2453,10.1639 C11.3253,10.2499 11.3953,10.3279 11.4393,10.3909 C11.5783,10.6759 11.4843,11.0159 11.4003,11.3129 C11.3863,11.3709 11.3703,11.4219 11.3553,11.4729 C11.1473,11.4099 10.9843,11.3709 10.8473,11.3709 C10.5403,11.3709 10.3623,11.5669 10.3073,11.9769 C10.6233,11.9729 10.9933,11.5469 10.9973,11.5429 C11.0003,11.5549 10.9643,11.6099 10.9043,11.6719 M10.3053,12.0119 L10.2863,12.0079 C10.3413,11.3599 10.7103,11.1839 11.3463,11.4569 C11.3363,11.4139 11.3493,11.3599 11.3663,11.3009 C11.4463,11.0119 11.5413,10.6799 11.4083,10.4099 C11.3643,10.3479 11.2963,10.2739 11.2193,10.1919 C10.9893,9.9449 10.7033,9.6409 10.8283,9.3199 C10.9973,9.0429 11.6363,8.6919 12.1153,8.6919 C12.4523,8.6919 12.6753,8.8519 12.7593,9.1599 C12.8333,9.3789 12.6513,9.8949 12.5433,10.2029 L12.5053,10.3169 C12.5173,10.2889 12.5493,10.2699 12.5863,10.2459 C12.6953,10.1839 12.8563,10.0899 13.1613,10.1449 C13.0973,10.4919 12.6153,10.7379 12.5953,10.7499 C12.6553,10.9529 12.2803,11.9259 12.2633,11.9729 L11.1743,11.9809 L11.3253,11.6249 L11.1073,11.9769 L10.6793,11.9809 L10.8913,11.6839 C10.7623,11.8239 10.5253,12.0119 10.3053,12.0119" id="Fill-13" fill="#8E1841"></path>
                                <path d="M7.0048,4.1992 C6.8958,4.2652 6.9848,4.7192 7.1568,4.6442 C7.3688,4.5472 7.0908,4.1482 7.0048,4.1992" id="Fill-15" fill="#F5CD28"></path>
                                <path d="M7.0234,4.2109 C6.9704,4.2379 6.9614,4.3629 6.9944,4.4769 C7.0154,4.5549 7.0594,4.6329 7.1174,4.6329 L7.1174,4.6519 L7.1504,4.6249 C7.2204,4.5939 7.2244,4.5199 7.2114,4.4649 C7.1824,4.3399 7.0704,4.2109 7.0234,4.2109 Z M7.1174,4.6679 C7.0544,4.6679 6.9944,4.6019 6.9594,4.4839 C6.9264,4.3709 6.9294,4.2269 6.9984,4.1839 C7.1084,4.1799 7.2184,4.3279 7.2464,4.4609 C7.2674,4.5549 7.2394,4.6249 7.1654,4.6599 L7.1174,4.6679 Z" id="Fill-17" fill="#8E1841"></path>
                                <path d="M7.1103,4.0586 C7.3153,4.1996 7.6373,4.5816 8.0383,4.5586 C7.7363,4.3126 7.7963,4.1286 7.7963,4.1286 C7.9533,4.3166 8.4803,4.4926 8.6543,4.4176 C8.4523,4.2656 8.4123,4.2496 8.3683,4.1096 C8.6093,4.1366 8.9103,4.1876 9.1493,4.0856 L7.1103,4.0586 Z" id="Fill-19" fill="#F5CD28"></path>
                                <path d="M7.959,4.5547 C7.674,4.5547 7.434,4.3517 7.257,4.1957 C7.199,4.1487 7.148,4.1057 7.102,4.0707 C7.094,4.0627 7.092,4.0547 7.098,4.0467 C7.104,4.0387 7.114,4.0347 7.123,4.0427 C7.168,4.0747 7.221,4.1177 7.279,4.1677 C7.473,4.3357 7.732,4.5587 8.037,4.5427 C7.718,4.3207 7.777,4.1327 7.779,4.1247 C7.963,4.3007 8.477,4.4727 8.647,4.3987 L8.584,4.3867 C8.43,4.2737 8.392,4.2497 8.352,4.1137 L8.439,4.1017 C8.669,4.1287 8.927,4.1637 9.143,4.0707 C8.932,4.1997 8.669,4.1637 8.434,4.1367 L8.366,4.1287 C8.425,4.2267 8.455,4.2497 8.605,4.3597 L8.666,4.4027 C8.482,4.5117 7.966,4.3437 7.794,4.1567 C7.807,4.1957 7.811,4.3477 8.048,4.5467 C8.018,4.5507 7.988,4.5547 7.959,4.5547" id="Fill-21" fill="#8E1841"></path>
                                <path d="M7.5019,6.5703 L7.5249,6.2223 C7.5249,6.2223 7.7519,6.7503 7.9169,6.7573 C7.8119,6.3713 7.8569,6.0663 7.8569,6.0663 L7.5019,6.5703 Z" id="Fill-23" fill="#F5CD28"></path>
                                <path d="M7.9257,6.7539 C7.7377,6.7539 7.5317,6.2809 7.5077,6.2309 L7.5207,6.5699 C7.5207,6.5819 7.5087,6.5819 7.5017,6.5859 C7.4927,6.5819 7.4857,6.5779 7.4857,6.5699 L7.5077,6.2229 C7.6037,6.3589 7.7917,6.7339 7.9187,6.7379 C7.7957,6.3789 7.8367,6.0669 7.8387,6.0629 C7.8727,6.0699 7.8297,6.3749 7.9317,6.7539 L7.9257,6.7539 Z" id="Fill-25" fill="#8E1841"></path>
                                <path d="M8.0293,6.1445 C8.0293,6.1445 8.4803,6.9725 8.7003,6.8395 C8.3683,6.5425 8.4063,6.1645 8.4063,6.1645 C8.4063,6.1645 8.5543,6.6755 9.0013,6.8315 C9.0303,6.5425 8.8253,6.0785 8.8253,6.0785 C8.8253,6.0785 9.1973,6.7265 9.3843,6.7425 C9.5033,6.5895 9.4603,6.4295 9.4603,6.4295 L8.0293,6.1445 Z" id="Fill-27" fill="#F5CD28"></path>
                                <path d="M8.6386,6.8711 C8.6276,6.8711 8.6186,6.8711 8.6056,6.8671 C8.3706,6.8051 8.0296,6.1841 8.0146,6.1561 C8.0096,6.1441 8.0126,6.1371 8.0226,6.1291 C8.0296,6.1291 8.0416,6.1291 8.0456,6.1371 C8.0476,6.1441 8.3916,6.7731 8.6156,6.8321 C8.6456,6.8401 8.6686,6.8361 8.6896,6.8241 C8.3536,6.5551 8.3886,6.1641 8.3886,6.1601 C8.4246,6.1641 8.5776,6.6601 9.0066,6.8121 C9.0116,6.5511 8.8126,6.0901 8.8106,6.0861 L8.8106,6.0901 C8.8186,6.0901 8.8316,6.1051 8.8486,6.1331 C8.9936,6.3281 9.2506,6.7111 9.3836,6.7261 C9.4816,6.5901 9.4436,6.4371 9.4416,6.4341 L9.4436,6.4341 C9.4776,6.4341 9.5216,6.5981 9.3986,6.7541 C9.2436,6.7461 9.0076,6.4061 8.8866,6.2151 C8.9556,6.3711 9.0366,6.6411 9.0196,6.8321 C8.6326,6.7151 8.4566,6.3481 8.4066,6.2151 C8.4266,6.3281 8.4626,6.6051 8.7106,6.8241 C8.6896,6.8591 8.6636,6.8711 8.6386,6.8711" id="Fill-29" fill="#8E1841"></path>
                                <path d="M7.6757,5.5742 L8.0077,5.9962 L8.0587,5.4332 C8.0587,5.4332 8.3827,5.6872 8.4447,5.6792 C8.5027,5.6762 8.3537,5.0782 8.3537,5.0782 C8.3537,5.0782 8.7907,5.7422 8.8187,5.7262 C8.8487,5.7112 8.8637,5.0702 8.8637,5.0702 C8.8637,5.0702 9.1977,5.9802 9.3087,5.9762 C9.4217,5.9652 9.3927,5.8472 9.3927,5.8472 L7.6757,5.5742 Z" id="Fill-31" fill="#F5CD28"></path>
                                <path d="M8.0254,6 L7.6614,5.586 C7.6564,5.578 7.6584,5.57 7.6654,5.563 C7.6714,5.555 7.6834,5.555 7.6904,5.566 L8.0204,5.984 L8.0424,5.43 C8.2264,5.543 8.4064,5.66 8.4414,5.664 C8.4574,5.633 8.4014,5.344 8.3364,5.082 C8.5224,5.305 8.7854,5.688 8.8214,5.711 C8.8234,5.684 8.8394,5.363 8.8464,5.07 C9.0374,5.5 9.2504,5.961 9.3074,5.957 C9.3344,5.953 9.3524,5.945 9.3614,5.93 C9.3844,5.898 9.3744,5.852 9.3744,5.852 C9.4054,5.84 9.4234,5.906 9.3924,5.953 C9.3744,5.977 9.3474,5.988 9.3084,5.992 L9.3074,5.992 C9.1894,5.992 8.9264,5.293 8.8484,5.078 C8.8674,5.723 8.8374,5.738 8.8274,5.742 C8.8104,5.75 8.7854,5.766 8.3374,5.09 C8.4024,5.203 8.5044,5.625 8.4664,5.688 C8.3804,5.707 8.1254,5.508 8.0474,5.445 L8.0254,6 Z" id="Fill-33" fill="#8E1841"></path>
                                <path d="M7.4277,4.8398 C7.4277,4.8398 7.9387,5.3008 7.9917,5.2738 C8.0437,5.2458 7.7817,4.7348 7.7817,4.7348 C7.7817,4.7348 8.0747,5.0118 8.1877,5.0308 C8.2997,5.0548 8.2267,4.6718 8.2267,4.6718 C8.2267,4.6718 8.5737,4.9688 8.6307,4.9488 C8.6937,4.9378 8.6617,4.6718 8.6617,4.6718 C8.6617,4.6718 8.8867,4.8988 8.9037,4.8988 C8.9197,4.8988 8.8557,4.2498 8.8557,4.2498 C8.8557,4.2498 9.3597,4.7848 9.3987,4.7778 L7.4277,4.8398 Z" id="Fill-35" fill="#F5CD28"></path>
                                <path d="M7.9892,5.293 C7.9172,5.293 7.6392,5.055 7.4152,4.852 C7.4092,4.844 7.4062,4.836 7.4152,4.824 C7.4202,4.82 7.4332,4.82 7.4402,4.824 C7.6742,5.039 7.9402,5.258 7.9862,5.258 C7.9952,5.227 7.8812,4.965 7.7662,4.742 C7.8732,4.797 8.1012,5 8.1902,5.016 C8.2492,4.973 8.2282,4.785 8.2072,4.676 C8.3972,4.797 8.5842,4.938 8.6282,4.934 C8.6512,4.926 8.6582,4.805 8.6432,4.676 C8.7762,4.762 8.8902,4.875 8.9082,4.883 C8.8922,4.863 8.8612,4.484 8.8382,4.254 C9.0512,4.434 9.3592,4.746 9.3992,4.762 C9.3922,4.801 9.3542,4.805 8.8432,4.266 C8.9312,4.891 8.9212,4.902 8.9162,4.91 C8.8922,4.918 8.8802,4.918 8.6472,4.684 C8.6892,4.754 8.7022,4.949 8.6362,4.969 C8.5772,4.988 8.3102,4.77 8.2212,4.691 C8.2562,4.734 8.2962,4.973 8.2362,5.035 C8.2322,5.039 8.1892,5.051 8.1832,5.051 C8.0652,5.027 7.7812,4.758 7.7702,4.746 C7.9762,5.074 8.0462,5.266 8.0002,5.289 C7.9972,5.293 7.9952,5.293 7.9892,5.293" id="Fill-37" fill="#8E1841"></path>
                                <path d="M5.3798,5.0039 C5.4038,5.0429 5.4868,5.7069 6.5178,5.4379 C6.6158,5.3829 6.5728,5.6209 6.5668,5.6909 C6.6138,5.6839 7.1058,5.5079 7.4438,5.7579 C7.4038,5.4809 7.3298,5.2969 7.0378,5.1369 C6.8918,5.1089 6.7888,5.1799 6.7888,5.1799 C6.7888,5.1799 5.5458,5.1909 5.3798,5.0039" id="Fill-39" fill="#F5CD28"></path>
                                <path d="M7.4443,5.7773 C7.4403,5.7773 7.4363,5.7733 7.4333,5.7733 C7.3173,5.6873 7.1673,5.6443 6.9913,5.6443 C6.8193,5.6443 6.6673,5.6833 6.6033,5.7033 C6.5983,5.7033 6.5763,5.7073 6.5733,5.6993 C6.5673,5.6953 6.5503,5.6953 6.5503,5.6873 L6.5543,5.6483 C6.5603,5.5903 6.5733,5.4723 6.5503,5.4493 C6.3593,5.4963 6.2083,5.5193 6.0733,5.5193 C5.7033,5.5193 5.4663,5.3553 5.3733,5.0313 C5.3713,5.0273 5.3693,5.0233 5.3693,5.0193 C5.5443,5.4413 5.9133,5.5743 6.5133,5.4183 L6.5763,5.4253 C6.6073,5.4613 6.6003,5.5503 6.5893,5.6483 L6.5883,5.6913 C6.6613,5.6483 6.8143,5.6053 6.9913,5.6053 C7.1593,5.6053 7.3023,5.6443 7.4193,5.7183 C7.3803,5.4683 7.2963,5.3003 7.0303,5.1563 C7.0123,5.1523 6.9893,5.1483 6.9663,5.1483 C6.8693,5.1483 6.7993,5.1953 6.7993,5.1953 C6.4733,5.1993 5.5223,5.1873 5.3693,5.0153 C5.3693,5.0113 5.3713,5.0043 5.3753,5.0003 C5.3813,4.9963 5.3893,4.9843 5.3943,4.9923 C5.5073,5.1213 6.2003,5.1643 6.7583,5.1643 C6.7733,5.1643 6.8543,5.1133 6.9663,5.1133 C6.9913,5.1133 7.0153,5.1173 7.0413,5.1213 C7.3423,5.2813 7.4203,5.4683 7.4623,5.7543 C7.4623,5.7613 7.4603,5.7693 7.4533,5.7733 C7.4513,5.7733 7.4473,5.7773 7.4443,5.7773" id="Fill-41" fill="#8E1841"></path>
                                <path d="M4.8203,9.2383 C4.8013,9.3163 4.7503,9.3363 4.5953,9.5583 C4.6633,9.6563 4.9763,9.8043 5.0633,9.7223 C5.1383,9.6833 5.1443,9.4763 5.1443,9.4763 C5.3103,9.7223 5.6013,10.1133 5.9313,10.1993 C6.1773,10.2773 6.4253,10.1133 6.4253,9.8673 C6.4253,9.6173 6.0523,9.2223 5.8883,9.0583 C5.4743,8.5623 5.5123,7.6293 4.7313,7.7583 C4.7293,7.7653 4.6973,7.8753 4.6233,7.8943 C4.6853,8.0113 4.7203,8.1133 4.5713,8.1523 C4.6873,8.2653 4.7043,8.3473 4.5543,8.4063 C4.6453,8.5273 4.7533,8.5743 4.5443,8.6763 C4.7613,8.8903 4.8073,9.2033 4.8203,9.2383" id="Fill-43" fill="#F5CD28"></path>
                                <path d="M5.1289,9.4766 C5.4409,9.8826 5.6929,10.1176 5.9369,10.1796 C6.1739,10.2616 6.4069,10.0936 6.4069,9.8676 C6.4069,9.6246 6.0349,9.2266 5.8759,9.0706 C5.7349,8.9026 5.6469,8.6876 5.5629,8.4766 C5.3969,8.0706 5.2399,7.6916 4.7349,7.7776 C4.7169,7.8476 4.6759,7.8946 4.6259,7.9106 C4.6739,7.9536 4.7109,8.0316 4.6859,8.0936 C4.6689,8.1286 4.6339,8.1526 4.5739,8.1716 C4.6579,8.2106 4.6879,8.2696 4.6779,8.3206 C4.6689,8.3636 4.6319,8.3946 4.5619,8.4216 C4.5849,8.4176 4.6029,8.4376 4.6189,8.4536 C4.6579,8.4996 4.6899,8.5356 4.6819,8.5786 C4.6729,8.6176 4.6349,8.6486 4.5509,8.6916 C4.7529,8.8516 4.8119,9.1246 4.8309,9.2106 C4.8249,9.2896 4.8019,9.3206 4.7579,9.3716 C4.7249,9.4146 4.6759,9.4766 4.6089,9.5706 C4.6739,9.6326 4.9859,9.7696 5.0509,9.7106 C5.1109,9.6796 5.1269,9.5316 5.1289,9.4766 M6.0619,10.2346 C6.0149,10.2346 5.9709,10.2306 5.9259,10.2106 C5.6799,10.1526 5.4229,9.9176 5.1449,9.5036 C5.1589,9.5546 5.1429,9.7036 5.0719,9.7386 C5.0559,9.7576 5.0269,9.7616 4.9889,9.7616 C4.8599,9.7616 4.6389,9.6526 4.5799,9.5706 C4.6469,9.4536 4.6949,9.3946 4.7309,9.3516 C4.7739,9.2966 4.7939,9.2776 4.8019,9.2346 C4.7769,9.1366 4.7209,8.8746 4.5319,8.6876 C4.6049,8.6246 4.6409,8.5976 4.6459,8.5706 C4.6499,8.5466 4.6239,8.5156 4.5899,8.4766 C4.5739,8.4566 4.5589,8.4416 4.5399,8.4146 C4.6049,8.3676 4.6369,8.3436 4.6439,8.3126 C4.6499,8.2776 4.6229,8.2266 4.5589,8.1646 C4.6109,8.1216 4.6409,8.1016 4.6499,8.0786 C4.6709,8.0396 4.6469,7.9766 4.6059,7.8986 C4.6559,7.8636 4.6879,7.8246 4.7129,7.7576 C4.7809,7.7346 4.8269,7.7306 4.8719,7.7306 C5.2949,7.7306 5.4399,8.0856 5.5939,8.4646 C5.6799,8.6716 5.7659,8.8826 5.8999,9.0466 C6.0629,9.2066 6.4429,9.6136 6.4429,9.8676 C6.4429,10.0746 6.2749,10.2346 6.0619,10.2346" id="Fill-45" fill="#8E1841"></path>
                                <path d="M4.6172,2.2578 C4.3672,2.6168 4.3422,6.5698 4.4222,7.3628 C4.1712,7.5278 3.7092,7.4608 3.5812,7.4098 C3.6412,7.1248 3.8552,2.5428 4.6172,2.2578" id="Fill-47" fill="#F5CD28"></path>
                                <path d="M4.6025,2.25 C4.0105,2.5 3.7485,5.68 3.6495,6.879 C3.6255,7.168 3.6095,7.359 3.5985,7.414 C3.6575,7.418 3.8195,7.449 3.9845,7.449 C4.1105,7.449 4.2855,7.434 4.4105,7.352 C4.3325,6.648 4.3445,2.621 4.6025,2.25 M3.9845,7.484 C3.8145,7.484 3.6495,7.453 3.5745,7.426 C3.5745,7.355 3.5915,7.152 3.6135,6.879 C3.7235,5.559 3.9775,2.477 4.6095,2.242 C4.3885,2.621 4.3555,6.523 4.4365,7.363 C4.2975,7.465 4.1145,7.484 3.9845,7.484" id="Fill-49" fill="#8E1841"></path>
                                <path d="M3.915,10.3594 C3.915,10.3594 2.82,10.5114 3.281,9.8634 C3.676,9.6914 3.666,10.0934 3.521,10.2304 C3.701,10.2504 3.819,10.1364 3.847,9.9574 C3.624,9.6564 3.941,9.4614 3.924,9.4614 C3.162,9.6324 3.061,9.1094 3.34,9.0274 C3.699,9.0474 3.585,9.1604 3.728,9.2654 C3.982,9.0274 4.138,9.0044 4.291,9.2464 C4.446,9.0074 4.667,9.0354 4.676,9.0584 C4.924,9.4804 4.376,9.5044 4.155,9.4534 C4.343,9.6564 4.266,9.8554 4.205,10.0004 C4.212,10.1444 4.32,10.1644 4.496,10.2224 C4.119,9.1834 5.822,10.5004 4.11,10.3674 C4.114,10.4144 4.118,10.4614 4.119,10.5044 C4.26,10.5314 4.357,10.5624 4.403,10.7114 C4.343,10.7894 4.25,10.8004 4.104,10.7464 C4.104,10.7464 4.189,10.9844 4.033,11.0504 C3.906,10.9724 3.89,10.7894 3.89,10.7894 C3.817,10.8754 3.713,10.8164 3.624,10.7464 C3.704,10.5464 3.929,10.6404 3.915,10.3594" id="Fill-51" fill="#F5CD28"></path>
                                <path d="M2.9746,7.1953 C3.0406,6.8983 3.7286,6.9333 3.4006,7.2543 C3.6216,7.6053 4.2946,7.5543 4.5466,7.3553 C4.3336,6.9493 4.9136,7.0393 4.8896,7.3473 C4.8186,7.8983 2.8996,7.8243 2.9746,7.1953" id="Fill-53" fill="#F5CD28"></path>
                                <path d="M15.6191,12.4453 C15.8241,12.8323 16.1891,13.7383 16.3901,13.9573 C16.5831,14.1253 17.0531,14.1053 17.1971,13.9143 C17.1971,13.9143 17.5001,14.2263 17.6221,14.3203 C17.6941,14.2933 17.7381,14.2263 17.7381,14.2263 C17.6161,14.0933 17.4491,14.0153 17.3661,13.7693 C17.4871,13.6053 17.5581,13.2853 17.4731,13.0393 C17.1141,12.4333 15.9141,12.6723 15.6191,12.4453" id="Fill-55" fill="#F5CD28"></path>
                                <path d="M17.1836,13.9023 C17.2116,13.9063 17.4996,14.2033 17.6246,14.3003 C17.6876,14.2733 17.7236,14.2143 17.7236,14.2143 C17.6906,14.2033 17.6546,14.1683 17.6166,14.1363 C17.5146,14.0473 17.4106,13.9573 17.3496,13.7773 C17.4676,13.6053 17.5416,13.2933 17.4586,13.0433 C17.2396,12.6793 16.6826,12.6293 16.2376,12.5903 C15.9596,12.5663 15.7206,12.5473 15.6086,12.4573 C15.7076,12.5703 15.7986,12.7653 15.8926,12.9723 C16.0706,13.3633 16.2736,13.8043 16.4036,13.9453 C16.5746,14.0933 17.0546,14.0703 17.1836,13.9023 Z M17.6206,14.3433 L17.6116,14.3363 C17.4896,14.2423 17.1976,13.9413 17.1846,13.9293 C17.0946,14.1093 16.5666,14.1403 16.3786,13.9683 C16.2446,13.8243 16.0406,13.3823 15.8606,12.9883 C15.7636,12.7813 15.6746,12.5823 15.6046,12.4533 C15.7346,12.5113 15.9686,12.5313 16.2386,12.5543 C16.6956,12.5933 17.2596,12.6443 17.4896,13.0313 C17.5786,13.2933 17.5016,13.6173 17.3806,13.7813 C17.4426,13.9373 17.5416,14.0233 17.6396,14.1093 C17.6796,14.1403 17.7176,14.1753 17.7536,14.2143 C17.7536,14.2423 17.7046,14.3123 17.6266,14.3393 L17.6206,14.3433 Z" id="Fill-57" fill="#8E1841"></path>
                                <path d="M2.7373,1.9492 C2.5333,1.5662 2.1673,0.6522 1.9643,0.4332 C1.7763,0.2652 1.3033,0.2852 1.1583,0.4762 C1.1583,0.4762 0.8553,0.1682 0.7353,0.0742 C0.6623,0.0972 0.6173,0.1682 0.6173,0.1682 C0.7413,0.2972 0.9083,0.3752 0.9903,0.6252 C0.8673,0.7892 0.8003,1.1052 0.8803,1.3552 C1.2443,1.9572 2.4433,1.7192 2.7373,1.9492" id="Fill-59" fill="#F5CD28"></path>
                                <path d="M0.7246,0.0859 C0.6746,0.1129 0.6316,0.1759 0.6316,0.1799 C0.6636,0.1919 0.7036,0.2269 0.7416,0.2579 C0.8426,0.3439 0.9456,0.4339 1.0076,0.6169 C0.8886,0.7889 0.8176,1.0979 0.8996,1.3479 C1.1196,1.7149 1.6756,1.7659 2.1206,1.8009 C2.3576,1.8199 2.5666,1.8439 2.6936,1.9019 C2.6266,1.7699 2.5466,1.5979 2.4626,1.4179 C2.2846,1.0269 2.0826,0.5859 1.9516,0.4449 C1.7846,0.2969 1.2996,0.3239 1.1716,0.4879 C1.1436,0.4879 0.8436,0.1799 0.7246,0.0859 Z M2.7266,1.9609 C2.6206,1.8829 2.3886,1.8599 2.1176,1.8399 C1.6636,1.7969 1.0966,1.7459 0.8676,1.3629 C0.7806,1.0979 0.8556,0.7769 0.9756,0.6129 C0.9166,0.4569 0.8156,0.3669 0.7166,0.2849 C0.6786,0.2499 0.6386,0.2189 0.6056,0.1799 C0.6056,0.1519 0.6516,0.0819 0.7306,0.0549 C0.8676,0.1519 1.1596,0.4529 1.1716,0.4649 C1.2626,0.2849 1.7926,0.2579 1.9786,0.4219 C2.1126,0.5669 2.3166,1.0119 2.4956,1.4019 C2.5916,1.6099 2.6826,1.8089 2.7536,1.9419 L2.7266,1.9609 Z" id="Fill-61" fill="#8E1841"></path>
                                <path d="M2.6162,12.3828 C2.2312,12.5898 1.3202,12.9568 1.1022,13.1558 C0.9322,13.3478 0.9532,13.8198 1.1452,13.9648 C1.1452,13.9648 0.8332,14.2658 0.7392,14.3908 C0.7632,14.4608 0.8332,14.5078 0.8332,14.5078 C0.9672,14.3828 1.0422,14.2148 1.2902,14.1328 C1.4562,14.2538 1.7732,14.3238 2.0202,14.2418 C2.6252,13.8828 2.3862,12.6798 2.6162,12.3828" id="Fill-63" fill="#F5CD28"></path>
                                <path d="M2.6025,12.375 C2.4925,12.473 2.2925,12.562 2.0835,12.66 C1.6945,12.836 1.2535,13.039 1.1155,13.172 C1.0335,13.262 0.9925,13.437 1.0075,13.613 C1.0225,13.766 1.0775,13.891 1.1565,13.953 C1.1545,13.98 0.8455,14.281 0.7525,14.398 C0.7725,14.438 0.8115,14.469 0.8325,14.484 C0.8655,14.449 0.8955,14.418 0.9235,14.383 C1.0135,14.281 1.1005,14.176 1.2855,14.113 C1.4765,14.246 1.7975,14.297 2.0155,14.223 C2.3825,14.004 2.4295,13.449 2.4685,13.004 C2.4925,12.727 2.5125,12.488 2.6025,12.375 Z M0.8345,14.527 L0.8245,14.52 C0.8205,14.52 0.7485,14.473 0.7225,14.395 C0.8185,14.254 1.1215,13.965 1.1325,13.953 C1.0465,13.914 0.9885,13.781 0.9715,13.617 C0.9555,13.43 0.9985,13.246 1.0875,13.145 C1.2345,13.012 1.6765,12.805 2.0665,12.629 C2.2785,12.531 2.4755,12.441 2.6075,12.371 C2.5485,12.504 2.5275,12.734 2.5035,13.008 C2.4645,13.461 2.4175,14.027 2.0295,14.254 C1.9535,14.281 1.8715,14.293 1.7825,14.293 C1.5965,14.293 1.4005,14.238 1.2795,14.145 C1.1235,14.207 1.0365,14.309 0.9535,14.406 C0.9175,14.445 0.8825,14.484 0.8455,14.52 L0.8345,14.527 Z" id="Fill-65" fill="#8E1841"></path>
                                <path d="M15.6513,1.9492 C15.8563,1.5662 16.2223,0.6522 16.4233,0.4332 C16.6123,0.2652 17.0853,0.2852 17.2303,0.4762 C17.2303,0.4762 17.5333,0.1682 17.6543,0.0742 C17.7263,0.0972 17.7723,0.1682 17.7723,0.1682 C17.6493,0.2972 17.4783,0.3752 17.3983,0.6252 C17.5203,0.7892 17.5883,1.1052 17.5053,1.3552 C17.1453,1.9572 15.9453,1.7192 15.6513,1.9492" id="Fill-67" fill="#F5CD28"></path>
                                <path d="M16.8047,0.3359 C16.6507,0.3359 16.5127,0.3789 16.4367,0.4489 C16.3057,0.5859 16.1047,1.0269 15.9247,1.4179 C15.8397,1.5979 15.7617,1.7699 15.6977,1.8989 C15.8247,1.8439 16.0337,1.8199 16.2677,1.8009 C16.7157,1.7619 17.2707,1.7149 17.4917,1.3439 C17.5747,1.0979 17.4997,0.7889 17.3847,0.6369 C17.4427,0.4339 17.5477,0.3439 17.6477,0.2579 C17.6857,0.2269 17.7217,0.1949 17.7537,0.1559 C17.7417,0.1559 17.7027,0.1059 17.6497,0.0859 C17.5457,0.1799 17.2457,0.4879 17.2427,0.4879 C17.1457,0.3979 16.9837,0.3359 16.8047,0.3359 M15.6617,1.9609 L15.6337,1.9419 C15.7077,1.8089 15.7987,1.6099 15.8927,1.4019 C16.0747,1.0119 16.2777,0.5669 16.4107,0.4259 C16.5997,0.2579 17.1037,0.2809 17.2447,0.4649 C17.2347,0.4449 17.5227,0.1519 17.6437,0.0589 C17.7387,0.0819 17.7847,0.1519 17.7867,0.1559 C17.7487,0.2189 17.7087,0.2499 17.6727,0.2849 C17.5747,0.3669 17.4717,0.4569 17.4147,0.6289 C17.5347,0.7769 17.6117,1.1019 17.5237,1.3599 C17.2897,1.7459 16.7267,1.7969 16.2717,1.8399 C16.0007,1.8599 15.7677,1.8789 15.6617,1.9609" id="Fill-69" fill="#8E1841"></path>
                                <path d="M3.2832,7.8711 C3.2662,7.9921 3.5662,8.0511 3.8742,8.0511 C4.1782,8.0551 4.4922,8.0001 4.5072,7.9141 C4.5092,7.7581 4.2392,7.8941 3.9292,7.8911 C3.6222,7.8911 3.3632,7.7661 3.2832,7.8711" id="Fill-71" fill="#F5CD28"></path>
                                <path d="M3.4004,7.8437 C3.3494,7.8437 3.3154,7.8557 3.2954,7.8827 C3.2994,7.8907 3.3024,7.9027 3.3174,7.9177 C3.3774,7.9887 3.5894,8.0307 3.8744,8.0347 L3.8854,8.0507 L3.8854,8.0347 C4.2354,8.0347 4.4794,7.9687 4.4884,7.9137 C4.4904,7.8947 4.4844,7.8867 4.4774,7.8747 C4.4514,7.8477 4.3604,7.8557 4.2464,7.8787 C4.1554,7.8947 4.0494,7.9057 3.9394,7.9057 C3.8074,7.9057 3.6934,7.8907 3.5954,7.8707 C3.5204,7.8557 3.4544,7.8437 3.4004,7.8437 M3.8854,8.0707 L3.8744,8.0707 C3.7614,8.0707 3.3894,8.0587 3.2904,7.9457 C3.2704,7.9217 3.2614,7.8947 3.2654,7.8667 C3.3214,7.7927 3.4334,7.8087 3.6004,7.8357 C3.6994,7.8517 3.8114,7.8707 3.9294,7.8747 C4.0454,7.8747 4.1514,7.8557 4.2414,7.8437 C4.3724,7.8207 4.4654,7.8127 4.5024,7.8477 C4.5194,7.8667 4.5264,7.8907 4.5244,7.9177 C4.5044,8.0387 4.0994,8.0707 3.8854,8.0707" id="Fill-73" fill="#F5CD28"></path>
                                <path d="M3.3066,8.2187 C3.3126,8.3357 3.6076,8.3637 3.8706,8.3707 C4.1326,8.3787 4.3976,8.3277 4.4466,8.2417 C4.3996,8.1097 4.1086,8.2187 3.8706,8.2267 C3.6326,8.2347 3.3686,8.1097 3.3066,8.2187" id="Fill-75" fill="#F5CD28"></path>
                                <path d="M3.415,8.1914 C3.367,8.1914 3.337,8.1994 3.323,8.2264 C3.328,8.2964 3.512,8.3434 3.872,8.3514 L3.924,8.3554 C4.17,8.3554 4.393,8.3004 4.432,8.2344 C4.405,8.1954 4.272,8.1914 4.107,8.2144 C4.029,8.2304 3.946,8.2424 3.87,8.2464 C3.779,8.2574 3.674,8.2304 3.592,8.2144 C3.526,8.1994 3.465,8.1914 3.415,8.1914 M3.924,8.3904 L3.87,8.3904 C3.602,8.3784 3.294,8.3514 3.289,8.2184 C3.319,8.1604 3.377,8.1564 3.415,8.1564 C3.467,8.1564 3.529,8.1684 3.599,8.1754 C3.68,8.1954 3.768,8.2074 3.852,8.2074 C3.944,8.2034 4.025,8.1954 4.102,8.1834 C4.177,8.1714 4.25,8.1604 4.309,8.1604 C4.363,8.1604 4.438,8.1684 4.464,8.2384 C4.407,8.3474 4.145,8.3904 3.924,8.3904" id="Fill-77" fill="#F5CD28"></path>
                                <path d="M3.3916,8.5312 C3.3706,8.6172 3.6326,8.6792 3.8736,8.6832 C4.1146,8.6832 4.4566,8.5932 4.4586,8.4962 C4.4446,8.4222 4.1076,8.5232 3.8806,8.5312 C3.6546,8.5392 3.3916,8.4492 3.3916,8.5312" id="Fill-79" fill="#F5CD28"></path>
                                <path d="M3.4599,8.5117 C3.4259,8.5117 3.4099,8.5157 3.4099,8.5317 C3.4619,8.6167 3.6659,8.6637 3.8759,8.6637 L3.8809,8.6837 L3.8809,8.6637 C4.1249,8.6637 4.4389,8.5707 4.4399,8.4957 C4.4389,8.4917 4.3149,8.4917 4.1659,8.5157 C4.0709,8.5277 3.9689,8.5467 3.8809,8.5467 C3.7559,8.5467 3.6809,8.5387 3.6059,8.5277 C3.5479,8.5197 3.4969,8.5117 3.4599,8.5117 M3.8809,8.6987 L3.8739,8.6987 C3.6849,8.6987 3.4489,8.6567 3.3889,8.5817 C3.3769,8.5627 3.3709,8.5467 3.3749,8.5277 C3.3749,8.4767 3.4389,8.4767 3.4599,8.4767 C3.4989,8.4767 3.5509,8.4847 3.6089,8.4917 C3.6849,8.5037 3.7679,8.5117 3.8509,8.5117 C3.9669,8.5117 4.0669,8.4957 4.1599,8.4767 C4.2499,8.4647 4.3299,8.4497 4.3849,8.4497 C4.4079,8.4497 4.4699,8.4497 4.4759,8.4957 C4.4739,8.6137 4.1119,8.6987 3.8809,8.6987" id="Fill-81" fill="#F5CD28"></path>
                                <path d="M3.3632,8.8516 C3.3832,8.9376 3.6802,8.9646 3.9412,8.9456 C4.2042,8.9256 4.4692,8.8476 4.4902,8.7496 C4.4772,8.6916 4.1782,8.7966 3.9292,8.8086 C3.6822,8.8246 3.3602,8.7776 3.3632,8.8516" id="Fill-83" fill="#F5CD28"></path>
                                <path d="M3.5439,8.8242 C3.4489,8.8242 3.3939,8.8322 3.3809,8.8472 C3.3919,8.8902 3.5329,8.9332 3.7859,8.9332 C3.8379,8.9332 3.8899,8.9292 3.9419,8.9262 C4.2099,8.9062 4.4549,8.8242 4.4739,8.7502 C4.4029,8.7502 4.3349,8.7652 4.2569,8.7772 C4.1559,8.8012 4.0369,8.8202 3.9299,8.8242 C3.8949,8.8282 3.8559,8.8282 3.8169,8.8282 L3.5439,8.8242 Z M3.7859,8.9692 C3.6889,8.9692 3.3709,8.9572 3.3479,8.8512 C3.3769,8.8012 3.4319,8.7892 3.5439,8.7892 L3.8169,8.7932 C3.8559,8.7932 3.8929,8.7932 3.9289,8.7892 C4.0349,8.7852 4.1509,8.7652 4.2499,8.7462 C4.3319,8.7302 4.4009,8.7152 4.4459,8.7152 C4.4589,8.7152 4.5009,8.7152 4.5089,8.7502 C4.4809,8.8632 4.1979,8.9452 3.9429,8.9612 C3.8919,8.9652 3.8379,8.9692 3.7859,8.9692 Z" id="Fill-85" fill="#F5CD28"></path>
                            </g>
                        </g>
                    </g>
                </g>
            </g>
        </g>
    </g>
</svg>