<?xml version="1.0" encoding="UTF-8"?>
<svg width="34px" height="20px" viewBox="0 0 34 20" version="1.1" xmlns="http://www.w3.org/2000/svg" xmlns:xlink="http://www.w3.org/1999/xlink">
    <!-- Generator: Sketch 50.2 (55047) - http://www.bohemiancoding.com/sketch -->
    <title>Page 1</title>
    <desc>Created with Sketch.</desc>
    <defs></defs>
    <g id="New-Section" stroke="none" stroke-width="1" fill="none" fill-rule="evenodd">
        <g id="Search-Rates---Main" transform="translate(-941.000000, -692.000000)">
            <g id="Group-7" transform="translate(207.000000, 458.000000)">
                <g id="Group-5" transform="translate(706.000000, 166.000000)">
                    <g id="Group" transform="translate(28.000000, 68.000000)">
                        <g id="Page-1">
                            <polygon id="Fill-1" fill="#FFFFFF" points="0 19.5781 33.563 19.5781 33.563 0.0001 0 0.0001"></polygon>
                            <polygon id="Fill-2" fill="#F0953E" points="0 6.5271 33.563 6.5271 33.563 0.0001 0 0.0001"></polygon>
                            <polygon id="Fill-3" fill="#3B8916" points="0 19.5781 33.563 19.5781 33.563 13.0551 0 13.0551"></polygon>
                            <g id="Group-10" transform="translate(13.000000, 6.578100)">
                                <path d="M3.7793,0.5625 L3.7053,2.0395 L3.7853,2.8785 L3.8593,2.0395 L3.7853,0.5625 C3.8633,0.5625 3.9373,0.5665 4.0113,0.5745 C4.0113,0.5785 4.0083,0.5785 4.0083,0.5825 C4.0083,0.6525 4.0623,0.7105 4.1293,0.7105 C4.1913,0.7105 4.2423,0.6605 4.2483,0.6015 C4.3223,0.6175 4.3923,0.6285 4.4653,0.6525 L4.0113,2.0585 L3.8673,2.8905 L4.1603,2.0935 L4.4723,0.6525 C4.5433,0.6755 4.6133,0.6955 4.6833,0.7225 C4.6793,0.7345 4.6743,0.7495 4.6743,0.7655 C4.6743,0.8325 4.7283,0.8865 4.7973,0.8865 C4.8433,0.8865 4.8903,0.8555 4.9083,0.8125 C4.9743,0.8435 5.0393,0.8785 5.1053,0.9175 L4.3023,2.1525 L3.9473,2.9255 L4.4373,2.2345 L5.1113,0.9215 C5.1723,0.9575 5.2343,0.9965 5.2973,1.0355 C5.2793,1.0585 5.2693,1.0825 5.2693,1.1135 C5.2693,1.1795 5.3243,1.2345 5.3923,1.2345 C5.4313,1.2345 5.4663,1.2185 5.4883,1.1835 C5.5473,1.2345 5.6013,1.2855 5.6523,1.3355 L4.5583,2.3245 L4.0173,2.9765 L4.6683,2.4375 L5.6583,1.3395 C5.7093,1.3945 5.7593,1.4455 5.8063,1.5035 C5.7773,1.5275 5.7633,1.5625 5.7633,1.5975 C5.7633,1.6645 5.8183,1.7185 5.8833,1.7185 C5.9123,1.7185 5.9333,1.7105 5.9553,1.6955 C6.0003,1.7575 6.0393,1.8205 6.0743,1.8825 L4.7613,2.5545 L4.0703,3.0465 L4.8383,2.6955 L6.0783,1.8865 C6.1193,1.9575 6.1523,2.0315 6.1853,2.0935 C6.1443,2.1135 6.1113,2.1605 6.1113,2.2105 C6.1113,2.2775 6.1663,2.3325 6.2303,2.3325 C6.2503,2.3325 6.2633,2.3285 6.2773,2.3205 C6.3003,2.3905 6.3223,2.4575 6.3403,2.5275 L4.8963,2.8325 L4.1053,3.1255 L4.9373,2.9845 L6.3433,2.5355 C6.3613,2.5975 6.3793,2.6755 6.3923,2.7465 C6.3323,2.7535 6.2873,2.8005 6.2873,2.8675 C6.2873,2.9335 6.3433,2.9885 6.4103,2.9885 L6.4223,2.9885 C6.4293,3.0585 6.4293,3.1365 6.4293,3.2075 L4.9573,3.1365 L4.1133,3.2105 L4.9573,3.2925 L6.4293,3.2145 C6.4293,3.2925 6.4293,3.3675 6.4223,3.4375 L6.4103,3.4375 C6.3433,3.4375 6.2873,3.4965 6.2873,3.5585 C6.2873,3.6215 6.3323,3.6675 6.3903,3.6795 C6.3773,3.7535 6.3613,3.8245 6.3433,3.8945 L5.8423,3.7345 L4.9373,3.4415 L4.1053,3.3005 L4.1093,3.3005 L4.1053,3.3005 L4.8963,3.5935 L6.3403,3.9025 C6.3223,3.9725 6.3003,4.0465 6.2733,4.1095 C6.2693,4.1095 6.2613,4.1055 6.2583,4.1055 L6.2303,4.1055 C6.1623,4.1055 6.1073,4.1565 6.1073,4.2265 C6.1073,4.2465 6.1113,4.2575 6.1193,4.2735 C6.1253,4.2925 6.1363,4.3085 6.1523,4.3205 C6.1563,4.3205 6.1583,4.3245 6.1623,4.3245 C6.1663,4.3285 6.1703,4.3325 6.1743,4.3325 C6.1753,4.3325 6.1793,4.3355 6.1813,4.3395 C6.1503,4.4065 6.1153,4.4725 6.0783,4.5355 L4.8403,3.7345 L4.8383,3.7345 L4.0703,3.3825 L4.0743,3.3825 L4.4763,3.6645 L4.7613,3.8675 L6.0743,4.5395 C6.0353,4.6055 5.9963,4.6715 5.9533,4.7305 C5.9333,4.7185 5.9083,4.7105 5.8833,4.7105 C5.8143,4.7105 5.7613,4.7615 5.7613,4.8285 C5.7613,4.8675 5.7773,4.9025 5.8063,4.9215 C5.7583,4.9765 5.7093,5.0315 5.6583,5.0825 L4.6683,3.9885 L4.0193,3.4495 L4.5583,4.1015 L5.6523,5.0895 C5.6013,5.1445 5.5503,5.1875 5.4943,5.2345 C5.4703,5.2145 5.4453,5.2075 5.4183,5.2075 C5.3513,5.2075 5.2973,5.2655 5.2973,5.3285 C5.2973,5.3515 5.3003,5.3675 5.3063,5.3825 C5.2423,5.4215 5.1753,5.4645 5.1113,5.5075 L4.4373,4.1955 L3.9473,3.5005 L4.3003,4.2695 L5.1033,5.5115 C5.0393,5.5465 4.9743,5.5825 4.9083,5.6135 C4.8903,5.5665 4.8473,5.5395 4.7993,5.5395 C4.7303,5.5395 4.6753,5.5975 4.6753,5.6605 C4.6753,5.6755 4.6793,5.6915 4.6833,5.7075 C4.6133,5.7305 4.5453,5.7535 4.4723,5.7695 L4.1603,4.3245 L3.8673,3.5395 L3.8673,3.5355 L4.0113,4.3675 L4.4653,5.7735 C4.3923,5.7925 4.3203,5.8125 4.2483,5.8205 C4.2383,5.7655 4.1873,5.7185 4.1293,5.7185 C4.0583,5.7185 4.0083,5.7735 4.0083,5.8355 L4.0083,5.8515 C3.9333,5.8595 3.8593,5.8635 3.7853,5.8635 L3.8593,4.3905 L3.7813,3.5465 L3.7053,4.3905 L3.7793,5.8635 C3.7013,5.8635 3.6293,5.8595 3.5523,5.8515 L3.5523,5.8355 C3.5523,5.7735 3.4983,5.7185 3.4293,5.7185 C3.3713,5.7185 3.3203,5.7655 3.3103,5.8205 C3.2383,5.8085 3.1683,5.7925 3.0993,5.7735 L3.5523,4.3675 L3.6933,3.5395 L3.4003,4.3245 L3.0923,5.7695 C3.0213,5.7535 2.9513,5.7305 2.8793,5.7075 C2.8843,5.6915 2.8883,5.6755 2.8883,5.6605 C2.8883,5.5975 2.8343,5.5395 2.7693,5.5395 C2.7183,5.5395 2.6753,5.5705 2.6543,5.6135 C2.5903,5.5825 2.5233,5.5465 2.4593,5.5115 L3.2613,4.2695 L3.6133,3.5005 L3.1253,4.1915 L2.4533,5.5075 C2.3883,5.4645 2.3243,5.4255 2.2633,5.3825 C2.2773,5.3675 2.2873,5.3435 2.2873,5.3165 C2.2873,5.2465 2.2323,5.1915 2.1683,5.1915 C2.1273,5.1915 2.0933,5.2105 2.0743,5.2385 C2.0153,5.1875 1.9613,5.1445 1.9103,5.0895 L3.0083,4.1015 L3.5473,3.4495 L2.8963,3.9885 L1.9063,5.0825 C1.8513,5.0315 1.8023,4.9725 1.7543,4.9215 C1.7813,4.8985 1.8003,4.8635 1.8003,4.8245 C1.8003,4.7575 1.7463,4.7075 1.6793,4.7075 C1.6523,4.7075 1.6273,4.7145 1.6073,4.7265 C1.5643,4.6675 1.5253,4.6055 1.4883,4.5395 L2.8043,3.8635 L3.4903,3.3825 L2.7223,3.7345 L1.4843,4.5355 C1.4473,4.4725 1.4183,4.4105 1.3843,4.3395 C1.4313,4.3245 1.4633,4.2815 1.4633,4.2305 C1.4633,4.1605 1.4103,4.1055 1.3403,4.1055 C1.3223,4.1055 1.3043,4.1095 1.2893,4.1175 C1.2653,4.0505 1.2423,3.9765 1.2203,3.9025 L2.6663,3.5935 L3.4613,3.3005 L2.6253,3.4415 L1.2183,3.8945 C1.1993,3.8245 1.1853,3.7535 1.1703,3.6755 C1.2303,3.6675 1.2753,3.6215 1.2753,3.5585 C1.2753,3.4925 1.2203,3.4375 1.1543,3.4375 L1.1403,3.4375 C1.1363,3.3675 1.1313,3.2925 1.1313,3.2145 L2.6053,3.2925 L3.4473,3.2105 L2.6053,3.1365 L1.1313,3.2075 C1.1313,3.1365 1.1363,3.0585 1.1403,2.9885 L1.1623,2.9885 C1.2283,2.9885 1.2833,2.9375 1.2833,2.8675 C1.2833,2.8005 1.2343,2.7535 1.1703,2.7465 C1.1853,2.6755 1.1993,2.5975 1.2183,2.5355 L2.6253,2.9845 L3.4613,3.1255 L2.6663,2.8325 L1.2203,2.5235 C1.2423,2.4495 1.2653,2.3785 1.2893,2.3125 C1.3003,2.3165 1.3203,2.3205 1.3343,2.3205 C1.4023,2.3205 1.4553,2.2655 1.4553,2.1995 C1.4553,2.1485 1.4243,2.1055 1.3833,2.0895 C1.4143,2.0195 1.4473,1.9535 1.4843,1.8865 L2.7223,2.6955 L3.4943,3.0465 L2.8043,2.5545 L1.4883,1.8825 C1.5253,1.8205 1.5663,1.7575 1.6093,1.6915 C1.6273,1.7105 1.6563,1.7185 1.6813,1.7185 C1.7463,1.7185 1.8023,1.6645 1.8023,1.5975 C1.8023,1.5625 1.7833,1.5275 1.7583,1.4995 C1.8023,1.4455 1.8513,1.3945 1.9043,1.3395 L2.8943,2.4375 L3.5473,2.9765 L3.0083,2.3245 L1.9103,1.3355 C1.9653,1.2855 2.0173,1.2345 2.0743,1.1875 C2.0933,1.2145 2.1293,1.2345 2.1683,1.2345 C2.2363,1.2345 2.2913,1.1795 2.2913,1.1095 C2.2913,1.0825 2.2793,1.0585 2.2653,1.0355 C2.3283,0.9995 2.3883,0.9575 2.4533,0.9215 L3.1253,2.2345 L3.6133,2.9215 L3.2613,2.1525 L2.4593,0.9175 C2.5233,0.8785 2.5883,0.8435 2.6523,0.8125 C2.6723,0.8595 2.7153,0.8905 2.7653,0.8905 C2.8343,0.8905 2.8863,0.8355 2.8863,0.7735 C2.8863,0.7535 2.8833,0.7345 2.8793,0.7225 C2.9473,0.6955 3.0213,0.6755 3.0923,0.6525 L3.4043,2.0935 L3.6973,2.8905 L3.5543,2.0585 L3.1013,0.6525 C3.1723,0.6285 3.2423,0.6175 3.3163,0.6015 C3.3243,0.6605 3.3753,0.7075 3.4353,0.7075 C3.5043,0.7075 3.5583,0.6525 3.5583,0.5825 L3.5583,0.5705 C3.6313,0.5625 3.7053,0.5625 3.7793,0.5625 M3.7813,0.2775 C2.1603,0.2775 0.8433,1.5895 0.8433,3.2105 C0.8433,4.8325 2.1603,6.1485 3.7813,6.1485 C5.4023,6.1485 6.7183,4.8325 6.7183,3.2105 C6.7173,1.5895 5.4023,0.2775 3.7813,0.2775" id="Fill-4" fill="#16007E"></path>
                                <path d="M3.7851,2.7735 C4.0271,2.7735 4.2221,2.9725 4.2221,3.2105 C4.2221,3.4535 4.0271,3.6525 3.7851,3.6525 C3.5391,3.6525 3.3441,3.4535 3.3441,3.2105 C3.3441,2.9725 3.5391,2.7735 3.7851,2.7735" id="Fill-6" fill="#FFFFFF"></path>
                                <path d="M3.7851,2.875 C3.9711,2.875 4.1231,3.023 4.1231,3.211 C4.1231,3.402 3.9711,3.555 3.7851,3.555 C3.5961,3.555 3.4411,3.402 3.4411,3.211 C3.4411,3.023 3.5961,2.875 3.7851,2.875" id="Fill-8" fill="#16007E"></path>
                            </g>
                        </g>
                    </g>
                </g>
            </g>
        </g>
    </g>
</svg>