<svg version="1.2" xmlns="http://www.w3.org/2000/svg" viewBox="0 0 1295 258" width="1295" height="258">
	<title>pre-footer-shapes-svg</title>
	<style>
		.s0 { fill: none;stroke: #06c8b7;stroke-width: 3 } 
		.s1 { fill: #06c8b7;stroke: #06c8b7;stroke-width: 3 } 
		.s2 { fill: #fbc02e;stroke: #fbc02e;stroke-width: 3 } 
		.s3 { fill: none;stroke: #f54f58;stroke-width: 3 } 
		.s4 { fill: none;stroke: #fbc02e;stroke-width: 3 } 
		.s5 { fill: #f54f58;stroke: #f64c55;stroke-width: 3 } 
		.s6 { fill: none;stroke: #f64c55;stroke-width: 3 } 
		.s7 { fill: none;stroke: #f54f58;stroke-linecap: round;stroke-linejoin: round;stroke-width: 3 } 
		.s8 { fill: none;stroke: #06c8b7;stroke-linecap: round;stroke-linejoin: round;stroke-width: 3 } 
		.s9 { fill: none;stroke: #fbc02e;stroke-linecap: round;stroke-linejoin: round;stroke-width: 3 } 
	</style>
	<g id="website-detached">
		<g id="home-copy">
			<g id="Group-35">
				<g id="Group-33">
					<path id="Rectangle-22" class="s0" d="m126.1 25.5l12.4-8.4 8.4 12.4-12.4 8.4z"/>
					<path id="Rectangle-22" class="s1" d="m958.5 213c0-4.7 3.8-8.5 8.5-8.5 4.7 0 8.5 3.8 8.5 8.5 0 4.7-3.8 8.5-8.5 8.5-4.7 0-8.5-3.8-8.5-8.5z"/>
					<path id="Path-3" fill-rule="evenodd" class="s0" d="m657.2 245.8l17-7.9-15.1-10.2z"/>
					<path id="Path-3" fill-rule="evenodd" class="s1" d="m891.2 20.8l17-7.9-15.1-10.2z"/>
					<path id="Rectangle-22" class="s2" d="m468.6 175l13.5 6.6-6.6 13.5-13.5-6.6z"/>
					<path id="Rectangle-22" class="s2" d="m1276.5 120c0-4.7 3.8-8.5 8.5-8.5 4.7 0 8.5 3.8 8.5 8.5 0 4.7-3.8 8.5-8.5 8.5-4.7 0-8.5-3.8-8.5-8.5z"/>
					<path id="Rectangle-22" class="s3" d="m1133.5 30c0-4.7 3.8-8.5 8.5-8.5 4.7 0 8.5 3.8 8.5 8.5 0 4.7-3.8 8.5-8.5 8.5-4.7 0-8.5-3.8-8.5-8.5z"/>
					<path id="Rectangle-22" class="s4" d="m1.5 177c0-4.7 3.8-8.5 8.5-8.5 4.7 0 8.5 3.8 8.5 8.5 0 4.7-3.8 8.5-8.5 8.5-4.7 0-8.5-3.8-8.5-8.5z"/>
					<path id="Path-3" fill-rule="evenodd" class="s4" d="m536.9 79.9l14.3-12-17.1-6z"/>
					<path id="Rectangle-22" class="s5" d="m1048.2 72.1l12.6 8.1-8.1 12.6-12.6-8.1z"/>
					<path id="Rectangle-22" class="s6" d="m668.5 50c0-4.7 3.8-8.5 8.5-8.5 4.7 0 8.5 3.8 8.5 8.5 0 4.7-3.8 8.5-8.5 8.5-4.7 0-8.5-3.8-8.5-8.5z"/>
					<path id="Path-3" fill-rule="evenodd" class="s4" d="m1159 203.3l16.1 9.7v-18.2z"/>
					<path id="Path-3" fill-rule="evenodd" class="s5" d="m94 244.2l13.2-13.2-17.7-4.5z"/>
					<path id="Path-4" fill-rule="evenodd" class="s7" d="m63 46l15.7 8.7"/>
					<path id="Path-4" fill-rule="evenodd" class="s8" d="m190 239l5.9 17"/>
					<path id="Path-4" fill-rule="evenodd" class="s8" d="m377.2 4l-14.2 11.1"/>
					<path id="Path-4" fill-rule="evenodd" class="s9" d="m701.4 177.8l-14.6-10.5"/>
					<path id="Path-4" fill-rule="evenodd" class="s9" d="m932.2 30.4l10.9-14.4"/>
					<path id="Path-4" fill-rule="evenodd" class="s8" d="m1234 248.3l16.9-6.2"/>
					<path id="Path-4" fill-rule="evenodd" class="s7" d="m859.5 234.4l-5.2-17.2"/>
				</g>
			</g>
		</g>
	</g>
</svg>