<?xml version="1.0" encoding="UTF-8"?>
<svg width="1295px" height="258px" viewBox="0 0 1295 258" version="1.1" xmlns="http://www.w3.org/2000/svg" xmlns:xlink="http://www.w3.org/1999/xlink">
    <!-- Generator: Sketch 51.2 (57519) - http://www.bohemiancoding.com/sketch -->
    <title>Group 35</title>
    <desc>Created with Sketch.</desc>
    <defs></defs>
    <g id="website-detached" stroke="none" stroke-width="1" fill="none" fill-rule="evenodd">
        <g id="home-copy" transform="translate(-68.000000, -3257.000000)" stroke-width="3">
            <g id="Group-35" transform="translate(68.000000, 3252.000000)">
                <g id="Group-33">
                    <rect id="Rectangle-22" stroke="#06C8B7" transform="translate(136.494074, 32.494074) rotate(-34.000000) translate(-136.494074, -32.494074) " x="128.994074" y="24.9940743" width="15" height="15"></rect>
                    <rect id="Rectangle-22" stroke="#06C8B7" fill="#06C8B7" x="958.5" y="209.5" width="17" height="17" rx="8.5"></rect>
                    <path d="M652.751162,247.634497 L671.45259,247.634497 L662.101876,232.049973 L652.751162,247.634497 Z" id="Path-3" stroke="#06C8B7" transform="translate(662.101876, 239.134497) rotate(-25.000000) translate(-662.101876, -239.134497) "></path>
                    <path d="M886.751162,22.634497 L905.45259,22.634497 L896.101876,7.04997296 L886.751162,22.634497 Z" id="Path-3" stroke="#06C8B7" fill="#06C8B7" transform="translate(896.101876, 14.134497) rotate(-25.000000) translate(-896.101876, -14.134497) "></path>
                    <rect id="Rectangle-22" stroke="#FBC02E" fill="#FBC02E" transform="translate(472.034487, 190.034487) rotate(26.000000) translate(-472.034487, -190.034487) " x="464.534487" y="182.534487" width="15" height="15"></rect>
                    <rect id="Rectangle-22" stroke="#FBC02E" fill="#FBC02E" x="1276.5" y="116.5" width="17" height="17" rx="8.5"></rect>
                    <rect id="Rectangle-22" stroke="#F54F58" x="1133.5" y="26.5" width="17" height="17" rx="8.5"></rect>
                    <rect id="Rectangle-22" stroke="#FBC02E" x="1.5" y="173.5" width="17" height="17" rx="8.5"></rect>
                    <path d="M529.269695,80.8738957 L547.971124,80.8738957 L538.620409,65.2893717 L529.269695,80.8738957 Z" id="Path-3" stroke="#FBC02E" transform="translate(538.620409, 72.373896) rotate(-40.000000) translate(-538.620409, -72.373896) "></path>
                    <rect id="Rectangle-22" stroke="#F64C55" fill="#F54F58" transform="translate(1050.449786, 87.449786) rotate(33.000000) translate(-1050.449786, -87.449786) " x="1042.94979" y="79.9497864" width="15" height="15"></rect>
                    <rect id="Rectangle-22" stroke="#F64C55" x="668.5" y="46.5" width="17" height="17" rx="8.5"></rect>
                    <path d="M1162.08567,214.364761 L1180.7871,214.364761 L1171.43639,198.780237 L1162.08567,214.364761 Z" id="Path-3" stroke="#FBC02E" transform="translate(1171.436388, 205.864761) rotate(31.000000) translate(-1171.436388, -205.864761) "></path>
                    <path d="M85.2056348,245.056349 L103.907064,245.056349 L94.5563492,229.471825 L85.2056348,245.056349 Z" id="Path-3" stroke="#F64C55" fill="#F54F58" transform="translate(94.556349, 236.556349) rotate(-45.000000) translate(-94.556349, -236.556349) "></path>
                    <path d="M63,51 L78.7431547,59.7265732" id="Path-4" stroke="#F54F58" stroke-linecap="round" stroke-linejoin="round"></path>
                    <path d="M190,244 L195.860227,261.019334" id="Path-4" stroke="#06C8B7" stroke-linecap="round" stroke-linejoin="round"></path>
                    <path d="M377.184194,9 L363,20.0819066" id="Path-4" stroke="#06C8B7" stroke-linecap="round" stroke-linejoin="round"></path>
                    <path d="M701.37325,182.831021 L686.810944,172.250886" id="Path-4" stroke="#FBC02E" stroke-linecap="round" stroke-linejoin="round"></path>
                    <path d="M932.244295,35.4096287 L943.076965,21.0341895" id="Path-4" stroke="#FBC02E" stroke-linecap="round" stroke-linejoin="round"></path>
                    <path d="M1234,253.268994 L1250.91447,247.112631" id="Path-4" stroke="#06C8B7" stroke-linecap="round" stroke-linejoin="round"></path>
                    <path d="M859.525745,239.391831 L854.263055,222.178346" id="Path-4" stroke="#F54F58" stroke-linecap="round" stroke-linejoin="round"></path>
                </g>
            </g>
        </g>
    </g>
</svg>