<?xml version="1.0" encoding="UTF-8"?>
<svg width="98px" height="88px" viewBox="0 0 98 88" version="1.1" xmlns="http://www.w3.org/2000/svg" xmlns:xlink="http://www.w3.org/1999/xlink">
    <!-- Generator: Sketch 52.6 (67491) - http://www.bohemiancoding.com/sketch -->
    <title>razarewards</title>
    <desc>Created with Sketch.</desc>
    <g id="New-Section-" stroke="none" stroke-width="1" fill="none" fill-rule="evenodd">
        <g id="Artboard" transform="translate(-1.000000, -6.000000)" fill="#103F8A" fill-rule="nonzero">
            <g id="razarewards" transform="translate(1.000000, 6.000000)">
                <path d="M23.4878903,44.4133369 C19.9522202,41.1947241 4.75146745,40.1713379 1.74154754,40.0007735 C1.28151612,39.9881391 0.847772201,40.1302761 0.515892386,40.4271844 C0.18729851,40.7272514 0,41.1441865 0,41.5769146 L0,77.4207003 C0,78.2924737 0.736050283,79 1.64296938,79 L14.0736757,79 C14.7834385,79 15.4143387,78.5609547 15.6344966,77.9102832 C15.936803,77.0227168 23.0607182,56.002238 23.9939249,45.6957282 C24.0366421,45.2187797 23.8526295,44.7449898 23.4878903,44.4133369 Z" id="Shape"></path>
                <path d="M83.6659862,66.3155441 L62.1863595,71.4788111 C60.1753187,71.9628674 58.0392051,72.0134876 56.0051246,71.6211806 L37.9979168,68.1568562 C37.1059495,67.9860128 36.5299558,67.1539422 36.707691,66.2965615 C36.8854262,65.4391808 37.747771,64.8791941 38.6430297,65.0532012 L56.6469461,68.5175256 C58.2070661,68.8180834 59.8428881,68.7769545 61.3865511,68.4067938 L68.9238397,66.5939555 C68.4762103,61.5256015 65.5271227,58.5484972 59.4281727,57.0805095 L26.2542288,50 C24.8619698,58.8743652 20.8135572,71.8204979 19,77.3792357 L46.0387884,86.0384647 C49.4585451,87.281825 51.8250562,88 54.4877927,88 C58.6481127,88 63.5292476,86.2472733 74.2789351,82.0078262 L97.1047413,72.0387978 C97.5095825,71.8616268 97.8255562,71.5325951 97.9769603,71.127633 C97.9934172,71.0770127 97.9868344,71.0263925 98,70.9757722 C95.6960253,67.2994755 88.1653196,65.2177171 83.6659862,66.3155441 Z" id="Shape"></path>
                <path d="M96.35,13.3333333 L79.1339,13.3333333 C79.5959,13.14 80.1239,12.9833333 80.5463,12.77 C84.2225,10.9133333 86.3345,8.26333333 86.3345,5.5 C86.3345,2.31333333 83.546,0 79.7048,0 C73.9001,0 68.3693,5.17333333 65,9.08333333 L65,30 L96.35,30 C97.2608,30 98,29.2533333 98,28.3333333 L98,15 C98,14.08 97.2608,13.3333333 96.35,13.3333333 Z M66.419,12.5266667 C69.5441,8.65666667 74.9066,3.33333333 79.7048,3.33333333 C81.665,3.33333333 83.0345,4.22333333 83.0345,5.49666667 C83.0345,6.60333333 81.995,8.31 79.0712,9.78666667 C76.8734,10.8966667 72.9695,12.19 66.419,12.5266667 Z" id="Shape"></path>
                <path d="M31.65,30 L63,30 L63,9.74333333 C59.7099,5.79 53.8557,0 47.721,0 C43.8798,0 41.0946,2.31333333 41.0946,5.49666667 C41.0946,8.26 43.2033,10.91 46.8828,12.7666667 C47.3019,12.9833333 47.8299,13.14 48.2952,13.3333333 L31.65,13.3333333 C30.7392,13.3333333 30,14.08 30,15 L30,28.3333333 C30,29.2533333 30.7392,30 31.65,30 Z M44.3913,5.49666667 C44.3913,4.22333333 45.7608,3.33333333 47.721,3.33333333 C52.5225,3.33333333 57.885,8.65666667 61.0101,12.5266667 C54.4596,12.19 50.5557,10.8966667 48.3579,9.78666667 C45.4341,8.31333333 44.3913,6.60333333 44.3913,5.49666667 Z" id="Shape"></path>
                <path d="M61.26,53.4709967 C61.8766667,53.6240417 62.4333333,53.8170114 63,54 L63,31 L33,31 L33,47.2061334 L61.26,53.4709967 Z" id="Shape"></path>
                <path d="M74.09,67 L84.94,64.3654213 C88.3933333,63.5131529 93.09,64.0737705 97,65.7815478 L97,33 L67,33 L67,56.7306519 C71.21,58.9115517 73.54,62.2979413 74.09,67 Z" id="Shape"></path>
            </g>
        </g>
    </g>
</svg>