<?xml version="1.0" encoding="UTF-8"?>
<svg width="58px" height="52px" viewBox="0 0 58 52" version="1.1" xmlns="http://www.w3.org/2000/svg" xmlns:xlink="http://www.w3.org/1999/xlink">
    <!-- Generator: Sketch 50.2 (55047) - http://www.bohemiancoding.com/sketch -->
    <title>Giving Gift</title>
    <desc>Created with Sketch.</desc>
    <defs>
        <linearGradient x1="3.061617e-15%" y1="50%" x2="100%" y2="50%" id="linearGradient-1">
            <stop stop-color="#E6167F" offset="0%"></stop>
            <stop stop-color="#FF8000" offset="100%"></stop>
        </linearGradient>
    </defs>
    <g id="Xtras-New-Section" stroke="none" stroke-width="1" fill="none" fill-rule="evenodd">
        <g id="Raza---Features-2" transform="translate(-1241.000000, -610.000000)" fill="url(#linearGradient-1)" fill-rule="nonzero">
            <g id="Giving-Gift" transform="translate(1241.000000, 610.000000)">
                <path d="M13.7012693,26.6027371 C11.6387951,24.7045809 2.77168935,24.1010454 1.01590273,24.0004562 C0.747551069,23.9930051 0.494533784,24.0768295 0.300937225,24.2519293 C0.109257464,24.4288918 0,24.6747767 0,24.9299753 L0,46.0686181 C0,46.5827409 0.429362665,47 0.958398806,47 L8.20964417,47 C8.62367246,47 8.9916976,46.7410758 9.12012304,46.3573465 C9.29646842,45.8339099 13.4520856,33.4372173 13.9964562,27.3590192 C14.0213745,27.0777419 13.9140339,26.7983273 13.7012693,26.6027371 Z" id="Shape"></path>
                <path d="M49.472169,39.4458413 L36.6931506,42.4351012 C35.4967086,42.7153443 34.2258562,42.7446507 33.015707,42.5175256 L22.3025581,40.5118641 C21.771894,40.4129548 21.4292142,39.9312297 21.5349554,39.4348514 C21.6406966,38.9384731 22.1537372,38.6142703 22.6863595,38.7150112 L33.3975502,40.7206727 C34.3257229,40.8946799 35.2989334,40.8708684 36.2173152,40.6565648 L40.7015249,39.6070269 C40.4352137,36.6727167 38.6806933,34.94913 35.052204,34.0992424 L15.315807,30 C14.487501,35.1377904 12.0789518,42.6329198 11,45.8511365 L27.0863678,50.8643743 C29.1209066,51.5842145 30.5288309,52 32.1129906,52 C34.5881177,52 37.492084,50.9852635 43.8874677,48.5308467 L57.4673777,42.759304 C57.7082326,42.6567313 57.896217,42.4662393 57.9862928,42.2317875 C57.9960837,42.2024811 57.9921673,42.1731746 58,42.1438681 C56.6292809,40.0154858 52.1489876,38.8102573 49.472169,39.4458413 Z" id="Shape"></path>
                <path d="M57.05,8 L47.1377,8 C47.4037,7.884 47.7077,7.79 47.9509,7.662 C50.0675,6.548 51.2835,4.958 51.2835,3.3 C51.2835,1.388 49.678,0 47.4664,0 C44.1243,0 40.9399,3.104 39,5.45 L39,18 L57.05,18 C57.5744,18 58,17.552 58,17 L58,9 C58,8.448 57.5744,8 57.05,8 Z M39.817,7.516 C41.6163,5.194 44.7038,2 47.4664,2 C48.595,2 49.3835,2.534 49.3835,3.298 C49.3835,3.962 48.785,4.986 47.1016,5.872 C45.8362,6.538 43.5885,7.314 39.817,7.516 Z" id="Shape"></path>
                <path d="M18.95,18 L37,18 L37,5.846 C35.1057,3.474 31.7351,0 28.203,0 C25.9914,0 24.3878,1.388 24.3878,3.298 C24.3878,4.956 25.6019,6.546 27.7204,7.66 C27.9617,7.79 28.2657,7.884 28.5336,8 L18.95,8 C18.4256,8 18,8.448 18,9 L18,17 C18,17.552 18.4256,18 18.95,18 Z M26.2859,3.298 C26.2859,2.534 27.0744,2 28.203,2 C30.9675,2 34.055,5.194 35.8543,7.516 C32.0828,7.314 29.8351,6.538 28.5697,5.872 C26.8863,4.988 26.2859,3.962 26.2859,3.298 Z" id="Shape"></path>
                <path d="M35.956,31.7009981 C36.326,31.7875018 36.66,31.8965717 37,32 L37,19 L19,19 L19,28.1599884 L35.956,31.7009981 Z" id="Shape"></path>
                <path d="M43.254,39 L49.764,37.4502478 C51.836,36.9489135 54.654,37.2786885 57,38.2832634 L57,19 L39,19 L39,32.959207 C41.526,34.2420892 42.924,36.2340831 43.254,39 Z" id="Shape"></path>
            </g>
        </g>
    </g>
</svg>