<?xml version="1.0" encoding="UTF-8"?>
<svg width="39px" height="35px" viewBox="0 0 39 35" version="1.1" xmlns="http://www.w3.org/2000/svg" xmlns:xlink="http://www.w3.org/1999/xlink">
    <!-- Generator: Sketch 50.2 (55047) - http://www.bohemiancoding.com/sketch -->
    <title>Group 9</title>
    <desc>Created with Sketch.</desc>
    <defs></defs>
    <g id="Page-1" stroke="none" stroke-width="1" fill="none" fill-rule="evenodd">
        <g id="Features-2" transform="translate(-1227.000000, -632.000000)" fill="#808080" fill-rule="nonzero">
            <g id="Group-9" transform="translate(1227.000000, 632.000000)">
                <g id="Giving-Gift">
                    <path d="M8.80795886,17.8105997 C7.48208257,16.4901432 1.78180029,16.0702925 0.653080329,16.0003173 C0.480568544,15.995134 0.317914575,16.0534466 0.193459645,16.1752552 C0.0702369411,16.2983595 0,16.4694098 0,16.6469393 L0,31.3520822 C0,31.7097328 0.276018856,32 0.616113518,32 L5.2776284,32 C5.54378944,32 5.78037703,31.8198788 5.86293624,31.5529367 C5.97630113,31.1888069 8.64776934,22.5650207 8.99772182,18.336709 C9.01374077,18.1410378 8.94473606,17.9466625 8.80795886,17.8105997 Z" id="Shape"></path>
                    <path d="M33.3752604,26.4403463 L24.9465461,28.4784781 C24.1574035,28.6695529 23.3191817,28.6895346 22.5209983,28.5346765 L15.4548788,27.1671801 C15.1048663,27.0997419 14.8788434,26.771293 14.9485876,26.4328532 C15.0183318,26.0944135 15.3567203,25.8733661 15.7080243,25.9420531 L22.7728523,27.3095496 C23.3850512,27.4281908 24.0269561,27.4119557 24.6326973,27.2658396 L27.5903675,26.5502456 C27.4147154,24.5495796 26.2574785,23.3744068 23.8642196,22.794938 L10.8465961,20 C10.3002666,23.5030389 8.71164903,28.6133544 8,30.807593 L18.6101575,34.2257098 C19.9520873,34.7165099 20.8807183,35 21.9255895,35 C23.5581202,35 25.4735022,34.3081342 29.691734,32.6346682 L38.6486959,28.6995254 C38.8075577,28.6295895 38.9315474,28.4997086 38.9909591,28.3398551 C38.9974169,28.3198734 38.9948338,28.2998918 39,28.2799101 C38.0959087,26.8287403 35.1408216,26.0069936 33.3752604,26.4403463 Z" id="Shape"></path>
                    <path d="M38.35,5.33333333 L31.5679,5.33333333 C31.7499,5.256 31.9579,5.19333333 32.1243,5.108 C33.5725,4.36533333 34.4045,3.30533333 34.4045,2.2 C34.4045,0.925333333 33.306,0 31.7928,0 C29.5061,0 27.3273,2.06933333 26,3.63333333 L26,12 L38.35,12 C38.7088,12 39,11.7013333 39,11.3333333 L39,6 C39,5.632 38.7088,5.33333333 38.35,5.33333333 Z M26.559,5.01066667 C27.7901,3.46266667 29.9026,1.33333333 31.7928,1.33333333 C32.565,1.33333333 33.1045,1.68933333 33.1045,2.19866667 C33.1045,2.64133333 32.695,3.324 31.5432,3.91466667 C30.6774,4.35866667 29.1395,4.876 26.559,5.01066667 Z" id="Shape"></path>
                    <path d="M12.65,12 L25,12 L25,3.89733333 C23.7039,2.316 21.3977,0 18.981,0 C17.4678,0 16.3706,0.925333333 16.3706,2.19866667 C16.3706,3.304 17.2013,4.364 18.6508,5.10666667 C18.8159,5.19333333 19.0239,5.256 19.2072,5.33333333 L12.65,5.33333333 C12.2912,5.33333333 12,5.632 12,6 L12,11.3333333 C12,11.7013333 12.2912,12 12.65,12 Z M17.6693,2.19866667 C17.6693,1.68933333 18.2088,1.33333333 18.981,1.33333333 C20.8725,1.33333333 22.985,3.46266667 24.2161,5.01066667 C21.6356,4.876 20.0977,4.35866667 19.2319,3.91466667 C18.0801,3.32533333 17.6693,2.64133333 17.6693,2.19866667 Z" id="Shape"></path>
                    <path d="M24.304,21.7929987 C24.5506667,21.8528859 24.7733333,21.9283958 25,22 L25,13 L13,13 L13,19.3415304 L24.304,21.7929987 Z" id="Shape"></path>
                    <path d="M28.836,26 L33.176,24.9926611 C34.5573333,24.6667937 36.436,24.8811475 38,25.5341212 L38,13 L26,13 L26,22.0734846 C27.684,22.907358 28.616,24.202154 28.836,26 Z" id="Shape"></path>
                </g>
            </g>
        </g>
    </g>
</svg>