<?xml version="1.0" encoding="UTF-8"?>
<svg width="40px" height="40px" viewBox="0 0 40 40" version="1.1" xmlns="http://www.w3.org/2000/svg" xmlns:xlink="http://www.w3.org/1999/xlink">
    <!-- Generator: Sketch 50.2 (55047) - http://www.bohemiancoding.com/sketch -->
    <title>Shape</title>
    <desc>Created with Sketch.</desc>
    <defs></defs>
    <g id="NEW-customer-Checkout-flow" stroke="none" stroke-width="1" fill="none" fill-rule="evenodd">
        <g id="Raza---Homepage-userflow---payment-Redeem-promo-code-failed" transform="translate(-700.000000, -335.000000)" fill="#E70520" fill-rule="nonzero">
            <g id="redeem-code" transform="translate(527.000000, 295.000000)">
                <path d="M193,40 C181.954305,40 173,48.954305 173,60 C173,71.045695 181.954305,80 193,80 C204.045695,80 213,71.045695 213,60 C213,54.6956702 210.892863,49.6085919 207.142136,45.8578644 C203.391408,42.1071368 198.30433,40 193,40 Z M200.372,65.6 C200.754356,65.9852307 200.754356,66.6067693 200.372,66.992 L200,67.364 C199.614769,67.7463557 198.993231,67.7463557 198.608,67.364 L193.008,61.764 L187.408,67.364 C187.022769,67.7463557 186.401231,67.7463557 186.016,67.364 L185.644,66.992 C185.261644,66.6067693 185.261644,65.9852307 185.644,65.6 L191.244,60 L185.644,54.4 C185.261644,54.0147693 185.261644,53.3932307 185.644,53.008 L186.016,52.636 C186.401231,52.2536443 187.022769,52.2536443 187.408,52.636 L193.008,58.236 L198.608,52.636 C198.993231,52.2536443 199.614769,52.2536443 200,52.636 L200.372,53.008 C200.754356,53.3932307 200.754356,54.0147693 200.372,54.4 L194.772,60 L200.372,65.6 Z" id="Shape"></path>
            </g>
        </g>
    </g>
</svg>