<?xml version="1.0" encoding="UTF-8"?>
<svg width="26px" height="26px" viewBox="0 0 26 26" version="1.1" xmlns="http://www.w3.org/2000/svg" xmlns:xlink="http://www.w3.org/1999/xlink">
    <!-- Generator: Sketch 50.2 (55047) - http://www.bohemiancoding.com/sketch -->
    <title>handshake</title>
    <desc>Created with Sketch.</desc>
    <defs></defs>
    <g id="Page-1" stroke="none" stroke-width="1" fill="none" fill-rule="evenodd">
        <g id="handshake" fill="#0B203E" fill-rule="nonzero">
            <path d="M25.8437376,21.341554 L21.8608358,17.3394524 C22.2511569,15.4407 21.6613045,13.446073 20.2822715,12.0682321 L19.0472202,10.8347108 C18.4357679,10.2228505 17.4342995,10.2016748 16.8150713,10.7876368 C16.6743422,10.9206322 16.561515,11.0748033 16.4788259,11.2432439 L14.6610374,9.42701061 C14.8295159,9.3444407 14.9839163,9.23160531 15.1170728,9.09099272 C15.7031135,8.47192152 15.6819711,7.47143422 15.0701631,6.8609958 L13.8352135,5.62645886 C12.4558247,4.24882105 10.4592915,3.65925362 8.55871227,4.04930249 L4.66342944,0.157141811 C4.45363184,-0.0523806036 4.11362555,-0.0523806036 3.90377712,0.157141811 L0.157304219,3.90051416 C-0.0520359764,4.10973189 -0.052493384,4.44879664 0.156287758,4.65852218 L4.04923273,8.56865933 C3.66582354,10.4620798 4.25704823,12.4504099 5.63110056,13.8233251 L8.79529363,16.9848995 C8.81984116,17.0094267 8.84576093,17.0327352 8.87198563,17.0556374 C8.8851488,17.0723952 8.89912514,17.0886451 8.91452453,17.1040825 L11.1468767,19.3345365 L12.0787684,20.2656569 C12.7979656,20.9843096 13.6947385,21.5025806 14.672066,21.7646105 C15.1645923,21.8966411 15.6724672,21.9627072 16.1805454,21.9627072 C16.5483519,21.9627072 16.9161584,21.9275668 17.2782219,21.8581999 L21.340001,25.8461336 C21.4445441,25.948762 21.5805466,26 21.7164475,26 C21.8539747,26 21.9914002,25.9474924 22.0962482,25.842782 L25.8426703,22.0994605 C26.0520105,21.8902427 26.0525187,21.5512795 25.8437376,21.341554 Z M10.2832913,16.2258251 C10.1058679,16.4032539 9.81958163,16.4260546 9.61639103,16.2784342 C9.59433382,16.262489 9.57349636,16.2447664 9.55459018,16.2258251 L6.39039711,13.0642507 C5.21104794,11.885522 4.73890169,10.1498274 5.15854772,8.53443294 C5.15971665,8.52986265 5.16032652,8.52534314 5.16134299,8.52082363 C5.1635792,8.51112446 5.16571377,8.50137451 5.16734011,8.49157377 C5.1688648,8.48304256 5.17003373,8.47451135 5.17110101,8.46592937 C5.17211748,8.45760128 5.17303229,8.44932398 5.17369299,8.44104667 C5.17445534,8.43129672 5.17491274,8.42149599 5.17516686,8.41179682 C5.17531933,8.40453513 5.17531933,8.39732423 5.17521768,8.39006255 C5.17506521,8.37975401 5.17455698,8.36944546 5.17384546,8.35923848 C5.17328641,8.3522307 5.17262571,8.34517214 5.17181254,8.33816436 C5.17069443,8.32821129 5.16927138,8.31835977 5.16764505,8.30855904 C5.16637447,8.30089111 5.16474813,8.29327396 5.16312179,8.28565681 C5.16119052,8.27687169 5.15915759,8.26808658 5.15676891,8.25940303 C5.15448187,8.25077026 5.15183907,8.24228983 5.1490438,8.23375862 C5.14655347,8.22624304 5.14406314,8.21882901 5.1413187,8.21141498 C5.13786273,8.20217284 5.134051,8.19313382 5.13013763,8.18404402 C5.12724071,8.17744249 5.12429297,8.17089174 5.12109112,8.16444256 C5.11661869,8.15535276 5.11189215,8.1464153 5.10691149,8.13747784 C5.10325223,8.13102866 5.09954214,8.12463025 5.09562877,8.11833341 C5.09064811,8.11020845 5.08536251,8.10223583 5.07987362,8.09431399 C5.0749946,8.08720465 5.06986147,8.08029844 5.0646267,8.073443 C5.05954439,8.06684147 5.05436044,8.06029072 5.04892237,8.05384153 C5.04231537,8.04602126 5.03540344,8.03845489 5.02833903,8.0309393 C5.02528965,8.0277401 5.02259602,8.02423621 5.01944499,8.02103701 L1.29579165,4.28101621 L4.28357787,1.29570266 L8.00951825,5.01855948 C8.01297422,5.02201259 8.01678595,5.02495789 8.02024192,5.02825865 C8.02776373,5.03531721 8.03533637,5.04237577 8.04321394,5.04902808 C8.04971929,5.05451243 8.05632629,5.05964131 8.06303494,5.06477019 C8.06989605,5.07005142 8.07680799,5.0751803 8.08387239,5.08005527 C8.09180079,5.0855904 8.09988166,5.09071928 8.10806417,5.0957466 C8.11446788,5.09965674 8.12087158,5.10346532 8.12732611,5.10712155 C8.13616932,5.1120473 8.14516501,5.11666838 8.15416069,5.1211371 C8.16071686,5.12428553 8.16727304,5.12738317 8.17388004,5.13027768 C8.18292654,5.13418782 8.19192222,5.13789483 8.2011212,5.14129716 C8.20854136,5.14409012 8.21601235,5.14667995 8.22353417,5.14911744 C8.2319708,5.15185961 8.24040742,5.15439866 8.2489457,5.15668381 C8.25763644,5.15907051 8.26642883,5.16115253 8.27522122,5.16308221 C8.28279386,5.16475798 8.29041732,5.16617985 8.29804078,5.16755094 C8.30779881,5.16922671 8.31760766,5.17064858 8.32751815,5.17176576 C8.33458256,5.17257826 8.34169779,5.17323841 8.34876219,5.17374622 C8.35892681,5.17450794 8.36914224,5.17501575 8.37935768,5.17521887 C8.38672702,5.17532043 8.39409637,5.17526965 8.40141489,5.17511731 C8.41107127,5.17491418 8.42067683,5.17450794 8.43043486,5.17374622 C8.43902395,5.17308607 8.44756223,5.17207045 8.4561005,5.17100405 C8.46443549,5.16993765 8.47277047,5.16887125 8.48105463,5.1673986 C8.49132089,5.16562126 8.50153632,5.1633869 8.51165011,5.16094941 C8.51632583,5.15988301 8.52095073,5.15922286 8.52562645,5.15805489 C10.1473396,4.73210385 11.8908247,5.20238671 13.075307,6.38533015 L14.3104091,7.62001943 C14.5145654,7.82380359 14.5262038,8.15271214 14.3363289,8.35324632 C14.2403241,8.4546052 14.1108269,8.51198773 13.971775,8.51478069 C13.8302836,8.51650724 13.7008881,8.46562468 13.6013766,8.3685314 C13.5987338,8.36599235 13.5960401,8.36350408 13.5934482,8.36101582 L13.5036438,8.27072719 C13.5032881,8.27037173 13.5028306,8.27001626 13.5024749,8.26966079 C13.5023224,8.26950845 13.5021699,8.26930533 13.5019158,8.2691022 L13.2779386,8.0459197 C13.2777861,8.04576735 13.2776845,8.04556423 13.2774304,8.04536111 L12.3138759,7.0820455 C12.10418,6.87237074 11.764072,6.87226918 11.5542236,7.08184237 C11.344426,7.29136479 11.3443243,7.63114047 11.5540203,7.84086601 L12.5175747,8.80418162 C12.517778,8.80433396 12.5179305,8.80448631 12.5181846,8.80474021 L12.7411962,9.02695788 C12.7413487,9.02711022 12.7414503,9.02726256 12.7416028,9.02741491 L12.8358288,9.12161366 C12.8376584,9.12344178 12.8391323,9.12547302 12.8410127,9.12725036 C12.844672,9.13085581 12.8481279,9.13400423 12.8515839,9.13735577 L13.5811998,9.86687565 C13.5829786,9.86865299 13.5849607,9.87017642 13.5867395,9.87185219 L16.032142,12.3151801 C16.0341749,12.3172621 16.0359029,12.319598 16.0379358,12.3216293 L16.7818838,13.0649108 C16.7819347,13.0649616 16.7820363,13.0650124 16.7820871,13.0651139 C16.7823412,13.0653171 16.7825954,13.0656217 16.7827986,13.0658757 L16.8718407,13.1543869 C16.8749917,13.1577893 16.8781935,13.1611408 16.881497,13.1644924 C16.9759263,13.2608747 17.0279183,13.3884366 17.0279183,13.523768 C17.0279183,13.6612321 16.9740967,13.7907745 16.8771263,13.8878677 C16.6757653,14.0889097 16.3484139,14.0887574 16.147612,13.8881216 L12.5859826,10.3293382 C12.5858301,10.3291859 12.5856268,10.3290335 12.5854235,10.3288304 L12.0133591,9.75729025 C11.8036632,9.54776783 11.4635044,9.54771705 11.2537576,9.75734103 C11.0440109,9.96691422 11.0440109,10.3066899 11.2538085,10.5163139 L11.825822,11.0878033 C11.8259745,11.0879556 11.826127,11.0881587 11.8263303,11.0883619 L15.3874515,14.6465359 C15.3876039,14.6466882 15.3877564,14.6468914 15.3879597,14.6470945 C15.4853367,14.7443909 15.5390058,14.8737809 15.5390058,15.0114482 C15.5390058,15.1488616 15.4851842,15.2784039 15.3879597,15.3757511 C15.1871069,15.57659 14.8598064,15.5763868 14.658852,15.3759542 L11.3224704,12.0423338 L11.0978833,11.8175263 C11.0977817,11.8174247 11.09768,11.8173739 11.0975784,11.8172724 C11.0974767,11.8171708 11.0974259,11.8170693 11.0973243,11.8169677 L10.5241926,11.2448689 C10.3143442,11.0352957 9.97418539,11.0354989 9.76459108,11.2452244 C9.55494595,11.4548484 9.55509841,11.7946748 9.76494684,12.0041972 L10.3380277,12.5762452 L13.099448,15.3357357 C13.1001595,15.3364466 13.1007186,15.3372591 13.1014301,15.3379192 C13.199112,15.4355203 13.2529336,15.5648595 13.2529336,15.7022222 C13.2529336,15.8395848 13.199112,15.9689748 13.1014301,16.0665758 C12.9033218,16.264571 12.5787657,16.2668053 12.3778621,16.0719079 C12.3749652,16.0691149 12.37217,16.0663727 12.3692222,16.0636813 L9.9799284,13.6758571 C9.97982675,13.6757555 9.97967428,13.6756539 9.97952181,13.6755016 C9.97936934,13.6753492 9.9792677,13.6752477 9.97916605,13.6750953 L9.60907251,13.3053589 C9.39963067,13.0955825 9.05947191,13.0951255 8.84947101,13.3044448 C8.63947011,13.5137641 8.63901271,13.8535906 8.84855619,14.0634177 L9.22002196,14.4346268 L10.2784631,15.4922427 C10.2802419,15.4940708 10.2817157,15.4960513 10.2834946,15.4978286 C10.3806174,15.5946172 10.4340325,15.7237533 10.4340325,15.8616745 C10.4343374,15.9991387 10.3807699,16.1285795 10.2832913,16.2258251 Z M21.713144,24.7075727 L17.8243665,20.8894507 C17.8219778,20.8871656 17.8193858,20.8851343 17.8169972,20.8829 C17.8097295,20.8760953 17.8022585,20.8695446 17.7946858,20.8631462 C17.7882313,20.8576618 17.7818276,20.8523298 17.7752206,20.8472009 C17.7686136,20.8421736 17.7618541,20.8374002 17.7550438,20.8326776 C17.7471154,20.8270917 17.7390854,20.8215565 17.7309537,20.8164784 C17.7250074,20.8127714 17.7188578,20.8094199 17.7127591,20.8059668 C17.7035601,20.8007871 17.6944628,20.7956074 17.6850605,20.7909864 C17.6790125,20.7879903 17.6727613,20.7853497 17.6665609,20.7826075 C17.657057,20.7783927 17.6476039,20.7741779 17.6379475,20.7705216 C17.6306798,20.7677795 17.6233613,20.7654943 17.6159919,20.7630568 C17.6073012,20.7602131 17.5986105,20.7572678 17.5897672,20.7548303 C17.5807207,20.752342 17.5716234,20.7504124 17.5624753,20.7484319 C17.5551059,20.7468069 17.5477366,20.7450296 17.5403672,20.7438108 C17.5299993,20.7419827 17.5195298,20.740764 17.5090094,20.739596 C17.502504,20.7388343 17.4959987,20.737971 17.4894933,20.7374632 C17.4788205,20.7366507 17.468046,20.7363968 17.4573223,20.7362445 C17.4505629,20.7361429 17.4438542,20.7359398 17.4370948,20.7360413 C17.4272351,20.7362445 17.4173246,20.7369554 17.4074141,20.7377171 C17.3993332,20.7383265 17.3913032,20.7389358 17.3832731,20.7399007 C17.3748365,20.7409163 17.3663999,20.7423382 17.3579124,20.74376 C17.348256,20.7454358 17.3385997,20.7472131 17.3289433,20.7493967 C17.3256906,20.7501584 17.3224379,20.7504631 17.3192361,20.7512756 C15.6947785,21.1520901 14.0197012,20.6868345 12.8385224,19.5065825 L11.9066307,18.575462 L10.6190792,17.2890269 C10.7723616,17.2133632 10.9160384,17.1121059 11.043401,16.9848995 C11.169493,16.858861 11.2714441,16.7152524 11.3477295,16.5598117 L11.4664013,16.6783854 L11.6131275,16.8255487 C11.6180065,16.8304237 11.6229364,16.8350448 11.6278662,16.8397674 L11.8382737,17.04995 C11.9431725,17.1547112 12.0805981,17.2070664 12.2180236,17.2070664 C12.2224452,17.2070664 12.226816,17.2065078 12.2312884,17.2064062 C12.3950912,17.2607927 12.5662632,17.2881129 12.7373845,17.2881129 C13.145392,17.2880621 13.5532471,17.133637 13.8616923,16.8255487 C13.9986096,16.6887447 14.1071677,16.5312728 14.1851303,16.3604963 C14.4410244,16.5192377 14.7323422,16.5990654 15.0239649,16.5990654 C15.4312101,16.5990654 15.8386078,16.4441326 16.1486285,16.1343685 C16.4257158,15.8567995 16.5874348,15.4953404 16.6106101,15.1079829 C16.785848,15.0972681 16.9596121,15.0578112 17.1242788,14.9895616 C16.9843121,15.3720441 16.9108219,15.7800187 16.9108219,16.1993682 C16.9108219,17.1385628 17.2768496,18.0213397 17.9416153,18.6851998 C18.0465141,18.7899102 18.1838888,18.8422654 18.3213144,18.8422654 C18.4588416,18.8422654 18.596318,18.7897579 18.7012168,18.6849459 C18.9109128,18.4753219 18.9108111,18.1354954 18.7010135,17.9259222 C18.239286,17.4648815 17.9850182,16.8515994 17.9850182,16.1992666 C17.9850182,15.5468323 18.239286,14.9334486 18.7019791,14.4712399 L18.8265465,14.3462171 C19.0355309,14.1364915 19.0351243,13.7972744 18.8255808,13.5880059 L17.8615182,12.6251981 C17.833413,12.5971162 17.8028175,12.5731476 17.7706465,12.5525813 C17.7360868,12.5081479 17.6992909,12.4650856 17.6598014,12.4240546 C17.6501959,12.4135937 17.6420642,12.4053164 17.6361687,12.3995273 L17.5472283,12.3111176 L17.5445347,12.3082739 C17.5426034,12.3061919 17.5405705,12.3042114 17.5385884,12.3021802 C17.5384359,12.3020278 17.5382835,12.3018247 17.5380802,12.3015708 C17.4409065,12.2020908 17.3890161,12.0706188 17.3917606,11.9314789 C17.3945559,11.792542 17.4519351,11.663152 17.5535812,11.5670744 C17.7540274,11.3773058 18.0831067,11.3890362 18.2875171,11.5934297 L19.5227716,12.8272049 C20.7067457,14.0101484 21.1774181,15.7514289 20.751165,17.3717999 C20.5397411,18.176171 20.1150128,18.9144252 19.52267,19.506684 C19.312974,19.716308 19.3130757,20.0561345 19.5229241,20.2656569 C19.6277721,20.3703673 19.7651468,20.4227225 19.9025724,20.4227225 C20.0401504,20.4227225 20.1776268,20.370215 20.2824748,20.2653522 C20.7953303,19.7526164 21.2053199,19.1500999 21.4937408,18.4927398 L24.7043353,21.7188061 L21.713144,24.7075727 Z" id="Shape"></path>
        </g>
    </g>
</svg>