<?xml version="1.0" encoding="UTF-8"?>
<svg width="26px" height="26px" viewBox="0 0 26 26" version="1.1" xmlns="http://www.w3.org/2000/svg" xmlns:xlink="http://www.w3.org/1999/xlink">
    <!-- Generator: Sketch 50.2 (55047) - http://www.bohemiancoding.com/sketch -->
    <title>handshake</title>
    <desc>Created with Sketch.</desc>
    <defs></defs>
    <g id="Page-1" stroke="none" stroke-width="1" fill="none" fill-rule="evenodd">
        <g id="handshake" fill="#FFFFFF" fill-rule="nonzero">
            <path d="M25.8437376,21.341554 L21.8608358,17.3394524 C22.2511569,15.4407 21.6613045,13.446073 20.2822715,12.0682321 L19.0472202,10.8347108 C18.4357679,10.2228505 17.4342995,10.2016748 16.8150713,10.7876368 C16.6743422,10.9206322 16.561515,11.0748033 16.4788259,11.2432439 L14.6610374,9.42701061 C14.8295159,9.3444407 14.9839163,9.23160531 15.1170728,9.09099272 C15.7031135,8.47192152 15.6819711,7.47143422 15.0701631,6.8609958 L13.8352135,5.62645886 C12.4558247,4.24882105 10.4592915,3.65925362 8.55871227,4.04930249 L4.66342944,0.157141811 C4.45363184,-0.0523806036 4.11362555,-0.0523806036 3.90377712,0.157141811 L0.157304219,3.90051416 C-0.0520359764,4.10973189 -0.052493384,4.44879664 0.156287758,4.65852218 L4.04923273,8.56865933 C3.66582354,10.4620798 4.25704823,12.4504099 5.63110056,13.8233251 L8.79529363,16.9848995 C8.81984116,17.0094267 8.84576093,17.0327352 8.87198563,17.0556374 C8.8851488,17.0723952 8.89912514,17.0886451 8.91452453,17.1040825 L11.1468767,19.3345365 L12.0787684,20.2656569 C12.7979656,20.9843096 13.6947385,21.5025806 14.672066,21.7646105 C15.1645923,21.8966411 15.6724672,21.9627072 16.1805454,21.9627072 C16.5483519,21.9627072 16.9161584,21.9275668 17.2782219,21.8581999 L21.340001,25.8461336 C21.4445441,25.948762 21.5805466,26 21.7164475,26 C21.8539747,26 21.9914002,25.9474924 22.0962482,25.842782 L25.8426703,22.0994605 C26.0520105,21.8902427 26.0525187,21.5512795 25.8437376,21.341554 Z M9.98749961,15.9301224 C9.8100763,16.1075512 9.52378998,16.1303519 9.32059938,15.9827315 C9.29854217,15.9667863 9.27770471,15.9490637 9.25879853,15.9301224 L6.09460546,12.768548 C4.91525629,11.5898194 4.44311004,9.85412474 4.86275607,8.23873028 C4.863925,8.23415999 4.86453487,8.22964048 4.86555134,8.22512097 C4.86778755,8.2154218 4.86992212,8.20567185 4.87154846,8.19587111 C4.87307315,8.18733991 4.87424208,8.1788087 4.87530936,8.17022671 C4.87632583,8.16189862 4.87724064,8.15362132 4.87790134,8.14534402 C4.87866369,8.13559406 4.87912109,8.12579333 4.87937521,8.11609416 C4.87952768,8.10883248 4.87952768,8.10162157 4.87942603,8.09435989 C4.87927356,8.08405135 4.87876533,8.0737428 4.87805381,8.06353582 C4.87749476,8.05652804 4.87683406,8.04946949 4.87602089,8.04246171 C4.87490278,8.03250863 4.87347973,8.02265712 4.8718534,8.01285638 C4.87058282,8.00518845 4.86895648,7.9975713 4.86733014,7.98995415 C4.86539887,7.98116904 4.86336594,7.97238392 4.86097726,7.96370037 C4.85869022,7.9550676 4.85604742,7.94658717 4.85325215,7.93805597 C4.85076182,7.93054038 4.84827149,7.92312635 4.84552705,7.91571233 C4.84207108,7.90647018 4.83825935,7.89743116 4.83434598,7.88834137 C4.83144906,7.88173984 4.82850132,7.87518909 4.82529947,7.8687399 C4.82082704,7.8596501 4.8161005,7.85071264 4.81111984,7.84177519 C4.80746058,7.835326 4.80375049,7.82892759 4.79983712,7.82263075 C4.79485646,7.81450579 4.78957086,7.80653317 4.78408197,7.79861133 C4.77920295,7.79150199 4.77406982,7.78459578 4.76883505,7.77774034 C4.76375274,7.77113881 4.75856879,7.76458806 4.75313072,7.75813888 C4.74652372,7.7503186 4.73961179,7.74275223 4.73254738,7.73523664 C4.729498,7.73203744 4.72680437,7.72853355 4.72365334,7.72533435 L1,3.98531355 L3.98778622,1 L7.7137266,4.72285682 C7.71718257,4.72630993 7.7209943,4.72925523 7.72445027,4.73255599 C7.73197208,4.73961455 7.73954472,4.74667311 7.74742229,4.75332542 C7.75392764,4.75880977 7.76053464,4.76393865 7.76724329,4.76906753 C7.7741044,4.77434876 7.78101634,4.77947764 7.78808074,4.78435262 C7.79600914,4.78988774 7.80409001,4.79501663 7.81227252,4.80004395 C7.81867623,4.80395408 7.82507993,4.80776266 7.83153446,4.81141889 C7.84037767,4.81634465 7.84937336,4.82096572 7.85836904,4.82543445 C7.86492521,4.82858287 7.87148139,4.83168051 7.87808839,4.83457503 C7.88713489,4.83848516 7.89613057,4.84219218 7.90532955,4.8455945 C7.91274971,4.84838746 7.9202207,4.85097729 7.92774252,4.85341478 C7.93617915,4.85615695 7.94461577,4.858696 7.95315405,4.86098115 C7.96184479,4.86336785 7.97063718,4.86544988 7.97942957,4.86737955 C7.98700221,4.86905533 7.99462567,4.87047719 8.00224913,4.87184828 C8.01200716,4.87352406 8.02181601,4.87494592 8.0317265,4.87606311 C8.03879091,4.8768756 8.04590614,4.87753575 8.05297054,4.87804356 C8.06313516,4.87880528 8.07335059,4.87931309 8.08356603,4.87951621 C8.09093537,4.87961778 8.09830472,4.87956699 8.10562324,4.87941465 C8.11527962,4.87921153 8.12488518,4.87880528 8.13464321,4.87804356 C8.1432323,4.87738341 8.15177058,4.87636779 8.16030885,4.87530139 C8.16864384,4.87423499 8.17697882,4.87316859 8.18526298,4.87169594 C8.19552924,4.8699186 8.20574467,4.86768424 8.21585846,4.86524675 C8.22053418,4.86418035 8.22515908,4.8635202 8.2298348,4.86235223 C9.85154792,4.43640119 11.5950331,4.90668405 12.7795154,6.08962749 L14.0146175,7.32431678 C14.2187737,7.52810094 14.2304122,7.85700949 14.0405372,8.05754366 C13.9445325,8.15890254 13.8150353,8.21628508 13.6759834,8.21907803 C13.534492,8.22080459 13.4050965,8.16992202 13.3055849,8.07282875 C13.3029421,8.0702897 13.3002485,8.06780143 13.2976565,8.06531316 L13.2078522,7.97502454 C13.2074964,7.97466907 13.207039,7.9743136 13.2066832,7.97395813 C13.2065308,7.97380579 13.2063783,7.97360267 13.2061242,7.97339954 L12.9821469,7.75021704 C12.9819945,7.7500647 12.9818928,7.74986157 12.9816387,7.74965845 L12.0180843,6.78634284 C11.8083883,6.57666808 11.4682804,6.57656652 11.2584319,6.78613972 C11.0486343,6.99566213 11.0485327,7.33543782 11.2582286,7.54516335 L12.2217831,8.50847896 C12.2219864,8.50863131 12.2221389,8.50878365 12.222393,8.50903755 L12.4454046,8.73125522 C12.445557,8.73140756 12.4456587,8.7315599 12.4458112,8.73171225 L12.5400371,8.82591101 C12.5418667,8.82773912 12.5433406,8.82977036 12.5452211,8.8315477 C12.5488803,8.83515315 12.5523363,8.83830157 12.5557923,8.84165312 L13.2854082,9.57117299 C13.287187,9.57295033 13.2891691,9.57447376 13.2909479,9.57614953 L15.7363504,12.0194774 C15.7383833,12.0215595 15.7401113,12.0238954 15.7421442,12.0259266 L16.4860922,12.7692082 C16.486143,12.7692589 16.4862447,12.7693097 16.4862955,12.7694113 C16.4865496,12.7696144 16.4868037,12.7699191 16.487007,12.770173 L16.576049,12.8586843 C16.5792,12.8620866 16.5824019,12.8654382 16.5857054,12.8687897 C16.6801346,12.965172 16.7321266,13.0927339 16.7321266,13.2280653 C16.7321266,13.3655295 16.678305,13.4950718 16.5813346,13.5921651 C16.3799736,13.7932071 16.0526223,13.7930547 15.8518204,13.592419 L12.2901909,10.0336356 C12.2900385,10.0334832 12.2898352,10.0333309 12.2896319,10.0331278 L11.7175675,9.46158759 C11.5078715,9.25206518 11.1677128,9.25201439 10.957966,9.46163837 C10.7482192,9.67121157 10.7482192,10.0109873 10.9580168,10.2206112 L11.5300304,10.7921006 C11.5301829,10.792253 11.5303353,10.7924561 11.5305386,10.7926592 L15.0916598,14.3508332 C15.0918123,14.3509856 15.0919647,14.3511887 15.092168,14.3513918 C15.189545,14.4486882 15.2432142,14.5780782 15.2432142,14.7157455 C15.2432142,14.8531589 15.1893926,14.9827013 15.092168,15.0800484 C14.8913153,15.2808873 14.5640148,15.2806842 14.3630604,15.0802516 L11.0266788,11.7466311 L10.8020917,11.5218236 C10.80199,11.5217221 10.8018884,11.5216713 10.8017867,11.5215697 C10.8016851,11.5214682 10.8016343,11.5213666 10.8015326,11.521265 L10.2284009,10.9491663 C10.0185525,10.7395931 9.67839374,10.7397962 9.46879943,10.9495217 C9.2591543,11.1591457 9.25930676,11.4989722 9.46915519,11.7084946 L10.042236,12.2805426 L12.8036563,15.040033 C12.8043679,15.0407439 12.8049269,15.0415564 12.8056384,15.0422166 C12.9033204,15.1398177 12.957142,15.2691569 12.957142,15.4065195 C12.957142,15.5438821 12.9033204,15.6732721 12.8056384,15.7708732 C12.6075301,15.9688683 12.2829741,15.9711027 12.0820705,15.7762052 C12.0791736,15.7734122 12.0763783,15.7706701 12.0734306,15.7679787 L9.68413675,13.3801544 C9.6840351,13.3800528 9.68388263,13.3799513 9.68373016,13.3797989 C9.68357769,13.3796466 9.68347605,13.379545 9.6833744,13.3793927 L9.31328086,13.0096562 C9.10383902,12.7998799 8.76368026,12.7994229 8.55367936,13.0087421 C8.34367846,13.2180614 8.34322106,13.5578879 8.55276454,13.767715 L8.92423031,14.1389241 L9.98267142,15.1965401 C9.98445022,15.1983682 9.98592409,15.2003486 9.9877029,15.202126 C10.0848258,15.2989146 10.1382408,15.4280506 10.1382408,15.5659718 C10.1385458,15.703436 10.0849782,15.8328768 9.98749961,15.9301224 Z M22.0940647,25.2754763 L18.2052873,21.4573544 C18.2028986,21.4550692 18.2003066,21.453038 18.1979179,21.4508036 C18.1906502,21.443999 18.1831792,21.4374482 18.1756066,21.4310498 C18.1691521,21.4255655 18.1627484,21.4202335 18.1561414,21.4151046 C18.1495344,21.4100773 18.1427749,21.4053038 18.1359646,21.4005812 C18.1280362,21.3949953 18.1200062,21.3894602 18.1118745,21.3843821 C18.1059282,21.3806751 18.0997786,21.3773235 18.0936798,21.3738704 C18.0844808,21.3686907 18.0753835,21.3635111 18.0659812,21.35889 C18.0599333,21.3558939 18.0536821,21.3532533 18.0474817,21.3505111 C18.0379777,21.3462963 18.0285247,21.3420815 18.0188683,21.3384253 C18.0116006,21.3356831 18.0042821,21.3333979 17.9969127,21.3309605 C17.988222,21.3281167 17.9795312,21.3251714 17.970688,21.3227339 C17.9616415,21.3202457 17.9525442,21.318316 17.943396,21.3163355 C17.9360267,21.3147105 17.9286573,21.3129332 17.921288,21.3117145 C17.9109201,21.3098863 17.9004505,21.3086676 17.8899302,21.3074996 C17.8834248,21.3067379 17.8769195,21.3058746 17.8704141,21.3053668 C17.8597413,21.3045543 17.8489668,21.3043004 17.8382431,21.3041481 C17.8314836,21.3040465 17.824775,21.3038434 17.8180155,21.303945 C17.8081559,21.3041481 17.7982454,21.304859 17.7883349,21.3056207 C17.780254,21.3062301 17.7722239,21.3068395 17.7641939,21.3078043 C17.7557573,21.3088199 17.7473206,21.3102418 17.7388332,21.3116637 C17.7291768,21.3133394 17.7195204,21.3151168 17.709864,21.3173004 C17.7066114,21.3180621 17.7033587,21.3183668 17.7001568,21.3191793 C16.0756993,21.7199937 14.400622,21.2547382 13.2194432,20.0744861 L12.2875515,19.1433657 L11,17.8569305 C11.1532824,17.7812668 11.2969592,17.6800095 11.4243218,17.5528031 C11.5504138,17.4267647 11.6523648,17.283156 11.7286503,17.1277153 L11.8473221,17.246289 L11.9940483,17.3934523 C11.9989273,17.3983273 12.0038571,17.4029484 12.008787,17.407671 L12.2191945,17.6178536 C12.3240933,17.7226148 12.4615188,17.77497 12.5989444,17.77497 C12.603366,17.77497 12.6077368,17.7744114 12.6122092,17.7743098 C12.7760119,17.8286963 12.947184,17.8560165 13.1183053,17.8560165 C13.5263128,17.8559657 13.9341679,17.7015407 14.2426131,17.3934523 C14.3795304,17.2566483 14.4880884,17.0991764 14.566051,16.9283999 C14.8219451,17.0871413 15.1132629,17.1669691 15.4048857,17.1669691 C15.8121309,17.1669691 16.2195286,17.0120362 16.5295492,16.7022721 C16.8066366,16.4247032 16.9683556,16.063244 16.9915309,15.6758865 C17.1667688,15.6651717 17.3405329,15.6257149 17.5051996,15.5574652 C17.3652329,15.9399477 17.2917427,16.3479223 17.2917427,16.7672718 C17.2917427,17.7064664 17.6577704,18.5892434 18.3225361,19.2531034 C18.4274349,19.3578138 18.5648096,19.410169 18.7022352,19.410169 C18.8397624,19.410169 18.9772388,19.3576615 19.0821376,19.2528495 C19.2918335,19.0432255 19.2917319,18.7033991 19.0819343,18.4938259 C18.6202067,18.0327851 18.365939,17.419503 18.365939,16.7671702 C18.365939,16.1147359 18.6202067,15.5013522 19.0828999,15.0391435 L19.2074672,14.9141207 C19.4164517,14.7043952 19.4160451,14.3651781 19.2065016,14.1559095 L18.2424389,13.1931017 C18.2143338,13.1650199 18.1837383,13.1410512 18.1515673,13.1204849 C18.1170076,13.0760515 18.0802117,13.0329892 18.0407222,12.9919582 C18.0311166,12.9814973 18.0229849,12.97322 18.0170895,12.967431 L17.9281491,12.8790213 L17.9254555,12.8761775 C17.9235242,12.8740955 17.9214913,12.872115 17.9195092,12.8700838 C17.9193567,12.8699315 17.9192042,12.8697283 17.919001,12.8694744 C17.8218273,12.7699944 17.7699369,12.6385224 17.7726814,12.4993825 C17.7754766,12.3604457 17.8328559,12.2310557 17.934502,12.134978 C18.1349481,11.9452094 18.4640275,11.9569398 18.6684378,12.1613333 L19.9036924,13.3951086 C21.0876664,14.578052 21.5583388,16.3193326 21.1320858,17.9397036 C20.9206619,18.7440746 20.4959335,19.4823289 19.9035907,20.0745877 C19.6938948,20.2842117 19.6939964,20.6240381 19.9038448,20.8335605 C20.0086928,20.938271 20.1460676,20.9906262 20.2834931,20.9906262 C20.4210712,20.9906262 20.5585475,20.9381186 20.6633955,20.8332558 C21.176251,20.3205201 21.5862407,19.7180035 21.8746616,19.0606434 L25.0852561,22.2867097 L22.0940647,25.2754763 Z" id="Shape"></path>
        </g>
    </g>
</svg>