<?xml version="1.0" encoding="UTF-8"?>
<svg width="29px" height="29px" viewBox="0 0 29 29" version="1.1" xmlns="http://www.w3.org/2000/svg" xmlns:xlink="http://www.w3.org/1999/xlink">
    <!-- Generator: Sketch 50.2 (55047) - http://www.bohemiancoding.com/sketch -->
    <title>save-time</title>
    <desc>Created with Sketch.</desc>
    <defs></defs>
    <g id="Page-1" stroke="none" stroke-width="1" fill="none" fill-rule="evenodd">
        <g id="Features-2" transform="translate(-528.000000, -1035.000000)" fill="#FFFFFF" fill-rule="nonzero">
            <g id="save-time" transform="translate(528.000000, 1035.000000)">
                <path d="M16.25,6 L15.5,6 L15.5,5 C15.5,4.44773333 15.1642,4 14.75,4 C14.3358,4 14,4.44773333 14,5 L14,7 C14,7.55226667 14.3358,8 14.75,8 L16.25,8 C16.6642,8 17,7.55226667 17,7 C17,6.44773333 16.6642,6 16.25,6 Z" id="Shape"></path>
                <path d="M28.1503906,12.6875 C27.6811797,12.6875 27.3007812,13.0932583 27.3007812,13.59375 C27.3007812,14.7953771 26.5658691,15.8167208 25.5505293,16.1750521 C25.2153867,12.6968042 23.0794121,9.78846667 20.1573223,8.30046458 C20.3452559,7.68385208 20.4472656,7.0263375 20.4472656,6.34375 C20.4472656,2.84580625 17.7793223,0 14.5,0 C11.2206777,0 8.55273437,2.84580625 8.55273437,6.34375 C8.55273437,6.7762125 8.59362891,7.19864583 8.67133984,7.60700208 C8.21374023,7.74293958 7.76237109,7.91651667 7.32057422,8.12809583 C6.41217187,7.56017917 5.3320918,7.25 4.24804687,7.25 C2.66131641,7.25 1.37285547,7.91053542 0.248765625,9.1099875 C-0.0828652344,9.46390833 -0.0828652344,10.0375646 0.248765625,10.391425 L2.56451758,13.0796042 C2.34050391,13.5870438 2.16350195,14.0891063 2.03050977,14.5944312 C0.863542969,14.9209229 0,16.0556688 0,17.4013896 L0,19.03125 C0,19.8952687 0.585777344,20.7601938 1.52873047,21.2884771 C2.30991797,21.7261354 2.99980078,22.3523542 3.52372656,23.0994062 C4.39604883,24.3431437 5.53945312,25.3647896 6.85351562,26.0797 L6.85351562,28.09375 C6.85351562,28.5942417 7.23391406,29 7.703125,29 L11.1015625,29 C11.5707734,29 11.9511719,28.5942417 11.9511719,28.09375 L11.9511719,27.1875 L15.3496094,27.1875 L15.3496094,28.09375 C15.3496094,28.5942417 15.7300078,29 16.1992187,29 L19.5976562,29 C20.0668672,29 20.4472656,28.5942417 20.4472656,28.09375 L20.4472656,26.0958917 C23.3783613,24.5055438 25.2912285,21.4482187 25.5656523,18.0407187 C27.5199805,17.6344771 29,15.7953937 29,13.59375 C29,13.0932583 28.6196016,12.6875 28.1503906,12.6875 Z M14.5,1.8125 C16.842373,1.8125 18.7480469,3.84521875 18.7480469,6.34375 C18.7480469,8.84228125 16.842373,10.875 14.5,10.875 C12.157627,10.875 10.2519531,8.84228125 10.2519531,6.34375 C10.2519531,3.84521875 12.157627,1.8125 14.5,1.8125 Z M19.2573027,24.6917479 C18.9479316,24.8360229 18.7480469,25.1619708 18.7480469,25.5221146 L18.7480469,27.1875 L17.0488281,27.1875 L17.0488281,26.28125 C17.0488281,25.7807583 16.6684297,25.375 16.1992187,25.375 L11.1015625,25.375 C10.6323516,25.375 10.2519531,25.7807583 10.2519531,26.28125 L10.2519531,27.1875 L8.55273437,27.1875 L8.55273437,25.50695 C8.55273437,25.1474708 8.3535293,24.8220063 8.04506445,24.6773688 C6.78509375,24.0864938 5.69209961,23.1653813 4.88429102,22.0136583 C4.20970117,21.0518854 3.3225957,20.2462896 2.31886719,19.6838708 C1.88092188,19.4385188 1.70057813,19.121875 1.69921875,19.03125 L1.69921875,17.4013896 C1.69921875,16.8317813 2.1115625,16.3637938 2.63441211,16.3171521 C3.0628418,16.3630688 3.3984375,16.7498563 3.3984375,17.21875 C3.3984375,17.7192417 3.77883594,18.125 4.24804687,18.125 C4.71725781,18.125 5.09765625,17.7192417 5.09765625,17.21875 C5.09765625,16.1797042 4.54818555,15.2753271 3.7430957,14.8178521 C3.89047461,14.3307729 4.08973633,13.8410958 4.34711133,13.3369792 C4.52728516,12.9841458 4.4680957,12.54685 4.20177148,12.2627104 L1.90612695,9.81402292 C2.59538672,9.32507083 3.40319531,9.0625 4.24804687,9.0625 C5.0789082,9.0625 5.93548437,9.32549375 6.60373047,9.78526458 C6.60548633,9.78689583 6.60718555,9.7885875 6.60894141,9.79021875 C6.64049023,9.82006458 6.688125,9.86513542 6.74997656,9.91201875 C7.00848437,10.1080708 7.347875,10.1341708 7.63005859,9.97974583 C8.15517383,9.69240417 8.69739453,9.47164167 9.24850781,9.31836458 C9.58342383,9.988325 10.0276562,10.5869937 10.5557734,11.0871833 C10.3701621,11.25345 10.2519531,11.5025479 10.2519531,11.78125 C10.2519531,12.2817417 10.6323516,12.6875 11.1015625,12.6875 L17.5333887,12.6875 C18.0025996,12.6875 18.382998,12.2817417 18.382998,11.78125 C18.382998,11.5934146 18.329416,11.4189312 18.2376582,11.2741729 C18.6849492,10.8876875 19.0787148,10.4335354 19.4053047,9.9263375 C25.7194316,13.1279375 25.1015391,21.9662313 19.2573027,24.6917479 Z" id="Shape"></path>
                <circle id="Oval" cx="8" cy="16" r="1"></circle>
            </g>
        </g>
    </g>
</svg>