<?xml version="1.0" encoding="UTF-8"?>
<svg width="60px" height="60px" viewBox="0 0 60 60" version="1.1" xmlns="http://www.w3.org/2000/svg" xmlns:xlink="http://www.w3.org/1999/xlink">
    <!-- Generator: Sketch 50.2 (55047) - http://www.bohemiancoding.com/sketch -->
    <title>Group 31</title>
    <desc>Created with Sketch.</desc>
    <defs></defs>
    <g id="Page-1" stroke="none" stroke-width="1" fill="none" fill-rule="evenodd">
        <g id="Raza---Homepage-" transform="translate(-1041.000000, -1431.000000)">
            <g id="Group-4" transform="translate(70.000000, 1288.000000)">
                <g id="Group-18" transform="translate(0.000000, 143.000000)">
                    <g id="Group-16">
                        <g id="Group-6" transform="translate(900.000000, 0.000000)">
                            <g id="Group-16-Copy-2" transform="translate(71.000000, 0.000000)">
                                <g id="Group-31">
                                    <g id="Group-30">
                                        <circle id="Oval-2" fill="#2DCF4F" cx="30" cy="30" r="30"></circle>
                                        <path d="M23.68,46.6538462 L38.28,46.6538462 C39.16,46.6538462 39.88,45.965472 39.88,45.1241259 L39.88,14.7974213 C39.88,13.9560752 39.16,13.267701 38.28,13.267701 L23.68,13.267701 C22.8,13.267701 22.08,13.9560752 22.08,14.7974213 L22.08,45.1241259 C22.08,45.965472 22.8,46.6538462 23.68,46.6538462 Z M31,45.2006119 C30.36,45.2006119 29.84,44.7034528 29.84,44.0915647 C29.84,43.4796766 30.36,42.9825175 31,42.9825175 C31.64,42.9825175 32.16,43.4796766 32.16,44.0915647 C32.16,44.7034528 31.64,45.2006119 31,45.2006119 Z M28.92,14.9121503 L33.04,14.9121503 C33.32,14.9121503 33.6,15.1416084 33.6,15.4475524 C33.6,15.7534965 33.36,15.9829545 33.04,15.9829545 L28.92,15.9829545 C28.64,15.9829545 28.36,15.7534965 28.36,15.4475524 C28.36,15.1416084 28.64,14.9121503 28.92,14.9121503 Z M23.36,17.5509178 L38.6,17.5509178 L38.6,41.3763112 L23.36,41.3763112 L23.36,17.5509178 Z" id="Shape" fill="#FFFFFF" fill-rule="nonzero"></path>
                                    </g>
                                    <path d="M34.96,32.8481206 L32.84,31.9685315 C32.68,31.8920455 32.48,31.9302885 32.36,32.0450175 L31.24,33.1158217 L31.24,33.1158217 C29.64,32.1215035 28.32,30.8212413 27.32,29.291521 L27.32,29.291521 L28.36,28.2589598 C28.48,28.1442308 28.52,27.9530157 28.44,27.8000437 L27.48,25.8878934 C27.4,25.6966783 27.16,25.6201923 26.96,25.6966783 L26.04,26.0408654 C25.64,26.1938374 25.36,26.4615385 25.2,26.8439685 L24.96,27.4176136 C24.8,27.8000437 24.84,28.2589598 25.08,28.6031469 L26.28,30.3623252 C27.28,31.8155594 28.56,33.0775787 30.12,34.0336538 L32.04,35.1809441 C32.36,35.3721591 32.8,35.4486451 33.2,35.3339161 L33.88,35.142701 C34.36,35.027972 34.72,34.683785 34.84,34.2248689 L35.16,33.2305507 C35.24,33.1540647 35.16,32.9246066 34.96,32.8481206 Z" id="Shape" fill="#FFFFFF" fill-rule="nonzero"></path>
                                </g>
                            </g>
                        </g>
                    </g>
                </g>
            </g>
        </g>
    </g>
</svg>