<?xml version="1.0" encoding="UTF-8"?>
<svg width="10px" height="14px" viewBox="0 0 10 14" version="1.1" xmlns="http://www.w3.org/2000/svg" xmlns:xlink="http://www.w3.org/1999/xlink">
    <!-- Generator: Sketch 50.2 (55047) - http://www.bohemiancoding.com/sketch -->
    <title>Fill 1</title>
    <desc>Created with Sketch.</desc>
    <defs></defs>
    <g id="Page-1" stroke="none" stroke-width="1" fill="none" fill-rule="evenodd">
        <g id="Mobile---menu" transform="translate(-335.000000, -276.000000)" fill="#0B203E">
            <path d="M347,282.996695 C346.98432,282.812283 346.9146,282.594544 346.81632,282.475954 L343.45632,278.310025 C343.12872,277.94009 342.61884,277.90704 342.275,278.17977 C341.93116,278.452499 341.869,279.010734 342.14368,279.351507 L344.41,282.163509 L333.84,282.163509 C333.37604,282.163509 333,282.536498 333,282.996695 C333,283.456891 333.37604,283.82988 333.84,283.82988 L344.41,283.82988 L342.14368,286.641883 C341.869,286.982655 341.94208,287.528392 342.275,287.813619 C342.63676,288.123565 343.18136,288.024138 343.45632,287.683365 L346.81632,283.517436 C346.95856,283.344689 346.99748,283.218044 347,282.996695" id="Fill-1" transform="translate(340.000000, 283.000000) scale(-1, 1) rotate(-270.000000) translate(-340.000000, -283.000000) "></path>
        </g>
    </g>
</svg>