<?xml version="1.0" encoding="UTF-8"?>
<svg width="46px" height="42px" viewBox="0 0 46 42" version="1.1" xmlns="http://www.w3.org/2000/svg" xmlns:xlink="http://www.w3.org/1999/xlink">
    <!-- Generator: Sketch 50.2 (55047) - http://www.bohemiancoding.com/sketch -->
    <title>Shape</title>
    <desc>Created with Sketch.</desc>
    <defs>
        <linearGradient x1="3.061617e-15%" y1="50%" x2="100%" y2="50%" id="linearGradient-1">
            <stop stop-color="#E6167F" offset="0%"></stop>
            <stop stop-color="#FF8000" offset="100%"></stop>
        </linearGradient>
    </defs>
    <g id="Page-1" stroke="none" stroke-width="1" fill="none" fill-rule="evenodd">
        <g id="Raza---Homepage-" transform="translate(-133.000000, -2143.000000)" fill="url(#linearGradient-1)" fill-rule="nonzero">
            <path d="M170.448718,2143 L141.551282,2143 C136.833333,2143 133,2146.83966 133,2151.5654 L133,2169.28692 C133,2174.01266 136.833333,2177.85232 141.551282,2177.85232 L150.515385,2177.85232 L155.233333,2184.5865 C155.410256,2184.82278 155.705128,2185 156,2185 C156.294872,2185 156.589744,2184.82278 156.766667,2184.5865 L161.484615,2177.79325 L170.448718,2177.79325 C175.166667,2177.79325 179,2173.95359 179,2169.22785 L179,2151.50633 C179,2146.83966 175.166667,2143 170.448718,2143 Z M144.028205,2164.02954 C142.023077,2164.02954 140.430769,2162.4346 140.430769,2160.42616 C140.430769,2158.41772 142.023077,2156.82278 144.028205,2156.82278 C145.974359,2156.82278 147.625641,2158.41772 147.625641,2160.42616 C147.625641,2162.4346 146.033333,2164.02954 144.028205,2164.02954 Z M155.823077,2164.02954 C153.817949,2164.02954 152.225641,2162.4346 152.225641,2160.42616 C152.225641,2158.41772 153.817949,2156.82278 155.823077,2156.82278 C157.769231,2156.82278 159.420513,2158.41772 159.420513,2160.42616 C159.420513,2162.4346 157.828205,2164.02954 155.823077,2164.02954 Z M167.617949,2163.97046 C165.612821,2163.97046 164.020513,2162.37553 164.020513,2160.36709 C164.020513,2158.35865 165.671795,2156.76371 167.617949,2156.76371 C169.564103,2156.76371 171.15641,2158.41772 171.215385,2160.36709 C171.215385,2162.37553 169.623077,2163.97046 167.617949,2163.97046 Z" id="Shape"></path>
        </g>
    </g>
</svg>