<?xml version="1.0" encoding="UTF-8"?>
<svg width="24px" height="22px" viewBox="0 0 24 22" version="1.1" xmlns="http://www.w3.org/2000/svg" xmlns:xlink="http://www.w3.org/1999/xlink">
    <!-- Generator: Sketch 50.2 (55047) - http://www.bohemiancoding.com/sketch -->
    <title>Shape</title>
    <desc>Created with Sketch.</desc>
    <defs>
        <linearGradient x1="3.061617e-15%" y1="50%" x2="100%" y2="50%" id="linearGradient-1">
            <stop stop-color="#E6167F" offset="0%"></stop>
            <stop stop-color="#FF8000" offset="100%"></stop>
        </linearGradient>
    </defs>
    <g id="Page-1" stroke="none" stroke-width="1" fill="none" fill-rule="evenodd">
        <g id="Mobile" transform="translate(-24.000000, -1966.000000)" fill="url(#linearGradient-1)" fill-rule="nonzero">
            <g id="Group-19" transform="translate(17.000000, 1661.000000)">
                <g id="Group-15">
                    <path d="M26.0712972,305 L11.3548631,305 C8.95218003,305 7,306.95218 7,309.354863 L7,318.364925 C7,320.767608 8.95218003,322.719788 11.3548631,322.719788 L15.9199611,322.719788 L18.3226442,326.143611 C18.4127448,326.263746 18.5629125,326.353846 18.7130802,326.353846 C18.8632479,326.353846 19.0134156,326.263746 19.1035162,326.143611 L21.5061993,322.689754 L26.0712972,322.689754 C28.4739803,322.689754 30.4261603,320.737574 30.4261603,318.334891 L30.4261603,309.32483 C30.4261603,306.95218 28.4739803,305 26.0712972,305 Z M12.6162718,315.69194 C11.5951315,315.69194 10.7842259,314.881034 10.7842259,313.859894 C10.7842259,312.838754 11.5951315,312.027848 12.6162718,312.027848 C13.6073786,312.027848 14.4483176,312.838754 14.4483176,313.859894 C14.4483176,314.881034 13.6374121,315.69194 12.6162718,315.69194 Z M18.6229796,315.69194 C17.6018392,315.69194 16.7909337,314.881034 16.7909337,313.859894 C16.7909337,312.838754 17.6018392,312.027848 18.6229796,312.027848 C19.6140863,312.027848 20.4550254,312.838754 20.4550254,313.859894 C20.4550254,314.881034 19.6441199,315.69194 18.6229796,315.69194 Z M24.6296873,315.661906 C23.608547,315.661906 22.7976415,314.851001 22.7976415,313.82986 C22.7976415,312.80872 23.6385805,311.997815 24.6296873,311.997815 C25.6207941,311.997815 26.4316997,312.838754 26.4617332,313.82986 C26.4617332,314.851001 25.6508277,315.661906 24.6296873,315.661906 Z" id="Shape"></path>
                </g>
            </g>
        </g>
    </g>
</svg>