<?xml version="1.0" encoding="UTF-8"?>
<svg width="25px" height="26px" viewBox="0 0 25 26" version="1.1" xmlns="http://www.w3.org/2000/svg" xmlns:xlink="http://www.w3.org/1999/xlink">
    <!-- Generator: Sketch 50.2 (55047) - http://www.bohemiancoding.com/sketch -->
    <title>Page 1</title>
    <desc>Created with Sketch.</desc>
    <defs></defs>
    <g id="Page-1" stroke="none" stroke-width="1" fill="none" fill-rule="evenodd">
        <path d="M23.1785275,20.1277346 L24.156392,19.1498701 L24.156392,20.1277346 L23.1785275,20.1277346 Z M20.9661819,17.8690092 L24.156392,14.6785214 L24.156392,17.9637129 L21.9926481,20.1274569 L20.9661819,20.1274569 C20.9661819,20.1274569 20.9661819,17.8690092 20.9661819,17.8690092 Z M20.1274569,24.1872194 L0.83872504,24.1872194 L0.83872504,4.89820978 L4.02893515,4.89820978 L4.02893515,6.96725002 L4.02893515,6.96752775 L4.02893515,20.5470971 C4.02893515,20.7787186 4.21667625,20.9664597 4.44829767,20.9664597 L20.1274569,20.9664597 L20.1274569,24.1872194 Z M4.86766019,3.11661338 L6.98224709,1.00202647 C7.02973782,0.954535749 7.06167602,0.898435597 7.08167212,0.83872504 L9.98416066,0.83872504 L6.76312323,4.05948474 L4.86766019,4.05948474 L4.86766019,3.11661338 Z M5.95939136,0.83872504 L4.86766019,1.93045621 L4.86766019,0.83872504 L5.95939136,0.83872504 Z M20.9661819,13.3412826 L24.156392,10.1982855 L24.156392,13.4929196 L20.9661819,16.6831298 L20.9661819,13.3412826 Z M20.1274569,9.76531452 L20.1274569,12.9902401 L12.8827611,20.1277346 L9.76531452,20.1277346 L20.1274569,9.76531452 Z M20.1274569,5.34284514 L20.1274569,8.57943508 L8.63747929,20.0694127 C8.61942726,20.0874647 8.60415247,20.1071831 8.58998857,20.1274569 L5.51614462,20.1274569 L20.1274569,5.34284514 Z M4.86766019,5.95494778 L4.86766019,4.89820978 L5.92439819,4.89820978 L4.86766019,5.95494778 Z M10.3954692,4.89820978 L4.86766019,10.4260188 L4.86766019,7.14110495 L7.11055536,4.89820978 L10.3954692,4.89820978 Z M15.7052652,4.05948474 L12.4200737,4.05948474 L15.5594604,0.920375756 C15.5844555,0.895380638 15.6041739,0.867608286 15.6213927,0.83872504 L18.9260249,0.83872504 L15.7052652,4.05948474 Z M20.2166061,4.05948474 L16.8911447,4.05948474 L20.0327532,0.918153967 C20.0569151,0.893992021 20.0766335,0.866775116 20.0935746,0.83872504 L23.3993177,0.83872504 L20.2166061,4.05948474 Z M4.86766019,16.0832469 L16.0526974,4.89820978 L19.3878791,4.89820978 L4.86766019,19.590895 L4.86766019,16.0832469 Z M4.86766019,11.6082878 C4.87432555,11.6024556 4.88182409,11.598012 4.88821173,11.5916244 L11.5816264,4.89820978 L14.8665402,4.89820978 L4.86766019,14.8970898 L4.86766019,11.6082878 Z M24.156392,4.55049993 L20.9661819,7.74071004 L20.9661819,4.49412205 L24.156392,1.26586382 L24.156392,4.55049993 Z M24.156392,9.02101548 L20.9661819,12.1640126 L20.9661819,8.9268672 L24.156392,5.73637937 L24.156392,9.02101548 Z M11.1514326,0.83872504 L14.4549539,0.83872504 L11.2341942,4.05948474 L7.94900268,4.05948474 L11.0903334,0.918153967 C11.1147731,0.893992021 11.1342138,0.866775116 11.1514326,0.83872504 Z M20.1274569,18.7074565 L20.1274569,20.1274569 L18.7074565,20.1274569 L20.1274569,18.7074565 Z M17.5876753,20.0616364 C17.5671237,20.082188 17.5490717,20.1044058 17.5337969,20.1277346 L14.0775277,20.1277346 L20.1274569,14.1675101 L20.1274569,17.5218548 L17.5876753,20.0616364 Z M24.5757546,0 L4.44829767,0 C4.21667625,0 4.02893515,0.187741102 4.02893515,0.41936252 L4.02893515,4.05948474 L0.41936252,4.05948474 C0.187741102,4.05948474 0,4.24722584 0,4.47884726 L0,24.6063041 C0,24.8379256 0.187741102,25.0256667 0.41936252,25.0256667 L20.5468194,25.0256667 C20.7784408,25.0256667 20.9661819,24.8379256 20.9661819,24.6063041 L20.9661819,20.9661819 L24.5757546,20.9661819 C24.807376,20.9661819 24.9951171,20.7784408 24.9951171,20.5468194 L24.9951171,0.41936252 C24.9951171,0.187741102 24.807376,0 24.5757546,0 Z" fill="#0B203E"></path>
    </g>
</svg>