<?xml version="1.0" encoding="UTF-8"?>
<svg width="16px" height="26px" viewBox="0 0 16 26" version="1.1" xmlns="http://www.w3.org/2000/svg" xmlns:xlink="http://www.w3.org/1999/xlink">
    <!-- Generator: Sketch 50.2 (55047) - http://www.bohemiancoding.com/sketch -->
    <title>noun_915553_cc</title>
    <desc>Created with Sketch.</desc>
    <defs></defs>
    <g id="Page-1" stroke="none" stroke-width="1" fill="none" fill-rule="evenodd">
        <g id="noun_915553_cc" fill-rule="nonzero">
            <g id="Group">
                <path d="M13.8081556,0 L7.8036,0 L1.87473333,0 C0.880088889,0 0.053,0.793866667 0.053,1.79688889 L0.053,24.1716222 C0.053,25.1755111 0.880088889,26 1.87473333,26 L7.8036,26 L13.8081556,26 C14.8039556,26 15.6223778,25.1740667 15.6223778,24.1707556 L15.6223778,1.79688889 C15.6223778,0.793288889 14.8022222,0 13.8081556,0 Z M4.64806667,0.990022222 L7.8036,0.990022222 L11.0351111,0.990022222 C11.2696889,0.990022222 11.4600667,1.18877778 11.4600667,1.42537778 C11.4600667,1.66197778 11.2696889,1.86044444 11.0351111,1.86044444 L7.8036,1.86044444 L4.64806667,1.86044444 C4.41348889,1.86044444 4.2234,1.66197778 4.2234,1.42537778 C4.2234,1.18877778 4.41348889,0.990022222 4.64806667,0.990022222 Z M7.84375556,25.3531778 C7.82988889,25.3531778 7.82035556,25.3526 7.80331111,25.3520222 C7.23997778,25.3297778 6.78844444,24.8617778 6.78844444,24.2874667 C6.78844444,23.7128667 7.23997778,23.2448667 7.80331111,23.2229111 C7.82035556,23.2223333 7.82931111,23.2217556 7.84317778,23.2217556 C8.42673333,23.2217556 8.89877778,23.6987111 8.89877778,24.2874667 C8.89906667,24.8762222 8.42731111,25.3531778 7.84375556,25.3531778 Z M14.3761111,22.6197111 L7.8036,22.6197111 L1.33335556,22.6197111 L1.33335556,2.88513333 L7.8036,2.88513333 L14.3761111,2.88513333 L14.3761111,22.6197111 Z" id="Shape" fill="#0B203E"></path>
                <polygon id="Shape" fill="#FFFFFF" points="4.997 25.477 5.343 25.073 4.997 24.763"></polygon>
            </g>
        </g>
    </g>
</svg>