<?xml version="1.0" encoding="UTF-8"?>
<svg width="11px" height="15px" viewBox="0 0 11 15" version="1.1" xmlns="http://www.w3.org/2000/svg" xmlns:xlink="http://www.w3.org/1999/xlink">
    <!-- Generator: Sketch 49.3 (51167) - http://www.bohemiancoding.com/sketch -->
    <title>Group 3</title>
    <desc>Created with Sketch.</desc>
    <defs></defs>
    <g id="recharge-/-quick-recharge" stroke="none" stroke-width="1" fill="none" fill-rule="evenodd">
        <g id="Raza---recharge-6" transform="translate(-171.000000, -908.000000)" fill="#0160E0">
            <g id="Group-3" transform="translate(171.000000, 908.000000)">
                <path d="M5.5,7 C3.56683333,7 2,5.43316667 2,3.5 C2,1.56683333 3.56683333,0 5.5,0 C7.43316667,0 9,1.56683333 9,3.5 C9,5.43316667 7.43316667,7 5.5,7 Z" id="Fill-1"></path>
                <path d="M11,14.3043478 C11,14.3043478 8.72413793,15 5.68965517,15 C2.65517241,15 0,14.3043478 0,14.3043478 L0,10.9638261 C0,8.77495652 1.93524138,7 4.32262069,7 L6.67244828,7 C9.06248276,7 11,8.77669565 11,10.9683478 L11,14.3043478 Z" id="Fill-3"></path>
            </g>
        </g>
    </g>
</svg>