<?xml version="1.0" encoding="UTF-8"?>
<svg width="24px" height="22px" viewBox="0 0 24 22" version="1.1" xmlns="http://www.w3.org/2000/svg" xmlns:xlink="http://www.w3.org/1999/xlink">
    <!-- Generator: Sketch 50.2 (55047) - http://www.bohemiancoding.com/sketch -->
    <title>Combined Shape</title>
    <desc>Created with Sketch.</desc>
    <defs>
        <linearGradient x1="3.061617e-15%" y1="50%" x2="100%" y2="50%" id="linearGradient-1">
            <stop stop-color="#E6167F" offset="0%"></stop>
            <stop stop-color="#FF8000" offset="100%"></stop>
        </linearGradient>
    </defs>
    <g id="Page-1" stroke="none" stroke-width="1" fill="none" fill-rule="evenodd">
        <g id="Mobile" transform="translate(-24.000000, -1773.000000)" fill="url(#linearGradient-1)" fill-rule="nonzero">
            <g id="Group-19" transform="translate(17.000000, 1661.000000)">
                <g id="Group-15">
                    <path d="M26.5384615,112 C29,112 31,114.011252 31,116.455696 L31,125.738397 C31,128.213783 29,130.225035 26.5384615,130.225035 L21.8615385,130.225035 L19.4,133.783404 C19.3076923,133.907173 19.1538462,134 19,134 C18.8461538,134 18.6923077,133.907173 18.6,133.783404 L16.1384615,130.255977 L11.4615385,130.255977 C9,130.255977 7,128.244726 7,125.769339 L7,116.486639 C7,114.011252 9,112 11.4615385,112 L26.5384615,112 Z M25,124.307292 L25,118.692708 C25,118.546875 24.9285714,118.401042 24.7857143,118.328125 C24.6428571,118.255208 24.5,118.255208 24.3571429,118.328125 L21.6071429,120.078125 L21.6071429,118.4375 C21.6071429,118.182292 21.4285714,118 21.1785714,118 L13.4285714,118 C13.1785714,118 13,118.182292 13,118.4375 L13,124.5625 C13,124.817708 13.1785714,125 13.4285714,125 L21.1785714,125 C21.4285714,125 21.6071429,124.817708 21.6071429,124.5625 L21.6071429,122.921875 L24.3571429,124.671875 C24.5,124.744792 24.6428571,124.744792 24.7857143,124.671875 C24.9285714,124.598958 25,124.453125 25,124.307292 Z" id="Combined-Shape"></path>
                </g>
            </g>
        </g>
    </g>
</svg>