<?xml version="1.0" encoding="UTF-8"?>
<svg width="47px" height="43px" viewBox="0 0 47 43" version="1.1" xmlns="http://www.w3.org/2000/svg" xmlns:xlink="http://www.w3.org/1999/xlink">
    <!-- Generator: Sketch 50.2 (55047) - http://www.bohemiancoding.com/sketch -->
    <title>Combined Shape</title>
    <desc>Created with Sketch.</desc>
    <defs>
        <linearGradient x1="3.061617e-15%" y1="50%" x2="100%" y2="50%" id="linearGradient-1">
            <stop stop-color="#E6167F" offset="0%"></stop>
            <stop stop-color="#FF8000" offset="100%"></stop>
        </linearGradient>
    </defs>
    <g id="Page-1" stroke="none" stroke-width="1" fill="none" fill-rule="evenodd">
        <g id="Raza---Homepage-" transform="translate(-133.000000, -2004.000000)" fill="url(#linearGradient-1)" fill-rule="nonzero">
            <path d="M171.262821,2004 C176.083333,2004 180,2007.93108 180,2012.70886 L180,2030.85232 C180,2035.69058 176.083333,2039.62166 171.262821,2039.62166 L162.103846,2039.62166 L157.283333,2046.57665 C157.102564,2046.81857 156.801282,2047 156.5,2047 C156.198718,2047 155.897436,2046.81857 155.716667,2046.57665 L150.896154,2039.68214 L141.737179,2039.68214 C136.916667,2039.68214 133,2035.75105 133,2030.9128 L133,2012.76934 C133,2007.93108 136.916667,2004 141.737179,2004 L171.262821,2004 Z M168.25,2028.05516 L168.25,2017.0812 C168.25,2016.79616 168.110119,2016.51113 167.830357,2016.36861 C167.550595,2016.22609 167.270833,2016.22609 166.991071,2016.36861 L161.605655,2019.78906 L161.605655,2016.58239 C161.605655,2016.08357 161.255952,2015.72727 160.766369,2015.72727 L145.589286,2015.72727 C145.099702,2015.72727 144.75,2016.08357 144.75,2016.58239 L144.75,2028.55398 C144.75,2029.05279 145.099702,2029.40909 145.589286,2029.40909 L160.766369,2029.40909 C161.255952,2029.40909 161.605655,2029.05279 161.605655,2028.55398 L161.605655,2025.3473 L166.991071,2028.76776 C167.270833,2028.91027 167.550595,2028.91027 167.830357,2028.76776 C168.110119,2028.62524 168.25,2028.3402 168.25,2028.05516 Z" id="Combined-Shape"></path>
        </g>
    </g>
</svg>