<svg xmlns="http://www.w3.org/2000/svg" width="23.558" height="24.011" viewBox="0 0 23.558 24.011">
  <g id="GPay-Light-themed-buttons" transform="translate(-49.29 -130.773)">
    <g id="GPAY---SVGs" transform="translate(49.29 130.773)">
      <g id="GPay-Brand-Mark" transform="translate(0 0)">
        <g id="GPay">
          <g id="G">
            <path id="Fill-8" d="M119.695,181.4a14.285,14.285,0,0,0-.207-2.442H108.154v4.623h6.491a5.554,5.554,0,0,1-2.4,3.648v3h3.874a11.738,11.738,0,0,0,3.575-8.833" transform="translate(-96.136 -169.118)" fill="#4285f4"/>
            <path id="Fill-10" d="M66.3,210.536a11.5,11.5,0,0,0,7.965-2.9l-3.874-3a7.289,7.289,0,0,1-10.838-3.806H55.559v3.092A12.019,12.019,0,0,0,66.3,210.536" transform="translate(-54.279 -186.526)" fill="#34a853"/>
            <path id="Fill-12" d="M54.561,170.858a7.2,7.2,0,0,1,0-4.6V163.17H50.57a11.991,11.991,0,0,0,0,10.781Z" transform="translate(-49.29 -156.556)" fill="#fabb05"/>
            <path id="Fill-14" d="M66.3,135.525a6.527,6.527,0,0,1,4.611,1.8v0l3.43-3.427a11.554,11.554,0,0,0-8.041-3.127,12.018,12.018,0,0,0-10.738,6.614l3.991,3.093a7.188,7.188,0,0,1,6.747-4.955" transform="translate(-54.279 -130.773)" fill="#e94235"/>
          </g>
        </g>
      </g>
    </g>
  </g>
</svg>
