<svg xmlns="http://www.w3.org/2000/svg" xmlns:xlink="http://www.w3.org/1999/xlink" width="50.854" height="20.804" viewBox="0 0 50.854 20.804">
  <defs>
    <clipPath id="clip-path">
      <rect y="1" width="23" height="17" fill="none"/>
    </clipPath>
  </defs>
  <g id="Group_227" data-name="Group 227" transform="translate(-246.146 -230.804)">
    <g id="Scroll_Group_4" data-name="Scroll Group 4" transform="translate(274 233)" clip-path="url(#clip-path)" style="isolation: isolate">
      <text id="Pay" transform="translate(0 13)" fill="#253853" font-size="13" font-family="Roboto-Medium, Roboto" font-weight="500" letter-spacing="0.02em"><tspan x="0" y="0">Pay</tspan></text>
    </g>
    <g id="GPay-Light-themed-buttons" transform="translate(196.856 100.031)">
      <g id="GPAY---SVGs" transform="translate(49.29 130.773)">
        <g id="GPay-Brand-Mark" transform="translate(0 0)">
          <g id="GPay">
            <g id="G">
              <path id="Fill-8" d="M118.153,181.071a12.378,12.378,0,0,0-.179-2.116h-9.82v4.006h5.624a4.812,4.812,0,0,1-2.079,3.161v2.6h3.357a10.17,10.17,0,0,0,3.1-7.653" transform="translate(-97.741 -170.432)" fill="#4285f4"/>
              <path id="Fill-10" d="M64.863,209.24a9.968,9.968,0,0,0,6.9-2.512l-3.357-2.6a6.316,6.316,0,0,1-9.391-3.3H55.559v2.679a10.414,10.414,0,0,0,9.3,5.732" transform="translate(-54.45 -188.436)" fill="#34a853"/>
              <path id="Fill-12" d="M53.857,169.831a6.236,6.236,0,0,1,0-3.982v-2.68H50.4a10.389,10.389,0,0,0,0,9.341Z" transform="translate(-49.29 -157.439)" fill="#fabb05"/>
              <path id="Fill-14" d="M64.863,134.89a5.655,5.655,0,0,1,3.995,1.56v0l2.972-2.969a10.011,10.011,0,0,0-6.967-2.71,10.413,10.413,0,0,0-9.3,5.731l3.458,2.68a6.228,6.228,0,0,1,5.846-4.293" transform="translate(-54.45 -130.773)" fill="#e94235"/>
            </g>
          </g>
        </g>
      </g>
    </g>
  </g>
</svg>
