<svg xmlns="http://www.w3.org/2000/svg" width="20" height="12.361" viewBox="0 0 20 12.361">
  <g id="Group_222" data-name="Group 222" transform="translate(-287.746 -185.697)">
    <g id="Group_221" data-name="Group 221">
      <g id="Group_176" data-name="Group 176" transform="translate(287.746 185.697)">
        <rect id="Rectangle_82" data-name="Rectangle 82" width="5.408" height="9.717" transform="translate(7.296 1.322)" fill="#ff5f00"/>
        <path id="Path_111" data-name="Path 111" d="M7.64,6.18A6.2,6.2,0,0,1,9.991,1.322,6.178,6.178,0,1,0,6.18,12.361a6.142,6.142,0,0,0,3.811-1.322A6.171,6.171,0,0,1,7.64,6.18Z" fill="#eb001b"/>
        <path id="Path_112" data-name="Path 112" d="M137.974,6.18a6.174,6.174,0,0,1-9.991,4.858,6.194,6.194,0,0,0,0-9.717,6.174,6.174,0,0,1,9.991,4.858Z" transform="translate(-117.974)" fill="#f79e1b"/>
      </g>
    </g>
  </g>
</svg>
