<svg id="Group_178" data-name="Group 178" xmlns="http://www.w3.org/2000/svg" width="24" height="18.623" viewBox="0 0 24 18.623">
  <path id="Path_118" data-name="Path 118" d="M16.1,171.355v-1.236a.725.725,0,0,0-.783-.783.813.813,0,0,0-.7.35.72.72,0,0,0-.659-.35.665.665,0,0,0-.577.288v-.247h-.433v1.978h.433v-1.092c0-.35.185-.515.474-.515s.433.185.433.515v1.092h.433v-1.092a.456.456,0,0,1,.474-.515c.288,0,.433.185.433.515v1.092Zm6.407-1.978h-.7v-.6h-.433v.6h-.391v.391h.391v.906c0,.453.185.721.68.721a1.152,1.152,0,0,0,.536-.144l-.124-.371a.678.678,0,0,1-.371.1c-.206,0-.288-.124-.288-.33v-.886h.7v-.391Zm3.667-.041a.581.581,0,0,0-.515.288v-.247H25.23v1.978h.433v-1.112c0-.33.144-.515.412-.515a1.2,1.2,0,0,1,.268.041l.124-.412a1.363,1.363,0,0,0-.288-.021Zm-5.542.206a1.414,1.414,0,0,0-.8-.206c-.494,0-.824.247-.824.639,0,.33.247.515.68.577l.206.021c.227.041.35.1.35.206,0,.144-.165.247-.453.247a1.138,1.138,0,0,1-.659-.206l-.206.33a1.457,1.457,0,0,0,.845.247c.577,0,.906-.268.906-.639,0-.35-.268-.536-.68-.6l-.206-.021c-.185-.021-.33-.062-.33-.185,0-.144.144-.227.371-.227a1.484,1.484,0,0,1,.618.165l.185-.35Zm11.5-.206a.581.581,0,0,0-.515.288v-.247h-.433v1.978h.433v-1.112c0-.33.144-.515.412-.515a1.2,1.2,0,0,1,.268.041l.124-.412a1.363,1.363,0,0,0-.288-.021Zm-5.521,1.03a.99.99,0,0,0,1.051,1.03,1.025,1.025,0,0,0,.7-.227l-.206-.35a.833.833,0,0,1-.515.185.585.585,0,0,1-.6-.639.608.608,0,0,1,.6-.639.832.832,0,0,1,.515.185l.206-.35a1.025,1.025,0,0,0-.7-.227.989.989,0,0,0-1.051,1.03Zm4,0v-.989h-.433v.247a.745.745,0,0,0-.618-.288,1.031,1.031,0,0,0,0,2.06.693.693,0,0,0,.618-.288v.247h.433Zm-1.586,0a.6.6,0,1,1,1.195,0,.6.6,0,1,1-1.195,0Zm-5.171-1.03a1.031,1.031,0,0,0,.021,2.06,1.26,1.26,0,0,0,.8-.268l-.206-.309a.984.984,0,0,1-.577.206.556.556,0,0,1-.6-.474h1.463v-.165a.91.91,0,0,0-.906-1.051Zm0,.371a.482.482,0,0,1,.494.474h-1.03a.522.522,0,0,1,.536-.474Zm10.733.659V168.6H34.15v1.03a.744.744,0,0,0-.618-.288,1.031,1.031,0,0,0,0,2.06.693.693,0,0,0,.618-.288v.247h.433Zm-1.586,0a.6.6,0,1,1,1.195,0,.6.6,0,1,1-1.195,0Zm-14.462,0v-.989H18.1v.247a.745.745,0,0,0-.618-.288,1.031,1.031,0,0,0,0,2.06.693.693,0,0,0,.618-.288v.247h.433Zm-1.607,0a.6.6,0,1,1,1.195,0,.6.6,0,1,1-1.195,0Z" transform="translate(-11.737 -152.774)"/>
  <rect id="Rectangle_85" data-name="Rectangle 85" width="6.489" height="11.66" transform="translate(8.755 1.586)" fill="#ff5f00"/>
  <path id="Path_119" data-name="Path 119" d="M9.167,7.416a7.436,7.436,0,0,1,2.822-5.83A7.413,7.413,0,1,0,7.416,14.832a7.37,7.37,0,0,0,4.573-1.586A7.405,7.405,0,0,1,9.167,7.416Z" fill="#eb001b"/>
  <path id="Path_120" data-name="Path 120" d="M139.972,7.416a7.408,7.408,0,0,1-11.989,5.83,7.433,7.433,0,0,0,0-11.66,7.408,7.408,0,0,1,11.989,5.83Z" transform="translate(-115.973)" fill="#f79e1b"/>
</svg>
