<svg xmlns="http://www.w3.org/2000/svg" width="20.225" height="24" viewBox="0 0 20.225 24">
  <g id="Group_172" data-name="Group 172" transform="translate(-0.002)">
    <path id="Path_99" data-name="Path 99" d="M31.5,32.33h6.769c3.635,0,5,1.84,4.791,4.543-.349,4.463-3.047,6.932-6.626,6.932H34.631c-.491,0-.821.325-.954,1.206l-.767,5.12c-.051.332-.225.524-.488.55H28.169c-.4,0-.542-.306-.437-.968L30.326,33.3A1.032,1.032,0,0,1,31.5,32.33Z" transform="translate(-22.858 -26.681)" fill="#009ee3" fill-rule="evenodd"/>
    <path id="Path_100" data-name="Path 100" d="M4.412,0h6.776c1.908,0,4.173.061,5.686,1.4a4.593,4.593,0,0,1,1.421,3.844c-.416,5.174-3.51,8.073-7.662,8.073H7.291c-.57,0-.945.377-1.106,1.4l-.933,5.941c-.061.384-.227.612-.524.64H.547c-.463,0-.627-.349-.507-1.122L3.045,1.129A1.2,1.2,0,0,1,4.412,0Z" transform="translate(0)" fill="#113984" fill-rule="evenodd"/>
    <path id="Path_101" data-name="Path 101" d="M35.95,40.782l1.183-7.491a1.035,1.035,0,0,1,1.179-.972h6.769a6.6,6.6,0,0,1,2.736.5c-.68,4.606-3.659,7.164-7.559,7.164H36.923A.986.986,0,0,0,35.95,40.782Z" transform="translate(-29.667 -26.673)" fill="#172c70" fill-rule="evenodd"/>
  </g>
</svg>
