<svg xmlns="http://www.w3.org/2000/svg" width="76.069" height="18.43" viewBox="0 0 76.069 18.43">
  <g id="Group_177" data-name="Group 177" transform="translate(-0.002)">
    <path id="Path_113" data-name="Path 113" d="M30.62,32.33h5.2c2.791,0,3.842,1.413,3.679,3.489-.268,3.427-2.34,5.323-5.088,5.323H33.022c-.377,0-.631.25-.733.926L31.7,46c-.039.255-.173.4-.374.423H28.06c-.307,0-.416-.235-.335-.743l1.991-12.6A.792.792,0,0,1,30.62,32.33Z" transform="translate(-23.981 -27.992)" fill="#009ee3" fill-rule="evenodd"/>
    <path id="Path_114" data-name="Path 114" d="M173.332,30.59c1.754,0,3.372.951,3.151,3.322-.268,2.818-1.778,4.377-4.16,4.384h-2.081c-.3,0-.444.244-.522.745l-.4,2.559c-.06.386-.259.577-.551.577H166.83c-.309,0-.416-.2-.348-.639l1.6-10.256c.079-.5.268-.692.613-.692h4.639Zm-3.153,5.491h1.577c.986-.038,1.641-.721,1.707-1.952a1.191,1.191,0,0,0-1.291-1.3l-1.484.007-.509,3.247Zm11.568,5.311c.177-.161.357-.244.331-.046l-.063.475c-.032.248.066.38.3.38h1.72c.29,0,.431-.117.5-.565l1.06-6.653c.054-.334-.028-.5-.282-.5H183.42c-.17,0-.254.1-.3.356l-.07.409c-.036.213-.134.251-.225.036-.321-.759-1.139-1.1-2.281-1.073a4.735,4.735,0,0,0-4.633,4.651,3.2,3.2,0,0,0,3.169,3.565,3.4,3.4,0,0,0,2.67-1.033h0Zm-1.441-1.024a1.729,1.729,0,0,1-1.773-2.027,2.469,2.469,0,0,1,2.375-2.027,1.729,1.729,0,0,1,1.773,2.027,2.468,2.468,0,0,1-2.375,2.027Zm8.655-5.9h-1.744c-.36,0-.506.268-.392.6L188.99,41.4l-2.124,3.018c-.178.252-.04.482.211.482h1.96a.6.6,0,0,0,.582-.286l6.661-9.554c.205-.294.109-.6-.228-.6H194.2c-.318,0-.445.126-.628.39l-2.778,4.025-1.241-4.035a.531.531,0,0,0-.588-.378Z" transform="translate(-144.125 -26.485)" fill="#113984" fill-rule="evenodd"/>
    <path id="Path_115" data-name="Path 115" d="M396,30.573c1.754,0,3.372.951,3.151,3.322-.268,2.818-1.778,4.377-4.16,4.384h-2.08c-.3,0-.444.244-.522.745l-.4,2.559c-.06.386-.259.577-.551.577H389.5c-.309,0-.416-.2-.348-.639l1.6-10.258c.079-.5.268-.692.613-.692H396Zm-3.153,5.491h1.577c.986-.038,1.641-.721,1.707-1.952a1.191,1.191,0,0,0-1.291-1.3l-1.484.007-.509,3.247Zm11.568,5.311c.177-.161.357-.244.331-.046l-.063.475c-.032.248.066.38.3.38h1.72c.29,0,.431-.117.5-.565l1.06-6.653c.054-.334-.028-.5-.282-.5h-1.889c-.17,0-.254.1-.3.356l-.07.409c-.036.213-.134.251-.225.036-.321-.759-1.139-1.1-2.281-1.073a4.735,4.735,0,0,0-4.633,4.651,3.2,3.2,0,0,0,3.169,3.565,3.4,3.4,0,0,0,2.67-1.033h0Zm-1.44-1.024a1.729,1.729,0,0,1-1.773-2.027,2.469,2.469,0,0,1,2.375-2.027,1.729,1.729,0,0,1,1.773,2.027,2.469,2.469,0,0,1-2.375,2.027Zm7.934,1.844h-1.986a.235.235,0,0,1-.245-.224.231.231,0,0,1,0-.044l1.744-11.051a.342.342,0,0,1,.33-.268h1.986a.235.235,0,0,1,.245.224.242.242,0,0,1,0,.044L411.24,41.926a.342.342,0,0,1-.33.271Z" transform="translate(-336.916 -26.468)" fill="#009ee3" fill-rule="evenodd"/>
    <path id="Path_116" data-name="Path 116" d="M3.388,0h5.2c1.465,0,3.2.047,4.366,1.073a3.527,3.527,0,0,1,1.091,2.952c-.319,3.973-2.7,6.2-5.884,6.2H5.6c-.437,0-.726.29-.849,1.073L4.034,15.86c-.047.3-.174.47-.4.491H.42c-.356,0-.482-.268-.389-.861L2.339.867A.923.923,0,0,1,3.388,0Z" transform="translate(0)" fill="#113984" fill-rule="evenodd"/>
    <path id="Path_117" data-name="Path 117" d="M35.95,38.818l.908-5.752a.8.8,0,0,1,.906-.746h5.2a5.07,5.07,0,0,1,2.1.382c-.522,3.537-2.81,5.5-5.8,5.5H36.7A.757.757,0,0,0,35.95,38.818Z" transform="translate(-31.125 -27.983)" fill="#172c70" fill-rule="evenodd"/>
  </g>
</svg>
