<svg xmlns="http://www.w3.org/2000/svg" width="23.996" height="7.785" viewBox="0 0 23.996 7.785">
  <g id="Group_223" data-name="Group 223" transform="translate(-39 -228)">
    <g id="Group_180" data-name="Group 180" transform="translate(27.773 176.482)">
      <g id="Group_179" data-name="Group 179" transform="translate(11.227 51.518)">
        <path id="Path_121" data-name="Path 121" d="M55.16,59.708H53.2l1.224-7.521h1.958Z" transform="translate(-44.758 -52.052)" fill="#0055a5"/>
        <path id="Path_122" data-name="Path 122" d="M18.024,52.187,16.157,57.36l-.221-1.114h0l-.659-3.382a.838.838,0,0,0-.929-.677H11.263l-.036.127a7.315,7.315,0,0,1,2.048.86l1.7,6.534h2.04l3.115-7.521Z" transform="translate(-11.227 -52.052)" fill="#0055a5"/>
        <path id="Path_123" data-name="Path 123" d="M101.049,59.708h1.8l-1.568-7.521H99.705a.9.9,0,0,0-.9.56l-2.92,6.96h2.041l.408-1.117h2.489Zm-2.155-2.66,1.029-2.814.579,2.814Z" transform="translate(-78.85 -52.052)" fill="#0055a5"/>
        <path id="Path_124" data-name="Path 124" d="M74.507,53.461l.279-1.615a5.652,5.652,0,0,0-1.761-.328c-.972,0-3.279.425-3.279,2.49,0,1.943,2.708,1.967,2.708,2.988s-2.429.838-3.231.194l-.291,1.688a5.484,5.484,0,0,0,2.21.425c1.336,0,3.352-.692,3.352-2.575,0-1.955-2.733-2.138-2.733-2.988S73.669,53,74.507,53.461Z" transform="translate(-57.323 -51.518)" fill="#0055a5"/>
      </g>
      <path id="Path_125" data-name="Path 125" d="M15.937,56.246l-.659-3.382a.838.838,0,0,0-.929-.677H11.263l-.036.127a7.592,7.592,0,0,1,2.906,1.459A5.866,5.866,0,0,1,15.937,56.246Z" transform="translate(0 -0.534)" fill="#fc9220"/>
    </g>
  </g>
</svg>
