<svg xmlns="http://www.w3.org/2000/svg" width="24.007" height="24.782" viewBox="0 0 24.007 24.782">
  <g id="Group_215" data-name="Group 215" transform="translate(-8.008 0)">
    <g id="Group_212" data-name="Group 212" transform="translate(8.008 0)">
      <g id="Group_211" data-name="Group 211" transform="translate(0)">
        <path id="Path_148" data-name="Path 148" d="M31.221,14.516H30.85v-3.34a1.568,1.568,0,0,0-.665-1.282V9.439a1.2,1.2,0,0,0-1.2-1.2h-.277l1.059-1.555a1.145,1.145,0,0,0-.3-1.589L22.281.2a1.144,1.144,0,0,0-1.589.3L14.486,9.606H12.759l.417-4.217a.125.125,0,0,1,.079-.1,2.685,2.685,0,0,0,1.31-1.064.124.124,0,0,1,.117-.055l2.708.268a.353.353,0,1,0,.069-.7l-2.708-.268a.826.826,0,0,0-.783.379,1.974,1.974,0,0,1-.963.782.825.825,0,0,0-.532.7L12.05,9.606H11.6l.659-6.67a.438.438,0,0,1,.478-.392l5.473.541a.353.353,0,1,0,.069-.7l-5.473-.541a1.145,1.145,0,0,0-1.251,1.026l-.531,5.376h-.9a1.2,1.2,0,0,0-1.2,1.2v.31a1.571,1.571,0,0,0-.916,1.426V23.213a1.571,1.571,0,0,0,1.57,1.569h19.7a1.571,1.571,0,0,0,1.569-1.569v-3.34h.371a.8.8,0,0,0,.794-.794V15.31A.8.8,0,0,0,31.221,14.516ZM28.988,8.949h0a.491.491,0,0,1,.49.49v.18a1.574,1.574,0,0,0-.2-.013h-1.5l.448-.657ZM21.275.9a.435.435,0,0,1,.28-.183.444.444,0,0,1,.082-.008.435.435,0,0,1,.245.076l7.189,4.9a.438.438,0,0,1,.115.608l-2.26,3.316h-.542L27.493,7.98a.826.826,0,0,0,.039-.876A1.974,1.974,0,0,1,27.3,5.886a.826.826,0,0,0-.357-.793l-3.727-2.54a.826.826,0,0,0-.868-.043,1.974,1.974,0,0,1-1.22.225.836.836,0,0,0-.8.356L15.883,9.606h-.542Zm.156,6a2.914,2.914,0,0,0-2.9,2.711h-1.79l4.167-6.115h0a.126.126,0,0,1,.1-.056h.016a2.685,2.685,0,0,0,1.659-.306.125.125,0,0,1,.129.008l3.727,2.54a.125.125,0,0,1,.055.117,2.684,2.684,0,0,0,.322,1.657.125.125,0,0,1-.007.131L25.531,9.606h-1.2A2.914,2.914,0,0,0,21.431,6.895Zm2.195,2.711h-4.39a2.2,2.2,0,0,1,4.39,0Zm-14-.167a.491.491,0,0,1,.49-.49h.835l-.065.657H9.63Zm-.916,1.736a.864.864,0,0,1,.863-.863h19.7a.864.864,0,0,1,.863.863v.98H8.714Zm21.43,12.037a.864.864,0,0,1-.863.863H9.578a.864.864,0,0,1-.863-.863v-.98h1.9a.353.353,0,1,0,0-.706h-1.9V12.861h21.43v1.654H26.786a2.681,2.681,0,0,0-2.409,1.509l0,.009-.01.023a2.663,2.663,0,0,0-.133.341h0a2.679,2.679,0,0,0,2.558,3.473h3.358v1.654H12.88a.353.353,0,0,0,0,.706H30.144Zm1.165-4.134a.088.088,0,0,1-.088.088H26.786a1.974,1.974,0,0,1-1.734-1.033q-.023-.042-.044-.085-.042-.086-.075-.177a1.974,1.974,0,0,1,0-1.355q.033-.091.075-.177.021-.043.044-.085a1.974,1.974,0,0,1,1.734-1.033h4.435a.088.088,0,0,1,.088.088v3.769Z" transform="translate(-8.008 0)" fill="#0377e5"/>
      </g>
    </g>
    <g id="Group_214" data-name="Group 214" transform="translate(25.436 15.761)">
      <g id="Group_213" data-name="Group 213">
        <path id="Path_149" data-name="Path 149" d="M369.514,325.627a1.433,1.433,0,1,0,1.433,1.433A1.434,1.434,0,0,0,369.514,325.627Zm0,2.159a.726.726,0,1,1,.726-.726A.727.727,0,0,1,369.514,327.786Z" transform="translate(-368.081 -325.627)" fill="#0377e5"/>
      </g>
    </g>
  </g>
</svg>
