<svg id="Group_63" data-name="Group 63" xmlns="http://www.w3.org/2000/svg" xmlns:xlink="http://www.w3.org/1999/xlink" width="151.453" height="170" viewBox="0 0 151.453 170">
  <defs>
    <clipPath id="clip-path">
      <rect id="Rectangle_44" data-name="Rectangle 44" width="151.453" height="170" fill="none"/>
    </clipPath>
    <clipPath id="clip-path-3">
      <rect id="Rectangle_29" data-name="Rectangle 29" width="9.6" height="8.706" fill="none"/>
    </clipPath>
    <clipPath id="clip-path-4">
      <rect id="Rectangle_30" data-name="Rectangle 30" width="42.321" height="6.193" fill="none"/>
    </clipPath>
    <clipPath id="clip-path-5">
      <rect id="Rectangle_31" data-name="Rectangle 31" width="6.923" height="22.265" fill="none"/>
    </clipPath>
    <clipPath id="clip-path-6">
      <rect id="Rectangle_36" data-name="Rectangle 36" width="8.62" height="18.006" fill="none"/>
    </clipPath>
    <clipPath id="clip-path-7">
      <rect id="Rectangle_40" data-name="Rectangle 40" width="13.225" height="5.165" fill="none"/>
    </clipPath>
  </defs>
  <g id="Group_62" data-name="Group 62" clip-path="url(#clip-path)">
    <path id="Path_59852" data-name="Path 59852" d="M161.818,356.564v7.765h58.358l-.8-8.312Z" transform="translate(-88.327 -194.329)"/>
    <g id="Group_61" data-name="Group 61">
      <g id="Group_60" data-name="Group 60" clip-path="url(#clip-path)">
        <path id="Path_59853" data-name="Path 59853" d="M158.728,152.981l2.036-.424s4.07-4.369,6.284-3.232c0,0,1.736,1.017,0,2.574s-4.848,3.71-5.566,4.429-2.859,4.71-5.8,4.839,3.045-8.185,3.045-8.185" transform="translate(-84.535 -81.405)" fill="#fff"/>
        <path id="Path_59854" data-name="Path 59854" d="M158.728,152.981l2.036-.424s4.07-4.369,6.284-3.232c0,0,1.736,1.017,0,2.574s-4.848,3.71-5.566,4.429-2.859,4.71-5.8,4.839S158.728,152.981,158.728,152.981Z" transform="translate(-84.535 -81.405)" fill="none" stroke="#000" stroke-miterlimit="10" stroke-width="1"/>
        <path id="Path_59855" data-name="Path 59855" d="M169.582,125.252c0,.3.6,4.661.6,5.132,0,0,.043.77,1.155.727a1.424,1.424,0,0,0,1.283-1.231l3.977-7.065,3.25-5.217-1.925-7.013s-.427-.471-1.283,0-7.511,11.293-7.511,11.293Z" transform="translate(-92.317 -60.247)" fill="#263238"/>
        <path id="Path_59856" data-name="Path 59856" d="M153.274,125.6a1.323,1.323,0,0,0-.56-.159c-1.164-.064-5.375-.287-6.015-.2-.745.107-5.178,4.681-5.178,4.681s-2.766,1.56-2.837,3.192-1.667,6.632-2.305,9.221a18.209,18.209,0,0,1-1.6,4.894l8.228,2.163s-.213-.426,1.454-1.135,3.9-7.235,3.3-8.334a7.2,7.2,0,0,0-2.731-2.057l-.177-1.135,3.156-4.539,1.454.319s.071,3.014,2.2,2.979c0,0,.957-.426.745-.993a2.085,2.085,0,0,0,1.915.283c.852-.461-.461-3.972-1.1-4.788a12.228,12.228,0,0,0-2.447-1.915l1.206-.248s2.482,2.412,4.646.638a.911.911,0,0,0-.355-1.241l-3-1.631" transform="translate(-73.57 -68.353)" fill="#fff"/>
        <path id="Path_59857" data-name="Path 59857" d="M153.274,125.6a1.323,1.323,0,0,0-.56-.159c-1.164-.064-5.375-.287-6.015-.2-.745.107-5.178,4.681-5.178,4.681s-2.766,1.56-2.837,3.192-1.667,6.632-2.305,9.221a18.209,18.209,0,0,1-1.6,4.894l8.228,2.163s-.213-.426,1.454-1.135,3.9-7.235,3.3-8.334a7.2,7.2,0,0,0-2.731-2.057l-.177-1.135,3.156-4.539,1.454.319s.071,3.014,2.2,2.979c0,0,.957-.426.745-.993a2.085,2.085,0,0,0,1.915.283c.852-.461-.461-3.972-1.1-4.788a12.228,12.228,0,0,0-2.447-1.915l1.206-.248s2.482,2.412,4.646.638a.911.911,0,0,0-.355-1.241Z" transform="translate(-73.57 -68.353)" fill="none" stroke="#000" stroke-miterlimit="10" stroke-width="1"/>
        <path id="Path_59858" data-name="Path 59858" d="M154.376,151.395a9.946,9.946,0,0,1-.2,1.523c-.153.935-.38,2.223-.644,3.642l-.382,2a11.1,11.1,0,0,1-.374,1.633,3.978,3.978,0,0,1-.495,1.022c-.157.218-.269.318-.278.309a6.156,6.156,0,0,0,.613-1.381,13.127,13.127,0,0,0,.318-1.619l.365-2.006c.265-1.421.519-2.706.713-3.634a9.833,9.833,0,0,1,.363-1.491" transform="translate(-82.969 -82.638)"/>
        <path id="Path_59859" data-name="Path 59859" d="M163.236,138.733a2.331,2.331,0,0,1-.083-.509q-.07-.567-.171-1.389c-.041-.292-.088-.612-.157-.948a3.211,3.211,0,0,0-.137-.5c-.042-.142-.207-.246-.353-.361a14.683,14.683,0,0,0-2.226-1.177c-.411-.181-.817-.348-1.214-.484a3.984,3.984,0,0,0-.584-.16.887.887,0,0,0-.515.111,9.765,9.765,0,0,0-1.695,1.149c-.46.369-.823.68-1.076.893a2.369,2.369,0,0,1-.406.317,1.978,1.978,0,0,1,.344-.385c.235-.234.582-.566,1.032-.954a9.032,9.032,0,0,1,1.71-1.219,1.1,1.1,0,0,1,.639-.136,4.112,4.112,0,0,1,.625.164c.409.137.82.3,1.236.487a13.661,13.661,0,0,1,2.259,1.217,1.1,1.1,0,0,1,.418.459,3.276,3.276,0,0,1,.137.541c.062.347.1.671.13.966.058.591.085,1.07.1,1.4a2.035,2.035,0,0,1-.01.516" transform="translate(-84.397 -72.582)"/>
        <path id="Path_59860" data-name="Path 59860" d="M153.286,131.863a6.636,6.636,0,0,1,.972-.852,30.5,30.5,0,0,1,2.515-1.842,2.851,2.851,0,0,1,.806-.445,1.352,1.352,0,0,1,.455-.053,1.793,1.793,0,0,1,.421.094,10.589,10.589,0,0,1,1.3.555,5.654,5.654,0,0,1,1.123.644,9.187,9.187,0,0,1-1.193-.491c-.708-.233-1.819-1.06-2.776-.11-1.025.662-1.9,1.316-2.548,1.781a7.416,7.416,0,0,1-1.074.719" transform="translate(-83.67 -70.233)"/>
        <path id="Path_59861" data-name="Path 59861" d="M213.739,222.48c.566-6.155,3.542-55.428,2.41-57.017s-19.346-5.581-19.346-5.581l-2.759-4.9-1.055-.325-20.511,2.28-2.783,5.927L160.7,166.44s-6.5,9.722-5.736,16.331l1.713,34.456s.308,21.838-.121,29.24a3.229,3.229,0,0,0,1.485,2.91H216.18c3.493-.713-3.008-20.742-2.442-26.9" transform="translate(-84.554 -84.418)" fill="#2c448b"/>
        <path id="Path_59862" data-name="Path 59862" d="M139.746,211.077l2.484-31.083s-5.432,1.471-7.122,3.21c-1.942,2-8.68,12.816-8.68,12.816l-6.951,25.375s.28,2.954,2.375,3.165c4.323.436,8.361-4.42,10.731-6.511s7.162-6.971,7.162-6.971" transform="translate(-65.216 -98.249)" fill="#2c448b"/>
        <path id="Path_59863" data-name="Path 59863" d="M208.2,259.405s-.008-.074-.012-.219-.007-.369-.013-.644c-.006-.577-.014-1.41-.025-2.477-.018-2.162-.044-5.271-.076-9.109-.059-7.692-.14-18.318-.108-30.055s.218-22.369.55-30.057c.1-1.92.195-3.657.276-5.185.115-1.521.214-2.833.3-3.909.117-1.061.208-1.889.272-2.463.033-.273.058-.485.076-.639s.034-.217.034-.217,0,.075-.01.219-.03.368-.053.642c-.053.575-.129,1.4-.227,2.465l-.256,3.909c-.071,1.527-.152,3.264-.241,5.183-.289,7.685-.447,18.311-.48,30.051s.022,22.361.039,30.053c0,3.839,0,6.948,0,9.11-.008,1.067-.015,1.9-.019,2.477,0,.275-.008.489-.011.644s-.012.219-.012.219" transform="translate(-113.511 -95.212)" fill="#263238"/>
        <path id="Path_59864" data-name="Path 59864" d="M153.883,202.18a.371.371,0,0,1,.015.109c.006.086.013.191.022.319q.022.45.062,1.228c.056,1.087.134,2.624.232,4.515.222,3.829.528,9.084.865,14.89s.64,11.083.823,14.9c.082,1.892.149,3.429.2,4.517q.024.777.038,1.229c0,.129,0,.233,0,.32a.055.055,0,1,1-.024,0l-.027-.318-.082-1.227c-.065-1.086-.158-2.623-.271-4.513-.229-3.829-.545-9.085-.892-14.892s-.632-11.081-.8-14.9c-.08-1.907-.132-3.452-.157-4.519-.007-.518-.013-.929-.017-1.229,0-.129,0-.234,0-.32a.384.384,0,0,1,.009-.109" transform="translate(-83.991 -110.359)" fill="#263238"/>
        <path id="Path_59865" data-name="Path 59865" d="M214.577,166.163a1.981,1.981,0,0,1-.23.223l-.685.617c-.6.536-1.453,1.332-2.518,2.334s-2.337,2.211-3.833,3.507a31.986,31.986,0,0,1-5.28,3.832l-.068.038-.05-.042a1.145,1.145,0,0,1-.209-.226c-.059-.075-.109-.151-.159-.228-.1-.154-.193-.311-.289-.469q-.277-.476-.543-.967c-.356-.654-.707-1.326-1.06-2.006-.5-.957-.981-1.9-1.471-2.8l.212-.015-1.289,3.3c-.428,1.055-.807,2.06-1.259,3l-.055.117-.1-.088-5.974-5.149-1.668-1.461-.435-.391a.913.913,0,0,1-.142-.143.947.947,0,0,1,.164.118l.456.367,1.706,1.417,6.029,5.084-.158.028c.426-.906.812-1.936,1.231-2.985l1.279-3.3.091-.235.121.221c.5.906.977,1.849,1.476,2.806l1.057,2q.266.49.538.961a4.815,4.815,0,0,0,.58.846l-.117,0a32.5,32.5,0,0,0,5.26-3.782c1.5-1.281,2.781-2.481,3.862-3.464s1.951-1.767,2.566-2.285c.3-.263.549-.455.712-.588a1.862,1.862,0,0,1,.256-.192" transform="translate(-102.328 -90.699)" fill="#263238"/>
        <g id="Group_47" data-name="Group 47" transform="translate(85.658 78.887)" opacity="0.3">
          <g id="Group_46" data-name="Group 46">
            <g id="Group_45" data-name="Group 45" clip-path="url(#clip-path-3)">
              <path id="Path_59866" data-name="Path 59866" d="M188.609,173.7l7.43,8.705.845-.223,1.325-6.7-1.831,4.841Z" transform="translate(-188.609 -173.7)"/>
            </g>
          </g>
        </g>
        <g id="Group_50" data-name="Group 50" transform="translate(88.219 143.837)" opacity="0.3">
          <g id="Group_49" data-name="Group 49">
            <g id="Group_48" data-name="Group 48" clip-path="url(#clip-path-4)">
              <path id="Path_59867" data-name="Path 59867" d="M194.248,319.531s2.425,2.977,8.577,3.326,9.684-1.353,9.684-1.353h24.059s-.476-4.793-.818-4.793-40.879,2.393-40.879,2.393" transform="translate(-194.248 -316.712)"/>
            </g>
          </g>
        </g>
        <g id="Group_53" data-name="Group 53" transform="translate(123.258 102.522)" opacity="0.3">
          <g id="Group_52" data-name="Group 52">
            <g id="Group_51" data-name="Group 51" clip-path="url(#clip-path-5)">
              <path id="Path_59868" data-name="Path 59868" d="M271.4,225.742s1.023,11.737,2.269,15.076,4.654,7.189,4.654,7.189Z" transform="translate(-271.4 -225.742)"/>
            </g>
          </g>
        </g>
        <path id="Path_59869" data-name="Path 59869" d="M205.054,100.21l4.3-28.684c1.343-9.04-2.949-17.335-12.282-18.39l-.868-.049A16.686,16.686,0,0,0,178.595,67.15c-1.119,7.839-2.252,16.512-2.449,20.74-.406,8.756,8.515,10.62,8.515,10.62l-.321,3.559,7.829,5.686Z" transform="translate(-96.141 -28.963)" fill="#fff"/>
        <path id="Path_59870" data-name="Path 59870" d="M205.054,100.21l4.3-28.684c1.343-9.04-2.949-17.335-12.282-18.39l-.868-.049A16.686,16.686,0,0,0,178.595,67.15c-1.119,7.839-2.252,16.512-2.449,20.74-.406,8.756,8.515,10.62,8.515,10.62l-.321,3.559,7.829,5.686Z" transform="translate(-96.141 -28.963)" fill="none" stroke="#000" stroke-miterlimit="10" stroke-width="1"/>
        <path id="Path_59871" data-name="Path 59871" d="M194.644,149.856a22.407,22.407,0,0,0,11.993-2.7s-3.147,6.142-12.081,4.852Z" transform="translate(-106.197 -80.326)" fill="#c1c1c1"/>
        <path id="Path_59872" data-name="Path 59872" d="M187.1,100.708a1.262,1.262,0,0,0,1.164,1.33,1.225,1.225,0,0,0,1.392-1.052,1.263,1.263,0,0,0-1.164-1.331,1.226,1.226,0,0,0-1.393,1.053" transform="translate(-102.122 -54.392)" fill="#263238"/>
        <path id="Path_59873" data-name="Path 59873" d="M185.237,92.32c.149.172,1.164-.475,2.548-.393,1.383.061,2.357.81,2.516.654.078-.069-.067-.372-.49-.709a3.59,3.59,0,0,0-2-.725,3.466,3.466,0,0,0-2.041.516c-.444.293-.605.58-.531.658" transform="translate(-101.101 -49.749)" fill="#263238"/>
        <path id="Path_59874" data-name="Path 59874" d="M213.435,102.525a1.263,1.263,0,0,0,1.165,1.33,1.224,1.224,0,0,0,1.392-1.053,1.264,1.264,0,0,0-1.164-1.33,1.225,1.225,0,0,0-1.393,1.053" transform="translate(-116.499 -55.383)" fill="#263238"/>
        <path id="Path_59875" data-name="Path 59875" d="M215.143,94.545c.15.172,1.166-.474,2.548-.393,1.382.061,2.357.81,2.516.654.078-.069-.065-.372-.49-.709a3.59,3.59,0,0,0-2-.725,3.469,3.469,0,0,0-2.041.517c-.443.293-.6.58-.531.657" transform="translate(-117.425 -50.964)" fill="#263238"/>
        <path id="Path_59876" data-name="Path 59876" d="M198.641,103.878a9.353,9.353,0,0,0-2.223-.52c-.351-.055-.681-.142-.727-.38a1.715,1.715,0,0,1,.3-1l1.2-2.556a44.262,44.262,0,0,0,2.75-6.707,44.624,44.624,0,0,0-3.3,6.477q-.6,1.347-1.156,2.574a1.946,1.946,0,0,0-.263,1.337.876.876,0,0,0,.551.535,2.457,2.457,0,0,0,.6.114,9.333,9.333,0,0,0,2.277.131" transform="translate(-106.534 -50.605)" fill="#263238"/>
        <path id="Path_59877" data-name="Path 59877" d="M215.057,83.274c.115.373,1.506.277,3.117.558,1.618.249,2.9.785,3.134.469.105-.152-.1-.508-.61-.892a5.355,5.355,0,0,0-2.288-.925,5.418,5.418,0,0,0-2.474.144c-.61.2-.927.47-.878.647" transform="translate(-117.385 -44.98)" fill="#263238"/>
        <path id="Path_59878" data-name="Path 59878" d="M186.849,83.712c.225.319,1.2.055,2.343.1,1.149.01,2.1.323,2.346.017.107-.15-.027-.464-.434-.777a3.48,3.48,0,0,0-3.779-.1c-.423.292-.575.6-.476.753" transform="translate(-101.975 -45.004)" fill="#263238"/>
        <path id="Path_59879" data-name="Path 59879" d="M183.984,61.817s2.7-5.346,5.492-6.473c3.382-1.364,4.591,2.226,7.777,1.549s6.415-1.986,9.481.549c3.355,2.775,1.6,4.493,1.592,8.387-.053,15.789,2.64,20.405,3.92,13.038.14-.807,2.5-1.323,3.044-4.736.709-4.425,1.2-9.818.37-13.033-.7-2.71-2.156-4.636-4.836-6.821-4.23-3.448-10.3-3.856-14.443-3.683s-12.368,4.339-12.4,11.221" transform="translate(-100.426 -27.599)" fill="#263238"/>
        <path id="Path_59880" data-name="Path 59880" d="M244.2,109.687a2.433,2.433,0,0,1,2.774-2.141c1.669.249,3.483,1.28,3.172,4.646-.55,5.971-6.6,4.2-6.6,4.03,0-.117.4-4.038.653-6.534" transform="translate(-132.937 -58.689)" fill="#fff"/>
        <path id="Path_59881" data-name="Path 59881" d="M244.2,109.687a2.433,2.433,0,0,1,2.774-2.141c1.669.249,3.483,1.28,3.172,4.646-.55,5.971-6.6,4.2-6.6,4.03C243.548,116.1,243.944,112.184,244.2,109.687Z" transform="translate(-132.937 -58.689)" fill="none" stroke="#000" stroke-miterlimit="10" stroke-width="1"/>
        <path id="Path_59882" data-name="Path 59882" d="M246.935,116.43c.029-.017.1.082.274.178a1.1,1.1,0,0,0,.8.086,2.583,2.583,0,0,0,1.438-2.2,3.358,3.358,0,0,0-.162-1.515,1.216,1.216,0,0,0-.731-.868.554.554,0,0,0-.658.229c-.1.16-.069.283-.1.291s-.123-.112-.05-.354a.667.667,0,0,1,.276-.353.83.83,0,0,1,.606-.1,1.489,1.489,0,0,1,1.032,1.023,3.456,3.456,0,0,1,.218,1.7,2.722,2.722,0,0,1-1.8,2.443,1.176,1.176,0,0,1-.964-.243c-.177-.164-.2-.3-.174-.31" transform="translate(-134.784 -61.027)" fill="#263238"/>
        <path id="Path_59883" data-name="Path 59883" d="M180.243,56.5a4.28,4.28,0,0,0,5.513-1.511,3.063,3.063,0,0,0,4.618-.974c.953,1.108,2.73,1.136,4.131.655s2.632-1.362,4.042-1.816a7.206,7.206,0,0,1,4.329.025c-1.018,1.5.221,3.676,1.432,6.013.7,1.347,1.606,2.754,2.18,4.155a3.2,3.2,0,0,0,3.66,2.036c1.205-.394,1.848-1.636,2.368-2.765.959-2.085,1.937-4.4,1.268-6.585a9.81,9.81,0,0,0-2.7-4.469c-1.946-1.494-2.587-1.179-2.587-1.179a4.994,4.994,0,0,0-1.955-3.622,4.786,4.786,0,0,0-4.666-.427,5.667,5.667,0,0,0-5.353-2.926c-3.121.008-3.914,1.517-5.968,1.724-1.269.128-2.608-.425-3.8.025-2.007.758-2.08,3.653-3.789,4.926-.939.7-2.24.8-3.185,1.49-1.694,1.239-1.356,4.161.459,5.227" transform="translate(-97.531 -23.532)" fill="#263238"/>
        <path id="Path_59884" data-name="Path 59884" d="M245.269,82a7.215,7.215,0,0,0-.713,1.368,2.957,2.957,0,0,1-1.013,1.209,2.756,2.756,0,0,1-1.906.214,4.689,4.689,0,0,1-1.844-.757,7.287,7.287,0,0,1-1.2-1.126,9.255,9.255,0,0,0-1.028-1.164,5.141,5.141,0,0,0,.825,1.321,6.468,6.468,0,0,0,1.2,1.233,4.758,4.758,0,0,0,1.978.844,2.578,2.578,0,0,0,3.221-1.668A5.921,5.921,0,0,0,245.269,82" transform="translate(-129.671 -44.621)" fill="#455a64"/>
        <path id="Path_59885" data-name="Path 59885" d="M244.972,88.447a5.1,5.1,0,0,1-1.216.655,3.543,3.543,0,0,1-1.469.123,4.276,4.276,0,0,1-1.69-.626,8.3,8.3,0,0,1-2.314-2.369,6.52,6.52,0,0,0-.838-1.132,4.678,4.678,0,0,0,.619,1.267A7.334,7.334,0,0,0,240.4,88.9a4.346,4.346,0,0,0,1.849.651,3.517,3.517,0,0,0,1.595-.212c.871-.347,1.164-.883,1.129-.892" transform="translate(-129.605 -46.449)" fill="#455a64"/>
        <path id="Path_59886" data-name="Path 59886" d="M204.948,122.145a7.383,7.383,0,0,1,.348,2.011,2.251,2.251,0,0,1-.671,1.764,2.615,2.615,0,0,1-1.993.894h-.023a2.849,2.849,0,0,1-2.834-2.377l-.243-1.483c1.445-.38,5.31-.713,5.416-.81" transform="translate(-108.913 -66.672)" fill="#c1c1c1"/>
        <path id="Path_59887" data-name="Path 59887" d="M201.93,126.155c.009-.028.181.008.492.05a4.351,4.351,0,0,0,1.3.01,2.551,2.551,0,0,0,1.583-.9,3.028,3.028,0,0,0,.623-2.1A2.991,2.991,0,0,0,205.6,122l.19.092c-1.383.2-2.592.364-3.458.464a6.078,6.078,0,0,1-1.393.1,6.081,6.081,0,0,1,1.357-.324c.855-.163,2.057-.369,3.438-.59l.129-.02.061.113a3.4,3.4,0,0,1-.349,3.7,2.76,2.76,0,0,1-1.813.938,3.686,3.686,0,0,1-1.367-.126c-.31-.086-.468-.169-.461-.189" transform="translate(-109.679 -66.441)" fill="#263238"/>
        <path id="Path_59888" data-name="Path 59888" d="M173.539,269.968l2.51,19.056,9.909-.228,1.585-18.828Z" transform="translate(-94.725 -147.36)" fill="#455a64"/>
        <rect id="Rectangle_32" data-name="Rectangle 32" width="15.955" height="2.077" transform="translate(77.808 121.123)" fill="#e0e0e0"/>
        <path id="Path_59889" data-name="Path 59889" d="M174.487,263.48c.033-.1.826-1.948.826-1.948l11.13-1.486,1.189,3.435Z" transform="translate(-95.243 -141.944)" fill="#e0e0e0"/>
        <path id="Path_59890" data-name="Path 59890" d="M187.489,266.556c0,.065-3.533.118-7.89.118s-7.891-.053-7.891-.118,3.532-.118,7.891-.118,7.89.053,7.89.118" transform="translate(-93.726 -145.433)" fill="#263238"/>
        <path id="Path_59891" data-name="Path 59891" d="M198.71,292.036s-4.125-5.126-6.294-5.652a23.352,23.352,0,0,0-5.239-.407l-.49,3.253s-10.175.375-11.292.638a1.887,1.887,0,0,0-1.183,2.563c.526.723.657.657,3.089.657s5.192,0,5.258.592.066,1.117-.854,1.117-4.929.394-5.586.263-2.36.328-2.1,1.643,2.1,2.235,3.086,2.169a4.969,4.969,0,0,1,1.249,0,2.1,2.1,0,0,0,1.971,2.494,2.415,2.415,0,0,0,1.577,1.38c1.248.394,7.952,2.037,11.041,1.971a16.208,16.208,0,0,0,6.441-1.971Z" transform="translate(-94.972 -156.092)" fill="#fff"/>
        <path id="Path_59892" data-name="Path 59892" d="M198.71,292.036s-4.125-5.126-6.294-5.652a23.352,23.352,0,0,0-5.239-.407l-.49,3.253s-10.175.375-11.292.638a1.887,1.887,0,0,0-1.183,2.563c.526.723.657.657,3.089.657s5.192,0,5.258.592.066,1.117-.854,1.117-4.929.394-5.586.263-2.36.328-2.1,1.643,2.1,2.235,3.086,2.169a4.969,4.969,0,0,1,1.249,0,2.1,2.1,0,0,0,1.971,2.494,2.415,2.415,0,0,0,1.577,1.38c1.248.394,7.952,2.037,11.041,1.971a16.208,16.208,0,0,0,6.441-1.971Z" transform="translate(-94.972 -156.092)" fill="none" stroke="#000" stroke-miterlimit="10" stroke-width="1"/>
        <path id="Path_59893" data-name="Path 59893" d="M188.431,313.514a24.92,24.92,0,0,1-4.84.349,24.914,24.914,0,0,1,4.84-.349" transform="translate(-100.212 -171.11)" fill="#ff9b6c"/>
        <path id="Path_59894" data-name="Path 59894" d="M193.156,319.416a2.257,2.257,0,0,0-.77-.214c-.493-.025-1.208.045-1.983.088a20.614,20.614,0,0,1-2.83.129,14.579,14.579,0,0,1,2.814-.365,12.226,12.226,0,0,1,2.018-.019c.541.073.781.367.751.38" transform="translate(-102.385 -174.124)" fill="#ff9b6c"/>
        <path id="Path_59895" data-name="Path 59895" d="M228.419,287.141s14.053-1.429,17.554-2.322c5.084-1.3,13.585-5.152,13.585-5.152l5.447-2.67,9.8,4.88s.256,5.557-1.311,8.3a12.583,12.583,0,0,1-7.571,5.613c-2.937.718-36.83,2.064-36.83,2.064Z" transform="translate(-124.681 -151.197)" fill="#fff"/>
        <path id="Path_59896" data-name="Path 59896" d="M228.419,287.141s14.053-1.429,17.554-2.322c5.084-1.3,13.585-5.152,13.585-5.152l5.447-2.67,9.8,4.88s.256,5.557-1.311,8.3a12.583,12.583,0,0,1-7.571,5.613c-2.937.718-36.83,2.064-36.83,2.064Z" transform="translate(-124.681 -151.197)" fill="none" stroke="#000" stroke-miterlimit="10" stroke-width="1"/>
        <path id="Path_59897" data-name="Path 59897" d="M279.232,177.486s6.226,2.174,8.119,8.168c1.569,4.969,11.5,34.455,11,38.7a2.634,2.634,0,0,1,1.243,2.039c-.023,1.847-1.2,1.748-1.2,1.748-1.622-.124-14.641-2.968-18.4-1.471L271.4,200.921c0-.761,1-10.071,2.12-15.437a13.015,13.015,0,0,1,5.712-8" transform="translate(-148.142 -96.88)" fill="#2c448b"/>
        <path id="Path_59898" data-name="Path 59898" d="M266.552,191.7a3.943,3.943,0,0,1,.14-.687,6.959,6.959,0,0,1,.223-.793c.107-.3.2-.659.367-1.028a12.519,12.519,0,0,1,.546-1.206,14.187,14.187,0,0,1,.748-1.324,15.89,15.89,0,0,1,2.191-2.707,15.32,15.32,0,0,1,2.772-2.11,13.286,13.286,0,0,1,1.357-.689,10.9,10.9,0,0,1,1.235-.479,9.972,9.972,0,0,1,1.051-.3,6.076,6.076,0,0,1,.807-.162,3.984,3.984,0,0,1,.7-.083c.011.055-.988.169-2.5.7a11.417,11.417,0,0,0-1.209.5,13.919,13.919,0,0,0-1.328.7,15.887,15.887,0,0,0-2.718,2.092,16.5,16.5,0,0,0-2.173,2.655,14.967,14.967,0,0,0-.757,1.3c-.232.41-.4.815-.566,1.18-.625,1.476-.834,2.457-.885,2.443" transform="translate(-145.494 -98.321)" fill="#263238"/>
        <path id="Path_59899" data-name="Path 59899" d="M270.232,221.255a1.558,1.558,0,0,1,.1.3l.246.86.891,3.165c.759,2.671,1.857,6.346,3.142,10.384s2.5,7.679,3.369,10.316l1.025,3.126.268.853a1.547,1.547,0,0,1,.079.3,1.591,1.591,0,0,1-.124-.287l-.311-.839-1.1-3.1c-.912-2.624-2.15-6.257-3.437-10.3s-2.359-7.727-3.077-10.411c-.36-1.342-.639-2.431-.818-3.187-.084-.36-.151-.649-.2-.872a1.579,1.579,0,0,1-.055-.308" transform="translate(-147.503 -120.77)" fill="#263238"/>
        <path id="Path_59900" data-name="Path 59900" d="M307.369,279.439a3.708,3.708,0,0,1-.67-.1c-.427-.084-1.048-.191-1.817-.306a37.525,37.525,0,0,0-12.089.14c-.766.133-1.384.254-1.809.348a3.738,3.738,0,0,1-.668.117,3.671,3.671,0,0,1,.646-.206c.419-.121,1.035-.268,1.8-.423a33.122,33.122,0,0,1,12.146-.14c.769.137,1.387.269,1.809.381a3.723,3.723,0,0,1,.651.191" transform="translate(-158.467 -151.949)" fill="#263238"/>
        <path id="Path_59901" data-name="Path 59901" d="M113.893,173.689S99.971,199.131,98.716,201.92s-4.74,14.918.976,18.822a8.1,8.1,0,0,0,10.317-.7s5.159-6.135,4.74-12.548,4.1-20.868,4.1-20.868l3.271-10.776Z" transform="translate(-52.68 -94.807)" fill="#fff"/>
        <path id="Path_59902" data-name="Path 59902" d="M113.893,173.689S99.971,199.131,98.716,201.92s-4.74,14.918.976,18.822a8.1,8.1,0,0,0,10.317-.7s5.159-6.135,4.74-12.548,4.1-20.868,4.1-20.868l3.271-10.776Z" transform="translate(-52.68 -94.807)" fill="none" stroke="#000" stroke-miterlimit="10" stroke-width="1"/>
        <path id="Path_59903" data-name="Path 59903" d="M63.721,59.571l-2.807-9.392a32.7,32.7,0,1,0-7.832,8.713l-.011.015Z" transform="translate(-0.251 -0.239)" fill="#fff"/>
        <path id="Path_59904" data-name="Path 59904" d="M63.47,59.332s-.218,0-.669-.026l-2.023-.1-7.964-.438-.181-.01.111-.145.011-.015.136.135a32.687,32.687,0,0,1-14.7,6.472,31.9,31.9,0,0,1-5.052.442,35.938,35.938,0,0,1-5.418-.425A32.6,32.6,0,0,1,6.756,52.737,33.013,33.013,0,0,1,.8,40.011,32.851,32.851,0,0,1,21.111,2.175,33.405,33.405,0,0,1,36.106.149,32.853,32.853,0,0,1,64.5,24.27a35.512,35.512,0,0,1,1,5.377,42.148,42.148,0,0,1,.091,5.092,32.508,32.508,0,0,1-4.843,15.25l.01-.075,2.042,7.032.514,1.792c.114.4.162.595.162.595s-.074-.216-.2-.623l-.561-1.8c-.489-1.59-1.2-3.918-2.133-6.938l-.012-.039.022-.036a32.532,32.532,0,0,0,4.709-15.169,42.043,42.043,0,0,0-.113-5.044,35.3,35.3,0,0,0-1.01-5.32A32.561,32.561,0,0,0,36.064.576,33,33,0,0,0,21.27,2.589,32.076,32.076,0,0,0,8.457,11.538,32.411,32.411,0,0,0,27.769,64.881a35.715,35.715,0,0,0,5.362.441,31.782,31.782,0,0,0,5.006-.415,32.7,32.7,0,0,0,14.634-6.332l.6-.456-.461.591-.011.014-.07-.155,7.89.552,2.047.149c.462.035.708.06.708.06" transform="translate(0 0)" fill="#263238"/>
        <path id="Path_59905" data-name="Path 59905" d="M37.909,26.47l6.2-13.223-.155,14.6,11.319-9.225L48.793,31.711l14.2-3.4L51.481,37.293l14.27,3.1-14.27,3.1,11.513,8.982-14.2-3.4,6.475,13.088L43.949,52.933l.155,14.6-6.2-13.223-6.2,13.223.155-14.6L20.551,62.158,27.026,49.07l-14.2,3.4,11.513-8.982-14.27-3.1,14.27-3.1L12.825,28.311l14.2,3.4L20.551,18.623,31.87,27.848l-.155-14.6Z" transform="translate(-5.495 -7.231)" fill="#f5f5f5"/>
        <rect id="Rectangle_33" data-name="Rectangle 33" width="26.099" height="17.992" transform="translate(20.197 26.262) rotate(-0.098)" fill="#ffbf31"/>
        <path id="Path_59906" data-name="Path 59906" d="M55.584,36.429a2.691,2.691,0,0,0-2.149-1.186c-.8.109-1.323.873-1.657,1.6a10.085,10.085,0,0,0-.908,4,2.162,2.162,0,0,0,.6,1.793,2.418,2.418,0,0,0,1.991.16c1.828-.386,4.5-.419,6.33-.806a40.028,40.028,0,0,0-4.2-5.569" transform="translate(-27.766 -19.23)" fill="#ffbf31"/>
        <path id="Path_59907" data-name="Path 59907" d="M55.406,36.32a2.222,2.222,0,0,1,.368.349c.228.238.553.6.951,1.063a36.737,36.737,0,0,1,3,4.085l.105.166-.193.042c-1.821.394-3.987.4-6.2.8a4.838,4.838,0,0,1-1.386.149,1.5,1.5,0,0,1-1.205-.718,2.679,2.679,0,0,1-.3-1.3,9.745,9.745,0,0,1,.074-1.234,10.163,10.163,0,0,1,.532-2.213,5.925,5.925,0,0,1,.924-1.765,1.748,1.748,0,0,1,1.483-.707,2.129,2.129,0,0,1,1.135.516,4.412,4.412,0,0,1,.555.547.827.827,0,0,1,.16.219c-.022.022-.263-.269-.789-.669a2.062,2.062,0,0,0-1.074-.438,1.566,1.566,0,0,0-1.3.673,5.84,5.84,0,0,0-.85,1.71,10.125,10.125,0,0,0-.49,2.16,4.206,4.206,0,0,0,.205,2.342,1.186,1.186,0,0,0,.97.565,4.616,4.616,0,0,0,1.3-.146c2.266-.411,4.422-.4,6.207-.763l-.088.207A44.514,44.514,0,0,0,56.6,37.834l-.89-1.109a2.312,2.312,0,0,1-.3-.406" transform="translate(-27.589 -19.121)" fill="#263238"/>
        <path id="Path_59908" data-name="Path 59908" d="M72.87,42.66a19.7,19.7,0,0,1,3-4.133,5.679,5.679,0,0,1,3.215-2.135,2.039,2.039,0,0,1,1.672.451,3.055,3.055,0,0,1,.667,2.11q.147,2.631.294,5.262" transform="translate(-39.776 -19.852)" fill="#ffbf31"/>
        <path id="Path_59909" data-name="Path 59909" d="M81.711,44.027a3.266,3.266,0,0,1-.1-.718c-.043-.529-.1-1.186-.159-1.965-.059-.852-.126-1.834-.2-2.912a2.792,2.792,0,0,0-.486-1.535,1.766,1.766,0,0,0-1.54-.552,4.938,4.938,0,0,0-2.92,1.728c-.753.792-1.4,1.543-1.906,2.194s-.882,1.21-1.131,1.6a4.019,4.019,0,0,1-.4.6,2.681,2.681,0,0,1,.3-.664,14.134,14.134,0,0,1,1.06-1.672,25.256,25.256,0,0,1,1.874-2.26,8.172,8.172,0,0,1,1.316-1.161,3.816,3.816,0,0,1,1.787-.68A2.06,2.06,0,0,1,81,36.7a3.03,3.03,0,0,1,.536,1.705c.05,1.082.094,2.068.134,2.923.024.781.044,1.44.06,1.97a3.251,3.251,0,0,1-.02.725" transform="translate(-39.773 -19.664)" fill="#263238"/>
        <path id="Path_59910" data-name="Path 59910" d="M67.9,47.873a1.4,1.4,0,0,1,.59-1.539,1.62,1.62,0,0,1,1.68.012,1.932,1.932,0,0,1,.877,1.466" transform="translate(-37.033 -25.166)" fill="#ff725e"/>
        <path id="Path_59911" data-name="Path 59911" d="M70.948,47.624c-.05.007-.084-.3-.315-.69a1.673,1.673,0,0,0-1.4-.86,1.336,1.336,0,0,0-1.317.88,3.461,3.461,0,0,0-.114.732c-.026.021-.22-.281-.1-.8a1.5,1.5,0,0,1,.479-.768,1.594,1.594,0,0,1,1.054-.359,1.749,1.749,0,0,1,1.045.367,1.883,1.883,0,0,1,.549.7c.2.47.152.793.118.791" transform="translate(-36.933 -24.979)" fill="#263238"/>
        <rect id="Rectangle_34" data-name="Rectangle 34" width="3.288" height="16.353" transform="translate(40.499 27.853)" fill="#fafafa"/>
        <g id="Group_56" data-name="Group 56" transform="translate(37.711 26.219)" opacity="0.3">
          <g id="Group_55" data-name="Group 55">
            <g id="Group_54" data-name="Group 54" clip-path="url(#clip-path-6)">
              <rect id="Rectangle_35" data-name="Rectangle 35" width="8.585" height="17.992" transform="translate(0.003 0.014) rotate(-0.094)"/>
            </g>
          </g>
        </g>
        <rect id="Rectangle_37" data-name="Rectangle 37" width="30.29" height="5.165" transform="translate(18.118 22.689)" fill="#ffbf31"/>
        <rect id="Rectangle_38" data-name="Rectangle 38" width="3.365" height="5.165" transform="translate(40.926 22.689)" fill="#fafafa"/>
        <g id="Group_59" data-name="Group 59" transform="translate(35.183 22.689)" opacity="0.4">
          <g id="Group_58" data-name="Group 58">
            <g id="Group_57" data-name="Group 57" clip-path="url(#clip-path-7)">
              <rect id="Rectangle_39" data-name="Rectangle 39" width="13.225" height="5.165" transform="translate(0)"/>
            </g>
          </g>
        </g>
        <path id="Path_59912" data-name="Path 59912" d="M82.952,77.917c-.086,0-.156-3.617-.156-8.079s.07-8.08.156-8.08.156,3.617.156,8.08-.07,8.079-.156,8.079" transform="translate(-45.194 -33.71)" fill="#263238"/>
        <rect id="Rectangle_41" data-name="Rectangle 41" width="3.989" height="16.353" transform="translate(26.142 27.853)" fill="#fafafa"/>
        <rect id="Rectangle_42" data-name="Rectangle 42" width="4.022" height="5.165" transform="translate(24.576 22.689)" fill="#fafafa"/>
        <path id="Path_59913" data-name="Path 59913" d="M69.954,54.931a2.042,2.042,0,0,1-.022-.34c0-.245-.012-.575-.021-1-.009-.9-.021-2.184-.038-3.827l.081.08c-6.091.045-17.385.076-30.288.076h0c-.035.034.3-.3.156-.155V52.39c0,.863,0,1.712,0,2.541l-.154-.154,21.578.052,6.39.047,1.722.027.446.014a.617.617,0,0,1,.152.015.588.588,0,0,1-.152.015l-.446.014-1.722.027-6.39.047-21.578.052H39.51v-.155c0-.829,0-1.678,0-2.541V49.768l.157-.158h0c12.9,0,24.2.03,30.288.076h.081v.08c-.016,1.643-.029,2.928-.038,3.827-.009.422-.016.753-.021,1a2.085,2.085,0,0,1-.021.34" transform="translate(-21.546 -27.078)" fill="#263238"/>
        <path id="Path_59914" data-name="Path 59914" d="M78.954,44.286c.025.089-1.022.436-2.215,1.065s-2.079,1.286-2.137,1.215a7.805,7.805,0,0,1,4.353-2.28" transform="translate(-40.719 -24.165)" fill="#263238"/>
        <path id="Path_59915" data-name="Path 59915" d="M61.356,47.805c-.025.089-1.256-.226-2.8-.346s-2.814-.015-2.825-.108a7.029,7.029,0,0,1,2.85-.2,7.024,7.024,0,0,1,2.78.658" transform="translate(-30.417 -25.715)" fill="#263238"/>
        <path id="Path_59916" data-name="Path 59916" d="M64.3,45.716a6.83,6.83,0,0,1-1.434-.775,6.867,6.867,0,0,1-1.392-.85A5.069,5.069,0,0,1,64.3,45.716" transform="translate(-33.557 -24.058)" fill="#263238"/>
        <path id="Path_59917" data-name="Path 59917" d="M70.437,61.33a1.589,1.589,0,0,1,.023.3c.005.223.012.517.021.887.01.8.023,1.932.04,3.353.014,2.907.033,7,.056,11.855v.14h-.141l-13.065.016L44.3,77.87h-.141v-.14c.023-4.856.043-8.949.056-11.856.017-1.421.03-2.551.04-3.353.009-.37.016-.664.021-.887a1.54,1.54,0,0,1,.023-.3,1.571,1.571,0,0,1,.022.3c.005.223.013.517.022.887.01.8.023,1.932.039,3.353.014,2.907.034,7,.057,11.856l-.14-.14,13.068-.016,13.065.016-.14.14c.023-4.856.043-8.948.056-11.855.017-1.421.03-2.551.04-3.353.009-.37.016-.664.021-.887a1.588,1.588,0,0,1,.023-.3" transform="translate(-24.106 -33.477)" fill="#263238"/>
      </g>
    </g>
  </g>
</svg>
