<svg id="Group_43" data-name="Group 43" xmlns="http://www.w3.org/2000/svg" xmlns:xlink="http://www.w3.org/1999/xlink" width="170" height="147.763" viewBox="0 0 170 147.763">
  <defs>
    <clipPath id="clip-path">
      <rect id="Rectangle_28" data-name="Rectangle 28" width="170" height="147.763" fill="none"/>
    </clipPath>
    <clipPath id="clip-path-3">
      <rect id="Rectangle_25" data-name="Rectangle 25" width="170" height="48.047" fill="none"/>
    </clipPath>
    <clipPath id="clip-path-4">
      <rect id="Rectangle_26" data-name="Rectangle 26" width="141.262" height="47.314" fill="none"/>
    </clipPath>
  </defs>
  <g id="Group_42" data-name="Group 42" clip-path="url(#clip-path)">
    <g id="Group_41" data-name="Group 41" transform="translate(0 0)">
      <g id="Group_40" data-name="Group 40" clip-path="url(#clip-path)">
        <g id="Group_36" data-name="Group 36" transform="translate(0 99.715)" opacity="0.5">
          <g id="Group_35" data-name="Group 35">
            <g id="Group_34" data-name="Group 34" clip-path="url(#clip-path-3)">
              <path id="Path_302" data-name="Path 302" d="M44.34,107.4a.153.153,0,0,1-.15-.156.145.145,0,0,1,.012-.057,41.212,41.212,0,0,1,3.036-5.288,30.856,30.856,0,0,1,8.052-8.443,14.5,14.5,0,0,0-7.838.541,3.111,3.111,0,0,0-1.639,1.513.153.153,0,0,1-.287-.089,31.145,31.145,0,0,0-.153-15.761,23.888,23.888,0,0,0-2.634-6.417,8.257,8.257,0,0,0-3.633-3.485c-2.574-1.014-5.132.8-7.4,5.25a.152.152,0,0,1-.206.063.132.132,0,0,1-.04-.031,33.421,33.421,0,0,0-10.184-8.154c-3.166-1.493-5.958-1.7-7.884-.594-1.694.981-2.71,2.988-2.936,5.806a32.227,32.227,0,0,0,2.1,12.2,29.33,29.33,0,0,0,6.735,10.979,40.453,40.453,0,0,0,9.094,7.016A48.994,48.994,0,0,0,39.821,107.1a.153.153,0,0,1-.035.3H.153a.153.153,0,0,1,0-.306H38.689a51.3,51.3,0,0,1-10.452-4.539A40.765,40.765,0,0,1,19.07,95.48a29.645,29.645,0,0,1-6.806-11.1,32.513,32.513,0,0,1-2.116-12.319c.234-2.921,1.3-5.011,3.085-6.044,2.034-1.176,4.857-.975,8.162.582A33.5,33.5,0,0,1,31.53,74.668c2.93-5.633,5.787-5.942,7.677-5.195,2.643,1.04,5.052,4.819,6.447,10.106a34.367,34.367,0,0,1,1.108,7.955,27.7,27.7,0,0,1-.72,7.1,4.393,4.393,0,0,1,1.239-.894c1.882-.946,4.722-1.123,8.444-.527a.153.153,0,0,1,.119.18.155.155,0,0,1-.063.095,30.074,30.074,0,0,0-8.293,8.556,42.713,42.713,0,0,0-2.914,5.042H73.624a.153.153,0,1,1,0,.306Z" transform="translate(0 -65.266)" fill="#e5e5e5"/>
              <path id="Path_303" data-name="Path 303" d="M34.354,100.524a.16.16,0,0,1-.06-.012,32.041,32.041,0,0,1-9.372-6.588,56.568,56.568,0,0,1-7.042-8.531A71.84,71.84,0,0,1,11.9,74.85a.153.153,0,0,1,.275-.119,71.586,71.586,0,0,0,5.958,10.495,56.366,56.366,0,0,0,7,8.484,32.18,32.18,0,0,0,8.826,6.321c-1.429-2.461-2.617-7.72-3.535-15.652-.726-6.264-1-11.943-1.007-12a.153.153,0,1,1,.306-.014c0,.057.28,5.728,1.005,11.981.668,5.758,1.861,13.2,3.754,15.943a.153.153,0,0,1-.046.211.156.156,0,0,1-.078.024Z" transform="translate(6.28 -61.597)" fill="#e5e5e5"/>
              <path id="Path_304" data-name="Path 304" d="M21.707,88.285a.15.15,0,0,1-.138-.09,22.662,22.662,0,0,1-1.739-11.7,18.456,18.456,0,0,1,1.222-4.91.152.152,0,0,1,.212-.037.15.15,0,0,1,.061.16,18.132,18.132,0,0,0-1.195,4.834,22.381,22.381,0,0,0,1.719,11.538.153.153,0,0,1-.078.2.14.14,0,0,1-.066.012" transform="translate(10.386 -61.968)" fill="#e5e5e5"/>
              <path id="Path_305" data-name="Path 305" d="M19.842,91.133a.151.151,0,0,1-.131-.076,51.061,51.061,0,0,1-3.321-7.618,32.385,32.385,0,0,1-1.613-6.906,13.9,13.9,0,0,1,.688-6.672.153.153,0,0,1,.278.113c-1.623,4.006-.39,9.472.93,13.364a50.991,50.991,0,0,0,3.3,7.572.154.154,0,0,1-.066.206A.14.14,0,0,1,19.842,91.133Z" transform="translate(7.726 -62.878)" fill="#e5e5e5"/>
              <path id="Path_306" data-name="Path 306" d="M24.889,88.22h-.014a.153.153,0,0,1-.136-.162A34.948,34.948,0,0,1,25.3,84.37,9.475,9.475,0,0,1,27.486,79.3a.154.154,0,0,1,.209.053.152.152,0,0,1-.015.177c-2.021,1.7-2.637,8.489-2.642,8.556a.154.154,0,0,1-.15.136" transform="translate(13.058 -57.872)" fill="#e5e5e5"/>
              <path id="Path_307" data-name="Path 307" d="M26.065,96.27c-6.285,0-19.36-4.716-19.492-4.764a.153.153,0,0,1-.089-.2,6.528,6.528,0,0,1,2.238-2.6,15.5,15.5,0,0,1,9.46-2.316.153.153,0,0,1-.009.306,15.234,15.234,0,0,0-9.252,2.244,6.784,6.784,0,0,0-2.09,2.33c1.491.53,13.371,4.69,19.235,4.69a.153.153,0,0,1,.006.306h-.006Z" transform="translate(3.417 -54.139)" fill="#e5e5e5"/>
              <path id="Path_308" data-name="Path 308" d="M26.061,92.692a.159.159,0,0,1-.066-.015c-4.293-2.105-10.429-4.492-15.286-3.908a6.259,6.259,0,0,0-3.972,1.613.153.153,0,0,1-.232-.191,3.684,3.684,0,0,1,.944-.729,8.345,8.345,0,0,1,3.182-.987,18.038,18.038,0,0,1,6.023.428,43.272,43.272,0,0,1,9.472,3.5.153.153,0,0,1,.058.208.15.15,0,0,1-.124.078" transform="translate(3.423 -53.061)" fill="#e5e5e5"/>
              <path id="Path_309" data-name="Path 309" d="M147.349,96.825H133.843a.153.153,0,0,1-.15-.156.132.132,0,0,1,.009-.049c.011-.026,1.025-2.635,1.948-5.3,1.681-4.849,1.561-5.6,1.5-5.714a.837.837,0,0,0-.295.231c-2.279,2.357-2.866,4.965-3.545,7.983q-.105.472-.217.955c-.035.153-.124.17-.177.168-.153,0-.174-.1-.293-.82-.249-1.506-.831-5.042-2.46-5.042-.009,0-.012,0-.02.012-.072.1-.217.7.883,4,.6,1.791,1.268,3.5,1.274,3.514a.152.152,0,0,1-.092.2.124.124,0,0,1-.047.009h-2.536a.154.154,0,0,1-.153-.119,2.821,2.821,0,0,0-2.269-2.121.9.9,0,0,0-.4-.011,8.574,8.574,0,0,0,2.354,1.986.153.153,0,0,1,.031.214.147.147,0,0,1-.115.061H42.77a.153.153,0,0,1,0-.306H128.6c-.243-.171-.567-.4-.883-.652-1.176-.917-1.267-1.222-1.189-1.427.095-.238.438-.215.729-.168a3.14,3.14,0,0,1,2.486,2.247h2.2c-.2-.51-.723-1.9-1.2-3.331-1.231-3.7-.952-4.113-.845-4.267a.321.321,0,0,1,.267-.144c1.882,0,2.495,3.706,2.75,5.288l.011.066.087-.385c.658-2.935,1.282-5.706,3.621-8.125.116-.121.426-.44.669-.283.188.121.306.458-.133,2.128-.249.955-.654,2.246-1.2,3.839-.785,2.278-1.647,4.536-1.91,5.214h13.292a.153.153,0,1,1,.006.306h-.006Z" transform="translate(22.495 -54.696)" fill="#e5e5e5"/>
              <path id="Path_310" data-name="Path 310" d="M54.931,95.382H42.709a.153.153,0,0,1-.006-.306H54.931a.153.153,0,1,1,.006.306Z" transform="translate(22.46 -49.533)" fill="#e5e5e5"/>
              <path id="Path_311" data-name="Path 311" d="M37.913,95.382H33.256a.153.153,0,0,1,0-.306h4.657a.153.153,0,1,1,.006.306Z" transform="translate(17.474 -49.533)" fill="#e5e5e5"/>
              <path id="Path_312" data-name="Path 312" d="M26.281,95.382H12.047a.153.153,0,0,1,0-.306H26.283a.153.153,0,0,1,0,.306Z" transform="translate(6.279 -49.533)" fill="#e5e5e5"/>
              <path id="Path_313" data-name="Path 313" d="M27.813,96.821H19.428a.153.153,0,1,1-.006-.306h8.391a.153.153,0,0,1,0,.306" transform="translate(10.172 -48.773)" fill="#e5e5e5"/>
              <path id="Path_314" data-name="Path 314" d="M96.318,94.418H91.791a.153.153,0,0,1,0-.306h4.527a.153.153,0,0,1,0,.306" transform="translate(48.37 -50.041)" fill="#e5e5e5"/>
              <path id="Path_315" data-name="Path 315" d="M94.151,95.446H85.116a.153.153,0,0,1-.006-.306h9.042a.153.153,0,0,1,0,.306" transform="translate(44.843 -49.499)" fill="#e5e5e5"/>
            </g>
          </g>
        </g>
        <g id="Group_39" data-name="Group 39" transform="translate(10.327 22.78)" opacity="0.5">
          <g id="Group_38" data-name="Group 38">
            <g id="Group_37" data-name="Group 37" clip-path="url(#clip-path-4)">
              <path id="Path_316" data-name="Path 316" d="M110.379,24.995H107.1a.244.244,0,0,1-.243-.246.266.266,0,0,1,.008-.06,2.976,2.976,0,0,0-.328-2.4,2.739,2.739,0,0,0-2.521-.611.245.245,0,0,1-.273-.215.267.267,0,0,1,0-.078c0-.034.684-3.361-.794-5.014a3.306,3.306,0,0,0-2.936-.908c-3.789.361-5.526,5.1-5.543,5.146a.247.247,0,0,1-.128.141.244.244,0,0,1-.191,0c-.035-.014-3.541-1.348-5.031.2-1.166,1.213.434,3.638.458,3.667a.246.246,0,0,1-.069.341.241.241,0,0,1-.136.041H77.847a.245.245,0,1,1,0-.49h11.1c-.449-.81-1.3-2.713-.167-3.893,1.491-1.551,4.473-.692,5.331-.4a11.5,11.5,0,0,1,1.322-2.345,6.486,6.486,0,0,1,4.547-2.9,3.762,3.762,0,0,1,3.349,1.069,6.737,6.737,0,0,1,.966,5.115,2.98,2.98,0,0,1,2.628.811,3.152,3.152,0,0,1,.5,2.538h2.972a.245.245,0,0,1,0,.49Z" transform="translate(30.632 -14.91)" fill="#e5e5e5"/>
              <path id="Path_317" data-name="Path 317" d="M97.626,22.821H93.632a.245.245,0,1,1,0-.49h3.994a.245.245,0,1,1,0,.49" transform="translate(38.963 -10.994)" fill="#e5e5e5"/>
              <path id="Path_318" data-name="Path 318" d="M83.573,20.426H79.579a.245.245,0,1,1,0-.49h3.994a.245.245,0,1,1,0,.49" transform="translate(31.546 -12.258)" fill="#e5e5e5"/>
              <path id="Path_319" data-name="Path 319" d="M46.531,48.763H42.559a.367.367,0,0,1-.367-.37.363.363,0,0,1,.014-.1,3.523,3.523,0,0,0-.385-2.84,3.257,3.257,0,0,0-2.993-.715.368.368,0,0,1-.409-.321.391.391,0,0,1,0-.119c.009-.04.822-4.038-.947-6.015a3.936,3.936,0,0,0-3.5-1.069,7.116,7.116,0,0,0-5.027,3.225A13.154,13.154,0,0,0,27.32,43.4a.368.368,0,0,1-.471.222l-.009,0c-.043-.017-4.247-1.616-6.02.226-1.375,1.433.533,4.319.553,4.348a.368.368,0,0,1-.1.51.363.363,0,0,1-.2.063H7.1a.368.368,0,0,1,0-.735H20.431c-.562-1.047-1.493-3.282-.134-4.695,1.8-1.872,5.347-.9,6.47-.524a14.1,14.1,0,0,1,1.584-2.8,7.93,7.93,0,0,1,5.561-3.537A4.622,4.622,0,0,1,38.03,37.8c1.638,1.833,1.375,4.964,1.2,6.169a3.621,3.621,0,0,1,3.155,1.014,3.834,3.834,0,0,1,.629,3.056h3.514a.368.368,0,0,1,0,.735Z" transform="translate(-6.759 -3.562)" fill="#e5e5e5"/>
              <path id="Path_320" data-name="Path 320" d="M31.092,46.132h-4.84A.368.368,0,0,1,26.2,45.4a.244.244,0,0,1,.047,0h4.84a.368.368,0,0,1,.047.735.246.246,0,0,1-.047,0" transform="translate(3.323 1.181)" fill="#e5e5e5"/>
              <path id="Path_321" data-name="Path 321" d="M14.06,43.229H9.22a.368.368,0,0,1-.047-.735.246.246,0,0,1,.047,0h4.84a.368.368,0,0,1,.047.735.244.244,0,0,1-.047,0" transform="translate(-5.667 -0.352)" fill="#e5e5e5"/>
            </g>
          </g>
        </g>
        <path id="Path_322" data-name="Path 322" d="M65.776,87.3a23.78,23.78,0,0,0,2.238,1.965A38.986,38.986,0,0,0,72.292,91.6a23.66,23.66,0,0,1,2.7,1.568c.379.246.046.419.046.419s-4.958.564-7.065.736-6.655.82-8.016.257c-1.427-.588-1.427-.354-1.427-.354s.306-1.979.409-2.935.516-3.233.744-3.04a3.58,3.58,0,0,0,2.333.677c.82-.218,3.758-1.619,3.758-1.619" transform="translate(30.894 46.079)"/>
        <path id="Path_323" data-name="Path 323" d="M58.514,91.653a4.044,4.044,0,0,0,.2,1.934,7.652,7.652,0,0,0,3.534.524c2.234-.06,7.528-.031,8.617-.072s3.328-.153,3.731-.182.681,0,.79-.119a1.41,1.41,0,0,0,.255-1.1,3.947,3.947,0,0,0-.315-1.279c-.083.015-5.567.724-7.639.781s-6.18.2-6.949.144a8.336,8.336,0,0,1-2.229-.633" transform="translate(30.865 48.222)" fill="#fff"/>
        <path id="Path_324" data-name="Path 324" d="M37.913,64.067a9.609,9.609,0,0,0-3.15-.1c-.478.136-3.739.764-4.839,1.008s-2.489.5-2.94.539-.218-.368-.218-.368,3.514-3.667,5.077-5.092a42.2,42.2,0,0,1,6.209-5.077l1.351-.584s1.238,1.7,1.731,2.524,1.722,2.576,1.424,2.562a5.593,5.593,0,0,0-2.706,1.242c-.509.668-1.939,3.344-1.939,3.344" transform="translate(14.096 28.71)"/>
        <path id="Path_325" data-name="Path 325" d="M39.9,54.907A4.064,4.064,0,0,0,38.5,53.552a7.645,7.645,0,0,0-3.056,1.855c-1.681,1.474-5.768,4.837-6.579,5.564s-2.463,2.241-2.75,2.525-.526.432-.53.6a1.411,1.411,0,0,0,.506,1.007c.431.379,1.005.845,1.059.781s3.82-4.117,5.379-5.488a63.738,63.738,0,0,1,5.133-4.383c.7-.324,2.231-1.1,2.231-1.1" transform="translate(13.506 28.266)" fill="#fff"/>
        <path id="Path_326" data-name="Path 326" d="M77.727,38.263s3.2,7.78,4.858,13.455S86.215,65,86.215,65s2.185,8.4,2.029,11.391-3.4,3.887-3.894,3.972S66.73,79.4,65.31,78.186s-5.457-.713-5.457-.713-6.085.373-6.333,0-7.994-4.935-7.24-8.3a67.692,67.692,0,0,1,4.408-13.75c2.18-4.461,3.037-6.736,6.334-10.459a12.08,12.08,0,0,1,7.045-4.125Z" transform="translate(24.4 20.196)" fill="#1e96e0"/>
        <path id="Path_327" data-name="Path 327" d="M71.859,37.3a3.231,3.231,0,0,1-2.079,1.412,18.14,18.14,0,0,1-7.165,1.528,13.414,13.414,0,0,1-5.042-.764,11.277,11.277,0,0,0-.341,1.759,2.629,2.629,0,0,0,.1.544s8,.773,10.527.067,4.027-1.607,4.033-2.665-.035-1.881-.035-1.881" transform="translate(30.208 19.688)" fill="#34558b"/>
        <path id="Path_328" data-name="Path 328" d="M69.927,67.863s-2.47,13.793-2.8,16.9S65.656,98.1,65.536,98.757a1.756,1.756,0,0,1-1.413,1.642,7.212,7.212,0,0,1-3.349,0,3.535,3.535,0,0,1-1.179-.539s-.688-18.945-.721-21.557-.153-13-.153-13Z" transform="translate(30.993 34.466)" fill="#fff"/>
        <path id="Path_329" data-name="Path 329" d="M67.278,68.166S64.271,75.091,63,76.511s-2.371,2.9-4.012,2.631-4.227-1.183-8.8-4.278-11.951-8.508-13.481-9.85-2.75-2.272-2.661-2.7,1.222-3.208,2.6-3.861,1.96-.845,2.538-.665S55.26,65.828,55.26,65.828Z" transform="translate(17.968 30.469)" fill="#fff"/>
        <path id="Path_330" data-name="Path 330" d="M46.4,58.495a7.833,7.833,0,0,0-.4,2.733A9.25,9.25,0,0,0,48.694,65.2a19.774,19.774,0,0,0,5.052,2.816,12.07,12.07,0,0,0,5.4,0,11.908,11.908,0,0,1,4.9-.27c.471.231.863,1.134,1.124,1.134a48.838,48.838,0,0,0,5.63,1.7,35.582,35.582,0,0,0,10.814.959c3.438-.516,5.9-1.195,6.446-2.156a7.356,7.356,0,0,0,.353-3.152,10.852,10.852,0,0,1-4.032,1.491,40.585,40.585,0,0,1-8.363.6c-1.9-.064-7.355-.611-8.831-1.4a14.446,14.446,0,0,1-1.962-1.348,3.718,3.718,0,0,0-2.165-.674c-.993.082-5.01.7-6.085.7a9.664,9.664,0,0,1-3.1-.289,33.9,33.9,0,0,1-4.843-2.608c-1.386-.6-2.967-4.162-2.625-4.22" transform="translate(24.278 30.875)" fill="#fff"/>
        <path id="Path_331" data-name="Path 331" d="M49.444,35.3s-6.557-4.51-6.417-5.24.333-1.464.333-1.464a33.227,33.227,0,0,0-.171-3.636c-.153-.458-.321-.784-.458-.674a1.885,1.885,0,0,0-.295.992V26.7a32.618,32.618,0,0,0-1.705-3.453,1.465,1.465,0,0,0-1.135.128c-.306.162-.707.361-.707.594s-.134-.153-.394-.128-.7.086-.733.364-.414.055-.509.171-.37.182-.417.469-.5.434-.5.434-.42.413-.356.631a13.791,13.791,0,0,0,.927,2.686,3.4,3.4,0,0,1,.611,0c.153.028,1.019,2.539,1.343,2.7a9.183,9.183,0,0,0,1.054.373l6.493,7.754Z" transform="translate(18.99 12.236)" fill="#fff"/>
        <path id="Path_332" data-name="Path 332" d="M74.317,19.239c-.22-1.528-1.092-7.216-1-8.307s.286-3.395.289-4.266a23.846,23.846,0,0,0-.478-4.418c-.223-.426-.671-.1-.671-.1a6.13,6.13,0,0,1,.02-.73c.035-.393-.86-.483-.889-.272s-.049-.5-.06-.866-1.082-.2-1.111,0S70.256,4.6,70.256,4.6s-.588-2.8-.62-3.155-.885-.153-.886.089.634,5.958.581,6.058-1.051.322-1.092.533S66.3,7.087,66.077,6.954s-.854.339-.51.717,2.379,1.873,2.671,2.153,1.179.683,1.4.9.776.069.785.127-.263.2-.263.2v2.463l-.513,5.722a5.4,5.4,0,0,1,2.272-.619,9.786,9.786,0,0,1,2.4.619" transform="translate(34.554 0.036)" fill="#fff"/>
        <path id="Path_333" data-name="Path 333" d="M66.633,33.855a11.212,11.212,0,0,0,2.1-2.683,4.042,4.042,0,0,0,.674-1.647A3.577,3.577,0,0,0,68.99,27.4a3.122,3.122,0,0,0-1.681-1.554c-.385-.121-.419-.014-.559-.124-.739-.579.458-3.361.959-5.888A4.437,4.437,0,0,0,67.8,18.8a4.588,4.588,0,0,0-.368-1.581,5.093,5.093,0,0,0-2.157-2.292,6.049,6.049,0,0,0-2.093-.764,6.553,6.553,0,0,0-2.987.24,7.871,7.871,0,0,0-2.063.917,7.587,7.587,0,0,0-1.913,1.716,7.236,7.236,0,0,0-1.517,5.25,6.315,6.315,0,0,0,.778,2.849c.371.628.871,1.153.733,1.315-.076.09-.266-.024-.573-.024a1.932,1.932,0,0,0-1.2.57,5.081,5.081,0,0,0-1.471,1.94,4.128,4.128,0,0,0-.327,2.056,3.5,3.5,0,0,0,.449,1.438,3.707,3.707,0,0,0,1.187,1.213,5.676,5.676,0,0,0,2.1.882c3.606.735,7.631,1.575,10.253-.668" transform="translate(27.774 7.436)"/>
        <path id="Path_334" data-name="Path 334" d="M86.318,13.056c.113.791.9,6.758.811,7.3a17.348,17.348,0,0,1-1.58,3.82c-.721,1.242-3.245,5.26-4.536,7.04s-3.535,4.643-3.535,4.643a17.241,17.241,0,0,1,2.066,2.2,3.859,3.859,0,0,1,0,1.8,6.717,6.717,0,0,1-1.016,1.986c-.374.358-.544.556-.544.556s1.01,4.212,1.173,5.363a13.86,13.86,0,0,1,.327,2.793,5.462,5.462,0,0,1-1.862,1.329,34.268,34.268,0,0,1-6.174,1.5,21.708,21.708,0,0,1-4.25,0c-.851-.186-2-.489-2-.658s.371-2.5.371-2.5a13.739,13.739,0,0,0-1.352-2.254c-.717-.906-2.382-3.273-2.382-3.273L57.45,47.852s-5.855,4.095-6.7,4.166a2.889,2.889,0,0,1-1.488-.273s-6.617-5.958-6.472-6.709a3.72,3.72,0,0,1,1.04-2.309,14.632,14.632,0,0,1,2.021-1.633s4.559,3.109,5.162,2.975c1.069-.238,8.641-8.817,8.536-8.942-.046-.053,6.811-1.164,6.811-1.164l4.124-.581,1.575-.669,1.6-.278a3.354,3.354,0,0,0,.8-1.184,4.917,4.917,0,0,1,.414-1.1l6.319-9.967.194-4.018a11.216,11.216,0,0,1,.27-3.152,2.41,2.41,0,0,1,2.038-.811,8.921,8.921,0,0,1,2.625.856" transform="translate(22.583 6.434)" fill="#ffc738"/>
        <path id="Path_335" data-name="Path 335" d="M64.072,15.908c.593.229.848.471,1.257,1.415a10.919,10.919,0,0,1,.778,2.189,16.549,16.549,0,0,1,0,4.021c-.234,1.719-.223,2.42-.808,3.056s-.594.811-1.361,1a4.792,4.792,0,0,1-.984.182l.535,2.706.251,1.036,1.375-.633a10.705,10.705,0,0,1,1.115,2.371,10.387,10.387,0,0,1,.324,3.137c-.122.458-.142.526-.142.526a16.341,16.341,0,0,1-3.153-.668,21.322,21.322,0,0,1-4.623-2.113c-1.285-.917-2.2-1.726-2.2-1.726l1.4-.4a9.066,9.066,0,0,0,1.933-2.509,6.41,6.41,0,0,0,0-2.81,5.031,5.031,0,0,0-1.106-2.263c-.553-.406-.611-1.271-.878-1.059s-.8.472-1.008.364a2.143,2.143,0,0,1-1.135-1.389c-.081-.75.121-1.855.746-2s1.351-.2,1.63.358.373.325.373.325a12,12,0,0,0,2.93-.9,7.972,7.972,0,0,0,2.179-2.185,3.431,3.431,0,0,0,.578-2.029" transform="translate(29.357 8.397)" fill="#fff"/>
        <path id="Path_336" data-name="Path 336" d="M57.329,21.446h.026a7.677,7.677,0,0,0,4.535-2.17c1.024-1.346,1.59-2.513,1.014-3.827a.143.143,0,0,0-.261.115c.521,1.19.011,2.238-.981,3.541A7.428,7.428,0,0,1,57.3,21.167a.142.142,0,0,0,.026.281Z" transform="translate(30.186 8.11)" fill="#1e3659"/>
        <path id="Path_337" data-name="Path 337" d="M60.367,28a3.551,3.551,0,0,0,2.273-.694c1.083-.882,1.322-2.119,1.487-5.392a10.719,10.719,0,0,0-.339-3.231c-.339-1.222-1.257-2.969-2.139-2.866a.142.142,0,0,0-.124.153.153.153,0,0,0,.153.124c.594-.087,1.464,1.341,1.833,2.658a10.57,10.57,0,0,1,.328,3.141c-.171,3.4-.443,4.42-1.375,5.185a3.511,3.511,0,0,1-2.553.611.145.145,0,0,0-.153.13.142.142,0,0,0,.13.153,4.324,4.324,0,0,0,.478.028" transform="translate(31.542 8.346)" fill="#1e3659"/>
        <path id="Path_338" data-name="Path 338" d="M56.92,22.415a1.305,1.305,0,0,0,1-.619.142.142,0,1,0-.226-.173,1.047,1.047,0,0,1-.773.507.872.872,0,0,1-.611-.306,2.235,2.235,0,0,1-.539-1.574,1.349,1.349,0,0,1,.649-1.2,1.244,1.244,0,0,1,1.392.193,1.3,1.3,0,0,1,.383.917.142.142,0,0,0,.284,0,1.583,1.583,0,0,0-.474-1.123,1.518,1.518,0,0,0-1.719-.237,1.615,1.615,0,0,0-.8,1.429,2.5,2.5,0,0,0,.611,1.789,1.121,1.121,0,0,0,.817.4" transform="translate(29.287 9.836)" fill="#1e3659"/>
        <path id="Path_339" data-name="Path 339" d="M61.655,29.255a.16.16,0,0,0,.038,0,.144.144,0,0,0,.1-.174,36.549,36.549,0,0,1-1.131-5.337.142.142,0,0,0-.128-.153h0a.139.139,0,0,0-.153.124v.009a35.213,35.213,0,0,0,1.14,5.43.141.141,0,0,0,.139.1" transform="translate(31.867 12.452)" fill="#1e3659"/>
        <path id="Path_340" data-name="Path 340" d="M56.082,27.349a.142.142,0,0,0,.142-.142.145.145,0,0,0-.031-.089,8.286,8.286,0,0,1-1.482-8.382,7.469,7.469,0,0,1,3.262-3.525,6.852,6.852,0,0,1,6.275-.295,4.858,4.858,0,0,1,2.715,3.514,5.123,5.123,0,0,1-.174,1.956.142.142,0,0,0,.273.078,5.428,5.428,0,0,0,.183-2.073,5.135,5.135,0,0,0-2.863-3.725,7.131,7.131,0,0,0-6.544.295,7.742,7.742,0,0,0-3.389,3.667A8.568,8.568,0,0,0,55.978,27.3a.141.141,0,0,0,.1.047" transform="translate(28.441 7.395)" fill="#2a2d3a"/>
        <path id="Path_341" data-name="Path 341" d="M54.753,29.852a.142.142,0,0,0,.144-.141.143.143,0,0,0-.081-.13,3.624,3.624,0,0,1-1.626-1.528,4.288,4.288,0,0,1,1.375-5.129,4.476,4.476,0,0,1,1.619-.675.142.142,0,1,0-.067-.277A4.763,4.763,0,0,0,54.4,22.7a4.524,4.524,0,0,0-1.462,5.489,3.907,3.907,0,0,0,1.752,1.644.146.146,0,0,0,.067.021" transform="translate(27.733 11.596)" fill="#2a2d3a"/>
        <path id="Path_342" data-name="Path 342" d="M63.26,27.647a.137.137,0,0,0,.087-.031A3.075,3.075,0,0,0,64.461,25.5a3.43,3.43,0,0,0-.8-2.729,5.427,5.427,0,0,0-1.12-.961l-.081-.055a.142.142,0,0,0-.153.235l.082.055a5.194,5.194,0,0,1,1.069.917,3.189,3.189,0,0,1,.726,2.5,2.8,2.8,0,0,1-1.007,1.927.143.143,0,0,0-.023.2.144.144,0,0,0,.105.055" transform="translate(32.861 11.477)" fill="#1e3659"/>
        <path id="Path_343" data-name="Path 343" d="M56.866,29.862a.14.14,0,0,0,.066-.017,5.318,5.318,0,0,0,2.148-2.509,6.138,6.138,0,0,0-.755-5.243,4.322,4.322,0,0,0-1.276-1.375.143.143,0,1,0-.153.243,4.082,4.082,0,0,1,1.192,1.3,5.931,5.931,0,0,1,.726,4.968A5.015,5.015,0,0,1,56.8,29.6a.142.142,0,0,0,.066.269Z" transform="translate(29.937 10.924)" fill="#1e3659"/>
        <path id="Path_344" data-name="Path 344" d="M56.869,20.771a.142.142,0,0,0,.011-.284.547.547,0,0,1-.539-.518.5.5,0,0,1,.316-.39.142.142,0,0,0-.113-.26.774.774,0,0,0-.487.629.828.828,0,0,0,.8.822Z" transform="translate(29.587 10.193)" fill="#1e3659"/>
        <path id="Path_345" data-name="Path 345" d="M60.67,21.971H60.7c.941-.173,1.4-.416,1.454-.764.038-.251-.153-.432-.376-.643a2.784,2.784,0,0,1-.655-.834,2.419,2.419,0,0,1-.226-1.115.144.144,0,0,0-.134-.153h0a.13.13,0,0,0-.145.113.147.147,0,0,0,0,.026,2.706,2.706,0,0,0,.255,1.244,3.049,3.049,0,0,0,.715.917c.2.185.306.3.29.4s-.16.328-1.222.526a.142.142,0,0,0,.026.281Z" transform="translate(31.951 9.744)" fill="#1e3659"/>
        <path id="Path_346" data-name="Path 346" d="M66.613,36.008a3.42,3.42,0,0,0,1.594-.374,4.545,4.545,0,0,0,1.951-4.377,29.289,29.289,0,0,0-5.636-5.674,4.8,4.8,0,0,0-3.629.669.143.143,0,0,0,.153.243,4.614,4.614,0,0,1,3.372-.649,29.8,29.8,0,0,1,5.473,5.5,4.247,4.247,0,0,1-1.81,4.043,3.872,3.872,0,0,1-3.149,0,.142.142,0,0,0-.11.263,4.843,4.843,0,0,0,1.792.358" transform="translate(32.105 13.446)" fill="#3c3f54"/>
        <path id="Path_347" data-name="Path 347" d="M64.626,48.114a19.28,19.28,0,0,0,7.654-1.2,2.538,2.538,0,0,0,1.681-2.238A42.01,42.01,0,0,0,72.4,34.886a.153.153,0,0,0-.177-.1.143.143,0,0,0-.095.176,41.5,41.5,0,0,1,1.555,9.712,2.177,2.177,0,0,1-1.337,1.881c-3.473,1.933-12.537,1.111-13,.825-.208-.153.047-1.2.252-2.038a8.415,8.415,0,0,0,.388-2.613,10.817,10.817,0,0,0-2.194-3.347c-.684-.851-1.619-2.017-1.546-2.244a6.889,6.889,0,0,0,.784-4.348,6.046,6.046,0,0,0-3.065-4.981.093.093,0,0,1-.057-.1.091.091,0,0,1,.079-.081c1.557-.277,5.3-.927,6.492-1a.142.142,0,0,0,.134-.15v0a.133.133,0,0,0-.13-.136l-.023,0c-1.158.067-4.583.655-6.525,1a.38.38,0,0,0-.1.718,5.838,5.838,0,0,1,2.9,4.753A6.638,6.638,0,0,1,55.993,37c-.176.322.318.99,1.575,2.556a11.223,11.223,0,0,1,2.139,3.208,8.516,8.516,0,0,1-.382,2.509c-.306,1.28-.487,2.078-.145,2.335a20.278,20.278,0,0,0,5.447.5" transform="translate(28.303 13.906)" fill="#3c3f54"/>
        <path id="Path_348" data-name="Path 348" d="M60.751,34.665a4.412,4.412,0,0,0,1.739-.348,4.572,4.572,0,0,0,1.755-1.34.142.142,0,0,0-.208-.194l-.012.015a4.288,4.288,0,0,1-1.649,1.257,5.055,5.055,0,0,1-4.35-.438.144.144,0,1,0-.153.244,5.935,5.935,0,0,0,2.877.8" transform="translate(30.511 17.28)" fill="#3c3f54"/>
        <path id="Path_349" data-name="Path 349" d="M80,82.421a24.418,24.418,0,0,0,3.486-.226c2.972-.437,4.649-1.465,4.987-3.056,1.262-5.958-7.26-34.834-10.449-40.811a.143.143,0,0,0-.193-.058.14.14,0,0,0-.058.193c3.176,5.958,11.676,34.707,10.423,40.617-.306,1.464-1.91,2.417-4.75,2.836-6.722.987-17.6-1.493-18.355-2.874-.688-1.256-2.805-.938-5.259-.57a15,15,0,0,1-5.858.144c-3.83-1.094-7.612-4.516-7.78-7.039-.086-1.279,1.546-8.47,4.551-15.521C53.4,49.817,57.75,42.2,63.362,41.359a.142.142,0,0,0,.119-.162.153.153,0,0,0-.162-.119c-5.742.865-10.149,8.556-12.834,14.866C47.52,62.9,45.815,70.135,45.912,71.6,46.09,74.27,49.9,77.747,53.9,78.89a15.234,15.234,0,0,0,5.978-.136c2.347-.351,4.376-.655,4.967.426.746,1.363,8.716,3.241,15.156,3.241" transform="translate(24.231 20.191)" fill="#1e3659"/>
        <path id="Path_350" data-name="Path 350" d="M62.471,100.816a6.272,6.272,0,0,0,1.528-.17c1.163-.295,1.76-.933,1.729-1.846-.087-2.529,2.923-22.884,4.389-30.862A.144.144,0,0,0,70,67.772a.155.155,0,0,0-.165.115c-1.467,7.989-4.481,28.391-4.392,30.925.034.961-.805,1.375-1.516,1.56-1.626.414-3.914-.038-4.157-.526-.344-.859-.713-20.053-.86-34.5a.142.142,0,0,0-.284,0c.044,4.3.44,33.723.891,34.623.246.509,1.607.846,2.952.846" transform="translate(30.945 34.416)" fill="#2a2d3a"/>
        <path id="Path_351" data-name="Path 351" d="M58.864,79.331c3.653,0,5.876-4.984,8.033-9.813q.277-.626.558-1.245a.142.142,0,1,0-.251-.134l-.008.017q-.28.621-.559,1.247c-2.292,5.12-4.648,10.415-8.631,9.55-4.324-.935-23.793-15.278-23.776-16.583a6.96,6.96,0,0,1,2.544-3.761,2.942,2.942,0,0,1,2.419-.639c2.577.585,16.769,8.583,16.911,8.664a.142.142,0,1,0,.141-.248c-.587-.33-14.372-8.1-16.989-8.693a3.219,3.219,0,0,0-2.649.686,7.179,7.179,0,0,0-2.66,3.972c-.084.917,6.7,6.041,10.3,8.626,5.106,3.667,11.387,7.76,13.7,8.259a4.316,4.316,0,0,0,.918.095" transform="translate(17.917 30.422)" fill="#2a2d3a"/>
        <path id="Path_352" data-name="Path 352" d="M54.349,38.658a.47.47,0,0,0,.153-.024.142.142,0,1,0-.1-.266c-1,.379-10.045-5.641-11.963-7.945-.356-.429-.306-.547-.306-.548a4.04,4.04,0,0,0,.458-2.278v-.185c0-.11,0-2.7-.559-3.121a.33.33,0,0,0-.29-.061c-.414.11-.422.868-.39,1.927,0,.092,0,.191.008.287-.383-1.114-1.248-3.412-1.821-3.412h-.02a2.936,2.936,0,0,0-1.642.819.545.545,0,0,0-.078.478c.047.142,1.5,3.127,1.592,3.3a.576.576,0,0,0,.764.144.779.779,0,0,0,.4-1.024l0-.008-.886-2.371-.266.1.886,2.371a.493.493,0,0,1-.228.662l-.026.012c-.165.075-.344.066-.393-.023-.125-.226-1.519-3.111-1.571-3.248a.263.263,0,0,1,.043-.232,2.715,2.715,0,0,1,1.435-.692,12.054,12.054,0,0,1,1.734,3.794l.031.105h.168l.07-.057c.105-.108.107-.348.087-1.008-.017-.513-.05-1.581.177-1.642a.072.072,0,0,1,.044.012,6.59,6.59,0,0,1,.451,2.9v.185a3.819,3.819,0,0,1-.414,2.128c-.116.191-.014.471.325.878,1.838,2.188,10.427,8.044,12.126,8.044" transform="translate(19.938 12.157)" fill="#3c3f54"/>
        <path id="Path_353" data-name="Path 353" d="M48.2,36.4a.147.147,0,0,0,.05-.009c1.609-.611,8.692-9.066,8.764-9.15a.143.143,0,0,0-.218-.183c-2.849,3.407-7.5,8.632-8.646,9.068a.142.142,0,0,0,.05.273Z" transform="translate(25.368 14.252)" fill="#1e3659"/>
        <path id="Path_354" data-name="Path 354" d="M39.288,28.07A1.056,1.056,0,0,0,39.67,28a.6.6,0,0,0,.391-.739.142.142,0,1,0-.278.058l0,.008a.316.316,0,0,1-.2.4l-.018.006a.676.676,0,0,1-.764-.162c-.174-.306-1.3-2.869-1.484-3.326a.231.231,0,0,1,.061-.212.647.647,0,0,1,.555-.226.356.356,0,0,1,.277.261.144.144,0,0,0,.182.087.14.14,0,0,0,.087-.179v0a.636.636,0,0,0-.5-.448.927.927,0,0,0-.823.327.492.492,0,0,0-.1.5c.173.429,1.311,3.028,1.5,3.361a.833.833,0,0,0,.73.356" transform="translate(19.544 12.416)" fill="#3c3f54"/>
        <path id="Path_355" data-name="Path 355" d="M38.315,28.155a1.351,1.351,0,0,0,.827-.237.332.332,0,0,0,.1-.377.143.143,0,0,0-.272.086l.008.017c0,.014.012.031-.028.066a1.223,1.223,0,0,1-.975.105A12.606,12.606,0,0,1,36.7,24.742c-.035-.167.138-.416.37-.533.083-.041.235-.1.325,0a.142.142,0,0,0,.212-.189.528.528,0,0,0-.666-.07.868.868,0,0,0-.519.846,10.81,10.81,0,0,0,1.427,3.268,1.063,1.063,0,0,0,.466.092" transform="translate(19.224 12.595)" fill="#3c3f54"/>
        <path id="Path_356" data-name="Path 356" d="M37.411,28.12a1.334,1.334,0,0,0,.833-.208.291.291,0,0,0,.092-.252.142.142,0,0,0-.16-.122.14.14,0,0,0-.122.159c-.032.095-.527.177-.875.127a12.2,12.2,0,0,1-1-2.57.952.952,0,0,1,.458-.593.081.081,0,0,1,.115.038.144.144,0,0,0,.2.046.145.145,0,0,0,.046-.2.36.36,0,0,0-.474-.153c-.332.133-.689.657-.626.917,0,.027.782,2.718,1.236,2.785a1.921,1.921,0,0,0,.281.024" transform="translate(18.941 12.856)" fill="#3c3f54"/>
        <path id="Path_357" data-name="Path 357" d="M52.462,43.656h.032c2.17-.136,11.329-7.333,11.717-7.639a.142.142,0,0,0-.176-.223c-.095.075-9.472,7.442-11.559,7.572H52.45c-2.056,0-13.245-14-13.715-14.731a.142.142,0,0,0-.252.131.1.1,0,0,0,.014.021c.1.156,11.6,14.869,13.966,14.869" transform="translate(20.303 15.074)" fill="#3c3f54"/>
        <path id="Path_358" data-name="Path 358" d="M39.171,29.878a2.38,2.38,0,0,0,1.441-.559.142.142,0,0,0-.186-.214,1.74,1.74,0,0,1-1.641.4,6.107,6.107,0,0,1-1.175-1.92c-.153-.306-.306-.611-.442-.88a.142.142,0,1,0-.251.134c.139.26.286.561.435.871a5.865,5.865,0,0,0,1.286,2.041,1.042,1.042,0,0,0,.532.125" transform="translate(19.476 14.056)" fill="#3c3f54"/>
        <path id="Path_359" data-name="Path 359" d="M65.678,31.931c.321,0,.521-.07.611-.214a7.584,7.584,0,0,0-1.528-6.059.142.142,0,0,0-.2,0,.141.141,0,0,0,0,.2,7.411,7.411,0,0,1,1.487,5.714s-.063.086-.4.078c-1.89-.032-8.235-2.516-9.32-4.431a.144.144,0,0,0-.194-.053.141.141,0,0,0-.053.194c1.154,2.032,7.581,4.547,9.566,4.583Z" transform="translate(29.587 13.52)" fill="#1e3659"/>
        <path id="Path_360" data-name="Path 360" d="M65.542,41.728a.144.144,0,0,0,.11-.05c3.56-4.25,9.43-13.02,9.666-15.391a58.392,58.392,0,0,0-.9-8.23,53.756,53.756,0,0,1-.9-8.481c.29-1.641.513-7.835-.316-8.131a.932.932,0,0,0-.732-.055.253.253,0,0,0-.128.162l.087,4.33a.152.152,0,0,0,.145.139.141.141,0,0,0,.139-.142v0l-.089-4.244a.834.834,0,0,1,.481.083c.451.238.541,5.5.131,7.813a51.587,51.587,0,0,0,.894,8.571,60.23,60.23,0,0,1,.9,8.162c-.232,2.325-6.062,11.013-9.6,15.238a.143.143,0,0,0,.017.2.144.144,0,0,0,.092.034Z" transform="translate(34.519 0.707)" fill="#3c3f54"/>
        <path id="Path_361" data-name="Path 361" d="M63.658,28.35a.137.137,0,0,0,.112-.055C65.831,25.621,71,16.891,71.054,16.8a.142.142,0,0,0-.243-.148l0,0c-.052.087-5.214,8.8-7.265,11.459a.143.143,0,0,0,.026.2.145.145,0,0,0,.087.029Z" transform="translate(33.525 8.755)" fill="#3c3f54"/>
        <path id="Path_362" data-name="Path 362" d="M70.778,8.761c.078,0,.154,0,.232-.011a.142.142,0,0,0,.127-.153.152.152,0,0,0-.153-.127c-1.361.138-2.8-1.14-3.575-1.826L67.3,6.551a7.846,7.846,0,0,0-.827-.611c-.44-.3-.788-.53-.788-.8a.388.388,0,0,1,.324-.388c.764.521,2.046,1.331,2.373,1.19.052-.021.122-.058.206-.1.387-.2,1.109-.561,1.49-.275a.142.142,0,0,0,.2-.028.143.143,0,0,0-.028-.2c-.523-.393-1.346.024-1.789.249-.076.038-.141.072-.189.092a8.276,8.276,0,0,1-2.148-1.2l-.043-.029h-.052a.677.677,0,0,0-.625.678c0,.423.423.709.917,1.037a7.509,7.509,0,0,1,.8.591l.107.095a6.2,6.2,0,0,0,3.555,1.907" transform="translate(34.521 2.351)" fill="#3c3f54"/>
        <path id="Path_363" data-name="Path 363" d="M67.977,23.052a.142.142,0,0,0,.142-.142V22.9c-.038-.95.217-4.4.458-7.738.567-7.667.535-8.033.332-8.12a.144.144,0,0,0-.188.075.151.151,0,0,0,.018.144c.107.413-.186,4.379-.446,7.882-.248,3.344-.5,6.8-.458,7.77a.142.142,0,0,0,.142.141" transform="translate(35.801 3.71)" fill="#3c3f54"/>
        <path id="Path_364" data-name="Path 364" d="M69.445,6.277a.143.143,0,0,0,.142-.142V1.059a.123.123,0,0,1,.086-.11.565.565,0,0,1,.553.089c.092.072.092.183.076.5,0,.119-.012.257-.012.419a.142.142,0,0,0,.284,0c0-.153,0-.29.011-.4C70.6,1.2,70.613.977,70.4.812a.841.841,0,0,0-.851-.119.4.4,0,0,0-.243.365V6.133a.143.143,0,0,0,.141.144" transform="translate(36.58 0.331)" fill="#3c3f54"/>
        <path id="Path_365" data-name="Path 365" d="M68.258,7.85h.023a.142.142,0,0,0,.119-.162c-.162-1.033-.64-5.793-.594-6.088a.829.829,0,0,1,.467-.1c.1,0,.153.035.153.047.035.139.431,2.892.686,4.7a.14.14,0,0,0,.153.122A.145.145,0,0,0,69.4,6.23C69.4,4,69.425.61,69.455.4c0-.012.037-.047.131-.075a.9.9,0,0,1,.625.037,3.365,3.365,0,0,1,.038.764V1.39a.14.14,0,0,0,.139.142h0a.144.144,0,0,0,.144-.141V1.124a2.753,2.753,0,0,0-.066-.888c-.1-.228-.526-.26-.788-.225-.3.038-.477.153-.5.342s-.047,2.276-.055,3.92c-.4-2.778-.428-2.837-.438-2.859-.079-.16-.3-.234-.593-.2-.082.009-.5.072-.559.319-.073.319.458,5.332.591,6.192a.141.141,0,0,0,.136.121" transform="translate(35.64 0)" fill="#3c3f54"/>
        <path id="Path_366" data-name="Path 366" d="M61.621,40.452c3.82,0,8.777-1.118,10.281-3.013a.142.142,0,1,0-.223-.177c-2.1,2.649-11.775,3.76-14.093,2.139a.142.142,0,1,0-.162.234,8.15,8.15,0,0,0,4.2.817" transform="translate(30.277 19.639)" fill="#1e3659"/>
        <path id="Path_367" data-name="Path 367" d="M69.467,56.787a.142.142,0,0,0,.142-.145v-.008c0-.121-.339-12.1-3.653-16.945a.142.142,0,0,0-.234.16c3.268,4.774,3.6,16.672,3.6,16.791a.143.143,0,0,0,.138.147Z" transform="translate(34.676 20.917)" fill="#3c3f54"/>
        <path id="Path_368" data-name="Path 368" d="M64.1,54.791a.142.142,0,0,0,.142-.145c0-.1-.243-9.613-.529-14.27a.137.137,0,0,0-.138-.134l-.015,0a.144.144,0,0,0-.134.153c.286,4.652.526,14.163.529,14.259a.14.14,0,0,0,.145.136" transform="translate(33.477 21.24)" fill="#3c3f54"/>
        <path id="Path_369" data-name="Path 369" d="M59.592,55.43h.021a.141.141,0,0,0,.119-.159v0c-.243-1.7-.362-12.42.662-14.667a.144.144,0,0,0-.06-.193.142.142,0,0,0-.191.06l-.008.015c-1.039,2.28-.927,13.1-.683,14.82a.143.143,0,0,0,.139.125" transform="translate(31.293 21.32)" fill="#3c3f54"/>
        <path id="Path_370" data-name="Path 370" d="M54.883,50.076a.142.142,0,0,0,.139-.108c.02-.081,2.046-8.134,4.616-9.454a.142.142,0,0,0-.113-.26l-.017.008c-2.684,1.375-4.677,9.3-4.761,9.637a.143.143,0,0,0,.1.173Z" transform="translate(28.894 21.24)" fill="#3c3f54"/>
        <path id="Path_371" data-name="Path 371" d="M64.338,96.611c1.019,0,2.07-.015,3.056-.038,3.82-.087,7.766-.306,8.032-.413a.589.589,0,0,0,.316-.344,3.35,3.35,0,0,0-.238-2.261c-.2-.492-1.406-1.114-3.066-1.975a23.293,23.293,0,0,1-6.631-4.422.142.142,0,1,0-.231.165l.015.018a23.416,23.416,0,0,0,6.722,4.49,9.676,9.676,0,0,1,2.935,1.833,3.089,3.089,0,0,1,.238,2.041.328.328,0,0,1-.153.191c-.846.27-15.351.8-16.348.02-.886-.686.368-5.664.924-7.523a.142.142,0,0,0-.272-.081c-.209.7-2.023,6.9-.827,7.83a17.343,17.343,0,0,0,5.526.468" transform="translate(30.828 45.972)" fill="#1e3659"/>
        <path id="Path_372" data-name="Path 372" d="M63.4,92.523a78.13,78.13,0,0,0,12-.973.142.142,0,0,0,.113-.165.145.145,0,0,0-.167-.115c-4.681.891-15.37,1.439-16.7.429a.142.142,0,0,0-.173.226,11.84,11.84,0,0,0,4.929.6" transform="translate(30.832 48.173)" fill="#1e3659"/>
        <path id="Path_373" data-name="Path 373" d="M27.64,66.15a16.8,16.8,0,0,0,3.024-.558,22.193,22.193,0,0,1,7.865-.891.142.142,0,1,0,.063-.277l-.014,0a22.327,22.327,0,0,0-7.978.894,9,9,0,0,1-3.329.493,3.093,3.093,0,0,1-1.479-1.429.33.33,0,0,1,0-.248c.483-.747,11.362-10.354,12.629-10.389,1.144,0,3.772,4.541,4.693,6.3a.143.143,0,0,0,.193.06.141.141,0,0,0,.06-.191c-.347-.663-3.425-6.45-4.936-6.45-.84.023-4.237,2.8-6.941,5.123-2.9,2.492-5.806,5.162-5.946,5.415a.59.59,0,0,0-.026.458,3.375,3.375,0,0,0,1.618,1.6,1.108,1.108,0,0,0,.506.1" transform="translate(13.45 28.216)" fill="#1e3659"/>
        <path id="Path_374" data-name="Path 374" d="M26.663,65.609a.144.144,0,0,0,.11-.05C29.829,61.9,37.741,54.7,39.413,54.633a.142.142,0,0,0,.136-.148v0a.154.154,0,0,0-.153-.138c-1.872.072-9.99,7.607-12.847,11.029a.141.141,0,0,0,.017.2l0,0a.14.14,0,0,0,.1.037" transform="translate(13.995 28.683)" fill="#1e3659"/>
        <path id="Path_375" data-name="Path 375" d="M77.646,68.663a23.446,23.446,0,0,0,10.711-2.041.142.142,0,0,0,.07-.188.144.144,0,0,0-.189-.07l-.018.011c-6.324,3.514-20.4,1.54-21.765.2a5.022,5.022,0,0,0-3.768-1.594c-.177.014-.587.06-1.132.121a50.855,50.855,0,0,1-6.428.477c-2.292-.234-8.8-3.4-8.67-7.24a.143.143,0,0,0-.131-.153h0a.137.137,0,0,0-.153.118l0,.02c-.144,4.185,6.722,7.308,8.925,7.534a51.509,51.509,0,0,0,6.487-.478c.541-.061.947-.105,1.123-.119a4.871,4.871,0,0,1,3.548,1.513c.9.88,6,1.89,11.4,1.89" transform="translate(24.366 30.711)" fill="#1e3659"/>
        <path id="Path_376" data-name="Path 376" d="M42.84,35.425a.153.153,0,0,0,.142-.153,5.1,5.1,0,0,1,2.976-3.983.142.142,0,1,0-.11-.261l-.017.008A5.4,5.4,0,0,0,42.7,35.294a.142.142,0,0,0,.142.131" transform="translate(22.537 16.371)" fill="#1e3659"/>
        <path id="Path_377" data-name="Path 377" d="M72.952,13.256a.143.143,0,0,0,.142-.142A.14.14,0,0,0,73.031,13a3.723,3.723,0,0,0-4.889.02.143.143,0,0,0,.02.2.141.141,0,0,0,.183,0,3.451,3.451,0,0,1,4.524.02.144.144,0,0,0,.083.023" transform="translate(35.95 6.382)" fill="#1e3659"/>
        <path id="Path_378" data-name="Path 378" d="M61.551,22.4h.1a1.455,1.455,0,0,0,1.319-.808.142.142,0,0,0-.261-.112l0,.012a1.186,1.186,0,0,1-1.069.625,2.176,2.176,0,0,1-1.763-1,.142.142,0,0,0-.191-.064.14.14,0,0,0-.064.189l.011.018A2.469,2.469,0,0,0,61.551,22.4" transform="translate(31.456 11.101)" fill="#1e3659"/>
        <path id="Path_379" data-name="Path 379" d="M59.5,21.626a1.047,1.047,0,0,0,.891-.669.142.142,0,0,0-.263-.11.711.711,0,0,1-.7.486.142.142,0,1,0-.079.273.53.53,0,0,0,.147.02" transform="translate(31.272 10.957)" fill="#1e3659"/>
        <path id="Path_380" data-name="Path 380" d="M61.128,19.253a.143.143,0,0,0,.136-.1.731.731,0,0,1,.391-.458.791.791,0,0,1,.917.428.144.144,0,0,0,.191.066A.142.142,0,0,0,62.828,19l-.008-.012a1.067,1.067,0,0,0-1.264-.558,1,1,0,0,0-.564.643.142.142,0,0,0,.095.177.167.167,0,0,0,.04,0" transform="translate(32.19 9.704)" fill="#1e3659"/>
        <path id="Path_381" data-name="Path 381" d="M59.116,19.812a.141.141,0,0,0,.134-.1.9.9,0,0,1,.857-.636.872.872,0,0,1,.611.359.142.142,0,1,0,.231-.167,1.148,1.148,0,0,0-.823-.477,1.167,1.167,0,0,0-1.143.828.142.142,0,0,0,.133.188" transform="translate(31.128 9.921)" fill="#1e3659"/>
        <path id="Path_382" data-name="Path 382" d="M62.818,18.491a.144.144,0,0,0,.144-.142.141.141,0,0,0-.031-.087,1.785,1.785,0,0,0-1.962-.611.141.141,0,0,0-.093.177v0a.144.144,0,0,0,.179.093,1.5,1.5,0,0,1,1.652.518.142.142,0,0,0,.112.05" transform="translate(32.128 9.271)" fill="#1e3659"/>
        <path id="Path_383" data-name="Path 383" d="M82.985,43.938l-4.321-4.486A.925.925,0,1,1,79.923,38.1a.8.8,0,0,1,.07.073l3.059,3.167,5.181-4.843a.927.927,0,1,1,1.27,1.351Z" transform="translate(41.364 19.129)" fill="#14b1fb"/>
        <path id="Path_384" data-name="Path 384" d="M88.853,54.189a11.682,11.682,0,1,1,8.878-13.934,11.684,11.684,0,0,1-8.878,13.934M84.16,33a10.013,10.013,0,1,0,11.948,7.613A10.013,10.013,0,0,0,84.16,33" transform="translate(39.397 16.415)" fill="#14b1fb"/>
      </g>
    </g>
  </g>
</svg>
