<svg xmlns="http://www.w3.org/2000/svg" width="112.612" height="123.497" viewBox="0 0 112.612 123.497">
  <g id="Group_44" data-name="Group 44" transform="translate(-2.72 -4.55)">
    <g id="Group_9405" data-name="Group 9405" transform="translate(2.72 5.55)">
      <ellipse id="Ellipse_1" data-name="Ellipse 1" cx="56.306" cy="8.211" rx="56.306" ry="8.211" transform="translate(0 106.076)" fill="#d8d8d8" opacity="0.5" style="isolation: isolate"/>
      <g id="Group_9412" data-name="Group 9412" transform="translate(5.04)">
        <path id="Path_52101" data-name="Path 52101" d="M38.394,6.8a6.817,6.817,0,0,0-2.552-1.218A5.347,5.347,0,0,1,38.394,6.8Z" transform="translate(17.652 -5.525)" fill="#c98c55"/>
        <path id="Path_52102" data-name="Path 52102" d="M47.09,6.157c-.166.133-.33.249-.47.382a1.537,1.537,0,0,0-.33.293,1.946,1.946,0,0,0-.307.308,2.707,2.707,0,0,0-.279.307,2.387,2.387,0,0,0-.265.33c-.072.1-.166.219-.235.33a5.416,5.416,0,0,0-.41.661c-.058.117-.117.235-.177.33a2.312,2.312,0,0,0-.166.33,3.242,3.242,0,0,0-.147.33c-.088.191-.166.382-.235.571-.792,2.228-.776,4.091-1.863,3.593a7.8,7.8,0,0,0-8.182.968c-2.934,2.391-12.04,2.874-16.867-1.767,0,0-3.181-5.793,4.595-7.085,4.268,0,19.714,9.317,21.6,7.085C44.274,11.741,45.682,7.035,47.09,6.157Z" transform="translate(2.822 -5.175)" fill="#fff" stroke="#3c3f54" stroke-miterlimit="10" stroke-width="2"/>
        <path id="Path_52103" data-name="Path 52103" d="M34.094,6.007a3.237,3.237,0,0,1-.279.177l.03-.03C33.932,6.11,34.013,6.051,34.094,6.007Z" transform="translate(16.097 -5.2)" fill="#c1a884"/>
        <path id="Path_52104" data-name="Path 52104" d="M34.514,5.82c-.177.087-.353.216-.539.318.057-.037.1-.076.166-.113C34.265,5.96,34.381,5.885,34.514,5.82Z" transform="translate(16.22 -5.344)" fill="#c98c55"/>
        <path id="Path_52105" data-name="Path 52105" d="M54.882,21.833l-.191.014c-1.944.088-17.849.631-15.223-5.514a8.837,8.837,0,0,0-2.1-10,39.941,39.941,0,0,1,3.635,3.345c1.944,1.893,12.217.968,14.668,5.807S54.882,21.833,54.882,21.833Z" transform="translate(18.826 -4.951)" fill="#fff" stroke="#3c3f54" stroke-miterlimit="10" stroke-width="2"/>
        <path id="Path_52106" data-name="Path 52106" d="M99.075,113.424c-7.331,3.471-9.916,2.566-13.023,1.465s-7.331-.732-17.043,2.935c-15.4,8.608-30.99.189-34.461-1.1s-7.334,1.465-12.466,3.11c-15.591,2.2-15.225-8.612-13.385-13.551-2.2-4.78-3.124-8.262-3.124-23.465,0-24.934,21.649-38.692,23.568-40.215a14.468,14.468,0,0,0,3.5-4.687,9.681,9.681,0,0,0,.979-5.784,7.456,7.456,0,0,0-.919-2.488,137.652,137.652,0,0,1-7.126-16.1v-.712c4.241,3.824,10.506,5,15.3,1.893a10.77,10.77,0,0,1,8.85-1.893c1.173.242,1.958.124,2.75-2.107.074-.189.147-.382.235-.571a3.077,3.077,0,0,1,.147-.33c.06-.11.1-.221.166-.33s.117-.217.177-.33c.117-.221.263-.44.41-.661.071-.1.164-.217.235-.33a4,4,0,0,1,.263-.33,3.6,3.6,0,0,1,.281-.309l.306-.306a3.241,3.241,0,0,1,.33-.293c.147-.134.306-.251.468-.382a.121.121,0,0,1,.03-.03c.131-.087.265-.177.41-.265a2.941,2.941,0,0,1,.382-.205,6.456,6.456,0,0,1,.661-.267c.131-.042.247-.071.366-.1.074-.016.134-.03.193-.046a2.641,2.641,0,0,1,.33-.058,4.219,4.219,0,0,1,.762-.012.381.381,0,0,1,.118.012l.33.046a6.743,6.743,0,0,1,2.55,1.218.529.529,0,0,0,.147.1,8.834,8.834,0,0,1,2.1,10c-2.624,6.146,13.29,5.6,15.225,5.512l.191-.012a47.251,47.251,0,0,1-5.325,7.389A10.651,10.651,0,0,0,71.941,33.4a9.632,9.632,0,0,0-.463,3.4,8.955,8.955,0,0,0,.576,2.8h0A10.349,10.349,0,0,0,75.4,44.1C101.922,64.7,96.555,94.166,99.084,101.331,101.622,108.652,101.622,111.031,99.075,113.424Z" transform="translate(-5.572 -5.55)" fill="#fff" stroke="#3c3f54" stroke-miterlimit="10" stroke-width="2"/>
        <path id="Path_52107" data-name="Path 52107" d="M72.537,65.51q-3.059,2.179-5.56,3.8c-2.082.557-4.547,1.378-7.539,2.508-15.4,8.61-30.99.191-34.461-1.1a5.112,5.112,0,0,0-1.306-.308,39.316,39.316,0,0,1-5.632-4.9C46.022,78.344,56.77,71.377,72.537,65.51Z" transform="translate(3.993 40.453)" fill="#ddc69e" opacity="0.3" style="isolation: isolate"/>
        <path id="Path_52109" data-name="Path 52109" d="M38.124,77.726c-5.5-1.276-13.009-4.81-17.057-3.5A29.566,29.566,0,0,1,8.13,75.709a13.262,13.262,0,0,1,.557-1.944C6.487,68.985,5.564,65.5,5.564,50.3c0-.792.014-1.591.058-2.347,2.3.954,5.06,3.2,7.767,8.082,6.408,11.63,6.776,7.539,13.376,11.044s6.7,9.739,13.991,8.272S43.625,78.989,38.124,77.726Z" transform="translate(-4.728 26.983)" fill="#ffedbe" style="isolation: isolate"/>
        <path id="Path_52110" data-name="Path 52110" d="M26.177,29.709s1.638-.581.4-6.362-.861-10.17,1.389-8.147,2.421,2.7,2.382,6.3a38.965,38.965,0,0,0,1.709,9.218s3.953,6.924.028,13.254-6.539,4.218-4.065.076S25.322,32.154,26.177,29.709Z" transform="translate(10.004 1.469)" fill="#ffedbe" style="isolation: isolate"/>
        <path id="Path_52111" data-name="Path 52111" d="M38.934,32.261s-1.488.216-1.347,4.878-.875,8.016-2.474,6.115-1.64-2.446-1.039-5.231a28.171,28.171,0,0,0,0-7.4,10.138,10.138,0,0,1,2.073-10.284c4.358-4.335,6.253-2.333,3.481.53S40.055,30.479,38.934,32.261Z" transform="translate(15.838 3.868)" fill="#ffedbe" style="isolation: isolate"/>
        <g id="Group_9411" data-name="Group 9411" transform="translate(22.163 25.387)">
          <g id="Group_9406" data-name="Group 9406" transform="translate(31.175 4.489)">
            <g id="Group_9405-2" data-name="Group 9405-2" transform="translate(10.161 16.476)">
              <path id="Path_52114" data-name="Path 52114" d="M48.763,35.927a29,29,0,0,1-5.514,1.439A1.891,1.891,0,0,1,43,36.72a.2.2,0,0,1-.03-.088A7.316,7.316,0,0,0,41.5,33.8c.47-.06.924-.133,1.378-.235a12.565,12.565,0,0,0,4.342-1.79,11.843,11.843,0,0,1,1.469,3.579A2.559,2.559,0,0,1,48.763,35.927Z" transform="translate(-41.503 -31.779)" fill="#162f75"/>
              <path id="Path_52115" data-name="Path 52115" d="M48.008,34.127a2.938,2.938,0,0,1-2.3,2.934,3.435,3.435,0,0,1-.645.072,2.921,2.921,0,0,1-2.58-1.569A29.211,29.211,0,0,0,48.008,34.127Z" transform="translate(-40.75 -29.978)" fill="#162f75"/>
            </g>
            <path id="Path_52116" data-name="Path 52116" d="M48.537,33.147a12.565,12.565,0,0,1-4.342,1.79c-.454.1-.908.177-1.378.235a18.268,18.268,0,0,0-1.591-1.716c-.47-.44-.938-.884-1.437-1.29h.221a10.026,10.026,0,0,0,6.056-2.172A17.19,17.19,0,0,1,48.537,33.147Z" transform="translate(-32.657 -16.672)" fill="#162f75"/>
            <path id="Path_52117" data-name="Path 52117" d="M48.038,31.254a10.026,10.026,0,0,1-6.056,2.172h-.221c-.088-.088-.189-.166-.279-.249a35.15,35.15,0,0,1-3.8-3.755c-.166-.205-.33-.412-.468-.617.53.058,1.06.072,1.591.088a22.819,22.819,0,0,0,4.489-.147,10.411,10.411,0,0,0,1.591-.4c.166.133.33.279.484.424.631.557,1.262,1.115,1.877,1.7C47.5,30.711,47.759,30.98,48.038,31.254Z" transform="translate(-34.634 -17.933)" fill="#162f75"/>
            <path id="Path_52118" data-name="Path 52118" d="M45.865,30.153a10.411,10.411,0,0,1-1.591.4,22.959,22.959,0,0,1-4.489.147c-.53-.014-1.06-.03-1.591-.088A12.59,12.59,0,0,1,35.935,26c.235.088.47.177.719.249a18.858,18.858,0,0,0,4.445.571,11.992,11.992,0,0,0,1.613.014q.22.331.484.661A23.97,23.97,0,0,0,45.865,30.153Z" transform="translate(-35.614 -19.735)" fill="#162f75"/>
            <path id="Path_52119" data-name="Path 52119" d="M42.848,28.445a11.992,11.992,0,0,1-1.613-.014,18.86,18.86,0,0,1-4.445-.573c-.249-.072-.484-.166-.719-.249a9.626,9.626,0,0,1-.235-3.711,13.062,13.062,0,0,0,5.809.689v.1A5.561,5.561,0,0,0,42.848,28.445Z" transform="translate(-35.753 -21.349)" fill="#162f75"/>
            <path id="Path_52120" data-name="Path 52120" d="M41.611,25.7a13.062,13.062,0,0,1-5.809-.689v-.034a2.929,2.929,0,0,1,3.307-2.494h0A2.889,2.889,0,0,1,41.611,25.7Z" transform="translate(-35.716 -22.456)" fill="#162f75"/>
          </g>
          <g id="Group_9408" data-name="Group 9408" transform="translate(27.643 4.583)">
            <g id="Group_9407" data-name="Group 9407" transform="translate(17.056 60.307)">
              <path id="Path_52121" data-name="Path 52121" d="M49.031,56.634c-.044.133-.072.279-.117.41a2.932,2.932,0,0,1-2.81,2.1,3.257,3.257,0,0,1-.836-.117,2.909,2.909,0,0,1-1.863-1.672A22.474,22.474,0,0,0,46.37,57.1C47.2,56.972,48.107,56.823,49.031,56.634Z" transform="translate(-43.406 -56.634)" fill="#493a33"/>
            </g>
            <path id="Path_52122" data-name="Path 52122" d="M41.275,26.7a17.634,17.634,0,0,0-.938,2.875,10.2,10.2,0,0,1-5.288-2.259,1.174,1.174,0,0,1-.133-.133,17.464,17.464,0,0,1,1.06-2.964A2.93,2.93,0,1,1,41.3,26.66h0l-.018.037Z" transform="translate(-32.864 -22.509)" fill="#061234"/>
            <path id="Path_52123" data-name="Path 52123" d="M40.842,27.543c-.088.41-.191.827-.279,1.237-.249,1.115-.514,2.259-.894,3.432-.016.03-.016.058-.03.088a11.2,11.2,0,0,1-5.1-2.244c-.088-.072-.191-.147-.279-.235.219-.749.394-1.525.587-2.331.177-.763.353-1.541.571-2.331a1.173,1.173,0,0,0,.133.133A10.194,10.194,0,0,0,40.842,27.543Z" transform="translate(-33.371 -20.476)" fill="#162f75"/>
            <path id="Path_52124" data-name="Path 52124" d="M40.126,35.247A13.181,13.181,0,0,1,34.259,33.5l-.5-.307a13.61,13.61,0,0,1,.719-4.84c.058-.189.117-.368.166-.557a3.219,3.219,0,0,0,.279.235,11.191,11.191,0,0,0,5.1,2.244A7.206,7.206,0,0,0,40.126,35.247Z" transform="translate(-33.755 -18.451)" fill="#162f75"/>
            <path id="Path_52125" data-name="Path 52125" d="M42.97,37.183c-.908.147-1.847.219-2.566.353-1.348.249-2.714.454-4.077.617a13.965,13.965,0,0,1-2.568-7.3l.5.307A13.181,13.181,0,0,0,40.123,32.9,15.437,15.437,0,0,0,42.97,37.183Z" transform="translate(-33.751 -16.11)" fill="#162f75"/>
            <path id="Path_52126" data-name="Path 52126" d="M46.062,38.805a19.416,19.416,0,0,1-5.3,1.555c-.4.088-.776.166-1.173.235a35.979,35.979,0,0,1-4.37-5.192c1.363-.166,2.729-.368,4.077-.617.719-.133,1.652-.205,2.566-.353,1.027,1.173,2.259,2.434,3.667,3.828Z" transform="translate(-32.634 -13.361)" fill="#162f75"/>
            <path id="Path_52127" data-name="Path 52127" d="M48.1,41.071c-.014.014-.03.044-.044.058a9.022,9.022,0,0,1-5.1,2.964c-1.129-1.237-2.313-2.407-3.471-3.579-.6-.6-1.2-1.2-1.79-1.818.4-.072.778-.147,1.173-.235a19.415,19.415,0,0,0,5.3-1.555C45.44,38.182,46.79,39.575,48.1,41.071Z" transform="translate(-30.738 -11.463)" fill="#162f75"/>
            <path id="Path_52128" data-name="Path 52128" d="M49.592,44.459a8.449,8.449,0,0,1-2.524,2.121,9.519,9.519,0,0,1-2.474.968,13.4,13.4,0,0,0-.908-1.525,36.951,36.951,0,0,0-3.02-3.739,9.022,9.022,0,0,0,5.1-2.964c.016-.014.03-.044.044-.06a39.315,39.315,0,0,1,2.7,3.418A17.887,17.887,0,0,1,49.592,44.459Z" transform="translate(-28.452 -9.657)" fill="#162f75"/>
            <path id="Path_52129" data-name="Path 52129" d="M50.221,48.52a10.777,10.777,0,0,1-3.754,2,15.026,15.026,0,0,1-1.79.368,20.71,20.71,0,0,0-1.79-5.586,9.518,9.518,0,0,0,2.474-.968,8.449,8.449,0,0,0,2.524-2.121A24.47,24.47,0,0,1,50.221,48.52Z" transform="translate(-26.748 -7.396)" fill="#162f75"/>
            <path id="Path_52130" data-name="Path 52130" d="M50.264,52.47A18.6,18.6,0,0,1,44.4,54.112a30.317,30.317,0,0,0-.5-5.97,15.024,15.024,0,0,0,1.79-.368,10.814,10.814,0,0,0,3.755-2A33.706,33.706,0,0,1,50.264,52.47Z" transform="translate(-25.971 -4.655)" fill="#162f75"/>
            <path id="Path_52131" data-name="Path 52131" d="M50.342,49.563a37.611,37.611,0,0,1-.353,6.351c-1.06.308-2.068.543-2.845.762-1.1.308-2.214.587-3.345.792a34.354,34.354,0,0,0,.673-6.263A18.621,18.621,0,0,0,50.342,49.563Z" transform="translate(-26.049 -1.752)" fill="#162f75"/>
            <path id="Path_52132" data-name="Path 52132" d="M50.395,53.152A39.837,39.837,0,0,1,49.133,59.3c-.924.191-1.833.33-2.669.47a22.47,22.47,0,0,1-2.964.249,2.943,2.943,0,0,1-.1-1.983,33.212,33.212,0,0,0,.808-3.33c1.129-.2,2.244-.484,3.345-.792C48.327,53.7,49.334,53.467,50.395,53.152Z" transform="translate(-26.452 1.002)" fill="#54433d"/>
          </g>
          <g id="Group_9410" data-name="Group 9410">
            <g id="Group_9409" data-name="Group 9409" transform="translate(40.479 0.642)">
              <path id="Path_52133" data-name="Path 52133" d="M46.753,23.7a2.943,2.943,0,0,1-1.041,1.767,12,12,0,0,1-4.694,1.944,7.835,7.835,0,0,0,.617-1.143,41.213,41.213,0,0,0,2.391-5.984,2.88,2.88,0,0,1,2.121,1.071,2.4,2.4,0,0,1,.424.749A2.731,2.731,0,0,1,46.753,23.7Z" transform="translate(-41.018 -20.279)" fill="#162f75"/>
            </g>
            <path id="Path_52134" data-name="Path 52134" d="M24.659,21a19.377,19.377,0,0,1-2.214,1.525A16.441,16.441,0,0,1,18.5,24.288a2.882,2.882,0,0,1-.147-2.6,2.326,2.326,0,0,1,.279-.5A2.909,2.909,0,0,1,22.2,20.155,18.626,18.626,0,0,0,24.659,21Z" transform="translate(-18.113 -19.916)" fill="#162f75"/>
            <path id="Path_52135" data-name="Path 52135" d="M30.8,21.726a58.763,58.763,0,0,1-6.526,4.738,27.232,27.232,0,0,1-4.561-1.378A2.784,2.784,0,0,1,18.379,23.9c-.016-.03-.03-.044-.044-.072a16.472,16.472,0,0,0,3.944-1.767,19.376,19.376,0,0,0,2.214-1.525A43.205,43.205,0,0,0,30.8,21.726Z" transform="translate(-17.942 -19.442)" fill="#162f75"/>
            <path id="Path_52136" data-name="Path 52136" d="M34.324,21.78a6.443,6.443,0,0,1-.631.631,52.671,52.671,0,0,1-6.056,4.545c-2.172-.279-4.18-.631-5.94-1.011a58.763,58.763,0,0,0,6.526-4.738C30.159,21.472,32.224,21.647,34.324,21.78Z" transform="translate(-15.363 -18.925)" fill="#162f75"/>
            <path id="Path_52137" data-name="Path 52137" d="M36.379,21.719a19.536,19.536,0,0,1-3.842,4.241c-.571.47-1.143.924-1.744,1.35-1.983-.147-3.9-.353-5.735-.6a52.672,52.672,0,0,0,6.056-4.545,6.644,6.644,0,0,0,.631-.631C33.285,21.636,34.84,21.692,36.379,21.719Z" transform="translate(-12.784 -18.675)" fill="#162f75"/>
            <path id="Path_52138" data-name="Path 52138" d="M39.82,21.631a8.637,8.637,0,0,1-.954,1.652,19.005,19.005,0,0,1-4.121,4.268c-2.149-.044-4.326-.166-6.445-.33.6-.424,1.173-.884,1.744-1.35a19.536,19.536,0,0,0,3.842-4.241C35.932,21.691,37.927,21.691,39.82,21.631Z" transform="translate(-10.298 -18.601)" fill="#162f75"/>
            <path id="Path_52139" data-name="Path 52139" d="M43.665,21.373a11.335,11.335,0,0,1-.368,1.893,8.779,8.779,0,0,1-1.744,2.9,13.4,13.4,0,0,1-1.322,1.439c-1.847.117-3.8.177-5.793.177-.827,0-1.652-.014-2.494-.03a19.005,19.005,0,0,0,4.121-4.268,8.455,8.455,0,0,0,.954-1.652C39.486,21.755,41.759,21.608,43.665,21.373Z" transform="translate(-7.5 -18.798)" fill="#162f75"/>
            <path id="Path_52140" data-name="Path 52140" d="M47.386,20.281a41.221,41.221,0,0,1-2.393,5.984,7.835,7.835,0,0,1-.617,1.143,48.459,48.459,0,0,1-7.744,1.041,13.772,13.772,0,0,0,1.322-1.439,8.809,8.809,0,0,0,1.744-2.9,11.516,11.516,0,0,0,.368-1.893,13.046,13.046,0,0,0,5.325-1.306A2.815,2.815,0,0,1,47.386,20.281Z" transform="translate(-3.904 -19.642)" fill="#162f75"/>
          </g>
        </g>
      </g>
      <g id="Group_9430" data-name="Group 9430" transform="translate(76.414 74.209)">
        <g id="Group_9415" data-name="Group 9415">
          <path id="Path_52141" data-name="Path 52141" d="M60.392,76.907a12.722,12.722,0,0,0,1.861.3c-.459.044-.931.067-1.4.067-.157,0-.3,0-.459-.012a14.863,14.863,0,0,1,0-29.713s2.623-.027,3.082.019c-.64.057-2.474.224-3.08.369a14.845,14.845,0,0,0,0,28.963Z" transform="translate(-45.959 -47.541)" fill="#9d9d9c"/>
          <path id="Path_52142" data-name="Path 52142" d="M77.265,62.41A14.834,14.834,0,0,1,62.684,77.255a2.275,2.275,0,0,1-.269.011c-.472,0-.942-.023-1.4-.067a12.722,12.722,0,0,1-1.861-.3,14.845,14.845,0,0,1,0-28.963,12.488,12.488,0,0,1,1.861-.3c.459-.044.931-.067,1.4-.067a1.952,1.952,0,0,1,.269.012A14.844,14.844,0,0,1,77.265,62.41Z" transform="translate(-44.725 -47.526)" fill="#dadada"/>
          <g id="Group_9413" data-name="Group 9413" transform="translate(5.116 1.542)">
            <path id="Path_52143" data-name="Path 52143" d="M61.921,49.241h.224a12.073,12.073,0,0,1,8.518,3.727,12.688,12.688,0,0,1,0,17.549,12.062,12.062,0,0,1-8.518,3.724h-.221a11.408,11.408,0,0,1-1.158-.058,10.014,10.014,0,0,1-1.516-.251h-.014A12.255,12.255,0,0,1,52.4,69.606a12.682,12.682,0,0,1,0-15.746,12.27,12.27,0,0,1,6.834-4.328h.014a10.13,10.13,0,0,1,1.525-.251,11.511,11.511,0,0,1,1.158-.057m0-.8c-.414,0-.827.019-1.237.06a11.194,11.194,0,0,0-1.638.27,13.357,13.357,0,0,0,0,25.957,10.737,10.737,0,0,0,1.638.27c.4.039.827.06,1.237.06a1.758,1.758,0,0,0,.237-.011,13.307,13.307,0,0,0,0-26.606,1.757,1.757,0,0,0-.237-.011Z" transform="translate(-48.854 -48.415)" fill="#b2b2b2"/>
          </g>
          <g id="Group_9414" data-name="Group 9414" transform="translate(0.033)" opacity="0.3">
            <path id="Path_52146" data-name="Path 52146" d="M48.87,55.013c-.032.274-.057.548-.069.827h-2.81c.014-.277.037-.555.069-.827Z" transform="translate(-45.968 -41.81)" fill="#9d9d9c"/>
            <path id="Path_52147" data-name="Path 52147" d="M49.06,54.079c-.064.27-.117.55-.166.827H46.1c.046-.277.1-.553.166-.827Z" transform="translate(-45.888 -42.527)" fill="#9d9d9c"/>
            <path id="Path_52148" data-name="Path 52148" d="M49.38,53.146c-.1.269-.177.546-.263.827h-2.81c.08-.277.166-.553.265-.827Z" transform="translate(-45.726 -43.242)" fill="#9d9d9c"/>
            <path id="Path_52149" data-name="Path 52149" d="M49.827,52.213c-.134.269-.262.544-.378.827h-2.81c.117-.279.244-.555.376-.827Z" transform="translate(-45.471 -43.958)" fill="#9d9d9c"/>
            <path id="Path_52150" data-name="Path 52150" d="M50.429,51.284c-.177.269-.353.544-.514.827h-2.81c.166-.279.33-.553.514-.827Z" transform="translate(-45.113 -44.671)" fill="#9d9d9c"/>
            <path id="Path_52151" data-name="Path 52151" d="M51.235,50.349c-.242.267-.472.544-.693.827h-2.81q.329-.427.687-.827Z" transform="translate(-44.632 -45.388)" fill="#9d9d9c"/>
            <path id="Path_52152" data-name="Path 52152" d="M52.323,49.413q-.488.392-.938.827h-2.81c.3-.288.613-.562.938-.827Z" transform="translate(-43.985 -46.107)" fill="#9d9d9c"/>
            <path id="Path_52153" data-name="Path 52153" d="M53.961,48.478a14.69,14.69,0,0,0-1.414.827h-2.81a14.29,14.29,0,0,1,1.4-.827Z" transform="translate(-43.094 -46.824)" fill="#9d9d9c"/>
            <path id="Path_52154" data-name="Path 52154" d="M59.077,47.568a15.4,15.4,0,0,0-2.874.33,1.231,1.231,0,0,0-.164.035,14.938,14.938,0,0,0-1.6.456h-2.81a14.715,14.715,0,0,1,4.418-.816v-.011H56.5C56.976,47.568,58.616,47.522,59.077,47.568Z" transform="translate(-41.645 -47.538)" fill="#9d9d9c"/>
            <path id="Path_52155" data-name="Path 52155" d="M48.813,56.773H46c-.018-.272-.025-.548-.025-.827h2.81C48.786,56.225,48.793,56.5,48.813,56.773Z" transform="translate(-45.978 -41.094)" fill="#9d9d9c"/>
            <path id="Path_52156" data-name="Path 52156" d="M48.955,57.708h-2.81c-.048-.27-.087-.548-.115-.827h2.81C48.866,57.158,48.905,57.434,48.955,57.708Z" transform="translate(-45.938 -40.377)" fill="#9d9d9c"/>
            <path id="Path_52157" data-name="Path 52157" d="M49.2,58.641H46.409c-.083-.27-.152-.548-.217-.827H49C49.053,58.093,49.127,58.372,49.2,58.641Z" transform="translate(-45.814 -39.661)" fill="#9d9d9c"/>
            <path id="Path_52158" data-name="Path 52158" d="M49.584,59.573h-2.81c-.113-.269-.217-.544-.316-.827h2.81Q49.411,59.178,49.584,59.573Z" transform="translate(-45.61 -38.946)" fill="#9d9d9c"/>
            <path id="Path_52159" data-name="Path 52159" d="M50.106,60.508H47.3c-.164-.269-.306-.544-.444-.827h2.81C49.8,59.964,49.948,60.245,50.106,60.508Z" transform="translate(-45.307 -38.228)" fill="#9d9d9c"/>
            <path id="Path_52160" data-name="Path 52160" d="M50.794,61.443h-2.81c-.209-.267-.406-.543-.59-.827H50.2C50.393,60.9,50.589,61.182,50.794,61.443Z" transform="translate(-44.892 -37.511)" fill="#9d9d9c"/>
            <path id="Path_52161" data-name="Path 52161" d="M51.728,62.374h-2.81c-.277-.265-.541-.53-.8-.827h2.81A10.407,10.407,0,0,0,51.728,62.374Z" transform="translate(-44.334 -36.797)" fill="#9d9d9c"/>
            <path id="Path_52162" data-name="Path 52162" d="M53.04,63.311H50.23q-.586-.387-1.126-.827h2.81C52.278,62.777,52.651,63.053,53.04,63.311Z" transform="translate(-43.58 -36.078)" fill="#9d9d9c"/>
            <path id="Path_52163" data-name="Path 52163" d="M55.271,64.244h-2.81a14.12,14.12,0,0,1-1.925-.827h2.81A14.12,14.12,0,0,0,55.271,64.244Z" transform="translate(-42.48 -35.362)" fill="#9d9d9c"/>
            <path id="Path_52164" data-name="Path 52164" d="M57.02,47.543c-.631.057-2.121.2-2.81.33a12.029,12.029,0,0,1,1.7-.27C56.283,47.575,56.654,47.554,57.02,47.543Z" transform="translate(-39.662 -47.541)" fill="#9d9d9c"/>
            <path id="Path_52165" data-name="Path 52165" d="M59.124,47.574a13.6,13.6,0,0,0-3.08.369c-.543.143-1.085.246-1.606.426h-2.81a14.715,14.715,0,0,1,4.418-.816v-.011Z" transform="translate(-41.644 -47.542)" fill="#9d9d9c"/>
            <path id="Path_52166" data-name="Path 52166" d="M53.961,48.478a14.69,14.69,0,0,0-1.414.827h-2.81a14.29,14.29,0,0,1,1.4-.827Z" transform="translate(-43.094 -46.824)" fill="#9d9d9c"/>
            <path id="Path_52167" data-name="Path 52167" d="M52.323,49.413q-.488.392-.938.827h-2.81c.3-.288.613-.562.938-.827Z" transform="translate(-43.985 -46.107)" fill="#9d9d9c"/>
            <path id="Path_52168" data-name="Path 52168" d="M51.235,50.349c-.242.267-.472.544-.693.827h-2.81q.329-.427.687-.827Z" transform="translate(-44.632 -45.388)" fill="#9d9d9c"/>
            <path id="Path_52169" data-name="Path 52169" d="M50.429,51.284c-.177.269-.353.544-.514.827h-2.81c.166-.279.33-.553.514-.827Z" transform="translate(-45.113 -44.671)" fill="#9d9d9c"/>
            <path id="Path_52170" data-name="Path 52170" d="M49.827,52.213c-.134.269-.262.544-.378.827h-2.81c.117-.279.244-.555.376-.827Z" transform="translate(-45.471 -43.958)" fill="#9d9d9c"/>
            <path id="Path_52171" data-name="Path 52171" d="M49.38,53.146c-.1.269-.177.546-.263.827h-2.81c.08-.277.166-.553.265-.827Z" transform="translate(-45.726 -43.242)" fill="#9d9d9c"/>
            <path id="Path_52172" data-name="Path 52172" d="M49.06,54.079c-.064.27-.117.55-.166.827H46.1c.046-.277.1-.553.166-.827Z" transform="translate(-45.888 -42.527)" fill="#9d9d9c"/>
            <path id="Path_52173" data-name="Path 52173" d="M48.87,55.013c-.032.274-.057.548-.069.827h-2.81c.014-.277.037-.555.069-.827Z" transform="translate(-45.968 -41.81)" fill="#9d9d9c"/>
            <path id="Path_52174" data-name="Path 52174" d="M48.813,56.773H46c-.018-.272-.025-.548-.025-.827h2.81C48.786,56.225,48.793,56.5,48.813,56.773Z" transform="translate(-45.978 -41.094)" fill="#9d9d9c"/>
            <path id="Path_52175" data-name="Path 52175" d="M48.955,57.708h-2.81c-.048-.27-.087-.548-.115-.827h2.81C48.866,57.158,48.905,57.434,48.955,57.708Z" transform="translate(-45.938 -40.377)" fill="#9d9d9c"/>
            <path id="Path_52176" data-name="Path 52176" d="M49.2,58.641H46.409c-.083-.27-.152-.548-.217-.827H49C49.053,58.093,49.127,58.372,49.2,58.641Z" transform="translate(-45.814 -39.661)" fill="#9d9d9c"/>
            <path id="Path_52177" data-name="Path 52177" d="M49.584,59.573h-2.81c-.113-.269-.217-.544-.316-.827h2.81Q49.411,59.178,49.584,59.573Z" transform="translate(-45.61 -38.946)" fill="#9d9d9c"/>
            <path id="Path_52178" data-name="Path 52178" d="M50.106,60.508H47.3c-.164-.269-.306-.544-.444-.827h2.81C49.8,59.964,49.948,60.245,50.106,60.508Z" transform="translate(-45.307 -38.228)" fill="#9d9d9c"/>
            <path id="Path_52179" data-name="Path 52179" d="M50.794,61.443h-2.81c-.209-.267-.406-.543-.59-.827H50.2C50.393,60.9,50.589,61.182,50.794,61.443Z" transform="translate(-44.892 -37.511)" fill="#9d9d9c"/>
            <path id="Path_52180" data-name="Path 52180" d="M51.728,62.374h-2.81c-.277-.265-.541-.53-.8-.827h2.81A10.407,10.407,0,0,0,51.728,62.374Z" transform="translate(-44.334 -36.797)" fill="#9d9d9c"/>
            <path id="Path_52181" data-name="Path 52181" d="M53.04,63.311H50.23q-.586-.387-1.126-.827h2.81C52.278,62.777,52.651,63.053,53.04,63.311Z" transform="translate(-43.58 -36.078)" fill="#9d9d9c"/>
            <path id="Path_52182" data-name="Path 52182" d="M55.271,64.244h-2.81a14.12,14.12,0,0,1-1.925-.827h2.81A14.12,14.12,0,0,0,55.271,64.244Z" transform="translate(-42.48 -35.362)" fill="#9d9d9c"/>
          </g>
        </g>
      </g>
    </g>
    <path id="Path_59847" data-name="Path 59847" d="M63.042,58.586a5.887,5.887,0,0,0-3-1.324,14.014,14.014,0,0,1-2.723-.712,1.029,1.029,0,0,1-.673-1q0-1.121,2.108-1.115t2.195,1.195l2.679-.087q-.178-2.558-3.448-2.985l.007-2.124-2.522-.009-.007,2.112a4.789,4.789,0,0,0-2.4.873,2.855,2.855,0,0,0-1.226,2.315,2.767,2.767,0,0,0,.94,2.137,6.5,6.5,0,0,0,3.08,1.285,10.293,10.293,0,0,1,2.711.776,1.162,1.162,0,0,1,.576,1.067q-.005,1.617-2.389,1.608-2.542-.008-2.831-1.939l-2.647.205q.562,3.144,4.146,3.612l-.005,1.932,2.524.011,0-1.949a6.3,6.3,0,0,0,2.313-.836,2.948,2.948,0,0,0,1.548-2.653A3.161,3.161,0,0,0,63.042,58.586Z" transform="translate(38.934 34.432)" fill="#878787" opacity="0.3" style="isolation: isolate"/>
    <path id="Path_59848" data-name="Path 59848" d="M62.68,58.586a5.881,5.881,0,0,0-3-1.324,14.081,14.081,0,0,1-2.725-.712,1.032,1.032,0,0,1-.673-1q0-1.121,2.108-1.115t2.195,1.195l2.679-.087q-.178-2.558-3.448-2.985l.007-2.124L57.3,50.428l-.007,2.112a4.782,4.782,0,0,0-2.4.873,2.852,2.852,0,0,0-1.228,2.315,2.769,2.769,0,0,0,.942,2.137,6.484,6.484,0,0,0,3.079,1.285,10.293,10.293,0,0,1,2.711.776,1.158,1.158,0,0,1,.576,1.067q-.005,1.617-2.389,1.608-2.542-.008-2.829-1.939l-2.649.205q.562,3.144,4.148,3.612l-.005,1.932,2.522.011.005-1.949a6.289,6.289,0,0,0,2.312-.836,2.948,2.948,0,0,0,1.548-2.653A3.161,3.161,0,0,0,62.68,58.586Z" transform="translate(38.656 34.432)" fill="#fff"/>
    <path id="Path_59849" data-name="Path 59849" d="M48.02,55.55q-2.574-2.489-8.08-3.561a37.993,37.993,0,0,1-7.329-1.916A2.779,2.779,0,0,1,30.8,47.391q.011-3.014,5.671-3,5.644.016,5.906,3.213l7.205-.232q-.477-6.887-9.274-8.029l.021-5.715-6.786-.023-.016,5.676a12.871,12.871,0,0,0-6.459,2.352,7.674,7.674,0,0,0-3.3,6.228A7.448,7.448,0,0,0,26.3,53.611q2.542,2.312,8.285,3.453t7.293,2.091a3.119,3.119,0,0,1,1.548,2.87q-.016,4.347-6.427,4.324-6.839-.024-7.613-5.213l-7.124.551q1.514,8.454,11.155,9.713L33.4,76.6l6.784.027.014-5.245a16.977,16.977,0,0,0,6.221-2.244A7.933,7.933,0,0,0,50.582,62,8.514,8.514,0,0,0,48.02,55.55Z" transform="translate(14.99 21.527)" fill="#2b211d"/>
    <g id="Group_9417" data-name="Group 9417" transform="translate(66.517 116.895)">
      <path id="Path_52183" data-name="Path 52183" d="M79.571,69.177c0,.343-9.121.6-20.383.6s-20.367-.262-20.367-.6,9.121-.622,20.367-.622S79.571,68.832,79.571,69.177Z" transform="translate(-38.82 -68.555)" fill="#dadada"/>
      <path id="Path_52184" data-name="Path 52184" d="M74.682,69.086c0,.191-7.6.33-16.966.33s-16.966-.143-16.966-.33,7.6-.343,16.966-.343S74.682,68.9,74.682,69.086Z" transform="translate(-37.338 -68.411)" fill="#9d9d9c" opacity="0.3" style="isolation: isolate"/>
      <path id="Path_52185" data-name="Path 52185" d="M79.571,68.906v3.888c0,.343-9.121.622-20.383.622s-20.367-.277-20.367-.622V68.906c0,.343,9.121.606,20.367.606S79.571,69.251,79.571,68.906Z" transform="translate(-38.82 -68.286)" fill="#9d9d9c"/>
      <g id="Group_9416" data-name="Group 9416" transform="translate(0 0.619)" opacity="0.3">
        <path id="Path_52186" data-name="Path 52186" d="M40.02,69.115V73c-.776-.065-1.2-.138-1.2-.21V68.9C38.82,68.983,39.237,69.052,40.02,69.115Z" transform="translate(-38.82 -68.905)" fill="#9d9d9c"/>
        <path id="Path_52187" data-name="Path 52187" d="M40.177,69.069c.353.019.763.037,1.2.058v3.888c-.437-.014-.838-.035-1.2-.058Z" transform="translate(-37.779 -68.779)" fill="#9d9d9c"/>
        <path id="Path_52188" data-name="Path 52188" d="M41.532,69.126c.378.016.778.032,1.2.039v3.888l-1.2-.041Z" transform="translate(-36.739 -68.735)" fill="#9d9d9c"/>
        <path id="Path_52189" data-name="Path 52189" d="M42.9,69.169c.385,0,.786.014,1.195.027v3.888L42.9,73.055Z" transform="translate(-35.693 -68.702)" fill="#9d9d9c"/>
        <path id="Path_52190" data-name="Path 52190" d="M44.246,69.2l1.2.019v3.888l-1.2-.023Z" transform="translate(-34.657 -68.68)" fill="#9d9d9c"/>
        <path id="Path_52191" data-name="Path 52191" d="M45.6,69.219l1.2.011v3.888L45.6,73.1Z" transform="translate(-33.616 -68.664)" fill="#9d9d9c"/>
        <path id="Path_52192" data-name="Path 52192" d="M46.959,69.237l1.2.012v3.888l-1.2-.012Z" transform="translate(-32.575 -68.65)" fill="#9d9d9c"/>
        <path id="Path_52193" data-name="Path 52193" d="M48.32,69.243h1.2v3.888h-1.2Z" transform="translate(-31.531 -68.646)" fill="#9d9d9c"/>
        <path id="Path_52194" data-name="Path 52194" d="M50.864,69.248h0v3.888H49.673V69.248Z" transform="translate(-30.493 -68.642)" fill="#9d9d9c"/>
        <path id="Path_52195" data-name="Path 52195" d="M51.032,69.248h1.2v3.888h-1.2Z" transform="translate(-29.45 -68.642)" fill="#9d9d9c"/>
        <path id="Path_52196" data-name="Path 52196" d="M52.386,69.244h1.195v3.888H52.386Z" transform="translate(-28.412 -68.645)" fill="#9d9d9c"/>
        <path id="Path_52197" data-name="Path 52197" d="M53.743,69.242l1.2-.011v3.888l-1.2.012Z" transform="translate(-27.37 -68.655)" fill="#9d9d9c"/>
        <path id="Path_52198" data-name="Path 52198" d="M55.1,69.228l1.2-.019V73.1l-1.2.016Z" transform="translate(-26.331 -68.672)" fill="#9d9d9c"/>
        <path id="Path_52199" data-name="Path 52199" d="M56.455,69.207l1.2-.023v3.888l-1.2.023Z" transform="translate(-25.29 -68.691)" fill="#9d9d9c"/>
        <path id="Path_52200" data-name="Path 52200" d="M57.81,69.184l1.2-.035v3.888l-1.2.035Z" transform="translate(-24.25 -68.718)" fill="#9d9d9c"/>
        <path id="Path_52201" data-name="Path 52201" d="M59.167,69.145c.424-.012.827-.028,1.2-.042v3.888c-.373.019-.774.035-1.2.051Z" transform="translate(-23.209 -68.753)" fill="#9d9d9c"/>
        <path id="Path_52202" data-name="Path 52202" d="M61.723,69.024v3.888c-.33.027-.735.055-1.2.081V69.105C60.988,69.074,61.389,69.056,61.723,69.024Z" transform="translate(-22.169 -68.814)" fill="#9d9d9c"/>
        <path id="Path_52203" data-name="Path 52203" d="M40.02,69.115V73c-.776-.065-1.2-.138-1.2-.21V68.9C38.82,68.983,39.237,69.052,40.02,69.115Z" transform="translate(-38.82 -68.905)" fill="#9d9d9c"/>
        <path id="Path_52204" data-name="Path 52204" d="M41.375,69.127v3.888c-.437-.014-.838-.035-1.2-.058V69.069C40.545,69.088,40.94,69.106,41.375,69.127Z" transform="translate(-37.779 -68.779)" fill="#9d9d9c"/>
        <path id="Path_52205" data-name="Path 52205" d="M42.733,69.162V73.05l-1.2-.041V69.121C41.911,69.146,42.312,69.162,42.733,69.162Z" transform="translate(-36.738 -68.739)" fill="#9d9d9c"/>
        <path id="Path_52206" data-name="Path 52206" d="M44.083,69.2v3.888l-1.195-.028V69.168C43.279,69.179,43.68,69.184,44.083,69.2Z" transform="translate(-35.699 -68.703)" fill="#9d9d9c"/>
        <path id="Path_52207" data-name="Path 52207" d="M45.446,69.219v3.888l-1.2-.023V69.2Z" transform="translate(-34.657 -68.682)" fill="#9d9d9c"/>
        <path id="Path_52208" data-name="Path 52208" d="M46.8,69.232V73.12l-1.2-.014V69.218Z" transform="translate(-33.616 -68.665)" fill="#9d9d9c"/>
        <path id="Path_52209" data-name="Path 52209" d="M48.16,69.242V73.13l-1.2-.012V69.23Z" transform="translate(-32.575 -68.656)" fill="#9d9d9c"/>
        <path id="Path_52210" data-name="Path 52210" d="M49.515,69.245v3.888h-1.2V69.245Z" transform="translate(-31.535 -68.644)" fill="#9d9d9c"/>
        <path id="Path_52211" data-name="Path 52211" d="M50.868,69.248v3.888H49.677V69.248Z" transform="translate(-30.49 -68.642)" fill="#9d9d9c"/>
        <path id="Path_52212" data-name="Path 52212" d="M52.23,69.246v3.888h-1.2V69.246Z" transform="translate(-29.452 -68.643)" fill="#9d9d9c"/>
        <path id="Path_52213" data-name="Path 52213" d="M53.581,69.237v3.888H52.386V69.237Z" transform="translate(-28.412 -68.65)" fill="#9d9d9c"/>
        <path id="Path_52214" data-name="Path 52214" d="M54.941,69.226v3.888l-1.2.012V69.245Z" transform="translate(-27.372 -68.659)" fill="#9d9d9c"/>
        <path id="Path_52215" data-name="Path 52215" d="M56.3,69.209V73.1l-1.2.016V69.225Z" transform="translate(-26.331 -68.672)" fill="#9d9d9c"/>
        <path id="Path_52216" data-name="Path 52216" d="M57.655,69.184v3.888l-1.2.023V69.207Z" transform="translate(-25.29 -68.691)" fill="#9d9d9c"/>
        <path id="Path_52217" data-name="Path 52217" d="M59.01,69.143v3.888l-1.2.035V69.178Z" transform="translate(-24.25 -68.722)" fill="#9d9d9c"/>
        <path id="Path_52218" data-name="Path 52218" d="M60.368,69.1v3.888c-.373.019-.774.035-1.2.051V69.154C59.592,69.135,59.993,69.117,60.368,69.1Z" transform="translate(-23.208 -68.753)" fill="#9d9d9c"/>
        <path id="Path_52219" data-name="Path 52219" d="M61.723,69.024v3.888c-.33.027-.735.055-1.2.081V69.105C60.988,69.074,61.389,69.056,61.723,69.024Z" transform="translate(-22.169 -68.814)" fill="#9d9d9c"/>
      </g>
    </g>
    <g id="Group_9419" data-name="Group 9419" transform="translate(70.112 112.853)">
      <path id="Path_52220" data-name="Path 52220" d="M81.606,66.89c0,.345-9.121.606-20.383.606s-20.367-.263-20.367-.606,9.121-.622,20.367-.622S81.606,66.545,81.606,66.89Z" transform="translate(-40.853 -66.268)" fill="#f9b233"/>
      <path id="Path_52221" data-name="Path 52221" d="M81.606,66.619v3.888c0,.343-9.121.622-20.383.622s-20.367-.279-20.367-.622V66.619c0,.345,9.121.6,20.367.6S81.606,66.964,81.606,66.619Z" transform="translate(-40.853 -65.999)" fill="#f39200"/>
      <g id="Group_9418" data-name="Group 9418" transform="translate(0 0.619)" opacity="0.3">
        <path id="Path_52222" data-name="Path 52222" d="M42.054,66.828v3.888c-.774-.065-1.2-.138-1.2-.21V66.618C40.854,66.7,41.278,66.765,42.054,66.828Z" transform="translate(-40.854 -66.618)" fill="#f39200"/>
        <path id="Path_52223" data-name="Path 52223" d="M42.211,66.783c.353.019.763.039,1.2.058v3.888c-.437-.014-.838-.035-1.2-.058Z" transform="translate(-39.813 -66.491)" fill="#f39200"/>
        <path id="Path_52224" data-name="Path 52224" d="M43.567,66.84c.378.016.778.032,1.2.039v3.9c-.421-.016-.827-.028-1.2-.039Z" transform="translate(-38.772 -66.448)" fill="#f39200"/>
        <path id="Path_52225" data-name="Path 52225" d="M44.925,66.882c.385,0,.786.014,1.195.027V70.8l-1.195-.028Z" transform="translate(-37.731 -66.415)" fill="#f39200"/>
        <path id="Path_52226" data-name="Path 52226" d="M46.28,66.915l1.2.019v3.888l-1.2-.023Z" transform="translate(-36.691 -66.39)" fill="#f39200"/>
        <path id="Path_52227" data-name="Path 52227" d="M47.637,66.932l1.2.011v3.888l-1.2-.014Z" transform="translate(-35.65 -66.377)" fill="#f39200"/>
        <path id="Path_52228" data-name="Path 52228" d="M48.994,66.946l1.2.011v3.9l-1.2-.012Z" transform="translate(-34.609 -66.366)" fill="#f39200"/>
        <path id="Path_52229" data-name="Path 52229" d="M50.349,66.957h1.2v3.888h-1.2Z" transform="translate(-33.569 -66.358)" fill="#f39200"/>
        <path id="Path_52230" data-name="Path 52230" d="M52.9,66.961h0v3.888H51.711V66.961Z" transform="translate(-32.524 -66.355)" fill="#f39200"/>
        <path id="Path_52231" data-name="Path 52231" d="M53.063,66.961h1.2v3.888h-1.2Z" transform="translate(-31.487 -66.355)" fill="#f39200"/>
        <path id="Path_52232" data-name="Path 52232" d="M54.415,66.958H55.61v3.888H54.415Z" transform="translate(-30.449 -66.357)" fill="#f39200"/>
        <path id="Path_52233" data-name="Path 52233" d="M55.775,66.952l1.2-.012v3.888l-1.2.012Z" transform="translate(-29.406 -66.371)" fill="#f39200"/>
        <path id="Path_52234" data-name="Path 52234" d="M57.132,66.941l1.2-.019V70.81l-1.2.014Z" transform="translate(-28.365 -66.385)" fill="#f39200"/>
        <path id="Path_52235" data-name="Path 52235" d="M58.489,66.921l1.2-.023v3.888l-1.2.023Z" transform="translate(-27.324 -66.403)" fill="#f39200"/>
        <path id="Path_52236" data-name="Path 52236" d="M59.844,66.9l1.2-.035V70.75l-1.2.035Z" transform="translate(-26.284 -66.431)" fill="#f39200"/>
        <path id="Path_52237" data-name="Path 52237" d="M61.2,66.858c.424-.011.827-.028,1.2-.042V70.7c-.373.019-.774.035-1.2.051Z" transform="translate(-25.243 -66.466)" fill="#f39200"/>
        <path id="Path_52238" data-name="Path 52238" d="M63.758,66.737v3.888c-.33.027-.735.055-1.2.081V66.818C63.021,66.8,63.422,66.769,63.758,66.737Z" transform="translate(-24.202 -66.527)" fill="#f39200"/>
        <path id="Path_52239" data-name="Path 52239" d="M42.054,66.828v3.888c-.774-.065-1.2-.138-1.2-.21V66.618C40.854,66.7,41.278,66.765,42.054,66.828Z" transform="translate(-40.854 -66.618)" fill="#f39200"/>
        <path id="Path_52240" data-name="Path 52240" d="M43.411,66.841v3.888c-.437-.014-.838-.035-1.2-.058V66.783C42.573,66.8,42.976,66.827,43.411,66.841Z" transform="translate(-39.813 -66.491)" fill="#f39200"/>
        <path id="Path_52241" data-name="Path 52241" d="M44.77,66.874v3.9c-.421-.016-.827-.028-1.2-.039V66.846C43.943,66.851,44.342,66.865,44.77,66.874Z" transform="translate(-38.77 -66.443)" fill="#f39200"/>
        <path id="Path_52242" data-name="Path 52242" d="M46.12,66.913V70.8l-1.195-.028V66.885C45.31,66.889,45.711,66.894,46.12,66.913Z" transform="translate(-37.731 -66.413)" fill="#f39200"/>
        <path id="Path_52243" data-name="Path 52243" d="M47.481,66.928v3.9l-1.2-.023V66.914Z" transform="translate(-36.689 -66.391)" fill="#f39200"/>
        <path id="Path_52244" data-name="Path 52244" d="M48.837,66.944v3.888l-1.2-.014V66.93Z" transform="translate(-35.65 -66.379)" fill="#f39200"/>
        <path id="Path_52245" data-name="Path 52245" d="M50.194,66.954v3.9l-1.2-.012V66.95Z" transform="translate(-34.609 -66.363)" fill="#f39200"/>
        <path id="Path_52246" data-name="Path 52246" d="M51.551,66.959v3.888h-1.2V66.959Z" transform="translate(-33.567 -66.356)" fill="#f39200"/>
        <path id="Path_52247" data-name="Path 52247" d="M52.9,66.961v3.888H51.71V66.961Z" transform="translate(-32.525 -66.355)" fill="#f39200"/>
        <path id="Path_52248" data-name="Path 52248" d="M54.263,66.959v3.888h-1.2V66.959Z" transform="translate(-31.487 -66.356)" fill="#f39200"/>
        <path id="Path_52249" data-name="Path 52249" d="M55.615,66.953v3.888H54.42V66.953C54.825,66.957,55.222,66.953,55.615,66.953Z" transform="translate(-30.446 -66.361)" fill="#f39200"/>
        <path id="Path_52250" data-name="Path 52250" d="M56.977,66.94v3.888l-1.2.012V66.952Z" transform="translate(-29.403 -66.371)" fill="#f39200"/>
        <path id="Path_52251" data-name="Path 52251" d="M58.329,66.922V70.81l-1.2.014V66.936Z" transform="translate(-28.367 -66.385)" fill="#f39200"/>
        <path id="Path_52252" data-name="Path 52252" d="M59.689,66.9v3.888l-1.2.023V66.923Z" transform="translate(-27.324 -66.402)" fill="#f39200"/>
        <path id="Path_52253" data-name="Path 52253" d="M61.041,66.862V70.75l-1.2.035V66.9Z" transform="translate(-26.286 -66.431)" fill="#f39200"/>
        <path id="Path_52254" data-name="Path 52254" d="M62.4,66.816V70.7c-.373.019-.774.035-1.2.051V66.867C61.625,66.848,62.026,66.837,62.4,66.816Z" transform="translate(-25.243 -66.466)" fill="#f39200"/>
        <path id="Path_52255" data-name="Path 52255" d="M63.758,66.737v3.888c-.33.027-.735.055-1.2.081V66.818C63.021,66.8,63.422,66.769,63.758,66.737Z" transform="translate(-24.202 -66.527)" fill="#f39200"/>
      </g>
    </g>
    <g id="Group_9421" data-name="Group 9421" transform="translate(68.912 108.635)">
      <path id="Path_52256" data-name="Path 52256" d="M80.927,64.5c0,.343-9.121.606-20.383.606s-20.367-.263-20.367-.606,9.121-.624,20.367-.624S80.927,64.16,80.927,64.5Z" transform="translate(-40.174 -63.881)" fill="#f9b233"/>
      <path id="Path_52257" data-name="Path 52257" d="M80.927,64.233v3.888c0,.343-9.121.622-20.383.622s-20.367-.277-20.367-.622V64.233c0,.345,9.121.606,20.367.606S80.927,64.578,80.927,64.233Z" transform="translate(-40.174 -63.611)" fill="#f39200"/>
      <g id="Group_9420" data-name="Group 9420" transform="translate(0 0.62)" opacity="0.3">
        <path id="Path_52258" data-name="Path 52258" d="M41.375,64.442V68.33c-.774-.065-1.2-.136-1.2-.21V64.232C40.175,64.31,40.6,64.379,41.375,64.442Z" transform="translate(-40.175 -64.232)" fill="#f39200"/>
        <path id="Path_52259" data-name="Path 52259" d="M41.532,64.4c.353.019.763.039,1.2.06v3.888c-.437-.014-.838-.035-1.2-.058Z" transform="translate(-39.134 -64.105)" fill="#f39200"/>
        <path id="Path_52260" data-name="Path 52260" d="M42.888,64.455c.378.014.779.032,1.2.039v3.888l-1.2-.039Z" transform="translate(-38.093 -64.061)" fill="#f39200"/>
        <path id="Path_52261" data-name="Path 52261" d="M44.246,64.5c.385,0,.786.014,1.195.028v3.888c-.408,0-.809-.019-1.195-.028Z" transform="translate(-37.052 -64.029)" fill="#f39200"/>
        <path id="Path_52262" data-name="Path 52262" d="M45.6,64.523l1.2.019v3.9l-1.2-.023Z" transform="translate(-36.012 -64.009)" fill="#f39200"/>
        <path id="Path_52263" data-name="Path 52263" d="M46.958,64.547l1.2.011v3.888l-1.2-.014Z" transform="translate(-34.971 -63.99)" fill="#f39200"/>
        <path id="Path_52264" data-name="Path 52264" d="M48.32,64.562l1.2.011v3.888l-1.2-.011Z" transform="translate(-33.926 -63.979)" fill="#f39200"/>
        <path id="Path_52265" data-name="Path 52265" d="M49.67,64.572h1.2V68.46h-1.2Z" transform="translate(-32.89 -63.971)" fill="#f39200"/>
        <path id="Path_52266" data-name="Path 52266" d="M52.218,64.575h0v3.9H51.027V64.586Z" transform="translate(-31.849 -63.969)" fill="#f39200"/>
        <path id="Path_52267" data-name="Path 52267" d="M52.385,64.575h1.2v3.888h-1.2Z" transform="translate(-30.807 -63.969)" fill="#f39200"/>
        <path id="Path_52268" data-name="Path 52268" d="M53.743,64.572h1.195V68.46H53.743Z" transform="translate(-29.765 -63.971)" fill="#f39200"/>
        <path id="Path_52269" data-name="Path 52269" d="M55.1,64.568l1.2-.012v3.888l-1.2.012Z" transform="translate(-28.727 -63.983)" fill="#f39200"/>
        <path id="Path_52270" data-name="Path 52270" d="M56.455,64.555l1.2-.019v3.888l-1.2.014Z" transform="translate(-27.684 -63.999)" fill="#f39200"/>
        <path id="Path_52271" data-name="Path 52271" d="M57.81,64.535l1.2-.023V68.4l-1.2.023Z" transform="translate(-26.645 -64.017)" fill="#f39200"/>
        <path id="Path_52272" data-name="Path 52272" d="M59.167,64.511l1.2-.035v3.888l-1.2.035Z" transform="translate(-25.604 -64.045)" fill="#f39200"/>
        <path id="Path_52273" data-name="Path 52273" d="M60.522,64.472c.424-.011.827-.028,1.2-.042v3.888c-.373.019-.774.035-1.2.051Z" transform="translate(-24.564 -64.08)" fill="#f39200"/>
        <path id="Path_52274" data-name="Path 52274" d="M63.079,64.351v3.888c-.33.028-.735.055-1.2.081V64.432C62.342,64.4,62.743,64.383,63.079,64.351Z" transform="translate(-23.523 -64.141)" fill="#f39200"/>
        <path id="Path_52275" data-name="Path 52275" d="M41.375,64.442V68.33c-.774-.065-1.2-.136-1.2-.21V64.232C40.175,64.31,40.6,64.379,41.375,64.442Z" transform="translate(-40.175 -64.232)" fill="#f39200"/>
        <path id="Path_52276" data-name="Path 52276" d="M42.732,64.456v3.888c-.437-.014-.838-.035-1.2-.058V64.4Z" transform="translate(-39.134 -64.105)" fill="#f39200"/>
        <path id="Path_52277" data-name="Path 52277" d="M44.088,64.494v3.888l-1.2-.039V64.455C43.272,64.469,43.667,64.481,44.088,64.494Z" transform="translate(-38.093 -64.061)" fill="#f39200"/>
        <path id="Path_52278" data-name="Path 52278" d="M45.441,64.524v3.888c-.408,0-.809-.019-1.195-.028V64.5C44.631,64.5,45.032,64.51,45.441,64.524Z" transform="translate(-37.052 -64.029)" fill="#f39200"/>
        <path id="Path_52279" data-name="Path 52279" d="M46.8,64.542v3.9l-1.2-.023V64.528Z" transform="translate(-36.012 -64.005)" fill="#f39200"/>
        <path id="Path_52280" data-name="Path 52280" d="M48.158,64.559v3.888l-1.2-.014V64.545Z" transform="translate(-34.971 -63.992)" fill="#f39200"/>
        <path id="Path_52281" data-name="Path 52281" d="M49.515,64.574v3.888l-1.2-.011V64.563Z" transform="translate(-33.93 -63.978)" fill="#f39200"/>
        <path id="Path_52282" data-name="Path 52282" d="M50.87,64.579v3.888h-1.2v-3.9Z" transform="translate(-32.89 -63.975)" fill="#f39200"/>
        <path id="Path_52283" data-name="Path 52283" d="M52.222,64.575v3.9H51.031V64.586h1.191Z" transform="translate(-31.846 -63.969)" fill="#f39200"/>
        <path id="Path_52284" data-name="Path 52284" d="M53.585,64.579v3.888h-1.2v-3.9Z" transform="translate(-30.807 -63.974)" fill="#f39200"/>
        <path id="Path_52285" data-name="Path 52285" d="M54.936,64.562V68.45H53.741V64.562C54.146,64.574,54.542,64.562,54.936,64.562Z" transform="translate(-29.767 -63.979)" fill="#f39200"/>
        <path id="Path_52286" data-name="Path 52286" d="M56.294,64.554v3.888l-1.2.012V64.566Z" transform="translate(-28.727 -63.985)" fill="#f39200"/>
        <path id="Path_52287" data-name="Path 52287" d="M57.653,64.536v3.888l-1.2.014V64.55Z" transform="translate(-27.686 -63.999)" fill="#f39200"/>
        <path id="Path_52288" data-name="Path 52288" d="M59.01,64.512V68.4l-1.2.023V64.535Z" transform="translate(-26.645 -64.017)" fill="#f39200"/>
        <path id="Path_52289" data-name="Path 52289" d="M60.365,64.476v3.888l-1.2.035V64.511Z" transform="translate(-25.605 -64.045)" fill="#f39200"/>
        <path id="Path_52290" data-name="Path 52290" d="M61.722,64.43v3.888c-.373.019-.774.035-1.2.051V64.481C60.946,64.462,61.349,64.441,61.722,64.43Z" transform="translate(-24.564 -64.08)" fill="#f39200"/>
        <path id="Path_52291" data-name="Path 52291" d="M63.079,64.351v3.888c-.33.028-.735.055-1.2.081V64.432C62.342,64.4,62.743,64.383,63.079,64.351Z" transform="translate(-23.523 -64.141)" fill="#f39200"/>
      </g>
    </g>
    <g id="Group_9423" data-name="Group 9423" transform="translate(67.422 104.132)">
      <path id="Path_52292" data-name="Path 52292" d="M80.084,61.957c0,.343-9.121.606-20.383.606s-20.367-.263-20.367-.606,9.119-.624,20.367-.624S80.084,61.6,80.084,61.957Z" transform="translate(-39.331 -61.333)" fill="#dadada"/>
      <path id="Path_52293" data-name="Path 52293" d="M75.194,61.861c0,.191-7.6.33-16.966.33s-16.966-.143-16.966-.33,7.6-.343,16.966-.343S75.194,61.672,75.194,61.861Z" transform="translate(-37.85 -61.191)" fill="#9d9d9c" opacity="0.3" style="isolation: isolate"/>
      <path id="Path_52294" data-name="Path 52294" d="M80.084,61.682V65.57c0,.343-9.121.622-20.383.622s-20.367-.277-20.367-.622V61.682c0,.345,9.119.606,20.367.606S80.084,62.027,80.084,61.682Z" transform="translate(-39.331 -61.065)" fill="#9d9d9c"/>
      <g id="Group_9422" data-name="Group 9422" transform="translate(0 0.613)" opacity="0.3">
        <path id="Path_52295" data-name="Path 52295" d="M40.532,61.89v3.888c-.774-.065-1.2-.136-1.2-.21V61.68C39.332,61.76,39.756,61.825,40.532,61.89Z" transform="translate(-39.332 -61.68)" fill="#9d9d9c"/>
        <path id="Path_52296" data-name="Path 52296" d="M40.689,61.845c.353.019.763.039,1.2.058v3.888c-.437-.016-.838-.035-1.2-.058Z" transform="translate(-38.291 -61.553)" fill="#9d9d9c"/>
        <path id="Path_52297" data-name="Path 52297" d="M42.047,61.9c.378.014.778.032,1.2.039V65.83l-1.2-.039Z" transform="translate(-37.249 -61.509)" fill="#9d9d9c"/>
        <path id="Path_52298" data-name="Path 52298" d="M43.4,61.944c.385,0,.786.014,1.195.028V65.86c-.408,0-.809-.019-1.195-.027Z" transform="translate(-36.209 -61.477)" fill="#9d9d9c"/>
        <path id="Path_52299" data-name="Path 52299" d="M44.758,61.973l1.2.019v3.9l-1.2-.023Z" transform="translate(-35.169 -61.455)" fill="#9d9d9c"/>
        <path id="Path_52300" data-name="Path 52300" d="M46.115,61.995l1.2.012v3.9l-1.2-.016Z" transform="translate(-34.128 -61.438)" fill="#9d9d9c"/>
        <path id="Path_52301" data-name="Path 52301" d="M47.472,62.006l1.2.012v3.888l-1.2-.011Z" transform="translate(-33.087 -61.43)" fill="#9d9d9c"/>
        <path id="Path_52302" data-name="Path 52302" d="M48.827,62.02h1.2v3.888h-1.2Z" transform="translate(-32.047 -61.419)" fill="#9d9d9c"/>
        <path id="Path_52303" data-name="Path 52303" d="M51.375,62.023h0v3.888H50.184V62.023Z" transform="translate(-31.006 -61.417)" fill="#9d9d9c"/>
        <path id="Path_52304" data-name="Path 52304" d="M51.542,62.023h1.2v3.888h-1.2Z" transform="translate(-29.964 -61.417)" fill="#9d9d9c"/>
        <path id="Path_52305" data-name="Path 52305" d="M52.9,62.02H54.1v3.888H52.9Z" transform="translate(-28.921 -61.419)" fill="#9d9d9c"/>
        <path id="Path_52306" data-name="Path 52306" d="M54.253,62.014l1.2-.011v3.9l-1.2.012Z" transform="translate(-27.884 -61.432)" fill="#9d9d9c"/>
        <path id="Path_52307" data-name="Path 52307" d="M55.614,62l1.2-.019v3.888l-1.2.014Z" transform="translate(-26.84 -61.447)" fill="#9d9d9c"/>
        <path id="Path_52308" data-name="Path 52308" d="M56.968,61.983l1.2-.023v3.888l-1.2.023Z" transform="translate(-25.801 -61.465)" fill="#9d9d9c"/>
        <path id="Path_52309" data-name="Path 52309" d="M58.326,61.96l1.2-.035v3.888l-1.2.035Z" transform="translate(-24.759 -61.492)" fill="#9d9d9c"/>
        <path id="Path_52310" data-name="Path 52310" d="M59.68,61.92c.424-.011.827-.028,1.2-.042v3.888c-.373.019-.774.035-1.2.051Z" transform="translate(-23.72 -61.528)" fill="#9d9d9c"/>
        <path id="Path_52311" data-name="Path 52311" d="M62.236,61.8v3.888c-.33.028-.735.055-1.2.081V61.88C61.5,61.859,61.9,61.833,62.236,61.8Z" transform="translate(-22.68 -61.589)" fill="#9d9d9c"/>
        <path id="Path_52312" data-name="Path 52312" d="M40.532,61.89v3.888c-.774-.065-1.2-.136-1.2-.21V61.68C39.332,61.76,39.756,61.825,40.532,61.89Z" transform="translate(-39.332 -61.68)" fill="#9d9d9c"/>
        <path id="Path_52313" data-name="Path 52313" d="M41.889,61.9v3.888c-.437-.016-.838-.035-1.2-.058V61.845C41.051,61.864,41.452,61.884,41.889,61.9Z" transform="translate(-38.291 -61.553)" fill="#9d9d9c"/>
        <path id="Path_52314" data-name="Path 52314" d="M43.247,61.942V65.83l-1.2-.039V61.9C42.425,61.917,42.825,61.935,43.247,61.942Z" transform="translate(-37.249 -61.509)" fill="#9d9d9c"/>
        <path id="Path_52315" data-name="Path 52315" d="M44.6,61.972V65.86c-.408,0-.809-.019-1.195-.027V61.945C43.788,61.943,44.2,61.957,44.6,61.972Z" transform="translate(-36.209 -61.477)" fill="#9d9d9c"/>
        <path id="Path_52316" data-name="Path 52316" d="M45.958,61.99v3.9l-1.2-.023V61.976Z" transform="translate(-35.169 -61.453)" fill="#9d9d9c"/>
        <path id="Path_52317" data-name="Path 52317" d="M47.315,62v3.9l-1.2-.016V62Z" transform="translate(-34.128 -61.434)" fill="#9d9d9c"/>
        <path id="Path_52318" data-name="Path 52318" d="M48.67,62.023v3.9l-1.2-.012v-3.9Z" transform="translate(-33.087 -61.431)" fill="#9d9d9c"/>
        <path id="Path_52319" data-name="Path 52319" d="M50.025,62.021v3.888h-1.2V62.021Z" transform="translate(-32.047 -61.418)" fill="#9d9d9c"/>
        <path id="Path_52320" data-name="Path 52320" d="M51.379,62.023v3.888H50.188V62.023Z" transform="translate(-31.003 -61.417)" fill="#9d9d9c"/>
        <path id="Path_52321" data-name="Path 52321" d="M52.742,62.021v3.888h-1.2V62.021Z" transform="translate(-29.964 -61.418)" fill="#9d9d9c"/>
        <path id="Path_52322" data-name="Path 52322" d="M54.093,62.015v3.9H52.9V62.031C53.3,62.019,53.7,62.015,54.093,62.015Z" transform="translate(-28.924 -61.423)" fill="#9d9d9c"/>
        <path id="Path_52323" data-name="Path 52323" d="M55.453,62v3.9l-1.2.012V62.025Z" transform="translate(-27.884 -61.433)" fill="#9d9d9c"/>
        <path id="Path_52324" data-name="Path 52324" d="M56.81,61.984v3.888l-1.2.014V62Z" transform="translate(-26.843 -61.447)" fill="#9d9d9c"/>
        <path id="Path_52325" data-name="Path 52325" d="M58.168,61.96v3.888l-1.2.023V61.983Z" transform="translate(-25.801 -61.465)" fill="#9d9d9c"/>
        <path id="Path_52326" data-name="Path 52326" d="M59.521,61.924v3.888l-1.2.035V61.959Z" transform="translate(-24.761 -61.493)" fill="#9d9d9c"/>
        <path id="Path_52327" data-name="Path 52327" d="M60.88,61.878v3.888c-.373.019-.774.035-1.2.051V61.929C60.1,61.91,60.5,61.892,60.88,61.878Z" transform="translate(-23.72 -61.528)" fill="#9d9d9c"/>
        <path id="Path_52328" data-name="Path 52328" d="M62.236,61.8v3.888c-.33.028-.735.055-1.2.081V61.88C61.5,61.859,61.9,61.833,62.236,61.8Z" transform="translate(-22.68 -61.589)" fill="#9d9d9c"/>
      </g>
    </g>
    <g id="Group_9425" data-name="Group 9425" transform="translate(69.813 99.67)">
      <path id="Path_52329" data-name="Path 52329" d="M81.443,59.432c0,.343-9.121.606-20.385.606s-20.367-.263-20.367-.606,9.121-.624,20.367-.624S81.443,59.078,81.443,59.432Z" transform="translate(-40.681 -58.808)" fill="#f9b233"/>
      <path id="Path_52330" data-name="Path 52330" d="M81.443,59.161v3.888c0,.345-9.121.622-20.385.622s-20.367-.277-20.367-.622V59.161c0,.345,9.121.606,20.367.606S81.443,59.506,81.443,59.161Z" transform="translate(-40.681 -58.537)" fill="#f39200"/>
      <g id="Group_9424" data-name="Group 9424" transform="translate(0 0.619)" opacity="0.3">
        <path id="Path_52331" data-name="Path 52331" d="M41.885,59.368v3.888c-.774-.067-1.2-.136-1.2-.21V59.158C40.685,59.236,41.106,59.3,41.885,59.368Z" transform="translate(-40.685 -59.158)" fill="#f39200"/>
        <path id="Path_52332" data-name="Path 52332" d="M42.042,59.325c.353.019.763.039,1.2.058v3.888c-.437-.014-.838-.035-1.2-.058Z" transform="translate(-39.644 -59.03)" fill="#f39200"/>
        <path id="Path_52333" data-name="Path 52333" d="M43.4,59.381c.378.014.778.032,1.2.039v3.9l-1.2-.039Z" transform="translate(-38.603 -58.987)" fill="#f39200"/>
        <path id="Path_52334" data-name="Path 52334" d="M44.756,59.418c.385,0,.786.014,1.195.028v3.888l-1.195-.027Z" transform="translate(-37.562 -58.959)" fill="#f39200"/>
        <path id="Path_52335" data-name="Path 52335" d="M46.111,59.451l1.2.019v3.888l-1.2-.023Z" transform="translate(-36.522 -58.933)" fill="#f39200"/>
        <path id="Path_52336" data-name="Path 52336" d="M47.468,59.473l1.2.011v3.9l-1.2-.016Z" transform="translate(-35.481 -58.916)" fill="#f39200"/>
        <path id="Path_52337" data-name="Path 52337" d="M48.825,59.486l1.2.012v3.888l-1.2-.012Z" transform="translate(-34.44 -58.906)" fill="#f39200"/>
        <path id="Path_52338" data-name="Path 52338" d="M50.18,59.5h1.2v3.888h-1.2Z" transform="translate(-33.4 -58.897)" fill="#f39200"/>
        <path id="Path_52339" data-name="Path 52339" d="M52.729,59.5h0v3.888H51.538V59.5Z" transform="translate(-32.358 -58.895)" fill="#f39200"/>
        <path id="Path_52340" data-name="Path 52340" d="M52.9,59.5h1.2v3.888H52.9Z" transform="translate(-31.317 -58.895)" fill="#f39200"/>
        <path id="Path_52341" data-name="Path 52341" d="M54.252,59.5h1.195v3.888H54.252Z" transform="translate(-30.276 -58.897)" fill="#f39200"/>
        <path id="Path_52342" data-name="Path 52342" d="M55.606,59.491l1.2-.011v3.888l-1.2.011Z" transform="translate(-29.237 -58.911)" fill="#f39200"/>
        <path id="Path_52343" data-name="Path 52343" d="M56.963,59.481l1.2-.019V63.35c-.391,0-.79.011-1.2.014Z" transform="translate(-28.196 -58.925)" fill="#f39200"/>
        <path id="Path_52344" data-name="Path 52344" d="M58.32,59.461l1.2-.023v3.888l-1.2.023Z" transform="translate(-27.155 -58.943)" fill="#f39200"/>
        <path id="Path_52345" data-name="Path 52345" d="M59.675,59.434l1.2-.035v3.888l-1.2.035Z" transform="translate(-26.115 -58.973)" fill="#f39200"/>
        <path id="Path_52346" data-name="Path 52346" d="M61.033,59.4c.424-.012.827-.028,1.2-.042v3.888c-.373.019-.774.035-1.2.051Z" transform="translate(-25.073 -59.006)" fill="#f39200"/>
        <path id="Path_52347" data-name="Path 52347" d="M63.589,59.277v3.888c-.33.028-.735.055-1.2.081V59.367C62.852,59.342,63.253,59.309,63.589,59.277Z" transform="translate(-24.033 -59.067)" fill="#f39200"/>
        <path id="Path_52348" data-name="Path 52348" d="M41.885,59.368v3.888c-.774-.067-1.2-.136-1.2-.21V59.158C40.685,59.236,41.106,59.3,41.885,59.368Z" transform="translate(-40.685 -59.158)" fill="#f39200"/>
        <path id="Path_52349" data-name="Path 52349" d="M43.241,59.379v3.888c-.437-.014-.838-.035-1.2-.058V59.324C42.4,59.342,42.8,59.361,43.241,59.379Z" transform="translate(-39.643 -59.031)" fill="#f39200"/>
        <path id="Path_52350" data-name="Path 52350" d="M44.6,59.415v3.9l-1.2-.039V59.388C43.777,59.39,44.177,59.406,44.6,59.415Z" transform="translate(-38.603 -58.982)" fill="#f39200"/>
        <path id="Path_52351" data-name="Path 52351" d="M45.95,59.45v3.888l-1.195-.027V59.423C45.144,59.43,45.545,59.435,45.95,59.45Z" transform="translate(-37.562 -58.955)" fill="#f39200"/>
        <path id="Path_52352" data-name="Path 52352" d="M47.311,59.472V63.36l-1.2-.023V59.449Z" transform="translate(-36.522 -58.935)" fill="#f39200"/>
        <path id="Path_52353" data-name="Path 52353" d="M48.668,59.487v3.888l-1.2-.016V59.471Z" transform="translate(-35.481 -58.918)" fill="#f39200"/>
        <path id="Path_52354" data-name="Path 52354" d="M50.025,59.5v3.888l-1.2-.012V59.486Z" transform="translate(-34.44 -58.906)" fill="#f39200"/>
        <path id="Path_52355" data-name="Path 52355" d="M51.38,59.5v3.888h-1.2V59.5Z" transform="translate(-33.4 -58.896)" fill="#f39200"/>
        <path id="Path_52356" data-name="Path 52356" d="M52.733,59.5v3.888H51.542V59.5Z" transform="translate(-32.355 -58.895)" fill="#f39200"/>
        <path id="Path_52357" data-name="Path 52357" d="M54.095,59.5v3.888H52.9V59.5Z" transform="translate(-31.317 -58.896)" fill="#f39200"/>
        <path id="Path_52358" data-name="Path 52358" d="M55.446,59.493v3.888H54.251V59.493C54.656,59.5,55.059,59.493,55.446,59.493Z" transform="translate(-30.277 -58.901)" fill="#f39200"/>
        <path id="Path_52359" data-name="Path 52359" d="M56.806,59.48v3.888l-1.2.011V59.491Z" transform="translate(-29.237 -58.911)" fill="#f39200"/>
        <path id="Path_52360" data-name="Path 52360" d="M58.161,59.462V63.35c-.391,0-.79.011-1.2.014V59.476Z" transform="translate(-28.196 -58.925)" fill="#f39200"/>
        <path id="Path_52361" data-name="Path 52361" d="M59.52,59.438v3.888l-1.2.023V59.461Z" transform="translate(-27.155 -58.943)" fill="#f39200"/>
        <path id="Path_52362" data-name="Path 52362" d="M60.875,59.4V63.29l-1.2.035V59.437Z" transform="translate(-26.115 -58.971)" fill="#f39200"/>
        <path id="Path_52363" data-name="Path 52363" d="M62.233,59.356v3.888c-.373.019-.774.035-1.2.051V59.407C61.457,59.379,61.858,59.379,62.233,59.356Z" transform="translate(-25.073 -59.006)" fill="#f39200"/>
        <path id="Path_52364" data-name="Path 52364" d="M63.589,59.277v3.888c-.33.028-.735.055-1.2.081V59.367C62.852,59.342,63.253,59.309,63.589,59.277Z" transform="translate(-24.033 -59.067)" fill="#f39200"/>
      </g>
    </g>
    <ellipse id="Ellipse_2" data-name="Ellipse 2" cx="14.193" cy="15.373" rx="14.193" ry="15.373" transform="translate(62.059 91.096)" fill="#878787" opacity="0.3" style="isolation: isolate"/>
    <g id="Group_9429" data-name="Group 9429" transform="translate(55.177 89.446)">
      <path id="Path_52365" data-name="Path 52365" d="M59.016,69.74A16.525,16.525,0,0,1,43.978,86.408a14.09,14.09,0,0,1-2.5,0A16.877,16.877,0,0,0,55.121,69.745c0-8.773-6.009-15.988-13.645-16.656a10.926,10.926,0,0,1,1.3-.065A16.494,16.494,0,0,1,59.016,69.74Z" transform="translate(-25.442 -53.023)" fill="#f39200"/>
      <g id="Group_9426" data-name="Group 9426" transform="translate(19.758 0.891)" opacity="0.3">
        <path id="Path_52366" data-name="Path 52366" d="M45.212,54.3l.315.177h3.14a15.947,15.947,0,0,0-2.121-.951H43.583q.673.268,1.322.6Z" transform="translate(-43.583 -53.527)" fill="#f39200"/>
        <path id="Path_52367" data-name="Path 52367" d="M46.607,55.55h3.377c-.4-.33-.809-.661-1.237-.951H45.479A14.128,14.128,0,0,1,46.607,55.55Z" transform="translate(-42.128 -52.705)" fill="#f39200"/>
        <path id="Path_52368" data-name="Path 52368" d="M46.8,55.834c.228.256.445.518.661.792H51a12.4,12.4,0,0,0-.884-.947H46.647A1.311,1.311,0,0,1,46.8,55.834Z" transform="translate(-41.232 -51.877)" fill="#f39200"/>
        <path id="Path_52369" data-name="Path 52369" d="M47.547,56.826c.074.11.145.219.212.33s.138.217.2.33l.065.11.06.106H51.75c-.205-.33-.421-.642-.647-.951H47.5A.417.417,0,0,1,47.547,56.826Z" transform="translate(-40.579 -51.053)" fill="#f39200"/>
        <path id="Path_52370" data-name="Path 52370" d="M48.237,58.059c.057.118.111.24.164.353s.106.24.166.353h3.754c-.152-.33-.311-.638-.482-.951H48.127A1.373,1.373,0,0,0,48.237,58.059Z" transform="translate(-40.097 -50.237)" fill="#f39200"/>
        <path id="Path_52371" data-name="Path 52371" d="M48.651,59.094l.117.343c.037.113.081.256.122.387v.021h3.817c-.106-.32-.217-.634-.341-.947H48.58C48.6,58.963,48.629,59.029,48.651,59.094Z" transform="translate(-39.749 -49.406)" fill="#f39200"/>
        <path id="Path_52372" data-name="Path 52372" d="M48.9,59.972c.018.071.035.143.049.212.035.134.062.269.088.4.021.11.042.219.062.33h3.865c-.065-.32-.14-.634-.221-.947Z" transform="translate(-39.501 -48.582)" fill="#f39200"/>
        <path id="Path_52373" data-name="Path 52373" d="M49.1,61.045c.016.12.032.242.046.368.021.193.041.387.053.581h3.888c-.028-.32-.065-.634-.113-.951H49.1Z" transform="translate(-39.35 -47.76)" fill="#f39200"/>
        <path id="Path_52374" data-name="Path 52374" d="M53.079,62.118H49.191c0,.1.011.2.011.3v.65H53.09v-.353C53.091,62.516,53.088,62.318,53.079,62.118Z" transform="translate(-39.28 -46.936)" fill="#f39200"/>
        <path id="Path_52375" data-name="Path 52375" d="M49.2,63.194c0,.113-.012.221-.021.33-.018.2-.041.412-.065.613H53c.041-.311.074-.626.1-.947H49.211Z" transform="translate(-39.338 -46.113)" fill="#f39200"/>
        <path id="Path_52376" data-name="Path 52376" d="M49.124,64.266v.025l-.085.445c-.018.11-.039.217-.067.33-.012.053-.021.1-.035.152h3.849c.078-.315.147-.629.2-.951H49.124Z" transform="translate(-39.475 -45.288)" fill="#f39200"/>
        <path id="Path_52377" data-name="Path 52377" d="M48.927,65.338c-.09.32-.189.638-.3.951h3.8c.118-.311.228-.629.33-.951Z" transform="translate(-39.709 -44.465)" fill="#f39200"/>
        <path id="Path_52378" data-name="Path 52378" d="M48.612,66.413c-.041.1-.085.2-.127.307-.094.216-.191.429-.293.642h3.725c.166-.311.316-.627.465-.951h-3.77Z" transform="translate(-40.048 -43.642)" fill="#f39200"/>
        <path id="Path_52379" data-name="Path 52379" d="M48.111,67.576c-.064.11-.124.216-.187.322l-.009.018c-.106.177-.212.353-.33.518h3.621c.221-.308.426-.624.626-.947H48.16C48.144,67.518,48.127,67.546,48.111,67.576Z" transform="translate(-40.513 -42.817)" fill="#f39200"/>
        <path id="Path_52380" data-name="Path 52380" d="M47.543,68.56l-.032.042c-.071.1-.143.193-.221.286s-.148.191-.23.285-.156.187-.233.277a.523.523,0,0,0-.049.06h3.487c.292-.306.573-.624.845-.951Z" transform="translate(-41.132 -41.993)" fill="#f39200"/>
        <path id="Path_52381" data-name="Path 52381" d="M46.694,69.671c-.27.262-.551.514-.841.751l-.2.166h3.3q.61-.443,1.182-.951H46.733Z" transform="translate(-41.992 -41.167)" fill="#f39200"/>
        <path id="Path_52382" data-name="Path 52382" d="M45.433,70.855a13.713,13.713,0,0,1-1.522.8h3a15.9,15.9,0,0,0,1.923-.947H45.657A2.315,2.315,0,0,1,45.433,70.855Z" transform="translate(-43.331 -40.345)" fill="#f39200"/>
      </g>
      <path id="Path_52383" data-name="Path 52383" d="M61.607,69.712c0,8.5-5.63,15.5-12.911,16.579A17.217,17.217,0,0,1,33.048,70.366a5.155,5.155,0,0,1-.027-.661v-.21a13.494,13.494,0,0,1,.078-1.488A15.557,15.557,0,0,1,34.291,63.2c.1-.237.21-.5.341-.733.067-.157.141-.309.223-.458a3.192,3.192,0,0,1,.3-.564,7.5,7.5,0,0,1,.421-.733c.157-.223.3-.445.444-.661A17.536,17.536,0,0,1,42.734,54.4a1.075,1.075,0,0,0,.249-.118,15.723,15.723,0,0,1,4.977-1.218C55.6,53.724,61.607,60.939,61.607,69.712Z" transform="translate(-31.93 -52.993)" fill="#f9b233"/>
      <path id="Path_52384" data-name="Path 52384" d="M62.078,69.744c0,8.81-6.056,16.029-13.73,16.665A16.445,16.445,0,0,1,32.429,70.393a5.307,5.307,0,0,1-.025-.649v-.221c0-.5.025-1,.072-1.488a16.8,16.8,0,0,1,1.089-4.793c.1-.244.2-.5.306-.733a4.384,4.384,0,0,1,.209-.465,4.714,4.714,0,0,1,.27-.564c.122-.256.256-.495.392-.733l.4-.661a16.33,16.33,0,0,1,6.143-5.655,1.794,1.794,0,0,0,.221-.122,13.562,13.562,0,0,1,5.738-1.285C55.434,53.017,62.078,60.514,62.078,69.744Z" transform="translate(-32.403 -53.022)" fill="#f9b233"/>
      <g id="Group_9427" data-name="Group 9427" transform="translate(1.513 1.833)">
        <path id="Path_52385" data-name="Path 52385" d="M46.437,55c6.754,0,12.249,6.249,12.249,13.935,0,7.246-4.957,13.329-11.31,13.882A13.7,13.7,0,0,1,34.193,69.465V69.4a3.77,3.77,0,0,1-.014-.468v-.194q0-.62.06-1.237v-.018a14,14,0,0,1,.9-3.99l.049-.122c.067-.164.131-.33.2-.477l.016-.032.014-.034c.037-.1.088-.209.148-.33l.021-.042.016-.046a3.432,3.432,0,0,1,.189-.389L35.807,62l.011-.019c.083-.166.177-.353.308-.576l.053-.087.3-.482a13.557,13.557,0,0,1,5.093-4.688c.058-.03.134-.067.217-.118A11.089,11.089,0,0,1,46.437,55m0-.933a12.068,12.068,0,0,0-5.1,1.142,1.613,1.613,0,0,1-.194.11,14.529,14.529,0,0,0-5.454,5.026l-.353.588c-.117.207-.239.424-.352.652a3.746,3.746,0,0,0-.239.495,3.072,3.072,0,0,0-.178.414c-.1.207-.177.435-.272.652a15.04,15.04,0,0,0-.968,4.263c-.042.435-.064.884-.064,1.322v.2a5.219,5.219,0,0,0,.021.576,14.62,14.62,0,0,0,14.15,14.237c6.82-.566,12.2-6.982,12.2-14.813,0-8.211-5.906-14.873-13.182-14.873Z" transform="translate(-33.26 -54.06)" fill="#f39200"/>
      </g>
    </g>
    <path id="Path_59850" data-name="Path 59850" d="M46.513,65.856a19.233,19.233,0,0,1-3.57-1.371,1.407,1.407,0,0,1-.762-1.449q.175-1.514,3.017-1.188c1.887.216,2.812.862,2.783,1.942l3.63.288c.1-2.319-1.32-3.823-4.208-4.533l.332-2.884L44.33,56.27,44,59.122a6.513,6.513,0,0,0-3.374.815,3.876,3.876,0,0,0-2.006,2.942,3.749,3.749,0,0,0,.949,3.026,8.82,8.82,0,0,0,3.964,2.2,13.891,13.891,0,0,1,3.545,1.456,1.579,1.579,0,0,1,.617,1.527q-.252,2.182-3.467,1.811Q40.8,72.5,40.7,69.855L37.1,69.733c.191,2.882,1.886,4.7,5.058,5.489l-.3,2.619,3.4.392.3-2.647a8.6,8.6,0,0,0,3.248-.762,4.006,4.006,0,0,0,2.488-3.349,4.306,4.306,0,0,0-.924-3.383A7.991,7.991,0,0,0,46.513,65.856Z" transform="translate(26.374 38.914)" fill="#dd7800" opacity="0.3" style="isolation: isolate"/>
    <path id="Path_59851" data-name="Path 59851" d="M45.7,65.856a19.267,19.267,0,0,1-3.572-1.371,1.408,1.408,0,0,1-.76-1.449q.175-1.514,3.015-1.188c1.889.216,2.813.862,2.783,1.942l3.632.288c.1-2.319-1.32-3.823-4.208-4.533l.332-2.884-3.405-.391-.327,2.852a6.522,6.522,0,0,0-3.374.815,3.879,3.879,0,0,0-2,2.942,3.749,3.749,0,0,0,.949,3.026,8.82,8.82,0,0,0,3.964,2.2,13.837,13.837,0,0,1,3.543,1.456,1.572,1.572,0,0,1,.617,1.527q-.249,2.182-3.466,1.811-3.433-.395-3.531-3.043l-3.607-.122c.191,2.882,1.886,4.7,5.058,5.489l-.3,2.619,3.4.392.3-2.647A8.6,8.6,0,0,0,48,74.824a4.006,4.006,0,0,0,2.488-3.349,4.3,4.3,0,0,0-.926-3.383A7.976,7.976,0,0,0,45.7,65.856Z" transform="translate(25.753 38.914)" fill="#fcefb9"/>
  </g>
</svg>
