<svg id="Group_33" data-name="Group 33" xmlns="http://www.w3.org/2000/svg" xmlns:xlink="http://www.w3.org/1999/xlink" width="170" height="106.539" viewBox="0 0 170 106.539">
  <defs>
    <clipPath id="clip-path">
      <rect id="Rectangle_24" data-name="Rectangle 24" width="170" height="106.539" fill="none"/>
    </clipPath>
    <clipPath id="clip-path-2">
      <rect id="Rectangle_23" data-name="Rectangle 23" width="170" height="106.54" fill="none"/>
    </clipPath>
    <clipPath id="clip-path-3">
      <rect id="Rectangle_18" data-name="Rectangle 18" width="5.639" height="9.158" fill="none"/>
    </clipPath>
    <clipPath id="clip-path-4">
      <rect id="Rectangle_20" data-name="Rectangle 20" width="6.559" height="9.741" fill="none"/>
    </clipPath>
    <clipPath id="clip-path-5">
      <rect id="Rectangle_21" data-name="Rectangle 21" width="8.582" height="10.37" fill="none"/>
    </clipPath>
    <clipPath id="clip-path-6">
      <rect id="Rectangle_22" data-name="Rectangle 22" width="16.614" height="13.178" fill="none"/>
    </clipPath>
  </defs>
  <g id="Group_32" data-name="Group 32" clip-path="url(#clip-path)">
    <g id="Group_31" data-name="Group 31" transform="translate(0 0)">
      <g id="Group_30" data-name="Group 30" clip-path="url(#clip-path-2)">
        <path id="Path_183" data-name="Path 183" d="M33.749,91.811a.116.116,0,0,1-.112-.121.1.1,0,0,1,.008-.041,31.436,31.436,0,0,1,2.308-4.021,23.478,23.478,0,0,1,6.123-6.419,11.026,11.026,0,0,0-5.961.411,2.364,2.364,0,0,0-1.246,1.15.117.117,0,0,1-.16.042.121.121,0,0,1-.057-.109,23.688,23.688,0,0,0-.117-11.987,18.155,18.155,0,0,0-2-4.882,6.268,6.268,0,0,0-2.763-2.65c-1.958-.772-3.9.61-5.627,3.992a.114.114,0,0,1-.187.025,25.418,25.418,0,0,0-7.746-6.207c-2.408-1.135-4.537-1.3-6-.452a5.262,5.262,0,0,0-2.233,4.416,24.514,24.514,0,0,0,1.6,9.279,22.318,22.318,0,0,0,5.123,8.35,30.738,30.738,0,0,0,6.916,5.336,37.264,37.264,0,0,0,8.7,3.656.117.117,0,0,1-.027.225H.143a.117.117,0,1,1-.052-.228.127.127,0,0,1,.052,0H29.452a39.028,39.028,0,0,1-7.95-3.453,30.97,30.97,0,0,1-6.971-5.377A22.547,22.547,0,0,1,9.355,74.31,24.727,24.727,0,0,1,7.746,64.94c.178-2.225.99-3.811,2.342-4.6,1.547-.895,3.694-.741,6.207.443A25.454,25.454,0,0,1,24,66.92c2.225-4.284,4.4-4.519,5.838-3.953,2.01.792,3.842,3.666,4.9,7.686a26.127,26.127,0,0,1,.842,6.05,21.1,21.1,0,0,1-.548,5.4,3.351,3.351,0,0,1,.937-.679c1.431-.719,3.592-.854,6.423-.4a.118.118,0,0,1,.089.141.119.119,0,0,1-.047.069,22.883,22.883,0,0,0-6.307,6.513,32.276,32.276,0,0,0-2.216,3.831H56.006a.117.117,0,1,1,0,.234Z" transform="translate(0 10.229)" fill="#818181"/>
        <path id="Path_184" data-name="Path 184" d="M28.911,88.2a.123.123,0,0,1-.046-.009,24.35,24.35,0,0,1-7.128-5.01,43.009,43.009,0,0,1-5.356-6.488,54.676,54.676,0,0,1-4.549-8.015.117.117,0,0,1,.21-.091,54.445,54.445,0,0,0,4.53,7.981A42.841,42.841,0,0,0,21.9,83.017a24.477,24.477,0,0,0,6.713,4.8c-1.086-1.874-1.991-5.872-2.694-11.9-.553-4.763-.764-9.083-.766-9.127a.118.118,0,0,1,.082-.144.117.117,0,0,1,.144.083.1.1,0,0,1,0,.05c0,.043.213,4.357.765,9.113C26.653,80.27,27.561,85.927,29,88.016a.117.117,0,0,1-.094.179Z" transform="translate(2.025 11.405)" fill="#818181"/>
        <path id="Path_185" data-name="Path 185" d="M21.086,78.721a.115.115,0,0,1-.105-.069,17.235,17.235,0,0,1-1.323-8.9,14.034,14.034,0,0,1,.926-3.735.117.117,0,0,1,.164-.023.116.116,0,0,1,.045.117,13.78,13.78,0,0,0-.909,3.676,17.019,17.019,0,0,0,1.307,8.775.116.116,0,0,1-.067.151.092.092,0,0,1-.039.008Z" transform="translate(3.344 11.29)" fill="#818181"/>
        <path id="Path_186" data-name="Path 186" d="M18.5,80.49a.12.12,0,0,1-.1-.059,38.864,38.864,0,0,1-2.526-5.8,24.654,24.654,0,0,1-1.227-5.253,10.563,10.563,0,0,1,.523-5.075.117.117,0,0,1,.212.085c-1.234,3.045-.3,7.208.7,10.163A38.65,38.65,0,0,0,18.6,80.315a.118.118,0,0,1-.1.17Z" transform="translate(2.489 10.997)" fill="#818181"/>
        <path id="Path_187" data-name="Path 187" d="M24.682,80.473h-.011a.118.118,0,0,1-.1-.124A26.474,26.474,0,0,1,25,77.538a7.208,7.208,0,0,1,1.659-3.858.117.117,0,0,1,.148.174c-1.537,1.288-2,6.455-2.01,6.508a.118.118,0,0,1-.112.11" transform="translate(4.204 12.607)" fill="#818181"/>
        <path id="Path_188" data-name="Path 188" d="M21.345,88.23c-4.781,0-14.725-3.586-14.824-3.623a.117.117,0,0,1-.068-.149,4.982,4.982,0,0,1,1.7-1.97,11.785,11.785,0,0,1,7.194-1.757.117.117,0,0,1,.045.23.109.109,0,0,1-.052,0,11.6,11.6,0,0,0-7.037,1.706,5.163,5.163,0,0,0-1.589,1.772c1.134.4,10.169,3.567,14.63,3.567a.117.117,0,1,1,0,.234h0Z" transform="translate(1.103 13.81)" fill="#818181"/>
        <path id="Path_189" data-name="Path 189" d="M21.345,85.984a.122.122,0,0,1-.05-.012c-3.265-1.6-7.932-3.416-11.626-2.972a4.766,4.766,0,0,0-3.022,1.227.117.117,0,0,1-.177-.145,2.778,2.778,0,0,1,.718-.554,6.326,6.326,0,0,1,2.421-.751,13.7,13.7,0,0,1,4.58.326,32.881,32.881,0,0,1,7.2,2.664.118.118,0,0,1,.04.16.12.12,0,0,1-.09.056Z" transform="translate(1.105 14.155)" fill="#818181"/>
        <path id="Path_190" data-name="Path 190" d="M121.961,88.411H111.689a.118.118,0,0,1-.114-.121.155.155,0,0,1,.007-.035c.008-.02.78-2.005,1.481-4.033,1.275-3.688,1.188-4.258,1.138-4.345a.641.641,0,0,0-.224.176c-1.734,1.793-2.179,3.776-2.694,6.071-.054.24-.109.481-.164.726-.027.117-.095.129-.135.128-.117,0-.132-.074-.224-.623-.189-1.147-.632-3.831-1.874-3.831-.007,0-.008,0-.015.009-.054.08-.165.533.671,3.045.453,1.362.965,2.664.97,2.677a.118.118,0,0,1-.071.15.123.123,0,0,1-.035.006h-1.929a.118.118,0,0,1-.117-.091,2.143,2.143,0,0,0-1.727-1.621.675.675,0,0,0-.3-.008,6.526,6.526,0,0,0,1.791,1.511.116.116,0,0,1,.021.164.114.114,0,0,1-.084.046H42.418a.117.117,0,0,1,0-.234h65.276c-.185-.13-.431-.308-.671-.5-.895-.7-.963-.937-.9-1.086.071-.18.334-.163.554-.128a2.388,2.388,0,0,1,1.89,1.709h1.675c-.149-.388-.549-1.442-.913-2.533-.937-2.811-.724-3.128-.643-3.245a.236.236,0,0,1,.2-.109c1.432,0,1.9,2.818,2.1,4.022l.008.05.066-.293c.5-2.232.974-4.34,2.753-6.18.089-.091.323-.335.509-.215.143.091.234.351-.1,1.619-.19.726-.5,1.708-.915,2.92-.6,1.732-1.253,3.45-1.452,3.967h10.106a.117.117,0,0,1,0,.234Z" transform="translate(7.24 13.63)" fill="#818181"/>
        <path id="Path_191" data-name="Path 191" d="M51.657,89.578h-9.3a.117.117,0,1,1,0-.234h9.3a.117.117,0,1,1,0,.234Z" transform="translate(7.229 15.29)" fill="#818181"/>
        <path id="Path_192" data-name="Path 192" d="M36.526,89.578H32.984a.117.117,0,0,1,0-.234h3.546a.117.117,0,0,1,0,.234Z" transform="translate(5.624 15.29)" fill="#818181"/>
        <path id="Path_193" data-name="Path 193" d="M22.767,89.578H11.941a.117.117,0,0,1,0-.234H22.768a.117.117,0,1,1,0,.234h-.006Z" transform="translate(2.024 15.29)" fill="#818181"/>
        <path id="Path_194" data-name="Path 194" d="M25.638,91.005H19.261a.117.117,0,1,1,0-.234h6.382a.117.117,0,0,1,0,.234" transform="translate(3.276 15.534)" fill="#818181"/>
        <path id="Path_195" data-name="Path 195" d="M94.5,88.622H91.059a.117.117,0,0,1,0-.234H94.5a.117.117,0,0,1,0,.234" transform="translate(15.564 15.127)" fill="#818181"/>
        <path id="Path_196" data-name="Path 196" d="M91.307,89.641H84.435a.117.117,0,0,1,0-.234h6.872a.117.117,0,0,1,0,.234Z" transform="translate(14.43 15.301)" fill="#818181"/>
        <path id="Path_197" data-name="Path 197" d="M127.257,41.988a2.353,2.353,0,0,1-.351.411c-.234.241-.55.569-.912.924s-.692.672-.937.9a2.294,2.294,0,0,1-.415.345,2.306,2.306,0,0,1,.351-.41c.234-.241.552-.57.913-.926s.694-.673.937-.9a2.275,2.275,0,0,1,.413-.343" transform="translate(21.331 7.186)" fill="#e0e0e0"/>
        <path id="Path_198" data-name="Path 198" d="M106.371,17.143A12.229,12.229,0,0,1,93.744,28.954,12.414,12.414,0,0,1,91.6,28.7a12.219,12.219,0,1,1,14.769-11.559Z" transform="translate(14.023 0.775)" fill="#ebebeb"/>
        <path id="Path_199" data-name="Path 199" d="M103.324,16.741a9.329,9.329,0,1,1-9.046-9.6h.02a9.319,9.319,0,0,1,9.026,9.6h0" transform="translate(14.49 1.221)" fill="#ebebeb"/>
        <path id="Path_200" data-name="Path 200" d="M103.054,16.634a.941.941,0,0,1-.013-.151c0-.109-.011-.255-.018-.443,0-.1,0-.207-.011-.326s-.032-.249-.048-.39a6.731,6.731,0,0,0-.166-.965,8.88,8.88,0,0,0-.959-2.5A9.263,9.263,0,0,0,90.866,7.58a9.543,9.543,0,0,0-1.22.49c-.2.1-.389.217-.586.324a4.739,4.739,0,0,0-.569.364,8.478,8.478,0,0,0-2.014,1.893,8.942,8.942,0,0,0-1.405,2.5,9.108,9.108,0,0,0-.187,5.816,8.9,8.9,0,0,0,1.239,2.576,9.254,9.254,0,0,0,4.183,3.346,9.264,9.264,0,0,0,11.227-3.572,8.846,8.846,0,0,0,1.117-2.429,6.664,6.664,0,0,0,.228-.952c.026-.139.056-.268.074-.386s.022-.226.032-.324l.046-.44a.927.927,0,0,1,.022-.15.812.812,0,0,1,0,.151l-.027.444-.022.327c-.014.117-.041.249-.064.39a6.611,6.611,0,0,1-.212.964,8.809,8.809,0,0,1-1.1,2.47A9.378,9.378,0,0,1,90.24,25.057a9.422,9.422,0,0,1-4.273-3.406A9.078,9.078,0,0,1,84.7,19.017a9.284,9.284,0,0,1,.191-5.939,9.078,9.078,0,0,1,1.435-2.546A8.614,8.614,0,0,1,88.382,8.6a4.84,4.84,0,0,1,.586-.371c.2-.11.4-.234.6-.329a9.838,9.838,0,0,1,1.245-.5,9.382,9.382,0,0,1,11.126,4.4,8.806,8.806,0,0,1,.937,2.532,6.7,6.7,0,0,1,.15.976c.014.142.033.273.04.394s0,.234,0,.328v.444a.89.89,0,0,1-.009.148" transform="translate(14.427 1.19)" fill="#e0e0e0"/>
        <path id="Path_201" data-name="Path 201" d="M93.836,21.5l-.028,1.626L92.357,23.1l.028-1.581A6.88,6.88,0,0,1,88.793,20.3l.829-1.757a5.865,5.865,0,0,0,2.8,1.08l.042-2.423c-1.6-.419-3.4-.988-3.356-3.063.027-1.538,1.171-2.838,3.464-3.059l.028-1.61,1.451.026-.028,1.581a6.559,6.559,0,0,1,2.928.937l-.757,1.772a5.949,5.949,0,0,0-2.206-.794l-.043,2.466c1.6.405,3.365.973,3.328,3.019-.023,1.508-1.149,2.794-3.434,3.03M92.5,15.06,92.535,13c-.772.16-1.083.576-1.093,1.054-.006.512.424.8,1.059,1.01Zm2.434,3.54c.009-.508-.406-.791-1.027-1.02l-.035,2c.731-.144,1.056-.515,1.065-.979Z" transform="translate(15.196 1.62)" fill="#e0e0e0"/>
        <path id="Path_202" data-name="Path 202" d="M106.526,28.818a16.961,16.961,0,0,1-16.115,3.741,16.215,16.215,0,0,1-10.423-9.23A15.276,15.276,0,0,1,81.277,9.37,16.476,16.476,0,0,1,93.469,2.01a16.721,16.721,0,0,1,15.645,7.445c.5.776,1.751.055,1.245-.727A18.145,18.145,0,0,0,81.24,6.987a16.777,16.777,0,0,0-3.205,15.091A17.494,17.494,0,0,0,88.351,33.364a18.434,18.434,0,0,0,19.2-3.526c.686-.627-.335-1.64-1.019-1.019Z" transform="translate(13.252 0.083)" fill="#f5f5f5"/>
        <path id="Path_203" data-name="Path 203" d="M101.136,8.311l5.872-3.955v5.981Z" transform="translate(17.308 0.746)" fill="#f5f5f5"/>
        <path id="Path_204" data-name="Path 204" d="M157.725,86.935c0,.035-32.1.062-74.65.062s-57.839-.028-57.839-.062,15.275-.062,57.839-.062,74.65.028,74.65.062" transform="translate(4.319 14.867)" fill="#263238"/>
        <path id="Path_205" data-name="Path 205" d="M95.9,42.808A17.809,17.809,0,0,0,84.789,32.588a18.826,18.826,0,0,0-18.637,4.774l4.2,1.812c1.731-1.968,7.981-4.117,12.7-2.594,5.815,1.874,8.132,5.368,9.034,7.5l-2.621.87,7.144,3.58,2.164-6.668Z" transform="translate(11.321 5.447)" fill="#324d96"/>
        <path id="Path_206" data-name="Path 206" d="M78.543,101.8l-32.909-.02a7.36,7.36,0,0,1-7.165-7.536l.016-86.715A7.358,7.358,0,0,1,45.659,0L78.568.02a7.36,7.36,0,0,1,7.165,7.536l-.016,86.715a7.358,7.358,0,0,1-7.173,7.533" transform="translate(6.583 0)" fill="#3f4154"/>
        <path id="Path_207" data-name="Path 207" d="M78.214,2.637H71.832a1.63,1.63,0,0,0-1.549,1.7V5.551a1.63,1.63,0,0,1-1.549,1.7L56.295,7.244a1.632,1.632,0,0,1-1.549-1.7V4.326a1.632,1.632,0,0,0-1.549-1.7H45.372a5.154,5.154,0,0,0-5.024,5.27l-.015,84.639a5.153,5.153,0,0,0,5.018,5.278l32.847.02a5.153,5.153,0,0,0,5.024-5.27l.016-84.64a5.153,5.153,0,0,0-5.02-5.283h0" transform="translate(6.902 0.449)" fill="#fff"/>
        <path id="Path_208" data-name="Path 208" d="M46.626,78.241v2.484a.273.273,0,0,1-.269.276.278.278,0,0,1-.149-.042l-1.953-1.243a.274.274,0,0,1-.083-.378.268.268,0,0,1,.083-.083l1.953-1.241a.273.273,0,0,1,.418.227" transform="translate(7.552 13.344)" fill="#e0e0e0"/>
        <path id="Path_209" data-name="Path 209" d="M60.466,79.493a1.712,1.712,0,1,1-1.712-1.716,1.713,1.713,0,0,1,1.712,1.716" transform="translate(9.762 13.311)" fill="#e0e0e0"/>
        <path id="Path_210" data-name="Path 210" d="M72.041,77.968h0a1.58,1.58,0,0,1,1.582,1.578v.009a1.581,1.581,0,0,1-3.162,0v-.007a1.58,1.58,0,0,1,1.58-1.58" transform="translate(12.059 13.343)" fill="#e0e0e0"/>
        <path id="Path_211" data-name="Path 211" d="M74.866,10.333a.586.586,0,1,1-.586-.586.586.586,0,0,1,.586.586" transform="translate(12.612 1.668)" fill="#3f4154"/>
        <path id="Path_212" data-name="Path 212" d="M74.284,11.107a.581.581,0,1,1-.581.581.581.581,0,0,1,.581-.581" transform="translate(12.613 1.901)" fill="#3f4154"/>
        <path id="Path_213" data-name="Path 213" d="M74.284,12.464a.581.581,0,1,1-.581.581.581.581,0,0,1,.581-.581" transform="translate(12.613 2.133)" fill="#3f4154"/>
        <path id="Path_214" data-name="Path 214" d="M44.985,10.012l-2.37,1.777h.6v2.124H44.5V12.328H45.5v1.59h1.236v-2.15l.616-.007Z" transform="translate(7.293 1.714)" fill="#3f4154"/>
        <path id="Path_215" data-name="Path 215" d="M83.408,15.262c0,.035-9.674.062-21.605.062S40.2,15.3,40.2,15.262,49.869,15.2,61.8,15.2s21.605.03,21.605.062" transform="translate(6.879 2.601)" fill="#e0e0e0"/>
        <path id="Path_216" data-name="Path 216" d="M58.464,49.407h0a2.546,2.546,0,0,1,2.547,2.545h0V70.511a2.547,2.547,0,0,1-5.093,0h0V51.953a2.546,2.546,0,0,1,2.546-2.546" transform="translate(9.57 8.455)" fill="#e0e0e0"/>
        <path id="Path_217" data-name="Path 217" d="M68.955,61.18a6.927,6.927,0,1,1,0-.007Z" transform="translate(8.995 9.068)" fill="#ffd56a"/>
        <path id="Path_218" data-name="Path 218" d="M66.913,60.968a6.256,6.256,0,1,1-6.278-6.234h.014A6.249,6.249,0,0,1,66.913,60.968Z" transform="translate(9.31 9.367)" fill="#ffd56a"/>
        <g id="Group_20" data-name="Group 20" transform="translate(67.047 65.936)" opacity="0.3">
          <g id="Group_19" data-name="Group 19">
            <g id="Group_18" data-name="Group 18" clip-path="url(#clip-path-3)">
              <path id="Path_219" data-name="Path 219" d="M60.656,64.354l.018,1.09-.973.015-.016-1.06a4.621,4.621,0,0,1-2.435-.74l.516-1.2a3.931,3.931,0,0,0,1.9.662L59.638,61.5c-1.084-.246-2.3-.586-2.318-1.978-.016-1.031.719-1.928,2.253-2.127l-.018-1.08.973-.015.016,1.061a4.405,4.405,0,0,1,1.984.562l-.468,1.2a3.978,3.978,0,0,0-1.5-.483L60.59,60.3c1.083.234,2.277.577,2.3,1.949.018,1.01-.707,1.9-2.232,2.106m-1.04-4.285-.022-1.381c-.514.124-.713.41-.709.731.006.341.3.524.731.65m1.71,2.319c0-.341-.29-.521-.711-.661l.021,1.343C61.121,62.955,61.335,62.7,61.326,62.387Z" transform="translate(-57.249 -56.301)"/>
            </g>
          </g>
        </g>
        <rect id="Rectangle_19" data-name="Rectangle 19" width="9.476" height="21.18" transform="translate(55.826 58.81)" fill="#fff"/>
        <path id="Path_220" data-name="Path 220" d="M103.185,59.4a8.761,8.761,0,0,1-6.647,10.454,8.874,8.874,0,0,1-1.531.2A8.752,8.752,0,1,1,103.185,59.4Z" transform="translate(14.699 8.996)" fill="#ffd56a"/>
        <path id="Path_221" data-name="Path 221" d="M101.07,59.583a6.684,6.684,0,1,1-7.994-5.044l.016,0a6.676,6.676,0,0,1,7.978,5.048" transform="translate(15.037 9.305)" fill="#ffd56a"/>
        <g id="Group_23" data-name="Group 23" transform="translate(106.279 65.668)" opacity="0.3">
          <g id="Group_22" data-name="Group 22">
            <g id="Group_21" data-name="Group 21" clip-path="url(#clip-path-4)">
              <path id="Path_222" data-name="Path 222" d="M95.407,64.44l.271,1.132-1.011.241-.264-1.1a4.925,4.925,0,0,1-2.71-.207l.261-1.367a4.194,4.194,0,0,0,2.133.249l-.4-1.689c-1.188,0-2.53-.078-2.875-1.522-.256-1.072.3-2.177,1.856-2.74L92.4,56.313l1.011-.241.264,1.1a4.709,4.709,0,0,1,2.2.126l-.207,1.364a4.249,4.249,0,0,0-1.672-.156l.411,1.719c1.185,0,2.507.074,2.848,1.5.249,1.051-.3,2.142-1.842,2.712m-2.079-4.227-.343-1.435c-.507.249-.649.593-.569.926.084.354.433.473.912.508m2.321,2.021c-.084-.351-.424-.475-.895-.523l.334,1.395c.478-.232.638-.548.56-.871Z" transform="translate(-90.748 -56.072)"/>
            </g>
          </g>
        </g>
        <path id="Path_223" data-name="Path 223" d="M87.2,57.151a9.736,9.736,0,0,1-12.961,4.642,9.923,9.923,0,0,1-1.484-.864A9.726,9.726,0,1,1,87.2,57.151Z" transform="translate(11.752 7.407)" fill="#ffd56a"/>
        <path id="Path_224" data-name="Path 224" d="M84.939,56a7.428,7.428,0,1,1-3.575-9.876l.015.007A7.42,7.42,0,0,1,84.939,56" transform="translate(12.114 7.773)" fill="#ffd56a"/>
        <g id="Group_26" data-name="Group 26" transform="translate(85.699 55.576)" opacity="0.3">
          <g id="Group_25" data-name="Group 25">
            <g id="Group_24" data-name="Group 24" clip-path="url(#clip-path-5)">
              <path id="Path_225" data-name="Path 225" d="M76.482,56.647l-.534,1.178-1.054-.478.52-1.147a5.479,5.479,0,0,1-2.238-2.03l1.161-1.021a4.669,4.669,0,0,0,1.7,1.672l.8-1.757c-1.039-.813-2.167-1.794-1.484-3.3.506-1.115,1.75-1.705,3.5-1.141l.531-1.171,1.054.477-.52,1.147a5.217,5.217,0,0,1,1.845,1.61l-1.113,1.054a4.739,4.739,0,0,0-1.362-1.278l-.812,1.788c1.043.8,2.15,1.774,1.478,3.258-.5,1.1-1.725,1.685-3.468,1.136m1.054-5.127.677-1.494c-.615-.126-.974.078-1.131.425-.163.369.061.712.458,1.069Zm.659,3.356c.167-.369-.047-.7-.427-1.07l-.658,1.452c.581.123.936-.046,1.089-.382Z" transform="translate(-73.176 -47.455)"/>
            </g>
          </g>
        </g>
        <path id="Path_226" data-name="Path 226" d="M85.975,62.112h38.84a1.172,1.172,0,0,1,1.171,1.171V90.21a1.172,1.172,0,0,1-1.171,1.171H85.975A1.172,1.172,0,0,1,84.8,90.21V63.283a1.172,1.172,0,0,1,1.171-1.171" transform="translate(14.513 10.63)" fill="#3f4154"/>
        <path id="Path_227" data-name="Path 227" d="M124.111,91.518h-37.4A2.015,2.015,0,0,1,84.7,89.506V64.021a2.015,2.015,0,0,1,2.012-2.012h37.4a2.015,2.015,0,0,1,2.012,2.012V89.5a2.013,2.013,0,0,1-2.012,2.016m-37.4-29.269a1.774,1.774,0,0,0-1.772,1.772V89.5a1.774,1.774,0,0,0,1.772,1.772h37.4a1.775,1.775,0,0,0,1.77-1.772V64.021a1.774,1.774,0,0,0-1.772-1.772Z" transform="translate(14.496 10.612)"/>
        <path id="Path_228" data-name="Path 228" d="M111.078,72.312h10.135a3.465,3.465,0,1,1,0,6.93H111.078a3.465,3.465,0,1,1,0-6.93" transform="translate(18.417 12.375)" fill="#fff"/>
        <path id="Path_229" data-name="Path 229" d="M121.493,79.38H110.836a3.327,3.327,0,0,1-3.323-3.323v-.525a3.327,3.327,0,0,1,3.323-3.323h10.657a3.327,3.327,0,0,1,3.323,3.323v.525a3.327,3.327,0,0,1-3.323,3.323m-10.657-6.931a3.086,3.086,0,0,0-3.082,3.082v.525a3.086,3.086,0,0,0,3.082,3.082h10.657a3.086,3.086,0,0,0,3.082-3.082v-.525a3.086,3.086,0,0,0-3.082-3.082Z" transform="translate(18.4 12.358)"/>
        <path id="Path_230" data-name="Path 230" d="M121.493,79.38H110.836a3.327,3.327,0,0,1-3.323-3.323v-.525a3.327,3.327,0,0,1,3.323-3.323h10.657a3.327,3.327,0,0,1,3.323,3.323v.525a3.327,3.327,0,0,1-3.323,3.323m-10.657-6.931a3.086,3.086,0,0,0-3.082,3.082v.525a3.086,3.086,0,0,0,3.082,3.082h10.657a3.086,3.086,0,0,0,3.082-3.082v-.525a3.086,3.086,0,0,0-3.082-3.082Z" transform="translate(18.4 12.358)" fill="#263238"/>
        <path id="Path_231" data-name="Path 231" d="M109.227,74.213a2.463,2.463,0,1,1,.6,3.43,2.462,2.462,0,0,1-.6-3.43" transform="translate(18.616 12.522)" fill="#263238"/>
        <path id="Path_232" data-name="Path 232" d="M108.318,16.878a8.975,8.975,0,0,0,2.862,6.772l1.28-3.709" transform="translate(18.537 2.889)" fill="#263238"/>
        <path id="Path_233" data-name="Path 233" d="M118.081,10.664a5.434,5.434,0,0,0-3.654-.442,11.5,11.5,0,0,0-3.456,1.429,5.667,5.667,0,0,0-1.651,1.288,8.017,8.017,0,0,0-1.663,3.933,14.168,14.168,0,0,0,.772,4.567c.4.863,2.28,1.522,3.208,1.732l8.509-9.9a4.306,4.306,0,0,0-2.065-2.61" transform="translate(18.424 1.726)" fill="#3f4154"/>
        <path id="Path_234" data-name="Path 234" d="M111.7,23.321l-.07-.016c-.95-.218-2.86-.875-3.29-1.8a14.281,14.281,0,0,1-.782-4.624,8.2,8.2,0,0,1,1.69-4,5.766,5.766,0,0,1,1.685-1.318,11.741,11.741,0,0,1,3.492-1.443,5.543,5.543,0,0,1,3.736.453,4.457,4.457,0,0,1,2.122,2.684l.018.062-.042.048Zm4.015-13.091a6.327,6.327,0,0,0-1.243.126,11.545,11.545,0,0,0-3.42,1.415,5.567,5.567,0,0,0-1.617,1.259,7.927,7.927,0,0,0-1.64,3.865,13.937,13.937,0,0,0,.76,4.509c.351.757,2.03,1.405,3.056,1.649l8.42-9.793a4.214,4.214,0,0,0-1.991-2.476,4.841,4.841,0,0,0-2.326-.553Z" transform="translate(18.407 1.708)" fill="#3f4154"/>
        <path id="Path_235" data-name="Path 235" d="M118.109,11.771l-2.04-.364c1.115,2.656,1.417,8.728,2.055,11.538.752-1.091,2.5-4.414,2.4-5.739s0-5.66-2.42-5.435" transform="translate(19.864 1.952)" fill="#3f4154"/>
        <path id="Path_236" data-name="Path 236" d="M118.1,23.262l-.061-.267c-.241-1.061-.434-2.587-.639-4.2a34.108,34.108,0,0,0-1.405-7.314l-.085-.2,2.242.4a1.641,1.641,0,0,1,1.261.395c1.082.943,1.189,3.349,1.246,4.641.009.2.016.372.027.513.1,1.373-1.656,4.7-2.425,5.812Zm-1.807-11.675a36.983,36.983,0,0,1,1.346,7.174c.187,1.473.364,2.872.576,3.9.8-1.251,2.313-4.216,2.225-5.424-.009-.142-.018-.317-.027-.519-.056-1.257-.16-3.6-1.164-4.471a1.389,1.389,0,0,0-1.1-.336h-.016Z" transform="translate(19.836 1.929)" fill="#3f4154"/>
        <path id="Path_237" data-name="Path 237" d="M120.393,16.049c-.132-2.038-1.489-4.536-3.513-4.316l-4.7,1.2a3.484,3.484,0,0,0-2.621,3.209c0,.077-.013-.018-.012.041L110.6,28.347l3.526,7,3.1-5.906V26.227a4.232,4.232,0,0,0,3.135-3.837,32.324,32.324,0,0,0,.027-6.342" transform="translate(18.748 2.006)" fill="#fff"/>
        <path id="Path_238" data-name="Path 238" d="M114.134,35.624l-3.645-7.251L109.435,16.1l.026-.009a3.609,3.609,0,0,1,2.707-3.257l4.7-1.2a2.485,2.485,0,0,1,1.929.624,5.7,5.7,0,0,1,1.739,3.8,32.978,32.978,0,0,1-.027,6.37,4.442,4.442,0,0,1-3.134,3.914v3.146Zm-3.407-7.294,3.411,6.77,2.992-5.672V26.6c0-.468,0-.468.117-.468a4.088,4.088,0,0,0,3.019-3.735,32.714,32.714,0,0,0,.025-6.317,5.446,5.446,0,0,0-1.655-3.631,2.252,2.252,0,0,0-1.732-.572l-4.685,1.2a3.373,3.373,0,0,0-2.531,3.1.276.276,0,0,1-.009.053Z" transform="translate(18.728 1.989)"/>
        <path id="Path_239" data-name="Path 239" d="M117.691,17.853a.436.436,0,0,1-.419.44.415.415,0,0,1-.449-.382V17.9a.436.436,0,0,1,.418-.44.416.416,0,0,1,.45.381v.012" transform="translate(19.993 2.988)" fill="#263238"/>
        <path id="Path_240" data-name="Path 240" d="M118.623,16.618c-.054.057-.384-.186-.854-.185s-.812.234-.863.18c-.025-.026.029-.128.179-.234a1.2,1.2,0,0,1,.691-.214,1.151,1.151,0,0,1,.679.218c.145.107.193.21.167.235" transform="translate(20.006 2.767)" fill="#263238"/>
        <path id="Path_241" data-name="Path 241" d="M114.33,17.853a.436.436,0,0,1-.419.44.415.415,0,0,1-.449-.382V17.9a.436.436,0,0,1,.419-.44.415.415,0,0,1,.449.382v.011" transform="translate(19.417 2.988)" fill="#263238"/>
        <path id="Path_242" data-name="Path 242" d="M114.822,16.618c-.054.057-.385-.186-.854-.184s-.812.234-.863.18c-.025-.026.029-.128.179-.234a1.2,1.2,0,0,1,.691-.214,1.151,1.151,0,0,1,.679.218c.144.105.193.208.167.234" transform="translate(19.356 2.767)" fill="#263238"/>
        <path id="Path_243" data-name="Path 243" d="M115.853,20.266a3.062,3.062,0,0,1,.761-.139c.117-.013.234-.036.253-.117a.6.6,0,0,0-.081-.351l-.351-.911a15.68,15.68,0,0,1-.8-2.382,15.8,15.8,0,0,1,.991,2.313l.341.916a.691.691,0,0,1,.063.468.3.3,0,0,1-.2.176.837.837,0,0,1-.2.028,3.085,3.085,0,0,1-.778,0" transform="translate(19.789 2.801)" fill="#263238"/>
        <path id="Path_244" data-name="Path 244" d="M112.261,23.075a4.3,4.3,0,0,0,4.505,2.008v-.8a8.553,8.553,0,0,1-4.505-1.21" transform="translate(19.212 3.949)" fill="#e0e0e0"/>
        <path id="Path_245" data-name="Path 245" d="M114.756,15.156c-.046.128-.514.068-1.065.136s-.994.218-1.068.1c-.033-.055.045-.175.224-.3a1.864,1.864,0,0,1,1.624-.183c.2.081.3.182.285.241" transform="translate(19.273 2.534)" fill="#263238"/>
        <path id="Path_246" data-name="Path 246" d="M118.474,15.4c-.082.107-.405,0-.794-.008s-.717.074-.793-.037c-.034-.054.019-.16.162-.262a1.149,1.149,0,0,1,1.279.037c.137.109.183.219.146.271" transform="translate(20.002 2.552)" fill="#263238"/>
        <path id="Path_247" data-name="Path 247" d="M119.592,13.138a1.5,1.5,0,0,0-1.32-.846,2.9,2.9,0,0,0-1.567.457c-2.024,1.171-3.064,3.995-5.063,5.2-.492.3-1.131.025-1.549.419a1.443,1.443,0,0,0-.458,1.551,4.747,4.747,0,0,1-.693-1.171A1.6,1.6,0,0,1,109,17.428c.173-.3.479-.528.562-.864a4.537,4.537,0,0,0-.029-.909,1.969,1.969,0,0,1,.312-.867,8.815,8.815,0,0,1,3.248-3.416,5.749,5.749,0,0,1,2.982-.771,4.4,4.4,0,0,1,2.836,1.125c.447.417.917.848.685,1.414" transform="translate(18.624 1.814)" fill="#3f4154"/>
        <path id="Path_248" data-name="Path 248" d="M110.219,17.624a1.186,1.186,0,0,0-1.832,1.147,1.376,1.376,0,0,0,1.827,1.417c0-.053,0-2.564,0-2.564" transform="translate(18.547 2.982)" fill="#fff"/>
        <path id="Path_249" data-name="Path 249" d="M109.818,20.385h-.105a1.405,1.405,0,0,1-1.44-1.369,1.378,1.378,0,0,1,.013-.231c.013-1.043.536-1.351.973-1.428s1.032.082,1.09.241l.007.041v2.576c-.014.145-.341.169-.538.169m-.313-2.811a1.042,1.042,0,0,0-.457.095,1.135,1.135,0,0,0-.524,1.115,1.263,1.263,0,0,0,.486,1.147,1.6,1.6,0,0,0,1.1.185V17.7a1.617,1.617,0,0,0-.608-.122Z" transform="translate(18.529 2.967)"/>
        <path id="Path_250" data-name="Path 250" d="M109.588,19.4c-.008,0-.032.022-.087.047a.323.323,0,0,1-.234,0,.789.789,0,0,1-.358-.711,1.052,1.052,0,0,1,.094-.456.369.369,0,0,1,.242-.242.163.163,0,0,1,.187.089c.025.052.012.088.022.091s.04-.03.026-.105a.2.2,0,0,0-.071-.117.243.243,0,0,0-.176-.048.449.449,0,0,0-.336.281,1.085,1.085,0,0,0-.117.509.829.829,0,0,0,.458.794.343.343,0,0,0,.292-.046c.059-.042.066-.083.059-.087" transform="translate(18.616 3.071)" fill="#999"/>
        <path id="Path_251" data-name="Path 251" d="M109.328,17.7a.782.782,0,0,0,.11-.062c.07-.045.178-.1.307-.2a6.264,6.264,0,0,0,.988-.9,17.627,17.627,0,0,0,1.209-1.569,14.312,14.312,0,0,1,1.51-1.881,5.773,5.773,0,0,1,.974-.769,4.751,4.751,0,0,1,1.054-.478,5.224,5.224,0,0,1,1.938-.234,5.007,5.007,0,0,1,1.3.254c.15.046.261.1.34.125a.7.7,0,0,0,.117.042.722.722,0,0,0-.117-.057,2.893,2.893,0,0,0-.335-.141,4.708,4.708,0,0,0-1.306-.282,5.174,5.174,0,0,0-1.966.224,4.788,4.788,0,0,0-1.072.481,5.744,5.744,0,0,0-.991.78,13.954,13.954,0,0,0-1.514,1.895,18.748,18.748,0,0,1-1.19,1.575,6.757,6.757,0,0,1-.963.912c-.125.095-.234.158-.3.207a.645.645,0,0,0-.1.073" transform="translate(18.71 1.974)" fill="#455a64"/>
        <path id="Path_252" data-name="Path 252" d="M109.725,17.614a2.824,2.824,0,0,0,.179,1.472.971.971,0,0,0,1.247.5,1.385,1.385,0,0,0,.521-1.06c.173-1.171.253-2.342.437-3.513Z" transform="translate(18.773 2.569)" fill="#3f4154"/>
        <path id="Path_253" data-name="Path 253" d="M118.984,12.036c0,.011-.162-.03-.454-.04a3.128,3.128,0,0,0-1.211.221,4.01,4.01,0,0,0-.759.391,8.069,8.069,0,0,0-.782.6,9.4,9.4,0,0,0-1.532,1.652c-.234.327-.438.662-.662.973a4.7,4.7,0,0,1-.734.82,8.15,8.15,0,0,1-1.546,1.034c-.468.247-.86.42-1.129.541l-.313.134a.512.512,0,0,1-.117.04.5.5,0,0,1,.1-.059l.3-.151c.265-.131.65-.314,1.111-.568a8.479,8.479,0,0,0,1.522-1.041,4.672,4.672,0,0,0,.714-.813c.219-.308.425-.644.659-.973a9.189,9.189,0,0,1,1.555-1.664,8.078,8.078,0,0,1,.8-.6,4.035,4.035,0,0,1,.78-.388,3.035,3.035,0,0,1,1.238-.193,2.2,2.2,0,0,1,.338.047.485.485,0,0,1,.115.036" transform="translate(18.782 2.045)" fill="#455a64"/>
        <path id="Path_254" data-name="Path 254" d="M109.977,16.611a.8.8,0,0,1-.162.109l-.468.272-.156.089a.489.489,0,0,1-.2.067.193.193,0,0,1-.124-.029A.16.16,0,0,1,108.8,17a.4.4,0,0,1,.087-.234l.538-.861.073.068a1.919,1.919,0,0,1-1.243.37.576.576,0,0,1-.166-.028.226.226,0,0,1-.142-.124.2.2,0,0,1,.03-.185.76.76,0,0,1,.1-.117,3.844,3.844,0,0,0,.623-.786,6.593,6.593,0,0,0,.4-.843.94.94,0,0,1-.057.246,3.479,3.479,0,0,1-.275.632,3.683,3.683,0,0,1-.62.82c-.068.064-.136.139-.11.2s.125.085.223.087a1.85,1.85,0,0,0,1.177-.351l.219-.159-.146.227-.549.855a.344.344,0,0,0-.077.178c0,.052.047.082.105.077a.934.934,0,0,0,.329-.136l.478-.246a.8.8,0,0,1,.183-.076" transform="translate(18.471 2.441)" fill="#455a64"/>
        <path id="Path_255" data-name="Path 255" d="M115.671,20.5a.818.818,0,0,0-.739-.275.747.747,0,0,0-.5.286.456.456,0,0,0-.019.531.553.553,0,0,0,.6.129,1.705,1.705,0,0,0,.567-.351.487.487,0,0,0,.124-.135.147.147,0,0,0,0-.165" transform="translate(19.566 3.459)" fill="#ff9a6c"/>
        <path id="Path_256" data-name="Path 256" d="M114.491,19.835c.074-.007.089.475.52.8s.95.26.956.328c.008.029-.117.1-.334.11a1.235,1.235,0,0,1-.8-.246,1.042,1.042,0,0,1-.4-.676c-.022-.2.028-.323.06-.321" transform="translate(19.582 3.395)" fill="#263238"/>
        <path id="Path_257" data-name="Path 257" d="M121.732,47.6l1.965,4.443L114.15,55.62l-2.136-4.781Z" transform="translate(19.17 8.147)" fill="#263238"/>
        <path id="Path_258" data-name="Path 258" d="M137.574,70.693l2.612,5.638s6.522-.862,7.106.132l-10.663,5.558L132.2,73.4Z" transform="translate(22.624 12.098)"/>
        <path id="Path_259" data-name="Path 259" d="M136.069,76.554a.494.494,0,0,0-.049.659.477.477,0,0,0,.653.055.523.523,0,0,0,.049-.7.5.5,0,0,0-.686.019" transform="translate(23.26 13.081)" fill="#e0e0e0"/>
        <path id="Path_260" data-name="Path 260" d="M136.031,81.224l-.351-.686,10.458-5.187a.918.918,0,0,1,.642.351Z" transform="translate(23.22 12.896)" fill="#263238"/>
        <path id="Path_261" data-name="Path 261" d="M139.222,75.5c.026.054-.227.212-.4.514s-.2.595-.259.6-.136-.342.081-.7.566-.464.579-.41" transform="translate(23.702 12.918)" fill="#263238"/>
        <path id="Path_262" data-name="Path 262" d="M140.353,75.405c.039.046-.145.252-.211.566s0,.577-.052.6-.234-.258-.15-.648.385-.57.412-.52" transform="translate(23.945 12.903)" fill="#263238"/>
        <path id="Path_263" data-name="Path 263" d="M141.468,76.448c-.042.036-.249-.191-.261-.549s.178-.6.223-.567-.029.265-.016.56.1.525.055.556" transform="translate(24.166 12.892)" fill="#263238"/>
        <path id="Path_264" data-name="Path 264" d="M138.643,74.453c0,.06-.278.11-.566.281s-.468.384-.525.351.077-.334.42-.532.675-.155.67-.1" transform="translate(23.538 12.734)" fill="#263238"/>
        <path id="Path_265" data-name="Path 265" d="M138.424,73.388a1.141,1.141,0,0,1-.543.273,2.715,2.715,0,0,1-.656.117,2.778,2.778,0,0,1-.395-.007.762.762,0,0,1-.234-.044.259.259,0,0,1-.167-.269.323.323,0,0,1,.17-.234.8.8,0,0,1,.218-.075,2.16,2.16,0,0,1,1.062.019c.369.105.555.259.542.279s-.221-.074-.574-.136a2.458,2.458,0,0,0-.622-.027,2.2,2.2,0,0,0-.36.062c-.13.028-.228.077-.234.143,0,.025,0,.034.043.055a.581.581,0,0,0,.167.032,2.988,2.988,0,0,0,.369.019,3.405,3.405,0,0,0,.627-.066,4.032,4.032,0,0,1,.587-.139" transform="translate(23.348 12.509)" fill="#263238"/>
        <path id="Path_266" data-name="Path 266" d="M129.021,78.447l-.33,6.207s6.167,2.29,6.218,3.442l-12.025-.078.117-9.69Z" transform="translate(21.03 13.405)" fill="#020202"/>
        <path id="Path_267" data-name="Path 267" d="M124.787,83.249a.5.5,0,0,0-.351.56.477.477,0,0,0,.552.351.524.524,0,0,0,.37-.595.494.494,0,0,0-.615-.3" transform="translate(21.294 14.245)" fill="#e0e0e0"/>
        <path id="Path_268" data-name="Path 268" d="M122.883,86.713l.009-.772,11.669.31a.915.915,0,0,1,.405.605Z" transform="translate(21.03 14.708)" fill="#263238"/>
        <path id="Path_269" data-name="Path 269" d="M128.1,83.773c0,.06-.3.081-.595.267s-.454.432-.508.408.04-.365.4-.586.712-.143.7-.089" transform="translate(21.732 14.327)" fill="#263238"/>
        <path id="Path_270" data-name="Path 270" d="M129.134,84.235c.013.057-.246.153-.452.4s-.268.512-.327.508-.091-.34.171-.642.608-.324.608-.268" transform="translate(21.959 14.412)" fill="#263238"/>
        <path id="Path_271" data-name="Path 271" d="M129.62,85.692c-.054.012-.131-.286.027-.608s.437-.446.461-.4-.15.22-.276.487-.153.512-.212.516" transform="translate(22.171 14.492)" fill="#263238"/>
        <path id="Path_272" data-name="Path 272" d="M128.05,82.573c-.026.054-.3-.033-.631-.016s-.6.117-.629.067.225-.259.621-.273.671.177.639.223" transform="translate(21.698 14.093)" fill="#263238"/>
        <path id="Path_273" data-name="Path 273" d="M128.338,81.547a1.14,1.14,0,0,1-.608-.013,2.8,2.8,0,0,1-.632-.206,2.829,2.829,0,0,1-.351-.192.728.728,0,0,1-.182-.146.259.259,0,0,1-.022-.316.327.327,0,0,1,.262-.131.828.828,0,0,1,.227.035,2.251,2.251,0,0,1,.376.136,2.156,2.156,0,0,1,.554.377c.278.266.369.488.351.5s-.16-.169-.444-.389a2.449,2.449,0,0,0-.538-.315,2.29,2.29,0,0,0-.351-.117c-.128-.036-.234-.039-.272.018-.012.021-.014.03.012.068a.614.614,0,0,0,.134.107,3.213,3.213,0,0,0,.319.19,3.378,3.378,0,0,0,.586.234,4.126,4.126,0,0,1,.58.162" transform="translate(21.649 13.784)" fill="#263238"/>
        <path id="Path_274" data-name="Path 274" d="M104.642,53.433s24.1-3.016,25.513-3.017a6.189,6.189,0,0,1,5.922,4.5c.368,1.45,7.785,22.4,7.785,22.4l-5.472,2.836-8.046-14.3-4.1-7.133-21.133,3.265Z" transform="translate(17.908 8.628)"/>
        <path id="Path_275" data-name="Path 275" d="M126.378,57.031a6.594,6.594,0,0,1,5.085,2.637c1.054,1.553.68,4.333.7,6.423.029,2.852-.661,20.224-.661,20.224l-6.754.117-1.415-18.107.083-3.346-13.486-1.1a7.98,7.98,0,0,1,1.792-7.314c.382-.415,14.652.461,14.652.461" transform="translate(18.771 9.662)"/>
        <path id="Path_276" data-name="Path 276" d="M106.858,48.019s-5.326,8.2-2.059,14.355c1.558,2.935,6.216,2.928,6.216,2.928l4.777-5.982v-9.9Z" transform="translate(17.754 8.218)"/>
        <path id="Path_277" data-name="Path 277" d="M109.95,63.809a.506.506,0,0,1,.09-.047l.268-.125,1.039-.468,3.832-1.708,5.691-2.517,3.362-1.481c.3-.124.577-.268.891-.375a5.513,5.513,0,0,1,.959-.245,7.245,7.245,0,0,1,2.013-.018,6.386,6.386,0,0,1,1.938.549,3.445,3.445,0,0,1,.834.545,3.116,3.116,0,0,1,.611.766,4.344,4.344,0,0,1,.564,1.8c.026.314.008.615.009.915s-.006.6-.009.889c-.027,2.342-.052,4.45-.071,6.222s-.046,3.2-.06,4.2l-.023,1.141c0,.125-.007.224-.009.3a.575.575,0,0,1-.008.1.583.583,0,0,1-.006-.1V72.709c0-1,.009-2.429.016-4.2s.027-3.881.042-6.222q0-.439.007-.889c0-.3.015-.605-.011-.9a4.208,4.208,0,0,0-.549-1.747,3.006,3.006,0,0,0-.586-.733,3.323,3.323,0,0,0-.8-.522,6.269,6.269,0,0,0-1.9-.536,7.148,7.148,0,0,0-1.975.016,5.482,5.482,0,0,0-.937.234c-.3.1-.593.248-.885.371l-3.365,1.474-5.7,2.49-3.848,1.668-1.054.447-.274.117a.561.561,0,0,1-.1.029" transform="translate(18.817 9.714)" fill="#455a64"/>
        <path id="Path_278" data-name="Path 278" d="M129.326,50.411c0,.034-5.057.6-11.3,1.272s-11.313,1.182-11.317,1.148,5.056-.6,11.3-1.272,11.312-1.177,11.316-1.148" transform="translate(18.262 8.627)" fill="#455a64"/>
        <path id="Path_279" data-name="Path 279" d="M123.648,42.713c.392-1.247,1.757-5.835,1.453-8.253-.246-1.934-1.976-4.407-2.495-5.728-.244-.622-2.188-1.264-3.347-1.606l-1.154-1.363-.1.665a3.316,3.316,0,0,1-2.753,1.123,6.122,6.122,0,0,1-4.053-1.886,25.264,25.264,0,0,0-5.29,2c-1.1.438,2.192,10.981,2.192,10.981s1.179,6.623.07,8.855c-.625,1.258-1.348,2.694-1.88,3.865,0,0-1.478,2.82-1.162,2.747.665-.155,5.288.966,9.626,1.193,8.027.42,9.561-.768,9.561-.768-.419-2.052-1.123-9.252-1.121-10.65a7.777,7.777,0,0,1,.447-1.175" transform="translate(17.985 4.393)" fill="#324d96"/>
        <path id="Path_280" data-name="Path 280" d="M117.985,55.536c-.937,0-2-.027-3.215-.091a64.511,64.511,0,0,1-6.983-.869,14.589,14.589,0,0,0-2.608-.327.15.15,0,0,1-.156-.053c-.052-.067-.19-.246,1.184-2.867.45-.987,1.028-2.149,1.588-3.272l.292-.586c1.079-2.171-.069-8.714-.081-8.784-.552-1.764-3.264-10.657-2.119-11.114a5.769,5.769,0,0,0,.545-.256,25.529,25.529,0,0,1,4.754-1.746l.073-.022.052.056a6.053,6.053,0,0,0,3.975,1.847,3.228,3.228,0,0,0,2.629-1.054l.13-.9,1.3,1.539c2.083.617,3.193,1.162,3.4,1.667a17.009,17.009,0,0,0,.808,1.614,13.533,13.533,0,0,1,1.693,4.143c.308,2.428-1.038,6.971-1.458,8.3-.027.084-.089.224-.162.385a3.473,3.473,0,0,0-.281.748c0,1.38.691,8.533,1.118,10.627l.015.073-.059.046c-.061.052-1.214.889-6.433.889M105.325,54a21.891,21.891,0,0,1,2.5.341,64.3,64.3,0,0,0,6.957.865c7.027.368,9.065-.513,9.421-.7-.431-2.2-1.109-9.224-1.107-10.592a2.9,2.9,0,0,1,.3-.847c.067-.149.13-.288.152-.358.417-1.323,1.757-5.823,1.449-8.2a13.389,13.389,0,0,0-1.667-4.059,17.127,17.127,0,0,1-.82-1.64c-.094-.24-.644-.76-3.269-1.534l-.035-.011-1-1.186-.063.433-.02.026a3.423,3.423,0,0,1-2.859,1.171,6.31,6.31,0,0,1-4.079-1.874,25.007,25.007,0,0,0-4.641,1.708,5.95,5.95,0,0,1-.567.267c-.623.248.661,5.7,2.263,10.834.053.287,1.177,6.7.063,8.944l-.292.586c-.559,1.122-1.137,2.281-1.587,3.27a19.5,19.5,0,0,0-1.185,2.566Z" transform="translate(17.968 4.364)" fill="#324d96"/>
        <path id="Path_281" data-name="Path 281" d="M116.327,26.026s5.23,1.348,5.739,2.042c1.391,1.891,9.772,14.828,5.658,18.687-2.694,2.527-6.479-2.8-6.479-2.8Z" transform="translate(19.908 4.454)" fill="#324d96"/>
        <path id="Path_282" data-name="Path 282" d="M126.116,47.579c-.087,0-.174,0-.265-.013-2.319-.234-4.583-3.388-4.678-3.522l-.018-.037L116.18,25.883l.2.052c.54.139,5.288,1.378,5.809,2.088,2.086,2.833,9.644,15.092,5.643,18.846a2.448,2.448,0,0,1-1.716.711m-4.734-3.657c.183.251,2.367,3.191,4.494,3.406a2.213,2.213,0,0,0,1.793-.635c2.108-1.983.735-6.5-.792-9.945A54.463,54.463,0,0,0,122,28.164c-.345-.468-3.388-1.4-5.475-1.945Z" transform="translate(19.883 4.43)" fill="#324d96"/>
        <path id="Path_283" data-name="Path 283" d="M126.54,39.184a2.283,2.283,0,0,1-.367-.062l-1-.207c-.853-.172-2.047-.416-3.416-.614l.074-.041-.41,1.013-.976,2.381-.009-.06,1.514,1.815.42.52a1.025,1.025,0,0,1,.139.193s.385.177-.17-.169l-.447-.5-1.553-1.785-.023-.027.014-.033.961-2.387.412-1.012.02-.049.053.008c1.378.2,2.568.468,3.417.661.424.1.762.184.994.246a2.194,2.194,0,0,1,.354.107" transform="translate(20.59 6.531)" fill="#263238"/>
        <path id="Path_284" data-name="Path 284" d="M121.559,40.035a2.583,2.583,0,0,1,.04-.424l.145-1.15a17.714,17.714,0,0,0,.129-3.8,10.229,10.229,0,0,0-1.081-3.631c-.22-.439-.419-.783-.557-1.021a3.072,3.072,0,0,1-.208-.374.8.8,0,0,1,.073.085c.045.059.105.146.182.262.152.234.365.57.6,1.007a9.722,9.722,0,0,1,1.13,3.662,16.1,16.1,0,0,1-.169,3.826c-.07.485-.139.876-.189,1.145a2.491,2.491,0,0,1-.091.412" transform="translate(20.541 5.072)" fill="#263238"/>
        <g id="Group_29" data-name="Group 29" transform="translate(124.969 41.593)" opacity="0.3">
          <g id="Group_28" data-name="Group 28">
            <g id="Group_27" data-name="Group 27" clip-path="url(#clip-path-6)">
              <path id="Path_285" data-name="Path 285" d="M106.707,48.693l9.9-4.558-.67-1.957,1.522-.586,2.483.323a4.025,4.025,0,0,0,3.379-1.156L117.155,39.2l-7.035,1.5-1.788-5.183-.44,1.522.368,3.259.248,3.523Z" transform="translate(-106.707 -35.515)"/>
            </g>
          </g>
        </g>
        <path id="Path_286" data-name="Path 286" d="M106.779,27.326a4.524,4.524,0,0,0-2.533,2.9,11.571,11.571,0,0,0-.767,2.365c-.836,3.676-2.637,10.581-2.71,12.414-.13,3.31,2.5,4.249,3.923,4.538s11.3-4.82,11.3-4.82l-2.052-5.577-6.033,2.5s1.377-4.252,1.774-5.992-2.9-8.326-2.9-8.326" transform="translate(17.245 4.677)" fill="#324d96"/>
        <path id="Path_287" data-name="Path 287" d="M104.833,49.7a.765.765,0,0,1-.146-.013c-1.558-.317-4.151-1.346-4.019-4.661a80.056,80.056,0,0,1,1.874-8.9c.314-1.3.611-2.533.837-3.527a11.53,11.53,0,0,1,.776-2.391,4.576,4.576,0,0,1,2.6-2.962l.1-.039.049.1c.136.271,3.312,6.644,2.91,8.405-.338,1.481-1.4,4.819-1.7,5.754l5.908-2.445,2.133,5.794-.095.049c-.391.2-9.383,4.84-11.229,4.84M106.741,27.5a4.435,4.435,0,0,0-2.361,2.778,11.846,11.846,0,0,0-.766,2.36c-.226,1-.523,2.225-.837,3.53a80.469,80.469,0,0,0-1.874,8.86c-.066,1.64.547,3.748,3.827,4.416a.649.649,0,0,0,.117.011c1.439,0,8.283-3.368,11.009-4.771l-1.972-5.36-6.158,2.547.081-.247c.014-.042,1.381-4.268,1.772-5.981.358-1.561-2.425-7.3-2.839-8.142Z" transform="translate(17.227 4.655)" fill="#324d96"/>
        <path id="Path_288" data-name="Path 288" d="M121.755,38.207a4.5,4.5,0,0,1-.055-1.664,3.031,3.031,0,0,0,.035-1.007.77.77,0,0,0-.7-.652l-.5,2.423Z" transform="translate(20.627 5.97)" fill="#fff"/>
        <path id="Path_289" data-name="Path 289" d="M121.961,38.51l-1.547-1.135.538-2.587.089-.007a.88.88,0,0,1,.831.75,3.113,3.113,0,0,1-.034,1.047,4.432,4.432,0,0,0,.054,1.62Zm-1.281-1.237.919.675a4.634,4.634,0,0,1,0-1.405,2.91,2.91,0,0,0,.036-.966.7.7,0,0,0-.49-.55Z" transform="translate(20.607 5.952)" fill="#3f4154"/>
        <path id="Path_290" data-name="Path 290" d="M122.252,32.944l-1.777,8.567-4.216-.256,1.247-8.474a.454.454,0,0,1,.45-.389H121.8a.454.454,0,0,1,.461.447.4.4,0,0,1-.011.105" transform="translate(19.896 5.543)" fill="#263238"/>
        <path id="Path_291" data-name="Path 291" d="M117.333,35.111a1.443,1.443,0,0,0,.064-.252l.142-.693.2-1.029a1.141,1.141,0,0,1,.03-.139.273.273,0,0,1,.192-.17.8.8,0,0,1,.15-.007h.665c.911,0,1.737-.014,2.333-.026l.7-.018a1.473,1.473,0,0,0,.259-.019,1.489,1.489,0,0,0-.26-.015l-.7-.011h-3a.816.816,0,0,0-.169.011.351.351,0,0,0-.252.224,1.153,1.153,0,0,0-.033.153c-.068.385-.129.734-.18,1.033l-.117.7a1.559,1.559,0,0,0-.025.255" transform="translate(20.08 5.602)" fill="#455a64"/>
        <path id="Path_292" data-name="Path 292" d="M119.258,33.187a.208.208,0,0,1,.252-.125.2.2,0,0,1,.15.167.233.233,0,0,1-.117.214.214.214,0,0,1-.234-.023.2.2,0,0,1-.05-.233" transform="translate(20.406 5.657)" fill="#fafafa"/>
        <path id="Path_293" data-name="Path 293" d="M119.78,35.386c.1.025,2.325,1.171,2.325,1.171l1.163,1.226a2.378,2.378,0,0,1,.078,1.816c-.34,1.107-.9,1.5-2.176,1.813l-2.421-.383-1.224-1a.763.763,0,0,1-.244-.82l.016-.052-.139-.234a.421.421,0,0,1,.607-.559l1.38,1.01.949.125.142-.312-1.39-.721-1.77-1.369a.519.519,0,0,1-.091-.73l.013-.016a.52.52,0,0,1,.661-.117l1.64.966,1.716.758-.271-.682-2.017-1.493s-.152-.7,1.054-.395" transform="translate(20.002 6.043)" fill="#fff"/>
        <path id="Path_294" data-name="Path 294" d="M121.19,41.556l-2.477-.391-1.248-1.025a.878.878,0,0,1-.281-.949l-.111-.185a.541.541,0,0,1,.782-.714l1.355.991.83.11.057-.126-1.288-.669-1.788-1.381a.639.639,0,0,1,.716-1.054l1.64.966,1.436.632-.15-.377-2.026-1.5-.009-.045a.529.529,0,0,1,.135-.468c.193-.186.549-.215,1.054-.084.1.026,1.677.837,2.35,1.184l.032.025,1.179,1.247a2.471,2.471,0,0,1,.09,1.912A2.575,2.575,0,0,1,121.2,41.55Zm-2.375-.618,2.365.374c1.288-.322,1.757-.712,2.067-1.725a2.32,2.32,0,0,0-.062-1.71l-1.138-1.2c-.864-.446-2.168-1.113-2.286-1.157-.552-.141-.754-.046-.828.023a.262.262,0,0,0-.073.2l2,1.483.391.986-1.984-.876-1.656-.972a.4.4,0,0,0-.447.661l1.77,1.369,1.473.764-.227.5-1.067-.141-1.405-1.027a.3.3,0,0,0-.434.4l.167.278-.033.1a.639.639,0,0,0,.2.691Z" transform="translate(19.986 6.025)" fill="#3f4154"/>
        <path id="Path_295" data-name="Path 295" d="M120.383,34.423a1.467,1.467,0,0,0-1.236.054c-.772.32-1.757.8-1.757.8l-1.478.422.175-.365s1.459.148,1.389-.912l-.88.039-.755-.388-1.485,1.445-.56,2.045-1.64.848,1.288,3.5,2.309-1.281,2.893-.056,1.06-.856.117-1.089,1.038-1.054s.132-.529-.351-.586-1.63,1.093-1.63,1.093l-1.154.028s-.2-.182-.036-.285a25.448,25.448,0,0,0,3.716-2.15c.15-.376.307-.621-.032-.725a1.882,1.882,0,0,0-.9.087s.165-.531-.091-.612" transform="translate(19.194 5.831)" fill="#fff"/>
        <path id="Path_296" data-name="Path 296" d="M113.4,42.1l-1.37-3.729,1.684-.871.555-2.025,1.571-1.528.8.412.965-.042.008.117a.861.861,0,0,1-.249.71.717.717,0,0,1-.071.062l.083-.023s.977-.481,1.741-.8a1.609,1.609,0,0,1,1.33-.054c.227.081.234.358.208.556a1.623,1.623,0,0,1,.779-.032.385.385,0,0,1,.258.194c.073.157,0,.335-.1.56l-.054.13c-.1.246-1.032.8-3.331,1.982-.217.117-.405.208-.433.226a.115.115,0,0,0,.025.061l1.054-.026c.223-.217,1.2-1.147,1.693-1.094a.5.5,0,0,1,.375.2.706.706,0,0,1,.076.526l-.008.032L119.97,38.7l-.117,1.1-1.13.912-2.9.057Zm-1.072-3.613,1.2,3.266,2.213-1.227,2.882-.056.99-.8.117-1.081,1.041-1.061a.447.447,0,0,0-.046-.3.267.267,0,0,0-.2-.1c-.3-.027-1.1.632-1.533,1.054l-.034.034-1.251.03-.036-.033a.4.4,0,0,1-.138-.29.233.233,0,0,1,.117-.184c.035-.022.164-.089.452-.234a16.6,16.6,0,0,0,3.217-1.857l.055-.132c.063-.15.128-.3.1-.364-.014-.032-.068-.054-.11-.067a1.712,1.712,0,0,0-.827.085l-.219.075.066-.223c.052-.176.069-.438-.02-.468l-.022-.009a1.356,1.356,0,0,0-1.131.06c-.759.314-1.738.794-1.747.8l-1.757.5.326-.682.084.008a1.609,1.609,0,0,0,1.082-.265.588.588,0,0,0,.177-.4l-.787.034-.7-.363L114.483,35.6l-.564,2.065Zm3.851-3.009-.025.052.174-.049c-.06,0-.111,0-.15,0Z" transform="translate(19.173 5.81)" fill="#3f4154"/>
        <path id="Path_297" data-name="Path 297" d="M116.771,36.374a31.961,31.961,0,0,0,2.993-1.493,31.674,31.674,0,0,0-2.993,1.493" transform="translate(19.984 5.97)" fill="#3f4154"/>
        <path id="Path_298" data-name="Path 298" d="M116.184,38.721a.749.749,0,0,0,.173.056c.117.029.278.071.484.107a3.183,3.183,0,0,0,.738.052,2.158,2.158,0,0,0,.875-.242,3.828,3.828,0,0,0,1.224-1.084c.129-.165.226-.3.293-.4a.728.728,0,0,0,.095-.156c-.012-.008-.17.2-.437.515a4.087,4.087,0,0,1-1.216,1.046,2.156,2.156,0,0,1-.841.234,3.551,3.551,0,0,1-.723-.032c-.409-.055-.663-.111-.665-.1" transform="translate(19.883 6.341)" fill="#3f4154"/>
        <path id="Path_299" data-name="Path 299" d="M107.247,46.863a1.046,1.046,0,0,1,.151-.082l.445-.219,1.675-.8,5.791-2.737-.03.075-1.195-3.279-.858-2.365.081.035-5.9,2.477h-.013a5.3,5.3,0,0,0-1.416.316,2.674,2.674,0,0,0-.918.575,1.749,1.749,0,0,0-.388.563,1.709,1.709,0,0,0-.057.17.332.332,0,0,1-.016.059.184.184,0,0,1,0-.062,1.293,1.293,0,0,1,.047-.176,1.674,1.674,0,0,1,.376-.586,2.664,2.664,0,0,1,.926-.605,5.288,5.288,0,0,1,1.432-.338h-.013l5.886-2.51.06-.026.022.061.861,2.363,1.19,3.279.019.052-.049.023-5.81,2.694-1.69.773-.454.2a1.034,1.034,0,0,1-.155.073" transform="translate(17.9 6.391)" fill="#263238"/>
        <path id="Path_300" data-name="Path 300" d="M109.03,33.056a7.347,7.347,0,0,1-.391-.7c-.234-.438-.586-1.033-1.006-1.662a17.822,17.822,0,0,0-1.171-1.551,7.251,7.251,0,0,1-.511-.625c.006-.006.064.044.166.142s.242.241.411.426a14.025,14.025,0,0,1,2.188,3.23c.109.225.192.41.244.54a.73.73,0,0,1,.07.2" transform="translate(18.132 4.88)" fill="#263238"/>
        <path id="Path_301" data-name="Path 301" d="M109.137,33.406a1.421,1.421,0,0,1-.068.3c-.052.193-.131.468-.234.812-.2.684-.493,1.626-.827,2.661s-.648,1.97-.885,2.642c-.117.336-.219.607-.292.793a1.471,1.471,0,0,1-.125.285,1.572,1.572,0,0,1,.08-.3l.254-.8.85-2.653.862-2.648.272-.8a1.59,1.59,0,0,1,.114-.29" transform="translate(18.261 5.717)" fill="#263238"/>
      </g>
    </g>
  </g>
</svg>
