<svg id="Group_17" data-name="Group 17" xmlns="http://www.w3.org/2000/svg" xmlns:xlink="http://www.w3.org/1999/xlink" width="170" height="114.497" viewBox="0 0 170 114.497">
  <defs>
    <clipPath id="clip-path">
      <rect id="Rectangle_17" data-name="Rectangle 17" width="170" height="114.497" fill="none"/>
    </clipPath>
    <clipPath id="clip-path-2">
      <rect id="Rectangle_16" data-name="Rectangle 16" width="170" height="114.498" fill="none"/>
    </clipPath>
    <clipPath id="clip-path-3">
      <rect id="Rectangle_3" data-name="Rectangle 3" width="157.354" height="59.33" fill="none"/>
    </clipPath>
    <clipPath id="clip-path-4">
      <rect id="Rectangle_14" data-name="Rectangle 14" width="59.323" height="97.511" fill="none"/>
    </clipPath>
    <clipPath id="clip-path-5">
      <rect id="Rectangle_15" data-name="Rectangle 15" width="93.73" height="41.086" fill="none"/>
    </clipPath>
  </defs>
  <g id="Group_16" data-name="Group 16" clip-path="url(#clip-path)">
    <g id="Group_15" data-name="Group 15" transform="translate(0 0)">
      <g id="Group_14" data-name="Group 14" clip-path="url(#clip-path-2)">
        <g id="Group_7" data-name="Group 7" transform="translate(0 55.167)" opacity="0.5">
          <g id="Group_6" data-name="Group 6">
            <g id="Group_5" data-name="Group 5" clip-path="url(#clip-path-3)">
              <path id="Path_5" data-name="Path 5" d="M48.171,95.1a.158.158,0,0,1-.137-.085.209.209,0,0,1-.012-.177,53.419,53.419,0,0,1,3.3-6.532,36.559,36.559,0,0,1,8.746-10.422c-2.67-.447-6.171-.648-8.515.669a3.662,3.662,0,0,0-1.78,1.867.162.162,0,0,1-.191.123l-.013,0a.19.19,0,0,1-.109-.228,43.551,43.551,0,0,0-.174-19.468,31.874,31.874,0,0,0-2.863-7.928,9.549,9.549,0,0,0-3.946-4.3c-2.8-1.253-5.576.99-8.038,6.483a.164.164,0,0,1-.128.1.151.151,0,0,1-.143-.061A37.46,37.46,0,0,0,23.1,45.063c-3.44-1.842-6.482-2.1-8.565-.734-1.842,1.21-2.946,3.69-3.189,7.172a44.716,44.716,0,0,0,2.284,15.066A37.388,37.388,0,0,0,20.95,80.126a45.152,45.152,0,0,0,9.879,8.664,49.752,49.752,0,0,0,12.424,5.936.185.185,0,0,1,.128.2.172.172,0,0,1-.163.164H.165a.187.187,0,0,1,0-.371H42.031a52.413,52.413,0,0,1-11.355-5.6,45.505,45.505,0,0,1-9.957-8.731,37.758,37.758,0,0,1-7.394-13.7A45.158,45.158,0,0,1,11.02,51.468c.256-3.608,1.409-6.189,3.352-7.463,2.209-1.452,5.276-1.2,8.867.719a37.515,37.515,0,0,1,11.015,9.958c3.184-6.956,6.287-7.338,8.34-6.419,2.872,1.281,5.489,5.952,7,12.481a47.87,47.87,0,0,1,1.2,9.824,38.772,38.772,0,0,1-.783,8.769,4.886,4.886,0,0,1,1.346-1.1c2.049-1.168,5.131-1.387,9.174-.649a.174.174,0,0,1,.128.146.2.2,0,0,1-.073.195A35.514,35.514,0,0,0,51.586,88.5a54.987,54.987,0,0,0-3.166,6.219H79.972a.187.187,0,0,1,0,.371Z" transform="translate(0 -43.073)" fill="#e5e5e5"/>
              <path id="Path_6" data-name="Path 6" d="M39.824,88.266a.144.144,0,0,1-.065-.015,35.089,35.089,0,0,1-10.182-8.134,68.625,68.625,0,0,1-7.65-10.534,92.945,92.945,0,0,1-6.5-13.015.2.2,0,0,1,.085-.245.156.156,0,0,1,.207.076l.008.02A92.568,92.568,0,0,0,22.2,69.377a68.342,68.342,0,0,0,7.608,10.477,35.424,35.424,0,0,0,9.589,7.8c-1.551-3.041-2.843-9.534-3.842-19.328-.789-7.733-1.09-14.748-1.094-14.819a.178.178,0,0,1,.155-.195.175.175,0,0,1,.17.177c0,.069.3,7.074,1.091,14.8.725,7.111,2.022,16.3,4.079,19.687a.206.206,0,0,1-.009.223.154.154,0,0,1-.123.068" transform="translate(4.328 -40.197)" fill="#e5e5e5"/>
              <path id="Path_7" data-name="Path 7" d="M27.7,72.993a.164.164,0,0,1-.15-.111,31.516,31.516,0,0,1-1.889-14.455,25.194,25.194,0,0,1,1.323-6.063.155.155,0,0,1,.195-.1l.022.009a.2.2,0,0,1,.081.246,24.88,24.88,0,0,0-1.3,5.97,31.093,31.093,0,0,0,1.866,14.247.2.2,0,0,1-.085.245.162.162,0,0,1-.065.014" transform="translate(7.158 -40.495)" fill="#e5e5e5"/>
              <path id="Path_8" data-name="Path 8" d="M24.623,76.1A.16.16,0,0,1,24.481,76,67.844,67.844,0,0,1,20.872,66.6a44.607,44.607,0,0,1-1.752-8.527,19.375,19.375,0,0,1,.747-8.238.158.158,0,0,1,.195-.109l.018.006a.2.2,0,0,1,.09.242c-1.764,4.948-.424,11.705,1.011,16.5a67.4,67.4,0,0,0,3.586,9.35.2.2,0,0,1-.063.256.143.143,0,0,1-.079.019" transform="translate(5.326 -41.208)" fill="#e5e5e5"/>
              <path id="Path_9" data-name="Path 9" d="M32.221,74.759h-.014a.18.18,0,0,1-.149-.2c0-.022.17-2.17.615-4.554.6-3.229,1.4-5.336,2.371-6.263a.148.148,0,0,1,.211,0l.019.023a.2.2,0,0,1-.02.256c-2.2,2.1-2.864,10.482-2.87,10.566a.174.174,0,0,1-.163.173" transform="translate(9.001 -37.283)" fill="#e5e5e5"/>
              <path id="Path_10" data-name="Path 10" d="M29.674,86.368c-6.828,0-21.033-5.824-21.176-5.883a.173.173,0,0,1-.093-.1.212.212,0,0,1,0-.143,7.973,7.973,0,0,1,2.433-3.2c3.074-2.562,7.286-2.973,10.277-2.86a.177.177,0,0,1,.158.191.173.173,0,0,1-.166.179h0c-2.93-.11-7.052.282-10.053,2.77A8.193,8.193,0,0,0,8.779,80.2c1.62.656,14.527,5.792,20.9,5.792a.187.187,0,0,1,0,.371Z" transform="translate(2.356 -34.343)" fill="#e5e5e5"/>
              <path id="Path_11" data-name="Path 11" d="M29.674,82.447a.14.14,0,0,1-.072-.019C24.939,79.829,18.272,76.882,13,77.6A6.509,6.509,0,0,0,8.68,79.595a.15.15,0,0,1-.207.042l-.022-.018a.2.2,0,0,1-.022-.256,4.13,4.13,0,0,1,1.025-.9,8.334,8.334,0,0,1,3.458-1.219,17.3,17.3,0,0,1,6.542.53A43.52,43.52,0,0,1,29.746,82.1a.2.2,0,0,1,.074.248.163.163,0,0,1-.146.1" transform="translate(2.357 -33.507)" fill="#e5e5e5"/>
              <path id="Path_12" data-name="Path 12" d="M68.592,87.36H55.313a.187.187,0,0,1,0-.37H68.591a.187.187,0,0,1,.158.213.185.185,0,0,1-.158.158Z" transform="translate(15.486 -30.742)" fill="#e5e5e5"/>
              <path id="Path_13" data-name="Path 13" d="M48.125,87.36H43.066a.187.187,0,0,1,0-.37h5.059a.187.187,0,0,1,.158.213.185.185,0,0,1-.158.158" transform="translate(12.047 -30.742)" fill="#e5e5e5"/>
              <path id="Path_14" data-name="Path 14" d="M31.04,87.36H15.578a.187.187,0,0,1,0-.37H31.04a.187.187,0,0,1,.158.213.185.185,0,0,1-.158.158" transform="translate(4.329 -30.742)" fill="#e5e5e5"/>
              <path id="Path_15" data-name="Path 15" d="M34.251,89.478h-9.1a.187.187,0,0,1,0-.371h9.11a.187.187,0,0,1,0,.371Z" transform="translate(7.014 -30.148)" fill="#e5e5e5"/>
              <path id="Path_16" data-name="Path 16" d="M123.843,85.94h-4.918a.187.187,0,0,1,0-.371h4.918a.187.187,0,0,1,0,.371" transform="translate(33.345 -31.141)" fill="#e5e5e5"/>
              <path id="Path_17" data-name="Path 17" d="M120.088,87.453h-9.816a.187.187,0,0,1,0-.371h9.816a.187.187,0,0,1,0,.371" transform="translate(30.915 -30.716)" fill="#e5e5e5"/>
            </g>
          </g>
        </g>
        <g id="Group_10" data-name="Group 10" transform="translate(110.677 12.453)" opacity="0.5">
          <g id="Group_9" data-name="Group 9">
            <g id="Group_8" data-name="Group 8" clip-path="url(#clip-path-4)">
              <path id="Path_18" data-name="Path 18" d="M125.806,94.2h-.02a.186.186,0,0,1-.164-.2l8.739-79.664a.184.184,0,0,1,.2-.164h0a.187.187,0,0,1,.164.2L125.99,94.036a.187.187,0,0,1-.184.164" transform="translate(-75.406 -8.475)" fill="#e5e5e5"/>
              <path id="Path_19" data-name="Path 19" d="M126.6,107.234H90.816a4.275,4.275,0,0,1-3.24-1.426,4.771,4.771,0,0,1-1.114-3.787l9.455-82.152a6.8,6.8,0,0,1,5.5-5.863L137.2,9.76a3.738,3.738,0,0,1,3.139,1.025,4.887,4.887,0,0,1,1.237,4.046l-9.455,86.935a5.981,5.981,0,0,1-5.521,5.468M137.708,10.1a4.026,4.026,0,0,0-.465.028l-35.782,4.246a6.415,6.415,0,0,0-5.174,5.538L86.83,102.063a4.4,4.4,0,0,0,1.025,3.5,3.907,3.907,0,0,0,2.964,1.3H126.6a5.6,5.6,0,0,0,5.153-5.136l9.455-86.935a4.516,4.516,0,0,0-1.13-3.742,3.305,3.305,0,0,0-2.362-.948Z" transform="translate(-86.414 -9.722)" fill="#e5e5e5"/>
              <path id="Path_20" data-name="Path 20" d="M131.008,36.416l-34.95,2.855a1.538,1.538,0,0,1-1.627-1.844l.859-7.55A2.5,2.5,0,0,1,97.373,27.7l34.951-3.368a1.563,1.563,0,0,1,1.665,1.452,1.519,1.519,0,0,1-.038.469l-.859,7.922a2.508,2.508,0,0,1-2.083,2.243" transform="translate(-84.172 -5.622)" fill="#e5e5e5"/>
              <path id="Path_21" data-name="Path 21" d="M107.173,31.451l-8.5.754a1.1,1.1,0,0,1-1.168-1.324,1.794,1.794,0,0,1,1.5-1.566l8.5-.786a1.1,1.1,0,0,1,1.191,1.007,1.13,1.13,0,0,1-.023.334,1.793,1.793,0,0,1-1.5,1.582" transform="translate(-83.306 -4.444)" fill="#e5e5e5"/>
              <line id="Line_1" data-name="Line 1" y1="0.605" x2="7.019" transform="translate(14.114 29.393)" fill="#e5e5e5"/>
              <rect id="Rectangle_4" data-name="Rectangle 4" width="7.045" height="0.557" transform="matrix(0.996, -0.086, 0.086, 0.996, 14.089, 29.721)" fill="#e5e5e5"/>
              <line id="Line_2" data-name="Line 2" x1="1.329" y1="1.958" transform="translate(45.352 22.87)" fill="#e5e5e5"/>
              <rect id="Rectangle_5" data-name="Rectangle 5" width="0.557" height="2.367" transform="translate(45.122 23.026) rotate(-34.128)" fill="#e5e5e5"/>
              <line id="Line_3" data-name="Line 3" x1="1.787" y2="2.235" transform="translate(44.895 24.83)" fill="#e5e5e5"/>
              <rect id="Rectangle_6" data-name="Rectangle 6" width="2.861" height="0.558" transform="translate(44.677 26.89) rotate(-51.36)" fill="#e5e5e5"/>
              <path id="Path_22" data-name="Path 22" d="M110.2,29.557a1.771,1.771,0,0,1-1.473,1.565,1.092,1.092,0,0,1-1.176-1,1.059,1.059,0,0,1,.023-.324,1.778,1.778,0,0,1,1.473-1.565,1.09,1.09,0,0,1,1.176,1,1.1,1.1,0,0,1-.023.33" transform="translate(-80.481 -4.527)" fill="#e5e5e5"/>
              <path id="Path_23" data-name="Path 23" d="M129.78,47.653,94.829,49.894a1.558,1.558,0,0,1-1.653-1.458,1.531,1.531,0,0,1,.028-.411l.859-7.519a2.445,2.445,0,0,1,2.081-2.139L131.1,35.612a1.592,1.592,0,0,1,1.625,1.946l-.859,7.891a2.45,2.45,0,0,1-2.081,2.2" transform="translate(-84.516 -2.454)" fill="#e5e5e5"/>
              <path id="Path_24" data-name="Path 24" d="M105.944,42.388l-8.494.606a1.116,1.116,0,0,1-1.19-1.036,1.167,1.167,0,0,1,.022-.306,1.751,1.751,0,0,1,1.495-1.537l8.5-.64a1.122,1.122,0,0,1,1.191,1.048,1.144,1.144,0,0,1-.023.31,1.753,1.753,0,0,1-1.5,1.556" transform="translate(-83.65 -1.369)" fill="#e5e5e5"/>
              <rect id="Rectangle_7" data-name="Rectangle 7" width="12.589" height="0.557" transform="translate(12.522 43.557) rotate(-3.92)" fill="#e5e5e5"/>
              <rect id="Rectangle_8" data-name="Rectangle 8" width="0.557" height="2.384" transform="matrix(0.83, -0.558, 0.558, 0.83, 43.548, 37.419)" fill="#e5e5e5"/>
              <path id="Path_25" data-name="Path 25" d="M120.07,42.424l1.788-2.2.433.351-1.788,2.2Z" transform="translate(-76.964 -1.158)" fill="#e5e5e5"/>
              <path id="Path_26" data-name="Path 26" d="M108.969,40.584a1.729,1.729,0,0,1-1.473,1.537,1.11,1.11,0,0,1-1.176-1.044,1.079,1.079,0,0,1,.023-.3,1.738,1.738,0,0,1,1.473-1.537,1.108,1.108,0,0,1,1.176,1.037,1.125,1.125,0,0,1-.023.307" transform="translate(-80.825 -1.435)" fill="#e5e5e5"/>
              <path id="Path_27" data-name="Path 27" d="M128.555,58.83,93.6,60.458a1.586,1.586,0,0,1-1.653-1.516,1.547,1.547,0,0,1,.028-.377l.859-7.49a2.389,2.389,0,0,1,2.081-2.1l34.951-2.141a1.619,1.619,0,0,1,1.664,1.573,1.6,1.6,0,0,1-.038.4l-.859,7.86a2.393,2.393,0,0,1-2.081,2.166" transform="translate(-84.86 0.697)" fill="#e5e5e5"/>
              <path id="Path_28" data-name="Path 28" d="M104.72,53.266l-8.5.457a1.134,1.134,0,0,1-1.168-1.36,1.709,1.709,0,0,1,1.5-1.509l8.5-.488a1.142,1.142,0,0,1,1.191,1.091,1.173,1.173,0,0,1-.023.284,1.714,1.714,0,0,1-1.5,1.524" transform="translate(-83.994 1.689)" fill="#e5e5e5"/>
              <rect id="Rectangle_9" data-name="Rectangle 9" width="9.112" height="0.558" transform="matrix(0.999, -0.051, 0.051, 0.999, 10.958, 57.318)" fill="#e5e5e5"/>
              <rect id="Rectangle_10" data-name="Rectangle 10" width="0.557" height="2.398" transform="matrix(0.832, -0.554, 0.554, 0.832, 41.979, 51.735)" fill="#e5e5e5"/>
              <rect id="Rectangle_11" data-name="Rectangle 11" width="2.807" height="0.557" transform="matrix(0.637, -0.771, 0.771, 0.637, 41.538, 55.566)" fill="#e5e5e5"/>
              <path id="Path_29" data-name="Path 29" d="M107.745,51.552a1.691,1.691,0,0,1-1.473,1.507,1.131,1.131,0,0,1-1.176-1.085,1.118,1.118,0,0,1,.023-.277,1.7,1.7,0,0,1,1.472-1.507,1.13,1.13,0,0,1,1.177,1.08,1.154,1.154,0,0,1-.023.282" transform="translate(-81.169 1.64)" fill="#e5e5e5"/>
              <path id="Path_30" data-name="Path 30" d="M106.878,15.788a.7.7,0,0,1-.5-.2.83.83,0,0,1-.218-.69,1.144,1.144,0,0,1,.94-1.005.713.713,0,0,1,.594.2.834.834,0,0,1,.218.692,1.145,1.145,0,0,1-.94,1.005.741.741,0,0,1-.092.005m.315-1.537h-.051a.781.781,0,0,0-.614.678.466.466,0,0,0,.11.384.342.342,0,0,0,.291.092.781.781,0,0,0,.613-.678.471.471,0,0,0-.11-.384.335.335,0,0,0-.241-.088Z" transform="translate(-80.873 -8.555)" fill="#e5e5e5"/>
              <rect id="Rectangle_12" data-name="Rectangle 12" width="7.259" height="0.371" transform="matrix(0.994, -0.114, 0.114, 0.994, 28.94, 5.774)" fill="#e5e5e5"/>
              <path id="Path_31" data-name="Path 31" d="M98.122,24.423a1.715,1.715,0,0,1-1.24-.5,2.051,2.051,0,0,1-.52-1.688,2.959,2.959,0,0,1,2.425-2.562,1.733,1.733,0,0,1,1.446.484,2.052,2.052,0,0,1,.523,1.7,2.945,2.945,0,0,1-2.426,2.562c-.069.006-.138.009-.207.009M99,20.03a1.641,1.641,0,0,0-.178.01,2.57,2.57,0,0,0-2.1,2.235,1.678,1.678,0,0,0,.414,1.385,1.377,1.377,0,0,0,1.153.384,2.561,2.561,0,0,0,2.094-2.234,1.681,1.681,0,0,0-.418-1.393A1.336,1.336,0,0,0,99,20.035Z" transform="translate(-83.627 -6.933)" fill="#e5e5e5"/>
              <path id="Path_32" data-name="Path 32" d="M98.138,22.253a.609.609,0,0,1-.442-.181.709.709,0,0,1-.184-.585.959.959,0,0,1,.8-.839.618.618,0,0,1,.512.175.71.71,0,0,1,.184.587.957.957,0,0,1-.8.84.648.648,0,0,1-.07,0m.256-1.239h-.036a.592.592,0,0,0-.473.512.341.341,0,0,0,.079.282.257.257,0,0,0,.215.068.592.592,0,0,0,.471-.512.34.34,0,0,0-.079-.283.244.244,0,0,0-.184-.064Z" transform="translate(-83.3 -6.656)" fill="#e5e5e5"/>
              <path id="Path_33" data-name="Path 33" d="M98.043,23.227a1.327,1.327,0,0,1-.917-.35L97,22.764l.1-.128a1.711,1.711,0,0,1,1.167-.708,1.113,1.113,0,0,1,1.094.52l.079.128-.11.1a1.973,1.973,0,0,1-1.13.544c-.051,0-.1,0-.155,0m-.525-.512a1.029,1.029,0,0,0,.647.137,1.543,1.543,0,0,0,.788-.337.751.751,0,0,0-.64-.222,1.3,1.3,0,0,0-.794.419Z" transform="translate(-83.442 -6.298)" fill="#e5e5e5"/>
              <path id="Path_34" data-name="Path 34" d="M101.075,20.84l4.223-.446.04.369-4.224.446Z" transform="translate(-82.298 -6.726)" fill="#e5e5e5"/>
              <rect id="Rectangle_13" data-name="Rectangle 13" width="7.89" height="0.371" transform="matrix(0.995, -0.104, 0.104, 0.995, 18.625, 15.465)" fill="#e5e5e5"/>
              <path id="Path_35" data-name="Path 35" d="M123.327,22.159a.187.187,0,0,1-.187-.184v-.02l.091-.833a1.413,1.413,0,0,1-.979-.418,1.811,1.811,0,0,1-.459-1.488,2.5,2.5,0,0,1,2.018-2.207l2.03-.219a1.434,1.434,0,0,1,1.192.4,1.817,1.817,0,0,1,.461,1.5,2.5,2.5,0,0,1-2.02,2.209l-.68.07-1.351,1.142a.186.186,0,0,1-.119.045m.113-1.418a.186.186,0,0,1,.187.184v.022l-.065.585,1.041-.88a.183.183,0,0,1,.1-.042l.738-.077a2.11,2.11,0,0,0,1.689-1.881,1.453,1.453,0,0,0-.355-1.2,1.07,1.07,0,0,0-.89-.3l-2.03.219a2.117,2.117,0,0,0-1.689,1.878,1.439,1.439,0,0,0,.351,1.186,1.076,1.076,0,0,0,.9.3h.029Z" transform="translate(-76.485 -7.742)" fill="#e5e5e5"/>
              <path id="Path_36" data-name="Path 36" d="M108.584,80.426a2.616,2.616,0,0,1-1.963-.858,3.121,3.121,0,0,1-.73-2.46l1.516-13.489a3.843,3.843,0,0,1,3.413-3.43l12.354-.5a2.534,2.534,0,0,1,1.989.8,3.17,3.17,0,0,1,.758,2.528L124.405,76.81a3.768,3.768,0,0,1-3.42,3.416l-12.354.2Zm14.7-20.188H123.2l-12.354.5a3.273,3.273,0,0,0-2.883,2.936l-1.516,13.489a2.564,2.564,0,0,0,.589,2.024,2.058,2.058,0,0,0,1.588.675l12.354-.2a3.2,3.2,0,0,0,2.877-2.921l1.516-13.794a2.613,2.613,0,0,0-.611-2.086,1.983,1.983,0,0,0-1.474-.626Z" transform="translate(-80.954 4.304)" fill="#e5e5e5"/>
              <path id="Path_37" data-name="Path 37" d="M92.836,80.572a2.636,2.636,0,0,1-1.985-.863,3.014,3.014,0,0,1-.707-2.378L91.66,64.183a3.808,3.808,0,0,1,3.413-3.352l12.354-.5a2.561,2.561,0,0,1,2.013.809,3.062,3.062,0,0,1,.734,2.445l-1.516,13.448a3.728,3.728,0,0,1-3.42,3.338l-12.354.2ZM107.545,60.88h-.093l-12.354.5a3.232,3.232,0,0,0-2.883,2.859L90.7,77.392a2.424,2.424,0,0,0,.567,1.94,2.087,2.087,0,0,0,1.573.68h.038l12.354-.2a3.157,3.157,0,0,0,2.877-2.843l1.516-13.448a2.5,2.5,0,0,0-.589-2,2,2,0,0,0-1.488-.635Z" transform="translate(-85.374 4.485)" fill="#e5e5e5"/>
              <path id="Path_38" data-name="Path 38" d="M127.16,85.244l-.553-.061.371-3.358a2.673,2.673,0,0,0-.608-2.1,2.076,2.076,0,0,0-1.572-.68l-34.157.384v-.557L124.8,78.49h.032a2.61,2.61,0,0,1,1.958.863,3.224,3.224,0,0,1,.749,2.531Z" transform="translate(-85.227 9.586)" fill="#e5e5e5"/>
              <path id="Path_39" data-name="Path 39" d="M129.981,25.782a.885.885,0,0,1-.891-1.014l.6-4.894a1.128,1.128,0,0,1,1.089-.968.882.882,0,0,1,.89,1.013l-.6,4.894a1.127,1.127,0,0,1-1.087.97m.8-6.505a.749.749,0,0,0-.72.64l-.6,4.894a.534.534,0,0,0,.128.426.524.524,0,0,0,.4.172.747.747,0,0,0,.721-.64l.6-4.894a.53.53,0,0,0-.128-.426.524.524,0,0,0-.4-.173Z" transform="translate(-74.434 -7.144)" fill="#e5e5e5"/>
              <path id="Path_40" data-name="Path 40" d="M129.167,32.694a.882.882,0,0,1-.89-1.013l.6-4.894a1.128,1.128,0,0,1,1.089-.968.883.883,0,0,1,.893,1.013l-.6,4.894a1.129,1.129,0,0,1-1.091.968m.8-6.505a.749.749,0,0,0-.72.64l-.6,4.894a.534.534,0,0,0,.128.426.527.527,0,0,0,.4.172.747.747,0,0,0,.721-.64l.6-4.894a.534.534,0,0,0-.128-.426.523.523,0,0,0-.4-.172Z" transform="translate(-74.662 -5.203)" fill="#e5e5e5"/>
            </g>
          </g>
        </g>
        <path id="Path_41" data-name="Path 41" d="M85.878,26.657a74.755,74.755,0,0,0-8.749,2.69L74.5,21.864s.027-1.263.008-1.568c-.053-.829-.444-1.153-.948-1.194-.461-1.5-1.332-4.873-2.764-5.556a.543.543,0,0,0-.745.191.53.53,0,0,0-.059.142c-.32,1.692-1.349,2.312-1.025,4.42.264,1.744,1.73,3.074,1.7,4-.02.736-.33,12.025,3.691,13.549S85.7,34.311,85.7,34.311s2.563-8.009.183-7.654" transform="translate(19.346 3.782)" fill="#fff"/>
        <path id="Path_42" data-name="Path 42" d="M77.127,36.5a7.881,7.881,0,0,1-2.793-.443c-1.747-.662-2.918-3.091-3.479-7.218a43.023,43.023,0,0,1-.332-6.509,3.351,3.351,0,0,0-.629-1.443,7.021,7.021,0,0,1-1.073-2.523,4.591,4.591,0,0,1,.5-2.946,6.465,6.465,0,0,0,.532-1.529.7.7,0,0,1,.371-.476.767.767,0,0,1,.694.01c1.364.649,2.208,3.482,2.713,5.174.04.134.078.256.114.384.384.069.927.348.99,1.351.018.284,0,1.342-.006,1.55l2.562,7.274A69.669,69.669,0,0,1,85.9,26.521a.882.882,0,0,1,.843.291c1.135,1.336-.622,6.966-.826,7.6l-.026.082-.079.033a31.947,31.947,0,0,1-4.182,1.35,19.081,19.081,0,0,1-4.5.621M70.552,13.7a.357.357,0,0,0-.159.037.33.33,0,0,0-.175.214,6.783,6.783,0,0,1-.557,1.614,4.232,4.232,0,0,0-.471,2.743A6.732,6.732,0,0,0,70.214,20.7a3.5,3.5,0,0,1,.681,1.643c-.035,1.217-.227,11.932,3.571,13.371,3.7,1.4,10.321-1.18,11.118-1.5.549-1.741,1.706-6.185.871-7.172a.514.514,0,0,0-.506-.164,74.9,74.9,0,0,0-8.709,2.679l-.177.065-2.7-7.691V21.9c0-.013.026-1.259.008-1.552-.041-.649-.295-.982-.777-1.025l-.128-.01-.037-.12c-.046-.149-.1-.315-.15-.5-.455-1.527-1.3-4.367-2.517-4.946a.494.494,0,0,0-.206-.045Z" transform="translate(19.306 3.744)" fill="#3c3f54"/>
        <path id="Path_43" data-name="Path 43" d="M70.408,19.861l2.249-.068a.629.629,0,0,0,.607-.566l-1.548-7.87a.567.567,0,0,0-.751.283.476.476,0,0,0-.033.093l-.854,7.774a.322.322,0,0,0,.288.352h.042" transform="translate(19.676 3.175)" fill="#fff"/>
        <path id="Path_44" data-name="Path 44" d="M70.69,19.407l2.006.029c.315-.009.45-.014.48-.328l.67-6.422c.026-.256-.1-.36-.327-.479l-1.833-.825c-.2-.1-.35-.023-.373.2l-.873,7.557c-.019.186.055.265.25.265" transform="translate(19.777 3.184)" fill="#15b1ff"/>
        <path id="Path_45" data-name="Path 45" d="M72.9,19.095l.67-6.422c.026-.256-.095-.36-.325-.479l-1.833-.825c2.081,2.051,1.458,8.039,1.488,7.726" transform="translate(20.051 3.192)" fill="#17d3ff"/>
        <path id="Path_46" data-name="Path 46" d="M71.673,19.33a2.62,2.62,0,0,1,1.259-1.264c.256-.152-.537-1.956.406-2.5.64.056,1.333,2.083,1.174,2.818-.275,1.281-.786,2.895-.786,2.895l2.631,7.482-1.612,1.872" transform="translate(20.124 4.371)" fill="#fff"/>
        <path id="Path_47" data-name="Path 47" d="M74.773,30.8a.14.14,0,0,1-.105-.231l1.56-1.811-2.6-7.407a.149.149,0,0,1,0-.088c0-.017.512-1.619.784-2.882a4.066,4.066,0,0,0-.681-2.357.738.738,0,0,0-.329-.287c-.488.329-.374,1.125-.289,1.711.06.415.1.665-.074.768a2.481,2.481,0,0,0-1.2,1.2.14.14,0,0,1-.256-.113,2.758,2.758,0,0,1,1.3-1.318,2.143,2.143,0,0,0-.042-.5c-.092-.64-.232-1.612.467-2.017a.143.143,0,0,1,.082-.018.858.858,0,0,1,.569.406,4.261,4.261,0,0,1,.73,2.581c-.248,1.153-.692,2.594-.776,2.863l2.615,7.439a.14.14,0,0,1-.026.137l-1.613,1.872a.137.137,0,0,1-.108.046" transform="translate(20.094 4.339)" fill="#3c3f54"/>
        <path id="Path_48" data-name="Path 48" d="M82.726,31.345c.649-.421,1.241-.843,1.78-1.26l-.2-3.765a11.316,11.316,0,0,0-4.659,6.094,16.245,16.245,0,0,1,3.078-1.068" transform="translate(22.363 7.39)" fill="#2e2e2e"/>
        <path id="Path_49" data-name="Path 49" d="M79.575,32.355a.186.186,0,0,1-.152-.079,12.824,12.824,0,0,1-1.778-6.131c-.04-.359-.078-.7-.122-1.036a.186.186,0,0,1,.368-.047c.044.342.083.7.128,1.043a12.372,12.372,0,0,0,1.714,5.959.186.186,0,0,1-.152.292Z" transform="translate(21.767 6.995)" fill="#fff"/>
        <path id="Path_50" data-name="Path 50" d="M85.089,85.161c-.373-2.392,1.3-8.42,2.747-11.644-.9-.868-8.965,3.476-8.914,4.668-.076.981-.985,6.276-5.953,6.9,0,0-3.505,2.544,1.318,2.792,2.74.142,10.8-2.714,10.8-2.714" transform="translate(20.142 20.61)" fill="#fff"/>
        <path id="Path_51" data-name="Path 51" d="M74.535,88.1h-.216c-1.623-.083-2.5-.43-2.69-1.06-.272-.916,1.113-1.953,1.272-2.068l.038-.028h.047a6.008,6.008,0,0,0,4.672-3.22,9.36,9.36,0,0,0,1.118-3.5c-.012-1,3.74-3.12,5.763-4.037,1.921-.871,3.084-1.126,3.466-.758l.094.091-.054.119c-1.522,3.4-3.082,9.306-2.733,11.539l.024.152-.145.051c-.323.1-7.737,2.719-10.657,2.719m-1.454-2.8c-.393.295-1.259,1.087-1.1,1.634.128.441.966.724,2.353.8,2.478.128,9.5-2.276,10.588-2.655a18.745,18.745,0,0,1,.717-5.429,40.431,40.431,0,0,1,1.994-6,6.414,6.414,0,0,0-2.946.88c-2.962,1.344-5.569,3.185-5.546,3.7v.023A9.731,9.731,0,0,1,77.981,81.9,6.446,6.446,0,0,1,73.081,85.3Z" transform="translate(20.102 20.573)"/>
        <path id="Path_52" data-name="Path 52" d="M71.593,86.638H86.167a7.608,7.608,0,0,0,.02-3.978c-1.264-1.306-6.8,2.448-10.912,1.337-1.855-.5-1.491-1.436-1.491-1.436-2.188.62-4.949,1.31-4.934,2.159-.054.119.042.354.229.622a3.056,3.056,0,0,0,2.513,1.295" transform="translate(19.328 23.131)"/>
        <path id="Path_53" data-name="Path 53" d="M109.5,72.307a39.755,39.755,0,0,0-5.284-3.349c.256-1.226,1.686-5.479,3.468-5.915,3.4,2.866,5.379,2.641,5.561,2.656,5.065-.224,4.334,12.658,2.1,13.182-1.479.342-2.7-3.244-5.848-6.574" transform="translate(29.261 17.701)" fill="#fff"/>
        <path id="Path_54" data-name="Path 54" d="M115.185,79.134c-.875,0-1.621-1.1-2.705-2.69a30.941,30.941,0,0,0-3.074-3.97,39.93,39.93,0,0,0-5.238-3.313l-.12-.065.027-.128c.173-.847,1.573-5.56,3.607-6.058l.091-.023.073.06a9.307,9.307,0,0,0,5.36,2.612h.082c1.979-.083,3.384,1.783,3.842,5.123a17.855,17.855,0,0,1-.117,5.415c-.193,1.034-.654,2.8-1.582,3.015a1.127,1.127,0,0,1-.246.023M104.471,68.906a36.611,36.611,0,0,1,5.209,3.317,31.246,31.246,0,0,1,3.107,4.018c1.059,1.554,1.824,2.676,2.562,2.5,1.044-.245,1.935-4.253,1.415-8.018-.2-1.479-.949-4.912-3.468-4.8h-.088a9.563,9.563,0,0,1-5.524-2.636c-.68.222-1.409,1.1-2.1,2.536a16.611,16.611,0,0,0-1.109,3.076Z" transform="translate(29.214 17.657)"/>
        <path id="Path_55" data-name="Path 55" d="M113.962,74.964c.569-3.78-2.577-9.412-2.642-9.775-.013-.6,2.189-.353,3.183.64,1.5,1.5-.17,2.656,1.783,6.006a7.374,7.374,0,0,1-.73,8.471c-1.292,1.36-2.135,1.081-3.612-1.584-.3-.535-.592-1.1-.882-1.665-.081-.161,2.334,1.686,2.9-2.093" transform="translate(31.183 18.213)"/>
        <path id="Path_56" data-name="Path 56" d="M107.777,29.652a5.147,5.147,0,0,0-.446-1,6.35,6.35,0,0,0-.631-.889,7.43,7.43,0,0,0-1.639-1.409,8.128,8.128,0,0,0-1.942-.913,7.144,7.144,0,0,0-1.86-.433,11.379,11.379,0,0,1,1.385.114,6.172,6.172,0,0,1,1.853.585,7.844,7.844,0,0,1,.849.5c.274.186.537.384.8.6a6.7,6.7,0,0,0-.707-.72,5.785,5.785,0,0,0-.826-.593,5.27,5.27,0,0,0-.927-.434,5.921,5.921,0,0,0-1-.248,9.884,9.884,0,0,0-2.022-.063c-.667.032-1.327.079-2,.068-2.024-.172-3.714-.633-3.691-3.184.009-1.025.031-1.3.055-.794a3.262,3.262,0,0,0,.435,1.537l.051.087.055.085c.036.056.077.11.117.164a3.485,3.485,0,0,0,.264.3,3.259,3.259,0,0,0,.3.269,3.622,3.622,0,0,0,.325.229,3.035,3.035,0,0,0,1.483.471,3.478,3.478,0,0,1-1.665-.865,3.152,3.152,0,0,1-.256-.268,3.208,3.208,0,0,1-.419-.611,2.946,2.946,0,0,1-.256-.688,3.354,3.354,0,0,1-.1-.731c-.01-.263-.032-.526-.064-.789q.038.179.073.357l.088.457a3.949,3.949,0,0,0,.128.464,3.547,3.547,0,0,0,.184.446,3.175,3.175,0,0,0,.245.418,3.649,3.649,0,0,0,1.46,1.219,5.679,5.679,0,0,0,1.812.493,7.825,7.825,0,0,0,.932.045,6.819,6.819,0,0,0,.927-.072,3.976,3.976,0,0,1-.462,0c-.154-.009-.309-.009-.461-.02a8.419,8.419,0,0,1-.913-.11,5.936,5.936,0,0,1-1.725-.561A3.521,3.521,0,0,1,96.265,22a3.354,3.354,0,0,1-.384-.8,3.86,3.86,0,0,1-.117-.429l-.085-.452a8.49,8.49,0,0,0-.485-1.81c-1.153-2.638-3.162-3.269-4.1-3.2,0,0-3.65,7.961.056,13.613,4.114,6.276,13.064,8.174,15.234,4.184a4.967,4.967,0,0,0-.9-6.123,8.692,8.692,0,0,1,.982.972,6.466,6.466,0,0,1,.616.838,5.932,5.932,0,0,1,.47.926,5.625,5.625,0,0,1,.384,2.057,4.409,4.409,0,0,0-.165-2.127" transform="translate(25.127 4.298)"/>
        <path id="Path_57" data-name="Path 57" d="M79.428,38.839c-1.025.679.256,2.847,2.372,3.865s14.578,2.842,21.123,1.865C106.7,44.1,88.99,36.1,85.692,36.756a29.017,29.017,0,0,0-6.264,2.083" transform="translate(22.2 10.31)" fill="#2e2e2e"/>
        <path id="Path_58" data-name="Path 58" d="M76.786,89.478a.608.608,0,0,1-.479-.692A114.564,114.564,0,0,0,77.367,64.1c-1.153-13.465,5.986-26.839,6.368-27.357,14.551,0,16.069,6.139,16.069,6.139-.72,2.049-6.889,13.127-9.953,19.7A12.4,12.4,0,0,0,88.688,68a123.583,123.583,0,0,1-1.837,20.649.607.607,0,0,1-.374.461c-4.453,1.77-6.786.955-9.692.364" transform="translate(21.423 10.316)"/>
        <path id="Path_59" data-name="Path 59" d="M81.5,90.413a17.532,17.532,0,0,1-3.842-.529c-.286-.061-.574-.128-.867-.184a.793.793,0,0,1-.625-.9A113.893,113.893,0,0,0,77.222,64.16a48.179,48.179,0,0,1,2.617-18.607,50.435,50.435,0,0,1,3.787-8.876l.056-.076h.094c7.566,0,11.569,1.687,13.6,3.1a6.217,6.217,0,0,1,2.651,3.176l.014.054-.018.053C99.661,44.011,97.971,47.249,96,51c-2.057,3.924-4.388,8.372-5.94,11.7a12.276,12.276,0,0,0-1.146,5.347,123.887,123.887,0,0,1-1.839,20.685.8.8,0,0,1-.488.6,13.523,13.523,0,0,1-5.087,1.08m-4.634-1.077c.3.06.585.128.872.186a12.68,12.68,0,0,0,8.709-.539.425.425,0,0,0,.256-.32,123.526,123.526,0,0,0,1.834-20.621,12.658,12.658,0,0,1,1.181-5.507c1.556-3.336,3.888-7.79,5.948-11.718,1.921-3.668,3.586-6.846,3.978-7.9a6.262,6.262,0,0,0-2.524-2.937c-1.976-1.367-5.877-3-13.247-3.011a52.132,52.132,0,0,0-3.686,8.7,47.811,47.811,0,0,0-2.6,18.459,114.4,114.4,0,0,1-1.062,24.733.422.422,0,0,0,.333.48Z" transform="translate(21.382 10.277)"/>
        <path id="Path_60" data-name="Path 60" d="M83.858,36.825c.246,9.278,2.336,28.542,7.487,32.231,3.842,2.754,13.008,7.2,18.053,9.808,3.938,2.035,5.993-7.044,4.763-8.069s-8.837-9.213-14.7-9.3c4.985-13.814-2.384-20.827-7.259-23.6a9.584,9.584,0,0,0-8.348-1.068" transform="translate(23.545 10.197)"/>
        <path id="Path_61" data-name="Path 61" d="M110.557,79.382a2.622,2.622,0,0,1-1.205-.314c-.994-.512-2.158-1.1-3.39-1.728a143.8,143.8,0,0,1-14.685-8.095c-2.888-2.068-4.671-8.828-5.657-14.136a126.354,126.354,0,0,1-1.907-18.241v-.128l.128-.046a9.778,9.778,0,0,1,8.5,1.085c3.954,2.253,12.552,9.047,7.429,23.589,5.04.269,11.281,6.228,13.656,8.5.421.4.725.692.9.835.927.768.231,4.811-1.2,6.979a3.189,3.189,0,0,1-2.565,1.7M84.087,36.988a125.9,125.9,0,0,0,1.9,18.049c1.4,7.514,3.3,12.322,5.507,13.9a143.873,143.873,0,0,0,14.637,8.069c1.232.625,2.4,1.215,3.393,1.73.833.429,2.076.558,3.284-1.269,1.483-2.244,1.935-5.942,1.281-6.488-.183-.151-.491-.446-.918-.853-2.386-2.278-8.725-8.325-13.662-8.4h-.256l.088-.245c2.177-6.032,2.2-11.346.076-15.8A17.617,17.617,0,0,0,92.161,38.1a9.35,9.35,0,0,0-8.074-1.107Z" transform="translate(23.504 10.158)"/>
        <path id="Path_62" data-name="Path 62" d="M71.512,35.128a24.289,24.289,0,0,1-2.574-6.916l.364-.072a23.95,23.95,0,0,0,2.536,6.8Z" transform="translate(19.356 7.901)" fill="#fff"/>
        <path id="Path_63" data-name="Path 63" d="M68.31,30.293a22.746,22.746,0,0,1-.41-4.28h.37a22.327,22.327,0,0,0,.4,4.21Z" transform="translate(19.065 7.304)" fill="#fff"/>
        <path id="Path_64" data-name="Path 64" d="M93.921,31.844c.219,2.517,2.433,4.307,3.786,7.617-1.1-3.066-2.229-6.39-2.229-6.39s.882-1.477-1.557-1.227" transform="translate(26.371 8.933)" fill="#2e2e2e"/>
        <path id="Path_65" data-name="Path 65" d="M93.086,25.577c2.522-1.059,12.89,2.8,16.352,13.652a21.1,21.1,0,0,1-.671,13.96c-1.256,2.6-2.81,4.665-4.257,4.446-1.989-.3-.128-2.478-.429-4.211-.155-.885-1.051,1.23-2.1.287-.2-.179,1.6-2.709,1.957-3.714a13.708,13.708,0,0,0,.051-8.362c-1.1-3.805-5.169-6.129-9.6-8.682-3.146-1.815-1.3-7.375-1.3-7.375" transform="translate(25.986 7.134)" fill="#fff"/>
        <path id="Path_66" data-name="Path 66" d="M104.762,57.872a1.662,1.662,0,0,1-.24-.018,1.252,1.252,0,0,1-.926-.5c-.309-.474-.118-1.171.083-1.908a4.713,4.713,0,0,0,.256-1.958.153.153,0,0,0-.01-.046,2.553,2.553,0,0,0-.247.192c-.4.334-1.064.9-1.785.247-.2-.182-.05-.476.811-1.9a15.308,15.308,0,0,0,1.1-2.007,13.555,13.555,0,0,0,.047-8.248c-1.064-3.7-5.115-6.038-9.4-8.511l-.109-.063c-1.35-.779-2.015-2.348-1.921-4.537a12.4,12.4,0,0,1,.537-3.057l.027-.081.078-.032c1.068-.448,3.231-.058,5.507,1a20.5,20.5,0,0,1,6.223,4.512,21.323,21.323,0,0,1,4.867,8.26,20.628,20.628,0,0,1,.734,8.627,18.823,18.823,0,0,1-1.409,5.465c-1.792,3.705-3.248,4.567-4.216,4.567m-.794-4.821a.314.314,0,0,1,.1.018.437.437,0,0,1,.234.357,5.032,5.032,0,0,1-.266,2.12c-.179.654-.347,1.273-.128,1.609a.914.914,0,0,0,.67.332c1.16.177,2.644-1.409,4.063-4.343a20.365,20.365,0,0,0-4.118-21.936,20.14,20.14,0,0,0-6.109-4.43C96,25.664,94.122,25.464,93.28,25.753c-.207.689-1.529,5.473,1.246,7.072l.109.063c4.355,2.512,8.468,4.882,9.575,8.73a13.763,13.763,0,0,1-.054,8.475,14.836,14.836,0,0,1-1.128,2.075,12.125,12.125,0,0,0-.824,1.482c.423.33.8.072,1.242-.3a.981.981,0,0,1,.521-.3" transform="translate(25.945 7.093)" fill="#3c3f54"/>
        <path id="Path_67" data-name="Path 67" d="M109.953,34.954l.1-.1.07-.076.1-.109.064-.072.1-.118.054-.063c.045-.053.087-.105.128-.158l.018-.02c.047-.06.093-.119.138-.179l.04-.054.091-.128.046-.068c.026-.037.051-.074.074-.11l.046-.073.05-.078v-.008c.046-.076.091-.152.128-.228l-.169-.187-.008-.01-.1-.11-.187-.2-.191-.2-.187-.2-.19-.2-.187-.191-.19-.19-.187-.186-.19-.184-.186-.178-.19-.178-.186-.173-.188-.172-.186-.166-.188-.167-.186-.161-.187-.16-.184-.155-.187-.155-.183-.15-.187-.15-.182-.145L106.8,29.2l-.181-.14-.184-.138-.182-.128-.183-.128-.181-.128-.183-.128-.181-.128-.181-.128-.179-.12-.181-.118-.178-.115-.179-.113-.177-.11-.178-.109-.174-.105-.178-.105-.174-.1-.177-.1-.172-.1-.175-.1-.17-.091-.174-.091-.169-.087-.173-.087-.168-.083-.17-.083-.166-.079-.169-.079-.165-.076-.168-.076-.161-.072-.168-.072-.16-.068-.165-.068-.159-.064-.163-.064-.158-.061-.161-.06-.155-.058-.159-.058-.154-.055-.156-.054-.151-.051-.156-.051-.147-.049L99,25.079l-.147-.046-.151-.045-.143-.042-.15-.042-.141-.04-.147-.04-.14-.037-.143-.037-.137-.035-.142-.035-.128-.032-.141-.032-.128-.029-.137-.029L96.9,24.53l-.128-.027-.128-.026-.128-.026-.128-.023-.128-.023-.122-.022-.128-.022-.119-.02-.128-.019-.118-.018-.119-.018-.115-.017-.119-.017-.108-.015-.122-.015-.1-.013-.117-.014-.1-.012-.113-.013-.1-.01-.114-.012-.09-.009-.113-.012-.083-.008-.114-.01L93.95,24.1l-.108-.009-.076-.006-.092-.008-.083-.006-.106-.008h-.06l-.109-.008H93.2l-.17-.013h-.077l-.128-.009H92.8l-.111-.008-.128-.01a16.779,16.779,0,0,0-1.9-.042,3.328,3.328,0,0,0,.087-.371c-4.33-.329-4.05-.963-13.535,1.774a.365.365,0,0,0-.264.352,15.367,15.367,0,0,0,2.056,7.842.363.363,0,0,0,.461.134c.4-.187,1.178-.542,2-.863a5.863,5.863,0,0,0-.115,1.724c.21,2.378,1.652,4.443-1.332,8.062,4.727-2.358,20.172,2.938,23.493,5.73.587.493,1.474-.248.785-1.68-.768-1.6-3.644-9.984-4.017-11.075,1.46,1.233,3.488,2.959,4.143,3.577a.388.388,0,0,0,.053.041.8.8,0,0,1,.161.186l.5-.392.047-.037.2-.155.082-.064.165-.128.092-.072.211-.164.158-.128.11-.086.128-.1.11-.086.128-.105.108-.085.128-.1.106-.085.128-.1.106-.085.128-.1.1-.083.128-.106.1-.079.142-.115.083-.068.173-.142.051-.042.219-.183.06-.053.154-.128.078-.068.128-.115.085-.074.122-.108.087-.078.114-.1.086-.079.111-.1.085-.079.106-.1.082-.079.1-.1.081-.079.1-.1Z" transform="translate(21.606 6.542)" fill="#ffc72c"/>
        <path id="Path_68" data-name="Path 68" d="M103.95,48.722a.8.8,0,0,1-.512-.2c-1.665-1.4-6.355-3.4-11.152-4.759-5.69-1.611-10.118-1.956-12.14-.946l-.781.384.556-.674a6.427,6.427,0,0,0,1.543-6.4,13.685,13.685,0,0,1-.256-1.525,5.8,5.8,0,0,1,.056-1.443c-.7.284-1.337.575-1.678.734a.547.547,0,0,1-.7-.2,15.654,15.654,0,0,1-2.084-7.941.548.548,0,0,1,.4-.533c8.084-2.332,9.126-2.225,11.911-1.938.488.05,1.041.108,1.694.158l.2.015-.029.2s-.009.056-.029.152a16.609,16.609,0,0,1,1.675.05l2.526.228,1.217.188,1.036.213.569.137.115.029.581.16.118.035.058.017.128.037.173.054.128.041.478.159.14.047.17.061.143.053.181.068.137.053.152.06.018.008.151.06.138.056.035.014.154.064.128.054.049.02.155.067.141.063.022.01.17.076.164.076.173.081.168.081.172.083.156.078.024.012.163.082.142.073.028.015.175.092.159.086.024.013.165.091.173.1h.012l.167.095.163.095.013.006.179.105.165.1.024.015.166.1.178.111.013.008.168.106.165.106.013.009.182.119.159.106.02.015.183.128.181.128.184.128.182.128.184.128.182.134.187.14.183.14.187.146.184.145.187.15.186.151.188.156.186.156.188.161.187.163.19.168.186.168.19.173.187.173.191.179.187.179.191.184.188.186.191.191.188.192.191.2.188.2.192.2.188.2.173.19.109.12.087.1-.063.115c-.037.069-.079.142-.128.228l-.01.018-.035.055-.029.047-.033.053-.07.1-.055.081-.092.128-.04.055c-.046.061-.092.128-.141.183l-.017.022c-.044.054-.087.108-.127.161l-.054.063-.1.119-.074.083-.091.1-.073.077-.1.105-.077.081-.1.1-.081.081-.1.1-.083.081-.108.1-.282.265-.115.105-.088.079-.122.108-.086.074-.128.117-.078.068-.155.128-.061.053-.22.183-.051.042-.174.143-1.965,1.555-.747.583-.5.391-.256.2-.038-.283c-.015-.018-.045-.051-.1-.108a.58.58,0,0,1-.061-.05c-.574-.542-2.193-1.921-3.622-3.137.768,2.245,3.112,9.013,3.79,10.419.48,1,.242,1.665-.109,1.94a.73.73,0,0,1-.479.175M83.372,41.883A37.092,37.092,0,0,1,92.39,43.41c4.84,1.37,9.588,3.4,11.289,4.832a.374.374,0,0,0,.5.028c.256-.2.362-.74,0-1.486-.777-1.614-3.7-10.13-4.025-11.1l-.216-.64.512.433c1.537,1.3,3.5,2.971,4.151,3.586a.2.2,0,0,0,.026.02l.029.024.059.059.353-.279,2.706-2.134.172-.141.051-.042.218-.182.06-.051.154-.128.078-.068.128-.114.085-.074.12-.106.087-.078.114-.1.278-.256.105-.1.082-.079.1-.1.078-.079.1-.1.076-.078.1-.1.07-.076.087-.1.072-.081.1-.115.053-.061c.044-.051.085-.1.128-.155l.017-.02c.046-.059.091-.117.134-.175l.038-.053.088-.128.051-.076.065-.1.061-.1.027-.042v-.01l.065-.11-.017-.019-.172-.188-.187-.2-.19-.2-.186-.2-.19-.195-.186-.19L109.693,32l-.186-.184-.188-.183-.184-.177-.188-.178-.184-.172-.187-.172-.184-.165L108.2,30.6l-.184-.16-.186-.159-.183-.155-.186-.154-.182-.149-.186-.149-.182-.143-.186-.143-.181-.138-.184-.137-.181-.128L106,28.859l-.179-.128-.182-.128-.178-.128-.181-.122-.022-.015-.156-.1-.179-.117-.013-.009L104.749,28l-.167-.105-.013-.008-.174-.109-.164-.1-.024-.015-.161-.1-.177-.1-.012-.006-.16-.093-.164-.093h-.012l-.17-.095-.163-.09-.023-.013-.156-.085-.173-.091-.028-.014-.14-.072-.16-.081-.023-.012-.154-.077-.169-.082L102,26.483l-.166-.078-.164-.076-.164-.073-.024-.012-.138-.061-.152-.065-.049-.02-.128-.053-.151-.061-.035-.014-.136-.055-.149-.059h-.013l-.155-.06-.134-.051-.178-.067-.142-.051-.168-.06-.136-.047-.471-.156-.128-.04-.172-.054-.119-.036-.058-.018-.115-.033-.573-.158-.113-.029-1.141-.256-1.306-.225-1.451-.165-1.387-.106A16.4,16.4,0,0,0,90.7,24.2l-.256.009.068-.245c.017-.058.029-.109.041-.154-.567-.046-1.057-.1-1.493-.142-2.729-.282-3.75-.384-11.766,1.921a.179.179,0,0,0-.128.172A15.281,15.281,0,0,0,79.2,33.508a.177.177,0,0,0,.225.065c.394-.184,1.181-.543,2.011-.867l.32-.128-.07.336a5.6,5.6,0,0,0-.111,1.665,13.188,13.188,0,0,0,.246,1.484,6.589,6.589,0,0,1-1.2,6.169,9.324,9.324,0,0,1,2.75-.351Z" transform="translate(21.565 6.494)"/>
        <path id="Path_69" data-name="Path 69" d="M87.123,28.745a2.93,2.93,0,0,1-2.348-.866C84,26.9,84.622,25.43,86.441,23.94a.186.186,0,0,1,.234.287c-1.642,1.345-2.244,2.624-1.61,3.421.856,1.076,4.037,1.142,7.075-1.2,1.336-1.032,1.363-1.753,1.191-1.992a.187.187,0,0,1,.036-.256.183.183,0,0,1,.256.029.88.88,0,0,1,.14.648,3.141,3.141,0,0,1-1.4,1.866,8.968,8.968,0,0,1-5.243,2" transform="translate(23.711 6.713)" fill="#fff"/>
        <path id="Path_70" data-name="Path 70" d="M102.536,50.673a.139.139,0,0,1-.115-.218,7.768,7.768,0,0,0,1.373-2.676.14.14,0,0,1,.277.035,7.742,7.742,0,0,1-1.418,2.8.141.141,0,0,1-.117.061" transform="translate(28.75 13.384)" fill="#3c3f54"/>
        <path id="Path_71" data-name="Path 71" d="M101.625,50.772a.141.141,0,0,1-.138-.141.139.139,0,0,1,.027-.081,9,9,0,0,0,1.619-3.162.14.14,0,0,1,.273.054,9.085,9.085,0,0,1-1.665,3.274.141.141,0,0,1-.115.056" transform="translate(28.495 13.277)" fill="#3c3f54"/>
        <path id="Path_72" data-name="Path 72" d="M103.979,49.1a.139.139,0,0,1-.138-.141.141.141,0,0,1,.02-.072,13.547,13.547,0,0,0,.708-1.281.142.142,0,1,1,.256.12,13.844,13.844,0,0,1-.722,1.3.139.139,0,0,1-.124.072" transform="translate(29.156 13.345)" fill="#3c3f54"/>
        <path id="Path_73" data-name="Path 73" d="M92.8,20.463a5.554,5.554,0,0,1-.459,1.969,3.047,3.047,0,0,0,.488,2.939l.023.033c.216.35-.168,1.714-1.83,2.458-5.251,2.348-7.856.256-4.611-2.506,1.4-1.18,1.353-1.821,2.367-3.929Z" transform="translate(23.86 5.746)" fill="#fff"/>
        <path id="Path_74" data-name="Path 74" d="M87.088,29.057a2.306,2.306,0,0,1-2.034-.794c-.482-.768,0-1.874,1.292-2.974a5.332,5.332,0,0,0,1.7-2.485c.169-.394.36-.843.628-1.4l.028-.06,4.259-1.025V20.5a5.719,5.719,0,0,1-.467,2.019,2.906,2.906,0,0,0,.467,2.8c.012.014.02.029.031.044a.958.958,0,0,1,0,.743,3.271,3.271,0,0,1-1.9,1.921,10.461,10.461,0,0,1-3.935,1.025ZM88.9,21.585c-.256.524-.433.95-.594,1.328a5.6,5.6,0,0,1-1.78,2.588c-1.176,1-1.638,1.979-1.237,2.613a2.109,2.109,0,0,0,1.876.663,10.2,10.2,0,0,0,3.826-1,2.987,2.987,0,0,0,1.746-1.743.736.736,0,0,0,.024-.512l-.015-.022a3.186,3.186,0,0,1-.512-3.074,5.942,5.942,0,0,0,.444-1.742Z" transform="translate(23.83 5.706)" fill="#3c3f54"/>
        <path id="Path_75" data-name="Path 75" d="M87.405,22.71a6.066,6.066,0,0,0,2.326-.8L88,21.369c-.251.534-.434.968-.594,1.341" transform="translate(24.541 6)" fill="#2e2e2e"/>
        <path id="Path_76" data-name="Path 76" d="M92.14,16.319a4.144,4.144,0,0,0-1.048-.434,3.476,3.476,0,0,0-.551-.09,3.372,3.372,0,0,0-.557,0,3.465,3.465,0,0,0-.551.083,3.83,3.83,0,0,0-1.52.724,2.651,2.651,0,0,1,.918-.711,3.16,3.16,0,0,1,.553-.206,3.458,3.458,0,0,1,.584-.1,3.165,3.165,0,0,1,.593.013,2.894,2.894,0,0,1,.578.128,2.8,2.8,0,0,1,1,.593" transform="translate(24.684 4.374)" fill="#3c3f54"/>
        <path id="Path_77" data-name="Path 77" d="M92.879,16.883a2.921,2.921,0,0,0-5.251,1.449c-.136,2.582,5.251-1.449,5.251-1.449" transform="translate(24.603 4.409)" fill="#3c3f54"/>
        <path id="Path_78" data-name="Path 78" d="M91.654,23.55c-2.049.7-4.843-.318-5.091-1.474-.456-2.121,1.834-5,3.888-5.689s2.955.128,3.655,2.177a3.926,3.926,0,0,1-2.451,4.985h0" transform="translate(24.288 4.533)" fill="#fff"/>
        <path id="Path_79" data-name="Path 79" d="M90.211,23.952a5.8,5.8,0,0,1-2.723-.675,1.936,1.936,0,0,1-1.032-1.137c-.464-2.157,1.848-5.123,3.979-5.851a2.687,2.687,0,0,1,2.457.072,4.009,4.009,0,0,1,1.374,2.193,4.072,4.072,0,0,1-2.539,5.163,4.692,4.692,0,0,1-1.516.236m1.537-7.639a3.841,3.841,0,0,0-1.223.238c-2.392.815-4.166,3.805-3.8,5.529a1.683,1.683,0,0,0,.9.954,5.312,5.312,0,0,0,4.013.416,4.1,4.1,0,0,0,1.1-6.859,1.75,1.75,0,0,0-.987-.279Z" transform="translate(24.258 4.5)" fill="#3c3f54"/>
        <path id="Path_80" data-name="Path 80" d="M90.109,19.189a.137.137,0,0,1-.117-.063,2.033,2.033,0,0,0-.913-.749.14.14,0,1,1,.055-.274.178.178,0,0,1,.024.008,2.27,2.27,0,0,1,1.067.863.139.139,0,0,1-.038.192h0a.139.139,0,0,1-.077.023" transform="translate(24.98 5.082)" fill="#3c3f54"/>
        <path id="Path_81" data-name="Path 81" d="M89.6,16.352c-.783,1.911,1.136,3.278.8,4.849.242.339,1.341-.291,1.409.657a1.124,1.124,0,0,1-1.141,1.108h-.029c.241.581,0,3.222.5,3.313,1.929.353,4.528-6.105,2.9-8.752A4.808,4.808,0,0,0,91.5,15.369a1.645,1.645,0,0,0-1.9.984" transform="translate(25.104 4.303)"/>
        <path id="Path_82" data-name="Path 82" d="M88.038,17.9a.543.543,0,0,1,.147.569s-.027-.269-.154-.172-.3.137-.277-.06a1.38,1.38,0,0,1,.128-.275c-.067-.314.083-.41.083-.41a.57.57,0,0,0,.072.348" transform="translate(24.639 4.928)" fill="#3c3f54"/>
        <path id="Path_83" data-name="Path 83" d="M89.363,19.286a.483.483,0,0,1,.128.5c-.119.044,0-.273-.168-.174,0,0-.152.142-.256.1-.289-.11.035-.512.024-.539a.635.635,0,0,1,0-.475,1.183,1.183,0,0,0,.272.584" transform="translate(24.974 5.251)" fill="#3c3f54"/>
        <path id="Path_84" data-name="Path 84" d="M87.43,19.7a2.038,2.038,0,0,0,1.344,1.168c.222.02.3.128.035.256-.092.042-.128.042-.158.02a.066.066,0,0,1,.04-.113c.309-.081-.2-.008-.492.065a1.016,1.016,0,0,1-1.177-.483.521.521,0,0,1,.045-.475c.045-.063.128-.128.142-.207.026-.158-.187-.46-.006-.573.067-.041.068.053.228.341" transform="translate(24.423 5.434)" fill="#ff5963"/>
        <path id="Path_85" data-name="Path 85" d="M88.336,20.784s-.824.006-1.062-.347a.479.479,0,0,1-.01-.558,2.565,2.565,0,0,0,1.072.906" transform="translate(24.478 5.582)" fill="#fff"/>
        <path id="Path_86" data-name="Path 86" d="M87.808,20.333a.138.138,0,0,1-.106-.05c-.04-.049-.392-.48-.3-.821a.434.434,0,0,1,.287-.3c.284-.108,1.192-.67,1.126-1.125a4.112,4.112,0,0,0-.284-.829.141.141,0,0,1,.256-.117A4.338,4.338,0,0,1,89.09,18c.1.67-.986,1.305-1.3,1.424-.087.033-.109.077-.117.108-.041.159.149.453.247.573a.14.14,0,0,1-.019.2.135.135,0,0,1-.087.032Z" transform="translate(24.535 4.777)" fill="#3c3f54"/>
        <path id="Path_87" data-name="Path 87" d="M90.847,21.556a5.181,5.181,0,0,1,.141,1.34,4.716,4.716,0,0,1-.22,1.347,3.324,3.324,0,0,1-.676,1.2,2.525,2.525,0,0,1-1.139.736,3.8,3.8,0,0,0,.925-.909,4.233,4.233,0,0,0,.558-1.137,7.192,7.192,0,0,0,.279-1.26c.06-.43.092-.871.132-1.318" transform="translate(24.976 6.053)" fill="#3c3f54"/>
        <path id="Path_88" data-name="Path 88" d="M90.985,21.709c.031.2.068.393.082.589.01.1.018.2.024.295l.012.293a9.34,9.34,0,0,1-.553,3.222c-.073.177-.149.352-.225.526l-.232.519a12.908,12.908,0,0,0-.539,1.2,3.534,3.534,0,0,0-.118.54,2.48,2.48,0,0,0-.018.56,3.236,3.236,0,0,0,.332,1.146,3.014,3.014,0,0,1-.543-1.153,2.932,2.932,0,0,1,.013-1.19,6.755,6.755,0,0,1,.35-1.1c.141-.355.293-.7.434-1.052a11.91,11.91,0,0,0,.982-4.4Z" transform="translate(25.032 6.095)" fill="#3c3f54"/>
        <path id="Path_89" data-name="Path 89" d="M91.8,20.577c.031.2.068.393.082.589.01.1.018.2.024.295l.012.293a9.371,9.371,0,0,1-.553,3.222q-.11.265-.225.526l-.232.52a12.908,12.908,0,0,0-.539,1.2,3.693,3.693,0,0,0-.118.54,2.48,2.48,0,0,0-.018.56,3.236,3.236,0,0,0,.332,1.146,3.015,3.015,0,0,1-.543-1.153,2.938,2.938,0,0,1,.013-1.191,6.924,6.924,0,0,1,.35-1.1c.141-.355.288-1.409.43-1.752.289-.7.538-.7.7-1.436a13.15,13.15,0,0,0,.284-2.259" transform="translate(25.262 5.778)" fill="#3c3f54"/>
        <path id="Path_90" data-name="Path 90" d="M90.565,21.763a.366.366,0,1,1,.06-.515v0a.367.367,0,0,1-.061.512" transform="translate(25.262 5.927)" fill="#fff"/>
        <path id="Path_91" data-name="Path 91" d="M97.913,36.606a.186.186,0,0,1-.106-.338,27.846,27.846,0,0,0,5.813-5.34.186.186,0,0,1,.31.2,18.177,18.177,0,0,1-3.568,3.649c-1.258,1.036-2.334,1.784-2.344,1.793a.191.191,0,0,1-.105.032" transform="translate(27.439 8.663)" fill="#fff"/>
        <path id="Path_92" data-name="Path 92" d="M78.119,77.229a.391.391,0,0,1-.055,0,13.349,13.349,0,0,1-1.793-.476.278.278,0,1,1,.192-.523,13.086,13.086,0,0,0,1.718.452.278.278,0,0,1-.055.551Z" transform="translate(21.364 21.399)" fill="#5c63c6"/>
        <path id="Path_93" data-name="Path 93" d="M81.061,77.717a18.368,18.368,0,0,1-2.4-.158.278.278,0,0,1,.073-.552,16.076,16.076,0,0,0,8.8-1.219.278.278,0,1,1,.234.5,15.911,15.911,0,0,1-6.71,1.424" transform="translate(22.018 21.272)" fill="#5c63c6"/>
        <g id="Group_13" data-name="Group 13" transform="translate(10.85 0)" opacity="0.5">
          <g id="Group_12" data-name="Group 12" transform="translate(0 0)">
            <g id="Group_11" data-name="Group 11" clip-path="url(#clip-path-5)">
              <path id="Path_94" data-name="Path 94" d="M86.952,7.636h-2.48a.186.186,0,0,1-.186-.186.171.171,0,0,1,.008-.051,2.25,2.25,0,0,0-.248-1.815,2.077,2.077,0,0,0-1.908-.461.184.184,0,0,1-.206-.163.192.192,0,0,1,0-.06c0-.026.512-2.542-.6-3.795A2.5,2.5,0,0,0,79.11.419c-2.868.273-4.182,3.859-4.2,3.895a.185.185,0,0,1-.1.106.189.189,0,0,1-.145,0c-.027-.01-2.681-1.025-3.808.152-.882.918.328,2.752.341,2.77a.186.186,0,0,1-.05.257.194.194,0,0,1-.105.032H62.324a.186.186,0,0,1,0-.371h8.4c-.341-.613-.984-2.049-.128-2.946,1.128-1.173,3.385-.524,4.034-.3a8.682,8.682,0,0,1,1-1.775A4.913,4.913,0,0,1,79.07.045,2.845,2.845,0,0,1,81.6.854a5.1,5.1,0,0,1,.731,3.871,2.253,2.253,0,0,1,1.989.615A2.381,2.381,0,0,1,84.7,7.261h2.249a.186.186,0,1,1,0,.371Z" transform="translate(6.597 0)" fill="#e5e5e5"/>
              <path id="Path_95" data-name="Path 95" d="M79.6,7.074H76.582a.186.186,0,0,1,0-.371H79.6a.186.186,0,0,1,0,.371" transform="translate(10.6 1.882)" fill="#e5e5e5"/>
              <path id="Path_96" data-name="Path 96" d="M66.914,4.911H63.892a.186.186,0,0,1,0-.371h3.023a.186.186,0,1,1,0,.371" transform="translate(7.037 1.275)" fill="#e5e5e5"/>
              <path id="Path_97" data-name="Path 97" d="M38.59,32.88h-3a.278.278,0,0,1-.278-.278.227.227,0,0,1,.01-.077,2.666,2.666,0,0,0-.291-2.15,2.464,2.464,0,0,0-2.264-.54.278.278,0,0,1-.31-.242.272.272,0,0,1,0-.091c0-.031.621-3.056-.717-4.552a2.978,2.978,0,0,0-2.647-.813,5.387,5.387,0,0,0-3.8,2.44,9.9,9.9,0,0,0-1.235,2.244.278.278,0,0,1-.355.169l-.008,0c-.032-.013-3.215-1.223-4.556.172-1.043,1.085.4,3.269.419,3.29a.278.278,0,0,1-.231.434H8.75a.279.279,0,1,1,0-.557H18.836c-.425-.793-1.13-2.485-.1-3.553,1.361-1.417,4.046-.68,4.9-.4a10.641,10.641,0,0,1,1.2-2.116,6,6,0,0,1,4.209-2.677,3.5,3.5,0,0,1,3.116,1c1.24,1.387,1.041,3.757.909,4.668a2.744,2.744,0,0,1,2.387.768,2.9,2.9,0,0,1,.476,2.305h2.661a.279.279,0,1,1,0,.557Z" transform="translate(-8.471 6.606)" fill="#e5e5e5"/>
              <path id="Path_98" data-name="Path 98" d="M29.687,32.2H26.024a.279.279,0,1,1,0-.557h3.663a.279.279,0,1,1,0,.557" transform="translate(-3.621 8.885)" fill="#e5e5e5"/>
              <path id="Path_99" data-name="Path 99" d="M14.31,29.579H10.647a.279.279,0,0,1,0-.557H14.31a.279.279,0,0,1,0,.557" transform="translate(-7.939 8.149)" fill="#e5e5e5"/>
            </g>
          </g>
        </g>
        <path id="Path_100" data-name="Path 100" d="M47.253,23.427c-2.711.917-9.725,2.542-9.725,2.542s-.475-9.818-1.011-10.887c-1.281-2.562-3.748-1.525-4.8-.269-.1.119-2.588,1.943-.9,4.439,2.156,2.5-1.7,9.643,2.156,13.387,3.242,3.147,16.6-1.537,16.6-1.537s.391-8.588-2.322-7.676" transform="translate(8.489 3.791)" fill="#fff"/>
        <path id="Path_101" data-name="Path 101" d="M37.043,33.955a6.022,6.022,0,0,1-4.15-1.141c-2.263-2.2-1.951-5.482-1.674-8.379.2-2.149.384-4-.493-5.019l-.013-.017c-1.063-1.565-.76-3.2.854-4.62l.054-.047a3.653,3.653,0,0,1,3-1.358,2.69,2.69,0,0,1,2.1,1.665c.512,1.013.944,9.236,1.025,10.739,1.2-.282,7.085-1.674,9.491-2.487a1.185,1.185,0,0,1,1.153.163c1.687,1.268,1.429,7.437,1.418,7.7v.128l-.119.041c-.418.142-7.6,2.632-12.648,2.632M31.015,19.181c.97,1.136.786,3.061.574,5.288-.269,2.818-.573,6,1.563,8.078,2.962,2.875,14.956-1.082,16.288-1.537a31.109,31.109,0,0,0-.067-3.167c-.169-2.211-.588-3.626-1.209-4.1a.825.825,0,0,0-.811-.108c-2.69.909-9.672,2.531-9.742,2.547l-.216.05-.01-.222c-.128-2.72-.566-9.964-.991-10.814a2.354,2.354,0,0,0-1.811-1.465A3.331,3.331,0,0,0,31.9,14.967a.919.919,0,0,1-.09.083c-1.86,1.637-1.463,3.148-.8,4.131" transform="translate(8.449 3.754)" fill="#3c3f54"/>
        <path id="Path_102" data-name="Path 102" d="M35.049,29.163a.141.141,0,0,1-.136-.143.211.211,0,0,1,.008-.041l1.153-3.34c-.165-3.394-.583-9.982-1-10.8a.14.14,0,0,1,.248-.128c.543,1.084,1.007,10.541,1.025,10.943a.122.122,0,0,1-.008.053l-1.167,3.366a.139.139,0,0,1-.128.1" transform="translate(9.803 4.108)" fill="#3c3f54"/>
        <path id="Path_103" data-name="Path 103" d="M51.754,20.784c-3-.931-7.519.735-11.942,1.75-1.969,1.377-1.637,9.8-1.442,9.87a55.873,55.873,0,0,0,6.616.918,124,124,0,0,1,6.768-12.538" transform="translate(10.731 5.759)" fill="#324d96"/>
        <path id="Path_104" data-name="Path 104" d="M45.14,33.57l-.146-.027c-.512-.092-1.3-.165-2.145-.243a23.6,23.6,0,0,1-4.5-.681c-.128-.045-.155-.193-.177-.338-.165-1.133-.373-8.5,1.57-9.862l.029-.02.036-.008c.976-.224,1.967-.483,2.927-.733,3.458-.9,6.728-1.755,9.111-1.013l.228.07-.128.2a124.543,124.543,0,0,0-6.755,12.512ZM38.552,32.29a24.5,24.5,0,0,0,4.333.64c.807.074,1.515.14,2.031.223a123.3,123.3,0,0,1,6.595-12.217c-2.266-.588-5.379.224-8.677,1.084-.95.247-1.931.5-2.9.726-1.677,1.255-1.584,8.638-1.381,9.548Z" transform="translate(10.69 5.718)" fill="#3c3f54"/>
        <path id="Path_105" data-name="Path 105" d="M36.412,83.494c-1-2.91,4.17-7.6,6.378-13.859-.529-1.127-10.365,2.426-10.738,3.553-.419.884-1.785,7.209-7.655,6.09,0,0-4.159,1.114.229,3.061,2.5,1.108,11.786,1.155,11.786,1.155" transform="translate(6.35 19.491)" fill="#fff"/>
        <path id="Path_106" data-name="Path 106" d="M36.712,83.722h-.256c-.384,0-9.35-.06-11.86-1.171-1.477-.656-2.171-1.291-2.12-1.942.033-.419.374-.8,1.016-1.119a5.259,5.259,0,0,1,.9-.348l.041-.012.042.008c5.022.957,6.642-3.7,7.252-5.452.083-.238.143-.414.2-.526.264-.716,3.023-1.834,4.2-2.284a25.314,25.314,0,0,1,5.816-1.6c.6-.037.941.064,1.06.318l.032.069L43,69.738a37.052,37.052,0,0,1-3.865,7.353c-1.7,2.7-3.046,4.835-2.513,6.383ZM24.445,79.509c-.467.128-1.559.561-1.6,1.127-.036.456.64,1.014,1.9,1.574,2.208.98,9.973,1.119,11.464,1.136-.384-1.679.949-3.8,2.62-6.454a37.22,37.22,0,0,0,3.792-7.172,1.281,1.281,0,0,0-.658-.067,24.04,24.04,0,0,0-5.706,1.572c-2.481.945-3.882,1.755-3.986,2.065l-.009.022c-.045.095-.108.273-.186.5a11.47,11.47,0,0,1-2.049,3.876A5.611,5.611,0,0,1,24.445,79.509Z" transform="translate(6.31 19.45)"/>
        <path id="Path_107" data-name="Path 107" d="M22.2,82.13a29.1,29.1,0,0,0,6.264,1.9c2.705.569,6.554,2.825,8.826,2.221,1-.266,1.066-3.682.546-4.934-.43-2.305-7.089-.573-8.08-2.433-.544-1.025,2.117-2.445.949-3.2-.155-.06-1.441.556-3.311.885-2.661.469-8.629.921-8.9,1.615C18.1,79.2,19.365,81.23,22.2,82.13" transform="translate(5.172 21.25)"/>
        <path id="Path_108" data-name="Path 108" d="M25.744,78.439a.279.279,0,0,1-.272-.216L25,76.163a.279.279,0,0,1,.543-.128l.473,2.059a.278.278,0,0,1-.209.333.258.258,0,0,1-.063.012" transform="translate(7.017 21.289)" fill="#5c63c6"/>
        <path id="Path_109" data-name="Path 109" d="M24.53,78.3a.278.278,0,0,1-.27-.211l-.426-1.716a.278.278,0,0,1,.54-.128L24.8,77.96a.28.28,0,0,1-.2.337.29.29,0,0,1-.067,0" transform="translate(6.69 21.35)" fill="#5c63c6"/>
        <path id="Path_110" data-name="Path 110" d="M23.3,78.2a.278.278,0,0,1-.268-.2l-.371-1.354a.278.278,0,1,1,.537-.147l.371,1.354a.28.28,0,0,1-.195.342.289.289,0,0,1-.074.01" transform="translate(6.361 21.42)" fill="#5c63c6"/>
        <path id="Path_111" data-name="Path 111" d="M22.082,78a.278.278,0,0,1-.273-.222l-.2-.943a.279.279,0,1,1,.546-.114l.2.944a.279.279,0,0,1-.215.329.293.293,0,0,1-.058.005" transform="translate(6.067 21.479)" fill="#5c63c6"/>
        <path id="Path_112" data-name="Path 112" d="M37.374,84.566a.277.277,0,0,1-.256-.181,2.137,2.137,0,0,0-.877-.865,7.457,7.457,0,0,0-4.148-.784,26.1,26.1,0,0,1-8.347-1.16c-2.857-.912-4.653-2.177-5.055-3.552a.278.278,0,1,1,.534-.156c.761,2.6,7.653,4.483,12.849,4.311,4.7-.159,5.533,1.921,5.565,2.01a.279.279,0,0,1-.164.359.287.287,0,0,1-.092.018Z" transform="translate(5.245 21.808)" fill="#5c63c6"/>
        <path id="Path_113" data-name="Path 113" d="M68.041,83.251c-2.353-3.242-4.548-9.562-5.218-16.163-.959-.794-7.371,6.276-7,7.408.184.959,6.916,12,1.52,14.569-.961,1.2-4.384,3.727,2,2.332,2.669-.585,8.707-8.146,8.707-8.146" transform="translate(15.6 18.819)" fill="#fff"/>
        <path id="Path_114" data-name="Path 114" d="M56.585,92.033c-.612,0-.966-.128-1.105-.378-.287-.512.444-1.273,1.153-2.008.233-.242.453-.47.6-.66l.027-.033.038-.018a3.232,3.232,0,0,0,1.719-1.91c1.112-3.174-1.5-8.548-2.752-11.13a9.292,9.292,0,0,1-.587-1.315c-.195-.67,1.212-2.472,2.07-3.49a22.936,22.936,0,0,1,3.879-3.76c.665-.45,1.094-.56,1.354-.345l.059.049.008.076c.629,6.21,2.713,12.669,5.183,16.074l.083.114-.088.11c-.248.311-6.109,7.619-8.812,8.21a14.5,14.5,0,0,1-2.833.415m.913-2.779c-.16.195-.374.418-.6.652-.466.484-1.247,1.295-1.1,1.569.083.149.593.424,3.532-.219,2.4-.525,7.759-7.044,8.512-7.97-2.455-3.458-4.517-9.862-5.159-16.031-.095-.01-.329.029-.853.384a22.563,22.563,0,0,0-3.8,3.692c-1.725,2.049-2.061,2.952-2,3.147V74.5a11.134,11.134,0,0,0,.558,1.235c1.281,2.627,3.932,8.093,2.769,11.414A3.587,3.587,0,0,1,57.5,89.254Z" transform="translate(15.56 18.779)"/>
        <path id="Path_115" data-name="Path 115" d="M29.075,85.013c1.761-5.679,7.607-18.544,9.526-25.03A160.169,160.169,0,0,1,49.114,33.727C63.487,35.361,64.3,41.595,64.3,41.595c-.941,1.949-10.778,16.741-15.088,23.4-3.134,6.36-7.516,20.323-9.4,23.286-2.779,1.274-10.082-2.034-10.738-3.265" transform="translate(8.164 9.47)"/>
        <path id="Path_116" data-name="Path 116" d="M38.258,88.794a15.076,15.076,0,0,1-4.631-.987c-2.305-.839-4.312-1.981-4.672-2.658l-.036-.068.023-.074c.824-2.655,2.522-6.839,4.32-11.271,2.057-5.067,4.183-10.306,5.205-13.759A159.327,159.327,0,0,1,49.022,33.641l.064-.069.093.01c7.472.849,11.239,2.966,13.083,4.592a6.189,6.189,0,0,1,2.263,3.436l.008.055-.024.05c-.676,1.4-5.821,9.245-10.36,16.166-1.793,2.742-3.5,5.332-4.739,7.243C47.85,68.293,45.943,73.449,44.26,78a82.944,82.944,0,0,1-4.251,10.419l-.029.046-.05.023a4.041,4.041,0,0,1-1.671.307M29.32,85.037c.82,1.192,7.71,4.3,10.409,3.137a87.586,87.586,0,0,0,4.187-10.3c1.688-4.563,3.6-9.734,5.17-12.919l.01-.019c1.239-1.912,2.946-4.507,4.739-7.253,4.483-6.828,9.544-14.555,10.309-16.071a6.227,6.227,0,0,0-2.163-3.184c-1.793-1.572-5.466-3.618-12.739-4.46-.342.539-1.907,3.684-3.919,8.381a167.8,167.8,0,0,0-6.5,17.736C37.795,63.554,35.662,68.8,33.6,73.877c-1.773,4.374-3.453,8.513-4.28,11.156Z" transform="translate(8.12 9.426)"/>
        <path id="Path_117" data-name="Path 117" d="M43.537,36.119c2.065,10.7,6.627,25.1,7.616,28.892C53.3,73.258,61.436,90.654,61.436,90.654s6.6-1.215,9.881-4.227c-4.987-17.547-7.8-17.658-7.982-19.873-1.23-15.194-.086-20.786-6.581-29.747-1.045-1.441-13.218-.689-13.218-.689" transform="translate(12.224 10.087)"/>
        <path id="Path_118" data-name="Path 118" d="M61.379,90.9l-.06-.128C61.237,90.6,53.155,73.268,51.024,65.1c-.247-.947-.72-2.562-1.319-4.611-1.776-6.081-4.75-16.266-6.3-24.29l-.04-.207.211-.013c.031,0,3.085-.19,6.227-.2,6.444-.018,6.976.719,7.152.961a27.3,27.3,0,0,1,4.808,10.076,70.115,70.115,0,0,1,1.281,11.824c.128,2.323.284,4.957.525,7.941a4.273,4.273,0,0,0,.879,1.942c1.182,1.864,3.643,5.743,7.1,17.9l.031.11-.083.077c-3.279,3.015-9.7,4.227-9.973,4.275ZM43.811,36.331c1.557,7.982,4.492,18.026,6.251,24.049.6,2.049,1.073,3.672,1.322,4.624,2.025,7.76,9.457,23.856,10.21,25.48a32.334,32.334,0,0,0,3.552-.952A17.924,17.924,0,0,0,71.159,86.4c-3.424-12.014-5.853-15.843-7.022-17.688a4.547,4.547,0,0,1-.935-2.109c-.241-2.989-.393-5.624-.526-7.95-.556-9.685-.834-14.547-6.02-21.7-.223-.307-1.409-.824-6.848-.807-2.66.006-5.255.142-6,.184Z" transform="translate(12.176 10.046)"/>
        <path id="Path_119" data-name="Path 119" d="M55.737,40.749a6.081,6.081,0,0,1-6.263-5.661.278.278,0,1,1,.553-.058,5.351,5.351,0,0,0,2.583,4.325,6.29,6.29,0,0,0,3.444.826.278.278,0,0,1,.044.555c-.109,0-.231.013-.361.013" transform="translate(13.891 9.766)" fill="#5c63c6"/>
        <path id="Path_120" data-name="Path 120" d="M44.361,32.377c.231-.54.489-1.109.768-1.693.28-2.177.1-4.556.291-6.816-3.035,1.218-4.65,5.7-4.977,8.089,1.492.17,3.064.265,3.918.42" transform="translate(11.355 6.702)" fill="#2e2e2e"/>
        <path id="Path_121" data-name="Path 121" d="M41.543,41.309c.733-4.707-.086-10.06,2.829-15.691,2.66-5.138,7.312-4.548,9.462-4.469,2.573.093,8.023,11.271,8.023,11.271s3.05,21.6,3.945,23.263c.749,1.391.019,1.465-.7,1.7-11.364,3.76-19.355-6.331-25.121-5.8-2.925.263.833-5.575,1.565-10.277" transform="translate(10.916 5.922)" fill="#324d96"/>
        <path id="Path_122" data-name="Path 122" d="M60.02,58.448c-4.867,0-9.036-2.191-12.561-4.045-2.847-1.5-5.306-2.791-7.429-2.6a1.135,1.135,0,0,1-1.072-.351c-.592-.768.061-2.576.889-4.867a30.183,30.183,0,0,0,1.548-5.27c.218-1.4.3-2.841.384-4.369.2-3.636.406-7.4,2.468-11.38,2.542-4.909,6.864-4.7,9.186-4.589l.448.02c1.133.041,2.859,1.98,5.123,5.763,1.665,2.781,3.041,5.587,3.055,5.615l.013.027v.029C63.126,39.9,65.3,54.347,66,55.638a1.624,1.624,0,0,1,.282,1.318c-.145.356-.534.476-.909.593l-.183.058a16.365,16.365,0,0,1-5.167.841M40.468,51.417c2.109,0,4.466,1.24,7.165,2.659,4.652,2.446,10.441,5.491,17.448,3.172l.188-.06c.32-.1.6-.186.675-.384s-.012-.529-.265-1c-.9-1.656-3.787-22.065-3.961-23.3-1.514-3.1-5.836-11.067-7.85-11.143l-.452-.02c-2.239-.108-6.4-.309-8.837,4.389-2.025,3.911-2.229,7.631-2.427,11.229-.083,1.537-.164,2.988-.384,4.406a30.493,30.493,0,0,1-1.566,5.34c-.725,2.011-1.409,3.911-.944,4.515A.791.791,0,0,0,40,51.43c.155-.012.31-.018.467-.018Z" transform="translate(10.875 5.88)" fill="#3c3f54"/>
        <path id="Path_123" data-name="Path 123" d="M56.553,36.8A21.45,21.45,0,0,1,53.7,29.536l3.941.384.059.12s.384,2.7.914,6.268l-1.432.675a.491.491,0,0,1-.626-.182" transform="translate(15.077 8.293)" fill="#2e2e2e"/>
        <path id="Path_124" data-name="Path 124" d="M55.527,22.912c2.715-.142,11.115,6.96,10.7,18.272a20.974,20.974,0,0,1-5.32,12.83c-2.049,2.012-4.2,3.418-5.478,2.728-1.76-.95.715-2.362,1.014-4.084.154-.88-1.4.8-2.061-.438-.128-.236,2.413-2,3.074-2.818a13.631,13.631,0,0,0,2.86-7.805c.256-3.928-2.775-7.472-6.059-11.352-2.328-2.751,1.265-7.332,1.265-7.332" transform="translate(15.015 6.433)" fill="#fff"/>
        <path id="Path_125" data-name="Path 125" d="M56.226,57.143a1.732,1.732,0,0,1-.841-.2,1.244,1.244,0,0,1-.7-.776c-.128-.548.283-1.136.72-1.759a4.668,4.668,0,0,0,.9-1.744.1.1,0,0,1,.006-.045,2.623,2.623,0,0,0-.293.1c-.485.179-1.3.48-1.755-.37-.128-.238.113-.464,1.4-1.509a14.859,14.859,0,0,0,1.7-1.509,13.475,13.475,0,0,0,2.818-7.7c.25-3.822-2.755-7.368-5.935-11.124l-.081-.095c-1-1.182-1.1-2.874-.274-4.891a12.338,12.338,0,0,1,1.537-2.679l.053-.067h.085c1.153-.06,3.043,1.034,4.825,2.784a20.409,20.409,0,0,1,4.3,6.314,21.194,21.194,0,0,1,1.771,9.364,20.5,20.5,0,0,1-2.214,8.317,18.719,18.719,0,0,1-3.161,4.638c-2.35,2.3-3.879,2.952-4.859,2.952m.136-4.9a.312.312,0,0,1,.209.072.436.436,0,0,1,.1.415,5.022,5.022,0,0,1-.962,1.894c-.384.552-.753,1.075-.662,1.46a.907.907,0,0,0,.512.535c1.025.556,2.946-.427,5.26-2.7a20.249,20.249,0,0,0,3.525-21.9,20.019,20.019,0,0,0-4.227-6.2c-1.883-1.853-3.573-2.672-4.461-2.681-.428.576-3.27,4.611-1.213,7.034l.081.1c3.23,3.814,6.276,7.417,6.02,11.387a13.692,13.692,0,0,1-2.9,7.91,14.71,14.71,0,0,1-1.755,1.563,12.25,12.25,0,0,0-1.268,1.108c.283.451.722.334,1.263.128A1.514,1.514,0,0,1,56.362,52.242Z" transform="translate(14.975 6.394)" fill="#3c3f54"/>
        <path id="Path_126" data-name="Path 126" d="M52.674,21.129c7.093,1.986,10.461,3.466,13.817,13.593-1.588,1.424-4.726,2.325-7.8,3.348a.491.491,0,0,1-.57-.2c-1.017-1.6-5.857-8.428-5.857-8.428s-1.666-8.89.406-8.312" transform="translate(14.498 5.925)" fill="#324d96"/>
        <path id="Path_127" data-name="Path 127" d="M58.58,38.321a.677.677,0,0,1-.57-.313c-1-1.578-5.8-8.352-5.852-8.42l-.024-.033-.008-.04c-.138-.738-1.315-7.238-.078-8.37a.722.722,0,0,1,.716-.156c3.388.949,6.155,1.83,8.383,3.783s3.906,4.937,5.561,9.93l.038.115-.091.081c-1.422,1.281-4,2.118-6.725,3.012-.378.128-.757.247-1.136.374a.675.675,0,0,1-.214.036m-6.1-8.914c.369.521,4.867,6.874,5.839,8.4a.3.3,0,0,0,.355.128c.384-.128.76-.256,1.137-.374a21.092,21.092,0,0,0,6.5-2.856c-1.619-4.855-3.242-7.745-5.415-9.651s-4.9-2.769-8.238-3.705a.356.356,0,0,0-.365.072c-.256.232-.633,1.107-.321,4.355.164,1.723.456,3.357.506,3.63" transform="translate(14.456 5.884)" fill="#324d96"/>
        <path id="Path_128" data-name="Path 128" d="M55.84,49.543a.14.14,0,0,1-.145-.134.137.137,0,0,1,.063-.122,7.73,7.73,0,0,0,2.177-2.042.14.14,0,0,1,.248.128,7.693,7.693,0,0,1-2.268,2.14.149.149,0,0,1-.076.029" transform="translate(15.638 13.244)" fill="#3c3f54"/>
        <path id="Path_129" data-name="Path 129" d="M54.985,49.313a.14.14,0,0,1-.14-.14.137.137,0,0,1,.063-.117,8.943,8.943,0,0,0,2.577-2.414.139.139,0,0,1,.251.122l-.013.022a9,9,0,0,1-2.661,2.5.153.153,0,0,1-.077.026" transform="translate(15.399 13.074)" fill="#3c3f54"/>
        <path id="Path_130" data-name="Path 130" d="M57.605,48.606a.141.141,0,0,1-.138-.141.143.143,0,0,1,.053-.108,13.318,13.318,0,0,0,1.091-.954.139.139,0,0,1,.213.181l-.018.018a13.868,13.868,0,0,1-1.113.975.14.14,0,0,1-.087.029" transform="translate(16.135 13.296)" fill="#3c3f54"/>
        <path id="Path_131" data-name="Path 131" d="M56.454,34.5a.186.186,0,0,1-.049-.365,27.641,27.641,0,0,0,7.234-3.039.186.186,0,0,1,.223.3A18.045,18.045,0,0,1,59.3,33.6c-1.525.547-2.783.885-2.8.888a.2.2,0,0,1-.047.006" transform="translate(15.799 8.72)" fill="#fff"/>
        <path id="Path_132" data-name="Path 132" d="M39.116,32.638a.186.186,0,0,1-.181-.146,21.255,21.255,0,0,1,1.078-10.2.186.186,0,1,1,.343.142,21.105,21.105,0,0,0-1.058,9.98.186.186,0,0,1-.141.222.159.159,0,0,1-.042.005" transform="translate(10.875 6.226)" fill="#fff"/>
        <path id="Path_133" data-name="Path 133" d="M54.333,17.849a13.5,13.5,0,0,1-.4,3.1,6.141,6.141,0,0,0-.013,1.793.037.037,0,0,0,.024.032c.877.151.425,1.97-1.707,2.523-4.277,1.11-5.628-1.258-4.693-2.281,1.332-1.235,1.262-1.87,2.177-4.009Z" transform="translate(13.269 5.012)" fill="#fff"/>
        <path id="Path_134" data-name="Path 134" d="M50.2,25.767a3.134,3.134,0,0,1-2.831-1.214,1.311,1.311,0,0,1,.093-1.591l.008-.008a5.292,5.292,0,0,0,1.579-2.545c.15-.4.32-.853.561-1.418l.027-.064,4.85-1.217.008.169a13.571,13.571,0,0,1-.409,3.146,6.2,6.2,0,0,0-.017,1.665.64.64,0,0,1,.455.629,1.739,1.739,0,0,1-.535,1.192,3.458,3.458,0,0,1-1.7.954,8.367,8.367,0,0,1-2.092.3M47.67,23.154a1.024,1.024,0,0,0-.058,1.255c.5.833,1.979,1.478,4.611.793,1.434-.373,2.049-1.315,2.025-1.866a.364.364,0,0,0-.306-.384.174.174,0,0,1-.138-.15,6.243,6.243,0,0,1,.018-1.86,13.7,13.7,0,0,0,.4-2.877l-4.382,1.1c-.224.529-.384.961-.529,1.342A5.569,5.569,0,0,1,47.67,23.154Z" transform="translate(13.238 4.973)" fill="#3c3f54"/>
        <path id="Path_135" data-name="Path 135" d="M48.7,20.27a3.588,3.588,0,0,0,2.472-1.29l-1.943-.069c-.219.542-.387.981-.529,1.359" transform="translate(13.673 5.31)" fill="#2e2e2e"/>
        <path id="Path_136" data-name="Path 136" d="M50.152,12.709A2.5,2.5,0,0,0,48.822,15.5c.327,1.7,2.042-.622,2.132-1.253s-.8-1.536-.8-1.536" transform="translate(13.691 3.569)" fill="#2e2e2e"/>
        <path id="Path_137" data-name="Path 137" d="M53.383,20.272c-1.775.98-4.949.768-5.518,0a5.609,5.609,0,0,1,.213-3.6,6.3,6.3,0,0,1,2.282-3.065c1.744-1.034,3.482-.1,4.462,1.678a3.672,3.672,0,0,1-1.44,4.985" transform="translate(13.383 3.701)" fill="#fff"/>
        <path id="Path_138" data-name="Path 138" d="M50.416,21.1H50.2a3.549,3.549,0,0,1-2.416-.712l-.012-.017a5.689,5.689,0,0,1,.206-3.714,6.4,6.4,0,0,1,2.34-3.134,2.893,2.893,0,0,1,2.27-.352,4.078,4.078,0,0,1,2.386,2.083,3.815,3.815,0,0,1-1.493,5.178,6.543,6.543,0,0,1-3.065.669m-2.4-.872c.538.693,3.586.918,5.333-.045a3.532,3.532,0,0,0,1.385-4.8,3.808,3.808,0,0,0-2.214-1.948,2.584,2.584,0,0,0-2.049.323,6.128,6.128,0,0,0-2.223,3,5.6,5.6,0,0,0-.231,3.471" transform="translate(13.352 3.671)" fill="#3c3f54"/>
        <path id="Path_139" data-name="Path 139" d="M49.842,12.285c-1.464,2.747,4.065,3.732,2.221,6.99,0,.243.061.295.181.36,0,0,1.264-1,1.436-.024.088.512-.36.757-.512,1.383a3.5,3.5,0,0,0,.114,1.712c.6-1.566,1.957-2.551,2.62-3.78A3.985,3.985,0,0,0,53.413,13.3c-2.208-.471-2.568-2.9-3.571-1.019" transform="translate(13.924 3.251)"/>
        <path id="Path_140" data-name="Path 140" d="M50.323,16.242c.026-.065-.374-.272-.473-.266a.913.913,0,0,0-.128.512c.042.149.274.173.384.095s-.045-.256.216-.341" transform="translate(13.961 4.486)" fill="#010101"/>
        <path id="Path_141" data-name="Path 141" d="M48.94,15.321c.024-.055-.307-.242-.392-.241a.778.778,0,0,0-.128.426c.032.128.227.156.323.093s-.026-.216.2-.279" transform="translate(13.595 4.234)" fill="#010101"/>
        <path id="Path_142" data-name="Path 142" d="M48.2,17.3a1.087,1.087,0,0,0,.216.94c1.077.371.867-.384,1.451-.606A2.723,2.723,0,0,1,48.2,17.3" transform="translate(13.524 4.859)" fill="#010101"/>
        <path id="Path_143" data-name="Path 143" d="M48.253,17.3a1,1,0,0,0,.021.332c.042.1.757.427,1.085.167.313-.182-.556-.187-.556-.187Z" transform="translate(13.547 4.857)" fill="#fff"/>
        <path id="Path_144" data-name="Path 144" d="M49.987,17.532c-.087-.038-.245.11-.332.128a1.53,1.53,0,0,1-1.379-.5c-.056-.059-.2.095-.082.228a1.66,1.66,0,0,0,1.13.476c.172-.017.3-.115.469-.128.05,0,.059.421.174.248.046-.067.141-.4.02-.451" transform="translate(13.519 4.814)" fill="#3c3f54"/>
        <path id="Path_145" data-name="Path 145" d="M48.79,18.6a.143.143,0,0,1-.06-.014.671.671,0,0,0-.274-.059.14.14,0,0,1-.037-.277h.024a.944.944,0,0,1,.406.086.14.14,0,0,1-.06.265Z" transform="translate(13.561 5.125)" fill="#3c3f54"/>
        <path id="Path_146" data-name="Path 146" d="M48.393,17.579a.138.138,0,0,1-.106-.05.975.975,0,0,1-.231-.834.382.382,0,0,1,.292-.256,2.067,2.067,0,0,0,1.058-.7,2.2,2.2,0,0,1,.475-.415c.52-.293,1.369.313,1.829.7a.14.14,0,0,1-.179.213c-.669-.562-1.249-.82-1.513-.67a1.959,1.959,0,0,0-.411.365,2.327,2.327,0,0,1-1.2.78.109.109,0,0,0-.09.078.718.718,0,0,0,.179.565.14.14,0,0,1-.018.2.139.139,0,0,1-.088.032Z" transform="translate(13.488 4.281)" fill="#3c3f54"/>
        <path id="Path_147" data-name="Path 147" d="M49.546,15.1a.141.141,0,0,1-.086-.031,1.088,1.088,0,0,0-.794-.263.187.187,0,0,1-.109-.014.14.14,0,0,1,.077-.263h.013a1.393,1.393,0,0,1,.986.323.14.14,0,0,1-.087.248Z" transform="translate(13.613 4.078)" fill="#3c3f54"/>
        <path id="Path_148" data-name="Path 148" d="M50.5,25.352A4.286,4.286,0,0,1,46.919,23.8c-.534-.85-.228-1.761.818-2.433a.186.186,0,1,1,.2.313c-.879.565-1.128,1.249-.7,1.921.8,1.268,3.782,2.1,6.472.456.768-.471,1.2-.968,1.236-1.437a1.025,1.025,0,0,0-.333-.788.186.186,0,1,1,.238-.286,1.388,1.388,0,0,1,.466,1.1c-.044.6-.519,1.186-1.409,1.732a6.5,6.5,0,0,1-3.4.982" transform="translate(13.101 5.99)" fill="#fff"/>
        <path id="Path_149" data-name="Path 149" d="M39.006,76.4c-2.514-.108-6.723-.289-9.964-3.653a.278.278,0,0,1,.4-.384c3.088,3.2,7.157,3.377,9.588,3.482Z" transform="translate(8.135 20.297)" fill="#5c63c6"/>
        <path id="Path_150" data-name="Path 150" d="M59.991,77.927a.278.278,0,0,1-.081-.546,13.635,13.635,0,0,0,5.826-3.1.278.278,0,1,1,.414.371,14.174,14.174,0,0,1-6.08,3.263.278.278,0,0,1-.079.013" transform="translate(16.764 20.83)" fill="#5c63c6"/>
        <path id="Path_151" data-name="Path 151" d="M57.626,77.857a.278.278,0,0,1-.045-.553,16.214,16.214,0,0,0,1.881-.384.278.278,0,0,1,.143.538,16.877,16.877,0,0,1-1.935.394.267.267,0,0,1-.045.005" transform="translate(16.1 21.595)" fill="#5c63c6"/>
        <path id="Path_152" data-name="Path 152" d="M61.717,84.057c-.346-2.335-1.381-2.669-2.177-2.715s-1.659,4.934-4.1,7.128c-.315.283-1.459.871-2.012,1.386s.881,2.518,3.8,2.346,6-1.871,9.792-4.323c2.562-1.656,5.389-2.854,5.039-4.949-.318-1.9-3.438-4.15-3.438-4.15-.847-.494-1.153-.2-2.605,3.352s-4.3,1.925-4.3,1.925" transform="translate(14.969 22.068)"/>
        <path id="Path_153" data-name="Path 153" d="M56.906,91.049a2.537,2.537,0,0,1-2.191-1.109c-.361-.433-.561-.671-1.166-.479a.278.278,0,1,1-.169-.53,1.449,1.449,0,0,1,1.761.652c.54.647,1.153,1.381,3.714.525A14.519,14.519,0,0,0,66.8,83.825c1.223-1.73,2.189-3.1,4.169-2.843a.278.278,0,0,1-.07.552c-1.647-.21-2.441.912-3.644,2.612a15.192,15.192,0,0,1-8.224,6.49,6.9,6.9,0,0,1-2.121.414" transform="translate(14.933 22.73)" fill="#5c63c6"/>
        <path id="Path_154" data-name="Path 154" d="M56.82,87.236a.279.279,0,0,1-.219-.106,2.3,2.3,0,0,0-1.665-.555.278.278,0,1,1,.009-.556h.01a2.738,2.738,0,0,1,2.086.768.279.279,0,0,1-.049.392.275.275,0,0,1-.17.059Z" transform="translate(15.348 24.151)" fill="#5c63c6"/>
        <path id="Path_155" data-name="Path 155" d="M57.8,86.449a.283.283,0,0,1-.15-.044,4.312,4.312,0,0,0-2.115-.64.278.278,0,0,1-.026-.556,4.821,4.821,0,0,1,2.441.731.278.278,0,0,1-.15.512Z" transform="translate(15.511 23.925)" fill="#5c63c6"/>
        <path id="Path_156" data-name="Path 156" d="M59.76,85.091a.282.282,0,0,1-.161-.053c-.018-.013-1.8-1.281-3.035-.877a.278.278,0,1,1-.172-.529c1.5-.487,3.449.9,3.531.955a.277.277,0,0,1,.067.387.281.281,0,0,1-.229.118Z" transform="translate(15.779 23.453)" fill="#5c63c6"/>
        <path id="Path_157" data-name="Path 157" d="M58.717,85.7a.274.274,0,0,1-.163-.053,3.841,3.841,0,0,0-2.505-.72.279.279,0,0,1-.128-.543,4.322,4.322,0,0,1,2.946.809.278.278,0,0,1-.163.5Z" transform="translate(15.641 23.689)" fill="#5c63c6"/>
        <path id="Path_158" data-name="Path 158" d="M52.353,32.174h-.128a3.267,3.267,0,0,1-2.04-.483l-.027-.024-.015-.032c-.318-.64.941-2.987,1.336-3.691l.058-.1,3.754.268-.128.25a23.347,23.347,0,0,0-1.395,3.613l-.033.119-.128.014a12.036,12.036,0,0,1-1.253.069m-1.889-.733a5.684,5.684,0,0,0,2.983.31,24.2,24.2,0,0,1,1.262-3.311l-2.964-.211a8.973,8.973,0,0,0-1.281,3.21Z" transform="translate(14.064 7.817)" fill="#fff"/>
        <path id="Path_159" data-name="Path 159" d="M55.063,28.915h0a29.52,29.52,0,0,1-3.774-.243.186.186,0,1,1,.055-.368,29.163,29.163,0,0,0,3.722.238.186.186,0,0,1,0,.371Z" transform="translate(14.356 7.947)" fill="#fff"/>
        <path id="Path_160" data-name="Path 160" d="M64.216,47.031l-.327-.177a25.515,25.515,0,0,0,2.55-7.313l.365.07a25.9,25.9,0,0,1-2.588,7.42" transform="translate(17.939 11.102)" fill="#fff"/>
        <path id="Path_161" data-name="Path 161" d="M64.5,48.369l-.306-.21a23.723,23.723,0,0,0,2.4-4.525l.345.138a24.109,24.109,0,0,1-2.436,4.6" transform="translate(18.023 12.252)" fill="#fff"/>
        <path id="Path_162" data-name="Path 162" d="M34.7,13.817,30.7,17.489A1.333,1.333,0,0,0,32.51,19.45l4.165-3.672a12.152,12.152,0,0,0-.9-1.3,2.084,2.084,0,0,0-1.08-.665" transform="translate(8.502 3.88)" fill="#ffc72c"/>
        <path id="Path_163" data-name="Path 163" d="M30.449,17.7c.24-.145.334.283.583.526.556.546.836.868,1.227.648.233-.128.155-.551.155-.551a.705.705,0,0,0,.8-.256c.16-.215-.031-.72-.156-.9.556.128,1.163.037.678-.922a10.572,10.572,0,0,0-1.516-2.038l-1.949,2.622Z" transform="translate(8.5 3.991)" fill="#fff"/>
        <path id="Path_164" data-name="Path 164" d="M32.044,19.137c-.311,0-.59-.275-.967-.648l-.114-.113a1.688,1.688,0,0,1-.234-.313.8.8,0,0,0-.159-.2l-.019.009-.17.1-.224-1.132,2.084-2.8.114.119a10.621,10.621,0,0,1,1.537,2.071c.223.441.256.754.091.962a.717.717,0,0,1-.647.2.9.9,0,0,1,.022.806.842.842,0,0,1-.768.351.552.552,0,0,1-.24.5.628.628,0,0,1-.3.092m-1.458-1.556c.172.01.291.2.377.334a1.509,1.509,0,0,0,.195.264l.115.113c.5.5.688.658.946.512.109-.061.105-.3.086-.4l-.044-.243.232.09a.565.565,0,0,0,.64-.214c.1-.128-.031-.553-.159-.74l-.2-.292.346.077c.319.072.558.049.64-.059s.042-.345-.119-.665a9.9,9.9,0,0,0-1.381-1.883L30.449,16.9Z" transform="translate(8.467 3.941)" fill="#3c3f54"/>
        <path id="Path_165" data-name="Path 165" d="M35.021,14.438a1.923,1.923,0,0,0-.36-.332,3.232,3.232,0,0,0-.32-.093,1.958,1.958,0,0,0-.6-.041l-.783.727a9.949,9.949,0,0,1,1.876,1.353l.357.337.735-.652a11.919,11.919,0,0,0-.9-1.3" transform="translate(9.253 3.921)" fill="#162243"/>
        <path id="Path_166" data-name="Path 166" d="M34.617,18.169c-1.537-.776-.079-2.711-1.142-2.216-.989,1.1-1.522.853-1.591.708a3.682,3.682,0,0,1,1.2-2.141s.574-.453.882-.412a11.384,11.384,0,0,1,2.126,2.619c-.082,1.2-.8,1.93-1.472,1.442" transform="translate(8.952 3.961)" fill="#fff"/>
        <path id="Path_167" data-name="Path 167" d="M35.083,18.489a.859.859,0,0,1-.5-.174,1.676,1.676,0,0,1-.8-1.887,1.288,1.288,0,0,0,0-.384.438.438,0,0,0-.192.055c-.708.781-1.191.9-1.474.857a.419.419,0,0,1-.325-.2c-.172-.364.6-1.81,1.236-2.305.1-.082.64-.487.986-.441.424.056,1.9,2.17,2.22,2.69l.023.037v.044a1.92,1.92,0,0,1-.84,1.651.783.783,0,0,1-.329.06m-1.305-2.728a.287.287,0,0,1,.168.05c.16.113.138.347.111.64a1.409,1.409,0,0,0,.658,1.618l.019.012a.526.526,0,0,0,.565.077,1.654,1.654,0,0,0,.678-1.372,12.057,12.057,0,0,0-2-2.517,1.65,1.65,0,0,0-.768.384,3.9,3.9,0,0,0-1.153,1.976.245.245,0,0,0,.142.046c.143.01.551-.049,1.217-.792l.019-.022.026-.012a.809.809,0,0,1,.318-.09Z" transform="translate(8.918 3.932)" fill="#3c3f54"/>
        <path id="Path_168" data-name="Path 168" d="M30.7,16.081a3.957,3.957,0,0,0,.336.451q.181.211.373.409c.128.132.263.256.4.384l.1.091.105.091.214.182c-.006-.023-.015-.045-.023-.068a.6.6,0,0,0-.029-.065c-.02-.044-.045-.085-.068-.128s-.05-.081-.076-.12-.054-.077-.082-.115a4.107,4.107,0,0,0-.366-.423,4.6,4.6,0,0,0-.415-.374,2.819,2.819,0,0,0-.471-.314" transform="translate(8.619 4.515)" fill="#3c3f54"/>
        <path id="Path_169" data-name="Path 169" d="M31.794,15.449a1.3,1.3,0,0,0-.234-.164,1.06,1.06,0,0,0-.136-.059.474.474,0,0,0-.152-.029,1.632,1.632,0,0,0,.167.24,1.719,1.719,0,0,0,.419.365,1.007,1.007,0,0,0,.272.119" transform="translate(8.78 4.267)" fill="#3c3f54"/>
        <path id="Path_170" data-name="Path 170" d="M31.8,14.2a1.1,1.1,0,0,0,.111.3,1.663,1.663,0,0,0,.373.466,1.091,1.091,0,0,0,.264.173,1.048,1.048,0,0,0-.11-.295,1.677,1.677,0,0,0-.375-.467A1.06,1.06,0,0,0,31.8,14.2" transform="translate(8.928 3.988)" fill="#3c3f54"/>
        <path id="Path_171" data-name="Path 171" d="M28.825,16.819h0a10.609,10.609,0,0,1,8.223,1.473l.768.512a3.46,3.46,0,0,0,4.791-.981l.005-.009a3.46,3.46,0,0,0-.981-4.791l-.009-.005-.768-.512a10.6,10.6,0,0,1-4.611-6.973Z" transform="translate(8.093 1.554)" fill="#ffc72c"/>
        <path id="Path_172" data-name="Path 172" d="M38.14,15.148a.3.3,0,0,0-.328.5l1,.658a3.408,3.408,0,0,0,.552-.351Z" transform="translate(10.579 4.24)" fill="#fafdff"/>
        <path id="Path_173" data-name="Path 173" d="M38.261,13.907a.3.3,0,0,0-.329.5h0l1.989,1.308c.061-.078.119-.159.174-.242s.106-.169.152-.256Z" transform="translate(10.613 3.891)" fill="#fafdff"/>
        <path id="Path_174" data-name="Path 174" d="M39.355,13.3a.3.3,0,1,0-.327.5l1.223.8a3.494,3.494,0,0,0,.1-.64Z" transform="translate(10.921 3.722)" fill="#fafdff"/>
        <path id="Path_175" data-name="Path 175" d="M28.007,8.3c-2.6,3.95-3.2,8.143-1.336,9.368s5.475-.986,8.069-4.935a13.592,13.592,0,0,0,2.413-6.5,3.12,3.12,0,0,0-1.077-2.869c-1.856-1.224-5.47.986-8.069,4.935" transform="translate(7.184 0.851)" fill="#624df7"/>
        <path id="Path_176" data-name="Path 176" d="M28.007,8.3c-2.6,3.95-3.2,8.143-1.336,9.368s5.475-.986,8.069-4.935a13.592,13.592,0,0,0,2.413-6.5,3.12,3.12,0,0,0-1.077-2.869c-1.856-1.224-5.47.986-8.069,4.935" transform="translate(7.184 0.851)" fill="#ffc72c"/>
        <path id="Path_177" data-name="Path 177" d="M28.666,8.636c-2.457,3.735-3.158,7.61-1.568,8.657s5-.957,7.461-4.691a14.141,14.141,0,0,0,2.268-6.243A2.689,2.689,0,0,0,36,3.769c-1.588-1.048-4.873,1.132-7.33,4.867" transform="translate(7.37 0.985)" fill="#fff"/>
        <path id="Path_178" data-name="Path 178" d="M32.672,8.093a14.644,14.644,0,0,1,1.949,1.755,17.957,17.957,0,0,1-1.99,3.025,14.681,14.681,0,0,1-2.381-1.1,2.2,2.2,0,0,1,2.422-3.682Z" transform="translate(8.226 2.178)"/>
        <path id="Path_179" data-name="Path 179" d="M27.029,7.469a.185.185,0,0,1-.1-.031l-2.9-1.908a.186.186,0,1,1,.187-.321l.017.012,2.9,1.908a.186.186,0,0,1-.1.341Z" transform="translate(6.72 1.456)" fill="#fff"/>
        <path id="Path_180" data-name="Path 180" d="M27.5,6.865a.186.186,0,0,1-.168-.105l-1.5-3.129a.186.186,0,0,1,.334-.16l1.5,3.129a.186.186,0,0,1-.087.247.189.189,0,0,1-.079.018" transform="translate(7.248 0.948)" fill="#fff"/>
        <path id="Path_181" data-name="Path 181" d="M26.848,8.262H26.84l-3.468-.142a.186.186,0,1,1,.015-.371l3.468.142a.186.186,0,1,1-.008.371Z" transform="translate(6.512 2.176)" fill="#fff"/>
        <path id="Path_182" data-name="Path 182" d="M37.567,9.506A10.548,10.548,0,0,1,36.7,8.247a15.181,15.181,0,0,1-4.905,7.63,10.577,10.577,0,0,1,1.606.345,15.638,15.638,0,0,0,2.36-2.827,14.842,14.842,0,0,0,1.8-3.888" transform="translate(8.928 2.316)" fill="#fafdff"/>
      </g>
    </g>
  </g>
</svg>
