<svg id="Group_65" data-name="Group 65" xmlns="http://www.w3.org/2000/svg" xmlns:xlink="http://www.w3.org/1999/xlink" width="187.585" height="161.052" viewBox="0 0 187.585 161.052">
  <defs>
    <clipPath id="clip-path">
      <rect id="Rectangle_47" data-name="Rectangle 47" width="187.585" height="161.052" fill="none"/>
    </clipPath>
  </defs>
  <g id="Group_64" data-name="Group 64" clip-path="url(#clip-path)">
    <path id="Path_59918" data-name="Path 59918" d="M45.13,45.929C40.5,53.445,31.047,55.993,23.153,59.942,12.222,65.411,3.061,74.7.7,86.957c-2.09,10.844.384,23.3,9.231,30.594,9.4,7.746,23.523,8.187,32.222,16.715,3.946,3.868,6.5,9.18,11.131,12.193,5.551,3.611,12.8,3.087,19.255,1.616s12.9-3.771,19.5-3.279c4.938.368,9.606,2.279,14.277,3.924,13.563,4.775,28.523,7.42,42.282,3.245,15.79-4.791,27.32-17.966,26.364-35.138-.541-9.709-5.289-19.058-4.326-28.735.627-6.3,3.955-9.962,6.949-15.139s6.3-10.92,8.243-16.615a34.6,34.6,0,0,0-5.62-32.2A34.6,34.6,0,0,0,150.024,11.6c-5.709.621-10.889,2.744-16.613,2.889-6.371.161-12.729-.224-18.814-2.263C98.731,6.9,87.406-1.132,69.882,1.552,59.011,3.218,53.212,8.76,50.183,19.48,47.747,28.1,50.012,38,45.13,45.929" transform="translate(0 -0.966)" fill="#fcf3e6"/>
    <path id="Path_59919" data-name="Path 59919" d="M529.093,484.553v9.1a7.136,7.136,0,0,0,7.133,7.128h16.545A22.367,22.367,0,0,0,554,503.9c3.029,6.253,7.382,6.8,7.382,6.8a13.2,13.2,0,0,1-3.118-5.643,27.551,27.551,0,0,1-.926-4.269h4.374c.123,0,.245,0,.364-.013.068,0,.135-.008.2-.013a.347.347,0,0,0,.093-.008,7.141,7.141,0,0,0,6.473-7.094v-9.1a7.133,7.133,0,0,0-7.133-7.133H536.226a7.134,7.134,0,0,0-7.133,7.133" transform="translate(-502.151 -453.109)" fill="#fbc031"/>
    <path id="Path_59920" data-name="Path 59920" d="M616.5,828.034a7.08,7.08,0,0,0,2.682.525h1.853l-1.443-5.749a.047.047,0,0,1,0-.021l0-.008s-1.98.7-3.084,5.254" transform="translate(-585.103 -780.883)" fill="#fff"/>
    <path id="Path_59921" data-name="Path 59921" d="M1174.148,688.883l-.235-3.155,2.183-.672,1.133,3.957Z" transform="translate(-1114.136 -650.172)" fill="#cf856a"/>
    <path id="Path_59922" data-name="Path 59922" d="M725.289,503.7a12.313,12.313,0,0,0-1.786-5.806,3.911,3.911,0,0,0-3.186-2.195,9.19,9.19,0,0,0-3.75.042,5.727,5.727,0,0,0-2.712,2.031,12.353,12.353,0,0,0-2.251,5.856,3.008,3.008,0,0,0,1.655,3.452,6.874,6.874,0,0,0,2.911.52,19.539,19.539,0,0,0,2.9-.142,14.109,14.109,0,0,1,2.011-.386c1.147-.008,2.432.121,3.3-.627a2.672,2.672,0,0,0,.823-1.6,6.594,6.594,0,0,0,.087-1.147" transform="translate(-675.313 -470.29)" fill="#260e14"/>
    <path id="Path_59923" data-name="Path 59923" d="M987.624,724.432l.021,0h0c.241.075,2.257.81,8.7,6.413-.055-.908-.022-5.743-.213-10.035.11.009.229.009.343.009h0a7.816,7.816,0,0,0,2.61-.487c.135-.051.271-.106.4-.161a78.835,78.835,0,0,1,1.861,8.719,7.06,7.06,0,0,1-4.565,2.251.347.347,0,0,1-.093.008c-.068,0-.135.013-.2.013l0,0c-.12.007-.24.016-.362.016h-4.374a27.569,27.569,0,0,0,.926,4.269c-1.447-.829-3.283-1.853-3.9-2.331-.753-.588-1.206-.977-1.206-.977s-1.726-5.479.042-7.708" transform="translate(-936.576 -683.504)" fill="#fff"/>
    <path id="Path_59924" data-name="Path 59924" d="M756.036,708.984a22.357,22.357,0,0,0,.431,2.246H766.93a13.332,13.332,0,0,0,.013-2.174,11.217,11.217,0,0,0-.6-2.839c-.042-.11-.08-.216-.123-.322-.313-.808-.427-2.026-1.277-2.361-.127-.051-.254-.1-.377-.148-1.032-.4-1.9-.762-2.107-1.561l-.021-.262v0l-.017-.182-.076-.935-.1-1.286-1.438.157-2.115.233h0l-.055.664v0l-.055.651,0,.042-.089,1.1c-.03.292-.127.529-1.273,1.066-.525.245-.825,1.13-.994,1.667a7.526,7.526,0,0,0-.313,1.887,12.911,12.911,0,0,0,.14,2.361" transform="translate(-717.397 -663.555)" fill="#cf856a"/>
    <path id="Path_59925" data-name="Path 59925" d="M896.636,788.267H901.6a22.371,22.371,0,0,0,1.227,3.114,5.269,5.269,0,0,0,.364-1.176,3.1,3.1,0,0,0,.047-.521,1.941,1.941,0,0,0-.262-1.02c-.017-.021-.025-.042-.038-.059a6.79,6.79,0,0,1-1.168-3.575,32.759,32.759,0,0,1,.283-3.507v-.009h0c-.051-.042-1.5-.457-2.619-.787-.618-.182-1.134-.338-1.269-.4l-.017.1-.926,4.823-.313,1.624v0l-.161.842Z" transform="translate(-850.978 -740.591)" fill="#fff"/>
    <path id="Path_59926" data-name="Path 59926" d="M677.057,778.388l0,.008a.047.047,0,0,0,0,.021c.03.3.313,2.763.317,2.763l.008.025.343,2.961h6.989q-.108-.387-.216-.761v0c-.216-.74-.419-1.451-.605-2.115-.876-3.063-1.472-5.174-1.515-5.28l-1.079.474-.871.393-1.261.567-1.637.732s-.051.025-.055.025Z" transform="translate(-642.58 -736.491)" fill="#fff"/>
    <path id="Path_59927" data-name="Path 59927" d="M808.54,700.843a3.593,3.593,0,0,0,2.908.867,4.2,4.2,0,0,0,.957-.214l-.2-2.408-3.553.393Z" transform="translate(-767.368 -663.49)" fill="#9a644a"/>
    <path id="Path_59928" data-name="Path 59928" d="M776.845,551.662c-.015.1-.025.211-.031.326a6.462,6.462,0,0,0,.067,1.379,6.116,6.116,0,0,0,1.073,2.618,5.108,5.108,0,0,0,3.435,1.821c2.625,0,3.408-2.281,3.826-4.115.015-.062.023-.118.038-.18a10.566,10.566,0,0,0,.012-3.589c-.548-1.816-3.043-2.142-3.043-2.142a11.707,11.707,0,0,1-5.077,2.726,3.406,3.406,0,0,0-.3,1.156" transform="translate(-737.247 -519.886)" fill="#cf856a"/>
    <path id="Path_59929" data-name="Path 59929" d="M853.377,660.233a0,0,0,0,0,0,.007,0,0,0,0,0,0-.007" transform="translate(-809.919 -626.613)" fill="#594e8a"/>
    <path id="Path_59930" data-name="Path 59930" d="M869.779,632.661a3.252,3.252,0,0,0-.129-.747.018.018,0,0,0-.028-.008c-.217.157-.15.516-.1.746.033.161.081.319.128.476.016.052.1.222.085.276-.056.149-.339.1-.444.075-.174-.046-.217.236-.042.279.249.061.783.01.771-.328a4.128,4.128,0,0,0-.241-.769" transform="translate(-824.879 -599.725)" fill="#9a644a"/>
    <path id="Path_59931" data-name="Path 59931" d="M752.168,619.214s-.693-1.161-1.22-.742c-.835.664-.2,2.969,1.434,2.973Z" transform="translate(-712.359 -586.892)" fill="#cf856a"/>
    <path id="Path_59932" data-name="Path 59932" d="M764.1,635.056c-.066-.037-.148.062-.095.118a3.37,3.37,0,0,1,.386.457,1.15,1.15,0,0,0-.414.012c-.1.02-.115.175,0,.188a3.1,3.1,0,0,0,.553.068c.046.117.084.236.129.357a.107.107,0,0,0,.2-.053,1.578,1.578,0,0,0-.761-1.146" transform="translate(-724.997 -602.71)" fill="#9a644a"/>
    <path id="Path_59933" data-name="Path 59933" d="M1158.616,583.92c1.182-.021,1.563-1.936,1.772-2.824a11.706,11.706,0,0,0,.229-3.627.719.719,0,0,0-.168-.383.814.814,0,0,0-.28-.191,1.086,1.086,0,0,0-.107-.048c-.044-.018-.094-.036-.141-.051a3.818,3.818,0,0,0-.381-.106c-.059-.015-.116-.026-.172-.038-.094-.017-.19-.031-.284-.042a1,1,0,0,0-.134-.007.666.666,0,0,0-.137,0,.756.756,0,0,0-.09.023.908.908,0,0,0-.462.655,15.944,15.944,0,0,0-.567,2.726c-.158-.33-.31-.661-.462-.991a.938.938,0,0,0-.268-.388.326.326,0,0,0-.429.02c-.229.28.124,1.047.209,1.335a14.591,14.591,0,0,1,.187,1.833,3.458,3.458,0,0,0,.894,1.69,1.37,1.37,0,0,0,.4.327.857.857,0,0,0,.392.083" transform="translate(-1097.57 -547.24)" fill="#cf856a"/>
    <path id="Path_59934" data-name="Path 59934" d="M1223.208,583.7a5.173,5.173,0,0,0,.223-1.725,7.37,7.37,0,0,0-.049-1.456,1.115,1.115,0,0,0-.107-.048c-.044-.018-.094-.036-.141-.05-.011.454.056.923.051,1.378-.008.616-.153,1.254-.115,1.866,0,.065.111.107.138.035" transform="translate(-1160.784 -550.866)" fill="#9a644a"/>
    <path id="Path_59935" data-name="Path 59935" d="M1208.735,580.824a5.421,5.421,0,0,0,.336-1.652,6.249,6.249,0,0,0-.007-1.525c-.059-.015-.116-.026-.172-.038-.055.455-.031.931-.067,1.386-.046.6-.167,1.2-.185,1.8,0,.047.079.07.094.023" transform="translate(-1147.096 -548.197)" fill="#9a644a"/>
    <path id="Path_59936" data-name="Path 59936" d="M1192.035,579.731a12.338,12.338,0,0,0,.38-1.811,10.326,10.326,0,0,0,.183-1.316.667.667,0,0,0-.137,0c-.129.481-.2.993-.28,1.48a15.9,15.9,0,0,0-.268,1.632c-.005.075.1.073.121.013" transform="translate(-1131.22 -547.24)" fill="#383838"/>
    <path id="Path_59937" data-name="Path 59937" d="M823.347,601.791a.76.76,0,0,0-.457-.057,4.274,4.274,0,0,0-.493.07,3.281,3.281,0,0,0-.459.123.878.878,0,0,0-.419.227c-.051.066.021.143.086.149a1.262,1.262,0,0,0,.423-.111c.147-.044.3-.083.446-.113a3.659,3.659,0,0,1,.433-.057,1.077,1.077,0,0,0,.441-.078.09.09,0,0,0,0-.153" transform="translate(-779.669 -571.084)" fill="#260e14"/>
    <path id="Path_59938" data-name="Path 59938" d="M899.774,601.076a.582.582,0,0,0-.384-.164,3.1,3.1,0,0,0-.409-.042,2.5,2.5,0,0,0-.4.02c-.129.017-.308.028-.389.145a.085.085,0,0,0,.03.115c.108.063.268.015.385.006a3.431,3.431,0,0,1,.374-.009,2.8,2.8,0,0,1,.362.036.767.767,0,0,0,.4.022.1.1,0,0,0,.034-.13" transform="translate(-852.444 -570.272)" fill="#260e14"/>
    <path id="Path_59939" data-name="Path 59939" d="M850.041,681.891a4.245,4.245,0,0,0,2.451-.1,1.007,1.007,0,0,1-1.116.837c-1.149.013-1.335-.742-1.335-.742" transform="translate(-806.756 -647.078)" fill="#fff"/>
    <path id="Path_59940" data-name="Path 59940" d="M827.988,630.034a.482.482,0,0,0-.331-.083,2.106,2.106,0,0,0-.369.02,1.888,1.888,0,0,0-.349.086c-.08.028-.248.071-.268.176a.031.031,0,0,0,.012.032.164.164,0,0,0,.135,0c.051-.013.1-.029.151-.043a2.311,2.311,0,0,1,.341-.067,2.081,2.081,0,0,1,.335-.015.7.7,0,0,0,.33-.009.067.067,0,0,0,.012-.1" transform="translate(-784.574 -597.871)" fill="#260e14"/>
    <path id="Path_59941" data-name="Path 59941" d="M899.933,628.787a.321.321,0,0,0-.058-.057.534.534,0,0,0-.078-.043.886.886,0,0,0-.177-.052,1.737,1.737,0,0,0-.708.009c-.1.022-.258.053-.3.161a.059.059,0,0,0,.025.064.191.191,0,0,0,.152,0c.049-.013.1-.023.149-.032a1.713,1.713,0,0,1,.319-.032,1.661,1.661,0,0,1,.318.033c.05.01.1.022.149.033.029.006.058.009.087.012a.4.4,0,0,0,.082,0,.057.057,0,0,0,.037-.1" transform="translate(-852.853 -596.594)" fill="#260e14"/>
    <path id="Path_59942" data-name="Path 59942" d="M1773.54,7.6v9.7a7.6,7.6,0,0,0,7.6,7.6h3.139a9.852,9.852,0,0,1-4.869,7.721,18.769,18.769,0,0,0,5.737-2.183,16.952,16.952,0,0,0,2.7-1.963,16.317,16.317,0,0,0,3.042-3.575H1808.3a7.6,7.6,0,0,0,7.6-7.6V7.6a7.6,7.6,0,0,0-7.6-7.6h-27.16a7.6,7.6,0,0,0-7.6,7.6" transform="translate(-1683.229)" fill="#2c448a"/>
    <path id="Path_59943" data-name="Path 59943" d="M2072.143,48.922a4.612,4.612,0,0,1,1.324,1.765,5.867,5.867,0,0,1,.278,2.175c-.02,1.849-.381,4.146.867,5.652a5.862,5.862,0,0,0,3.614,2.16,6.771,6.771,0,0,0,2.406-.173,7.353,7.353,0,0,0,4.2-2.377,6.065,6.065,0,0,0,.874-5.507,8.822,8.822,0,0,0-3.5-4.5,6.71,6.71,0,0,0,.1-4.124,7.606,7.606,0,0,0-2.659-4.293,7.315,7.315,0,0,0-7.745-.76,5.489,5.489,0,0,0-2.729,3.941,5.58,5.58,0,0,0,.54,3.445,7.413,7.413,0,0,0,.888,1.338,14.413,14.413,0,0,0,1.539,1.253" transform="translate(-1963.74 -36.209)" fill="#172b4d"/>
    <path id="Path_59944" data-name="Path 59944" d="M1888.771,394.689a18.771,18.771,0,0,0,5.737-2.183,16.957,16.957,0,0,0,2.7-1.963c-.694-3.477-1.641-7.556-2.018-9.007a.074.074,0,0,1,0-.025.034.034,0,0,1,0-.013,48.547,48.547,0,0,0-3.49,5.47h1.946a9.852,9.852,0,0,1-4.87,7.721" transform="translate(-1792.592 -362.072)" fill="#5b2295"/>
    <path id="Path_59945" data-name="Path 59945" d="M2306.825,383.262h4.54a28.075,28.075,0,0,0-1-2.872,11.959,11.959,0,0,0-1.561-2.8s-1.168,1.235-1.84,4.878c-.051.25-.093.516-.135.791" transform="translate(-2189.358 -358.365)" fill="#5b2295"/>
    <path id="Path_59946" data-name="Path 59946" d="M1995.384,354.938a16.963,16.963,0,0,0,2.7-1.963,16.314,16.314,0,0,0,3.042-3.575H2011.7c.051-.355.1-.711.161-1.066v0a31.194,31.194,0,0,1,1.049-4.6,41.317,41.317,0,0,0-4.886-1.3c-.042-.013-.085-.021-.127-.03l-.406-.076-.431-.076a23.14,23.14,0,0,0-2.458-.3c-.047-.009-.1-.009-.144-.013l-.275-.013c-.144-.008-.292-.008-.444-.013-.1,0-.195,0-.288,0-.376,0-.744.021-1.1.055s-.694.072-1.028.127c-.008,0-.021,0-.03,0-.038.008-.076.013-.114.021a16.354,16.354,0,0,0-2.8.753,13.905,13.905,0,0,0-2.31,1.053.034.034,0,0,0,0,.013.072.072,0,0,0,0,.025c.046.376.58,2.3-.806,6.994a7.636,7.636,0,0,0,.12,3.976" transform="translate(-1893.469 -324.504)" fill="#652ba4"/>
    <path id="Path_59947" data-name="Path 59947" d="M2102.2,343.933l1.938,5.072h1.73l.854-1.007.085-.1.343-.4,1.976-2.318.156-.186.614-.719-.326-.668-.093-.19-.732-1.493a21.022,21.022,0,0,0-2.458-.36q-.2-.019-.419-.025c-.144-.008-.292-.008-.444-.013-.115,0-.208,0-.288,0a3.411,3.411,0,0,0-1.1.059l-.757.973-.1.131v0Z" transform="translate(-1995.153 -324.109)" fill="#5b2295"/>
    <path id="Path_59948" data-name="Path 59948" d="M2138.174,294.62l.161,2.234v0l.021.254.359,4.937h.719c.237-.508.508-1.083.8-1.684.025-.046.047-.093.068-.14.063-.131.131-.267.195-.4,1.138-2.356,2.394-4.861,2.394-4.861V294.9l-.013-.905-.021-1.477-.009-.495-1.057,0-2.636.008h-.588l-.085.6-.059.427-.211,1.337,0,.03-.009.063Z" transform="translate(-2029.296 -277.152)" fill="#ffb69e"/>
    <path id="Path_59949" data-name="Path 59949" d="M2143.023,270.269a4.457,4.457,0,0,0,1.722.333,4.147,4.147,0,0,0,2.71-.879l.034-1.719-4.323,1.238Z" transform="translate(-2033.897 -254.357)" fill="#f68a73"/>
    <path id="Path_59950" data-name="Path 59950" d="M2085.395,106.2c0,.01.005.026.005.036.346,1.913,1.065,3.913,3.046,4.355,1.115.249,4.393.013,5.556-4.319a5.357,5.357,0,0,0,.14-1.261c.005-.067.005-.14.005-.207a4.492,4.492,0,0,0-1.825-3.8,4.552,4.552,0,0,0-4-.657,3.705,3.705,0,0,0-2.8,1.97,10.708,10.708,0,0,0-.129,3.882" transform="translate(-1979.084 -95.058)" fill="#ffb69e"/>
    <path id="Path_59951" data-name="Path 59951" d="M2179.07,219.3a0,0,0,0,1,0,.007,0,0,0,1,1,0-.007" transform="translate(-2068.105 -208.138)" fill="#594e8a"/>
    <path id="Path_59952" data-name="Path 59952" d="M2191,185.7a.258.258,0,0,1,.066,0c.239.044.249.365.173.544a.232.232,0,0,1-.21.159.257.257,0,0,1-.218-.191c-.064-.172-.054-.514.19-.515" transform="translate(-2079.223 -176.243)" fill="#262d4f"/>
    <path id="Path_59953" data-name="Path 59953" d="M2123.21,184.209a.254.254,0,0,1,.065,0c.239.044.249.365.173.544a.231.231,0,0,1-.21.159.257.257,0,0,1-.218-.191c-.064-.172-.054-.514.19-.515" transform="translate(-2014.881 -174.828)" fill="#262d4f"/>
    <path id="Path_59954" data-name="Path 59954" d="M2150.861,189.08c.075-.244.038-.552.169-.764a.019.019,0,0,1,.029-.007c.216.172.129.539.069.774-.042.164-.1.325-.155.485-.019.053-.119.224-.1.281.051.157.344.122.454.1.182-.039.213.253.029.29-.26.051-.808-.027-.779-.375a4.263,4.263,0,0,1,.285-.781" transform="translate(-2041.064 -178.717)" fill="#f68a73"/>
    <path id="Path_59955" data-name="Path 59955" d="M2248.627,184.209s.607-1.236,1.3-.681c.529.422.065,2.989-1.578,2.916Z" transform="translate(-2133.864 -174.047)" fill="#ffb69e"/>
    <path id="Path_59956" data-name="Path 59956" d="M2080.679,65.211a5.414,5.414,0,0,1-2.873-.1,4.355,4.355,0,0,0-2.835.372,2.362,2.362,0,0,0-.966,1.039,12.527,12.527,0,0,1-.69,1.264c-.649-3.286,3.775-5.716,6.539-5.258a4.866,4.866,0,0,1,3.99,3.865c.116.757-.215,2.672-1.356,1.758-.245-.2-2.06-2.838-1.809-2.936" transform="translate(-1967.679 -59.287)" fill="#172b4d"/>
    <path id="Path_59957" data-name="Path 59957" d="M2138.538,338.8h.005l.01-.094Z" transform="translate(-2029.641 -321.462)" fill="#ffb69e"/>
    <path id="Path_59958" data-name="Path 59958" d="M2142.5,246.6a1.351,1.351,0,0,1,.494.043,2.832,2.832,0,0,0,.535.047,2.944,2.944,0,0,0,.525-.047c.177-.034.346-.1.521-.138.044-.011.087.049.048.082a1.952,1.952,0,0,1-1.058.376,2.38,2.38,0,0,1-.581-.021.778.778,0,0,1-.513-.233c-.027-.034-.025-.1.029-.109" transform="translate(-2033.361 -233.949)" fill="#f68a73"/>
    <path id="Path_59959" data-name="Path 59959" d="M2177.383,168.869a.4.4,0,0,1,.127-.034c.042,0,.084-.008.125-.009.089,0,.179,0,.268.01a4.58,4.58,0,0,1,.543.058,2.366,2.366,0,0,1,.5.143.7.7,0,0,1,.4.29c.013.028,0,.073-.04.069a1.811,1.811,0,0,1-.429-.164,2.679,2.679,0,0,0-.49-.126,4.155,4.155,0,0,0-.5-.05c-.084,0-.168,0-.252-.008-.042,0-.083-.009-.125-.013a.421.421,0,0,1-.127-.036.068.068,0,0,1,0-.131" transform="translate(-2066.462 -160.228)" fill="#262d4f"/>
    <path id="Path_59960" data-name="Path 59960" d="M2110.642,163.62a.728.728,0,0,1,.377-.092,3.321,3.321,0,0,1,.4,0,2.524,2.524,0,0,1,.788.141c.087.035.089.191-.025.181-.256-.022-.506-.072-.764-.082-.124,0-.249,0-.372,0a1.063,1.063,0,0,1-.389-.02.07.07,0,0,1-.017-.127" transform="translate(-2003.134 -155.195)" fill="#262d4f"/>
    <path id="Path_59961" data-name="Path 59961" d="M2251.439,202.742a.133.133,0,0,0-.174-.035,2.84,2.84,0,0,0-.418.383,1.058,1.058,0,0,0-.3.49c-.011.063.055.136.12.092a.727.727,0,0,0,.109-.087c.031-.031.06-.064.089-.1s.062-.071.092-.108l.04.094.1.228a.135.135,0,0,0,.246-.032.154.154,0,0,0-.013-.1l-.1-.221c-.017-.036-.032-.073-.05-.108a.365.365,0,0,0-.034-.05,3.853,3.853,0,0,1,.284-.27.134.134,0,0,0,.011-.177" transform="translate(-2135.949 -192.367)" fill="#f68a73"/>
    <path id="Path_59962" data-name="Path 59962" d="M2719,821.441v9.1a7.121,7.121,0,0,1-7.128,7.128h-16.694c-.055.169-.11.334-.169.495a17.053,17.053,0,0,1-1.574,3.262q-.355.577-.736,1.092a17.293,17.293,0,0,1-5.546,4.971,24.881,24.881,0,0,0,2.635-6.062,22.674,22.674,0,0,0,.728-3.757h-4.133a7.125,7.125,0,0,1-7.128-7.128v-9.1a7.129,7.129,0,0,1,7.128-7.128h25.489a7.126,7.126,0,0,1,7.128,7.128" transform="translate(-2542.822 -772.847)" fill="#fac033"/>
    <path id="Path_59963" data-name="Path 59963" d="M2869.7,1130.048h-13.589c-.055.169-.11.334-.169.495a17.074,17.074,0,0,1-1.574,3.262h-3.647a22.679,22.679,0,0,0,.728-3.757H2849c-.093-2.784-.182-4.891-.182-4.891a26.294,26.294,0,0,1,6.62-2.492c.3-.059.6-.106.9-.144h.009c.267-.038.537-.063.808-.085s.52-.038.791-.046h0c1.121-.042,2.352,0,3.846.076.034,0,.072,0,.11.009.266.013.525.034.778.055s.482.051.719.084h0c.009,0,.021,0,.025,0,.364.047.711.106,1.041.169a14.5,14.5,0,0,1,4.514,1.582Z" transform="translate(-2703.754 -1065.221)" fill="#fff"/>
    <path id="Path_59964" data-name="Path 59964" d="M3018.123,1038.9c-.326,1.13-1.648,2.963-2.433,2.975-1.73.027-3.1-3.1-3.1-3.1V1034.1l5.294.8.031.53.055.887.031.51.028.443Z" transform="translate(-2859.181 -981.443)" fill="#974034"/>
    <path id="Path_59965" data-name="Path 59965" d="M3018,1036.828a4.5,4.5,0,0,1-2.413.636,4.592,4.592,0,0,1-2.292-.561,3.84,3.84,0,0,1-.706-.506v-2.3l5.294.8.031.53.055.887Z" transform="translate(-2859.181 -981.443)" fill="#662c24"/>
    <path id="Path_59966" data-name="Path 59966" d="M2833.869,1124.2v.063c0,.343-.207,3.837-.4,8.012a17.024,17.024,0,0,1-1.574,3.262q-.355.578-.736,1.092a17.3,17.3,0,0,1-5.546,4.971,24.873,24.873,0,0,0,2.635-6.062,22.7,22.7,0,0,0,.728-3.757h-3.833c.418-3.012.774-5.292.774-5.292a49.614,49.614,0,0,1,7.073-2.124c.3-.064.588-.114.88-.165" transform="translate(-2681.282 -1066.952)" fill="#7a869a"/>
    <path id="Path_59967" data-name="Path 59967" d="M3143.089,1131.755h-7.065c-.025-2.276-.139-4.518-.16-6.8,0-.207,0-.419-.009-.626v-.152c0-.013.41.068.986.186,1.3.279,5.042,1.108,5.334,1.282l0,0c.571.355.63,3.274.909,6.109" transform="translate(-2976.174 -1066.928)" fill="#7a869a"/>
    <path id="Path_59968" data-name="Path 59968" d="M3037.773,1156.007a16.633,16.633,0,0,0,2.712-.179c.5-.178-.464,2.3-.464,2.3l-1.543.061s-1.026-1.794-.7-2.187" transform="translate(-2883.026 -1096.964)" fill="#5e6c84"/>
    <path id="Path_59969" data-name="Path 59969" d="M3052.2,1204.873h-1.832l.123-3.6,1.544-.063v0Z" transform="translate(-2895.041 -1140.046)" fill="#5e6c84"/>
    <path id="Path_59970" data-name="Path 59970" d="M3137.082,1130.98l.838.774h-1.9c-.025-2.276-.139-4.518-.16-6.8,0-.207,0-.419-.009-.626v-.152c0-.013.41.068.986.186l.055.135,1.84,4.671Z" transform="translate(-2976.174 -1066.928)" fill="#5e6c84"/>
    <path id="Path_59971" data-name="Path 59971" d="M2927.229,1131.779c-.055.169-.11.334-.169.495a17.041,17.041,0,0,1-1.574,3.262q-.356.578-.736,1.092l-.216-1.092-.778-3.985,1.95-1.273-1.5-1.341c.825-1.794,1.942-3.8,2.352-4.539a.363.363,0,0,0,.021-.034c.3-.064.588-.114.88-.165v.063c.008.449-.233,7.518-.233,7.518" transform="translate(-2774.875 -1066.952)" fill="#5e6c84"/>
    <path id="Path_59972" data-name="Path 59972" d="M3081.9,1103.421l-.823-1.118-2.074,2.841,2.114,2.323Z" transform="translate(-2922.215 -1046.173)" fill="#dfe1e5"/>
    <path id="Path_59973" data-name="Path 59973" d="M2996.533,1101.406l.817-1.227,2.08,3.011-2.115,2.26Z" transform="translate(-2843.946 -1044.156)" fill="#dfe1e5"/>
    <path id="Path_59974" data-name="Path 59974" d="M2758.888,1174.438h-.829a7.078,7.078,0,0,1-3.283-.8,15.676,15.676,0,0,1,4.357-4.493,23.677,23.677,0,0,1-.245,5.292" transform="translate(-2614.499 -1109.611)" fill="#5e6c84"/>
    <path id="Path_59975" data-name="Path 59975" d="M3265.457,1158.712a7.164,7.164,0,0,1-2.437.427h-2.361c-.195-1.768-.423-3.8-.685-6.113l0,0a19.7,19.7,0,0,1,5.478,5.682" transform="translate(-3093.972 -1094.313)" fill="#5e6c84"/>
    <path id="Path_59976" data-name="Path 59976" d="M2954.658,804.334a15.471,15.471,0,0,1,.1-4.6c.45-2.1.835-3.3,3.3-3.61s5.892-.442,6.9,1.138a10.492,10.492,0,0,1,.776,7.4c-.688,2.711-10.056.283-10.056.283Z" transform="translate(-2804.079 -755.403)" fill="#260e14"/>
    <path id="Path_59977" data-name="Path 59977" d="M2981.547,856.314s-.039,0-.114.008c0,.212-.008.424-.008.628-.02.184-.039.369-.067.537a1.717,1.717,0,0,1-.047.263,11.516,11.516,0,0,1-.318,1.687,6.215,6.215,0,0,1-.8,1.672l-.094.133a4.653,4.653,0,0,1-.812.781,4.409,4.409,0,0,1-2.716.84,4.593,4.593,0,0,1-2.292-.561,4.259,4.259,0,0,1-1.15-.954c-.008-.02-.027-.031-.035-.047a7.887,7.887,0,0,1-1.507-3.551,9.319,9.319,0,0,1-.106-1.476c0-.1.008-.2.016-.31l-.016-.012s.008-.043.024-.122a5.917,5.917,0,0,1,.18-1.013c.161-.895.224-1.263.3-1.652.138-.659.291-1.99,1.821-2.225s5.184-.341,6.526.4,1.217,4.972,1.217,4.972" transform="translate(-2820.166 -807.443)" fill="#974034"/>
    <path id="Path_59978" data-name="Path 59978" d="M3079.344,987.837a0,0,0,0,1,0,.008,0,0,0,0,1,0-.008" transform="translate(-2922.535 -937.535)" fill="#594e8a"/>
    <path id="Path_59979" data-name="Path 59979" d="M3027.8,944.313a.386.386,0,0,1,.178-.339.274.274,0,0,1,.342.118.478.478,0,0,1,.046.364.543.543,0,0,1-.056.14.345.345,0,0,1-.108.173.225.225,0,0,1-.333-.069.669.669,0,0,1-.069-.388" transform="translate(-2873.621 -895.884)" fill="#260e14"/>
    <path id="Path_59980" data-name="Path 59980" d="M3108.188,944.313a.384.384,0,0,1,.178-.339.275.275,0,0,1,.342.118.478.478,0,0,1,.045.364.526.526,0,0,1-.056.14.342.342,0,0,1-.108.173.225.225,0,0,1-.333-.069.669.669,0,0,1-.069-.388" transform="translate(-2949.911 -895.884)" fill="#260e14"/>
    <path id="Path_59981" data-name="Path 59981" d="M2942.946,935.822s-.633-1.217-1.421-.6c-.614.484-.1,3.457,1.8,3.388Z" transform="translate(-2791.505 -887.436)" fill="#974034"/>
    <path id="Path_59982" data-name="Path 59982" d="M2956.9,957.979a1.762,1.762,0,0,1,.38.493c.08.139.213.339.165.505a.064.064,0,0,1-.092.037.694.694,0,0,1-.209-.312.407.407,0,0,0-.086.013.321.321,0,0,0-.113.063.093.093,0,0,1-.131-.131.364.364,0,0,1,.236-.115c-.1-.149-.213-.281-.312-.427-.071-.105.079-.195.164-.126" transform="translate(-2806.155 -909.174)" fill="#662c24"/>
    <path id="Path_59983" data-name="Path 59983" d="M3159.586,935.822s.632-1.217,1.421-.6c.615.484.1,3.457-1.8,3.388Z" transform="translate(-2998.338 -887.436)" fill="#974034"/>
    <path id="Path_59984" data-name="Path 59984" d="M3169.988,957.979a1.753,1.753,0,0,0-.38.493c-.08.139-.213.339-.165.505a.063.063,0,0,0,.092.037.69.69,0,0,0,.209-.312.412.412,0,0,1,.086.013.326.326,0,0,1,.113.063.093.093,0,0,0,.131-.131.366.366,0,0,0-.236-.115c.1-.149.213-.281.313-.427.072-.105-.078-.195-.163-.126" transform="translate(-3008.041 -909.174)" fill="#662c24"/>
    <path id="Path_59985" data-name="Path 59985" d="M3009.216,915.5a1.539,1.539,0,0,0-.768-.106,6.434,6.434,0,0,0-.683.04,4.468,4.468,0,0,0-.715.11c-.165.046-.569.239-.376.464.134.156.4.128.586.112.2-.018.409-.037.614-.044s.412-.006.617,0a1.805,1.805,0,0,0,.654-.016.309.309,0,0,0,.07-.56" transform="translate(-2853.522 -868.775)" fill="#260e14"/>
    <path id="Path_59986" data-name="Path 59986" d="M3094.428,915.658a1.542,1.542,0,0,0-.762-.142,6.411,6.411,0,0,0-.684.008,4.445,4.445,0,0,0-.719.077c-.167.038-.58.212-.4.445.126.162.4.147.58.139.205-.008.41-.018.616-.015s.412.013.617.028a1.8,1.8,0,0,0,.654.015.309.309,0,0,0,.1-.556" transform="translate(-2934.38 -868.891)" fill="#260e14"/>
    <path id="Path_59987" data-name="Path 59987" d="M3058.515,976.282a.568.568,0,0,0-.252-.383.068.068,0,0,0-.1.076c.022.118.137.2.145.323a.185.185,0,0,1-.137.2,1.721,1.721,0,0,0-.337.064,1.358,1.358,0,0,1-.3.132.638.638,0,0,1-.3-.078.941.941,0,0,0-.349-.07c-.076,0-.2.026-.233-.062-.042-.112.019-.239-.015-.354a.058.058,0,0,0-.1-.014.551.551,0,0,0-.1.457.349.349,0,0,0,.32.227c.063.007.128,0,.191.01a.842.842,0,0,1,.215.071.751.751,0,0,0,.451.078c.145-.031.259-.136.4-.171s.3-.014.42-.128a.366.366,0,0,0,.089-.374" transform="translate(-2900.774 -926.198)" fill="#662c24"/>
    <path id="Path_59988" data-name="Path 59988" d="M3049.245,1014.74c-.232.068-.448.18-.681.244a3.078,3.078,0,0,1-.823.094c-.261,0-.525-.013-.785-.038a1.3,1.3,0,0,1-.656-.207c-.062-.047-.128.051-.08.1a1.1,1.1,0,0,0,.645.336,5.776,5.776,0,0,0,.876.087,3.032,3.032,0,0,0,.9-.092,1.027,1.027,0,0,0,.672-.438.062.062,0,0,0-.069-.09" transform="translate(-2891.088 -963.065)" fill="#662c24"/>
    <path id="Path_59989" data-name="Path 59989" d="M760.7,1932.833s-9.04,5.294-14.969,8.382c-.9.472-1.734.89-2.45,1.231,0,0-6.556,19.768-9.555,28.363h-43.8c5.043-8.885,22-44.211,24.253-54.911,3.1-14.718,21.908-6.111,21.908-6.111l12.705,11.9,4.327,4.048Z" transform="translate(-654.789 -1810.164)" fill="#fff"/>
    <path id="Path_59990" data-name="Path 59990" d="M720.972,1963.625h-44.79l.345-.608c2.341-4.125,7.748-14.9,13.157-26.743,3.566-7.808,9.744-21.836,11.052-28.051.776-3.686,2.59-6.271,5.391-7.683a12.863,12.863,0,0,1,5.582-1.249,23.839,23.839,0,0,1,5.537.61,32.589,32.589,0,0,1,5.967,1.925l.06.028,12.754,11.942,4.327,4.048,7.98,7.474-.471.276c-.091.053-9.117,5.335-14.987,8.392-.84.44-1.615.83-2.306,1.162-.64,1.927-6.681,20.12-9.5,28.2Zm-43.395-.815h42.816c3.006-8.634,9.393-27.889,9.458-28.084l.055-.165.157-.075c.72-.343,1.54-.754,2.436-1.224,5.082-2.647,12.545-6.971,14.481-8.1l-7.182-6.728-4.326-4.048-12.655-11.85a32.783,32.783,0,0,0-5.761-1.847,22.981,22.981,0,0,0-5.34-.587,12.051,12.051,0,0,0-5.222,1.163c-2.568,1.3-4.236,3.692-4.959,7.123-1.324,6.292-7.528,20.383-11.108,28.222-5.171,11.322-10.344,21.678-12.848,26.2" transform="translate(-641.75 -1802.572)" fill="#1d1d1b"/>
    <path id="Path_59991" data-name="Path 59991" d="M1431.868,2123.762s3.888-4.887,3.888-14.24l.865,10.032a5.773,5.773,0,0,1-4.754,4.208" transform="translate(-1358.956 -2002.103)"/>
    <path id="Path_59992" data-name="Path 59992" d="M1418.189,1153.11c-4.732-3.131-30.646,20.23-39.621,28.571-6.558,5.561-9.915-6.418-16.142-2.658-5.581,4.653,2.939,12.39,4.072,18.129-.581,2.531,11.046,2.959,12.728,4.573,15.529,5.34,17.854,10.216,19.672,8.664,2.708-2.6,4.369-7.755,2.786-9.89-1.962-3.08-1.433-.619-2.5-4.639-1.443-5.08-4.324-14.138-3.879-13.351,19.065-18.815,29.269-25.132,22.882-29.4" transform="translate(-1291.266 -1094.12)" fill="#ffb69e"/>
    <path id="Path_59993" data-name="Path 59993" d="M1508.226,882.653V809.834a5.665,5.665,0,0,1,5.665-5.665h33.4a5.665,5.665,0,0,1,5.665,5.665v72.819a5.665,5.665,0,0,1-5.665,5.665h-33.4a5.665,5.665,0,0,1-5.665-5.665" transform="translate(-1431.425 -763.22)"/>
    <path id="Rectangle_45" data-name="Rectangle 45" d="M20.4,0h0A20.4,20.4,0,0,1,40.8,20.4V59.816a20.4,20.4,0,0,1-20.4,20.4h0A20.4,20.4,0,0,1,0,59.816V20.4A20.4,20.4,0,0,1,20.4,0Z" transform="translate(78.766 42.915)" fill="#c1c7d0"/>
    <path id="Path_59994" data-name="Path 59994" d="M1600.966,860.651v72.82a2.9,2.9,0,0,1-.358,1.4,2.968,2.968,0,0,1-1.415,1.293c-.089.038-.18.074-.274.1a2.91,2.91,0,0,1-.884.137h-33.4a2.821,2.821,0,0,1-.722-.091c-.079-.02-.157-.043-.236-.071a2.935,2.935,0,0,1-1.984-2.774v-72.82a2.942,2.942,0,0,1,2.937-2.937h33.4a2.942,2.942,0,0,1,2.937,2.937" transform="translate(-1482.165 -814.038)" fill="#fff"/>
    <path id="Path_59995" data-name="Path 59995" d="M1131.189,1388.053c-2.264,9.37-14.111,17.045-17.775,6.537-4.6-12.563,4.256-35.29,14.464-48.056.076-.107.152-.216.226-.32.1-.145.2-.29.3-.429a50.11,50.11,0,0,1,3.089-4.438,4.389,4.389,0,0,1,.368-.361c.787-.681,1.552-.727,2.528.185,4.688,4.339-2.9,15.439-2.851,20.915-.335,8.912,1.967,16.379-.348,25.968" transform="translate(-1055.533 -1272.22)" fill="#fff"/>
    <path id="Path_59996" data-name="Path 59996" d="M1111.731,1392.482a5.7,5.7,0,0,1-3.523-1.165,8.631,8.631,0,0,1-2.775-4.166,26.331,26.331,0,0,1-1.139-11.184,57.422,57.422,0,0,1,2.814-13.032,84.616,84.616,0,0,1,5.6-13.04,73.548,73.548,0,0,1,7.248-11.182l.14-.2.079-.112c.074-.1.147-.211.219-.315l.076-.11c.418-.611.792-1.183,1.154-1.737a22.642,22.642,0,0,1,1.971-2.746,4.78,4.78,0,0,1,.4-.395,2.049,2.049,0,0,1,3.071.2c1.44,1.333,1.934,3.348,1.511,6.161a42.157,42.157,0,0,1-2.244,7.595c-1.032,2.848-2.006,5.538-1.988,7.453v.019a81.851,81.851,0,0,0,.333,9.31c.39,5.2.792,10.587-.693,16.738h0a17.572,17.572,0,0,1-4.68,8.163,11.713,11.713,0,0,1-7.241,3.738q-.169.008-.335.008m13.666-59.171a1.35,1.35,0,0,0-.869.406,3.963,3.963,0,0,0-.336.329,22.258,22.258,0,0,0-1.888,2.64c-.347.531-.741,1.133-1.165,1.752l-.076.111c-.073.106-.148.214-.224.322l-.079.112-.149.211-.013.018a72.708,72.708,0,0,0-7.172,11.065,83.8,83.8,0,0,0-5.545,12.912,56.616,56.616,0,0,0-2.776,12.845,25.535,25.535,0,0,0,1.093,10.84l0,.006c1.136,3.259,3.151,4.912,5.825,4.78a10.909,10.909,0,0,0,6.706-3.5,16.986,16.986,0,0,0,4.463-7.778c1.455-6.026,1.074-11.106.672-16.485a82.57,82.57,0,0,1-.335-9.393c-.016-2.06.981-4.813,2.037-7.728a41.615,41.615,0,0,0,2.2-7.438c.38-2.526-.032-4.306-1.26-5.443a1.714,1.714,0,0,0-1.116-.582" transform="translate(-1047.936 -1264.644)" fill="#1d1d1b"/>
    <path id="Path_59997" data-name="Path 59997" d="M1635.522,963.689h-31.115a2.054,2.054,0,0,1-2.054-2.054V955.6a2.054,2.054,0,0,1,2.054-2.054h31.115a2.054,2.054,0,0,1,2.054,2.054v6.039a2.054,2.054,0,0,1-2.054,2.054" transform="translate(-1520.759 -904.985)" fill="#dfe1e5"/>
    <path id="Path_59998" data-name="Path 59998" d="M1637.7,989.735a3.365,3.365,0,1,1-3.366-3.366,3.362,3.362,0,0,1,3.366,3.366" transform="translate(-1547.919 -936.142)" fill="#fff"/>
    <path id="Path_59999" data-name="Path 59999" d="M2200.728,1026.622a1.387,1.387,0,1,1,1.387,1.387,1.387,1.387,0,0,1-1.387-1.387" transform="translate(-2088.664 -973.029)" fill="#36b37e"/>
    <path id="Path_60000" data-name="Path 60000" d="M1803.459,999.794h-9.168a.387.387,0,1,1,0-.774h9.168a.387.387,0,0,1,0,.774" transform="translate(-1702.556 -948.149)" fill="#fff"/>
    <path id="Path_60001" data-name="Path 60001" d="M1812.155,1045.653h-17.864a.387.387,0,1,1,0-.774h17.864a.387.387,0,0,1,0,.774" transform="translate(-1702.556 -991.673)" fill="#fff"/>
    <path id="Path_60002" data-name="Path 60002" d="M1812.155,1091.513h-17.864a.387.387,0,1,1,0-.774h17.864a.387.387,0,0,1,0,.774" transform="translate(-1702.556 -1035.197)" fill="#fff"/>
    <path id="Path_60003" data-name="Path 60003" d="M2210.878,1044.008a.127.127,0,0,1-.081-.029l-.707-.586a.127.127,0,1,1,.162-.2l.615.509.833-.9a.127.127,0,1,1,.187.172l-.915.989a.126.126,0,0,1-.093.041" transform="translate(-2097.506 -989.666)" fill="#f4f5f7"/>
    <path id="Path_60004" data-name="Path 60004" d="M1660.462,1023.129a3.362,3.362,0,0,1-4.2.033,2.67,2.67,0,0,1,1.39-1.992,1.287,1.287,0,1,1,1.41-.01,2.425,2.425,0,0,1,1.4,1.969" transform="translate(-1571.926 -966.921)" fill="#a497e8"/>
    <path id="Path_60005" data-name="Path 60005" d="M1635.522,1238.846h-31.115a2.054,2.054,0,0,1-2.054-2.054v-6.04a2.054,2.054,0,0,1,2.054-2.054h31.115a2.054,2.054,0,0,1,2.054,2.054v6.04a2.054,2.054,0,0,1-2.054,2.054" transform="translate(-1520.759 -1166.131)" fill="#dfe1e5"/>
    <path id="Path_60006" data-name="Path 60006" d="M1637.7,1264.892a3.365,3.365,0,1,1-3.366-3.366,3.361,3.361,0,0,1,3.366,3.366" transform="translate(-1547.919 -1197.287)" fill="#fff"/>
    <path id="Path_60007" data-name="Path 60007" d="M2200.728,1301.779a1.387,1.387,0,1,1,1.387,1.387,1.387,1.387,0,0,1-1.387-1.387" transform="translate(-2088.664 -1234.175)" fill="#36b37e"/>
    <path id="Path_60008" data-name="Path 60008" d="M1803.459,1274.951h-9.168a.387.387,0,1,1,0-.774h9.168a.387.387,0,0,1,0,.774" transform="translate(-1702.556 -1209.294)" fill="#fff"/>
    <path id="Path_60009" data-name="Path 60009" d="M1812.155,1320.81h-17.864a.387.387,0,1,1,0-.774h17.864a.387.387,0,0,1,0,.774" transform="translate(-1702.556 -1252.818)" fill="#fff"/>
    <path id="Path_60010" data-name="Path 60010" d="M1812.155,1366.67h-17.864a.387.387,0,1,1,0-.774h17.864a.387.387,0,0,1,0,.774" transform="translate(-1702.556 -1296.343)" fill="#fff"/>
    <path id="Path_60011" data-name="Path 60011" d="M2210.878,1319.165a.126.126,0,0,1-.081-.029l-.707-.585a.127.127,0,1,1,.162-.2l.615.509.833-.9a.127.127,0,0,1,.187.172l-.915.989a.127.127,0,0,1-.093.041" transform="translate(-2097.506 -1250.812)" fill="#f4f5f7"/>
    <path id="Path_60012" data-name="Path 60012" d="M1660.462,1298.287a3.362,3.362,0,0,1-4.2.033,2.67,2.67,0,0,1,1.39-1.992,1.287,1.287,0,1,1,1.41-.01,2.425,2.425,0,0,1,1.4,1.969" transform="translate(-1571.926 -1228.068)" fill="#ff9f54"/>
    <path id="Path_60013" data-name="Path 60013" d="M1635.522,1514h-31.115a2.054,2.054,0,0,1-2.054-2.054v-6.04a2.054,2.054,0,0,1,2.054-2.054h31.115a2.054,2.054,0,0,1,2.054,2.054v6.04a2.054,2.054,0,0,1-2.054,2.054" transform="translate(-1520.759 -1427.276)" fill="#dfe1e5"/>
    <path id="Path_60014" data-name="Path 60014" d="M1637.7,1540.049a3.365,3.365,0,1,1-3.366-3.366,3.362,3.362,0,0,1,3.366,3.366" transform="translate(-1547.919 -1458.433)" fill="#fff"/>
    <path id="Path_60015" data-name="Path 60015" d="M2200.728,1576.936a1.387,1.387,0,1,1,1.387,1.387,1.387,1.387,0,0,1-1.387-1.387" transform="translate(-2088.664 -1495.32)" fill="#36b37e"/>
    <path id="Path_60016" data-name="Path 60016" d="M1803.459,1550.108h-9.168a.387.387,0,1,1,0-.774h9.168a.387.387,0,0,1,0,.774" transform="translate(-1702.556 -1470.44)" fill="#fff"/>
    <path id="Path_60017" data-name="Path 60017" d="M1812.155,1595.967h-17.864a.387.387,0,1,1,0-.774h17.864a.387.387,0,0,1,0,.774" transform="translate(-1702.556 -1513.964)" fill="#fff"/>
    <path id="Path_60018" data-name="Path 60018" d="M1812.155,1641.827h-17.864a.387.387,0,1,1,0-.774h17.864a.387.387,0,0,1,0,.774" transform="translate(-1702.556 -1557.489)" fill="#fff"/>
    <path id="Path_60019" data-name="Path 60019" d="M2210.878,1594.323a.127.127,0,0,1-.081-.029l-.707-.585a.127.127,0,1,1,.162-.2l.615.509.833-.9a.127.127,0,0,1,.187.173l-.915.989a.126.126,0,0,1-.093.041" transform="translate(-2097.506 -1511.958)" fill="#f4f5f7"/>
    <path id="Path_60020" data-name="Path 60020" d="M1660.462,1573.443a3.362,3.362,0,0,1-4.2.033,2.67,2.67,0,0,1,1.39-1.992,1.287,1.287,0,1,1,1.41-.01,2.425,2.425,0,0,1,1.4,1.969" transform="translate(-1571.926 -1489.213)" fill="#a497e8"/>
    <path id="Path_60021" data-name="Path 60021" d="M1635.522,1789.16h-31.115a2.054,2.054,0,0,1-2.054-2.054v-6.04a2.054,2.054,0,0,1,2.054-2.054h31.115a2.054,2.054,0,0,1,2.054,2.054v6.04a2.054,2.054,0,0,1-2.054,2.054" transform="translate(-1520.759 -1688.422)" fill="#dfe1e5"/>
    <path id="Path_60022" data-name="Path 60022" d="M1637.7,1815.206a3.365,3.365,0,1,1-3.366-3.366,3.361,3.361,0,0,1,3.366,3.366" transform="translate(-1547.919 -1719.579)" fill="#fff"/>
    <path id="Path_60023" data-name="Path 60023" d="M2200.728,1852.093a1.387,1.387,0,1,1,1.387,1.387,1.387,1.387,0,0,1-1.387-1.387" transform="translate(-2088.664 -1756.466)" fill="#fff"/>
    <path id="Path_60024" data-name="Path 60024" d="M1803.459,1825.265h-9.168a.387.387,0,1,1,0-.774h9.168a.387.387,0,0,1,0,.774" transform="translate(-1702.556 -1731.586)" fill="#fff"/>
    <path id="Path_60025" data-name="Path 60025" d="M1812.155,1871.125h-17.864a.387.387,0,1,1,0-.774h17.864a.387.387,0,0,1,0,.774" transform="translate(-1702.556 -1775.11)" fill="#fff"/>
    <path id="Path_60026" data-name="Path 60026" d="M1812.155,1916.984h-17.864a.387.387,0,1,1,0-.774h17.864a.387.387,0,0,1,0,.774" transform="translate(-1702.556 -1818.634)" fill="#fff"/>
    <path id="Path_60027" data-name="Path 60027" d="M1660.462,1848.6a3.362,3.362,0,0,1-4.2.033,2.67,2.67,0,0,1,1.39-1.992,1.287,1.287,0,1,1,1.41-.01,2.425,2.425,0,0,1,1.4,1.969" transform="translate(-1571.926 -1750.357)" fill="#ff9f54"/>
    <path id="Path_60028" data-name="Path 60028" d="M1635.522,2064.316h-31.115a2.054,2.054,0,0,1-2.054-2.054v-6.04a2.054,2.054,0,0,1,2.054-2.054h31.115a2.054,2.054,0,0,1,2.054,2.054v6.04a2.054,2.054,0,0,1-2.054,2.054" transform="translate(-1520.759 -1949.567)" fill="#dfe1e5"/>
    <path id="Path_60029" data-name="Path 60029" d="M1637.7,2090.364a3.365,3.365,0,1,1-3.366-3.366,3.362,3.362,0,0,1,3.366,3.366" transform="translate(-1547.919 -1980.724)" fill="#fff"/>
    <path id="Path_60030" data-name="Path 60030" d="M2200.728,2127.25a1.387,1.387,0,1,1,1.387,1.387,1.387,1.387,0,0,1-1.387-1.387" transform="translate(-2088.664 -2017.611)" fill="#fff"/>
    <path id="Path_60031" data-name="Path 60031" d="M1803.459,2100.422h-9.168a.387.387,0,1,1,0-.774h9.168a.387.387,0,0,1,0,.774" transform="translate(-1702.556 -1992.731)" fill="#fff"/>
    <path id="Path_60032" data-name="Path 60032" d="M1812.155,2146.282h-17.864a.387.387,0,1,1,0-.774h17.864a.387.387,0,0,1,0,.774" transform="translate(-1702.556 -2036.256)" fill="#fff"/>
    <path id="Path_60033" data-name="Path 60033" d="M1812.155,2192.141h-17.864a.387.387,0,1,1,0-.774h17.864a.387.387,0,0,1,0,.774" transform="translate(-1702.556 -2079.78)" fill="#fff"/>
    <path id="Path_60034" data-name="Path 60034" d="M1660.462,2123.757a3.363,3.363,0,0,1-4.2.033,2.67,2.67,0,0,1,1.39-1.992,1.287,1.287,0,1,1,1.41-.01,2.424,2.424,0,0,1,1.4,1.969" transform="translate(-1571.926 -2011.504)" fill="#a497e8"/>
    <path id="Path_60035" data-name="Path 60035" d="M2255.246,1584.025c.935-6.9,17.3-11.1,13.167-.824.029,0,4,3.8.127,9.215,10.928,12.478-18.387,17.925-8.715,5.345,0,0-8.245-2.613-.444-9.71,0,0-4.6.2-4.135-4.026" transform="translate(-2140.375 -1496.732)" fill="#fff"/>
    <path id="Path_60036" data-name="Path 60036" d="M2255.246,1584.025c.935-6.9,17.3-11.1,13.167-.824.029,0,4,3.8.127,9.215,10.928,12.478-18.387,17.925-8.715,5.345,0,0-8.245-2.613-.444-9.71C2259.381,1588.051,2254.783,1588.254,2255.246,1584.025Z" transform="translate(-2140.375 -1496.732)" fill="none" stroke="#1d1d1b" stroke-miterlimit="10" stroke-width="16"/>
    <path id="Path_60037" data-name="Path 60037" d="M2344.891,1703.051a.254.254,0,0,1-.122-.477l7.827-4.281a.254.254,0,0,1,.244.446l-7.827,4.281a.254.254,0,0,1-.122.031" transform="translate(-2225.244 -1611.784)"/>
    <path id="Path_60038" data-name="Path 60038" d="M2342.045,1700.354a.407.407,0,0,1-.2-.764l7.827-4.281a.407.407,0,1,1,.39.714l-7.827,4.281a.407.407,0,0,1-.2.05m7.827-4.789a.1.1,0,0,0-.048.012l-7.827,4.281a.1.1,0,0,0-.04.137.1.1,0,0,0,.137.04l7.827-4.281a.1.1,0,0,0-.02-.186.1.1,0,0,0-.029,0" transform="translate(-2222.399 -1608.934)" fill="#1d1d1b"/>
    <path id="Path_60039" data-name="Path 60039" d="M2352.322,1886.113a.254.254,0,0,1-.129-.473l7.687-4.541a.254.254,0,1,1,.258.438l-7.687,4.541a.256.256,0,0,1-.129.035" transform="translate(-2232.297 -1785.278)"/>
    <path id="Path_60040" data-name="Path 60040" d="M2349.471,1883.416a.409.409,0,0,1-.351-.2.407.407,0,0,1,.144-.557l7.687-4.541a.407.407,0,0,1,.414.7l-7.687,4.541a.408.408,0,0,1-.207.057m7.686-5.049a.1.1,0,0,0-.051.014l-7.687,4.541a.1.1,0,0,0-.036.139.1.1,0,0,0,.139.036l7.687-4.541a.1.1,0,0,0-.026-.185.108.108,0,0,0-.026,0" transform="translate(-2229.447 -1782.428)" fill="#1d1d1b"/>
    <path id="Path_60041" data-name="Path 60041" d="M1825.5,1625.12c-1.225,7.471-3.043,10.765-3.043,10.765v3.443h-34.434s.948-5,.263-7.569c-.623-2.341-4.33-13.318-3.718-22.025.058-.871.151-1.769.282-2.686,1.088-7.632,4.064-10.929,6.3-12.349a8.7,8.7,0,0,1,.8-.449,5.982,5.982,0,0,1,1.9-.608.105.105,0,0,1,.023,0s1.71-13.382,1.885-15.786.732-18.94,4.632-19.725c4.617-.932,5.318,4.118,4.288,16.815s-.855,14.923-.855,14.923,5.488-1.548,8.576,1.885a6.717,6.717,0,0,1,6.861,2.744,6.9,6.9,0,0,1,8.061,3.758c2.573,5.337-1.137,22.639-1.831,26.869" transform="translate(-1693.635 -1478.682)" fill="#fff"/>
    <path id="Path_60042" data-name="Path 60042" d="M1815.263,1632.126h-35.334l.092-.483c.009-.049.923-4.935.27-7.388-.078-.294-.208-.732-.372-1.287-1.167-3.951-3.9-13.2-3.36-20.871.06-.9.156-1.812.286-2.715,1.1-7.742,4.138-11.145,6.489-12.635a9.243,9.243,0,0,1,.839-.47,7.111,7.111,0,0,1,1.742-.6c.255-2.006,1.687-13.3,1.844-15.459.015-.206.032-.524.055-.926a105.959,105.959,0,0,1,1.047-10.759c.872-5.312,2.133-8.063,3.856-8.41a3.55,3.55,0,0,1,3.253.659c1.949,1.731,2.361,6.227,1.521,16.588-.778,9.592-.865,13.214-.864,14.38a12.574,12.574,0,0,1,2.743-.242,11.248,11.248,0,0,0,7.964,2.191,6.768,6.768,0,0,1,4.507,2.73,8.372,8.372,0,0,1,2.957-.065,6.954,6.954,0,0,1,5.3,4.105c2.292,4.753-.193,18.308-1.387,24.822-.178.97-.318,1.735-.409,2.289l-.4-.066.4.066c-1.123,6.853-2.727,10.2-3.038,10.8Zm-34.357-.815h33.542v-3.14l.051-.092c.018-.032,1.8-3.339,3-10.634.092-.561.233-1.33.411-2.3.592-3.23,1.487-8.112,1.976-12.874.582-5.671.407-9.523-.521-11.448a6.122,6.122,0,0,0-4.664-3.65,7.442,7.442,0,0,0-2.919.107l-.282.08-.166-.243a5.907,5.907,0,0,0-4.091-2.609,6.734,6.734,0,0,0-2.339.032l-.235.055-.162-.179a6.836,6.836,0,0,0-5.153-2.095,11.376,11.376,0,0,0-3.01.33l-.478.135-.039-.5c-.007-.092-.165-2.41.855-14.987a75.925,75.925,0,0,0,.327-10.9c-.189-2.6-.7-4.24-1.577-5.015a2.8,2.8,0,0,0-2.551-.469c-1.748.352-2.763,5-3.213,7.744a105.216,105.216,0,0,0-1.038,10.673c-.023.405-.041.726-.056.938-.173,2.387-1.817,15.262-1.887,15.809l-.045.356-.346,0a5.566,5.566,0,0,0-1.762.568,8.439,8.439,0,0,0-.762.427c-2.205,1.4-5.058,4.627-6.118,12.062-.127.883-.221,1.776-.279,2.655-.528,7.523,2.174,16.676,3.328,20.585.166.561.3,1,.377,1.308.581,2.183.049,5.931-.172,7.266" transform="translate(-1686.029 -1471.073)" fill="#1d1d1b"/>
    <path id="Path_60043" data-name="Path 60043" d="M1915.973,2270.236a55.805,55.805,0,0,0-.787-11.612,6.676,6.676,0,0,1,2.705-1.059Z" transform="translate(-1817.662 -2142.608)"/>
    <path id="Path_60044" data-name="Path 60044" d="M273.8,1512.418s-1.18,8.007-7.883,11.335v5.488a7.162,7.162,0,0,1-4.458,6.61,6.838,6.838,0,0,1-2.012.488.373.373,0,0,1-.093.008c-.066,0-.135.011-.205.011-.116.008-.24.012-.36.012H233.3a7.178,7.178,0,0,1-2.009-.286c-.228-.07-.453-.147-.673-.236a7.13,7.13,0,0,1-4.451-6.606v-9.1A7.138,7.138,0,0,1,233.3,1513h25.488a7.133,7.133,0,0,1,6.939,5.515,14.188,14.188,0,0,0,8.073-6.1" transform="translate(-214.654 -1435.404)" fill="#2b438a"/>
    <path id="Path_60045" data-name="Path 60045" d="M2703.64,1996.907v9.1a7.13,7.13,0,0,1-6.467,7.094.281.281,0,0,1-.1.011h-.011c-.062,0-.128.008-.19.008-.12.011-.244.016-.364.016h-25.484a7.007,7.007,0,0,1-1.521-.167,6.831,6.831,0,0,1-1.161-.356,7.127,7.127,0,0,1-4.454-6.606v-2.133c-7.624-2.976-8.924-11.8-8.924-11.8a13.924,13.924,0,0,0,8.924,6.3v-1.467a7.138,7.138,0,0,1,7.136-7.136h25.484a7.132,7.132,0,0,1,7.129,7.136" transform="translate(-2519.773 -1888.449)" fill="#2f478f"/>
    <path id="Path_60046" data-name="Path 60046" d="M3030.722,1992.72a5.33,5.33,0,0,1-.654,1.014,7.335,7.335,0,0,1-1.041,1.041v0a10.05,10.05,0,0,1-3.243,1.749,17.025,17.025,0,0,1-2.81.666h-6.858a10.618,10.618,0,0,1-3.769-2.241,8.191,8.191,0,0,1-1.289-1.482,5.334,5.334,0,0,1-.449-.828,3.334,3.334,0,0,1,0-2.914c.735-1.389,2.221-2.3,2.868-3.715a6.423,6.423,0,0,0,.2-3.123c-.139-1.97-.194-4.864,1.064-6.486a9.652,9.652,0,0,1,2.848-2.577,6.6,6.6,0,0,1,1.842-.7,6.462,6.462,0,0,1,1.42-.151,5.923,5.923,0,0,1,2.86.855,8.56,8.56,0,0,1,2.717,2.477c1.42,2.047,1.587,4.7,1.467,7.187a10.427,10.427,0,0,0,.031,2.28,3.025,3.025,0,0,0,1.08,1.95,4.835,4.835,0,0,1,2.016,2.333,3.506,3.506,0,0,1-.3,2.667" transform="translate(-2856.987 -1872.505)" fill="#172b4d"/>
    <path id="Path_60047" data-name="Path 60047" d="M3053.812,2241.069H3035.5c.135-.472.283-.913.434-1.3.1-.271.228-.6.356-.937,0-.008.008-.019.012-.027.53-1.42,1.153-3.174,1.153-3.174a16.2,16.2,0,0,0,2.07-.329q.261-.064.511-.139c.108-.035.209-.07.309-.1a1.1,1.1,0,0,0,.124-.042,1.677,1.677,0,0,0,.875-.681,5.842,5.842,0,0,0,.646-1.5c.042-.174.073-.344.1-.507.023-.132.039-.255.05-.375.011-.089.019-.17.023-.251,0-.054.008-.1.008-.155.008-.116.012-.225.015-.325s0-.19,0-.267c0-.058,0-.1,0-.147a.873.873,0,0,0,0-.108.439.439,0,0,0,0-.066l5.128-.7h0a.1.1,0,0,1,0,.023c0,.012,0,.023,0,.043-.008.07-.016.2-.02.36a.141.141,0,0,0,0,.039v0c0,.046,0,.1,0,.147s0,.116,0,.182c0,.182,0,.391,0,.612v0c.031,1.254.252,2.949,1.184,3.39a1.114,1.114,0,0,0,.384.1c.062,0,.127.012.193.016.042,0,.085.008.132.016.07,0,.143.011.217.019,1.118.108,2.519.271,2.519.271s.418,1.513,1.068,3.491v0c.252.755.538,1.583.848,2.415" transform="translate(-2880.924 -2116.38)" fill="#ffb69e"/>
    <path id="Path_60048" data-name="Path 60048" d="M3162.959,2232.8a4.4,4.4,0,0,0,1.759.333,4.5,4.5,0,0,0,3.522-1.826,13.293,13.293,0,0,1,.031-1.411l-5.129.7a7.759,7.759,0,0,1-.184,2.2" transform="translate(-3001.897 -2116.344)" fill="#f68a73"/>
    <path id="Path_60049" data-name="Path 60049" d="M3285.266,2142.366s.826-.775,1.321-.225-.074,3.27-1.866,3.11Z" transform="translate(-3117.459 -2032.873)" fill="#ffb69e"/>
    <path id="Path_60050" data-name="Path 60050" d="M3109.21,2056.665c0,.123-.036,5.453,4.481,5.452,3.271,0,4.734-3.659,4.961-4.585a7.624,7.624,0,0,0,.207-1.392,4.149,4.149,0,0,0,.007-.486,3.937,3.937,0,0,0-.22-1.366,13.813,13.813,0,0,1-4.92-3.59,8.945,8.945,0,0,1-1.35.98c-.529.259-1.09.444-1.638.659a1.944,1.944,0,0,0-1.382,1.493,12.714,12.714,0,0,0-.146,2.835" transform="translate(-2950.87 -1946.274)" fill="#ffb69e"/>
    <path id="Path_60051" data-name="Path 60051" d="M3210.043,2180.271c.005,0,0,.008,0,.008s0-.008,0-.008" transform="translate(-3046.58 -2069.249)" fill="#594e8a"/>
    <path id="Path_60052" data-name="Path 60052" d="M3150.507,2137.854a.3.3,0,0,0-.072,0c-.265.033-.3.384-.226.585a.255.255,0,0,0,.219.188.282.282,0,0,0,.252-.195c.082-.184.094-.56-.173-.577" transform="translate(-2989.765 -2028.99)" fill="#1c2139"/>
    <path id="Path_60053" data-name="Path 60053" d="M3227.045,2141.737a.3.3,0,0,0-.072,0c-.265.033-.3.384-.226.584a.255.255,0,0,0,.219.188.282.282,0,0,0,.252-.195c.082-.185.094-.56-.174-.577" transform="translate(-3062.406 -2032.674)" fill="#1c2139"/>
    <path id="Path_60054" data-name="Path 60054" d="M3179.25,2146.3c.094-.263.069-.6.222-.826a.021.021,0,0,1,.032-.006c.228.2.115.6.038.849-.054.178-.124.351-.193.522-.023.057-.141.239-.123.3.048.173.37.15.491.13.2-.034.22.287.018.318-.287.043-.882-.069-.833-.448a4.654,4.654,0,0,1,.35-.84" transform="translate(-3017.025 -2036.211)" fill="#f68a73"/>
    <path id="Path_60055" data-name="Path 60055" d="M3288.23,2160.1c.077-.034.156.083.092.139a3.731,3.731,0,0,0-.468.461,1.268,1.268,0,0,1,.452.054c.106.032.109.2-.016.206a3.423,3.423,0,0,1-.612.019c-.062.123-.115.25-.177.377a.118.118,0,0,1-.219-.078,1.735,1.735,0,0,1,.948-1.178" transform="translate(-3119.888 -2050.101)" fill="#f68a73"/>
    <path id="Path_60056" data-name="Path 60056" d="M3174.232,2205.132c.366-.013.726.016,1.093-.017a3.632,3.632,0,0,0,1.105-.325c.051-.021.113.045.081.094a2.208,2.208,0,0,1-2.326.465.116.116,0,0,1,.046-.217" transform="translate(-3012.495 -2092.516)" fill="#f68a73"/>
    <path id="Path_60057" data-name="Path 60057" d="M3223.822,2114.875a.864.864,0,0,1,.652-.036,2.458,2.458,0,0,1,.8.261.132.132,0,0,1-.1.24c-.242-.066-.473-.149-.721-.2a1.442,1.442,0,0,1-.627-.139.078.078,0,0,1,0-.131" transform="translate(-3059.626 -2007.106)" fill="#172b4d"/>
    <path id="Path_60058" data-name="Path 60058" d="M3142.09,2108.631a1.824,1.824,0,0,1,1.334-.014c.186.078.122.368-.086.312-.187-.051-.376-.106-.567-.141a2.5,2.5,0,0,0-.658.007c-.1.007-.1-.131-.023-.164" transform="translate(-2982.037 -2001.13)" fill="#172b4d"/>
    <path id="Path_60059" data-name="Path 60059" d="M2968.054,2331.5c-.062,0-.128.008-.19.008-.12.011-.244.016-.364.016h-25.484a7.017,7.017,0,0,1-1.521-.167,9.151,9.151,0,0,1,3.882-4.381s0,0,.008,0a9.963,9.963,0,0,1,2.9-.89,16.219,16.219,0,0,0,2.071-.329q.261-.064.51-.139a1.639,1.639,0,0,0,.147.426,1.5,1.5,0,0,0,.178.29v0a2.253,2.253,0,0,0,.384.387c1.459,1.173,4.764,1.173,6.939-.174a3.712,3.712,0,0,0,.325-.221,2.886,2.886,0,0,0,.3-.236,3.956,3.956,0,0,0,.724-.782.428.428,0,0,0,.054-.07,10.5,10.5,0,0,1,2.813.375,8.619,8.619,0,0,1,2.763,1.436,13.29,13.29,0,0,1,3.557,4.45" transform="translate(-2790.762 -2206.831)" fill="#ff9f54"/>
    <path id="Path_60060" data-name="Path 60060" d="M3115.12,2325.551a.439.439,0,0,0-.112-.192l-.088-.068a.434.434,0,0,0-.219-.059.447.447,0,0,0-.435.435c.005.039.01.077.016.116a.434.434,0,0,0,.112.192l.088.068a.431.431,0,0,0,.219.06.447.447,0,0,0,.435-.435c0-.039-.01-.077-.015-.115" transform="translate(-2955.683 -2206.828)" fill="#fff"/>
    <path id="Path_60061" data-name="Path 60061" d="M3122.437,2346.9a.434.434,0,0,0-.111-.191l-.088-.068a.428.428,0,0,0-.218-.059.444.444,0,0,0-.432.432c.005.038.01.077.015.115a.435.435,0,0,0,.111.191l.088.068a.428.428,0,0,0,.218.059.479.479,0,0,0,.306-.127.321.321,0,0,0,.089-.139.328.328,0,0,0,.037-.167c-.005-.038-.01-.077-.016-.115" transform="translate(-2962.632 -2227.093)" fill="#fff"/>
    <path id="Path_60062" data-name="Path 60062" d="M3135.956,2364.508a.487.487,0,0,0-.126-.217l-.1-.077a.486.486,0,0,0-.248-.067.474.474,0,0,0-.448.3.372.372,0,0,0-.042.189c.006.043.012.087.018.13a.49.49,0,0,0,.126.217l.1.077a.487.487,0,0,0,.248.067.547.547,0,0,0,.347-.144.371.371,0,0,0,.1-.158.376.376,0,0,0,.042-.189q-.009-.065-.018-.13" transform="translate(-2975.354 -2243.762)" fill="#fff"/>
    <path id="Path_60063" data-name="Path 60063" d="M3156.879,2377.573a.541.541,0,0,0-.139-.239l-.11-.085a.538.538,0,0,0-.273-.074.557.557,0,0,0-.542.542l.019.144a.539.539,0,0,0,.139.239l.11.085a.542.542,0,0,0,.273.074.6.6,0,0,0,.383-.159.4.4,0,0,0,.112-.174.408.408,0,0,0,.047-.208q-.01-.072-.019-.144" transform="translate(-2995.117 -2256.127)" fill="#fff"/>
    <path id="Path_60064" data-name="Path 60064" d="M3182.515,2387.876a.447.447,0,0,0,0,.894.447.447,0,0,0,0-.894" transform="translate(-3020.047 -2266.282)" fill="#fff"/>
    <path id="Path_60065" data-name="Path 60065" d="M3207.418,2387.908a.525.525,0,0,0,0,1.05.525.525,0,0,0,0-1.05" transform="translate(-3043.611 -2266.313)" fill="#fff"/>
    <path id="Path_60066" data-name="Path 60066" d="M3235.274,2380.631a.529.529,0,0,0-.137-.234l-.107-.083a.527.527,0,0,0-.268-.073.546.546,0,0,0-.531.531l.019.141a.53.53,0,0,0,.136.234l.108.083a.529.529,0,0,0,.268.073.59.59,0,0,0,.375-.156.4.4,0,0,0,.11-.171.4.4,0,0,0,.046-.2Z" transform="translate(-3069.54 -2259.036)" fill="#fff"/>
    <path id="Path_60067" data-name="Path 60067" d="M3257.688,2368.25a.515.515,0,0,0-.132-.226l-.1-.08a.512.512,0,0,0-.259-.07.389.389,0,0,0-.2.044.527.527,0,0,0-.315.469l.018.136a.512.512,0,0,0,.132.226l.1.08a.509.509,0,0,0,.259.07.568.568,0,0,0,.363-.15.575.575,0,0,0,.15-.363l-.018-.136" transform="translate(-3090.846 -2247.299)" fill="#fff"/>
    <path id="Path_60068" data-name="Path 60068" d="M3273.5,2346.379a.549.549,0,0,0,0,1.1.549.549,0,0,0,0-1.1" transform="translate(-3106.303 -2226.898)" fill="#fff"/>
    <path id="Path_60069" data-name="Path 60069" d="M3284.88,2322.894a.581.581,0,0,0,0,1.161.581.581,0,0,0,0-1.161" transform="translate(-3117.078 -2204.609)" fill="#fff"/>
    <path id="Path_60070" data-name="Path 60070" d="M829.845,1879.981a6.849,6.849,0,0,1-2.012.488.373.373,0,0,1-.093.008c-.066,0-.135.011-.205.011-.116.008-.24.012-.36.012H825.05l.236-3.99.089-1.5c1.652.774,3.193,2.763,4.47,4.969" transform="translate(-783.037 -1779.534)" fill="#ff9f54"/>
    <path id="Path_60071" data-name="Path 60071" d="M331.441,1880.21H328.8a7.178,7.178,0,0,1-2.009-.286c1.563-3.657,3.189-4.78,3.843-5.1a2.028,2.028,0,0,1,.3-.116l.34,3.684Z" transform="translate(-310.152 -1779.245)" fill="#ff9f54"/>
    <path id="Path_60072" data-name="Path 60072" d="M535.917,1776.987l-.681,2.094v0l-1.312,4.04h-4.737l-1.583-3.754-.244-.577-.383-2.14,1.083-.22.016,0,.31-.062.1-1.037.163-1.722.039-.387.023-.209.039-.4.019-.2,1.815.058,1.653.05.693.023h.011l.917.027.194,1.683.1.9.081.7.081.739.248.062.132.031Z" transform="translate(-500.143 -1682.159)" fill="#ffb69e"/>
    <path id="Path_60073" data-name="Path 60073" d="M565.441,1775.156a5.916,5.916,0,0,1-1.344.14,5.132,5.132,0,0,1-4.153-1.689l.115-1.194,5.092.16Z" transform="translate(-531.431 -1682.16)" fill="#f68a73"/>
    <path id="Path_60074" data-name="Path 60074" d="M505.1,1518.909a5.552,5.552,0,0,0-1.277.721c-.659.526-1.185,1.2-1.836,1.72-.75.6-1.65,2.016-2.672.825-.346-.4-.51-.937-.845-1.35-.477-.589-1.177-.861-1.415-1.606a13.481,13.481,0,0,1-.71-3.907c-.013-1.027.108-2.333,1.212-2.81a2.636,2.636,0,0,0,.416-.181,1.537,1.537,0,0,0,.382-.438,5.4,5.4,0,0,1,3.531-2.223c1.464-.236,2.988.141,4.434-.187a1.228,1.228,0,0,1,.6-.048.955.955,0,0,1,.4.274,3.995,3.995,0,0,1,.854,4.323c-.191.472-.62.853-.651,1.357s-.006,1.041-.067,1.538a1.512,1.512,0,0,1-.548.911,5.3,5.3,0,0,1-1.806,1.082" transform="translate(-471.07 -1432.542)" fill="#262d4f"/>
    <path id="Path_60075" data-name="Path 60075" d="M528.661,1580.221a8.881,8.881,0,0,1-1.289,3.9,3.5,3.5,0,0,1-2.822,1.645,5.493,5.493,0,0,1-2.366-.392,6.226,6.226,0,0,1-3.394-4.331c-.3-1.561-.973-4.295-.733-5.888.008,0,.008-.012.008-.024a1.812,1.812,0,0,1,1.889-1.513,5.655,5.655,0,0,1,1.657.34,5.536,5.536,0,0,0,2.9.2,9.507,9.507,0,0,1,1.429-.372c.624-.048,1.569-.032,1.965.452a4.715,4.715,0,0,1,.6,2.182v.008a20,20,0,0,1,.156,3.787" transform="translate(-491.629 -1493.489)" fill="#ffb69e"/>
    <path id="Path_60076" data-name="Path 60076" d="M598.54,1667.611a.281.281,0,0,0-.071,0c-.26.046-.273.395-.193.589a.252.252,0,0,0,.227.174.279.279,0,0,0,.239-.205c.071-.186.063-.558-.2-.561" transform="translate(-567.77 -1582.693)" fill="#1c2139"/>
    <path id="Path_60077" data-name="Path 60077" d="M679.659,1662.447a.253.253,0,0,1,.063,0c.229.041.241.347.17.519a.222.222,0,0,1-.2.154.246.246,0,0,1-.21-.181c-.063-.164-.056-.491.177-.494" transform="translate(-644.85 -1577.792)" fill="#1c2139"/>
    <path id="Path_60078" data-name="Path 60078" d="M511.961,1546.043a.8.8,0,0,0,.207.2.572.572,0,0,0,.4-.009.077.077,0,0,0,.073-.092c0-.412.127-2.1.2-2.563a1.889,1.889,0,0,1,1.031-1.542,2.238,2.238,0,0,1,.716-.113,12.758,12.758,0,0,1,1.407.024,6.5,6.5,0,0,0,1.851,0c.406-.089.786-.274,1.193-.364a3.947,3.947,0,0,1,1.524-.041c.357.063,1.192.287,1.233.73.045.014.076-.043.094-.087.07-.178.219-.315.293-.49a1.053,1.053,0,0,0-.191-.966,2.739,2.739,0,0,0-2.374-1.412,6.822,6.822,0,0,0-1.475.394,5.8,5.8,0,0,1-2.126.226c-.6-.048-1.637-.465-2.176-.093a3.105,3.105,0,0,0-.427.408,18.023,18.023,0,0,0-1.476,1.316,3.873,3.873,0,0,0-.647,2.382c-.008.552-.257,1.509.337,1.889.084.053.183.082.262.142a.555.555,0,0,1,.07.066" transform="translate(-485.201 -1460.924)" fill="#262d4f"/>
    <path id="Path_60079" data-name="Path 60079" d="M638.075,1669.219a6.171,6.171,0,0,0-.3-1.077.091.091,0,0,0-.175.048c.051.368.154.731.223,1.1a4.4,4.4,0,0,1,.118.534c.013.2-.08.2-.246.117a2.229,2.229,0,0,0-.274-.055c-.12-.02-.219.152-.09.214.227.109.813.3.875-.091a2.622,2.622,0,0,0-.136-.787" transform="translate(-604.823 -1583.138)" fill="#f68a73"/>
    <path id="Path_60080" data-name="Path 60080" d="M419.016,1850.943c.155.333,1.993,4.539,3.019,6.691h-9.969c.05-.654.1-1.262.139-1.819.174-2.326.283-3.75.283-3.75s1.857-.337,3.587-.646l.3-.054.468-.081c.995-.178,1.842-.321,2.094-.352l.05-.008.019,0a.189.189,0,0,0,.012.02Z" transform="translate(-391.082 -1756.669)" fill="#fff"/>
    <path id="Path_60081" data-name="Path 60081" d="M640.5,1861.311H630.108c.7-1.885,1.974-5.341,2.338-6.467a.244.244,0,0,0,.016-.05l6.947,1.285a9.011,9.011,0,0,1,.863,1.242.463.463,0,0,1,.066.135c.019.441.077,1.842.163,3.855" transform="translate(-598.022 -1760.345)" fill="#fff"/>
    <path id="Path_60082" data-name="Path 60082" d="M574.946,1631.26c-.107-.174-.331-.148-.509-.128a4.288,4.288,0,0,0-.566.1,3.7,3.7,0,0,0-.522.174,1.192,1.192,0,0,0-.5.294c-.046.058-.025.178.07.168a1.912,1.912,0,0,0,.474-.163,4.636,4.636,0,0,1,.491-.155,3.755,3.755,0,0,1,.5-.1,1.928,1.928,0,0,1,.236-.018.928.928,0,0,0,.256-.006.117.117,0,0,0,.069-.17" transform="translate(-543.659 -1548.059)" fill="#262d4f"/>
    <path id="Path_60083" data-name="Path 60083" d="M666.628,1623.4a.5.5,0,0,0-.415-.232,2,2,0,0,0-.5,0c-.174.018-.348.044-.521.071a1.04,1.04,0,0,0-.517.143.086.086,0,0,0,.017.135.983.983,0,0,0,.5.017c.162-.013.323-.033.485-.044a2.7,2.7,0,0,1,.458,0,1.412,1.412,0,0,0,.438.037.089.089,0,0,0,.052-.129" transform="translate(-630.804 -1540.502)" fill="#262d4f"/>
    <path id="Path_60084" data-name="Path 60084" d="M407.752,1850.92a.108.108,0,0,1,0,.023v0c-.016.058-.213,1.239-.457,2.933-.163,1.092-.341,2.392-.511,3.754h-6.571c.2-2.856.4-5.5.4-5.5l4.211-.712.3-.054.468-.081,2.094-.352.05-.008Z" transform="translate(-379.83 -1756.669)" fill="#ff9f54"/>
    <path id="Path_60085" data-name="Path 60085" d="M684.757,1861.311H677.7c-.263-1.556-.515-2.953-.728-4.04v0a18.37,18.37,0,0,0-.538-2.392.94.94,0,0,0-.116-.081l7.9,1.029s.244,2.612.542,5.488" transform="translate(-641.877 -1760.345)" fill="#ff9f54"/>
    <path id="Path_60086" data-name="Path 60086" d="M569.22,1645.808a1.7,1.7,0,1,1,1.7-1.7,1.7,1.7,0,0,1-1.7,1.7m0-3.206a1.5,1.5,0,1,0,1.5,1.5,1.506,1.506,0,0,0-1.5-1.5" transform="translate(-538.619 -1558.772)" fill="#fff"/>
    <path id="Path_60087" data-name="Path 60087" d="M655.578,1637.423a1.7,1.7,0,1,1,1.7-1.7,1.7,1.7,0,0,1-1.7,1.7m0-3.206a1.5,1.5,0,1,0,1.5,1.5,1.506,1.506,0,0,0-1.5-1.5" transform="translate(-620.58 -1550.814)" fill="#fff"/>
    <path id="Path_60088" data-name="Path 60088" d="M631.339,1670.339l-.122-.155a1.437,1.437,0,0,1,1.314-.127l-.062.187a1.256,1.256,0,0,0-1.131.095" transform="translate(-599.075 -1584.927)" fill="#fff"/>
    <rect id="Rectangle_46" data-name="Rectangle 46" width="2.034" height="0.197" transform="translate(26.961 85.216) rotate(-3.865)" fill="#fff"/>
    <path id="Path_60089" data-name="Path 60089" d="M505,1663.339s-1.023-1.35-1.669-.729-.121,3.882,2.1,3.8Z" transform="translate(-477.457 -1577.792)" fill="#ffb69e"/>
    <path id="Path_60090" data-name="Path 60090" d="M521.708,1687.09a1.69,1.69,0,0,0-.545-.655.049.049,0,0,0-.071.055,2.939,2.939,0,0,0,.4.634.335.335,0,0,0-.32.287.085.085,0,0,0,.107.081c.119-.028.228-.073.345-.109a2.834,2.834,0,0,0,.29.534c.039.051.146.045.138-.037a1.958,1.958,0,0,0-.343-.791" transform="translate(-494.554 -1600.555)" fill="#f68a73"/>
    <path id="Path_60091" data-name="Path 60091" d="M630.575,1735.845a.559.559,0,0,1,.409.046,1.349,1.349,0,0,0,.444.071,2.163,2.163,0,0,0,.459-.062,1.194,1.194,0,0,0,.406-.136c.061-.042.136.04.1.1-.072.119-.239.148-.363.183a2.769,2.769,0,0,1-.521.1,1.481,1.481,0,0,1-.5-.042,1.111,1.111,0,0,1-.44-.181.051.051,0,0,1,.01-.079" transform="translate(-598.442 -1647.365)" fill="#f68a73"/>
    <path id="Path_60092" data-name="Path 60092" d="M602.62,1715.97a2.264,2.264,0,0,0-2-1.567,3.482,3.482,0,0,0-1.149.1,2.025,2.025,0,0,0-.585.255,2.846,2.846,0,0,0-1,1.208c-.012.023-.019.042-.031.066v0a3.723,3.723,0,0,0-.22.7,4.252,4.252,0,0,0-.1.666v0c-.015.189-.019.375-.019.565a3.291,3.291,0,0,0,.128,1.01l.232.089c.155.054.317.1.484.147h0c.1.027.213.05.321.07a5.732,5.732,0,0,0,1.057.093c.089,0,.178,0,.271,0s.163-.012.24-.02h.023l.07-.011a1.02,1.02,0,0,0,.1-.016c.05-.008.1-.02.143-.027a.577.577,0,0,1,.07-.016c.027-.008.058-.011.081-.019l.081-.023h0c.058-.016.116-.035.17-.054h0s.008,0,.011,0c.085-.031.174-.062.255-.1l.019-.008c.047-.023.093-.042.139-.07s.077-.039.112-.058c0,0,.008,0,.015-.008a0,0,0,0,0,0,0,2.126,2.126,0,0,0,.252-.158c.043-.027.081-.058.116-.085a1.349,1.349,0,0,0,.139-.112.055.055,0,0,0,.016-.012c.066-.054.128-.108.186-.167l0,0c.07-.066.135-.139.2-.213s.124-.147.186-.221.12-.155.174-.236v0a4.724,4.724,0,0,0-.2-1.757m-1.026,1.01c-.07.244-.437.658-.716.453a1.173,1.173,0,0,1-.12-.124.471.471,0,0,0-.553-.085,3.231,3.231,0,0,0-.263.209c-.023.016-.039.031-.062.047h-.012a.84.84,0,0,1-.151.062.685.685,0,0,1-.542-.085.82.82,0,0,1-.341-.391c-.12-.282-.29-1.184.015-1.509a.962.962,0,0,1,.282-.174c.236-.116.476-.232.716-.348a.862.862,0,0,1,.731,0q.29.116.569.255c.271.127.414.565.476.84a1.762,1.762,0,0,1-.031.851" transform="translate(-567.078 -1627.094)" fill="#262d4f"/>
    <path id="Path_60093" data-name="Path 60093" d="M3436.518,1538.422a5.547,5.547,0,0,1-1.307-3.048,13.131,13.131,0,0,1,3.119-10.774,6.468,6.468,0,0,1,5.136-2.451,2.735,2.735,0,0,1,1.438.519c1.169.919.948,2.8.171,4.067s-1.969,2.266-2.594,3.615c-.692,1.493-.6,3.211-.731,4.852-.219,2.735-2.4,6.123-5.232,3.22" transform="translate(-3260.131 -1444.621)" fill="#fafbfc"/>
    <path id="Path_60094" data-name="Path 60094" d="M2863.661,457.326a3.952,3.952,0,1,1,3.953,3.952,3.953,3.953,0,0,1-3.953-3.952" transform="translate(-2717.84 -430.288)" fill="#ff9f54"/>
    <path id="Path_60095" data-name="Path 60095" d="M2909.184,501.757c0,.286-.125.519-.28.519s-.28-.232-.28-.519.125-.519.28-.519.28.232.28.519" transform="translate(-2760.513 -475.714)" fill="#fff"/>
    <path id="Path_60096" data-name="Path 60096" d="M2962.222,501.757c0,.286-.125.519-.28.519s-.28-.232-.28-.519.125-.519.28-.519.28.232.28.519" transform="translate(-2810.851 -475.714)" fill="#fff"/>
    <path id="Path_60097" data-name="Path 60097" d="M2903.3,545.04a1.955,1.955,0,0,1-2.028-1.1.194.194,0,0,1,.366-.125c.012.034.316.841,1.662.841a1.859,1.859,0,0,0,1.784-.859.194.194,0,0,1,.352.162,2.224,2.224,0,0,1-2.136,1.084" transform="translate(-2753.526 -515.996)" fill="#fff"/>
    <path id="Path_60098" data-name="Path 60098" d="M686.279,2157.261a4.946,4.946,0,1,1,4.946,4.946,4.946,4.946,0,0,1-4.946-4.946" transform="translate(-651.333 -2042.716)" fill="#ff9f54"/>
    <path id="Path_60099" data-name="Path 60099" d="M743.25,2212.863c0,.359-.157.649-.35.649s-.35-.291-.35-.649.157-.649.35-.649.35.291.35.649" transform="translate(-704.738 -2099.565)" fill="#fff"/>
    <path id="Path_60100" data-name="Path 60100" d="M809.625,2212.863c0,.359-.157.649-.35.649s-.35-.291-.35-.649.157-.649.35-.649.35.291.35.649" transform="translate(-767.732 -2099.565)" fill="#fff"/>
    <path id="Path_60101" data-name="Path 60101" d="M735.89,2267.04a2.446,2.446,0,0,1-2.538-1.38.242.242,0,0,1,.458-.157c.017.048.4,1.052,2.079,1.052a2.326,2.326,0,0,0,2.233-1.075.245.245,0,0,1,.321-.117.242.242,0,0,1,.119.32,2.783,2.783,0,0,1-2.673,1.357" transform="translate(-695.996 -2149.986)" fill="#fff"/>
    <path id="Path_60102" data-name="Path 60102" d="M1360.547,195.793a4.946,4.946,0,1,1,4.946,4.946,4.946,4.946,0,0,1-4.946-4.946" transform="translate(-1291.266 -181.129)" fill="#ff9f54"/>
    <path id="Path_60103" data-name="Path 60103" d="M1417.517,251.4c0,.359-.157.649-.35.649s-.35-.291-.35-.649.157-.649.35-.649.35.291.35.649" transform="translate(-1344.67 -237.979)" fill="#fff"/>
    <path id="Path_60104" data-name="Path 60104" d="M1483.892,251.4c0,.359-.157.649-.35.649s-.35-.291-.35-.649.157-.649.35-.649.35.291.35.649" transform="translate(-1407.665 -237.979)" fill="#fff"/>
    <path id="Path_60105" data-name="Path 60105" d="M1410.157,305.573a2.446,2.446,0,0,1-2.538-1.379.242.242,0,0,1,.458-.157c.017.046.4,1.052,2.08,1.052a2.326,2.326,0,0,0,2.233-1.075.244.244,0,0,1,.322-.117.242.242,0,0,1,.118.32,2.782,2.782,0,0,1-2.673,1.356" transform="translate(-1335.929 -288.401)" fill="#fff"/>
    <path id="Path_60106" data-name="Path 60106" d="M2993.953,1596.706c-.533-3.367-4.325-2.078-4.714-.5-.389-1.578-3.961-2.889-4.579.457-.655,3.546,4.553,6.885,4.553,6.885s5.3-3.281,4.739-6.842" transform="translate(-2832.624 -1513.377)" fill="#a497e8"/>
    <path id="Path_60107" data-name="Path 60107" d="M823.054,301.271a1.317,1.317,0,1,1,1.317,1.317,1.317,1.317,0,0,1-1.317-1.317" transform="translate(-781.143 -284.68)" fill="#a497e8"/>
    <path id="Path_60108" data-name="Path 60108" d="M934.622,301.271a1.317,1.317,0,1,1,1.317,1.317,1.317,1.317,0,0,1-1.317-1.317" transform="translate(-887.03 -284.68)" fill="#a497e8"/>
    <path id="Path_60109" data-name="Path 60109" d="M1046.189,301.271a1.317,1.317,0,1,1,1.317,1.317,1.317,1.317,0,0,1-1.317-1.317" transform="translate(-992.916 -284.68)" fill="#a497e8"/>
  </g>
</svg>
